<?xml version="1.0" encoding="UTF-8" standalone="no"?>
<!DOCTYPE svg PUBLIC "-//W3C//DTD SVG 1.1//EN"
 "http://www.w3.org/Graphics/SVG/1.1/DTD/svg11.dtd">
<!-- Generated by graphviz version 2.40.1 (20161225.0304)
 -->
<!-- Title: /home/travis/build/AliceO2Group/AliceO2/Framework/Core/test/benchmark_TableBuilder.cxx Pages: 1 -->
<!--zoomable 341 -->
<svg id="main" version="1.1" xmlns="http://www.w3.org/2000/svg" xmlns:xlink="http://www.w3.org/1999/xlink" xml:space="preserve" onload="init(evt)">
<style type="text/css"><![CDATA[
.edge:hover path { stroke: red; }
.edge:hover polygon { stroke: red; fill: red; }
]]></style>
<script type="text/javascript"><![CDATA[
var edges = document.getElementsByTagName('g');
if (edges && edges.length) {
  for (var i=0;i<edges.length;i++) {
    if (edges[i].id.substr(0,4)=='edge') {
      edges[i].setAttribute('class','edge');
    }
  }
}
]]></script>
        <defs>
                <circle id="rim" cx="0" cy="0" r="7"/>
                <circle id="rim2" cx="0" cy="0" r="3.5"/>
                <g id="zoomPlus">
                        <use xlink:href="#rim" fill="#404040">
                                <set attributeName="fill" to="#808080" begin="zoomplus.mouseover" end="zoomplus.mouseout"/>
                        </use>
                        <path d="M-4,0h8M0,-4v8" fill="none" stroke="white" stroke-width="1.5" pointer-events="none"/>
                </g>
                <g id="zoomMin">
                        <use xlink:href="#rim" fill="#404040">
                                <set attributeName="fill" to="#808080" begin="zoomminus.mouseover" end="zoomminus.mouseout"/>
                        </use>
                        <path d="M-4,0h8" fill="none" stroke="white" stroke-width="1.5" pointer-events="none"/>
                </g>
                <g id="dirArrow">
                        <path fill="none" stroke="white" stroke-width="1.5" d="M0,-3.0v7 M-2.5,-0.5L0,-3.0L2.5,-0.5"/>
                </g>
               <g id="resetDef">
                       <use xlink:href="#rim2" fill="#404040">
                               <set attributeName="fill" to="#808080" begin="reset.mouseover" end="reset.mouseout"/>
                       </use>
               </g>
        </defs>

<script type="text/javascript">
var viewWidth = 2492;
var viewHeight = 341;
var sectionId = 'dynsection-0';
</script>
<script xlink:href="../../svgpan.js"/>
<svg id="graph" class="graph">
<g id="viewport">
<title>/home/travis/build/AliceO2Group/AliceO2/Framework/Core/test/benchmark_TableBuilder.cxx</title>
<!-- Node0 -->
<g id="node1" class="node">
<title>Node0</title>
<polygon fill="#bfbfbf" stroke="#000000" points="1747.5,-280.5 1747.5,-332.5 1926.5,-332.5 1926.5,-280.5 1747.5,-280.5"/>
<text text-anchor="start" x="1755.5" y="-320.5" font-family="Helvetica,sans-Serif" font-size="10.00" fill="#000000">/home/travis/build</text>
<text text-anchor="start" x="1755.5" y="-309.5" font-family="Helvetica,sans-Serif" font-size="10.00" fill="#000000">/AliceO2Group/AliceO2</text>
<text text-anchor="start" x="1755.5" y="-298.5" font-family="Helvetica,sans-Serif" font-size="10.00" fill="#000000">/Framework/Core/test/benchmark</text>
<text text-anchor="middle" x="1837" y="-287.5" font-family="Helvetica,sans-Serif" font-size="10.00" fill="#000000">_TableBuilder.cxx</text>
</g>
<!-- Node1 -->
<g id="node2" class="node">
<title>Node1</title>
<g id="a_node2"><a xlink:href="../../d5/d98/TableBuilder_8h.html" target="_top" xlink:title="Framework/TableBuilder.h">
<polygon fill="none" stroke="#000000" points="1766,-224.5 1766,-243.5 1908,-243.5 1908,-224.5 1766,-224.5"/>
<text text-anchor="middle" x="1837" y="-231.5" font-family="Helvetica,sans-Serif" font-size="10.00" fill="#000000">Framework/TableBuilder.h</text>
</a>
</g>
</g>
<!-- Node0&#45;&gt;Node1 -->
<g id="edge1" class="edge">
<title>Node0&#45;&gt;Node1</title>
<path fill="none" stroke="#191970" d="M1837,-280.3258C1837,-271.5142 1837,-261.8397 1837,-253.621"/>
<polygon fill="#191970" stroke="#191970" points="1840.5001,-253.534 1837,-243.534 1833.5001,-253.534 1840.5001,-253.534"/>
</g>
<!-- Node39 -->
<g id="node40" class="node">
<title>Node39</title>
<g id="a_node40"><a xlink:href="../../dc/d03/TableConsumer_8h.html" target="_top" xlink:title="Framework/TableConsumer.h">
<polygon fill="none" stroke="#000000" points="1590.5,-224.5 1590.5,-243.5 1747.5,-243.5 1747.5,-224.5 1590.5,-224.5"/>
<text text-anchor="middle" x="1669" y="-231.5" font-family="Helvetica,sans-Serif" font-size="10.00" fill="#000000">Framework/TableConsumer.h</text>
</a>
</g>
</g>
<!-- Node0&#45;&gt;Node39 -->
<g id="edge58" class="edge">
<title>Node0&#45;&gt;Node39</title>
<path fill="none" stroke="#191970" d="M1776.3481,-280.3258C1750.5926,-269.2111 1721.656,-256.7236 1700.3213,-247.5167"/>
<polygon fill="#191970" stroke="#191970" points="1701.6609,-244.2828 1691.0926,-243.534 1698.8873,-250.7099 1701.6609,-244.2828"/>
</g>
<!-- Node40 -->
<g id="node41" class="node">
<title>Node40</title>
<polygon fill="none" stroke="#bfbfbf" points="1926,-224.5 1926,-243.5 2064,-243.5 2064,-224.5 1926,-224.5"/>
<text text-anchor="middle" x="1995" y="-231.5" font-family="Helvetica,sans-Serif" font-size="10.00" fill="#000000">benchmark/benchmark.h</text>
</g>
<!-- Node0&#45;&gt;Node40 -->
<g id="edge60" class="edge">
<title>Node0&#45;&gt;Node40</title>
<path fill="none" stroke="#191970" d="M1894.0416,-280.3258C1918.0458,-269.3112 1944.9882,-256.9485 1964.999,-247.7663"/>
<polygon fill="#191970" stroke="#191970" points="1966.5933,-250.8857 1974.2225,-243.534 1963.6739,-244.5235 1966.5933,-250.8857"/>
</g>
<!-- Node2 -->
<g id="node3" class="node">
<title>Node2</title>
<g id="a_node3"><a xlink:href="../../de/d33/ASoA_8h.html" target="_top" xlink:title="Framework/ASoA.h">
<polygon fill="none" stroke="#000000" points="1175,-168.5 1175,-187.5 1283,-187.5 1283,-168.5 1175,-168.5"/>
<text text-anchor="middle" x="1229" y="-175.5" font-family="Helvetica,sans-Serif" font-size="10.00" fill="#000000">Framework/ASoA.h</text>
</a>
</g>
</g>
<!-- Node1&#45;&gt;Node2 -->
<g id="edge2" class="edge">
<title>Node1&#45;&gt;Node2</title>
<path fill="none" stroke="#191970" d="M1765.8984,-225.0761C1762.5535,-224.7022 1759.241,-224.3414 1756,-224 1589.4965,-206.4609 1392.8911,-190.5749 1293.4878,-182.8816"/>
<polygon fill="#191970" stroke="#191970" points="1293.5449,-179.3757 1283.3052,-182.0959 1293.0063,-186.3549 1293.5449,-179.3757"/>
</g>
<!-- Node8 -->
<g id="node9" class="node">
<title>Node8</title>
<g id="a_node9"><a xlink:href="../../de/d9b/FunctionalHelpers_8h.html" target="_top" xlink:title="Framework/FunctionalHelpers.h">
<polygon fill="none" stroke="#000000" points="1735,-112.5 1735,-131.5 1905,-131.5 1905,-112.5 1735,-112.5"/>
<text text-anchor="middle" x="1820" y="-119.5" font-family="Helvetica,sans-Serif" font-size="10.00" fill="#000000">Framework/FunctionalHelpers.h</text>
</a>
</g>
</g>
<!-- Node1&#45;&gt;Node8 -->
<g id="edge45" class="edge">
<title>Node1&#45;&gt;Node8</title>
<path fill="none" stroke="#191970" d="M1809.3041,-224.4275C1792.9537,-217.1781 1773.6261,-205.4435 1764,-188 1753.2335,-168.4899 1773.7301,-149.4371 1792.8837,-136.8581"/>
<polygon fill="#191970" stroke="#191970" points="1794.802,-139.7872 1801.4724,-131.5558 1791.1247,-133.8308 1794.802,-139.7872"/>
</g>
<!-- Node9 -->
<g id="node10" class="node">
<title>Node9</title>
<polygon fill="none" stroke="#bfbfbf" points="2070.5,-56.5 2070.5,-75.5 2135.5,-75.5 2135.5,-56.5 2070.5,-56.5"/>
<text text-anchor="middle" x="2103" y="-63.5" font-family="Helvetica,sans-Serif" font-size="10.00" fill="#000000">functional</text>
</g>
<!-- Node1&#45;&gt;Node9 -->
<g id="edge53" class="edge">
<title>Node1&#45;&gt;Node9</title>
<path fill="none" stroke="#191970" d="M1908.0967,-225.0858C1911.1045,-224.7172 1914.082,-224.354 1917,-224 1984.9706,-215.7537 2177.5014,-239.1652 2223,-188 2259.2932,-147.1867 2181.5807,-102.0775 2134.8832,-79.8887"/>
<polygon fill="#191970" stroke="#191970" points="2136.2651,-76.6715 2125.7208,-75.6379 2133.3191,-83.0214 2136.2651,-76.6715"/>
</g>
<!-- Node16 -->
<g id="node17" class="node">
<title>Node16</title>
<polygon fill="none" stroke="#bfbfbf" points="726.5,-56.5 726.5,-75.5 807.5,-75.5 807.5,-56.5 726.5,-56.5"/>
<text text-anchor="middle" x="767" y="-63.5" font-family="Helvetica,sans-Serif" font-size="10.00" fill="#000000">arrow/table.h</text>
</g>
<!-- Node1&#45;&gt;Node16 -->
<g id="edge51" class="edge">
<title>Node1&#45;&gt;Node16</title>
<path fill="none" stroke="#191970" d="M1765.9088,-224.9708C1762.5611,-224.6251 1759.2452,-224.299 1756,-224 1380.2588,-189.3763 1269.931,-251.4389 912,-132 869.3349,-117.763 822.3648,-94.9818 793.7747,-80.256"/>
<polygon fill="#191970" stroke="#191970" points="795.3028,-77.1058 784.8163,-75.5949 792.0718,-83.3155 795.3028,-77.1058"/>
</g>
<!-- Node21 -->
<g id="node22" class="node">
<title>Node21</title>
<polygon fill="none" stroke="#bfbfbf" points="238,-56.5 238,-75.5 282,-75.5 282,-56.5 238,-56.5"/>
<text text-anchor="middle" x="260" y="-63.5" font-family="Helvetica,sans-Serif" font-size="10.00" fill="#000000">string</text>
</g>
<!-- Node1&#45;&gt;Node21 -->
<g id="edge55" class="edge">
<title>Node1&#45;&gt;Node21</title>
<path fill="none" stroke="#191970" d="M1765.9127,-224.9262C1762.564,-224.5924 1759.2468,-224.2811 1756,-224 1594.2828,-209.9989 435.3456,-218.514 298,-132 281.2749,-121.4648 271.1247,-100.7259 265.5741,-85.2938"/>
<polygon fill="#191970" stroke="#191970" points="268.8595,-84.0785 262.4419,-75.6485 262.2017,-86.2406 268.8595,-84.0785"/>
</g>
<!-- Node22 -->
<g id="node23" class="node">
<title>Node22</title>
<polygon fill="none" stroke="#bfbfbf" points="1862,-56.5 1862,-75.5 1920,-75.5 1920,-56.5 1862,-56.5"/>
<text text-anchor="middle" x="1891" y="-63.5" font-family="Helvetica,sans-Serif" font-size="10.00" fill="#000000">memory</text>
</g>
<!-- Node1&#45;&gt;Node22 -->
<g id="edge56" class="edge">
<title>Node1&#45;&gt;Node22</title>
<path fill="none" stroke="#191970" d="M1815.9725,-224.4026C1775.1559,-204.4667 1692.0581,-156.6988 1726,-112 1727.9623,-109.4158 1803.9849,-88.963 1852.1427,-76.2148"/>
<polygon fill="#191970" stroke="#191970" points="1853.1855,-79.5594 1861.9594,-73.6206 1851.397,-72.7917 1853.1855,-79.5594"/>
</g>
<!-- Node31 -->
<g id="node32" class="node">
<title>Node31</title>
<g id="a_node32"><a xlink:href="../../db/d4f/StructToTuple_8h.html" target="_top" xlink:title="Framework/StructToTuple.h">
<polygon fill="none" stroke="#000000" points="2336.5,-168.5 2336.5,-187.5 2483.5,-187.5 2483.5,-168.5 2336.5,-168.5"/>
<text text-anchor="middle" x="2410" y="-175.5" font-family="Helvetica,sans-Serif" font-size="10.00" fill="#000000">Framework/StructToTuple.h</text>
</a>
</g>
</g>
<!-- Node1&#45;&gt;Node31 -->
<g id="edge41" class="edge">
<title>Node1&#45;&gt;Node31</title>
<path fill="none" stroke="#191970" d="M1908.0855,-224.9882C1911.0963,-224.6463 1914.0776,-224.3154 1917,-224 2092.7055,-205.0372 2137.0998,-205.0619 2313,-188 2317.3837,-187.5748 2321.8783,-187.1327 2326.4158,-186.6816"/>
<polygon fill="#191970" stroke="#191970" points="2326.7901,-190.1617 2336.3915,-185.6827 2326.0925,-183.1966 2326.7901,-190.1617"/>
</g>
<!-- Node32 -->
<g id="node33" class="node">
<title>Node32</title>
<polygon fill="none" stroke="#bfbfbf" points="2394.5,-112.5 2394.5,-131.5 2435.5,-131.5 2435.5,-112.5 2394.5,-112.5"/>
<text text-anchor="middle" x="2415" y="-119.5" font-family="Helvetica,sans-Serif" font-size="10.00" fill="#000000">tuple</text>
</g>
<!-- Node1&#45;&gt;Node32 -->
<g id="edge57" class="edge">
<title>Node1&#45;&gt;Node32</title>
<path fill="none" stroke="#191970" d="M1908.0916,-225.0429C1911.1008,-224.6861 1914.08,-224.3371 1917,-224 2067.9535,-206.5753 2109.7903,-225.6812 2257,-188 2304.8155,-175.7607 2357.068,-151.6357 2387.8897,-136.1903"/>
<polygon fill="#191970" stroke="#191970" points="2389.78,-139.1558 2397.1109,-131.5067 2386.61,-132.9148 2389.78,-139.1558"/>
</g>
<!-- Node33 -->
<g id="node34" class="node">
<title>Node33</title>
<g id="a_node34"><a xlink:href="../../d7/dbe/VariantHelpers_8h.html" target="_top" xlink:title="Framework/VariantHelpers.h">
<polygon fill="none" stroke="#000000" points="1485.5,-168.5 1485.5,-187.5 1640.5,-187.5 1640.5,-168.5 1485.5,-168.5"/>
<text text-anchor="middle" x="1563" y="-175.5" font-family="Helvetica,sans-Serif" font-size="10.00" fill="#000000">Framework/VariantHelpers.h</text>
</a>
</g>
</g>
<!-- Node1&#45;&gt;Node33 -->
<g id="edge46" class="edge">
<title>Node1&#45;&gt;Node33</title>
<path fill="none" stroke="#191970" d="M1790.209,-224.4369C1743.0205,-214.7925 1670.128,-199.8948 1619.6876,-189.5858"/>
<polygon fill="#191970" stroke="#191970" points="1620.0963,-186.097 1609.598,-187.5237 1618.6946,-192.9553 1620.0963,-186.097"/>
</g>
<!-- Node34 -->
<g id="node35" class="node">
<title>Node34</title>
<polygon fill="none" stroke="#bfbfbf" points="1773,-168.5 1773,-187.5 1829,-187.5 1829,-168.5 1773,-168.5"/>
<text text-anchor="middle" x="1801" y="-175.5" font-family="Helvetica,sans-Serif" font-size="10.00" fill="#000000">sstream</text>
</g>
<!-- Node1&#45;&gt;Node34 -->
<g id="edge48" class="edge">
<title>Node1&#45;&gt;Node34</title>
<path fill="none" stroke="#191970" d="M1830.7293,-224.2455C1825.7736,-216.5367 1818.717,-205.5598 1812.7224,-196.2348"/>
<polygon fill="#191970" stroke="#191970" points="1815.5506,-194.1618 1807.1989,-187.6427 1809.6624,-197.9471 1815.5506,-194.1618"/>
</g>
<!-- Node35 -->
<g id="node36" class="node">
<title>Node35</title>
<polygon fill="none" stroke="#bfbfbf" points="1847,-168.5 1847,-187.5 1915,-187.5 1915,-168.5 1847,-168.5"/>
<text text-anchor="middle" x="1881" y="-175.5" font-family="Helvetica,sans-Serif" font-size="10.00" fill="#000000">arrow/stl.h</text>
</g>
<!-- Node1&#45;&gt;Node35 -->
<g id="edge49" class="edge">
<title>Node1&#45;&gt;Node35</title>
<path fill="none" stroke="#191970" d="M1844.6642,-224.2455C1850.8473,-216.3761 1859.7063,-205.101 1867.1289,-195.6542"/>
<polygon fill="#191970" stroke="#191970" points="1869.9975,-197.6683 1873.4236,-187.6427 1864.4932,-193.3435 1869.9975,-197.6683"/>
</g>
<!-- Node36 -->
<g id="node37" class="node">
<title>Node36</title>
<polygon fill="none" stroke="#bfbfbf" points="1933.5,-168.5 1933.5,-187.5 2042.5,-187.5 2042.5,-168.5 1933.5,-168.5"/>
<text text-anchor="middle" x="1988" y="-175.5" font-family="Helvetica,sans-Serif" font-size="10.00" fill="#000000">arrow/type_traits.h</text>
</g>
<!-- Node1&#45;&gt;Node36 -->
<g id="edge50" class="edge">
<title>Node1&#45;&gt;Node36</title>
<path fill="none" stroke="#191970" d="M1862.9578,-224.3733C1887.7407,-215.1822 1925.2746,-201.2624 1952.754,-191.0713"/>
<polygon fill="#191970" stroke="#191970" points="1954.2219,-194.26 1962.3809,-187.5011 1951.7879,-187.6968 1954.2219,-194.26"/>
</g>
<!-- Node37 -->
<g id="node38" class="node">
<title>Node37</title>
<polygon fill="none" stroke="#bfbfbf" points="2060.5,-168.5 2060.5,-187.5 2149.5,-187.5 2149.5,-168.5 2060.5,-168.5"/>
<text text-anchor="middle" x="2105" y="-175.5" font-family="Helvetica,sans-Serif" font-size="10.00" fill="#000000">arrow/builder.h</text>
</g>
<!-- Node1&#45;&gt;Node37 -->
<g id="edge52" class="edge">
<title>Node1&#45;&gt;Node37</title>
<path fill="none" stroke="#191970" d="M1882.7663,-224.4369C1929.2013,-214.7341 2001.0829,-199.714 2050.4483,-189.3989"/>
<polygon fill="#191970" stroke="#191970" points="2051.2422,-192.8086 2060.3149,-187.3372 2049.8104,-185.9566 2051.2422,-192.8086"/>
</g>
<!-- Node38 -->
<g id="node39" class="node">
<title>Node38</title>
<polygon fill="none" stroke="#bfbfbf" points="2167.5,-168.5 2167.5,-187.5 2214.5,-187.5 2214.5,-168.5 2167.5,-168.5"/>
<text text-anchor="middle" x="2191" y="-175.5" font-family="Helvetica,sans-Serif" font-size="10.00" fill="#000000">vector</text>
</g>
<!-- Node1&#45;&gt;Node38 -->
<g id="edge54" class="edge">
<title>Node1&#45;&gt;Node38</title>
<path fill="none" stroke="#191970" d="M1908.3483,-225.0607C1983.5035,-215.4295 2097.9471,-200.1021 2157.255,-187.8226"/>
<polygon fill="#191970" stroke="#191970" points="2158.2869,-191.1804 2167.3211,-185.6456 2156.8072,-184.3386 2158.2869,-191.1804"/>
</g>
<!-- Node3 -->
<g id="node4" class="node">
<title>Node3</title>
<g id="a_node4"><a xlink:href="../../dd/dce/Pack_8h.html" target="_top" xlink:title="Framework/Pack.h">
<polygon fill="none" stroke="#000000" points="1738.5,-56.5 1738.5,-75.5 1843.5,-75.5 1843.5,-56.5 1738.5,-56.5"/>
<text text-anchor="middle" x="1791" y="-63.5" font-family="Helvetica,sans-Serif" font-size="10.00" fill="#000000">Framework/Pack.h</text>
</a>
</g>
</g>
<!-- Node2&#45;&gt;Node3 -->
<g id="edge3" class="edge">
<title>Node2&#45;&gt;Node3</title>
<path fill="none" stroke="#191970" d="M1283.2531,-173.5184C1351.6102,-167.2436 1472.4361,-154.0625 1574,-132 1638.8361,-117.9158 1712.328,-93.7807 1754.9952,-78.9262"/>
<polygon fill="#191970" stroke="#191970" points="1756.3644,-82.1551 1764.6423,-75.5425 1754.0475,-75.5497 1756.3644,-82.1551"/>
</g>
<!-- Node7 -->
<g id="node8" class="node">
<title>Node7</title>
<g id="a_node8"><a xlink:href="../../d1/d00/CheckTypes_8h.html" target="_top" xlink:title="Framework/CheckTypes.h">
<polygon fill="none" stroke="#000000" points="991,-56.5 991,-75.5 1131,-75.5 1131,-56.5 991,-56.5"/>
<text text-anchor="middle" x="1061" y="-63.5" font-family="Helvetica,sans-Serif" font-size="10.00" fill="#000000">Framework/CheckTypes.h</text>
</a>
</g>
</g>
<!-- Node2&#45;&gt;Node7 -->
<g id="edge7" class="edge">
<title>Node2&#45;&gt;Node7</title>
<path fill="none" stroke="#191970" d="M1174.9675,-171.4127C1128.0476,-164.4505 1065.2881,-151.7136 1050,-132 1039.6889,-118.7041 1044.5671,-99.3254 1050.7474,-85.0036"/>
<polygon fill="#191970" stroke="#191970" points="1054.0784,-86.1547 1055.2792,-75.6281 1047.776,-83.1083 1054.0784,-86.1547"/>
</g>
<!-- Node2&#45;&gt;Node8 -->
<g id="edge8" class="edge">
<title>Node2&#45;&gt;Node8</title>
<path fill="none" stroke="#191970" d="M1283.014,-172.8819C1383.3079,-163.3786 1599.4742,-142.8958 1724.8066,-131.02"/>
<polygon fill="#191970" stroke="#191970" points="1725.1599,-134.5023 1734.7852,-130.0745 1724.4996,-127.5335 1725.1599,-134.5023"/>
</g>
<!-- Node10 -->
<g id="node11" class="node">
<title>Node10</title>
<g id="a_node11"><a xlink:href="../../d9/de8/CompilerBuiltins_8h.html" target="_top" xlink:title="Framework/CompilerBuiltins.h">
<polygon fill="none" stroke="#000000" points="1556,-56.5 1556,-75.5 1720,-75.5 1720,-56.5 1556,-56.5"/>
<text text-anchor="middle" x="1638" y="-63.5" font-family="Helvetica,sans-Serif" font-size="10.00" fill="#000000">Framework/CompilerBuiltins.h</text>
</a>
</g>
</g>
<!-- Node2&#45;&gt;Node10 -->
<g id="edge11" class="edge">
<title>Node2&#45;&gt;Node10</title>
<path fill="none" stroke="#191970" d="M1228.6982,-168.1648C1228.8331,-153.4787 1231.4575,-126.0457 1248,-112 1250.8338,-109.5939 1430.9785,-89.0985 1545.4153,-76.29"/>
<polygon fill="#191970" stroke="#191970" points="1546.0415,-79.7419 1555.5905,-75.152 1545.2635,-72.7853 1546.0415,-79.7419"/>
</g>
<!-- Node11 -->
<g id="node12" class="node">
<title>Node11</title>
<g id="a_node12"><a xlink:href="../../db/d31/Traits_8h.html" target="_top" xlink:title="Framework/Traits.h">
<polygon fill="none" stroke="#000000" points="2267.5,-112.5 2267.5,-131.5 2376.5,-131.5 2376.5,-112.5 2267.5,-112.5"/>
<text text-anchor="middle" x="2322" y="-119.5" font-family="Helvetica,sans-Serif" font-size="10.00" fill="#000000">Framework/Traits.h</text>
</a>
</g>
</g>
<!-- Node2&#45;&gt;Node11 -->
<g id="edge12" class="edge">
<title>Node2&#45;&gt;Node11</title>
<path fill="none" stroke="#191970" d="M1283.202,-175.223C1466.0157,-165.8565 2059.5182,-135.4483 2257.2421,-125.3179"/>
<polygon fill="#191970" stroke="#191970" points="2257.663,-128.801 2267.4708,-124.7938 2257.3048,-121.8102 2257.663,-128.801"/>
</g>
<!-- Node13 -->
<g id="node14" class="node">
<title>Node13</title>
<g id="a_node14"><a xlink:href="../../d0/d91/Expressions_8h.html" target="_top" xlink:title="Framework/Expressions.h">
<polygon fill="none" stroke="#000000" points="1059.5,-112.5 1059.5,-131.5 1200.5,-131.5 1200.5,-112.5 1059.5,-112.5"/>
<text text-anchor="middle" x="1130" y="-119.5" font-family="Helvetica,sans-Serif" font-size="10.00" fill="#000000">Framework/Expressions.h</text>
</a>
</g>
</g>
<!-- Node2&#45;&gt;Node13 -->
<g id="edge14" class="edge">
<title>Node2&#45;&gt;Node13</title>
<path fill="none" stroke="#191970" d="M1211.7555,-168.2455C1196.4239,-159.5731 1173.7801,-146.7645 1156.2084,-136.825"/>
<polygon fill="#191970" stroke="#191970" points="1157.4741,-133.5198 1147.0469,-131.6427 1154.0276,-139.6126 1157.4741,-133.5198"/>
</g>
<!-- Node2&#45;&gt;Node16 -->
<g id="edge34" class="edge">
<title>Node2&#45;&gt;Node16</title>
<path fill="none" stroke="#191970" d="M1174.5691,-169.0835C1125.9137,-160.7436 1052.8127,-147.3012 990,-132 924.674,-116.0865 849.9744,-92.9485 805.7391,-78.7189"/>
<polygon fill="#191970" stroke="#191970" points="806.5672,-75.3083 795.9754,-75.5634 804.4145,-81.9691 806.5672,-75.3083"/>
</g>
<!-- Node17 -->
<g id="node18" class="node">
<title>Node17</title>
<polygon fill="none" stroke="#bfbfbf" points="825.5,-56.5 825.5,-75.5 972.5,-75.5 972.5,-56.5 825.5,-56.5"/>
<text text-anchor="middle" x="899" y="-63.5" font-family="Helvetica,sans-Serif" font-size="10.00" fill="#000000">gandiva/selection_vector.h</text>
</g>
<!-- Node2&#45;&gt;Node17 -->
<g id="edge39" class="edge">
<title>Node2&#45;&gt;Node17</title>
<path fill="none" stroke="#191970" d="M1178.7499,-168.4909C1140.4337,-160.5751 1086.6564,-148.0233 1041,-132 999.6968,-117.5045 954.1752,-95.1338 926.0811,-80.5288"/>
<polygon fill="#191970" stroke="#191970" points="927.3872,-77.2615 916.9062,-75.7123 924.1335,-83.4594 927.3872,-77.2615"/>
</g>
<!-- Node23 -->
<g id="node24" class="node">
<title>Node23</title>
<g id="a_node24"><a xlink:href="../../d0/d92/Kernels_8h.html" target="_top" xlink:title="Framework/Kernels.h">
<polygon fill="none" stroke="#000000" points="307.5,-112.5 307.5,-131.5 426.5,-131.5 426.5,-112.5 307.5,-112.5"/>
<text text-anchor="middle" x="367" y="-119.5" font-family="Helvetica,sans-Serif" font-size="10.00" fill="#000000">Framework/Kernels.h</text>
</a>
</g>
</g>
<!-- Node2&#45;&gt;Node23 -->
<g id="edge27" class="edge">
<title>Node2&#45;&gt;Node23</title>
<path fill="none" stroke="#191970" d="M1174.7515,-174.4757C1024.7111,-164.7283 604.2433,-137.4126 436.9461,-126.5441"/>
<polygon fill="#191970" stroke="#191970" points="436.9816,-123.0391 426.7757,-125.8833 436.5277,-130.0244 436.9816,-123.0391"/>
</g>
<!-- Node24 -->
<g id="node25" class="node">
<title>Node24</title>
<polygon fill="none" stroke="#bfbfbf" points="300.5,-56.5 300.5,-75.5 433.5,-75.5 433.5,-56.5 300.5,-56.5"/>
<text text-anchor="middle" x="367" y="-63.5" font-family="Helvetica,sans-Serif" font-size="10.00" fill="#000000">arrow/compute/kernel.h</text>
</g>
<!-- Node2&#45;&gt;Node24 -->
<g id="edge38" class="edge">
<title>Node2&#45;&gt;Node24</title>
<path fill="none" stroke="#191970" d="M1174.6766,-173.2898C1091.0335,-165.8274 925.7352,-150.2474 786,-132 660.0018,-115.5465 513.4965,-91.2881 431.3731,-77.2216"/>
<polygon fill="#191970" stroke="#191970" points="431.8875,-73.7588 421.4394,-75.516 430.7029,-80.6578 431.8875,-73.7588"/>
</g>
<!-- Node27 -->
<g id="node28" class="node">
<title>Node27</title>
<polygon fill="none" stroke="#bfbfbf" points="452,-56.5 452,-75.5 562,-75.5 562,-56.5 452,-56.5"/>
<text text-anchor="middle" x="507" y="-63.5" font-family="Helvetica,sans-Serif" font-size="10.00" fill="#000000">arrow/util/variant.h</text>
</g>
<!-- Node2&#45;&gt;Node27 -->
<g id="edge36" class="edge">
<title>Node2&#45;&gt;Node27</title>
<path fill="none" stroke="#191970" d="M1174.8294,-170.4323C1111.6824,-161.5427 1004.2004,-146.2011 912,-132 791.9799,-113.5139 652.2291,-90.3839 572.2361,-76.9904"/>
<polygon fill="#191970" stroke="#191970" points="572.7474,-73.5273 562.3064,-75.3264 571.5904,-80.4311 572.7474,-73.5273"/>
</g>
<!-- Node28 -->
<g id="node29" class="node">
<title>Node28</title>
<polygon fill="none" stroke="#bfbfbf" points="1257,-112.5 1257,-131.5 1337,-131.5 1337,-112.5 1257,-112.5"/>
<text text-anchor="middle" x="1297" y="-119.5" font-family="Helvetica,sans-Serif" font-size="10.00" fill="#000000">arrow/array.h</text>
</g>
<!-- Node2&#45;&gt;Node28 -->
<g id="edge35" class="edge">
<title>Node2&#45;&gt;Node28</title>
<path fill="none" stroke="#191970" d="M1240.8447,-168.2455C1250.888,-159.9746 1265.4995,-147.9416 1277.3004,-138.2232"/>
<polygon fill="#191970" stroke="#191970" points="1279.7967,-140.7015 1285.291,-131.6427 1275.3467,-135.298 1279.7967,-140.7015"/>
</g>
<!-- Node29 -->
<g id="node30" class="node">
<title>Node29</title>
<polygon fill="none" stroke="#bfbfbf" points="1355.5,-112.5 1355.5,-131.5 1494.5,-131.5 1494.5,-112.5 1355.5,-112.5"/>
<text text-anchor="middle" x="1425" y="-119.5" font-family="Helvetica,sans-Serif" font-size="10.00" fill="#000000">arrow/compute/context.h</text>
</g>
<!-- Node2&#45;&gt;Node29 -->
<g id="edge37" class="edge">
<title>Node2&#45;&gt;Node29</title>
<path fill="none" stroke="#191970" d="M1262.6936,-168.3733C1295.7087,-158.9404 1346.1573,-144.5265 1382.0386,-134.2747"/>
<polygon fill="#191970" stroke="#191970" points="1383.0924,-137.6137 1391.7461,-131.5011 1381.1693,-130.8831 1383.0924,-137.6137"/>
</g>
<!-- Node30 -->
<g id="node31" class="node">
<title>Node30</title>
<polygon fill="none" stroke="#bfbfbf" points="1513,-112.5 1513,-131.5 1565,-131.5 1565,-112.5 1513,-112.5"/>
<text text-anchor="middle" x="1539" y="-119.5" font-family="Helvetica,sans-Serif" font-size="10.00" fill="#000000">cassert</text>
</g>
<!-- Node2&#45;&gt;Node30 -->
<g id="edge40" class="edge">
<title>Node2&#45;&gt;Node30</title>
<path fill="none" stroke="#191970" d="M1283.1326,-170.6192C1338.6374,-162.6527 1427.3079,-148.8181 1503,-132 1503.0989,-131.978 1503.198,-131.9559 1503.2972,-131.9337"/>
<polygon fill="#191970" stroke="#191970" points="1503.8446,-135.4027 1512.7338,-129.638 1502.1898,-128.6011 1503.8446,-135.4027"/>
</g>
<!-- Node4 -->
<g id="node5" class="node">
<title>Node4</title>
<polygon fill="none" stroke="#bfbfbf" points="1697.5,-.5 1697.5,-19.5 1750.5,-19.5 1750.5,-.5 1697.5,-.5"/>
<text text-anchor="middle" x="1724" y="-7.5" font-family="Helvetica,sans-Serif" font-size="10.00" fill="#000000">cstddef</text>
</g>
<!-- Node3&#45;&gt;Node4 -->
<g id="edge4" class="edge">
<title>Node3&#45;&gt;Node4</title>
<path fill="none" stroke="#191970" d="M1779.3295,-56.2455C1769.4339,-47.9746 1755.0373,-35.9416 1743.4099,-26.2232"/>
<polygon fill="#191970" stroke="#191970" points="1745.4542,-23.3703 1735.5368,-19.6427 1740.965,-28.7413 1745.4542,-23.3703"/>
</g>
<!-- Node5 -->
<g id="node6" class="node">
<title>Node5</title>
<polygon fill="none" stroke="#bfbfbf" points="1768.5,-.5 1768.5,-19.5 1813.5,-19.5 1813.5,-.5 1768.5,-.5"/>
<text text-anchor="middle" x="1791" y="-7.5" font-family="Helvetica,sans-Serif" font-size="10.00" fill="#000000">utility</text>
</g>
<!-- Node3&#45;&gt;Node5 -->
<g id="edge5" class="edge">
<title>Node3&#45;&gt;Node5</title>
<path fill="none" stroke="#191970" d="M1791,-56.2455C1791,-48.9382 1791,-38.6944 1791,-29.7046"/>
<polygon fill="#191970" stroke="#191970" points="1794.5001,-29.6426 1791,-19.6427 1787.5001,-29.6427 1794.5001,-29.6426"/>
</g>
<!-- Node6 -->
<g id="node7" class="node">
<title>Node6</title>
<polygon fill="none" stroke="#bfbfbf" points="1832,-.5 1832,-19.5 1878,-19.5 1878,-.5 1832,-.5"/>
<text text-anchor="middle" x="1855" y="-7.5" font-family="Helvetica,sans-Serif" font-size="10.00" fill="#000000">cstdio</text>
</g>
<!-- Node3&#45;&gt;Node6 -->
<g id="edge6" class="edge">
<title>Node3&#45;&gt;Node6</title>
<path fill="none" stroke="#191970" d="M1802.1479,-56.2455C1811.5087,-48.0549 1825.0858,-36.1749 1836.1349,-26.5069"/>
<polygon fill="#191970" stroke="#191970" points="1838.7588,-28.8618 1843.9798,-19.6427 1834.1492,-23.5937 1838.7588,-28.8618"/>
</g>
<!-- Node8&#45;&gt;Node3 -->
<g id="edge9" class="edge">
<title>Node8&#45;&gt;Node3</title>
<path fill="none" stroke="#191970" d="M1814.9486,-112.2455C1810.9981,-104.617 1805.3903,-93.7881 1800.5942,-84.5267"/>
<polygon fill="#191970" stroke="#191970" points="1803.7001,-82.9131 1795.9935,-75.6427 1797.4841,-86.1321 1803.7001,-82.9131"/>
</g>
<!-- Node8&#45;&gt;Node9 -->
<g id="edge10" class="edge">
<title>Node8&#45;&gt;Node9</title>
<path fill="none" stroke="#191970" d="M1868.3279,-112.4369C1922.3482,-101.7474 2008.9825,-84.6042 2060.5074,-74.4084"/>
<polygon fill="#191970" stroke="#191970" points="2061.1938,-77.8406 2070.3242,-72.4659 2059.835,-70.9737 2061.1938,-77.8406"/>
</g>
<!-- Node12 -->
<g id="node13" class="node">
<title>Node12</title>
<polygon fill="none" stroke="#bfbfbf" points="2358.5,-56.5 2358.5,-75.5 2427.5,-75.5 2427.5,-56.5 2358.5,-56.5"/>
<text text-anchor="middle" x="2393" y="-63.5" font-family="Helvetica,sans-Serif" font-size="10.00" fill="#000000">type_traits</text>
</g>
<!-- Node11&#45;&gt;Node12 -->
<g id="edge13" class="edge">
<title>Node11&#45;&gt;Node12</title>
<path fill="none" stroke="#191970" d="M2334.3673,-112.2455C2344.9554,-103.8943 2360.4064,-91.7076 2372.7893,-81.9408"/>
<polygon fill="#191970" stroke="#191970" points="2375.0903,-84.5837 2380.7745,-75.6427 2370.7553,-79.0875 2375.0903,-84.5837"/>
</g>
<!-- Node13&#45;&gt;Node3 -->
<g id="edge17" class="edge">
<title>Node13&#45;&gt;Node3</title>
<path fill="none" stroke="#191970" d="M1200.8119,-115.885C1216.3566,-114.5744 1232.7317,-113.2183 1248,-112 1458.4618,-95.2066 1514.4143,-100.9099 1728.3025,-75.988"/>
<polygon fill="#191970" stroke="#191970" points="1728.7539,-79.4592 1738.2776,-74.817 1727.9377,-72.5069 1728.7539,-79.4592"/>
</g>
<!-- Node13&#45;&gt;Node7 -->
<g id="edge18" class="edge">
<title>Node13&#45;&gt;Node7</title>
<path fill="none" stroke="#191970" d="M1117.9811,-112.2455C1107.7902,-103.9746 1092.9638,-91.9416 1080.9893,-82.2232"/>
<polygon fill="#191970" stroke="#191970" points="1082.8514,-79.2268 1072.8812,-75.6427 1078.4402,-84.662 1082.8514,-79.2268"/>
</g>
<!-- Node13&#45;&gt;Node10 -->
<g id="edge16" class="edge">
<title>Node13&#45;&gt;Node10</title>
<path fill="none" stroke="#191970" d="M1200.9558,-113.605C1205.7081,-113.0573 1210.423,-112.5181 1215,-112 1219.0885,-111.5372 1422.5373,-89.4199 1545.7564,-76.0262"/>
<polygon fill="#191970" stroke="#191970" points="1546.3887,-79.4782 1555.9519,-74.918 1545.6322,-72.5192 1546.3887,-79.4782"/>
</g>
<!-- Node14 -->
<g id="node15" class="node">
<title>Node14</title>
<g id="a_node15"><a xlink:href="../../dd/dc2/BasicOps_8h.html" target="_top" xlink:title="Framework/BasicOps.h">
<polygon fill="none" stroke="#000000" points="580,-56.5 580,-75.5 708,-75.5 708,-56.5 580,-56.5"/>
<text text-anchor="middle" x="644" y="-63.5" font-family="Helvetica,sans-Serif" font-size="10.00" fill="#000000">Framework/BasicOps.h</text>
</a>
</g>
</g>
<!-- Node13&#45;&gt;Node14 -->
<g id="edge15" class="edge">
<title>Node13&#45;&gt;Node14</title>
<path fill="none" stroke="#191970" d="M1059.4166,-114.6857C979.3085,-106.261 844.4453,-91.705 718.3094,-76.1382"/>
<polygon fill="#191970" stroke="#191970" points="718.4366,-72.6273 708.0822,-74.8714 717.576,-79.5742 718.4366,-72.6273"/>
</g>
<!-- Node15 -->
<g id="node16" class="node">
<title>Node15</title>
<polygon fill="none" stroke="#bfbfbf" points="1218.5,-56.5 1218.5,-75.5 1319.5,-75.5 1319.5,-56.5 1218.5,-56.5"/>
<text text-anchor="middle" x="1269" y="-63.5" font-family="Helvetica,sans-Serif" font-size="10.00" fill="#000000">arrow/type_fwd.h</text>
</g>
<!-- Node13&#45;&gt;Node15 -->
<g id="edge19" class="edge">
<title>Node13&#45;&gt;Node15</title>
<path fill="none" stroke="#191970" d="M1153.895,-112.3733C1176.5082,-103.2629 1210.6542,-89.5062 1235.8873,-79.3404"/>
<polygon fill="#191970" stroke="#191970" points="1237.4493,-82.4845 1245.4169,-75.5011 1234.8334,-75.9917 1237.4493,-82.4845"/>
</g>
<!-- Node13&#45;&gt;Node16 -->
<g id="edge20" class="edge">
<title>Node13&#45;&gt;Node16</title>
<path fill="none" stroke="#191970" d="M1059.3593,-112.7993C997.9048,-104.5322 906.2204,-91.569 817.5646,-76.207"/>
<polygon fill="#191970" stroke="#191970" points="818.0616,-72.7409 807.6087,-74.4694 816.858,-79.6367 818.0616,-72.7409"/>
</g>
<!-- Node13&#45;&gt;Node17 -->
<g id="edge21" class="edge">
<title>Node13&#45;&gt;Node17</title>
<path fill="none" stroke="#191970" d="M1090.5522,-112.4369C1051.1844,-102.8932 990.5966,-88.2052 948.1292,-77.9101"/>
<polygon fill="#191970" stroke="#191970" points="948.8283,-74.4783 938.2851,-75.5237 947.179,-81.2812 948.8283,-74.4783"/>
</g>
<!-- Node18 -->
<g id="node19" class="node">
<title>Node18</title>
<polygon fill="none" stroke="#bfbfbf" points="1338,-56.5 1338,-75.5 1430,-75.5 1430,-56.5 1338,-56.5"/>
<text text-anchor="middle" x="1384" y="-63.5" font-family="Helvetica,sans-Serif" font-size="10.00" fill="#000000">gandiva/node.h</text>
</g>
<!-- Node13&#45;&gt;Node18 -->
<g id="edge22" class="edge">
<title>Node13&#45;&gt;Node18</title>
<path fill="none" stroke="#191970" d="M1173.3756,-112.4369C1216.937,-102.8328 1284.1277,-88.0191 1330.8634,-77.7152"/>
<polygon fill="#191970" stroke="#191970" points="1331.7915,-81.0947 1340.8034,-75.5237 1330.2843,-74.2588 1331.7915,-81.0947"/>
</g>
<!-- Node19 -->
<g id="node20" class="node">
<title>Node19</title>
<polygon fill="none" stroke="#bfbfbf" points="1448.5,-56.5 1448.5,-75.5 1537.5,-75.5 1537.5,-56.5 1448.5,-56.5"/>
<text text-anchor="middle" x="1493" y="-63.5" font-family="Helvetica,sans-Serif" font-size="10.00" fill="#000000">gandiva/filter.h</text>
</g>
<!-- Node13&#45;&gt;Node19 -->
<g id="edge23" class="edge">
<title>Node13&#45;&gt;Node19</title>
<path fill="none" stroke="#191970" d="M1198.837,-112.4628C1259.2645,-103.9281 1349.7864,-90.7505 1438.2894,-76.073"/>
<polygon fill="#191970" stroke="#191970" points="1438.9437,-79.5123 1448.2324,-74.4162 1437.7931,-72.6075 1438.9437,-79.5123"/>
</g>
<!-- Node20 -->
<g id="node21" class="node">
<title>Node20</title>
<polygon fill="none" stroke="#bfbfbf" points="1149.5,-56.5 1149.5,-75.5 1200.5,-75.5 1200.5,-56.5 1149.5,-56.5"/>
<text text-anchor="middle" x="1175" y="-63.5" font-family="Helvetica,sans-Serif" font-size="10.00" fill="#000000">variant</text>
</g>
<!-- Node13&#45;&gt;Node20 -->
<g id="edge24" class="edge">
<title>Node13&#45;&gt;Node20</title>
<path fill="none" stroke="#191970" d="M1137.8384,-112.2455C1144.162,-104.3761 1153.2224,-93.101 1160.8136,-83.6542"/>
<polygon fill="#191970" stroke="#191970" points="1163.7158,-85.6302 1167.2514,-75.6427 1158.2592,-81.2454 1163.7158,-85.6302"/>
</g>
<!-- Node13&#45;&gt;Node21 -->
<g id="edge25" class="edge">
<title>Node13&#45;&gt;Node21</title>
<path fill="none" stroke="#191970" d="M1059.2842,-120.4593C888.4254,-116.3688 455.8,-103.7208 292.0983,-75.6891"/>
<polygon fill="#191970" stroke="#191970" points="292.6355,-72.2297 282.1745,-73.9081 291.3989,-79.1196 292.6355,-72.2297"/>
</g>
<!-- Node13&#45;&gt;Node22 -->
<g id="edge26" class="edge">
<title>Node13&#45;&gt;Node22</title>
<path fill="none" stroke="#191970" d="M1200.7986,-115.7102C1216.3441,-114.4101 1232.7229,-113.1024 1248,-112 1512.9492,-92.8805 1584.5735,-116.9847 1851.7427,-75.7042"/>
<polygon fill="#191970" stroke="#191970" points="1852.3976,-79.1444 1861.738,-74.1436 1851.3177,-72.2282 1852.3976,-79.1444"/>
</g>
<!-- Node23&#45;&gt;Node14 -->
<g id="edge28" class="edge">
<title>Node23&#45;&gt;Node14</title>
<path fill="none" stroke="#191970" d="M414.3033,-112.4369C462.108,-102.7724 536.0068,-87.8326 587.0108,-77.5213"/>
<polygon fill="#191970" stroke="#191970" points="587.7837,-80.9359 596.8918,-75.5237 586.3966,-74.0747 587.7837,-80.9359"/>
</g>
<!-- Node23&#45;&gt;Node21 -->
<g id="edge33" class="edge">
<title>Node23&#45;&gt;Node21</title>
<path fill="none" stroke="#191970" d="M348.362,-112.2455C331.5614,-103.4527 306.6366,-90.4079 287.5382,-80.4125"/>
<polygon fill="#191970" stroke="#191970" points="288.9073,-77.1787 278.4244,-75.6427 285.6614,-83.3807 288.9073,-77.1787"/>
</g>
<!-- Node23&#45;&gt;Node24 -->
<g id="edge29" class="edge">
<title>Node23&#45;&gt;Node24</title>
<path fill="none" stroke="#191970" d="M367,-112.2455C367,-104.9382 367,-94.6944 367,-85.7046"/>
<polygon fill="#191970" stroke="#191970" points="370.5001,-85.6426 367,-75.6427 363.5001,-85.6427 370.5001,-85.6426"/>
</g>
<!-- Node25 -->
<g id="node26" class="node">
<title>Node25</title>
<polygon fill="none" stroke="#bfbfbf" points="0,-56.5 0,-75.5 86,-75.5 86,-56.5 0,-56.5"/>
<text text-anchor="middle" x="43" y="-63.5" font-family="Helvetica,sans-Serif" font-size="10.00" fill="#000000">arrow/status.h</text>
</g>
<!-- Node23&#45;&gt;Node25 -->
<g id="edge30" class="edge">
<title>Node23&#45;&gt;Node25</title>
<path fill="none" stroke="#191970" d="M308.3037,-112.4642C255.4322,-103.7859 175.308,-90.4156 96.2519,-76.1975"/>
<polygon fill="#191970" stroke="#191970" points="96.5789,-72.7001 86.1163,-74.3689 95.3359,-79.5889 96.5789,-72.7001"/>
</g>
<!-- Node26 -->
<g id="node27" class="node">
<title>Node26</title>
<polygon fill="none" stroke="#bfbfbf" points="104,-56.5 104,-75.5 220,-75.5 220,-56.5 104,-56.5"/>
<text text-anchor="middle" x="162" y="-63.5" font-family="Helvetica,sans-Serif" font-size="10.00" fill="#000000">arrow/util/visibility.h</text>
</g>
<!-- Node23&#45;&gt;Node26 -->
<g id="edge31" class="edge">
<title>Node23&#45;&gt;Node26</title>
<path fill="none" stroke="#191970" d="M331.7592,-112.3733C297.0806,-102.9001 244.0117,-88.4032 206.4538,-78.1435"/>
<polygon fill="#191970" stroke="#191970" points="207.3498,-74.7601 196.7809,-75.5011 205.5051,-81.5126 207.3498,-74.7601"/>
</g>
<!-- Node23&#45;&gt;Node27 -->
<g id="edge32" class="edge">
<title>Node23&#45;&gt;Node27</title>
<path fill="none" stroke="#191970" d="M391.0669,-112.3733C413.8428,-103.2629 448.2344,-89.5062 473.649,-79.3404"/>
<polygon fill="#191970" stroke="#191970" points="475.2623,-82.4648 483.2472,-75.5011 472.6625,-75.9654 475.2623,-82.4648"/>
</g>
<!-- Node31&#45;&gt;Node11 -->
<g id="edge42" class="edge">
<title>Node31&#45;&gt;Node11</title>
<path fill="none" stroke="#191970" d="M2394.6716,-168.2455C2381.1697,-159.6534 2361.2878,-147.0014 2345.7314,-137.1018"/>
<polygon fill="#191970" stroke="#191970" points="2347.4685,-134.0587 2337.1528,-131.6427 2343.7103,-139.9643 2347.4685,-134.0587"/>
</g>
<!-- Node31&#45;&gt;Node12 -->
<g id="edge44" class="edge">
<title>Node31&#45;&gt;Node12</title>
<path fill="none" stroke="#191970" d="M2421.3257,-168.3565C2434.7692,-155.6718 2454.2695,-132.5759 2445,-112 2439.4303,-99.6369 2428.7137,-89.2563 2418.4494,-81.5033"/>
<polygon fill="#191970" stroke="#191970" points="2420.2549,-78.4948 2410.0567,-75.623 2416.2382,-84.2277 2420.2549,-78.4948"/>
</g>
<!-- Node31&#45;&gt;Node32 -->
<g id="edge43" class="edge">
<title>Node31&#45;&gt;Node32</title>
<path fill="none" stroke="#191970" d="M2410.8709,-168.2455C2411.5234,-160.9382 2412.438,-150.6944 2413.2407,-141.7046"/>
<polygon fill="#191970" stroke="#191970" points="2416.7358,-141.9143 2414.139,-131.6427 2409.7635,-141.2918 2416.7358,-141.9143"/>
</g>
<!-- Node33&#45;&gt;Node10 -->
<g id="edge47" class="edge">
<title>Node33&#45;&gt;Node10</title>
<path fill="none" stroke="#191970" d="M1569.3945,-168.4509C1581.9036,-149.7707 1609.7921,-108.1238 1625.8954,-84.0761"/>
<polygon fill="#191970" stroke="#191970" points="1628.9658,-85.7814 1631.6217,-75.5249 1623.1494,-81.8865 1628.9658,-85.7814"/>
</g>
<!-- Node39&#45;&gt;Node22 -->
<g id="edge59" class="edge">
<title>Node39&#45;&gt;Node22</title>
<path fill="none" stroke="#191970" d="M1669.7072,-224.431C1671.9343,-201.4435 1680.8484,-142.744 1715,-112 1715.6516,-111.4135 1800.1593,-89.4877 1851.8222,-76.1227"/>
<polygon fill="#191970" stroke="#191970" points="1852.8771,-79.4651 1861.6822,-73.5727 1851.1244,-72.6881 1852.8771,-79.4651"/>
</g>
</g>
</svg>
        <g id="navigator" transform="translate(0 0)" fill="#404254">
                <rect fill="#f2f5e9" fill-opacity="0.5" stroke="#606060" stroke-width=".5" x="0" y="0" width="60" height="60"/>
                <use id="zoomplus" xlink:href="#zoomPlus" x="17" y="9" onmousedown="handleZoom(evt,'in')"/>
                <use id="zoomminus" xlink:href="#zoomMin" x="42" y="9" onmousedown="handleZoom(evt,'out')"/>
                <use id="reset" xlink:href="#resetDef" x="30" y="36" onmousedown="handleReset()"/>
                <g id="arrowUp" xlink:href="#dirArrow" transform="translate(30 24)" onmousedown="handlePan(0,-1)">
                  <use xlink:href="#rim" fill="#404040">
                        <set attributeName="fill" to="#808080" begin="arrowUp.mouseover" end="arrowUp.mouseout"/>
                  </use>
                  <path fill="none" stroke="white" stroke-width="1.5" d="M0,-3.0v7 M-2.5,-0.5L0,-3.0L2.5,-0.5"/>
                </g>
                <g id="arrowRight" xlink:href="#dirArrow" transform="rotate(90) translate(36 -43)" onmousedown="handlePan(1,0)">
                  <use xlink:href="#rim" fill="#404040">
                        <set attributeName="fill" to="#808080" begin="arrowRight.mouseover" end="arrowRight.mouseout"/>
                  </use>
                  <path fill="none" stroke="white" stroke-width="1.5" d="M0,-3.0v7 M-2.5,-0.5L0,-3.0L2.5,-0.5"/>
                </g>
                <g id="arrowDown" xlink:href="#dirArrow" transform="rotate(180) translate(-30 -48)" onmousedown="handlePan(0,1)">
                  <use xlink:href="#rim" fill="#404040">
                        <set attributeName="fill" to="#808080" begin="arrowDown.mouseover" end="arrowDown.mouseout"/>
                  </use>
                  <path fill="none" stroke="white" stroke-width="1.5" d="M0,-3.0v7 M-2.5,-0.5L0,-3.0L2.5,-0.5"/>
                </g>
                <g id="arrowLeft" xlink:href="#dirArrow" transform="rotate(270) translate(-36 17)" onmousedown="handlePan(-1,0)">
                  <use xlink:href="#rim" fill="#404040">
                        <set attributeName="fill" to="#808080" begin="arrowLeft.mouseover" end="arrowLeft.mouseout"/>
                  </use>
                  <path fill="none" stroke="white" stroke-width="1.5" d="M0,-3.0v7 M-2.5,-0.5L0,-3.0L2.5,-0.5"/>
                </g>
        </g>
        <svg viewBox="0 0 15 15" width="100%" height="30px" preserveAspectRatio="xMaxYMin meet">
         <g id="arrow_out" transform="scale(0.3 0.3)">
          <a xlink:href="benchmark__TableBuilder_8cxx__incl_org.svg" target="_base">
           <rect id="button" ry="5" rx="5" y="6" x="6" height="38" width="38"
                fill="#f2f5e9" fill-opacity="0.5" stroke="#606060" stroke-width="1.0"/>
           <path id="arrow"
             d="M 11.500037,31.436501 C 11.940474,20.09759 22.043105,11.32322 32.158766,21.979434 L 37.068811,17.246167 C 37.068811,17.246167 37.088388,32 37.088388,32 L 22.160133,31.978069 C 22.160133,31.978069 26.997745,27.140456 26.997745,27.140456 C 18.528582,18.264221 13.291696,25.230495 11.500037,31.436501 z"
             style="fill:#404040;"/>
          </a>
         </g>
        </svg>
</svg>
