<?xml version="1.0" encoding="UTF-8" standalone="no"?>
<!DOCTYPE svg PUBLIC "-//W3C//DTD SVG 1.1//EN"
 "http://www.w3.org/Graphics/SVG/1.1/DTD/svg11.dtd">
<!-- Generated by graphviz version 2.40.1 (20161225.0304)
 -->
<!-- Title: /home/travis/build/AliceO2Group/AliceO2/Detectors/MUON/MCH/PreClustering/src/PreClusterFinderMapping.cxx Pages: 1 -->
<svg width="879pt" height="318pt"
 viewBox="0.00 0.00 878.50 318.00" xmlns="http://www.w3.org/2000/svg" xmlns:xlink="http://www.w3.org/1999/xlink">
<g id="graph0" class="graph" transform="scale(1 1) rotate(0) translate(4 314)">
<title>/home/travis/build/AliceO2Group/AliceO2/Detectors/MUON/MCH/PreClustering/src/PreClusterFinderMapping.cxx</title>
<!-- Node0 -->
<g id="node1" class="node">
<title>Node0</title>
<polygon fill="#bfbfbf" stroke="#000000" points="436,-257.5 436,-309.5 630,-309.5 630,-257.5 436,-257.5"/>
<text text-anchor="start" x="444" y="-297.5" font-family="Helvetica,sans-Serif" font-size="10.00" fill="#000000">/home/travis/build</text>
<text text-anchor="start" x="444" y="-286.5" font-family="Helvetica,sans-Serif" font-size="10.00" fill="#000000">/AliceO2Group/AliceO2</text>
<text text-anchor="start" x="444" y="-275.5" font-family="Helvetica,sans-Serif" font-size="10.00" fill="#000000">/Detectors/MUON/MCH/PreClustering</text>
<text text-anchor="middle" x="533" y="-264.5" font-family="Helvetica,sans-Serif" font-size="10.00" fill="#000000">/src/PreClusterFinderMapping.cxx</text>
</g>
<!-- Node1 -->
<g id="node2" class="node">
<title>Node1</title>
<g id="a_node2"><a xlink:href="../../d4/d03/PreClusterFinderMapping_8h.html" target="_top" xlink:title="PreClusterFinderMapping.h">
<polygon fill="none" stroke="#000000" points="43,-196 43,-215 189,-215 189,-196 43,-196"/>
<text text-anchor="middle" x="116" y="-203" font-family="Helvetica,sans-Serif" font-size="10.00" fill="#000000">PreClusterFinderMapping.h</text>
</a>
</g>
</g>
<!-- Node0&#45;&gt;Node1 -->
<g id="edge1" class="edge">
<title>Node0&#45;&gt;Node1</title>
<path fill="none" stroke="#191970" d="M435.7583,-265.3109C355.8676,-250.3673 245.1564,-229.6588 177.1736,-216.9425"/>
<polygon fill="#191970" stroke="#191970" points="177.5247,-213.4476 167.0517,-215.0492 176.2376,-220.3283 177.5247,-213.4476"/>
</g>
<!-- Node6 -->
<g id="node7" class="node">
<title>Node6</title>
<g id="a_node7"><a xlink:href="../../df/db6/CathodeSegmentation_8h.html" target="_top" xlink:title="MCHMappingInterface\l/CathodeSegmentation.h">
<polygon fill="none" stroke="#000000" points="329.5,-56.5 329.5,-86.5 466.5,-86.5 466.5,-56.5 329.5,-56.5"/>
<text text-anchor="start" x="337.5" y="-74.5" font-family="Helvetica,sans-Serif" font-size="10.00" fill="#000000">MCHMappingInterface</text>
<text text-anchor="middle" x="398" y="-63.5" font-family="Helvetica,sans-Serif" font-size="10.00" fill="#000000">/CathodeSegmentation.h</text>
</a>
</g>
</g>
<!-- Node0&#45;&gt;Node6 -->
<g id="edge23" class="edge">
<title>Node0&#45;&gt;Node6</title>
<path fill="none" stroke="#191970" d="M509.3306,-257.2934C500.0169,-246.4251 489.5327,-233.462 481,-221 452.2457,-179.0045 424.7791,-126.2063 409.772,-95.9102"/>
<polygon fill="#191970" stroke="#191970" points="412.9006,-94.3406 405.3516,-86.9066 406.617,-97.4256 412.9006,-94.3406"/>
</g>
<!-- Node8 -->
<g id="node9" class="node">
<title>Node8</title>
<polygon fill="none" stroke="#bfbfbf" points="549.5,-.5 549.5,-19.5 614.5,-19.5 614.5,-.5 549.5,-.5"/>
<text text-anchor="middle" x="582" y="-7.5" font-family="Helvetica,sans-Serif" font-size="10.00" fill="#000000">stdexcept</text>
</g>
<!-- Node0&#45;&gt;Node8 -->
<g id="edge18" class="edge">
<title>Node0&#45;&gt;Node8</title>
<path fill="none" stroke="#191970" d="M523.1924,-257.2057C508.4027,-212.9538 485.4834,-121.9725 519,-56 525.861,-42.4951 538.7532,-32.0099 551.0966,-24.4839"/>
<polygon fill="#191970" stroke="#191970" points="552.9003,-27.4849 559.8934,-19.5258 549.4633,-21.3868 552.9003,-27.4849"/>
</g>
<!-- Node9 -->
<g id="node10" class="node">
<title>Node9</title>
<polygon fill="none" stroke="#bfbfbf" points="633,-.5 633,-19.5 693,-19.5 693,-.5 633,-.5"/>
<text text-anchor="middle" x="663" y="-7.5" font-family="Helvetica,sans-Serif" font-size="10.00" fill="#000000">iostream</text>
</g>
<!-- Node0&#45;&gt;Node9 -->
<g id="edge17" class="edge">
<title>Node0&#45;&gt;Node9</title>
<path fill="none" stroke="#191970" d="M535.8024,-257.4022C538.4513,-238.2491 543.3512,-211.8737 552,-190 577.3109,-125.9861 625.0869,-59.1872 648.8448,-28.0196"/>
<polygon fill="#191970" stroke="#191970" points="651.7963,-29.9237 655.1336,-19.8682 646.254,-25.6478 651.7963,-29.9237"/>
</g>
<!-- Node13 -->
<g id="node14" class="node">
<title>Node13</title>
<polygon fill="none" stroke="#bfbfbf" points="561,-196 561,-215 613,-215 613,-196 561,-196"/>
<text text-anchor="middle" x="587" y="-203" font-family="Helvetica,sans-Serif" font-size="10.00" fill="#000000">cassert</text>
</g>
<!-- Node0&#45;&gt;Node13 -->
<g id="edge15" class="edge">
<title>Node0&#45;&gt;Node13</title>
<path fill="none" stroke="#191970" d="M551.2819,-257.0928C558.9657,-245.994 567.7047,-233.371 574.6153,-223.389"/>
<polygon fill="#191970" stroke="#191970" points="577.5506,-225.2981 580.365,-215.0839 571.7952,-221.3136 577.5506,-225.2981"/>
</g>
<!-- Node14 -->
<g id="node15" class="node">
<title>Node14</title>
<polygon fill="none" stroke="#bfbfbf" points="631.5,-196 631.5,-215 686.5,-215 686.5,-196 631.5,-196"/>
<text text-anchor="middle" x="659" y="-203" font-family="Helvetica,sans-Serif" font-size="10.00" fill="#000000">fstream</text>
</g>
<!-- Node0&#45;&gt;Node14 -->
<g id="edge16" class="edge">
<title>Node0&#45;&gt;Node14</title>
<path fill="none" stroke="#191970" d="M575.3067,-257.3101C595.0923,-245.0619 617.9413,-230.9173 634.7611,-220.505"/>
<polygon fill="#191970" stroke="#191970" points="636.7671,-223.3796 643.4275,-215.1401 633.0826,-217.4278 636.7671,-223.3796"/>
</g>
<!-- Node15 -->
<g id="node16" class="node">
<title>Node15</title>
<polygon fill="none" stroke="#bfbfbf" points="705,-196 705,-215 761,-215 761,-196 705,-196"/>
<text text-anchor="middle" x="733" y="-203" font-family="Helvetica,sans-Serif" font-size="10.00" fill="#000000">TMath.h</text>
</g>
<!-- Node0&#45;&gt;Node15 -->
<g id="edge19" class="edge">
<title>Node0&#45;&gt;Node15</title>
<path fill="none" stroke="#191970" d="M602.5839,-257.355C631.5502,-246.3325 665.4795,-233.2408 696,-221 697.5998,-220.3584 699.2362,-219.6959 700.887,-219.0227"/>
<polygon fill="#191970" stroke="#191970" points="702.4383,-222.1688 710.3469,-215.1186 699.7679,-215.6982 702.4383,-222.1688"/>
</g>
<!-- Node16 -->
<g id="node17" class="node">
<title>Node16</title>
<polygon fill="none" stroke="#bfbfbf" points="779.5,-196 779.5,-215 870.5,-215 870.5,-196 779.5,-196"/>
<text text-anchor="middle" x="825" y="-203" font-family="Helvetica,sans-Serif" font-size="10.00" fill="#000000">FairMQLogger.h</text>
</g>
<!-- Node0&#45;&gt;Node16 -->
<g id="edge20" class="edge">
<title>Node0&#45;&gt;Node16</title>
<path fill="none" stroke="#191970" d="M630.2464,-258.2495C673.1381,-247.0107 724.1233,-233.5126 770,-221 773.8209,-219.9579 777.7876,-218.8638 781.7618,-217.7594"/>
<polygon fill="#191970" stroke="#191970" points="782.8881,-221.0788 791.577,-215.0164 781.004,-214.3371 782.8881,-221.0788"/>
</g>
<!-- Node17 -->
<g id="node18" class="node">
<title>Node17</title>
<g id="a_node18"><a xlink:href="../../d0/d28/CreateSegmentation_8h.html" target="_top" xlink:title="MCHMappingFactory/Create\lSegmentation.h">
<polygon fill="none" stroke="#000000" points="221.5,-190.5 221.5,-220.5 372.5,-220.5 372.5,-190.5 221.5,-190.5"/>
<text text-anchor="start" x="229.5" y="-208.5" font-family="Helvetica,sans-Serif" font-size="10.00" fill="#000000">MCHMappingFactory/Create</text>
<text text-anchor="middle" x="297" y="-197.5" font-family="Helvetica,sans-Serif" font-size="10.00" fill="#000000">Segmentation.h</text>
</a>
</g>
</g>
<!-- Node0&#45;&gt;Node17 -->
<g id="edge21" class="edge">
<title>Node0&#45;&gt;Node17</title>
<path fill="none" stroke="#191970" d="M454.0873,-257.4187C420.5947,-246.3491 382.3657,-233.7141 352.0068,-223.6802"/>
<polygon fill="#191970" stroke="#191970" points="353.0358,-220.3342 342.4426,-220.5192 350.8391,-226.9806 353.0358,-220.3342"/>
</g>
<!-- Node2 -->
<g id="node3" class="node">
<title>Node2</title>
<polygon fill="none" stroke="#bfbfbf" points="0,-129 0,-148 50,-148 50,-129 0,-129"/>
<text text-anchor="middle" x="25" y="-136" font-family="Helvetica,sans-Serif" font-size="10.00" fill="#000000">cstdint</text>
</g>
<!-- Node1&#45;&gt;Node2 -->
<g id="edge2" class="edge">
<title>Node1&#45;&gt;Node2</title>
<path fill="none" stroke="#191970" d="M102.9619,-195.9005C88.2307,-185.0544 64.0267,-167.2339 46.4908,-154.3229"/>
<polygon fill="#191970" stroke="#191970" points="48.1418,-151.1922 38.0139,-148.0817 43.9915,-156.8291 48.1418,-151.1922"/>
</g>
<!-- Node3 -->
<g id="node4" class="node">
<title>Node3</title>
<polygon fill="none" stroke="#bfbfbf" points="3,-.5 3,-19.5 61,-19.5 61,-.5 3,-.5"/>
<text text-anchor="middle" x="32" y="-7.5" font-family="Helvetica,sans-Serif" font-size="10.00" fill="#000000">memory</text>
</g>
<!-- Node1&#45;&gt;Node3 -->
<g id="edge3" class="edge">
<title>Node1&#45;&gt;Node3</title>
<path fill="none" stroke="#191970" d="M111.8344,-195.8051C98.6785,-165.1863 57.8482,-70.1587 40.2303,-29.1551"/>
<polygon fill="#191970" stroke="#191970" points="43.3542,-27.5595 36.1907,-19.7534 36.9227,-30.3229 43.3542,-27.5595"/>
</g>
<!-- Node4 -->
<g id="node5" class="node">
<title>Node4</title>
<polygon fill="none" stroke="#bfbfbf" points="79.5,-.5 79.5,-19.5 126.5,-19.5 126.5,-.5 79.5,-.5"/>
<text text-anchor="middle" x="103" y="-7.5" font-family="Helvetica,sans-Serif" font-size="10.00" fill="#000000">vector</text>
</g>
<!-- Node1&#45;&gt;Node4 -->
<g id="edge4" class="edge">
<title>Node1&#45;&gt;Node4</title>
<path fill="none" stroke="#191970" d="M115.3553,-195.8051C113.3323,-165.3813 107.0806,-71.3666 104.3263,-29.9452"/>
<polygon fill="#191970" stroke="#191970" points="107.8044,-29.4991 103.6486,-19.7534 100.8199,-29.9636 107.8044,-29.4991"/>
</g>
<!-- Node5 -->
<g id="node6" class="node">
<title>Node5</title>
<g id="a_node6"><a xlink:href="../../d6/d1f/MUON_2MCH_2Mapping_2Interface_2include_2MCHMappingInterface_2Segmentation_8h.html" target="_top" xlink:title="MCHMappingInterface\l/Segmentation.h">
<polygon fill="none" stroke="#000000" points="217,-123.5 217,-153.5 341,-153.5 341,-123.5 217,-123.5"/>
<text text-anchor="start" x="225" y="-141.5" font-family="Helvetica,sans-Serif" font-size="10.00" fill="#000000">MCHMappingInterface</text>
<text text-anchor="middle" x="279" y="-130.5" font-family="Helvetica,sans-Serif" font-size="10.00" fill="#000000">/Segmentation.h</text>
</a>
</g>
</g>
<!-- Node1&#45;&gt;Node5 -->
<g id="edge5" class="edge">
<title>Node1&#45;&gt;Node5</title>
<path fill="none" stroke="#191970" d="M139.3539,-195.9005C163.6603,-185.9096 202.3642,-170.0006 232.8676,-157.4624"/>
<polygon fill="#191970" stroke="#191970" points="234.536,-160.5608 242.4545,-153.5218 231.8747,-154.0864 234.536,-160.5608"/>
</g>
<!-- Node5&#45;&gt;Node6 -->
<g id="edge6" class="edge">
<title>Node5&#45;&gt;Node6</title>
<path fill="none" stroke="#191970" d="M305.7059,-123.4639C322.2784,-114.1332 343.7871,-102.0232 361.8711,-91.8415"/>
<polygon fill="#191970" stroke="#191970" points="363.9748,-94.6737 370.9715,-86.7177 360.5405,-88.574 363.9748,-94.6737"/>
</g>
<!-- Node12 -->
<g id="node13" class="node">
<title>Node12</title>
<g id="a_node13"><a xlink:href="../../d0/d5f/Segmentation_8inl.html" target="_top" xlink:title="Segmentation.inl">
<polygon fill="none" stroke="#000000" points="211,-62 211,-81 311,-81 311,-62 211,-62"/>
<text text-anchor="middle" x="261" y="-69" font-family="Helvetica,sans-Serif" font-size="10.00" fill="#000000">Segmentation.inl</text>
</a>
</g>
</g>
<!-- Node5&#45;&gt;Node12 -->
<g id="edge14" class="edge">
<title>Node5&#45;&gt;Node12</title>
<path fill="none" stroke="#191970" d="M274.9155,-123.2967C272.3289,-113.6685 268.9608,-101.1318 266.1861,-90.8038"/>
<polygon fill="#191970" stroke="#191970" points="269.5418,-89.8044 263.567,-81.055 262.7815,-91.6206 269.5418,-89.8044"/>
</g>
<!-- Node6&#45;&gt;Node3 -->
<g id="edge9" class="edge">
<title>Node6&#45;&gt;Node3</title>
<path fill="none" stroke="#191970" d="M329.1333,-57.6087C326.0492,-57.0517 322.9938,-56.5126 320,-56 212.4868,-37.59 181.7426,-42.0419 71.249,-20.0757"/>
<polygon fill="#191970" stroke="#191970" points="71.8751,-16.6316 61.3806,-18.0865 70.4918,-23.4936 71.8751,-16.6316"/>
</g>
<!-- Node6&#45;&gt;Node4 -->
<g id="edge11" class="edge">
<title>Node6&#45;&gt;Node4</title>
<path fill="none" stroke="#191970" d="M329.0994,-57.7928C326.0245,-57.1859 322.9803,-56.5861 320,-56 241.0203,-40.4682 217.9911,-40.4959 136.8708,-20.2885"/>
<polygon fill="#191970" stroke="#191970" points="137.2345,-16.7708 126.6824,-17.7214 135.5242,-23.5587 137.2345,-16.7708"/>
</g>
<!-- Node7 -->
<g id="node8" class="node">
<title>Node7</title>
<g id="a_node8"><a xlink:href="../../d0/dc7/CathodeSegmentationCInterface_8h.html" target="_top" xlink:title="CathodeSegmentationCInterface.h">
<polygon fill="none" stroke="#000000" points="144.5,-.5 144.5,-19.5 329.5,-19.5 329.5,-.5 144.5,-.5"/>
<text text-anchor="middle" x="237" y="-7.5" font-family="Helvetica,sans-Serif" font-size="10.00" fill="#000000">CathodeSegmentationCInterface.h</text>
</a>
</g>
</g>
<!-- Node6&#45;&gt;Node7 -->
<g id="edge7" class="edge">
<title>Node6&#45;&gt;Node7</title>
<path fill="none" stroke="#191970" d="M358.615,-56.4554C331.9873,-46.284 297.1556,-32.9787 271.5966,-23.2155"/>
<polygon fill="#191970" stroke="#191970" points="272.5399,-19.8292 261.9493,-19.5303 270.042,-26.3684 272.5399,-19.8292"/>
</g>
<!-- Node6&#45;&gt;Node8 -->
<g id="edge8" class="edge">
<title>Node6&#45;&gt;Node8</title>
<path fill="none" stroke="#191970" d="M443.0115,-56.4554C473.9816,-46.104 514.6628,-32.5067 544.002,-22.7004"/>
<polygon fill="#191970" stroke="#191970" points="545.1118,-26.0199 553.4865,-19.5303 542.8927,-19.3809 545.1118,-26.0199"/>
</g>
<!-- Node6&#45;&gt;Node9 -->
<g id="edge10" class="edge">
<title>Node6&#45;&gt;Node9</title>
<path fill="none" stroke="#191970" d="M466.3517,-56.4275C508.8706,-46.9341 564.9166,-34.2098 623.0586,-20.1865"/>
<polygon fill="#191970" stroke="#191970" points="623.89,-23.5864 632.7864,-17.8327 622.2437,-16.7827 623.89,-23.5864"/>
</g>
<!-- Node10 -->
<g id="node11" class="node">
<title>Node10</title>
<polygon fill="none" stroke="#bfbfbf" points="347.5,-.5 347.5,-19.5 448.5,-19.5 448.5,-.5 347.5,-.5"/>
<text text-anchor="middle" x="398" y="-7.5" font-family="Helvetica,sans-Serif" font-size="10.00" fill="#000000">boost/format.hpp</text>
</g>
<!-- Node6&#45;&gt;Node10 -->
<g id="edge12" class="edge">
<title>Node6&#45;&gt;Node10</title>
<path fill="none" stroke="#191970" d="M398,-56.2977C398,-48.3834 398,-38.6043 398,-30.0759"/>
<polygon fill="#191970" stroke="#191970" points="401.5001,-29.8469 398,-19.8469 394.5001,-29.847 401.5001,-29.8469"/>
</g>
<!-- Node11 -->
<g id="node12" class="node">
<title>Node11</title>
<polygon fill="none" stroke="#bfbfbf" points="466.5,-.5 466.5,-19.5 531.5,-19.5 531.5,-.5 466.5,-.5"/>
<text text-anchor="middle" x="499" y="-7.5" font-family="Helvetica,sans-Serif" font-size="10.00" fill="#000000">functional</text>
</g>
<!-- Node6&#45;&gt;Node11 -->
<g id="edge13" class="edge">
<title>Node6&#45;&gt;Node11</title>
<path fill="none" stroke="#191970" d="M422.7074,-56.4554C438.5247,-46.8241 458.9567,-34.3828 474.6949,-24.7996"/>
<polygon fill="#191970" stroke="#191970" points="476.6277,-27.7206 483.3486,-19.5303 472.9871,-21.7418 476.6277,-27.7206"/>
</g>
<!-- Node17&#45;&gt;Node5 -->
<g id="edge22" class="edge">
<title>Node17&#45;&gt;Node5</title>
<path fill="none" stroke="#191970" d="M292.9155,-190.2967C290.7752,-182.3299 288.0999,-172.3718 285.6684,-163.3213"/>
<polygon fill="#191970" stroke="#191970" points="289.0431,-162.3926 283.0683,-153.6432 282.2828,-164.2088 289.0431,-162.3926"/>
</g>
</g>
</svg>
