<?xml version="1.0" encoding="UTF-8" standalone="no"?>
<!DOCTYPE svg PUBLIC "-//W3C//DTD SVG 1.1//EN"
 "http://www.w3.org/Graphics/SVG/1.1/DTD/svg11.dtd">
<!-- Generated by graphviz version 2.40.1 (20161225.0304)
 -->
<!-- Title: /home/travis/build/AliceO2Group/AliceO2/Framework/Core/include/Framework/ASoAHelpers.h Pages: 1 -->
<!--zoomable 285 -->
<svg id="main" version="1.1" xmlns="http://www.w3.org/2000/svg" xmlns:xlink="http://www.w3.org/1999/xlink" xml:space="preserve" onload="init(evt)">
<style type="text/css"><![CDATA[
.edge:hover path { stroke: red; }
.edge:hover polygon { stroke: red; fill: red; }
]]></style>
<script type="text/javascript"><![CDATA[
var edges = document.getElementsByTagName('g');
if (edges && edges.length) {
  for (var i=0;i<edges.length;i++) {
    if (edges[i].id.substr(0,4)=='edge') {
      edges[i].setAttribute('class','edge');
    }
  }
}
]]></script>
        <defs>
                <circle id="rim" cx="0" cy="0" r="7"/>
                <circle id="rim2" cx="0" cy="0" r="3.5"/>
                <g id="zoomPlus">
                        <use xlink:href="#rim" fill="#404040">
                                <set attributeName="fill" to="#808080" begin="zoomplus.mouseover" end="zoomplus.mouseout"/>
                        </use>
                        <path d="M-4,0h8M0,-4v8" fill="none" stroke="white" stroke-width="1.5" pointer-events="none"/>
                </g>
                <g id="zoomMin">
                        <use xlink:href="#rim" fill="#404040">
                                <set attributeName="fill" to="#808080" begin="zoomminus.mouseover" end="zoomminus.mouseout"/>
                        </use>
                        <path d="M-4,0h8" fill="none" stroke="white" stroke-width="1.5" pointer-events="none"/>
                </g>
                <g id="dirArrow">
                        <path fill="none" stroke="white" stroke-width="1.5" d="M0,-3.0v7 M-2.5,-0.5L0,-3.0L2.5,-0.5"/>
                </g>
               <g id="resetDef">
                       <use xlink:href="#rim2" fill="#404040">
                               <set attributeName="fill" to="#808080" begin="reset.mouseover" end="reset.mouseout"/>
                       </use>
               </g>
        </defs>

<script type="text/javascript">
var viewWidth = 2163;
var viewHeight = 285;
var sectionId = 'dynsection-0';
</script>
<script xlink:href="../../svgpan.js"/>
<svg id="graph" class="graph">
<g id="viewport">
<title>/home/travis/build/AliceO2Group/AliceO2/Framework/Core/include/Framework/ASoAHelpers.h</title>
<!-- Node0 -->
<g id="node1" class="node">
<title>Node0</title>
<polygon fill="#bfbfbf" stroke="#000000" points="1393.9853,-224.5 1393.9853,-276.5 1542.9853,-276.5 1542.9853,-224.5 1393.9853,-224.5"/>
<text text-anchor="start" x="1401.9853" y="-264.5" font-family="Helvetica,sans-Serif" font-size="10.00" fill="#000000">/home/travis/build</text>
<text text-anchor="start" x="1401.9853" y="-253.5" font-family="Helvetica,sans-Serif" font-size="10.00" fill="#000000">/AliceO2Group/AliceO2</text>
<text text-anchor="start" x="1401.9853" y="-242.5" font-family="Helvetica,sans-Serif" font-size="10.00" fill="#000000">/Framework/Core/include</text>
<text text-anchor="middle" x="1468.4853" y="-231.5" font-family="Helvetica,sans-Serif" font-size="10.00" fill="#000000">/Framework/ASoAHelpers.h</text>
</g>
<!-- Node1 -->
<g id="node2" class="node">
<title>Node1</title>
<g id="a_node2"><a xlink:href="../../de/d33/ASoA_8h.html" target="_top" xlink:title="Framework/ASoA.h">
<polygon fill="none" stroke="#000000" points="1373.4853,-168.5 1373.4853,-187.5 1481.4853,-187.5 1481.4853,-168.5 1373.4853,-168.5"/>
<text text-anchor="middle" x="1427.4853" y="-175.5" font-family="Helvetica,sans-Serif" font-size="10.00" fill="#000000">Framework/ASoA.h</text>
</a>
</g>
</g>
<!-- Node0&#45;&gt;Node1 -->
<g id="edge1" class="edge">
<title>Node0&#45;&gt;Node1</title>
<path fill="none" stroke="#191970" d="M1453.6834,-224.3258C1448.4737,-215.1136 1442.7307,-204.9584 1437.9528,-196.5096"/>
<polygon fill="#191970" stroke="#191970" points="1440.8461,-194.5156 1432.877,-187.534 1434.753,-197.9614 1440.8461,-194.5156"/>
</g>
<!-- Node4 -->
<g id="node5" class="node">
<title>Node4</title>
<polygon fill="none" stroke="#bfbfbf" points="921.9853,-.5 921.9853,-19.5 966.9853,-19.5 966.9853,-.5 921.9853,-.5"/>
<text text-anchor="middle" x="944.4853" y="-7.5" font-family="Helvetica,sans-Serif" font-size="10.00" fill="#000000">utility</text>
</g>
<!-- Node0&#45;&gt;Node4 -->
<g id="edge44" class="edge">
<title>Node0&#45;&gt;Node4</title>
<path fill="none" stroke="#191970" d="M1393.6535,-247.4785C1107.5317,-235.1492 94.3159,-184.0847 4.4853,-76 -1.1962,-69.1639 -1.6445,-62.4372 4.4853,-56 36.3928,-22.493 747.9598,-12.2659 911.2829,-10.356"/>
<polygon fill="#191970" stroke="#191970" points="911.6985,-13.8516 921.6578,-10.2374 911.6184,-6.8521 911.6985,-13.8516"/>
</g>
<!-- Node22 -->
<g id="node23" class="node">
<title>Node22</title>
<g id="a_node23"><a xlink:href="../../d0/d92/Kernels_8h.html" target="_top" xlink:title="Framework/Kernels.h">
<polygon fill="none" stroke="#000000" points="446.9853,-112.5 446.9853,-131.5 565.9853,-131.5 565.9853,-112.5 446.9853,-112.5"/>
<text text-anchor="middle" x="506.4853" y="-119.5" font-family="Helvetica,sans-Serif" font-size="10.00" fill="#000000">Framework/Kernels.h</text>
</a>
</g>
</g>
<!-- Node0&#45;&gt;Node22 -->
<g id="edge40" class="edge">
<title>Node0&#45;&gt;Node22</title>
<path fill="none" stroke="#191970" d="M1393.7993,-240.5237C1212.6759,-216.33 752.0521,-154.8018 576.1839,-131.31"/>
<polygon fill="#191970" stroke="#191970" points="576.6431,-127.8404 566.2677,-129.9855 575.7162,-134.7788 576.6431,-127.8404"/>
</g>
<!-- Node28 -->
<g id="node29" class="node">
<title>Node28</title>
<polygon fill="none" stroke="#bfbfbf" points="2015.9853,-112.5 2015.9853,-131.5 2154.9853,-131.5 2154.9853,-112.5 2015.9853,-112.5"/>
<text text-anchor="middle" x="2085.4853" y="-119.5" font-family="Helvetica,sans-Serif" font-size="10.00" fill="#000000">arrow/compute/context.h</text>
</g>
<!-- Node0&#45;&gt;Node28 -->
<g id="edge41" class="edge">
<title>Node0&#45;&gt;Node28</title>
<path fill="none" stroke="#191970" d="M1479.8933,-224.4722C1489.7856,-205.3112 1506.0557,-180.5046 1528.4853,-168 1618.8912,-117.5984 1884.8481,-141.2504 2005.545,-131.9278"/>
<polygon fill="#191970" stroke="#191970" points="2006.0684,-135.3952 2015.7203,-131.0259 2005.4503,-128.4225 2006.0684,-135.3952"/>
</g>
<!-- Node30 -->
<g id="node31" class="node">
<title>Node30</title>
<polygon fill="none" stroke="#bfbfbf" points="1537.9853,-168.5 1537.9853,-187.5 1590.9853,-187.5 1590.9853,-168.5 1537.9853,-168.5"/>
<text text-anchor="middle" x="1564.4853" y="-175.5" font-family="Helvetica,sans-Serif" font-size="10.00" fill="#000000">iterator</text>
</g>
<!-- Node0&#45;&gt;Node30 -->
<g id="edge42" class="edge">
<title>Node0&#45;&gt;Node30</title>
<path fill="none" stroke="#191970" d="M1503.1435,-224.3258C1516.6677,-214.1123 1531.7267,-202.7396 1543.5396,-193.8184"/>
<polygon fill="#191970" stroke="#191970" points="1545.9903,-196.3536 1551.861,-187.534 1541.7717,-190.7676 1545.9903,-196.3536"/>
</g>
<!-- Node31 -->
<g id="node32" class="node">
<title>Node31</title>
<polygon fill="none" stroke="#bfbfbf" points="1608.9853,-168.5 1608.9853,-187.5 1649.9853,-187.5 1649.9853,-168.5 1608.9853,-168.5"/>
<text text-anchor="middle" x="1629.4853" y="-175.5" font-family="Helvetica,sans-Serif" font-size="10.00" fill="#000000">tuple</text>
</g>
<!-- Node0&#45;&gt;Node31 -->
<g id="edge43" class="edge">
<title>Node0&#45;&gt;Node31</title>
<path fill="none" stroke="#191970" d="M1526.61,-224.3258C1551.3367,-213.1911 1579.1229,-200.6787 1599.5791,-191.4671"/>
<polygon fill="#191970" stroke="#191970" points="1601.0243,-194.6549 1608.7053,-187.3574 1598.1501,-188.2721 1601.0243,-194.6549"/>
</g>
<!-- Node2 -->
<g id="node3" class="node">
<title>Node2</title>
<g id="a_node3"><a xlink:href="../../dd/dce/Pack_8h.html" target="_top" xlink:title="Framework/Pack.h">
<polygon fill="none" stroke="#000000" points="1913.9853,-56.5 1913.9853,-75.5 2018.9853,-75.5 2018.9853,-56.5 1913.9853,-56.5"/>
<text text-anchor="middle" x="1966.4853" y="-63.5" font-family="Helvetica,sans-Serif" font-size="10.00" fill="#000000">Framework/Pack.h</text>
</a>
</g>
</g>
<!-- Node1&#45;&gt;Node2 -->
<g id="edge2" class="edge">
<title>Node1&#45;&gt;Node2</title>
<path fill="none" stroke="#191970" d="M1481.662,-169.9335C1486.3358,-169.2678 1490.9929,-168.615 1495.4853,-168 1621.5419,-150.7434 1657.9346,-169.596 1779.4853,-132 1798.0951,-126.2439 1800.4507,-119.3626 1818.4853,-112 1851.721,-98.4315 1890.5128,-86.5117 1920.0421,-78.2075"/>
<polygon fill="#191970" stroke="#191970" points="1920.9802,-81.5795 1929.68,-75.5327 1919.1082,-74.8344 1920.9802,-81.5795"/>
</g>
<!-- Node6 -->
<g id="node7" class="node">
<title>Node6</title>
<g id="a_node7"><a xlink:href="../../d1/d00/CheckTypes_8h.html" target="_top" xlink:title="Framework/CheckTypes.h">
<polygon fill="none" stroke="#000000" points="1668.4853,-56.5 1668.4853,-75.5 1808.4853,-75.5 1808.4853,-56.5 1668.4853,-56.5"/>
<text text-anchor="middle" x="1738.4853" y="-63.5" font-family="Helvetica,sans-Serif" font-size="10.00" fill="#000000">Framework/CheckTypes.h</text>
</a>
</g>
</g>
<!-- Node1&#45;&gt;Node6 -->
<g id="edge6" class="edge">
<title>Node1&#45;&gt;Node6</title>
<path fill="none" stroke="#191970" d="M1433.0218,-168.0688C1441.8417,-153.2573 1460.5563,-125.6628 1484.4853,-112 1499.9254,-103.1842 1593.83,-87.6214 1662.9849,-77.0643"/>
<polygon fill="#191970" stroke="#191970" points="1663.6349,-80.5058 1672.9962,-75.5444 1662.5842,-73.5851 1663.6349,-80.5058"/>
</g>
<!-- Node7 -->
<g id="node8" class="node">
<title>Node7</title>
<g id="a_node8"><a xlink:href="../../de/d9b/FunctionalHelpers_8h.html" target="_top" xlink:title="Framework/FunctionalHelpers.h">
<polygon fill="none" stroke="#000000" points="1827.4853,-112.5 1827.4853,-131.5 1997.4853,-131.5 1997.4853,-112.5 1827.4853,-112.5"/>
<text text-anchor="middle" x="1912.4853" y="-119.5" font-family="Helvetica,sans-Serif" font-size="10.00" fill="#000000">Framework/FunctionalHelpers.h</text>
</a>
</g>
</g>
<!-- Node1&#45;&gt;Node7 -->
<g id="edge7" class="edge">
<title>Node1&#45;&gt;Node7</title>
<path fill="none" stroke="#191970" d="M1481.6515,-169.8542C1486.3276,-169.2057 1490.988,-168.5785 1495.4853,-168 1555.6093,-160.2655 1713.8486,-143.141 1817.1898,-132.1077"/>
<polygon fill="#191970" stroke="#191970" points="1817.753,-135.5676 1827.3252,-131.0263 1817.0103,-128.6071 1817.753,-135.5676"/>
</g>
<!-- Node9 -->
<g id="node10" class="node">
<title>Node9</title>
<g id="a_node10"><a xlink:href="../../d9/de8/CompilerBuiltins_8h.html" target="_top" xlink:title="Framework/CompilerBuiltins.h">
<polygon fill="none" stroke="#000000" points="739.4853,-56.5 739.4853,-75.5 903.4853,-75.5 903.4853,-56.5 739.4853,-56.5"/>
<text text-anchor="middle" x="821.4853" y="-63.5" font-family="Helvetica,sans-Serif" font-size="10.00" fill="#000000">Framework/CompilerBuiltins.h</text>
</a>
</g>
</g>
<!-- Node1&#45;&gt;Node9 -->
<g id="edge10" class="edge">
<title>Node1&#45;&gt;Node9</title>
<path fill="none" stroke="#191970" d="M1373.3699,-169.1922C1318.8077,-160.2149 1232.2014,-145.7006 1157.4853,-132 1059.0415,-113.9484 944.7606,-91.095 878.0498,-77.5629"/>
<polygon fill="#191970" stroke="#191970" points="878.6573,-74.1149 868.1607,-75.5545 877.264,-80.9749 878.6573,-74.1149"/>
</g>
<!-- Node10 -->
<g id="node11" class="node">
<title>Node10</title>
<g id="a_node11"><a xlink:href="../../db/d31/Traits_8h.html" target="_top" xlink:title="Framework/Traits.h">
<polygon fill="none" stroke="#000000" points="1661.9853,-112.5 1661.9853,-131.5 1770.9853,-131.5 1770.9853,-112.5 1661.9853,-112.5"/>
<text text-anchor="middle" x="1716.4853" y="-119.5" font-family="Helvetica,sans-Serif" font-size="10.00" fill="#000000">Framework/Traits.h</text>
</a>
</g>
</g>
<!-- Node1&#45;&gt;Node10 -->
<g id="edge11" class="edge">
<title>Node1&#45;&gt;Node10</title>
<path fill="none" stroke="#191970" d="M1476.8378,-168.4369C1526.8175,-158.7522 1604.1351,-143.7703 1657.3596,-133.4569"/>
<polygon fill="#191970" stroke="#191970" points="1658.1848,-136.8622 1667.3364,-131.5237 1656.8531,-129.99 1658.1848,-136.8622"/>
</g>
<!-- Node12 -->
<g id="node13" class="node">
<title>Node12</title>
<g id="a_node13"><a xlink:href="../../d0/d91/Expressions_8h.html" target="_top" xlink:title="Framework/Expressions.h">
<polygon fill="none" stroke="#000000" points="1166.9853,-112.5 1166.9853,-131.5 1307.9853,-131.5 1307.9853,-112.5 1166.9853,-112.5"/>
<text text-anchor="middle" x="1237.4853" y="-119.5" font-family="Helvetica,sans-Serif" font-size="10.00" fill="#000000">Framework/Expressions.h</text>
</a>
</g>
</g>
<!-- Node1&#45;&gt;Node12 -->
<g id="edge13" class="edge">
<title>Node1&#45;&gt;Node12</title>
<path fill="none" stroke="#191970" d="M1394.8232,-168.3733C1362.9555,-158.9807 1314.3322,-144.6496 1279.5783,-134.4064"/>
<polygon fill="#191970" stroke="#191970" points="1280.3028,-130.9711 1269.7213,-131.5011 1278.3238,-137.6855 1280.3028,-130.9711"/>
</g>
<!-- Node15 -->
<g id="node16" class="node">
<title>Node15</title>
<polygon fill="none" stroke="#bfbfbf" points="1403.9853,-56.5 1403.9853,-75.5 1484.9853,-75.5 1484.9853,-56.5 1403.9853,-56.5"/>
<text text-anchor="middle" x="1444.4853" y="-63.5" font-family="Helvetica,sans-Serif" font-size="10.00" fill="#000000">arrow/table.h</text>
</g>
<!-- Node1&#45;&gt;Node15 -->
<g id="edge33" class="edge">
<title>Node1&#45;&gt;Node15</title>
<path fill="none" stroke="#191970" d="M1422.4736,-168.4685C1416.3379,-155.5177 1407.462,-131.7158 1413.4853,-112 1416.6262,-101.7192 1422.9219,-91.6582 1429.0241,-83.5799"/>
<polygon fill="#191970" stroke="#191970" points="1431.8483,-85.6535 1435.4112,-75.6757 1426.4037,-81.2539 1431.8483,-85.6535"/>
</g>
<!-- Node16 -->
<g id="node17" class="node">
<title>Node16</title>
<polygon fill="none" stroke="#bfbfbf" points="1502.9853,-56.5 1502.9853,-75.5 1649.9853,-75.5 1649.9853,-56.5 1502.9853,-56.5"/>
<text text-anchor="middle" x="1576.4853" y="-63.5" font-family="Helvetica,sans-Serif" font-size="10.00" fill="#000000">gandiva/selection_vector.h</text>
</g>
<!-- Node1&#45;&gt;Node16 -->
<g id="edge38" class="edge">
<title>Node1&#45;&gt;Node16</title>
<path fill="none" stroke="#191970" d="M1428.4799,-168.1141C1430.4238,-153.8611 1435.9968,-127.5482 1451.4853,-112 1467.619,-95.8042 1489.9328,-85.2572 1511.2477,-78.4114"/>
<polygon fill="#191970" stroke="#191970" points="1512.3622,-81.7314 1520.9449,-75.5195 1510.3617,-75.0234 1512.3622,-81.7314"/>
</g>
<!-- Node1&#45;&gt;Node22 -->
<g id="edge26" class="edge">
<title>Node1&#45;&gt;Node22</title>
<path fill="none" stroke="#191970" d="M1373.311,-174.706C1214.999,-165.0801 753.1842,-137.0002 576.4234,-126.2525"/>
<polygon fill="#191970" stroke="#191970" points="576.398,-122.7446 566.204,-125.6311 575.9731,-129.7317 576.398,-122.7446"/>
</g>
<!-- Node23 -->
<g id="node24" class="node">
<title>Node23</title>
<polygon fill="none" stroke="#bfbfbf" points="13.9853,-56.5 13.9853,-75.5 146.9853,-75.5 146.9853,-56.5 13.9853,-56.5"/>
<text text-anchor="middle" x="80.4853" y="-63.5" font-family="Helvetica,sans-Serif" font-size="10.00" fill="#000000">arrow/compute/kernel.h</text>
</g>
<!-- Node1&#45;&gt;Node23 -->
<g id="edge37" class="edge">
<title>Node1&#45;&gt;Node23</title>
<path fill="none" stroke="#191970" d="M1373.2658,-176.4569C1193.9607,-171.2005 621.1298,-153.1421 437.4853,-132 327.7489,-119.3666 200.9502,-93.0992 131.8789,-77.7858"/>
<polygon fill="#191970" stroke="#191970" points="132.2302,-74.2782 121.7081,-75.5174 130.7064,-81.1103 132.2302,-74.2782"/>
</g>
<!-- Node26 -->
<g id="node27" class="node">
<title>Node26</title>
<polygon fill="none" stroke="#bfbfbf" points="403.4853,-56.5 403.4853,-75.5 513.4853,-75.5 513.4853,-56.5 403.4853,-56.5"/>
<text text-anchor="middle" x="458.4853" y="-63.5" font-family="Helvetica,sans-Serif" font-size="10.00" fill="#000000">arrow/util/variant.h</text>
</g>
<!-- Node1&#45;&gt;Node26 -->
<g id="edge35" class="edge">
<title>Node1&#45;&gt;Node26</title>
<path fill="none" stroke="#191970" d="M1373.3224,-172.7116C1234.1426,-158.9471 852.446,-120.0932 523.818,-76.1361"/>
<polygon fill="#191970" stroke="#191970" points="523.9981,-72.629 513.6215,-74.7683 523.0674,-79.5668 523.9981,-72.629"/>
</g>
<!-- Node27 -->
<g id="node28" class="node">
<title>Node27</title>
<polygon fill="none" stroke="#bfbfbf" points="1493.4853,-112.5 1493.4853,-131.5 1573.4853,-131.5 1573.4853,-112.5 1493.4853,-112.5"/>
<text text-anchor="middle" x="1533.4853" y="-119.5" font-family="Helvetica,sans-Serif" font-size="10.00" fill="#000000">arrow/array.h</text>
</g>
<!-- Node1&#45;&gt;Node27 -->
<g id="edge34" class="edge">
<title>Node1&#45;&gt;Node27</title>
<path fill="none" stroke="#191970" d="M1445.9491,-168.2455C1462.5928,-159.4527 1487.2846,-146.4079 1506.2045,-136.4125"/>
<polygon fill="#191970" stroke="#191970" points="1508.0261,-139.4086 1515.2331,-131.6427 1504.7562,-133.2193 1508.0261,-139.4086"/>
</g>
<!-- Node1&#45;&gt;Node28 -->
<g id="edge36" class="edge">
<title>Node1&#45;&gt;Node28</title>
<path fill="none" stroke="#191970" d="M1481.6285,-169.6606C1486.3096,-169.0541 1490.9775,-168.4895 1495.4853,-168 1718.513,-143.7799 1778.1689,-153.993 2005.4725,-132.0447"/>
<polygon fill="#191970" stroke="#191970" points="2006.1095,-135.4993 2015.7221,-131.0443 2005.4294,-128.5324 2006.1095,-135.4993"/>
</g>
<!-- Node29 -->
<g id="node30" class="node">
<title>Node29</title>
<polygon fill="none" stroke="#bfbfbf" points="1591.4853,-112.5 1591.4853,-131.5 1643.4853,-131.5 1643.4853,-112.5 1591.4853,-112.5"/>
<text text-anchor="middle" x="1617.4853" y="-119.5" font-family="Helvetica,sans-Serif" font-size="10.00" fill="#000000">cassert</text>
</g>
<!-- Node1&#45;&gt;Node29 -->
<g id="edge39" class="edge">
<title>Node1&#45;&gt;Node29</title>
<path fill="none" stroke="#191970" d="M1460.1475,-168.3733C1493.9465,-158.4114 1546.5937,-142.8944 1581.5516,-132.591"/>
<polygon fill="#191970" stroke="#191970" points="1582.7491,-135.887 1591.3517,-129.7026 1580.7701,-129.1725 1582.7491,-135.887"/>
</g>
<!-- Node3 -->
<g id="node4" class="node">
<title>Node3</title>
<polygon fill="none" stroke="#bfbfbf" points="1973.9853,-.5 1973.9853,-19.5 2026.9853,-19.5 2026.9853,-.5 1973.9853,-.5"/>
<text text-anchor="middle" x="2000.4853" y="-7.5" font-family="Helvetica,sans-Serif" font-size="10.00" fill="#000000">cstddef</text>
</g>
<!-- Node2&#45;&gt;Node3 -->
<g id="edge3" class="edge">
<title>Node2&#45;&gt;Node3</title>
<path fill="none" stroke="#191970" d="M1972.4077,-56.2455C1977.088,-48.5367 1983.7526,-37.5598 1989.4142,-28.2348"/>
<polygon fill="#191970" stroke="#191970" points="1992.4328,-30.007 1994.6308,-19.6427 1986.4493,-26.3741 1992.4328,-30.007"/>
</g>
<!-- Node2&#45;&gt;Node4 -->
<g id="edge4" class="edge">
<title>Node2&#45;&gt;Node4</title>
<path fill="none" stroke="#191970" d="M1913.7737,-57.0861C1910.6356,-56.6836 1907.5217,-56.3166 1904.4853,-56 1542.4219,-18.2469 1100.256,-11.4329 977.4681,-10.2434"/>
<polygon fill="#191970" stroke="#191970" points="977.2656,-6.7415 967.2342,-10.1504 977.202,-13.7412 977.2656,-6.7415"/>
</g>
<!-- Node5 -->
<g id="node6" class="node">
<title>Node5</title>
<polygon fill="none" stroke="#bfbfbf" points="1909.4853,-.5 1909.4853,-19.5 1955.4853,-19.5 1955.4853,-.5 1909.4853,-.5"/>
<text text-anchor="middle" x="1932.4853" y="-7.5" font-family="Helvetica,sans-Serif" font-size="10.00" fill="#000000">cstdio</text>
</g>
<!-- Node2&#45;&gt;Node5 -->
<g id="edge5" class="edge">
<title>Node2&#45;&gt;Node5</title>
<path fill="none" stroke="#191970" d="M1960.563,-56.2455C1955.8826,-48.5367 1949.2181,-37.5598 1943.5565,-28.2348"/>
<polygon fill="#191970" stroke="#191970" points="1946.5214,-26.3741 1938.3398,-19.6427 1940.5379,-30.007 1946.5214,-26.3741"/>
</g>
<!-- Node7&#45;&gt;Node2 -->
<g id="edge8" class="edge">
<title>Node7&#45;&gt;Node2</title>
<path fill="none" stroke="#191970" d="M1921.8914,-112.2455C1929.6346,-104.2155 1940.7973,-92.6394 1950.0171,-83.0781"/>
<polygon fill="#191970" stroke="#191970" points="1952.7651,-85.2706 1957.187,-75.6427 1947.7262,-80.4117 1952.7651,-85.2706"/>
</g>
<!-- Node8 -->
<g id="node9" class="node">
<title>Node8</title>
<polygon fill="none" stroke="#bfbfbf" points="2036.9853,-56.5 2036.9853,-75.5 2101.9853,-75.5 2101.9853,-56.5 2036.9853,-56.5"/>
<text text-anchor="middle" x="2069.4853" y="-63.5" font-family="Helvetica,sans-Serif" font-size="10.00" fill="#000000">functional</text>
</g>
<!-- Node7&#45;&gt;Node8 -->
<g id="edge9" class="edge">
<title>Node7&#45;&gt;Node8</title>
<path fill="none" stroke="#191970" d="M1939.4746,-112.3733C1965.3553,-103.1419 2004.6101,-89.1402 2033.2142,-78.9375"/>
<polygon fill="#191970" stroke="#191970" points="2034.6053,-82.1573 2042.8482,-75.5011 2032.2536,-75.5642 2034.6053,-82.1573"/>
</g>
<!-- Node11 -->
<g id="node12" class="node">
<title>Node11</title>
<polygon fill="none" stroke="#bfbfbf" points="1826.9853,-56.5 1826.9853,-75.5 1895.9853,-75.5 1895.9853,-56.5 1826.9853,-56.5"/>
<text text-anchor="middle" x="1861.4853" y="-63.5" font-family="Helvetica,sans-Serif" font-size="10.00" fill="#000000">type_traits</text>
</g>
<!-- Node10&#45;&gt;Node11 -->
<g id="edge12" class="edge">
<title>Node10&#45;&gt;Node11</title>
<path fill="none" stroke="#191970" d="M1741.4117,-112.3733C1765.1055,-103.2226 1800.9364,-89.3844 1827.2921,-79.2057"/>
<polygon fill="#191970" stroke="#191970" points="1828.8167,-82.3689 1836.8842,-75.5011 1826.2947,-75.8389 1828.8167,-82.3689"/>
</g>
<!-- Node12&#45;&gt;Node2 -->
<g id="edge16" class="edge">
<title>Node12&#45;&gt;Node2</title>
<path fill="none" stroke="#191970" d="M1308.2661,-119.2385C1428.4958,-114.0814 1680.4605,-101.2564 1903.8232,-75.974"/>
<polygon fill="#191970" stroke="#191970" points="1904.2273,-79.4507 1913.7654,-74.8381 1903.4327,-72.4959 1904.2273,-79.4507"/>
</g>
<!-- Node12&#45;&gt;Node6 -->
<g id="edge17" class="edge">
<title>Node12&#45;&gt;Node6</title>
<path fill="none" stroke="#191970" d="M1308.2884,-114.6028C1389.8544,-106.0046 1528.19,-91.1883 1658.1164,-76.0272"/>
<polygon fill="#191970" stroke="#191970" points="1658.727,-79.4797 1668.2527,-74.8417 1657.9138,-72.5271 1658.727,-79.4797"/>
</g>
<!-- Node12&#45;&gt;Node9 -->
<g id="edge15" class="edge">
<title>Node12&#45;&gt;Node9</title>
<path fill="none" stroke="#191970" d="M1166.9166,-112.5004C1093.7063,-102.6451 979.3814,-87.2552 902.5194,-76.9084"/>
<polygon fill="#191970" stroke="#191970" points="902.7778,-73.4117 892.4002,-75.5462 901.8439,-80.3492 902.7778,-73.4117"/>
</g>
<!-- Node13 -->
<g id="node14" class="node">
<title>Node13</title>
<g id="a_node14"><a xlink:href="../../dd/dc2/BasicOps_8h.html" target="_top" xlink:title="Framework/BasicOps.h">
<polygon fill="none" stroke="#000000" points="593.4853,-56.5 593.4853,-75.5 721.4853,-75.5 721.4853,-56.5 593.4853,-56.5"/>
<text text-anchor="middle" x="657.4853" y="-63.5" font-family="Helvetica,sans-Serif" font-size="10.00" fill="#000000">Framework/BasicOps.h</text>
</a>
</g>
</g>
<!-- Node12&#45;&gt;Node13 -->
<g id="edge14" class="edge">
<title>Node12&#45;&gt;Node13</title>
<path fill="none" stroke="#191970" d="M1166.8451,-116.6152C1070.7956,-109.0649 893.3836,-94.3091 731.6931,-76.0942"/>
<polygon fill="#191970" stroke="#191970" points="731.8892,-72.5941 721.5586,-74.9456 731.1008,-79.5496 731.8892,-72.5941"/>
</g>
<!-- Node14 -->
<g id="node15" class="node">
<title>Node14</title>
<polygon fill="none" stroke="#bfbfbf" points="1284.9853,-56.5 1284.9853,-75.5 1385.9853,-75.5 1385.9853,-56.5 1284.9853,-56.5"/>
<text text-anchor="middle" x="1335.4853" y="-63.5" font-family="Helvetica,sans-Serif" font-size="10.00" fill="#000000">arrow/type_fwd.h</text>
</g>
<!-- Node12&#45;&gt;Node14 -->
<g id="edge18" class="edge">
<title>Node12&#45;&gt;Node14</title>
<path fill="none" stroke="#191970" d="M1254.5556,-112.2455C1269.7324,-103.5731 1292.1474,-90.7645 1309.5416,-80.825"/>
<polygon fill="#191970" stroke="#191970" points="1311.6647,-83.643 1318.6106,-75.6427 1308.1917,-77.5653 1311.6647,-83.643"/>
</g>
<!-- Node12&#45;&gt;Node15 -->
<g id="edge19" class="edge">
<title>Node12&#45;&gt;Node15</title>
<path fill="none" stroke="#191970" d="M1273.0699,-112.3733C1308.0869,-102.9001 1361.6735,-88.4032 1399.5978,-78.1435"/>
<polygon fill="#191970" stroke="#191970" points="1400.6261,-81.4912 1409.3651,-75.5011 1398.7981,-74.7341 1400.6261,-81.4912"/>
</g>
<!-- Node12&#45;&gt;Node16 -->
<g id="edge20" class="edge">
<title>Node12&#45;&gt;Node16</title>
<path fill="none" stroke="#191970" d="M1295.3763,-112.4369C1354.4905,-102.6717 1446.208,-87.5207 1508.6819,-77.2006"/>
<polygon fill="#191970" stroke="#191970" points="1509.5373,-80.6068 1518.8331,-75.5237 1508.3963,-73.7004 1509.5373,-80.6068"/>
</g>
<!-- Node17 -->
<g id="node18" class="node">
<title>Node17</title>
<polygon fill="none" stroke="#bfbfbf" points="921.4853,-56.5 921.4853,-75.5 1013.4853,-75.5 1013.4853,-56.5 921.4853,-56.5"/>
<text text-anchor="middle" x="967.4853" y="-63.5" font-family="Helvetica,sans-Serif" font-size="10.00" fill="#000000">gandiva/node.h</text>
</g>
<!-- Node12&#45;&gt;Node17 -->
<g id="edge21" class="edge">
<title>Node12&#45;&gt;Node17</title>
<path fill="none" stroke="#191970" d="M1191.3775,-112.4369C1144.8778,-102.7925 1073.0495,-87.8948 1023.3454,-77.5858"/>
<polygon fill="#191970" stroke="#191970" points="1023.9055,-74.1275 1013.403,-75.5237 1022.4838,-80.9817 1023.9055,-74.1275"/>
</g>
<!-- Node18 -->
<g id="node19" class="node">
<title>Node18</title>
<polygon fill="none" stroke="#bfbfbf" points="1031.9853,-56.5 1031.9853,-75.5 1120.9853,-75.5 1120.9853,-56.5 1031.9853,-56.5"/>
<text text-anchor="middle" x="1076.4853" y="-63.5" font-family="Helvetica,sans-Serif" font-size="10.00" fill="#000000">gandiva/filter.h</text>
</g>
<!-- Node12&#45;&gt;Node18 -->
<g id="edge22" class="edge">
<title>Node12&#45;&gt;Node18</title>
<path fill="none" stroke="#191970" d="M1209.8084,-112.3733C1183.1525,-103.1016 1142.6616,-89.0178 1113.2969,-78.804"/>
<polygon fill="#191970" stroke="#191970" points="1114.3959,-75.4807 1103.801,-75.5011 1112.0962,-82.0921 1114.3959,-75.4807"/>
</g>
<!-- Node19 -->
<g id="node20" class="node">
<title>Node19</title>
<polygon fill="none" stroke="#bfbfbf" points="1138.9853,-56.5 1138.9853,-75.5 1189.9853,-75.5 1189.9853,-56.5 1138.9853,-56.5"/>
<text text-anchor="middle" x="1164.4853" y="-63.5" font-family="Helvetica,sans-Serif" font-size="10.00" fill="#000000">variant</text>
</g>
<!-- Node12&#45;&gt;Node19 -->
<g id="edge23" class="edge">
<title>Node12&#45;&gt;Node19</title>
<path fill="none" stroke="#191970" d="M1224.7697,-112.2455C1213.8833,-103.8943 1197.997,-91.7076 1185.2653,-81.9408"/>
<polygon fill="#191970" stroke="#191970" points="1187.1199,-78.9523 1177.0552,-75.6427 1182.8592,-84.5063 1187.1199,-78.9523"/>
</g>
<!-- Node20 -->
<g id="node21" class="node">
<title>Node20</title>
<polygon fill="none" stroke="#bfbfbf" points="531.4853,-56.5 531.4853,-75.5 575.4853,-75.5 575.4853,-56.5 531.4853,-56.5"/>
<text text-anchor="middle" x="553.4853" y="-63.5" font-family="Helvetica,sans-Serif" font-size="10.00" fill="#000000">string</text>
</g>
<!-- Node12&#45;&gt;Node20 -->
<g id="edge24" class="edge">
<title>Node12&#45;&gt;Node20</title>
<path fill="none" stroke="#191970" d="M1166.9319,-119.1859C1025.8044,-113.2131 712.1608,-98.1273 585.867,-75.7682"/>
<polygon fill="#191970" stroke="#191970" points="586.1402,-72.2589 575.6679,-73.8653 584.8563,-79.1401 586.1402,-72.2589"/>
</g>
<!-- Node21 -->
<g id="node22" class="node">
<title>Node21</title>
<polygon fill="none" stroke="#bfbfbf" points="1208.4853,-56.5 1208.4853,-75.5 1266.4853,-75.5 1266.4853,-56.5 1208.4853,-56.5"/>
<text text-anchor="middle" x="1237.4853" y="-63.5" font-family="Helvetica,sans-Serif" font-size="10.00" fill="#000000">memory</text>
</g>
<!-- Node12&#45;&gt;Node21 -->
<g id="edge25" class="edge">
<title>Node12&#45;&gt;Node21</title>
<path fill="none" stroke="#191970" d="M1237.4853,-112.2455C1237.4853,-104.9382 1237.4853,-94.6944 1237.4853,-85.7046"/>
<polygon fill="#191970" stroke="#191970" points="1240.9854,-85.6426 1237.4853,-75.6427 1233.9854,-85.6427 1240.9854,-85.6426"/>
</g>
<!-- Node22&#45;&gt;Node13 -->
<g id="edge27" class="edge">
<title>Node22&#45;&gt;Node13</title>
<path fill="none" stroke="#191970" d="M532.4431,-112.3733C557.2261,-103.1822 594.7599,-89.2624 622.2394,-79.0713"/>
<polygon fill="#191970" stroke="#191970" points="623.7073,-82.26 631.8662,-75.5011 621.2732,-75.6968 623.7073,-82.26"/>
</g>
<!-- Node22&#45;&gt;Node20 -->
<g id="edge32" class="edge">
<title>Node22&#45;&gt;Node20</title>
<path fill="none" stroke="#191970" d="M514.6721,-112.2455C521.3442,-104.2958 530.9332,-92.8706 538.9106,-83.3656"/>
<polygon fill="#191970" stroke="#191970" points="541.6445,-85.5525 545.3924,-75.6427 536.2827,-81.0524 541.6445,-85.5525"/>
</g>
<!-- Node22&#45;&gt;Node23 -->
<g id="edge28" class="edge">
<title>Node22&#45;&gt;Node23</title>
<path fill="none" stroke="#191970" d="M446.7225,-114.1482C379.1551,-105.2704 265.5536,-90.3422 157.3316,-76.1111"/>
<polygon fill="#191970" stroke="#191970" points="157.5843,-72.6143 147.2133,-74.7806 156.6716,-79.5546 157.5843,-72.6143"/>
</g>
<!-- Node24 -->
<g id="node25" class="node">
<title>Node24</title>
<polygon fill="none" stroke="#bfbfbf" points="165.4853,-56.5 165.4853,-75.5 251.4853,-75.5 251.4853,-56.5 165.4853,-56.5"/>
<text text-anchor="middle" x="208.4853" y="-63.5" font-family="Helvetica,sans-Serif" font-size="10.00" fill="#000000">arrow/status.h</text>
</g>
<!-- Node22&#45;&gt;Node24 -->
<g id="edge29" class="edge">
<title>Node22&#45;&gt;Node24</title>
<path fill="none" stroke="#191970" d="M455.1145,-112.4734C407.5737,-103.6392 334.6359,-90.0404 261.8753,-76.257"/>
<polygon fill="#191970" stroke="#191970" points="262.0892,-72.7352 251.6123,-74.3113 260.7853,-79.6127 262.0892,-72.7352"/>
</g>
<!-- Node25 -->
<g id="node26" class="node">
<title>Node25</title>
<polygon fill="none" stroke="#bfbfbf" points="269.4853,-56.5 269.4853,-75.5 385.4853,-75.5 385.4853,-56.5 269.4853,-56.5"/>
<text text-anchor="middle" x="327.4853" y="-63.5" font-family="Helvetica,sans-Serif" font-size="10.00" fill="#000000">arrow/util/visibility.h</text>
</g>
<!-- Node22&#45;&gt;Node25 -->
<g id="edge30" class="edge">
<title>Node22&#45;&gt;Node25</title>
<path fill="none" stroke="#191970" d="M475.7141,-112.3733C445.8203,-103.021 400.2761,-88.7725 367.5636,-78.5385"/>
<polygon fill="#191970" stroke="#191970" points="368.4439,-75.1466 357.855,-75.5011 366.3538,-81.8273 368.4439,-75.1466"/>
</g>
<!-- Node22&#45;&gt;Node26 -->
<g id="edge31" class="edge">
<title>Node22&#45;&gt;Node26</title>
<path fill="none" stroke="#191970" d="M498.1244,-112.2455C491.3103,-104.2958 481.5172,-92.8706 473.3701,-83.3656"/>
<polygon fill="#191970" stroke="#191970" points="475.9158,-80.9575 466.7505,-75.6427 470.601,-85.513 475.9158,-80.9575"/>
</g>
</g>
</svg>
        <g id="navigator" transform="translate(0 0)" fill="#404254">
                <rect fill="#f2f5e9" fill-opacity="0.5" stroke="#606060" stroke-width=".5" x="0" y="0" width="60" height="60"/>
                <use id="zoomplus" xlink:href="#zoomPlus" x="17" y="9" onmousedown="handleZoom(evt,'in')"/>
                <use id="zoomminus" xlink:href="#zoomMin" x="42" y="9" onmousedown="handleZoom(evt,'out')"/>
                <use id="reset" xlink:href="#resetDef" x="30" y="36" onmousedown="handleReset()"/>
                <g id="arrowUp" xlink:href="#dirArrow" transform="translate(30 24)" onmousedown="handlePan(0,-1)">
                  <use xlink:href="#rim" fill="#404040">
                        <set attributeName="fill" to="#808080" begin="arrowUp.mouseover" end="arrowUp.mouseout"/>
                  </use>
                  <path fill="none" stroke="white" stroke-width="1.5" d="M0,-3.0v7 M-2.5,-0.5L0,-3.0L2.5,-0.5"/>
                </g>
                <g id="arrowRight" xlink:href="#dirArrow" transform="rotate(90) translate(36 -43)" onmousedown="handlePan(1,0)">
                  <use xlink:href="#rim" fill="#404040">
                        <set attributeName="fill" to="#808080" begin="arrowRight.mouseover" end="arrowRight.mouseout"/>
                  </use>
                  <path fill="none" stroke="white" stroke-width="1.5" d="M0,-3.0v7 M-2.5,-0.5L0,-3.0L2.5,-0.5"/>
                </g>
                <g id="arrowDown" xlink:href="#dirArrow" transform="rotate(180) translate(-30 -48)" onmousedown="handlePan(0,1)">
                  <use xlink:href="#rim" fill="#404040">
                        <set attributeName="fill" to="#808080" begin="arrowDown.mouseover" end="arrowDown.mouseout"/>
                  </use>
                  <path fill="none" stroke="white" stroke-width="1.5" d="M0,-3.0v7 M-2.5,-0.5L0,-3.0L2.5,-0.5"/>
                </g>
                <g id="arrowLeft" xlink:href="#dirArrow" transform="rotate(270) translate(-36 17)" onmousedown="handlePan(-1,0)">
                  <use xlink:href="#rim" fill="#404040">
                        <set attributeName="fill" to="#808080" begin="arrowLeft.mouseover" end="arrowLeft.mouseout"/>
                  </use>
                  <path fill="none" stroke="white" stroke-width="1.5" d="M0,-3.0v7 M-2.5,-0.5L0,-3.0L2.5,-0.5"/>
                </g>
        </g>
        <svg viewBox="0 0 15 15" width="100%" height="30px" preserveAspectRatio="xMaxYMin meet">
         <g id="arrow_out" transform="scale(0.3 0.3)">
          <a xlink:href="ASoAHelpers_8h__incl_org.svg" target="_base">
           <rect id="button" ry="5" rx="5" y="6" x="6" height="38" width="38"
                fill="#f2f5e9" fill-opacity="0.5" stroke="#606060" stroke-width="1.0"/>
           <path id="arrow"
             d="M 11.500037,31.436501 C 11.940474,20.09759 22.043105,11.32322 32.158766,21.979434 L 37.068811,17.246167 C 37.068811,17.246167 37.088388,32 37.088388,32 L 22.160133,31.978069 C 22.160133,31.978069 26.997745,27.140456 26.997745,27.140456 C 18.528582,18.264221 13.291696,25.230495 11.500037,31.436501 z"
             style="fill:#404040;"/>
          </a>
         </g>
        </svg>
</svg>
