<?xml version="1.0" encoding="UTF-8" standalone="no"?>
<!DOCTYPE svg PUBLIC "-//W3C//DTD SVG 1.1//EN"
 "http://www.w3.org/Graphics/SVG/1.1/DTD/svg11.dtd">
<!-- Generated by graphviz version 2.40.1 (20161225.0304)
 -->
<!-- Title: /home/travis/build/AliceO2Group/AliceO2/Framework/Core/include/Framework/ASoA.h Pages: 1 -->
<svg width="2098pt" height="229pt"
 viewBox="0.00 0.00 2097.50 229.00" xmlns="http://www.w3.org/2000/svg" xmlns:xlink="http://www.w3.org/1999/xlink">
<g id="graph0" class="graph" transform="scale(1 1) rotate(0) translate(4 225)">
<title>/home/travis/build/AliceO2Group/AliceO2/Framework/Core/include/Framework/ASoA.h</title>
<!-- Node0 -->
<g id="node1" class="node">
<title>Node0</title>
<polygon fill="#bfbfbf" stroke="#000000" points="809,-168.5 809,-220.5 946,-220.5 946,-168.5 809,-168.5"/>
<text text-anchor="start" x="817" y="-208.5" font-family="Helvetica,sans-Serif" font-size="10.00" fill="#000000">/home/travis/build</text>
<text text-anchor="start" x="817" y="-197.5" font-family="Helvetica,sans-Serif" font-size="10.00" fill="#000000">/AliceO2Group/AliceO2</text>
<text text-anchor="start" x="817" y="-186.5" font-family="Helvetica,sans-Serif" font-size="10.00" fill="#000000">/Framework/Core/include</text>
<text text-anchor="middle" x="877.5" y="-175.5" font-family="Helvetica,sans-Serif" font-size="10.00" fill="#000000">/Framework/ASoA.h</text>
</g>
<!-- Node1 -->
<g id="node2" class="node">
<title>Node1</title>
<g id="a_node2"><a xlink:href="../../dd/dce/Pack_8h.html" target="_top" xlink:title="Framework/Pack.h">
<polygon fill="none" stroke="#000000" points="83,-56.5 83,-75.5 188,-75.5 188,-56.5 83,-56.5"/>
<text text-anchor="middle" x="135.5" y="-63.5" font-family="Helvetica,sans-Serif" font-size="10.00" fill="#000000">Framework/Pack.h</text>
</a>
</g>
</g>
<!-- Node0&#45;&gt;Node1 -->
<g id="edge1" class="edge">
<title>Node0&#45;&gt;Node1</title>
<path fill="none" stroke="#191970" d="M808.8265,-186.8315C720.1575,-176.5075 561.2271,-156.5674 426.5,-132 339.9615,-116.2198 240.1947,-92.3358 182.8223,-78.0413"/>
<polygon fill="#191970" stroke="#191970" points="183.5091,-74.6053 172.9586,-75.574 181.8104,-81.3961 183.5091,-74.6053"/>
</g>
<!-- Node5 -->
<g id="node6" class="node">
<title>Node5</title>
<g id="a_node6"><a xlink:href="../../d1/d00/CheckTypes_8h.html" target="_top" xlink:title="Framework/CheckTypes.h">
<polygon fill="none" stroke="#000000" points="293.5,-56.5 293.5,-75.5 433.5,-75.5 433.5,-56.5 293.5,-56.5"/>
<text text-anchor="middle" x="363.5" y="-63.5" font-family="Helvetica,sans-Serif" font-size="10.00" fill="#000000">Framework/CheckTypes.h</text>
</a>
</g>
</g>
<!-- Node0&#45;&gt;Node5 -->
<g id="edge5" class="edge">
<title>Node0&#45;&gt;Node5</title>
<path fill="none" stroke="#191970" d="M808.8884,-176.6844C743.5496,-159.7876 642.4114,-133.8122 554.5,-112 506.79,-100.1624 452.2636,-87.0741 413.7169,-77.8952"/>
<polygon fill="#191970" stroke="#191970" points="414.3207,-74.4412 403.7821,-75.5318 412.7006,-81.2512 414.3207,-74.4412"/>
</g>
<!-- Node6 -->
<g id="node7" class="node">
<title>Node6</title>
<g id="a_node7"><a xlink:href="../../de/d9b/FunctionalHelpers_8h.html" target="_top" xlink:title="Framework/FunctionalHelpers.h">
<polygon fill="none" stroke="#000000" points="50.5,-112.5 50.5,-131.5 220.5,-131.5 220.5,-112.5 50.5,-112.5"/>
<text text-anchor="middle" x="135.5" y="-119.5" font-family="Helvetica,sans-Serif" font-size="10.00" fill="#000000">Framework/FunctionalHelpers.h</text>
</a>
</g>
</g>
<!-- Node0&#45;&gt;Node6 -->
<g id="edge6" class="edge">
<title>Node0&#45;&gt;Node6</title>
<path fill="none" stroke="#191970" d="M808.6929,-187.7769C675.5884,-174.7714 382.6253,-146.1463 230.8482,-131.3164"/>
<polygon fill="#191970" stroke="#191970" points="230.9063,-127.8055 220.6133,-130.3163 230.2255,-134.7723 230.9063,-127.8055"/>
</g>
<!-- Node8 -->
<g id="node9" class="node">
<title>Node8</title>
<g id="a_node9"><a xlink:href="../../d9/de8/CompilerBuiltins_8h.html" target="_top" xlink:title="Framework/CompilerBuiltins.h">
<polygon fill="none" stroke="#000000" points="451.5,-56.5 451.5,-75.5 615.5,-75.5 615.5,-56.5 451.5,-56.5"/>
<text text-anchor="middle" x="533.5" y="-63.5" font-family="Helvetica,sans-Serif" font-size="10.00" fill="#000000">Framework/CompilerBuiltins.h</text>
</a>
</g>
</g>
<!-- Node0&#45;&gt;Node8 -->
<g id="edge9" class="edge">
<title>Node0&#45;&gt;Node8</title>
<path fill="none" stroke="#191970" d="M808.7132,-168.8049C736.2071,-141.7205 624.87,-100.131 568.6175,-79.118"/>
<polygon fill="#191970" stroke="#191970" points="569.6937,-75.7839 559.1012,-75.5632 567.2442,-82.3413 569.6937,-75.7839"/>
</g>
<!-- Node9 -->
<g id="node10" class="node">
<title>Node9</title>
<g id="a_node10"><a xlink:href="../../db/d31/Traits_8h.html" target="_top" xlink:title="Framework/Traits.h">
<polygon fill="none" stroke="#000000" points="436,-112.5 436,-131.5 545,-131.5 545,-112.5 436,-112.5"/>
<text text-anchor="middle" x="490.5" y="-119.5" font-family="Helvetica,sans-Serif" font-size="10.00" fill="#000000">Framework/Traits.h</text>
</a>
</g>
</g>
<!-- Node0&#45;&gt;Node9 -->
<g id="edge10" class="edge">
<title>Node0&#45;&gt;Node9</title>
<path fill="none" stroke="#191970" d="M808.7581,-181.622C735.6792,-167.9315 621.2134,-146.4877 551.3117,-133.3924"/>
<polygon fill="#191970" stroke="#191970" points="551.8055,-129.9241 541.332,-131.5228 550.5165,-136.8044 551.8055,-129.9241"/>
</g>
<!-- Node11 -->
<g id="node12" class="node">
<title>Node11</title>
<g id="a_node12"><a xlink:href="../../d0/d91/Expressions_8h.html" target="_top" xlink:title="Framework/Expressions.h">
<polygon fill="none" stroke="#000000" points="857,-112.5 857,-131.5 998,-131.5 998,-112.5 857,-112.5"/>
<text text-anchor="middle" x="927.5" y="-119.5" font-family="Helvetica,sans-Serif" font-size="10.00" fill="#000000">Framework/Expressions.h</text>
</a>
</g>
</g>
<!-- Node0&#45;&gt;Node11 -->
<g id="edge12" class="edge">
<title>Node0&#45;&gt;Node11</title>
<path fill="none" stroke="#191970" d="M895.5511,-168.3258C902.0425,-158.9134 909.2128,-148.5164 915.1131,-139.961"/>
<polygon fill="#191970" stroke="#191970" points="918.1287,-141.7532 920.9248,-131.534 912.3662,-137.7791 918.1287,-141.7532"/>
</g>
<!-- Node14 -->
<g id="node15" class="node">
<title>Node14</title>
<polygon fill="none" stroke="#bfbfbf" points="634,-56.5 634,-75.5 715,-75.5 715,-56.5 634,-56.5"/>
<text text-anchor="middle" x="674.5" y="-63.5" font-family="Helvetica,sans-Serif" font-size="10.00" fill="#000000">arrow/table.h</text>
</g>
<!-- Node0&#45;&gt;Node14 -->
<g id="edge32" class="edge">
<title>Node0&#45;&gt;Node14</title>
<path fill="none" stroke="#191970" d="M836.4199,-168.4961C794.908,-142.2189 732.1966,-102.5222 698.2886,-81.0583"/>
<polygon fill="#191970" stroke="#191970" points="699.8516,-77.9054 689.5302,-75.5142 696.1076,-83.8201 699.8516,-77.9054"/>
</g>
<!-- Node15 -->
<g id="node16" class="node">
<title>Node15</title>
<polygon fill="none" stroke="#bfbfbf" points="733,-56.5 733,-75.5 880,-75.5 880,-56.5 733,-56.5"/>
<text text-anchor="middle" x="806.5" y="-63.5" font-family="Helvetica,sans-Serif" font-size="10.00" fill="#000000">gandiva/selection_vector.h</text>
</g>
<!-- Node0&#45;&gt;Node15 -->
<g id="edge37" class="edge">
<title>Node0&#45;&gt;Node15</title>
<path fill="none" stroke="#191970" d="M863.1321,-168.4961C849.3577,-143.5664 828.9097,-106.5584 816.7218,-84.5"/>
<polygon fill="#191970" stroke="#191970" points="819.6566,-82.5743 811.7569,-75.5142 813.5296,-85.9596 819.6566,-82.5743"/>
</g>
<!-- Node21 -->
<g id="node22" class="node">
<title>Node21</title>
<g id="a_node22"><a xlink:href="../../d0/d92/Kernels_8h.html" target="_top" xlink:title="Framework/Kernels.h">
<polygon fill="none" stroke="#000000" points="1438,-112.5 1438,-131.5 1557,-131.5 1557,-112.5 1438,-112.5"/>
<text text-anchor="middle" x="1497.5" y="-119.5" font-family="Helvetica,sans-Serif" font-size="10.00" fill="#000000">Framework/Kernels.h</text>
</a>
</g>
</g>
<!-- Node0&#45;&gt;Node21 -->
<g id="edge25" class="edge">
<title>Node0&#45;&gt;Node21</title>
<path fill="none" stroke="#191970" d="M946.2197,-186.4642C1065.0849,-172.5647 1307.8083,-144.1817 1427.5335,-130.1816"/>
<polygon fill="#191970" stroke="#191970" points="1428.1566,-133.6326 1437.6823,-128.9948 1427.3435,-126.68 1428.1566,-133.6326"/>
</g>
<!-- Node22 -->
<g id="node23" class="node">
<title>Node22</title>
<polygon fill="none" stroke="#bfbfbf" points="1590,-56.5 1590,-75.5 1723,-75.5 1723,-56.5 1590,-56.5"/>
<text text-anchor="middle" x="1656.5" y="-63.5" font-family="Helvetica,sans-Serif" font-size="10.00" fill="#000000">arrow/compute/kernel.h</text>
</g>
<!-- Node0&#45;&gt;Node22 -->
<g id="edge36" class="edge">
<title>Node0&#45;&gt;Node22</title>
<path fill="none" stroke="#191970" d="M946.2893,-183.1529C1094.2541,-158.7453 1441.254,-101.5059 1588.5042,-77.2163"/>
<polygon fill="#191970" stroke="#191970" points="1589.4585,-80.6062 1598.7555,-75.5252 1588.3192,-73.6995 1589.4585,-80.6062"/>
</g>
<!-- Node25 -->
<g id="node26" class="node">
<title>Node25</title>
<polygon fill="none" stroke="#bfbfbf" points="1979.5,-56.5 1979.5,-75.5 2089.5,-75.5 2089.5,-56.5 1979.5,-56.5"/>
<text text-anchor="middle" x="2034.5" y="-63.5" font-family="Helvetica,sans-Serif" font-size="10.00" fill="#000000">arrow/util/variant.h</text>
</g>
<!-- Node0&#45;&gt;Node25 -->
<g id="edge34" class="edge">
<title>Node0&#45;&gt;Node25</title>
<path fill="none" stroke="#191970" d="M946.0142,-191.6998C1096.4653,-184.9982 1451.4636,-166.0117 1566.5,-132 1584.8021,-126.5888 1586.2186,-117.4805 1604.5,-112 1757.8566,-66.0256 1806.3693,-95.3634 1969.0029,-76.0935"/>
<polygon fill="#191970" stroke="#191970" points="1969.8725,-79.513 1979.3703,-74.8181 1969.0177,-72.5654 1969.8725,-79.513"/>
</g>
<!-- Node26 -->
<g id="node27" class="node">
<title>Node26</title>
<polygon fill="none" stroke="#bfbfbf" points="1613.5,-112.5 1613.5,-131.5 1693.5,-131.5 1693.5,-112.5 1613.5,-112.5"/>
<text text-anchor="middle" x="1653.5" y="-119.5" font-family="Helvetica,sans-Serif" font-size="10.00" fill="#000000">arrow/array.h</text>
</g>
<!-- Node0&#45;&gt;Node26 -->
<g id="edge33" class="edge">
<title>Node0&#45;&gt;Node26</title>
<path fill="none" stroke="#191970" d="M946.1825,-190.7747C1074.8049,-183.3062 1360.59,-164.3846 1599.5,-132 1600.7755,-131.8271 1602.0666,-131.6446 1603.3682,-131.4541"/>
<polygon fill="#191970" stroke="#191970" points="1604.1332,-134.8767 1613.4649,-129.8597 1603.0413,-127.9624 1604.1332,-134.8767"/>
</g>
<!-- Node27 -->
<g id="node28" class="node">
<title>Node27</title>
<polygon fill="none" stroke="#bfbfbf" points="1712,-112.5 1712,-131.5 1851,-131.5 1851,-112.5 1712,-112.5"/>
<text text-anchor="middle" x="1781.5" y="-119.5" font-family="Helvetica,sans-Serif" font-size="10.00" fill="#000000">arrow/compute/context.h</text>
</g>
<!-- Node0&#45;&gt;Node27 -->
<g id="edge35" class="edge">
<title>Node0&#45;&gt;Node27</title>
<path fill="none" stroke="#191970" d="M946.0527,-190.4767C1085.9419,-182.0118 1414.5742,-160.8244 1701.5444,-132.051"/>
<polygon fill="#191970" stroke="#191970" points="1702.1361,-135.5092 1711.7348,-131.0243 1701.4343,-128.5445 1702.1361,-135.5092"/>
</g>
<!-- Node28 -->
<g id="node29" class="node">
<title>Node28</title>
<polygon fill="none" stroke="#bfbfbf" points="1869.5,-112.5 1869.5,-131.5 1921.5,-131.5 1921.5,-112.5 1869.5,-112.5"/>
<text text-anchor="middle" x="1895.5" y="-119.5" font-family="Helvetica,sans-Serif" font-size="10.00" fill="#000000">cassert</text>
</g>
<!-- Node0&#45;&gt;Node28 -->
<g id="edge38" class="edge">
<title>Node0&#45;&gt;Node28</title>
<path fill="none" stroke="#191970" d="M946.2342,-192.0525C1135.9553,-184.9965 1665.1471,-163.2115 1859.1776,-131.8424"/>
<polygon fill="#191970" stroke="#191970" points="1859.9842,-135.2561 1869.267,-130.1494 1858.8257,-128.3526 1859.9842,-135.2561"/>
</g>
<!-- Node2 -->
<g id="node3" class="node">
<title>Node2</title>
<polygon fill="none" stroke="#bfbfbf" points="42,-.5 42,-19.5 95,-19.5 95,-.5 42,-.5"/>
<text text-anchor="middle" x="68.5" y="-7.5" font-family="Helvetica,sans-Serif" font-size="10.00" fill="#000000">cstddef</text>
</g>
<!-- Node1&#45;&gt;Node2 -->
<g id="edge2" class="edge">
<title>Node1&#45;&gt;Node2</title>
<path fill="none" stroke="#191970" d="M123.8295,-56.2455C113.9339,-47.9746 99.5373,-35.9416 87.9099,-26.2232"/>
<polygon fill="#191970" stroke="#191970" points="89.9542,-23.3703 80.0368,-19.6427 85.465,-28.7413 89.9542,-23.3703"/>
</g>
<!-- Node3 -->
<g id="node4" class="node">
<title>Node3</title>
<polygon fill="none" stroke="#bfbfbf" points="113,-.5 113,-19.5 158,-19.5 158,-.5 113,-.5"/>
<text text-anchor="middle" x="135.5" y="-7.5" font-family="Helvetica,sans-Serif" font-size="10.00" fill="#000000">utility</text>
</g>
<!-- Node1&#45;&gt;Node3 -->
<g id="edge3" class="edge">
<title>Node1&#45;&gt;Node3</title>
<path fill="none" stroke="#191970" d="M135.5,-56.2455C135.5,-48.9382 135.5,-38.6944 135.5,-29.7046"/>
<polygon fill="#191970" stroke="#191970" points="139.0001,-29.6426 135.5,-19.6427 132.0001,-29.6427 139.0001,-29.6426"/>
</g>
<!-- Node4 -->
<g id="node5" class="node">
<title>Node4</title>
<polygon fill="none" stroke="#bfbfbf" points="176.5,-.5 176.5,-19.5 222.5,-19.5 222.5,-.5 176.5,-.5"/>
<text text-anchor="middle" x="199.5" y="-7.5" font-family="Helvetica,sans-Serif" font-size="10.00" fill="#000000">cstdio</text>
</g>
<!-- Node1&#45;&gt;Node4 -->
<g id="edge4" class="edge">
<title>Node1&#45;&gt;Node4</title>
<path fill="none" stroke="#191970" d="M146.6479,-56.2455C156.0087,-48.0549 169.5858,-36.1749 180.6349,-26.5069"/>
<polygon fill="#191970" stroke="#191970" points="183.2588,-28.8618 188.4798,-19.6427 178.6492,-23.5937 183.2588,-28.8618"/>
</g>
<!-- Node6&#45;&gt;Node1 -->
<g id="edge7" class="edge">
<title>Node6&#45;&gt;Node1</title>
<path fill="none" stroke="#191970" d="M135.5,-112.2455C135.5,-104.9382 135.5,-94.6944 135.5,-85.7046"/>
<polygon fill="#191970" stroke="#191970" points="139.0001,-85.6426 135.5,-75.6427 132.0001,-85.6427 139.0001,-85.6426"/>
</g>
<!-- Node7 -->
<g id="node8" class="node">
<title>Node7</title>
<polygon fill="none" stroke="#bfbfbf" points="0,-56.5 0,-75.5 65,-75.5 65,-56.5 0,-56.5"/>
<text text-anchor="middle" x="32.5" y="-63.5" font-family="Helvetica,sans-Serif" font-size="10.00" fill="#000000">functional</text>
</g>
<!-- Node6&#45;&gt;Node7 -->
<g id="edge8" class="edge">
<title>Node6&#45;&gt;Node7</title>
<path fill="none" stroke="#191970" d="M117.5588,-112.2455C101.46,-103.4928 77.6121,-90.527 59.2609,-80.5496"/>
<polygon fill="#191970" stroke="#191970" points="60.6929,-77.3444 50.2356,-75.6427 57.3493,-83.4942 60.6929,-77.3444"/>
</g>
<!-- Node10 -->
<g id="node11" class="node">
<title>Node10</title>
<polygon fill="none" stroke="#bfbfbf" points="206,-56.5 206,-75.5 275,-75.5 275,-56.5 206,-56.5"/>
<text text-anchor="middle" x="240.5" y="-63.5" font-family="Helvetica,sans-Serif" font-size="10.00" fill="#000000">type_traits</text>
</g>
<!-- Node9&#45;&gt;Node10 -->
<g id="edge11" class="edge">
<title>Node9&#45;&gt;Node10</title>
<path fill="none" stroke="#191970" d="M447.4836,-112.444C407.9183,-103.6436 347.3454,-90.1426 285.0878,-76.1264"/>
<polygon fill="#191970" stroke="#191970" points="285.6091,-72.6561 275.0844,-73.8731 284.0708,-79.485 285.6091,-72.6561"/>
</g>
<!-- Node11&#45;&gt;Node1 -->
<g id="edge15" class="edge">
<title>Node11&#45;&gt;Node1</title>
<path fill="none" stroke="#191970" d="M856.9846,-119.8992C728.1327,-115.5489 445.8502,-103.6554 198.2999,-76.1065"/>
<polygon fill="#191970" stroke="#191970" points="198.3547,-72.5907 188.0263,-74.9519 197.5728,-79.5469 198.3547,-72.5907"/>
</g>
<!-- Node11&#45;&gt;Node5 -->
<g id="edge16" class="edge">
<title>Node11&#45;&gt;Node5</title>
<path fill="none" stroke="#191970" d="M856.7462,-115.9893C764.2676,-107.9762 596.9966,-92.947 443.7693,-76.1131"/>
<polygon fill="#191970" stroke="#191970" points="444.0213,-72.6198 433.6977,-75.0017 443.2534,-79.5775 444.0213,-72.6198"/>
</g>
<!-- Node11&#45;&gt;Node8 -->
<g id="edge14" class="edge">
<title>Node11&#45;&gt;Node8</title>
<path fill="none" stroke="#191970" d="M860.2167,-112.4369C790.945,-102.5912 683.1529,-87.2705 610.5144,-76.9462"/>
<polygon fill="#191970" stroke="#191970" points="610.8989,-73.4658 600.5058,-75.5237 609.9138,-80.3961 610.8989,-73.4658"/>
</g>
<!-- Node12 -->
<g id="node13" class="node">
<title>Node12</title>
<g id="a_node13"><a xlink:href="../../dd/dc2/BasicOps_8h.html" target="_top" xlink:title="Framework/BasicOps.h">
<polygon fill="none" stroke="#000000" points="1381.5,-56.5 1381.5,-75.5 1509.5,-75.5 1509.5,-56.5 1381.5,-56.5"/>
<text text-anchor="middle" x="1445.5" y="-63.5" font-family="Helvetica,sans-Serif" font-size="10.00" fill="#000000">Framework/BasicOps.h</text>
</a>
</g>
</g>
<!-- Node11&#45;&gt;Node12 -->
<g id="edge13" class="edge">
<title>Node11&#45;&gt;Node12</title>
<path fill="none" stroke="#191970" d="M998.1012,-115.4302C1083.8727,-107.285 1233.2361,-92.5759 1371.4875,-76.0901"/>
<polygon fill="#191970" stroke="#191970" points="1371.9087,-79.5648 1381.4214,-74.9002 1371.076,-72.6145 1371.9087,-79.5648"/>
</g>
<!-- Node13 -->
<g id="node14" class="node">
<title>Node13</title>
<polygon fill="none" stroke="#bfbfbf" points="975,-56.5 975,-75.5 1076,-75.5 1076,-56.5 975,-56.5"/>
<text text-anchor="middle" x="1025.5" y="-63.5" font-family="Helvetica,sans-Serif" font-size="10.00" fill="#000000">arrow/type_fwd.h</text>
</g>
<!-- Node11&#45;&gt;Node13 -->
<g id="edge17" class="edge">
<title>Node11&#45;&gt;Node13</title>
<path fill="none" stroke="#191970" d="M944.5703,-112.2455C959.747,-103.5731 982.1621,-90.7645 999.5563,-80.825"/>
<polygon fill="#191970" stroke="#191970" points="1001.6794,-83.643 1008.6253,-75.6427 998.2064,-77.5653 1001.6794,-83.643"/>
</g>
<!-- Node11&#45;&gt;Node14 -->
<g id="edge18" class="edge">
<title>Node11&#45;&gt;Node14</title>
<path fill="none" stroke="#191970" d="M884.2952,-112.4369C840.1164,-102.6582 771.5377,-87.4787 724.9087,-77.1577"/>
<polygon fill="#191970" stroke="#191970" points="725.5374,-73.7122 715.0173,-74.9682 724.0245,-80.5467 725.5374,-73.7122"/>
</g>
<!-- Node11&#45;&gt;Node15 -->
<g id="edge19" class="edge">
<title>Node11&#45;&gt;Node15</title>
<path fill="none" stroke="#191970" d="M906.6994,-112.3733C887.2757,-103.3838 858.0776,-89.8706 836.2036,-79.7471"/>
<polygon fill="#191970" stroke="#191970" points="837.5745,-76.5249 827.0292,-75.5011 834.6344,-82.8776 837.5745,-76.5249"/>
</g>
<!-- Node16 -->
<g id="node17" class="node">
<title>Node16</title>
<polygon fill="none" stroke="#bfbfbf" points="1094.5,-56.5 1094.5,-75.5 1186.5,-75.5 1186.5,-56.5 1094.5,-56.5"/>
<text text-anchor="middle" x="1140.5" y="-63.5" font-family="Helvetica,sans-Serif" font-size="10.00" fill="#000000">gandiva/node.h</text>
</g>
<!-- Node11&#45;&gt;Node16 -->
<g id="edge20" class="edge">
<title>Node11&#45;&gt;Node16</title>
<path fill="none" stroke="#191970" d="M964.116,-112.3733C1000.148,-102.9001 1055.2878,-88.4032 1094.3114,-78.1435"/>
<polygon fill="#191970" stroke="#191970" points="1095.5804,-81.4289 1104.3618,-75.5011 1093.8005,-74.6589 1095.5804,-81.4289"/>
</g>
<!-- Node17 -->
<g id="node18" class="node">
<title>Node17</title>
<polygon fill="none" stroke="#bfbfbf" points="1205,-56.5 1205,-75.5 1294,-75.5 1294,-56.5 1205,-56.5"/>
<text text-anchor="middle" x="1249.5" y="-63.5" font-family="Helvetica,sans-Serif" font-size="10.00" fill="#000000">gandiva/filter.h</text>
</g>
<!-- Node11&#45;&gt;Node17 -->
<g id="edge21" class="edge">
<title>Node11&#45;&gt;Node17</title>
<path fill="none" stroke="#191970" d="M984.2636,-112.4792C1036.3101,-103.6991 1115.8016,-90.1632 1194.6129,-76.141"/>
<polygon fill="#191970" stroke="#191970" points="1195.4886,-79.5402 1204.7192,-74.3395 1194.2601,-72.6488 1195.4886,-79.5402"/>
</g>
<!-- Node18 -->
<g id="node19" class="node">
<title>Node18</title>
<polygon fill="none" stroke="#bfbfbf" points="1312,-56.5 1312,-75.5 1363,-75.5 1363,-56.5 1312,-56.5"/>
<text text-anchor="middle" x="1337.5" y="-63.5" font-family="Helvetica,sans-Serif" font-size="10.00" fill="#000000">variant</text>
</g>
<!-- Node11&#45;&gt;Node18 -->
<g id="edge22" class="edge">
<title>Node11&#45;&gt;Node18</title>
<path fill="none" stroke="#191970" d="M998.052,-116.8506C1071.8089,-110.6833 1190.9683,-98.5122 1301.9676,-76.0523"/>
<polygon fill="#191970" stroke="#191970" points="1302.904,-79.4331 1311.9941,-73.9905 1301.494,-72.5765 1302.904,-79.4331"/>
</g>
<!-- Node19 -->
<g id="node20" class="node">
<title>Node19</title>
<polygon fill="none" stroke="#bfbfbf" points="1527.5,-56.5 1527.5,-75.5 1571.5,-75.5 1571.5,-56.5 1527.5,-56.5"/>
<text text-anchor="middle" x="1549.5" y="-63.5" font-family="Helvetica,sans-Serif" font-size="10.00" fill="#000000">string</text>
</g>
<!-- Node11&#45;&gt;Node19 -->
<g id="edge23" class="edge">
<title>Node11&#45;&gt;Node19</title>
<path fill="none" stroke="#191970" d="M998.2504,-118.5741C1128.8369,-111.9169 1404.0098,-96.2462 1517.489,-75.7171"/>
<polygon fill="#191970" stroke="#191970" points="1518.1453,-79.1551 1527.3135,-73.8451 1516.8351,-72.2788 1518.1453,-79.1551"/>
</g>
<!-- Node20 -->
<g id="node21" class="node">
<title>Node20</title>
<polygon fill="none" stroke="#bfbfbf" points="898.5,-56.5 898.5,-75.5 956.5,-75.5 956.5,-56.5 898.5,-56.5"/>
<text text-anchor="middle" x="927.5" y="-63.5" font-family="Helvetica,sans-Serif" font-size="10.00" fill="#000000">memory</text>
</g>
<!-- Node11&#45;&gt;Node20 -->
<g id="edge24" class="edge">
<title>Node11&#45;&gt;Node20</title>
<path fill="none" stroke="#191970" d="M927.5,-112.2455C927.5,-104.9382 927.5,-94.6944 927.5,-85.7046"/>
<polygon fill="#191970" stroke="#191970" points="931.0001,-85.6426 927.5,-75.6427 924.0001,-85.6427 931.0001,-85.6426"/>
</g>
<!-- Node21&#45;&gt;Node12 -->
<g id="edge26" class="edge">
<title>Node21&#45;&gt;Node12</title>
<path fill="none" stroke="#191970" d="M1488.4423,-112.2455C1480.9858,-104.2155 1470.2366,-92.6394 1461.3583,-83.0781"/>
<polygon fill="#191970" stroke="#191970" points="1463.8232,-80.589 1454.4539,-75.6427 1458.6937,-85.3522 1463.8232,-80.589"/>
</g>
<!-- Node21&#45;&gt;Node19 -->
<g id="edge31" class="edge">
<title>Node21&#45;&gt;Node19</title>
<path fill="none" stroke="#191970" d="M1506.5577,-112.2455C1514.0142,-104.2155 1524.7634,-92.6394 1533.6417,-83.0781"/>
<polygon fill="#191970" stroke="#191970" points="1536.3063,-85.3522 1540.5461,-75.6427 1531.1768,-80.589 1536.3063,-85.3522"/>
</g>
<!-- Node21&#45;&gt;Node22 -->
<g id="edge27" class="edge">
<title>Node21&#45;&gt;Node22</title>
<path fill="none" stroke="#191970" d="M1524.8331,-112.3733C1551.0434,-103.1419 1590.7984,-89.1402 1619.7668,-78.9375"/>
<polygon fill="#191970" stroke="#191970" points="1621.2542,-82.1244 1629.5236,-75.5011 1618.9288,-75.5219 1621.2542,-82.1244"/>
</g>
<!-- Node23 -->
<g id="node24" class="node">
<title>Node23</title>
<polygon fill="none" stroke="#bfbfbf" points="1741.5,-56.5 1741.5,-75.5 1827.5,-75.5 1827.5,-56.5 1741.5,-56.5"/>
<text text-anchor="middle" x="1784.5" y="-63.5" font-family="Helvetica,sans-Serif" font-size="10.00" fill="#000000">arrow/status.h</text>
</g>
<!-- Node21&#45;&gt;Node23 -->
<g id="edge28" class="edge">
<title>Node21&#45;&gt;Node23</title>
<path fill="none" stroke="#191970" d="M1546.511,-112.4369C1597.9496,-102.4001 1678.5474,-86.6737 1731.4522,-76.3508"/>
<polygon fill="#191970" stroke="#191970" points="1732.1763,-79.7756 1741.3209,-74.4252 1730.8356,-72.9052 1732.1763,-79.7756"/>
</g>
<!-- Node24 -->
<g id="node25" class="node">
<title>Node24</title>
<polygon fill="none" stroke="#bfbfbf" points="1845.5,-56.5 1845.5,-75.5 1961.5,-75.5 1961.5,-56.5 1845.5,-56.5"/>
<text text-anchor="middle" x="1903.5" y="-63.5" font-family="Helvetica,sans-Serif" font-size="10.00" fill="#000000">arrow/util/visibility.h</text>
</g>
<!-- Node21&#45;&gt;Node24 -->
<g id="edge29" class="edge">
<title>Node21&#45;&gt;Node24</title>
<path fill="none" stroke="#191970" d="M1557.3668,-113.8975C1642.2179,-102.4108 1791.3278,-82.2142 1835.3139,-76.1296"/>
<polygon fill="#191970" stroke="#191970" points="1835.983,-79.5702 1845.4022,-74.7196 1835.014,-72.6376 1835.983,-79.5702"/>
</g>
<!-- Node21&#45;&gt;Node25 -->
<g id="edge30" class="edge">
<title>Node21&#45;&gt;Node25</title>
<path fill="none" stroke="#191970" d="M1557.2462,-113.6949C1562.0655,-113.0955 1566.8623,-112.5223 1571.5,-112 1745.1521,-92.4426 1792.0523,-97.5531 1969.1861,-76.0924"/>
<polygon fill="#191970" stroke="#191970" points="1969.8727,-79.5346 1979.3739,-74.8464 1969.0229,-72.5864 1969.8727,-79.5346"/>
</g>
</g>
</svg>
