<?xml version="1.0" encoding="UTF-8" standalone="no"?>
<!DOCTYPE svg PUBLIC "-//W3C//DTD SVG 1.1//EN"
 "http://www.w3.org/Graphics/SVG/1.1/DTD/svg11.dtd">
<!-- Generated by graphviz version 2.40.1 (20161225.0304)
 -->
<!-- Title: /home/travis/build/AliceO2Group/AliceO2/Framework/Core/include/Framework/TableTreeHelpers.h Pages: 1 -->
<svg width="2603pt" height="341pt"
 viewBox="0.00 0.00 2602.50 341.00" xmlns="http://www.w3.org/2000/svg" xmlns:xlink="http://www.w3.org/1999/xlink">
<g id="graph0" class="graph" transform="scale(1 1) rotate(0) translate(4 337)">
<title>/home/travis/build/AliceO2Group/AliceO2/Framework/Core/include/Framework/TableTreeHelpers.h</title>
<!-- Node0 -->
<g id="node1" class="node">
<title>Node0</title>
<polygon fill="#bfbfbf" stroke="#000000" points="1711.5,-280.5 1711.5,-332.5 1880.5,-332.5 1880.5,-280.5 1711.5,-280.5"/>
<text text-anchor="start" x="1719.5" y="-320.5" font-family="Helvetica,sans-Serif" font-size="10.00" fill="#000000">/home/travis/build</text>
<text text-anchor="start" x="1719.5" y="-309.5" font-family="Helvetica,sans-Serif" font-size="10.00" fill="#000000">/AliceO2Group/AliceO2</text>
<text text-anchor="start" x="1719.5" y="-298.5" font-family="Helvetica,sans-Serif" font-size="10.00" fill="#000000">/Framework/Core/include</text>
<text text-anchor="middle" x="1796" y="-287.5" font-family="Helvetica,sans-Serif" font-size="10.00" fill="#000000">/Framework/TableTreeHelpers.h</text>
</g>
<!-- Node1 -->
<g id="node2" class="node">
<title>Node1</title>
<polygon fill="none" stroke="#bfbfbf" points="1629,-224.5 1629,-243.5 1677,-243.5 1677,-224.5 1629,-224.5"/>
<text text-anchor="middle" x="1653" y="-231.5" font-family="Helvetica,sans-Serif" font-size="10.00" fill="#000000">TFile.h</text>
</g>
<!-- Node0&#45;&gt;Node1 -->
<g id="edge1" class="edge">
<title>Node0&#45;&gt;Node1</title>
<path fill="none" stroke="#191970" d="M1744.3737,-280.3258C1723.0434,-269.5115 1699.1497,-257.3976 1681.1469,-248.2703"/>
<polygon fill="#191970" stroke="#191970" points="1682.3069,-244.9343 1671.805,-243.534 1679.1415,-251.1777 1682.3069,-244.9343"/>
</g>
<!-- Node2 -->
<g id="node3" class="node">
<title>Node2</title>
<polygon fill="none" stroke="#bfbfbf" points="1695.5,-224.5 1695.5,-243.5 1780.5,-243.5 1780.5,-224.5 1695.5,-224.5"/>
<text text-anchor="middle" x="1738" y="-231.5" font-family="Helvetica,sans-Serif" font-size="10.00" fill="#000000">TTreeReader.h</text>
</g>
<!-- Node0&#45;&gt;Node2 -->
<g id="edge2" class="edge">
<title>Node0&#45;&gt;Node2</title>
<path fill="none" stroke="#191970" d="M1775.0607,-280.3258C1767.3705,-270.7131 1758.8588,-260.0735 1751.9339,-251.4174"/>
<polygon fill="#191970" stroke="#191970" points="1754.6072,-249.1563 1745.6272,-243.534 1749.1411,-253.5292 1754.6072,-249.1563"/>
</g>
<!-- Node3 -->
<g id="node4" class="node">
<title>Node3</title>
<polygon fill="none" stroke="#bfbfbf" points="1798.5,-224.5 1798.5,-243.5 1911.5,-243.5 1911.5,-224.5 1798.5,-224.5"/>
<text text-anchor="middle" x="1855" y="-231.5" font-family="Helvetica,sans-Serif" font-size="10.00" fill="#000000">TTreeReaderValue.h</text>
</g>
<!-- Node0&#45;&gt;Node3 -->
<g id="edge3" class="edge">
<title>Node0&#45;&gt;Node3</title>
<path fill="none" stroke="#191970" d="M1817.3004,-280.3258C1825.1231,-270.7131 1833.7815,-260.0735 1840.8258,-251.4174"/>
<polygon fill="#191970" stroke="#191970" points="1843.644,-253.4995 1847.2413,-243.534 1838.2146,-249.0811 1843.644,-253.4995"/>
</g>
<!-- Node4 -->
<g id="node5" class="node">
<title>Node4</title>
<g id="a_node5"><a xlink:href="../../d5/d98/TableBuilder_8h.html" target="_top" xlink:title="TableBuilder.h">
<polygon fill="none" stroke="#000000" points="1929.5,-224.5 1929.5,-243.5 2014.5,-243.5 2014.5,-224.5 1929.5,-224.5"/>
<text text-anchor="middle" x="1972" y="-231.5" font-family="Helvetica,sans-Serif" font-size="10.00" fill="#000000">TableBuilder.h</text>
</a>
</g>
</g>
<!-- Node0&#45;&gt;Node4 -->
<g id="edge4" class="edge">
<title>Node0&#45;&gt;Node4</title>
<path fill="none" stroke="#191970" d="M1859.54,-280.3258C1886.6435,-269.161 1917.1097,-256.6111 1939.4887,-247.3924"/>
<polygon fill="#191970" stroke="#191970" points="1940.9423,-250.5791 1948.8554,-243.534 1938.276,-244.1067 1940.9423,-250.5791"/>
</g>
<!-- Node5 -->
<g id="node6" class="node">
<title>Node5</title>
<g id="a_node6"><a xlink:href="../../de/d33/ASoA_8h.html" target="_top" xlink:title="Framework/ASoA.h">
<polygon fill="none" stroke="#000000" points="1334,-168.5 1334,-187.5 1442,-187.5 1442,-168.5 1334,-168.5"/>
<text text-anchor="middle" x="1388" y="-175.5" font-family="Helvetica,sans-Serif" font-size="10.00" fill="#000000">Framework/ASoA.h</text>
</a>
</g>
</g>
<!-- Node4&#45;&gt;Node5 -->
<g id="edge5" class="edge">
<title>Node4&#45;&gt;Node5</title>
<path fill="none" stroke="#191970" d="M1929.4926,-225.4532C1926.2867,-224.9228 1923.0959,-224.4303 1920,-224 1752.1648,-200.6701 1552.7909,-187.2048 1452.4744,-181.4109"/>
<polygon fill="#191970" stroke="#191970" points="1452.3852,-177.9002 1442.202,-180.8245 1451.9862,-184.8888 1452.3852,-177.9002"/>
</g>
<!-- Node11 -->
<g id="node12" class="node">
<title>Node11</title>
<g id="a_node12"><a xlink:href="../../de/d9b/FunctionalHelpers_8h.html" target="_top" xlink:title="Framework/FunctionalHelpers.h">
<polygon fill="none" stroke="#000000" points="1685,-112.5 1685,-131.5 1855,-131.5 1855,-112.5 1685,-112.5"/>
<text text-anchor="middle" x="1770" y="-119.5" font-family="Helvetica,sans-Serif" font-size="10.00" fill="#000000">Framework/FunctionalHelpers.h</text>
</a>
</g>
</g>
<!-- Node4&#45;&gt;Node11 -->
<g id="edge48" class="edge">
<title>Node4&#45;&gt;Node11</title>
<path fill="none" stroke="#191970" d="M1947.3002,-224.3403C1926.0772,-215.7196 1894.8949,-202.2817 1869,-188 1841.0792,-172.601 1810.8358,-151.7766 1791.2217,-137.6681"/>
<polygon fill="#191970" stroke="#191970" points="1793.1528,-134.745 1783.0044,-131.702 1789.0402,-140.4095 1793.1528,-134.745"/>
</g>
<!-- Node12 -->
<g id="node13" class="node">
<title>Node12</title>
<polygon fill="none" stroke="#bfbfbf" points="1937.5,-56.5 1937.5,-75.5 2002.5,-75.5 2002.5,-56.5 1937.5,-56.5"/>
<text text-anchor="middle" x="1970" y="-63.5" font-family="Helvetica,sans-Serif" font-size="10.00" fill="#000000">functional</text>
</g>
<!-- Node4&#45;&gt;Node12 -->
<g id="edge56" class="edge">
<title>Node4&#45;&gt;Node12</title>
<path fill="none" stroke="#191970" d="M1962.6382,-224.3788C1954.8766,-215.6808 1944.425,-202.1096 1940,-188 1929.8922,-155.77 1930.3751,-144.3775 1940,-112 1943.0326,-101.7984 1949.1244,-91.7475 1955.0309,-83.6555"/>
<polygon fill="#191970" stroke="#191970" points="1957.823,-85.7667 1961.2139,-75.7291 1952.3036,-81.4613 1957.823,-85.7667"/>
</g>
<!-- Node19 -->
<g id="node20" class="node">
<title>Node19</title>
<polygon fill="none" stroke="#bfbfbf" points="1638.5,-56.5 1638.5,-75.5 1719.5,-75.5 1719.5,-56.5 1638.5,-56.5"/>
<text text-anchor="middle" x="1679" y="-63.5" font-family="Helvetica,sans-Serif" font-size="10.00" fill="#000000">arrow/table.h</text>
</g>
<!-- Node4&#45;&gt;Node19 -->
<g id="edge54" class="edge">
<title>Node4&#45;&gt;Node19</title>
<path fill="none" stroke="#191970" d="M1929.3656,-225.6219C1854.8257,-210.0102 1705.8771,-174.1987 1676,-132 1666.4931,-118.5723 1668.5815,-99.4718 1672.256,-85.2709"/>
<polygon fill="#191970" stroke="#191970" points="1675.6538,-86.1271 1675.2094,-75.5416 1668.9555,-84.0938 1675.6538,-86.1271"/>
</g>
<!-- Node24 -->
<g id="node25" class="node">
<title>Node24</title>
<polygon fill="none" stroke="#bfbfbf" points="238,-56.5 238,-75.5 282,-75.5 282,-56.5 238,-56.5"/>
<text text-anchor="middle" x="260" y="-63.5" font-family="Helvetica,sans-Serif" font-size="10.00" fill="#000000">string</text>
</g>
<!-- Node4&#45;&gt;Node24 -->
<g id="edge58" class="edge">
<title>Node4&#45;&gt;Node24</title>
<path fill="none" stroke="#191970" d="M1929.2313,-225.2363C1926.1156,-224.7636 1923.0143,-224.3429 1920,-224 1485.1789,-174.5323 1372.7835,-215.1414 936,-188 651.9022,-170.3464 537.9547,-285.1175 298,-132 281.3368,-121.3671 271.1763,-100.6446 265.6063,-85.243"/>
<polygon fill="#191970" stroke="#191970" points="268.8944,-84.0371 262.46,-75.6199 262.241,-86.2125 268.8944,-84.0371"/>
</g>
<!-- Node25 -->
<g id="node26" class="node">
<title>Node25</title>
<polygon fill="none" stroke="#bfbfbf" points="1861,-56.5 1861,-75.5 1919,-75.5 1919,-56.5 1861,-56.5"/>
<text text-anchor="middle" x="1890" y="-63.5" font-family="Helvetica,sans-Serif" font-size="10.00" fill="#000000">memory</text>
</g>
<!-- Node4&#45;&gt;Node25 -->
<g id="edge59" class="edge">
<title>Node4&#45;&gt;Node25</title>
<path fill="none" stroke="#191970" d="M1961.241,-224.3552C1952.0886,-215.6421 1939.1656,-202.0619 1931,-188 1911.6365,-154.6542 1899.748,-110.8268 1894.0557,-85.802"/>
<polygon fill="#191970" stroke="#191970" points="1897.4119,-84.7633 1891.8717,-75.7324 1890.5709,-86.2471 1897.4119,-84.7633"/>
</g>
<!-- Node34 -->
<g id="node35" class="node">
<title>Node34</title>
<g id="a_node35"><a xlink:href="../../db/d4f/StructToTuple_8h.html" target="_top" xlink:title="Framework/StructToTuple.h">
<polygon fill="none" stroke="#000000" points="1949.5,-168.5 1949.5,-187.5 2096.5,-187.5 2096.5,-168.5 1949.5,-168.5"/>
<text text-anchor="middle" x="2023" y="-175.5" font-family="Helvetica,sans-Serif" font-size="10.00" fill="#000000">Framework/StructToTuple.h</text>
</a>
</g>
</g>
<!-- Node4&#45;&gt;Node34 -->
<g id="edge44" class="edge">
<title>Node4&#45;&gt;Node34</title>
<path fill="none" stroke="#191970" d="M1980.8835,-224.2455C1988.1966,-216.2155 1998.7391,-204.6394 2007.4467,-195.0781"/>
<polygon fill="#191970" stroke="#191970" points="2010.0727,-197.3928 2014.2183,-187.6427 2004.8972,-192.6795 2010.0727,-197.3928"/>
</g>
<!-- Node35 -->
<g id="node36" class="node">
<title>Node35</title>
<polygon fill="none" stroke="#bfbfbf" points="2115.5,-112.5 2115.5,-131.5 2156.5,-131.5 2156.5,-112.5 2115.5,-112.5"/>
<text text-anchor="middle" x="2136" y="-119.5" font-family="Helvetica,sans-Serif" font-size="10.00" fill="#000000">tuple</text>
</g>
<!-- Node4&#45;&gt;Node35 -->
<g id="edge60" class="edge">
<title>Node4&#45;&gt;Node35</title>
<path fill="none" stroke="#191970" d="M2014.5264,-228.3627C2043.3627,-222.5741 2080.6931,-210.9882 2106,-188 2119.3635,-175.8609 2127.1699,-156.605 2131.4513,-142.0183"/>
<polygon fill="#191970" stroke="#191970" points="2134.9352,-142.5287 2134.0718,-131.9691 2128.1617,-140.7624 2134.9352,-142.5287"/>
</g>
<!-- Node36 -->
<g id="node37" class="node">
<title>Node36</title>
<g id="a_node37"><a xlink:href="../../d7/dbe/VariantHelpers_8h.html" target="_top" xlink:title="Framework/VariantHelpers.h">
<polygon fill="none" stroke="#000000" points="945.5,-168.5 945.5,-187.5 1100.5,-187.5 1100.5,-168.5 945.5,-168.5"/>
<text text-anchor="middle" x="1023" y="-175.5" font-family="Helvetica,sans-Serif" font-size="10.00" fill="#000000">Framework/VariantHelpers.h</text>
</a>
</g>
</g>
<!-- Node4&#45;&gt;Node36 -->
<g id="edge49" class="edge">
<title>Node4&#45;&gt;Node36</title>
<path fill="none" stroke="#191970" d="M1929.2254,-225.2866C1926.111,-224.8021 1923.0117,-224.365 1920,-224 1765.2588,-205.2452 1305.1444,-187.729 1110.992,-180.955"/>
<polygon fill="#191970" stroke="#191970" points="1110.9446,-177.4513 1100.8291,-180.6017 1110.7014,-184.4471 1110.9446,-177.4513"/>
</g>
<!-- Node37 -->
<g id="node38" class="node">
<title>Node37</title>
<polygon fill="none" stroke="#bfbfbf" points="2153,-168.5 2153,-187.5 2209,-187.5 2209,-168.5 2153,-168.5"/>
<text text-anchor="middle" x="2181" y="-175.5" font-family="Helvetica,sans-Serif" font-size="10.00" fill="#000000">sstream</text>
</g>
<!-- Node4&#45;&gt;Node37 -->
<g id="edge51" class="edge">
<title>Node4&#45;&gt;Node37</title>
<path fill="none" stroke="#191970" d="M2007.9284,-224.3733C2045.6407,-214.2685 2104.6853,-198.448 2143.1158,-188.1508"/>
<polygon fill="#191970" stroke="#191970" points="2144.1413,-191.4995 2152.8947,-185.5306 2142.3296,-184.7381 2144.1413,-191.4995"/>
</g>
<!-- Node38 -->
<g id="node39" class="node">
<title>Node38</title>
<polygon fill="none" stroke="#bfbfbf" points="2227,-168.5 2227,-187.5 2295,-187.5 2295,-168.5 2227,-168.5"/>
<text text-anchor="middle" x="2261" y="-175.5" font-family="Helvetica,sans-Serif" font-size="10.00" fill="#000000">arrow/stl.h</text>
</g>
<!-- Node4&#45;&gt;Node38 -->
<g id="edge52" class="edge">
<title>Node4&#45;&gt;Node38</title>
<path fill="none" stroke="#191970" d="M2014.7751,-226.5854C2061.9201,-218.2835 2140.2295,-204.1127 2216.932,-188.1605"/>
<polygon fill="#191970" stroke="#191970" points="2217.6908,-191.5776 2226.7623,-186.1042 2216.2575,-184.7259 2217.6908,-191.5776"/>
</g>
<!-- Node39 -->
<g id="node40" class="node">
<title>Node39</title>
<polygon fill="none" stroke="#bfbfbf" points="2313.5,-168.5 2313.5,-187.5 2422.5,-187.5 2422.5,-168.5 2313.5,-168.5"/>
<text text-anchor="middle" x="2368" y="-175.5" font-family="Helvetica,sans-Serif" font-size="10.00" fill="#000000">arrow/type_traits.h</text>
</g>
<!-- Node4&#45;&gt;Node39 -->
<g id="edge53" class="edge">
<title>Node4&#45;&gt;Node39</title>
<path fill="none" stroke="#191970" d="M2014.7471,-228.3181C2076.1468,-220.1038 2193.1229,-204.2576 2303.2462,-188.0913"/>
<polygon fill="#191970" stroke="#191970" points="2303.8129,-191.5457 2313.1967,-186.6269 2302.7937,-184.6203 2303.8129,-191.5457"/>
</g>
<!-- Node40 -->
<g id="node41" class="node">
<title>Node40</title>
<polygon fill="none" stroke="#bfbfbf" points="2440.5,-168.5 2440.5,-187.5 2529.5,-187.5 2529.5,-168.5 2440.5,-168.5"/>
<text text-anchor="middle" x="2485" y="-175.5" font-family="Helvetica,sans-Serif" font-size="10.00" fill="#000000">arrow/builder.h</text>
</g>
<!-- Node4&#45;&gt;Node40 -->
<g id="edge55" class="edge">
<title>Node4&#45;&gt;Node40</title>
<path fill="none" stroke="#191970" d="M2014.6405,-230.9797C2094.3683,-225.0628 2271.6145,-210.6379 2430.2853,-188.1536"/>
<polygon fill="#191970" stroke="#191970" points="2430.823,-191.6124 2440.2262,-186.7308 2429.8311,-184.683 2430.823,-191.6124"/>
</g>
<!-- Node41 -->
<g id="node42" class="node">
<title>Node41</title>
<polygon fill="none" stroke="#bfbfbf" points="2547.5,-168.5 2547.5,-187.5 2594.5,-187.5 2594.5,-168.5 2547.5,-168.5"/>
<text text-anchor="middle" x="2571" y="-175.5" font-family="Helvetica,sans-Serif" font-size="10.00" fill="#000000">vector</text>
</g>
<!-- Node4&#45;&gt;Node41 -->
<g id="edge57" class="edge">
<title>Node4&#45;&gt;Node41</title>
<path fill="none" stroke="#191970" d="M2014.5114,-231.7769C2125.0413,-225.807 2420.4188,-208.5936 2537.2996,-187.9043"/>
<polygon fill="#191970" stroke="#191970" points="2538.1967,-191.2974 2547.3847,-186.0217 2536.9122,-184.4163 2538.1967,-191.2974"/>
</g>
<!-- Node6 -->
<g id="node7" class="node">
<title>Node6</title>
<g id="a_node7"><a xlink:href="../../dd/dce/Pack_8h.html" target="_top" xlink:title="Framework/Pack.h">
<polygon fill="none" stroke="#000000" points="1737.5,-56.5 1737.5,-75.5 1842.5,-75.5 1842.5,-56.5 1737.5,-56.5"/>
<text text-anchor="middle" x="1790" y="-63.5" font-family="Helvetica,sans-Serif" font-size="10.00" fill="#000000">Framework/Pack.h</text>
</a>
</g>
</g>
<!-- Node5&#45;&gt;Node6 -->
<g id="edge6" class="edge">
<title>Node5&#45;&gt;Node6</title>
<path fill="none" stroke="#191970" d="M1431.9207,-168.4776C1471.189,-159.7396 1530.2067,-146.0535 1581,-132 1641.4752,-115.2677 1710.7609,-92.7061 1752.4133,-78.7679"/>
<polygon fill="#191970" stroke="#191970" points="1753.7668,-82.0056 1762.1323,-75.5042 1751.5384,-75.3697 1753.7668,-82.0056"/>
</g>
<!-- Node10 -->
<g id="node11" class="node">
<title>Node10</title>
<g id="a_node11"><a xlink:href="../../d1/d00/CheckTypes_8h.html" target="_top" xlink:title="Framework/CheckTypes.h">
<polygon fill="none" stroke="#000000" points="1480,-56.5 1480,-75.5 1620,-75.5 1620,-56.5 1480,-56.5"/>
<text text-anchor="middle" x="1550" y="-63.5" font-family="Helvetica,sans-Serif" font-size="10.00" fill="#000000">Framework/CheckTypes.h</text>
</a>
</g>
</g>
<!-- Node5&#45;&gt;Node10 -->
<g id="edge10" class="edge">
<title>Node5&#45;&gt;Node10</title>
<path fill="none" stroke="#191970" d="M1395.076,-168.3741C1405.7114,-154.445 1427.0329,-128.5316 1450,-112 1468.9735,-98.343 1492.6486,-87.2342 1512.1993,-79.3567"/>
<polygon fill="#191970" stroke="#191970" points="1513.6695,-82.5401 1521.7129,-75.6441 1511.1247,-76.0191 1513.6695,-82.5401"/>
</g>
<!-- Node5&#45;&gt;Node11 -->
<g id="edge11" class="edge">
<title>Node5&#45;&gt;Node11</title>
<path fill="none" stroke="#191970" d="M1442.3256,-170.036C1508.4269,-160.3458 1620.3914,-143.9321 1694.7605,-133.0299"/>
<polygon fill="#191970" stroke="#191970" points="1695.6095,-136.4429 1704.9961,-131.5294 1694.5941,-129.5169 1695.6095,-136.4429"/>
</g>
<!-- Node13 -->
<g id="node14" class="node">
<title>Node13</title>
<g id="a_node14"><a xlink:href="../../d9/de8/CompilerBuiltins_8h.html" target="_top" xlink:title="Framework/CompilerBuiltins.h">
<polygon fill="none" stroke="#000000" points="726,-56.5 726,-75.5 890,-75.5 890,-56.5 726,-56.5"/>
<text text-anchor="middle" x="808" y="-63.5" font-family="Helvetica,sans-Serif" font-size="10.00" fill="#000000">Framework/CompilerBuiltins.h</text>
</a>
</g>
</g>
<!-- Node5&#45;&gt;Node13 -->
<g id="edge14" class="edge">
<title>Node5&#45;&gt;Node13</title>
<path fill="none" stroke="#191970" d="M1338.0298,-168.4277C1301.5814,-160.6647 1251.362,-148.3337 1209,-132 1191.1926,-125.1339 1189.2029,-117.736 1171,-112 1158.1369,-107.9467 1002.5598,-89.0238 899.299,-76.7462"/>
<polygon fill="#191970" stroke="#191970" points="899.5076,-73.2464 889.1646,-75.5425 898.682,-80.1976 899.5076,-73.2464"/>
</g>
<!-- Node14 -->
<g id="node15" class="node">
<title>Node14</title>
<g id="a_node15"><a xlink:href="../../db/d31/Traits_8h.html" target="_top" xlink:title="Framework/Traits.h">
<polygon fill="none" stroke="#000000" points="1949.5,-112.5 1949.5,-131.5 2058.5,-131.5 2058.5,-112.5 1949.5,-112.5"/>
<text text-anchor="middle" x="2004" y="-119.5" font-family="Helvetica,sans-Serif" font-size="10.00" fill="#000000">Framework/Traits.h</text>
</a>
</g>
</g>
<!-- Node5&#45;&gt;Node14 -->
<g id="edge15" class="edge">
<title>Node5&#45;&gt;Node14</title>
<path fill="none" stroke="#191970" d="M1442.126,-173.0795C1555.3783,-162.7838 1816.9276,-139.0066 1939.0221,-127.9071"/>
<polygon fill="#191970" stroke="#191970" points="1939.6931,-131.3606 1949.3352,-126.9695 1939.0593,-124.3893 1939.6931,-131.3606"/>
</g>
<!-- Node16 -->
<g id="node17" class="node">
<title>Node16</title>
<g id="a_node17"><a xlink:href="../../d0/d91/Expressions_8h.html" target="_top" xlink:title="Framework/Expressions.h">
<polygon fill="none" stroke="#000000" points="1218.5,-112.5 1218.5,-131.5 1359.5,-131.5 1359.5,-112.5 1218.5,-112.5"/>
<text text-anchor="middle" x="1289" y="-119.5" font-family="Helvetica,sans-Serif" font-size="10.00" fill="#000000">Framework/Expressions.h</text>
</a>
</g>
</g>
<!-- Node5&#45;&gt;Node16 -->
<g id="edge17" class="edge">
<title>Node5&#45;&gt;Node16</title>
<path fill="none" stroke="#191970" d="M1370.7555,-168.2455C1355.4239,-159.5731 1332.7801,-146.7645 1315.2084,-136.825"/>
<polygon fill="#191970" stroke="#191970" points="1316.4741,-133.5198 1306.0469,-131.6427 1313.0276,-139.6126 1316.4741,-133.5198"/>
</g>
<!-- Node5&#45;&gt;Node19 -->
<g id="edge37" class="edge">
<title>Node5&#45;&gt;Node19</title>
<path fill="none" stroke="#191970" d="M1400.5528,-168.3901C1422.1442,-152.0141 1465.6624,-119.7187 1483,-112 1496.2364,-106.1072 1574.5534,-88.5498 1628.0914,-76.9105"/>
<polygon fill="#191970" stroke="#191970" points="1629.0786,-80.2779 1638.11,-74.7385 1627.5954,-73.4368 1629.0786,-80.2779"/>
</g>
<!-- Node20 -->
<g id="node21" class="node">
<title>Node20</title>
<polygon fill="none" stroke="#bfbfbf" points="1314.5,-56.5 1314.5,-75.5 1461.5,-75.5 1461.5,-56.5 1314.5,-56.5"/>
<text text-anchor="middle" x="1388" y="-63.5" font-family="Helvetica,sans-Serif" font-size="10.00" fill="#000000">gandiva/selection_vector.h</text>
</g>
<!-- Node5&#45;&gt;Node20 -->
<g id="edge42" class="edge">
<title>Node5&#45;&gt;Node20</title>
<path fill="none" stroke="#191970" d="M1388,-168.4509C1388,-150.184 1388,-109.9553 1388,-85.6976"/>
<polygon fill="#191970" stroke="#191970" points="1391.5001,-85.5249 1388,-75.5249 1384.5001,-85.5249 1391.5001,-85.5249"/>
</g>
<!-- Node26 -->
<g id="node27" class="node">
<title>Node26</title>
<g id="a_node27"><a xlink:href="../../d0/d92/Kernels_8h.html" target="_top" xlink:title="Framework/Kernels.h">
<polygon fill="none" stroke="#000000" points="307.5,-112.5 307.5,-131.5 426.5,-131.5 426.5,-112.5 307.5,-112.5"/>
<text text-anchor="middle" x="367" y="-119.5" font-family="Helvetica,sans-Serif" font-size="10.00" fill="#000000">Framework/Kernels.h</text>
</a>
</g>
</g>
<!-- Node5&#45;&gt;Node26 -->
<g id="edge30" class="edge">
<title>Node5&#45;&gt;Node26</title>
<path fill="none" stroke="#191970" d="M1333.8275,-175.0287C1161.9838,-165.6034 629.1347,-136.3776 436.9828,-125.8384"/>
<polygon fill="#191970" stroke="#191970" points="436.9038,-122.3289 426.7271,-125.2759 436.5203,-129.3184 436.9038,-122.3289"/>
</g>
<!-- Node27 -->
<g id="node28" class="node">
<title>Node27</title>
<polygon fill="none" stroke="#bfbfbf" points="300.5,-56.5 300.5,-75.5 433.5,-75.5 433.5,-56.5 300.5,-56.5"/>
<text text-anchor="middle" x="367" y="-63.5" font-family="Helvetica,sans-Serif" font-size="10.00" fill="#000000">arrow/compute/kernel.h</text>
</g>
<!-- Node5&#45;&gt;Node27 -->
<g id="edge41" class="edge">
<title>Node5&#45;&gt;Node27</title>
<path fill="none" stroke="#191970" d="M1333.6839,-175.1315C1229.4139,-169.3241 994.0577,-154.7598 797,-132 666.1431,-116.8863 514.0022,-91.7319 430.3164,-77.2332"/>
<polygon fill="#191970" stroke="#191970" points="430.9079,-73.7836 420.4562,-75.5193 429.7091,-80.6802 430.9079,-73.7836"/>
</g>
<!-- Node30 -->
<g id="node31" class="node">
<title>Node30</title>
<polygon fill="none" stroke="#bfbfbf" points="452,-56.5 452,-75.5 562,-75.5 562,-56.5 452,-56.5"/>
<text text-anchor="middle" x="507" y="-63.5" font-family="Helvetica,sans-Serif" font-size="10.00" fill="#000000">arrow/util/variant.h</text>
</g>
<!-- Node5&#45;&gt;Node30 -->
<g id="edge39" class="edge">
<title>Node5&#45;&gt;Node30</title>
<path fill="none" stroke="#191970" d="M1333.7913,-173.2141C1249.9002,-165.6232 1083.6178,-149.8423 943,-132 780.3733,-111.3651 737.9074,-101.7297 572.2061,-76.1838"/>
<polygon fill="#191970" stroke="#191970" points="572.5708,-72.6988 562.155,-74.638 571.5067,-79.6174 572.5708,-72.6988"/>
</g>
<!-- Node31 -->
<g id="node32" class="node">
<title>Node31</title>
<polygon fill="none" stroke="#bfbfbf" points="1492,-112.5 1492,-131.5 1572,-131.5 1572,-112.5 1492,-112.5"/>
<text text-anchor="middle" x="1532" y="-119.5" font-family="Helvetica,sans-Serif" font-size="10.00" fill="#000000">arrow/array.h</text>
</g>
<!-- Node5&#45;&gt;Node31 -->
<g id="edge38" class="edge">
<title>Node5&#45;&gt;Node31</title>
<path fill="none" stroke="#191970" d="M1412.7545,-168.3733C1436.2849,-159.2226 1471.8687,-145.3844 1498.0426,-135.2057"/>
<polygon fill="#191970" stroke="#191970" points="1499.5171,-138.3877 1507.5685,-131.5011 1496.9799,-131.8636 1499.5171,-138.3877"/>
</g>
<!-- Node32 -->
<g id="node33" class="node">
<title>Node32</title>
<polygon fill="none" stroke="#bfbfbf" points="952.5,-112.5 952.5,-131.5 1091.5,-131.5 1091.5,-112.5 952.5,-112.5"/>
<text text-anchor="middle" x="1022" y="-119.5" font-family="Helvetica,sans-Serif" font-size="10.00" fill="#000000">arrow/compute/context.h</text>
</g>
<!-- Node5&#45;&gt;Node32 -->
<g id="edge40" class="edge">
<title>Node5&#45;&gt;Node32</title>
<path fill="none" stroke="#191970" d="M1333.9954,-169.737C1270.5046,-160.0226 1164.8647,-143.8591 1094.3385,-133.0682"/>
<polygon fill="#191970" stroke="#191970" points="1094.6114,-129.5693 1084.197,-131.5165 1093.5526,-136.4888 1094.6114,-129.5693"/>
</g>
<!-- Node33 -->
<g id="node34" class="node">
<title>Node33</title>
<polygon fill="none" stroke="#bfbfbf" points="1110,-112.5 1110,-131.5 1162,-131.5 1162,-112.5 1110,-112.5"/>
<text text-anchor="middle" x="1136" y="-119.5" font-family="Helvetica,sans-Serif" font-size="10.00" fill="#000000">cassert</text>
</g>
<!-- Node5&#45;&gt;Node33 -->
<g id="edge43" class="edge">
<title>Node5&#45;&gt;Node33</title>
<path fill="none" stroke="#191970" d="M1342.0031,-168.4533C1298.9982,-159.4249 1233.0312,-145.3128 1176,-132 1174.7453,-131.7071 1173.4692,-131.406 1172.1811,-131.0992"/>
<polygon fill="#191970" stroke="#191970" points="1172.7652,-127.6393 1162.2216,-128.6801 1171.1129,-134.4416 1172.7652,-127.6393"/>
</g>
<!-- Node7 -->
<g id="node8" class="node">
<title>Node7</title>
<polygon fill="none" stroke="#bfbfbf" points="1696.5,-.5 1696.5,-19.5 1749.5,-19.5 1749.5,-.5 1696.5,-.5"/>
<text text-anchor="middle" x="1723" y="-7.5" font-family="Helvetica,sans-Serif" font-size="10.00" fill="#000000">cstddef</text>
</g>
<!-- Node6&#45;&gt;Node7 -->
<g id="edge7" class="edge">
<title>Node6&#45;&gt;Node7</title>
<path fill="none" stroke="#191970" d="M1778.3295,-56.2455C1768.4339,-47.9746 1754.0373,-35.9416 1742.4099,-26.2232"/>
<polygon fill="#191970" stroke="#191970" points="1744.4542,-23.3703 1734.5368,-19.6427 1739.965,-28.7413 1744.4542,-23.3703"/>
</g>
<!-- Node8 -->
<g id="node9" class="node">
<title>Node8</title>
<polygon fill="none" stroke="#bfbfbf" points="1767.5,-.5 1767.5,-19.5 1812.5,-19.5 1812.5,-.5 1767.5,-.5"/>
<text text-anchor="middle" x="1790" y="-7.5" font-family="Helvetica,sans-Serif" font-size="10.00" fill="#000000">utility</text>
</g>
<!-- Node6&#45;&gt;Node8 -->
<g id="edge8" class="edge">
<title>Node6&#45;&gt;Node8</title>
<path fill="none" stroke="#191970" d="M1790,-56.2455C1790,-48.9382 1790,-38.6944 1790,-29.7046"/>
<polygon fill="#191970" stroke="#191970" points="1793.5001,-29.6426 1790,-19.6427 1786.5001,-29.6427 1793.5001,-29.6426"/>
</g>
<!-- Node9 -->
<g id="node10" class="node">
<title>Node9</title>
<polygon fill="none" stroke="#bfbfbf" points="1831,-.5 1831,-19.5 1877,-19.5 1877,-.5 1831,-.5"/>
<text text-anchor="middle" x="1854" y="-7.5" font-family="Helvetica,sans-Serif" font-size="10.00" fill="#000000">cstdio</text>
</g>
<!-- Node6&#45;&gt;Node9 -->
<g id="edge9" class="edge">
<title>Node6&#45;&gt;Node9</title>
<path fill="none" stroke="#191970" d="M1801.1479,-56.2455C1810.5087,-48.0549 1824.0858,-36.1749 1835.1349,-26.5069"/>
<polygon fill="#191970" stroke="#191970" points="1837.7588,-28.8618 1842.9798,-19.6427 1833.1492,-23.5937 1837.7588,-28.8618"/>
</g>
<!-- Node11&#45;&gt;Node6 -->
<g id="edge12" class="edge">
<title>Node11&#45;&gt;Node6</title>
<path fill="none" stroke="#191970" d="M1773.4837,-112.2455C1776.1508,-104.7776 1779.9133,-94.2427 1783.1737,-85.1137"/>
<polygon fill="#191970" stroke="#191970" points="1786.4889,-86.2373 1786.5562,-75.6427 1779.8967,-83.8829 1786.4889,-86.2373"/>
</g>
<!-- Node11&#45;&gt;Node12 -->
<g id="edge13" class="edge">
<title>Node11&#45;&gt;Node12</title>
<path fill="none" stroke="#191970" d="M1804.3812,-112.3733C1838.4784,-102.826 1890.7988,-88.1763 1927.4866,-77.9037"/>
<polygon fill="#191970" stroke="#191970" points="1928.7059,-81.197 1937.3918,-75.1303 1926.8184,-74.4563 1928.7059,-81.197"/>
</g>
<!-- Node15 -->
<g id="node16" class="node">
<title>Node15</title>
<polygon fill="none" stroke="#bfbfbf" points="2036.5,-56.5 2036.5,-75.5 2105.5,-75.5 2105.5,-56.5 2036.5,-56.5"/>
<text text-anchor="middle" x="2071" y="-63.5" font-family="Helvetica,sans-Serif" font-size="10.00" fill="#000000">type_traits</text>
</g>
<!-- Node14&#45;&gt;Node15 -->
<g id="edge16" class="edge">
<title>Node14&#45;&gt;Node15</title>
<path fill="none" stroke="#191970" d="M2015.6705,-112.2455C2025.5661,-103.9746 2039.9627,-91.9416 2051.5901,-82.2232"/>
<polygon fill="#191970" stroke="#191970" points="2054.035,-84.7413 2059.4632,-75.6427 2049.5458,-79.3703 2054.035,-84.7413"/>
</g>
<!-- Node16&#45;&gt;Node6 -->
<g id="edge20" class="edge">
<title>Node16&#45;&gt;Node6</title>
<path fill="none" stroke="#191970" d="M1359.8542,-115.7957C1444.6335,-108.0978 1591.111,-93.9305 1727.0774,-76.0586"/>
<polygon fill="#191970" stroke="#191970" points="1727.81,-79.4923 1737.2642,-74.71 1726.8913,-72.5528 1727.81,-79.4923"/>
</g>
<!-- Node16&#45;&gt;Node10 -->
<g id="edge21" class="edge">
<title>Node16&#45;&gt;Node10</title>
<path fill="none" stroke="#191970" d="M1333.5709,-112.4369C1378.4268,-102.8127 1447.6649,-87.957 1495.7008,-77.6504"/>
<polygon fill="#191970" stroke="#191970" points="1496.5697,-81.0437 1505.6129,-75.5237 1495.1011,-74.1995 1496.5697,-81.0437"/>
</g>
<!-- Node16&#45;&gt;Node13 -->
<g id="edge19" class="edge">
<title>Node16&#45;&gt;Node13</title>
<path fill="none" stroke="#191970" d="M1218.4996,-113.6978C1213.5927,-113.1224 1208.7226,-112.5521 1204,-112 1100.004,-99.8424 980.6325,-85.9901 900.3734,-76.6915"/>
<polygon fill="#191970" stroke="#191970" points="900.6306,-73.1979 890.2943,-75.5238 899.8251,-80.1514 900.6306,-73.1979"/>
</g>
<!-- Node17 -->
<g id="node18" class="node">
<title>Node17</title>
<g id="a_node18"><a xlink:href="../../dd/dc2/BasicOps_8h.html" target="_top" xlink:title="Framework/BasicOps.h">
<polygon fill="none" stroke="#000000" points="580,-56.5 580,-75.5 708,-75.5 708,-56.5 580,-56.5"/>
<text text-anchor="middle" x="644" y="-63.5" font-family="Helvetica,sans-Serif" font-size="10.00" fill="#000000">Framework/BasicOps.h</text>
</a>
</g>
</g>
<!-- Node16&#45;&gt;Node17 -->
<g id="edge18" class="edge">
<title>Node16&#45;&gt;Node17</title>
<path fill="none" stroke="#191970" d="M1218.4968,-115.9623C1202.8594,-114.6407 1186.3681,-113.2605 1171,-112 972.5169,-95.7204 919.9233,-97.6754 718.1057,-76.0676"/>
<polygon fill="#191970" stroke="#191970" points="718.386,-72.5777 708.0687,-74.9869 717.6365,-79.5374 718.386,-72.5777"/>
</g>
<!-- Node18 -->
<g id="node19" class="node">
<title>Node18</title>
<polygon fill="none" stroke="#bfbfbf" points="1084.5,-56.5 1084.5,-75.5 1185.5,-75.5 1185.5,-56.5 1084.5,-56.5"/>
<text text-anchor="middle" x="1135" y="-63.5" font-family="Helvetica,sans-Serif" font-size="10.00" fill="#000000">arrow/type_fwd.h</text>
</g>
<!-- Node16&#45;&gt;Node18 -->
<g id="edge22" class="edge">
<title>Node16&#45;&gt;Node18</title>
<path fill="none" stroke="#191970" d="M1262.5265,-112.3733C1237.1403,-103.1419 1198.6355,-89.1402 1170.578,-78.9375"/>
<polygon fill="#191970" stroke="#191970" points="1171.7222,-75.6293 1161.1281,-75.5011 1169.3299,-82.2079 1171.7222,-75.6293"/>
</g>
<!-- Node16&#45;&gt;Node19 -->
<g id="edge23" class="edge">
<title>Node16&#45;&gt;Node19</title>
<path fill="none" stroke="#191970" d="M1359.5213,-113.7722C1426.2007,-105.6932 1529.2742,-92.4341 1628.4837,-75.9985"/>
<polygon fill="#191970" stroke="#191970" points="1629.0933,-79.4453 1638.3803,-74.3461 1627.9404,-72.5409 1629.0933,-79.4453"/>
</g>
<!-- Node16&#45;&gt;Node20 -->
<g id="edge24" class="edge">
<title>Node16&#45;&gt;Node20</title>
<path fill="none" stroke="#191970" d="M1306.2445,-112.2455C1321.5761,-103.5731 1344.2199,-90.7645 1361.7916,-80.825"/>
<polygon fill="#191970" stroke="#191970" points="1363.9724,-83.6126 1370.9531,-75.6427 1360.5259,-77.5198 1363.9724,-83.6126"/>
</g>
<!-- Node21 -->
<g id="node22" class="node">
<title>Node21</title>
<polygon fill="none" stroke="#bfbfbf" points="1204,-56.5 1204,-75.5 1296,-75.5 1296,-56.5 1204,-56.5"/>
<text text-anchor="middle" x="1250" y="-63.5" font-family="Helvetica,sans-Serif" font-size="10.00" fill="#000000">gandiva/node.h</text>
</g>
<!-- Node16&#45;&gt;Node21 -->
<g id="edge25" class="edge">
<title>Node16&#45;&gt;Node21</title>
<path fill="none" stroke="#191970" d="M1282.2067,-112.2455C1276.7822,-104.4564 1269.0339,-93.3308 1262.4967,-83.9439"/>
<polygon fill="#191970" stroke="#191970" points="1265.3025,-81.8485 1256.7154,-75.6427 1259.5583,-85.849 1265.3025,-81.8485"/>
</g>
<!-- Node22 -->
<g id="node23" class="node">
<title>Node22</title>
<polygon fill="none" stroke="#bfbfbf" points="908.5,-56.5 908.5,-75.5 997.5,-75.5 997.5,-56.5 908.5,-56.5"/>
<text text-anchor="middle" x="953" y="-63.5" font-family="Helvetica,sans-Serif" font-size="10.00" fill="#000000">gandiva/filter.h</text>
</g>
<!-- Node16&#45;&gt;Node22 -->
<g id="edge26" class="edge">
<title>Node16&#45;&gt;Node22</title>
<path fill="none" stroke="#191970" d="M1227.6472,-112.487C1172.5149,-103.8339 1089.0677,-90.4793 1007.4592,-76.2267"/>
<polygon fill="#191970" stroke="#191970" points="1007.9722,-72.7633 997.5181,-74.4844 1006.7637,-79.6582 1007.9722,-72.7633"/>
</g>
<!-- Node23 -->
<g id="node24" class="node">
<title>Node23</title>
<polygon fill="none" stroke="#bfbfbf" points="1015.5,-56.5 1015.5,-75.5 1066.5,-75.5 1066.5,-56.5 1015.5,-56.5"/>
<text text-anchor="middle" x="1041" y="-63.5" font-family="Helvetica,sans-Serif" font-size="10.00" fill="#000000">variant</text>
</g>
<!-- Node16&#45;&gt;Node23 -->
<g id="edge27" class="edge">
<title>Node16&#45;&gt;Node23</title>
<path fill="none" stroke="#191970" d="M1239.4589,-112.4377C1198.1394,-104.2173 1137.5232,-91.592 1076.3786,-76.2289"/>
<polygon fill="#191970" stroke="#191970" points="1077.1172,-72.8055 1066.5636,-73.74 1075.3965,-79.5907 1077.1172,-72.8055"/>
</g>
<!-- Node16&#45;&gt;Node24 -->
<g id="edge28" class="edge">
<title>Node16&#45;&gt;Node24</title>
<path fill="none" stroke="#191970" d="M1218.2159,-115.4954C1202.6696,-114.2081 1186.2867,-112.96 1171,-112 783.6695,-87.6767 678.1572,-143.7445 292.2093,-75.7327"/>
<polygon fill="#191970" stroke="#191970" points="292.6259,-72.2519 282.1675,-73.9464 291.3999,-79.1437 292.6259,-72.2519"/>
</g>
<!-- Node16&#45;&gt;Node25 -->
<g id="edge29" class="edge">
<title>Node16&#45;&gt;Node25</title>
<path fill="none" stroke="#191970" d="M1359.6868,-117.7143C1484.8474,-109.8841 1741.6712,-92.6704 1850.651,-75.7127"/>
<polygon fill="#191970" stroke="#191970" points="1851.4187,-79.1338 1860.7265,-74.0727 1850.294,-72.2248 1851.4187,-79.1338"/>
</g>
<!-- Node26&#45;&gt;Node17 -->
<g id="edge31" class="edge">
<title>Node26&#45;&gt;Node17</title>
<path fill="none" stroke="#191970" d="M414.3033,-112.4369C462.108,-102.7724 536.0068,-87.8326 587.0108,-77.5213"/>
<polygon fill="#191970" stroke="#191970" points="587.7837,-80.9359 596.8918,-75.5237 586.3966,-74.0747 587.7837,-80.9359"/>
</g>
<!-- Node26&#45;&gt;Node24 -->
<g id="edge36" class="edge">
<title>Node26&#45;&gt;Node24</title>
<path fill="none" stroke="#191970" d="M348.362,-112.2455C331.5614,-103.4527 306.6366,-90.4079 287.5382,-80.4125"/>
<polygon fill="#191970" stroke="#191970" points="288.9073,-77.1787 278.4244,-75.6427 285.6614,-83.3807 288.9073,-77.1787"/>
</g>
<!-- Node26&#45;&gt;Node27 -->
<g id="edge32" class="edge">
<title>Node26&#45;&gt;Node27</title>
<path fill="none" stroke="#191970" d="M367,-112.2455C367,-104.9382 367,-94.6944 367,-85.7046"/>
<polygon fill="#191970" stroke="#191970" points="370.5001,-85.6426 367,-75.6427 363.5001,-85.6427 370.5001,-85.6426"/>
</g>
<!-- Node28 -->
<g id="node29" class="node">
<title>Node28</title>
<polygon fill="none" stroke="#bfbfbf" points="134,-56.5 134,-75.5 220,-75.5 220,-56.5 134,-56.5"/>
<text text-anchor="middle" x="177" y="-63.5" font-family="Helvetica,sans-Serif" font-size="10.00" fill="#000000">arrow/status.h</text>
</g>
<!-- Node26&#45;&gt;Node28 -->
<g id="edge33" class="edge">
<title>Node26&#45;&gt;Node28</title>
<path fill="none" stroke="#191970" d="M334.3378,-112.3733C302.4702,-102.9807 253.8469,-88.6496 219.093,-78.4064"/>
<polygon fill="#191970" stroke="#191970" points="219.8175,-74.9711 209.236,-75.5011 217.8385,-81.6855 219.8175,-74.9711"/>
</g>
<!-- Node29 -->
<g id="node30" class="node">
<title>Node29</title>
<polygon fill="none" stroke="#bfbfbf" points="0,-56.5 0,-75.5 116,-75.5 116,-56.5 0,-56.5"/>
<text text-anchor="middle" x="58" y="-63.5" font-family="Helvetica,sans-Serif" font-size="10.00" fill="#000000">arrow/util/visibility.h</text>
</g>
<!-- Node26&#45;&gt;Node29 -->
<g id="edge34" class="edge">
<title>Node26&#45;&gt;Node29</title>
<path fill="none" stroke="#191970" d="M314.2321,-112.4369C260.5715,-102.712 177.4373,-87.6456 120.509,-77.3285"/>
<polygon fill="#191970" stroke="#191970" points="121.0141,-73.8631 110.5503,-75.5237 119.7658,-80.7509 121.0141,-73.8631"/>
</g>
<!-- Node26&#45;&gt;Node30 -->
<g id="edge35" class="edge">
<title>Node26&#45;&gt;Node30</title>
<path fill="none" stroke="#191970" d="M391.0669,-112.3733C413.8428,-103.2629 448.2344,-89.5062 473.649,-79.3404"/>
<polygon fill="#191970" stroke="#191970" points="475.2623,-82.4648 483.2472,-75.5011 472.6625,-75.9654 475.2623,-82.4648"/>
</g>
<!-- Node34&#45;&gt;Node14 -->
<g id="edge45" class="edge">
<title>Node34&#45;&gt;Node14</title>
<path fill="none" stroke="#191970" d="M2019.6905,-168.2455C2017.1567,-160.7776 2013.5823,-150.2427 2010.485,-141.1137"/>
<polygon fill="#191970" stroke="#191970" points="2013.7991,-139.9879 2007.2716,-131.6427 2007.1702,-142.237 2013.7991,-139.9879"/>
</g>
<!-- Node34&#45;&gt;Node15 -->
<g id="edge47" class="edge">
<title>Node34&#45;&gt;Node15</title>
<path fill="none" stroke="#191970" d="M2036.7511,-168.4437C2047.3998,-160.1697 2061.4104,-147.1647 2068,-132 2074.2854,-117.5351 2074.6844,-99.5686 2073.707,-86.0349"/>
<polygon fill="#191970" stroke="#191970" points="2077.1676,-85.472 2072.6612,-75.8833 2070.2045,-86.1893 2077.1676,-85.472"/>
</g>
<!-- Node34&#45;&gt;Node35 -->
<g id="edge46" class="edge">
<title>Node34&#45;&gt;Node35</title>
<path fill="none" stroke="#191970" d="M2042.4254,-168.3733C2060.4021,-159.4644 2087.3441,-146.1127 2107.709,-136.0203"/>
<polygon fill="#191970" stroke="#191970" points="2109.4222,-139.0776 2116.8281,-131.5011 2106.3139,-132.8055 2109.4222,-139.0776"/>
</g>
<!-- Node36&#45;&gt;Node13 -->
<g id="edge50" class="edge">
<title>Node36&#45;&gt;Node13</title>
<path fill="none" stroke="#191970" d="M1004.6692,-168.4509C966.8264,-148.7375 879.884,-103.4465 835.3632,-80.2543"/>
<polygon fill="#191970" stroke="#191970" points="836.7702,-77.0409 826.2844,-75.5249 833.5362,-83.249 836.7702,-77.0409"/>
</g>
</g>
</svg>
