<?xml version="1.0" encoding="UTF-8" standalone="no"?>
<!DOCTYPE svg PUBLIC "-//W3C//DTD SVG 1.1//EN"
 "http://www.w3.org/Graphics/SVG/1.1/DTD/svg11.dtd">
<!-- Generated by graphviz version 2.40.1 (20161225.0304)
 -->
<!-- Title: /home/travis/build/AliceO2Group/AliceO2/Utilities Pages: 1 -->
<!--zoomable 420 -->
<svg id="main" version="1.1" xmlns="http://www.w3.org/2000/svg" xmlns:xlink="http://www.w3.org/1999/xlink" xml:space="preserve" onload="init(evt)">
<style type="text/css"><![CDATA[
.edge:hover path { stroke: red; }
.edge:hover polygon { stroke: red; fill: red; }
]]></style>
<script type="text/javascript"><![CDATA[
var edges = document.getElementsByTagName('g');
if (edges && edges.length) {
  for (var i=0;i<edges.length;i++) {
    if (edges[i].id.substr(0,4)=='edge') {
      edges[i].setAttribute('class','edge');
    }
  }
}
]]></script>
        <defs>
                <circle id="rim" cx="0" cy="0" r="7"/>
                <circle id="rim2" cx="0" cy="0" r="3.5"/>
                <g id="zoomPlus">
                        <use xlink:href="#rim" fill="#404040">
                                <set attributeName="fill" to="#808080" begin="zoomplus.mouseover" end="zoomplus.mouseout"/>
                        </use>
                        <path d="M-4,0h8M0,-4v8" fill="none" stroke="white" stroke-width="1.5" pointer-events="none"/>
                </g>
                <g id="zoomMin">
                        <use xlink:href="#rim" fill="#404040">
                                <set attributeName="fill" to="#808080" begin="zoomminus.mouseover" end="zoomminus.mouseout"/>
                        </use>
                        <path d="M-4,0h8" fill="none" stroke="white" stroke-width="1.5" pointer-events="none"/>
                </g>
                <g id="dirArrow">
                        <path fill="none" stroke="white" stroke-width="1.5" d="M0,-3.0v7 M-2.5,-0.5L0,-3.0L2.5,-0.5"/>
                </g>
               <g id="resetDef">
                       <use xlink:href="#rim2" fill="#404040">
                               <set attributeName="fill" to="#808080" begin="reset.mouseover" end="reset.mouseout"/>
                       </use>
               </g>
        </defs>

<script type="text/javascript">
var viewWidth = 770;
var viewHeight = 420;
var sectionId = 'dynsection-0';
</script>
<script xlink:href="svgpan.js"/>
<svg id="graph" class="graph">
<g id="viewport">
<title>/home/travis/build/AliceO2Group/AliceO2/Utilities</title>
<g id="clust1" class="cluster">
<title>clusterdir_b05a5fa85f84bfc9013183c9d87f9a36</title>
<g id="a_clust1"><a xlink:href="dir_b05a5fa85f84bfc9013183c9d87f9a36.html" target="_top">
<polygon fill="#eeeeff" stroke="#000000" points="8,-280 8,-404 754,-404 754,-280 8,-280"/>
</a>
</g>
</g>
<!-- dir_b05a5fa85f84bfc9013183c9d87f9a36 -->
<g id="node1" class="node">
<title>dir_b05a5fa85f84bfc9013183c9d87f9a36</title>
<text text-anchor="middle" x="718" y="-375.5" font-family="Helvetica,sans-Serif" font-size="10.00" fill="#000000">Utilities</text>
</g>
<!-- dir_89404594baeba009a250b72877027579 -->
<g id="node2" class="node">
<title>dir_89404594baeba009a250b72877027579</title>
<g id="a_node2"><a xlink:href="dir_89404594baeba009a250b72877027579.html" target="_top" xlink:title="aliceHLTwrapper">
<polygon fill="#ffffff" stroke="#ff0000" points="672.5,-396 577.5,-396 577.5,-360 672.5,-360 672.5,-396"/>
<text text-anchor="middle" x="625" y="-375.5" font-family="Helvetica,sans-Serif" font-size="10.00" fill="#000000">aliceHLTwrapper</text>
</a>
</g>
</g>
<!-- dir_f35ccb320b67f1c85d228c773db13bda -->
<g id="node7" class="node">
<title>dir_f35ccb320b67f1c85d228c773db13bda</title>
<g id="a_node7"><a xlink:href="dir_f35ccb320b67f1c85d228c773db13bda.html" target="_top" xlink:title="O2Device">
<polygon fill="#ffffff" stroke="#ff0000" points="426,-324 362,-324 362,-288 426,-288 426,-324"/>
<text text-anchor="middle" x="394" y="-303.5" font-family="Helvetica,sans-Serif" font-size="10.00" fill="#000000">O2Device</text>
</a>
</g>
</g>
<!-- dir_89404594baeba009a250b72877027579&#45;&gt;dir_f35ccb320b67f1c85d228c773db13bda -->
<g id="edge10" class="edge">
<title>dir_89404594baeba009a250b72877027579&#45;&gt;dir_f35ccb320b67f1c85d228c773db13bda</title>
<path fill="none" stroke="#000000" d="M577.3532,-362.6432C574.5279,-361.7455 571.7273,-360.8591 569,-360 523.7328,-345.7414 471.7588,-329.7519 436.2885,-318.8975"/>
<polygon fill="#000000" stroke="#000000" points="436.8755,-315.4171 426.2891,-315.8399 434.8285,-322.1112 436.8755,-315.4171"/>
<g id="a_edge10&#45;headlabel"><a xlink:href="dir_000711_000729.html" target="_top" xlink:title="2">
<text text-anchor="middle" x="441.1433" y="-311.253" font-family="Helvetica,sans-Serif" font-size="10.00" fill="#000000">2</text>
</a>
</g>
</g>
<!-- dir_2171f7ec022c5423887b07c69b2f5b48 -->
<g id="node13" class="node">
<title>dir_2171f7ec022c5423887b07c69b2f5b48</title>
<g id="a_node13"><a xlink:href="dir_2171f7ec022c5423887b07c69b2f5b48.html" target="_top" xlink:title="DataFormats">
<polygon fill="none" stroke="#ff0000" points="434,-252 354,-252 354,-216 434,-216 434,-252"/>
<text text-anchor="middle" x="394" y="-231.5" font-family="Helvetica,sans-Serif" font-size="10.00" fill="#000000">DataFormats</text>
</a>
</g>
</g>
<!-- dir_89404594baeba009a250b72877027579&#45;&gt;dir_2171f7ec022c5423887b07c69b2f5b48 -->
<g id="edge11" class="edge">
<title>dir_89404594baeba009a250b72877027579&#45;&gt;dir_2171f7ec022c5423887b07c69b2f5b48</title>
<path fill="none" stroke="#000000" d="M601.417,-359.9286C574.1368,-339.398 527.5125,-305.4474 485,-280 471.2942,-271.7959 455.9445,-263.6602 441.8125,-256.5641"/>
<polygon fill="#000000" stroke="#000000" points="443.2451,-253.3678 432.7312,-252.0607 440.1352,-259.6391 443.2451,-253.3678"/>
<g id="a_edge11&#45;headlabel"><a xlink:href="dir_000711_000076.html" target="_top" xlink:title="6">
<text text-anchor="middle" x="447.7269" y="-249.921" font-family="Helvetica,sans-Serif" font-size="10.00" fill="#000000">6</text>
</a>
</g>
</g>
<!-- dir_e739392ef12c0b48c71c218f1fc8a69d -->
<g id="node3" class="node">
<title>dir_e739392ef12c0b48c71c218f1fc8a69d</title>
<g id="a_node3"><a xlink:href="dir_e739392ef12c0b48c71c218f1fc8a69d.html" target="_top" xlink:title="DataCompression">
<polygon fill="#ffffff" stroke="#ff0000" points="120,-396 16,-396 16,-360 120,-360 120,-396"/>
<text text-anchor="middle" x="68" y="-375.5" font-family="Helvetica,sans-Serif" font-size="10.00" fill="#000000">DataCompression</text>
</a>
</g>
</g>
<!-- dir_4ab6b4cc6a7edbff49100e9123df213f -->
<g id="node10" class="node">
<title>dir_4ab6b4cc6a7edbff49100e9123df213f</title>
<g id="a_node10"><a xlink:href="dir_4ab6b4cc6a7edbff49100e9123df213f.html" target="_top" xlink:title="Common">
<polygon fill="none" stroke="#ff0000" points="300.5,-180 239.5,-180 239.5,-144 300.5,-144 300.5,-180"/>
<text text-anchor="middle" x="270" y="-159.5" font-family="Helvetica,sans-Serif" font-size="10.00" fill="#000000">Common</text>
</a>
</g>
</g>
<!-- dir_e739392ef12c0b48c71c218f1fc8a69d&#45;&gt;dir_4ab6b4cc6a7edbff49100e9123df213f -->
<g id="edge16" class="edge">
<title>dir_e739392ef12c0b48c71c218f1fc8a69d&#45;&gt;dir_4ab6b4cc6a7edbff49100e9123df213f</title>
<path fill="none" stroke="#000000" d="M84.875,-359.9555C120.7447,-321.5997 204.6678,-231.8602 246.0557,-187.6038"/>
<polygon fill="#000000" stroke="#000000" points="248.7569,-189.8395 253.031,-180.1451 243.6442,-185.0582 248.7569,-189.8395"/>
<g id="a_edge16&#45;headlabel"><a xlink:href="dir_000716_000027.html" target="_top" xlink:title="1">
<text text-anchor="middle" x="248.3754" y="-191.9043" font-family="Helvetica,sans-Serif" font-size="10.00" fill="#000000">1</text>
</a>
</g>
</g>
<!-- dir_8ba487e25de5ee77e05e9dce7582cb98 -->
<g id="node11" class="node">
<title>dir_8ba487e25de5ee77e05e9dce7582cb98</title>
<g id="a_node11"><a xlink:href="dir_8ba487e25de5ee77e05e9dce7582cb98.html" target="_top" xlink:title="Algorithm">
<polygon fill="none" stroke="#ff0000" points="389.5,-36 324.5,-36 324.5,0 389.5,0 389.5,-36"/>
<text text-anchor="middle" x="357" y="-15.5" font-family="Helvetica,sans-Serif" font-size="10.00" fill="#000000">Algorithm</text>
</a>
</g>
</g>
<!-- dir_e739392ef12c0b48c71c218f1fc8a69d&#45;&gt;dir_8ba487e25de5ee77e05e9dce7582cb98 -->
<g id="edge17" class="edge">
<title>dir_e739392ef12c0b48c71c218f1fc8a69d&#45;&gt;dir_8ba487e25de5ee77e05e9dce7582cb98</title>
<path fill="none" stroke="#000000" d="M73.9381,-359.5823C82.1572,-332.4106 96,-279.8428 96,-234 96,-234 96,-234 96,-162 96,-63.3936 240.5853,-31.7994 314.5293,-22.0891"/>
<polygon fill="#000000" stroke="#000000" points="314.9771,-25.5605 324.4719,-20.8595 314.1179,-18.6134 314.9771,-25.5605"/>
<g id="a_edge17&#45;headlabel"><a xlink:href="dir_000716_000000.html" target="_top" xlink:title="1">
<text text-anchor="middle" x="311.7581" y="-26.3194" font-family="Helvetica,sans-Serif" font-size="10.00" fill="#000000">1</text>
</a>
</g>
</g>
<!-- dir_47364d143a6f2085f762c4e9d70a45c1 -->
<g id="node4" class="node">
<title>dir_47364d143a6f2085f762c4e9d70a45c1</title>
<g id="a_node4"><a xlink:href="dir_47364d143a6f2085f762c4e9d70a45c1.html" target="_top" xlink:title="DataFlow">
<polygon fill="#ffffff" stroke="#ff0000" points="474,-396 412,-396 412,-360 474,-360 474,-396"/>
<text text-anchor="middle" x="443" y="-375.5" font-family="Helvetica,sans-Serif" font-size="10.00" fill="#000000">DataFlow</text>
</a>
</g>
</g>
<!-- dir_47364d143a6f2085f762c4e9d70a45c1&#45;&gt;dir_f35ccb320b67f1c85d228c773db13bda -->
<g id="edge5" class="edge">
<title>dir_47364d143a6f2085f762c4e9d70a45c1&#45;&gt;dir_f35ccb320b67f1c85d228c773db13bda</title>
<path fill="none" stroke="#000000" d="M430.6352,-359.8314C425.0491,-351.6232 418.337,-341.7606 412.1928,-332.7323"/>
<polygon fill="#000000" stroke="#000000" points="415.051,-330.7112 406.5313,-324.4133 409.264,-334.6496 415.051,-330.7112"/>
<g id="a_edge5&#45;headlabel"><a xlink:href="dir_000643_000729.html" target="_top" xlink:title="10">
<text text-anchor="middle" x="419.4207" y="-329.5855" font-family="Helvetica,sans-Serif" font-size="10.00" fill="#000000">10</text>
</a>
</g>
</g>
<!-- dir_47364d143a6f2085f762c4e9d70a45c1&#45;&gt;dir_2171f7ec022c5423887b07c69b2f5b48 -->
<g id="edge6" class="edge">
<title>dir_47364d143a6f2085f762c4e9d70a45c1&#45;&gt;dir_2171f7ec022c5423887b07c69b2f5b48</title>
<path fill="none" stroke="#000000" d="M444.8662,-359.8375C446.2093,-339.521 446.158,-306.0477 435,-280 431.9302,-272.8337 427.2857,-266.0198 422.2117,-259.9384"/>
<polygon fill="#000000" stroke="#000000" points="424.445,-257.1909 415.1341,-252.1353 419.26,-261.8938 424.445,-257.1909"/>
<g id="a_edge6&#45;headlabel"><a xlink:href="dir_000643_000076.html" target="_top" xlink:title="31">
<text text-anchor="middle" x="428.963" y="-255.4459" font-family="Helvetica,sans-Serif" font-size="10.00" fill="#000000">31</text>
</a>
</g>
</g>
<!-- dir_0c219a87dc857607d01a5568196ad92e -->
<g id="node5" class="node">
<title>dir_0c219a87dc857607d01a5568196ad92e</title>
<g id="a_node5"><a xlink:href="dir_0c219a87dc857607d01a5568196ad92e.html" target="_top" xlink:title="hough">
<polygon fill="#ffffff" stroke="#000000" points="394,-396 340,-396 340,-360 394,-360 394,-396"/>
<text text-anchor="middle" x="367" y="-375.5" font-family="Helvetica,sans-Serif" font-size="10.00" fill="#000000">hough</text>
</a>
</g>
</g>
<!-- dir_6b130aa431c809d0d74568b67af7c9fa -->
<g id="node6" class="node">
<title>dir_6b130aa431c809d0d74568b67af7c9fa</title>
<g id="a_node6"><a xlink:href="dir_6b130aa431c809d0d74568b67af7c9fa.html" target="_top" xlink:title="Mergers">
<polygon fill="#ffffff" stroke="#ff0000" points="194,-396 138,-396 138,-360 194,-360 194,-396"/>
<text text-anchor="middle" x="166" y="-375.5" font-family="Helvetica,sans-Serif" font-size="10.00" fill="#000000">Mergers</text>
</a>
</g>
</g>
<!-- dir_bcbb2cf9a3d3d83e5515c82071a07177 -->
<g id="node12" class="node">
<title>dir_bcbb2cf9a3d3d83e5515c82071a07177</title>
<g id="a_node12"><a xlink:href="dir_bcbb2cf9a3d3d83e5515c82071a07177.html" target="_top" xlink:title="Framework">
<polygon fill="none" stroke="#ff0000" points="330.5,-108 259.5,-108 259.5,-72 330.5,-72 330.5,-108"/>
<text text-anchor="middle" x="295" y="-87.5" font-family="Helvetica,sans-Serif" font-size="10.00" fill="#000000">Framework</text>
</a>
</g>
</g>
<!-- dir_6b130aa431c809d0d74568b67af7c9fa&#45;&gt;dir_bcbb2cf9a3d3d83e5515c82071a07177 -->
<g id="edge15" class="edge">
<title>dir_6b130aa431c809d0d74568b67af7c9fa&#45;&gt;dir_bcbb2cf9a3d3d83e5515c82071a07177</title>
<path fill="none" stroke="#000000" d="M167.4037,-359.8067C171.3347,-318.3882 185.3494,-215.1517 231,-144 238.1857,-132.8003 248.4146,-122.7062 258.5919,-114.3587"/>
<polygon fill="#000000" stroke="#000000" points="260.9487,-116.9594 266.6838,-108.051 256.6451,-111.4386 260.9487,-116.9594"/>
<g id="a_edge15&#45;headlabel"><a xlink:href="dir_000724_000013.html" target="_top" xlink:title="15">
<text text-anchor="middle" x="259.8592" y="-118.9086" font-family="Helvetica,sans-Serif" font-size="10.00" fill="#000000">15</text>
</a>
</g>
</g>
<!-- dir_f35ccb320b67f1c85d228c773db13bda&#45;&gt;dir_2171f7ec022c5423887b07c69b2f5b48 -->
<g id="edge9" class="edge">
<title>dir_f35ccb320b67f1c85d228c773db13bda&#45;&gt;dir_2171f7ec022c5423887b07c69b2f5b48</title>
<path fill="none" stroke="#000000" d="M394,-287.8314C394,-280.131 394,-270.9743 394,-262.4166"/>
<polygon fill="#000000" stroke="#000000" points="397.5001,-262.4132 394,-252.4133 390.5001,-262.4133 397.5001,-262.4132"/>
<g id="a_edge9&#45;headlabel"><a xlink:href="dir_000729_000076.html" target="_top" xlink:title="4">
<text text-anchor="middle" x="400.3393" y="-263.5079" font-family="Helvetica,sans-Serif" font-size="10.00" fill="#000000">4</text>
</a>
</g>
</g>
<!-- dir_128e7457a060fa7b176dc57431c84710 -->
<g id="node8" class="node">
<title>dir_128e7457a060fa7b176dc57431c84710</title>
<g id="a_node8"><a xlink:href="dir_128e7457a060fa7b176dc57431c84710.html" target="_top" xlink:title="O2MessageMonitor">
<polygon fill="#ffffff" stroke="#ff0000" points="322,-396 212,-396 212,-360 322,-360 322,-396"/>
<text text-anchor="middle" x="267" y="-375.5" font-family="Helvetica,sans-Serif" font-size="10.00" fill="#000000">O2MessageMonitor</text>
</a>
</g>
</g>
<!-- dir_128e7457a060fa7b176dc57431c84710&#45;&gt;dir_f35ccb320b67f1c85d228c773db13bda -->
<g id="edge8" class="edge">
<title>dir_128e7457a060fa7b176dc57431c84710&#45;&gt;dir_f35ccb320b67f1c85d228c773db13bda</title>
<path fill="none" stroke="#000000" d="M299.0475,-359.8314C315.442,-350.5368 335.5786,-339.1208 353.0829,-329.1971"/>
<polygon fill="#000000" stroke="#000000" points="354.9897,-332.1395 361.9628,-324.1628 351.5374,-326.05 354.9897,-332.1395"/>
<g id="a_edge8&#45;headlabel"><a xlink:href="dir_000734_000729.html" target="_top" xlink:title="2">
<text text-anchor="middle" x="353.2629" y="-333.8822" font-family="Helvetica,sans-Serif" font-size="10.00" fill="#000000">2</text>
</a>
</g>
</g>
<!-- dir_5d0813f9033df95284de52361814c1a3 -->
<g id="node9" class="node">
<title>dir_5d0813f9033df95284de52361814c1a3</title>
<g id="a_node9"><a xlink:href="dir_5d0813f9033df95284de52361814c1a3.html" target="_top" xlink:title="Publishers">
<polygon fill="#ffffff" stroke="#ff0000" points="559.5,-396 492.5,-396 492.5,-360 559.5,-360 559.5,-396"/>
<text text-anchor="middle" x="526" y="-375.5" font-family="Helvetica,sans-Serif" font-size="10.00" fill="#000000">Publishers</text>
</a>
</g>
</g>
<!-- dir_5d0813f9033df95284de52361814c1a3&#45;&gt;dir_f35ccb320b67f1c85d228c773db13bda -->
<g id="edge1" class="edge">
<title>dir_5d0813f9033df95284de52361814c1a3&#45;&gt;dir_f35ccb320b67f1c85d228c773db13bda</title>
<path fill="none" stroke="#000000" d="M492.6908,-359.8314C475.232,-350.3084 453.6902,-338.5583 435.1914,-328.4681"/>
<polygon fill="#000000" stroke="#000000" points="436.8409,-325.381 426.3859,-323.665 433.4889,-331.5262 436.8409,-325.381"/>
<g id="a_edge1&#45;headlabel"><a xlink:href="dir_000739_000729.html" target="_top" xlink:title="1">
<text text-anchor="middle" x="441.3561" y="-322.1096" font-family="Helvetica,sans-Serif" font-size="10.00" fill="#000000">1</text>
</a>
</g>
</g>
<!-- dir_5d0813f9033df95284de52361814c1a3&#45;&gt;dir_2171f7ec022c5423887b07c69b2f5b48 -->
<g id="edge2" class="edge">
<title>dir_5d0813f9033df95284de52361814c1a3&#45;&gt;dir_2171f7ec022c5423887b07c69b2f5b48</title>
<path fill="none" stroke="#000000" d="M514.6489,-359.8848C501.2921,-339.314 477.7757,-305.3265 453,-280 445.4976,-272.3308 436.6941,-264.8216 428.2103,-258.1676"/>
<polygon fill="#000000" stroke="#000000" points="430.2994,-255.3592 420.2271,-252.0728 426.0516,-260.923 430.2994,-255.3592"/>
<g id="a_edge2&#45;headlabel"><a xlink:href="dir_000739_000076.html" target="_top" xlink:title="5">
<text text-anchor="middle" x="434.8794" y="-252.7837" font-family="Helvetica,sans-Serif" font-size="10.00" fill="#000000">5</text>
</a>
</g>
</g>
<!-- dir_4ab6b4cc6a7edbff49100e9123df213f&#45;&gt;dir_bcbb2cf9a3d3d83e5515c82071a07177 -->
<g id="edge3" class="edge">
<title>dir_4ab6b4cc6a7edbff49100e9123df213f&#45;&gt;dir_bcbb2cf9a3d3d83e5515c82071a07177</title>
<path fill="none" stroke="#000000" d="M270.3562,-143.8314C272.3218,-135.9617 275.3685,-126.5712 278.7348,-117.8533"/>
<polygon fill="#000000" stroke="#000000" points="282.051,-118.9922 282.6305,-108.4133 275.5803,-116.3219 282.051,-118.9922"/>
<g id="a_edge3&#45;headlabel"><a xlink:href="dir_000027_000013.html" target="_top" xlink:title="2">
<text text-anchor="middle" x="283.3044" y="-120.8981" font-family="Helvetica,sans-Serif" font-size="10.00" fill="#000000">2</text>
</a>
</g>
</g>
<!-- dir_4ab6b4cc6a7edbff49100e9123df213f&#45;&gt;dir_2171f7ec022c5423887b07c69b2f5b48 -->
<g id="edge4" class="edge">
<title>dir_4ab6b4cc6a7edbff49100e9123df213f&#45;&gt;dir_2171f7ec022c5423887b07c69b2f5b48</title>
<path fill="none" stroke="#000000" d="M300.5817,-176.5378C318.6042,-186.2752 341.333,-199.312 359.913,-210.5064"/>
<polygon fill="#000000" stroke="#000000" points="358.3,-213.622 368.662,-215.8314 361.9394,-207.6424 358.3,-213.622"/>
<g id="a_edge4&#45;headlabel"><a xlink:href="dir_000027_000076.html" target="_top" xlink:title="2">
<text text-anchor="middle" x="353.7533" y="-211.6786" font-family="Helvetica,sans-Serif" font-size="10.00" fill="#000000">2</text>
</a>
</g>
</g>
<!-- dir_8ba487e25de5ee77e05e9dce7582cb98&#45;&gt;dir_2171f7ec022c5423887b07c69b2f5b48 -->
<g id="edge7" class="edge">
<title>dir_8ba487e25de5ee77e05e9dce7582cb98&#45;&gt;dir_2171f7ec022c5423887b07c69b2f5b48</title>
<path fill="none" stroke="#000000" d="M364.0633,-36.1451C373.9789,-73.8741 389.1583,-161.0083 393.919,-205.9956"/>
<polygon fill="#000000" stroke="#000000" points="390.4346,-206.3269 394.855,-215.9555 397.4039,-205.6718 390.4346,-206.3269"/>
<g id="a_edge7&#45;headlabel"><a xlink:href="dir_000000_000076.html" target="_top" xlink:title="8">
<text text-anchor="middle" x="387.2715" y="-200.5136" font-family="Helvetica,sans-Serif" font-size="10.00" fill="#000000">8</text>
</a>
</g>
</g>
<!-- dir_bcbb2cf9a3d3d83e5515c82071a07177&#45;&gt;dir_4ab6b4cc6a7edbff49100e9123df213f -->
<g id="edge12" class="edge">
<title>dir_bcbb2cf9a3d3d83e5515c82071a07177&#45;&gt;dir_4ab6b4cc6a7edbff49100e9123df213f</title>
<path fill="none" stroke="#000000" d="M294.5825,-108.4133C292.5946,-116.3141 289.5335,-125.7132 286.1607,-134.417"/>
<polygon fill="#000000" stroke="#000000" points="282.8545,-133.2532 282.2609,-143.8314 289.3216,-135.9321 282.8545,-133.2532"/>
<g id="a_edge12&#45;headlabel"><a xlink:href="dir_000013_000027.html" target="_top" xlink:title="9">
<text text-anchor="middle" x="281.6069" y="-126.3456" font-family="Helvetica,sans-Serif" font-size="10.00" fill="#000000">9</text>
</a>
</g>
</g>
<!-- dir_bcbb2cf9a3d3d83e5515c82071a07177&#45;&gt;dir_8ba487e25de5ee77e05e9dce7582cb98 -->
<g id="edge13" class="edge">
<title>dir_bcbb2cf9a3d3d83e5515c82071a07177&#45;&gt;dir_8ba487e25de5ee77e05e9dce7582cb98</title>
<path fill="none" stroke="#000000" d="M310.6452,-71.8314C317.8591,-63.454 326.557,-53.3531 334.4605,-44.1749"/>
<polygon fill="#000000" stroke="#000000" points="337.2711,-46.2748 341.1441,-36.4133 331.9667,-41.7071 337.2711,-46.2748"/>
<g id="a_edge13&#45;headlabel"><a xlink:href="dir_000013_000000.html" target="_top" xlink:title="1">
<text text-anchor="middle" x="337.077" y="-48.3514" font-family="Helvetica,sans-Serif" font-size="10.00" fill="#000000">1</text>
</a>
</g>
</g>
<!-- dir_bcbb2cf9a3d3d83e5515c82071a07177&#45;&gt;dir_2171f7ec022c5423887b07c69b2f5b48 -->
<g id="edge14" class="edge">
<title>dir_bcbb2cf9a3d3d83e5515c82071a07177&#45;&gt;dir_2171f7ec022c5423887b07c69b2f5b48</title>
<path fill="none" stroke="#000000" d="M312.0949,-108.0896C331.7357,-133.0041 362.9694,-178.0722 380.8354,-206.9877"/>
<polygon fill="#000000" stroke="#000000" points="377.969,-209.0117 386.1348,-215.7623 383.961,-205.3928 377.969,-209.0117"/>
<g id="a_edge14&#45;headlabel"><a xlink:href="dir_000013_000076.html" target="_top" xlink:title="82">
<text text-anchor="middle" x="373.6803" y="-204.9025" font-family="Helvetica,sans-Serif" font-size="10.00" fill="#000000">82</text>
</a>
</g>
</g>
<!-- dir_2171f7ec022c5423887b07c69b2f5b48&#45;&gt;dir_4ab6b4cc6a7edbff49100e9123df213f -->
<g id="edge18" class="edge">
<title>dir_2171f7ec022c5423887b07c69b2f5b48&#45;&gt;dir_4ab6b4cc6a7edbff49100e9123df213f</title>
<path fill="none" stroke="#000000" d="M356.7572,-215.8314C339.9993,-206.6221 320.4119,-195.3301 304.0489,-185.4706"/>
<polygon fill="#000000" stroke="#000000" points="305.6905,-182.3724 295.3286,-180.1628 302.0509,-188.3519 305.6905,-182.3724"/>
<g id="a_edge18&#45;headlabel"><a xlink:href="dir_000076_000027.html" target="_top" xlink:title="33">
<text text-anchor="middle" x="310.2372" y="-179.316" font-family="Helvetica,sans-Serif" font-size="10.00" fill="#000000">33</text>
</a>
</g>
</g>
<!-- dir_2171f7ec022c5423887b07c69b2f5b48&#45;&gt;dir_8ba487e25de5ee77e05e9dce7582cb98 -->
<g id="edge19" class="edge">
<title>dir_2171f7ec022c5423887b07c69b2f5b48&#45;&gt;dir_8ba487e25de5ee77e05e9dce7582cb98</title>
<path fill="none" stroke="#000000" d="M386.9631,-215.9555C377.0569,-178.3144 361.8729,-91.1867 357.0938,-46.1246"/>
<polygon fill="#000000" stroke="#000000" points="360.5762,-45.7724 356.1531,-36.1451 353.6071,-46.4294 360.5762,-45.7724"/>
<g id="a_edge19&#45;headlabel"><a xlink:href="dir_000076_000000.html" target="_top" xlink:title="2">
<text text-anchor="middle" x="363.7402" y="-46.5847" font-family="Helvetica,sans-Serif" font-size="10.00" fill="#000000">2</text>
</a>
</g>
</g>
<!-- dir_2171f7ec022c5423887b07c69b2f5b48&#45;&gt;dir_bcbb2cf9a3d3d83e5515c82071a07177 -->
<g id="edge20" class="edge">
<title>dir_2171f7ec022c5423887b07c69b2f5b48&#45;&gt;dir_bcbb2cf9a3d3d83e5515c82071a07177</title>
<path fill="none" stroke="#000000" d="M376.7884,-215.7623C357.1018,-190.7682 325.8718,-145.6924 308.0587,-116.8409"/>
<polygon fill="#000000" stroke="#000000" points="310.9414,-114.8435 302.7783,-108.0896 304.9479,-118.46 310.9414,-114.8435"/>
<g id="a_edge20&#45;headlabel"><a xlink:href="dir_000076_000013.html" target="_top" xlink:title="7">
<text text-anchor="middle" x="315.2294" y="-113.9545" font-family="Helvetica,sans-Serif" font-size="10.00" fill="#000000">7</text>
</a>
</g>
</g>
</g>
</svg>
        <g id="navigator" transform="translate(0 0)" fill="#404254">
                <rect fill="#f2f5e9" fill-opacity="0.5" stroke="#606060" stroke-width=".5" x="0" y="0" width="60" height="60"/>
                <use id="zoomplus" xlink:href="#zoomPlus" x="17" y="9" onmousedown="handleZoom(evt,'in')"/>
                <use id="zoomminus" xlink:href="#zoomMin" x="42" y="9" onmousedown="handleZoom(evt,'out')"/>
                <use id="reset" xlink:href="#resetDef" x="30" y="36" onmousedown="handleReset()"/>
                <g id="arrowUp" xlink:href="#dirArrow" transform="translate(30 24)" onmousedown="handlePan(0,-1)">
                  <use xlink:href="#rim" fill="#404040">
                        <set attributeName="fill" to="#808080" begin="arrowUp.mouseover" end="arrowUp.mouseout"/>
                  </use>
                  <path fill="none" stroke="white" stroke-width="1.5" d="M0,-3.0v7 M-2.5,-0.5L0,-3.0L2.5,-0.5"/>
                </g>
                <g id="arrowRight" xlink:href="#dirArrow" transform="rotate(90) translate(36 -43)" onmousedown="handlePan(1,0)">
                  <use xlink:href="#rim" fill="#404040">
                        <set attributeName="fill" to="#808080" begin="arrowRight.mouseover" end="arrowRight.mouseout"/>
                  </use>
                  <path fill="none" stroke="white" stroke-width="1.5" d="M0,-3.0v7 M-2.5,-0.5L0,-3.0L2.5,-0.5"/>
                </g>
                <g id="arrowDown" xlink:href="#dirArrow" transform="rotate(180) translate(-30 -48)" onmousedown="handlePan(0,1)">
                  <use xlink:href="#rim" fill="#404040">
                        <set attributeName="fill" to="#808080" begin="arrowDown.mouseover" end="arrowDown.mouseout"/>
                  </use>
                  <path fill="none" stroke="white" stroke-width="1.5" d="M0,-3.0v7 M-2.5,-0.5L0,-3.0L2.5,-0.5"/>
                </g>
                <g id="arrowLeft" xlink:href="#dirArrow" transform="rotate(270) translate(-36 17)" onmousedown="handlePan(-1,0)">
                  <use xlink:href="#rim" fill="#404040">
                        <set attributeName="fill" to="#808080" begin="arrowLeft.mouseover" end="arrowLeft.mouseout"/>
                  </use>
                  <path fill="none" stroke="white" stroke-width="1.5" d="M0,-3.0v7 M-2.5,-0.5L0,-3.0L2.5,-0.5"/>
                </g>
        </g>
        <svg viewBox="0 0 15 15" width="100%" height="30px" preserveAspectRatio="xMaxYMin meet">
         <g id="arrow_out" transform="scale(0.3 0.3)">
          <a xlink:href="dir_b05a5fa85f84bfc9013183c9d87f9a36_dep_org.svg" target="_base">
           <rect id="button" ry="5" rx="5" y="6" x="6" height="38" width="38"
                fill="#f2f5e9" fill-opacity="0.5" stroke="#606060" stroke-width="1.0"/>
           <path id="arrow"
             d="M 11.500037,31.436501 C 11.940474,20.09759 22.043105,11.32322 32.158766,21.979434 L 37.068811,17.246167 C 37.068811,17.246167 37.088388,32 37.088388,32 L 22.160133,31.978069 C 22.160133,31.978069 26.997745,27.140456 26.997745,27.140456 C 18.528582,18.264221 13.291696,25.230495 11.500037,31.436501 z"
             style="fill:#404040;"/>
          </a>
         </g>
        </svg>
</svg>
