<?xml version="1.0" encoding="UTF-8" standalone="no"?>
<!DOCTYPE svg PUBLIC "-//W3C//DTD SVG 1.1//EN"
 "http://www.w3.org/Graphics/SVG/1.1/DTD/svg11.dtd">
<!-- Generated by graphviz version 2.40.1 (20161225.0304)
 -->
<!-- Title: /home/travis/build/AliceO2Group/AliceO2/Algorithm/include/Algorithm/RangeTokenizer.h Pages: 1 -->
<svg width="2560pt" height="150pt"
 viewBox="0.00 0.00 2559.50 150.00" xmlns="http://www.w3.org/2000/svg" xmlns:xlink="http://www.w3.org/1999/xlink">
<g id="graph0" class="graph" transform="scale(1 1) rotate(0) translate(4 146)">
<title>/home/travis/build/AliceO2Group/AliceO2/Algorithm/include/Algorithm/RangeTokenizer.h</title>
<!-- Node6 -->
<g id="node1" class="node">
<title>Node6</title>
<polygon fill="#bfbfbf" stroke="#000000" points="1213,-89.5 1213,-141.5 1370,-141.5 1370,-89.5 1213,-89.5"/>
<text text-anchor="start" x="1221" y="-129.5" font-family="Helvetica,sans-Serif" font-size="10.00" fill="#000000">/home/travis/build</text>
<text text-anchor="start" x="1221" y="-118.5" font-family="Helvetica,sans-Serif" font-size="10.00" fill="#000000">/AliceO2Group/AliceO2</text>
<text text-anchor="start" x="1221" y="-107.5" font-family="Helvetica,sans-Serif" font-size="10.00" fill="#000000">/Algorithm/include/Algorithm</text>
<text text-anchor="middle" x="1291.5" y="-96.5" font-family="Helvetica,sans-Serif" font-size="10.00" fill="#000000">/RangeTokenizer.h</text>
</g>
<!-- Node7 -->
<g id="node2" class="node">
<title>Node7</title>
<g id="a_node2"><a xlink:href="../../de/d83/test__RangeTokenizer_8cxx.html" target="_top" xlink:title="/home/travis/build\l/AliceO2Group/AliceO2\l/Algorithm/test/test_RangeTokenizer.cxx">
<polygon fill="none" stroke="#000000" points="0,-6 0,-47 213,-47 213,-6 0,-6"/>
<text text-anchor="start" x="8" y="-35" font-family="Helvetica,sans-Serif" font-size="10.00" fill="#000000">/home/travis/build</text>
<text text-anchor="start" x="8" y="-24" font-family="Helvetica,sans-Serif" font-size="10.00" fill="#000000">/AliceO2Group/AliceO2</text>
<text text-anchor="middle" x="106.5" y="-13" font-family="Helvetica,sans-Serif" font-size="10.00" fill="#000000">/Algorithm/test/test_RangeTokenizer.cxx</text>
</a>
</g>
</g>
<!-- Node6&#45;&gt;Node7 -->
<g id="edge1" class="edge">
<title>Node6&#45;&gt;Node7</title>
<path fill="none" stroke="#191970" d="M1202.3793,-112.2001C981.0818,-103.6983 410.8072,-79.8241 222.5,-53 211.4563,-51.4268 199.9103,-49.3383 188.5653,-47.0217"/>
<polygon fill="#191970" stroke="#191970" points="1202.524,-115.7081 1212.6506,-112.5933 1202.7918,-108.7132 1202.524,-115.7081"/>
</g>
<!-- Node8 -->
<g id="node3" class="node">
<title>Node8</title>
<g id="a_node3"><a xlink:href="../../d7/d07/cpv-reco-workflow_8cxx.html" target="_top" xlink:title="Basic DPL workflow for CPV reconstruction starting from digits. ">
<polygon fill="none" stroke="#000000" points="231.5,-.5 231.5,-52.5 377.5,-52.5 377.5,-.5 231.5,-.5"/>
<text text-anchor="start" x="239.5" y="-40.5" font-family="Helvetica,sans-Serif" font-size="10.00" fill="#000000">/home/travis/build</text>
<text text-anchor="start" x="239.5" y="-29.5" font-family="Helvetica,sans-Serif" font-size="10.00" fill="#000000">/AliceO2Group/AliceO2</text>
<text text-anchor="start" x="239.5" y="-18.5" font-family="Helvetica,sans-Serif" font-size="10.00" fill="#000000">/Detectors/CPV/workflow</text>
<text text-anchor="middle" x="304.5" y="-7.5" font-family="Helvetica,sans-Serif" font-size="10.00" fill="#000000">/src/cpv&#45;reco&#45;workflow.cxx</text>
</a>
</g>
</g>
<!-- Node6&#45;&gt;Node8 -->
<g id="edge2" class="edge">
<title>Node6&#45;&gt;Node8</title>
<path fill="none" stroke="#191970" d="M1202.5007,-112.1139C1006.1621,-104.1951 541.0757,-82.8504 386.5,-53 383.5621,-52.4326 380.5827,-51.7922 377.5863,-51.0935"/>
<polygon fill="#191970" stroke="#191970" points="1202.6461,-115.6225 1212.7783,-112.5261 1202.9266,-108.6281 1202.6461,-115.6225"/>
</g>
<!-- Node9 -->
<g id="node4" class="node">
<title>Node9</title>
<g id="a_node4"><a xlink:href="../../dd/d16/CPV_2workflow_2src_2RecoWorkflow_8cxx.html" target="_top" xlink:title="/home/travis/build\l/AliceO2Group/AliceO2\l/Detectors/CPV/workflow\l/src/RecoWorkflow.cxx">
<polygon fill="none" stroke="#000000" points="396,-.5 396,-52.5 533,-52.5 533,-.5 396,-.5"/>
<text text-anchor="start" x="404" y="-40.5" font-family="Helvetica,sans-Serif" font-size="10.00" fill="#000000">/home/travis/build</text>
<text text-anchor="start" x="404" y="-29.5" font-family="Helvetica,sans-Serif" font-size="10.00" fill="#000000">/AliceO2Group/AliceO2</text>
<text text-anchor="start" x="404" y="-18.5" font-family="Helvetica,sans-Serif" font-size="10.00" fill="#000000">/Detectors/CPV/workflow</text>
<text text-anchor="middle" x="464.5" y="-7.5" font-family="Helvetica,sans-Serif" font-size="10.00" fill="#000000">/src/RecoWorkflow.cxx</text>
</a>
</g>
</g>
<!-- Node6&#45;&gt;Node9 -->
<g id="edge3" class="edge">
<title>Node6&#45;&gt;Node9</title>
<path fill="none" stroke="#191970" d="M1202.5592,-110.8075C1032.3294,-101.3756 666.3568,-78.8015 542.5,-53 539.4197,-52.3583 536.2928,-51.6312 533.15,-50.8381"/>
<polygon fill="#191970" stroke="#191970" points="1202.5655,-114.3131 1212.743,-111.369 1202.9509,-107.3237 1202.5655,-114.3131"/>
</g>
<!-- Node10 -->
<g id="node5" class="node">
<title>Node10</title>
<g id="a_node5"><a xlink:href="../../d2/d6d/emc-reco-workflow_8cxx.html" target="_top" xlink:title="Basic DPL workflow for EMCAL reconstruction starting from digits (adapted from tpc&#45;reco&#45;workflow.cxx) ">
<polygon fill="none" stroke="#000000" points="551.5,-.5 551.5,-52.5 701.5,-52.5 701.5,-.5 551.5,-.5"/>
<text text-anchor="start" x="559.5" y="-40.5" font-family="Helvetica,sans-Serif" font-size="10.00" fill="#000000">/home/travis/build</text>
<text text-anchor="start" x="559.5" y="-29.5" font-family="Helvetica,sans-Serif" font-size="10.00" fill="#000000">/AliceO2Group/AliceO2</text>
<text text-anchor="start" x="559.5" y="-18.5" font-family="Helvetica,sans-Serif" font-size="10.00" fill="#000000">/Detectors/EMCAL/workflow</text>
<text text-anchor="middle" x="626.5" y="-7.5" font-family="Helvetica,sans-Serif" font-size="10.00" fill="#000000">/src/emc&#45;reco&#45;workflow.cxx</text>
</a>
</g>
</g>
<!-- Node6&#45;&gt;Node10 -->
<g id="edge4" class="edge">
<title>Node6&#45;&gt;Node10</title>
<path fill="none" stroke="#191970" d="M1202.5927,-111.4226C1087.8635,-104.9129 882.5528,-89.0207 710.5,-53 707.6562,-52.4046 704.7718,-51.7517 701.8686,-51.0529"/>
<polygon fill="#191970" stroke="#191970" points="1202.5507,-114.9256 1212.7297,-111.9867 1202.9397,-107.9364 1202.5507,-114.9256"/>
</g>
<!-- Node11 -->
<g id="node6" class="node">
<title>Node11</title>
<g id="a_node6"><a xlink:href="../../d2/dbf/EMCAL_2workflow_2src_2RecoWorkflow_8cxx.html" target="_top" xlink:title="/home/travis/build\l/AliceO2Group/AliceO2\l/Detectors/EMCAL/workflow\l/src/RecoWorkflow.cxx">
<polygon fill="none" stroke="#000000" points="719.5,-.5 719.5,-52.5 869.5,-52.5 869.5,-.5 719.5,-.5"/>
<text text-anchor="start" x="727.5" y="-40.5" font-family="Helvetica,sans-Serif" font-size="10.00" fill="#000000">/home/travis/build</text>
<text text-anchor="start" x="727.5" y="-29.5" font-family="Helvetica,sans-Serif" font-size="10.00" fill="#000000">/AliceO2Group/AliceO2</text>
<text text-anchor="start" x="727.5" y="-18.5" font-family="Helvetica,sans-Serif" font-size="10.00" fill="#000000">/Detectors/EMCAL/workflow</text>
<text text-anchor="middle" x="794.5" y="-7.5" font-family="Helvetica,sans-Serif" font-size="10.00" fill="#000000">/src/RecoWorkflow.cxx</text>
</a>
</g>
</g>
<!-- Node6&#45;&gt;Node11 -->
<g id="edge5" class="edge">
<title>Node6&#45;&gt;Node11</title>
<path fill="none" stroke="#191970" d="M1202.9112,-106.2648C1118.5541,-96.4994 988.3718,-78.8945 877.5,-53 874.9959,-52.4152 872.4584,-51.7911 869.9029,-51.1357"/>
<polygon fill="#191970" stroke="#191970" points="1202.6337,-109.7558 1212.9671,-107.4168 1203.4305,-102.8013 1202.6337,-109.7558"/>
</g>
<!-- Node12 -->
<g id="node7" class="node">
<title>Node12</title>
<g id="a_node7"><a xlink:href="../../d5/db4/MatchTPCITSWorkflow_8cxx.html" target="_top" xlink:title="/home/travis/build\l/AliceO2Group/AliceO2\l/Detectors/GlobalTrackingWorkflow\l/src/MatchTPCITSWorkflow.cxx">
<polygon fill="none" stroke="#000000" points="887,-.5 887,-52.5 1074,-52.5 1074,-.5 887,-.5"/>
<text text-anchor="start" x="895" y="-40.5" font-family="Helvetica,sans-Serif" font-size="10.00" fill="#000000">/home/travis/build</text>
<text text-anchor="start" x="895" y="-29.5" font-family="Helvetica,sans-Serif" font-size="10.00" fill="#000000">/AliceO2Group/AliceO2</text>
<text text-anchor="start" x="895" y="-18.5" font-family="Helvetica,sans-Serif" font-size="10.00" fill="#000000">/Detectors/GlobalTrackingWorkflow</text>
<text text-anchor="middle" x="980.5" y="-7.5" font-family="Helvetica,sans-Serif" font-size="10.00" fill="#000000">/src/MatchTPCITSWorkflow.cxx</text>
</a>
</g>
</g>
<!-- Node6&#45;&gt;Node12 -->
<g id="edge6" class="edge">
<title>Node6&#45;&gt;Node12</title>
<path fill="none" stroke="#191970" d="M1202.8788,-90.1389C1161.7264,-78.3622 1112.8538,-64.3762 1071.4201,-52.5189"/>
<polygon fill="#191970" stroke="#191970" points="1202.0425,-93.54 1212.6195,-92.9265 1203.9684,-86.8102 1202.0425,-93.54"/>
</g>
<!-- Node13 -->
<g id="node8" class="node">
<title>Node13</title>
<g id="a_node8"><a xlink:href="../../da/dfd/tof-reco-workflow_8cxx.html" target="_top" xlink:title="Basic DPL workflow for TOF reconstruction starting from digits. ">
<polygon fill="none" stroke="#000000" points="1092,-.5 1092,-52.5 1295,-52.5 1295,-.5 1092,-.5"/>
<text text-anchor="start" x="1100" y="-40.5" font-family="Helvetica,sans-Serif" font-size="10.00" fill="#000000">/home/travis/build</text>
<text text-anchor="start" x="1100" y="-29.5" font-family="Helvetica,sans-Serif" font-size="10.00" fill="#000000">/AliceO2Group/AliceO2</text>
<text text-anchor="start" x="1100" y="-18.5" font-family="Helvetica,sans-Serif" font-size="10.00" fill="#000000">/Detectors/GlobalTrackingWorkflow</text>
<text text-anchor="middle" x="1193.5" y="-7.5" font-family="Helvetica,sans-Serif" font-size="10.00" fill="#000000">/tofworkflow/src/tof&#45;reco&#45;workflow.cxx</text>
</a>
</g>
</g>
<!-- Node6&#45;&gt;Node13 -->
<g id="edge7" class="edge">
<title>Node6&#45;&gt;Node13</title>
<path fill="none" stroke="#191970" d="M1254.9311,-82.2894C1244.1065,-72.459 1232.4154,-61.8415 1222.1668,-52.5341"/>
<polygon fill="#191970" stroke="#191970" points="1252.8709,-85.1464 1262.6268,-89.2784 1257.577,-79.9644 1252.8709,-85.1464"/>
</g>
<!-- Node14 -->
<g id="node9" class="node">
<title>Node14</title>
<g id="a_node9"><a xlink:href="../../d3/d7b/phos-reco-workflow_8cxx.html" target="_top" xlink:title="Basic DPL workflow for PHOS reconstruction starting from digits. ">
<polygon fill="none" stroke="#000000" points="1313.5,-.5 1313.5,-52.5 1465.5,-52.5 1465.5,-.5 1313.5,-.5"/>
<text text-anchor="start" x="1321.5" y="-40.5" font-family="Helvetica,sans-Serif" font-size="10.00" fill="#000000">/home/travis/build</text>
<text text-anchor="start" x="1321.5" y="-29.5" font-family="Helvetica,sans-Serif" font-size="10.00" fill="#000000">/AliceO2Group/AliceO2</text>
<text text-anchor="start" x="1321.5" y="-18.5" font-family="Helvetica,sans-Serif" font-size="10.00" fill="#000000">/Detectors/PHOS/workflow</text>
<text text-anchor="middle" x="1389.5" y="-7.5" font-family="Helvetica,sans-Serif" font-size="10.00" fill="#000000">/src/phos&#45;reco&#45;workflow.cxx</text>
</a>
</g>
</g>
<!-- Node6&#45;&gt;Node14 -->
<g id="edge8" class="edge">
<title>Node6&#45;&gt;Node14</title>
<path fill="none" stroke="#191970" d="M1328.0689,-82.2894C1338.8935,-72.459 1350.5846,-61.8415 1360.8332,-52.5341"/>
<polygon fill="#191970" stroke="#191970" points="1325.423,-79.9644 1320.3732,-89.2784 1330.1291,-85.1464 1325.423,-79.9644"/>
</g>
<!-- Node15 -->
<g id="node10" class="node">
<title>Node15</title>
<g id="a_node10"><a xlink:href="../../d8/d7e/PHOS_2workflow_2src_2RecoWorkflow_8cxx.html" target="_top" xlink:title="/home/travis/build\l/AliceO2Group/AliceO2\l/Detectors/PHOS/workflow\l/src/RecoWorkflow.cxx">
<polygon fill="none" stroke="#000000" points="1483.5,-.5 1483.5,-52.5 1627.5,-52.5 1627.5,-.5 1483.5,-.5"/>
<text text-anchor="start" x="1491.5" y="-40.5" font-family="Helvetica,sans-Serif" font-size="10.00" fill="#000000">/home/travis/build</text>
<text text-anchor="start" x="1491.5" y="-29.5" font-family="Helvetica,sans-Serif" font-size="10.00" fill="#000000">/AliceO2Group/AliceO2</text>
<text text-anchor="start" x="1491.5" y="-18.5" font-family="Helvetica,sans-Serif" font-size="10.00" fill="#000000">/Detectors/PHOS/workflow</text>
<text text-anchor="middle" x="1555.5" y="-7.5" font-family="Helvetica,sans-Serif" font-size="10.00" fill="#000000">/src/RecoWorkflow.cxx</text>
</a>
</g>
</g>
<!-- Node6&#45;&gt;Node15 -->
<g id="edge9" class="edge">
<title>Node6&#45;&gt;Node15</title>
<path fill="none" stroke="#191970" d="M1378.7935,-86.0715C1412.5894,-74.6782 1450.8187,-61.7903 1483.0533,-50.9233"/>
<polygon fill="#191970" stroke="#191970" points="1377.2828,-82.8872 1368.9249,-89.3984 1379.519,-89.5204 1377.2828,-82.8872"/>
</g>
<!-- Node16 -->
<g id="node11" class="node">
<title>Node16</title>
<g id="a_node11"><a xlink:href="../../d0/d80/TPC_2workflow_2src_2RecoWorkflow_8cxx.html" target="_top" xlink:title="/home/travis/build\l/AliceO2Group/AliceO2\l/Detectors/TPC/workflow\l/src/RecoWorkflow.cxx">
<polygon fill="none" stroke="#000000" points="1645.5,-.5 1645.5,-52.5 1781.5,-52.5 1781.5,-.5 1645.5,-.5"/>
<text text-anchor="start" x="1653.5" y="-40.5" font-family="Helvetica,sans-Serif" font-size="10.00" fill="#000000">/home/travis/build</text>
<text text-anchor="start" x="1653.5" y="-29.5" font-family="Helvetica,sans-Serif" font-size="10.00" fill="#000000">/AliceO2Group/AliceO2</text>
<text text-anchor="start" x="1653.5" y="-18.5" font-family="Helvetica,sans-Serif" font-size="10.00" fill="#000000">/Detectors/TPC/workflow</text>
<text text-anchor="middle" x="1713.5" y="-7.5" font-family="Helvetica,sans-Serif" font-size="10.00" fill="#000000">/src/RecoWorkflow.cxx</text>
</a>
</g>
</g>
<!-- Node6&#45;&gt;Node16 -->
<g id="edge10" class="edge">
<title>Node6&#45;&gt;Node16</title>
<path fill="none" stroke="#191970" d="M1380.4718,-103.1938C1450.6247,-92.5779 1550.6113,-75.42 1636.5,-53 1639.3726,-52.2501 1642.2921,-51.445 1645.2314,-50.5986"/>
<polygon fill="#191970" stroke="#191970" points="1379.7135,-99.7682 1370.343,-104.7124 1380.7515,-106.6909 1379.7135,-99.7682"/>
</g>
<!-- Node17 -->
<g id="node12" class="node">
<title>Node17</title>
<g id="a_node12"><a xlink:href="../../db/d8e/tpc-raw-to-digits-workflow_8cxx.html" target="_top" xlink:title="/home/travis/build\l/AliceO2Group/AliceO2\l/Detectors/TPC/workflow\l/src/tpc&#45;raw&#45;to&#45;digits&#45;workflow.cxx">
<polygon fill="none" stroke="#000000" points="1800,-.5 1800,-52.5 1985,-52.5 1985,-.5 1800,-.5"/>
<text text-anchor="start" x="1808" y="-40.5" font-family="Helvetica,sans-Serif" font-size="10.00" fill="#000000">/home/travis/build</text>
<text text-anchor="start" x="1808" y="-29.5" font-family="Helvetica,sans-Serif" font-size="10.00" fill="#000000">/AliceO2Group/AliceO2</text>
<text text-anchor="start" x="1808" y="-18.5" font-family="Helvetica,sans-Serif" font-size="10.00" fill="#000000">/Detectors/TPC/workflow</text>
<text text-anchor="middle" x="1892.5" y="-7.5" font-family="Helvetica,sans-Serif" font-size="10.00" fill="#000000">/src/tpc&#45;raw&#45;to&#45;digits&#45;workflow.cxx</text>
</a>
</g>
</g>
<!-- Node6&#45;&gt;Node17 -->
<g id="edge11" class="edge">
<title>Node6&#45;&gt;Node17</title>
<path fill="none" stroke="#191970" d="M1380.2944,-107.8824C1480.5057,-98.4749 1648.1183,-80.2932 1790.5,-53 1793.5547,-52.4144 1796.6536,-51.7898 1799.7772,-51.1338"/>
<polygon fill="#191970" stroke="#191970" points="1379.8445,-104.409 1370.2119,-108.8206 1380.4932,-111.3789 1379.8445,-104.409"/>
</g>
<!-- Node18 -->
<g id="node13" class="node">
<title>Node18</title>
<g id="a_node13"><a xlink:href="../../d3/dbf/tpc-reco-workflow_8cxx.html" target="_top" xlink:title="Basic DPL workflow for TPC reconstruction starting from digits. ">
<polygon fill="none" stroke="#000000" points="2003.5,-.5 2003.5,-52.5 2147.5,-52.5 2147.5,-.5 2003.5,-.5"/>
<text text-anchor="start" x="2011.5" y="-40.5" font-family="Helvetica,sans-Serif" font-size="10.00" fill="#000000">/home/travis/build</text>
<text text-anchor="start" x="2011.5" y="-29.5" font-family="Helvetica,sans-Serif" font-size="10.00" fill="#000000">/AliceO2Group/AliceO2</text>
<text text-anchor="start" x="2011.5" y="-18.5" font-family="Helvetica,sans-Serif" font-size="10.00" fill="#000000">/Detectors/TPC/workflow</text>
<text text-anchor="middle" x="2075.5" y="-7.5" font-family="Helvetica,sans-Serif" font-size="10.00" fill="#000000">/src/tpc&#45;reco&#45;workflow.cxx</text>
</a>
</g>
</g>
<!-- Node6&#45;&gt;Node18 -->
<g id="edge12" class="edge">
<title>Node6&#45;&gt;Node18</title>
<path fill="none" stroke="#191970" d="M1380.5823,-110.1154C1542.6211,-99.8998 1879.473,-76.608 1994.5,-53 1997.3988,-52.4051 2000.339,-51.7413 2003.2965,-51.0232"/>
<polygon fill="#191970" stroke="#191970" points="1379.9272,-106.6496 1370.1661,-110.7693 1380.3658,-113.6358 1379.9272,-106.6496"/>
</g>
<!-- Node19 -->
<g id="node14" class="node">
<title>Node19</title>
<g id="a_node14"><a xlink:href="../../d2/dc0/TRDTrapSimulatorWorkFlow_8cxx.html" target="_top" xlink:title="/home/travis/build\l/AliceO2Group/AliceO2\l/Detectors/TRD/workflow\l/src/TRDTrapSimulatorWorkFlow.cxx">
<polygon fill="none" stroke="#000000" points="2166,-.5 2166,-52.5 2357,-52.5 2357,-.5 2166,-.5"/>
<text text-anchor="start" x="2174" y="-40.5" font-family="Helvetica,sans-Serif" font-size="10.00" fill="#000000">/home/travis/build</text>
<text text-anchor="start" x="2174" y="-29.5" font-family="Helvetica,sans-Serif" font-size="10.00" fill="#000000">/AliceO2Group/AliceO2</text>
<text text-anchor="start" x="2174" y="-18.5" font-family="Helvetica,sans-Serif" font-size="10.00" fill="#000000">/Detectors/TRD/workflow</text>
<text text-anchor="middle" x="2261.5" y="-7.5" font-family="Helvetica,sans-Serif" font-size="10.00" fill="#000000">/src/TRDTrapSimulatorWorkFlow.cxx</text>
</a>
</g>
</g>
<!-- Node6&#45;&gt;Node19 -->
<g id="edge13" class="edge">
<title>Node6&#45;&gt;Node19</title>
<path fill="none" stroke="#191970" d="M1380.2582,-114.2005C1537.6144,-110.7622 1875.406,-98.2687 2156.5,-53 2159.5627,-52.5068 2162.6667,-51.967 2165.7941,-51.3888"/>
<polygon fill="#191970" stroke="#191970" points="1380.0806,-110.7034 1370.1569,-114.4142 1380.2287,-117.7018 1380.0806,-110.7034"/>
</g>
<!-- Node20 -->
<g id="node15" class="node">
<title>Node20</title>
<g id="a_node15"><a xlink:href="../../d2/dd7/SimpleDigitizerWorkflow_8cxx.html" target="_top" xlink:title="/home/travis/build\l/AliceO2Group/AliceO2\l/Steer/DigitizerWorkflow\l/src/SimpleDigitizerWorkflow.cxx">
<polygon fill="none" stroke="#000000" points="2375.5,-.5 2375.5,-52.5 2551.5,-52.5 2551.5,-.5 2375.5,-.5"/>
<text text-anchor="start" x="2383.5" y="-40.5" font-family="Helvetica,sans-Serif" font-size="10.00" fill="#000000">/home/travis/build</text>
<text text-anchor="start" x="2383.5" y="-29.5" font-family="Helvetica,sans-Serif" font-size="10.00" fill="#000000">/AliceO2Group/AliceO2</text>
<text text-anchor="start" x="2383.5" y="-18.5" font-family="Helvetica,sans-Serif" font-size="10.00" fill="#000000">/Steer/DigitizerWorkflow</text>
<text text-anchor="middle" x="2463.5" y="-7.5" font-family="Helvetica,sans-Serif" font-size="10.00" fill="#000000">/src/SimpleDigitizerWorkflow.cxx</text>
</a>
</g>
</g>
<!-- Node6&#45;&gt;Node20 -->
<g id="edge14" class="edge">
<title>Node6&#45;&gt;Node20</title>
<path fill="none" stroke="#191970" d="M1380.3924,-112.7217C1602.5238,-105.3948 2177.5171,-83.9599 2366.5,-53 2369.4287,-52.5202 2372.3962,-51.9873 2375.3844,-51.4104"/>
<polygon fill="#191970" stroke="#191970" points="1379.9642,-109.2338 1370.0844,-113.0599 1380.1938,-116.23 1379.9642,-109.2338"/>
</g>
</g>
</svg>
