<?xml version="1.0" encoding="UTF-8" standalone="no"?>
<!DOCTYPE svg PUBLIC "-//W3C//DTD SVG 1.1//EN"
 "http://www.w3.org/Graphics/SVG/1.1/DTD/svg11.dtd">
<!-- Generated by graphviz version 2.40.1 (20161225.0304)
 -->
<!-- Title: /home/travis/build/AliceO2Group/AliceO2/Framework/Core/src/AnalysisHelpers.cxx Pages: 1 -->
<svg width="2235pt" height="341pt"
 viewBox="0.00 0.00 2235.00 341.00" xmlns="http://www.w3.org/2000/svg" xmlns:xlink="http://www.w3.org/1999/xlink">
<g id="graph0" class="graph" transform="scale(1 1) rotate(0) translate(4 337)">
<title>/home/travis/build/AliceO2Group/AliceO2/Framework/Core/src/AnalysisHelpers.cxx</title>
<!-- Node0 -->
<g id="node1" class="node">
<title>Node0</title>
<polygon fill="#bfbfbf" stroke="#000000" points="354,-280.5 354,-332.5 515,-332.5 515,-280.5 354,-280.5"/>
<text text-anchor="start" x="362" y="-320.5" font-family="Helvetica,sans-Serif" font-size="10.00" fill="#000000">/home/travis/build</text>
<text text-anchor="start" x="362" y="-309.5" font-family="Helvetica,sans-Serif" font-size="10.00" fill="#000000">/AliceO2Group/AliceO2</text>
<text text-anchor="start" x="362" y="-298.5" font-family="Helvetica,sans-Serif" font-size="10.00" fill="#000000">/Framework/Core/src/Analysis</text>
<text text-anchor="middle" x="434.5" y="-287.5" font-family="Helvetica,sans-Serif" font-size="10.00" fill="#000000">Helpers.cxx</text>
</g>
<!-- Node1 -->
<g id="node2" class="node">
<title>Node1</title>
<g id="a_node2"><a xlink:href="../../db/d34/AnalysisHelpers_8h.html" target="_top" xlink:title="Framework/AnalysisHelpers.h">
<polygon fill="none" stroke="#000000" points="175,-224.5 175,-243.5 336,-243.5 336,-224.5 175,-224.5"/>
<text text-anchor="middle" x="255.5" y="-231.5" font-family="Helvetica,sans-Serif" font-size="10.00" fill="#000000">Framework/AnalysisHelpers.h</text>
</a>
</g>
</g>
<!-- Node0&#45;&gt;Node1 -->
<g id="edge1" class="edge">
<title>Node0&#45;&gt;Node1</title>
<path fill="none" stroke="#191970" d="M370.1298,-280.4283C342.54,-269.2536 311.4833,-256.6748 288.6621,-247.4316"/>
<polygon fill="#191970" stroke="#191970" points="289.6922,-244.0727 279.1097,-243.5626 287.0644,-250.5607 289.6922,-244.0727"/>
</g>
<!-- Node2 -->
<g id="node3" class="node">
<title>Node2</title>
<polygon fill="none" stroke="#bfbfbf" points="180.5,-168.5 180.5,-187.5 308.5,-187.5 308.5,-168.5 180.5,-168.5"/>
<text text-anchor="middle" x="244.5" y="-175.5" font-family="Helvetica,sans-Serif" font-size="10.00" fill="#000000">ROOT/RDataFrame.hxx</text>
</g>
<!-- Node0&#45;&gt;Node2 -->
<g id="edge70" class="edge">
<title>Node0&#45;&gt;Node2</title>
<path fill="none" stroke="#191970" d="M416.9614,-280.4585C403.7683,-262.5397 384.2767,-239.3007 362.5,-224 341.1865,-209.0247 314.3291,-198.0585 291.6234,-190.5978"/>
<polygon fill="#191970" stroke="#191970" points="292.4371,-187.1846 281.8474,-187.5143 290.3315,-193.8604 292.4371,-187.1846"/>
</g>
<!-- Node4 -->
<g id="node5" class="node">
<title>Node4</title>
<g id="a_node5"><a xlink:href="../../de/d35/RCombinedDS_8h.html" target="_top" xlink:title="Framework/RCombinedDS.h">
<polygon fill="none" stroke="#000000" points="410.5,-224.5 410.5,-243.5 562.5,-243.5 562.5,-224.5 410.5,-224.5"/>
<text text-anchor="middle" x="486.5" y="-231.5" font-family="Helvetica,sans-Serif" font-size="10.00" fill="#000000">Framework/RCombinedDS.h</text>
</a>
</g>
</g>
<!-- Node0&#45;&gt;Node4 -->
<g id="edge5" class="edge">
<title>Node0&#45;&gt;Node4</title>
<path fill="none" stroke="#191970" d="M453.2732,-280.3258C460.096,-270.8132 467.6401,-260.2951 473.813,-251.6886"/>
<polygon fill="#191970" stroke="#191970" points="476.6776,-253.6999 479.6618,-243.534 470.9894,-249.6201 476.6776,-253.6999"/>
</g>
<!-- Node8 -->
<g id="node9" class="node">
<title>Node8</title>
<g id="a_node9"><a xlink:href="../../d5/d98/TableBuilder_8h.html" target="_top" xlink:title="Framework/TableBuilder.h">
<polygon fill="none" stroke="#000000" points="1482.5,-224.5 1482.5,-243.5 1624.5,-243.5 1624.5,-224.5 1482.5,-224.5"/>
<text text-anchor="middle" x="1553.5" y="-231.5" font-family="Helvetica,sans-Serif" font-size="10.00" fill="#000000">Framework/TableBuilder.h</text>
</a>
</g>
</g>
<!-- Node0&#45;&gt;Node8 -->
<g id="edge11" class="edge">
<title>Node0&#45;&gt;Node8</title>
<path fill="none" stroke="#191970" d="M515.4259,-301.2568C721.6674,-287.8944 1265.2576,-252.6752 1472.0593,-239.2765"/>
<polygon fill="#191970" stroke="#191970" points="1472.489,-242.7561 1482.2417,-238.6168 1472.0363,-235.7708 1472.489,-242.7561"/>
</g>
<!-- Node43 -->
<g id="node44" class="node">
<title>Node43</title>
<g id="a_node44"><a xlink:href="../../dc/d03/TableConsumer_8h.html" target="_top" xlink:title="Framework/TableConsumer.h">
<polygon fill="none" stroke="#000000" points="0,-224.5 0,-243.5 157,-243.5 157,-224.5 0,-224.5"/>
<text text-anchor="middle" x="78.5" y="-231.5" font-family="Helvetica,sans-Serif" font-size="10.00" fill="#000000">Framework/TableConsumer.h</text>
</a>
</g>
</g>
<!-- Node0&#45;&gt;Node43 -->
<g id="edge68" class="edge">
<title>Node0&#45;&gt;Node43</title>
<path fill="none" stroke="#191970" d="M353.7181,-290.0486C287.0071,-276.4628 194.0157,-257.525 135.0377,-245.514"/>
<polygon fill="#191970" stroke="#191970" points="135.6524,-242.0674 125.1551,-243.5014 134.2555,-248.9266 135.6524,-242.0674"/>
</g>
<!-- Node44 -->
<g id="node45" class="node">
<title>Node44</title>
<polygon fill="none" stroke="#bfbfbf" points="1642.5,-224.5 1642.5,-243.5 1758.5,-243.5 1758.5,-224.5 1642.5,-224.5"/>
<text text-anchor="middle" x="1700.5" y="-231.5" font-family="Helvetica,sans-Serif" font-size="10.00" fill="#000000">ROOT/RArrowDS.hxx</text>
</g>
<!-- Node0&#45;&gt;Node44 -->
<g id="edge71" class="edge">
<title>Node0&#45;&gt;Node44</title>
<path fill="none" stroke="#191970" d="M515.0402,-304.9719C706.8536,-300.7558 1205.8993,-286.3904 1632.3775,-244.0207"/>
<polygon fill="#191970" stroke="#191970" points="1632.836,-247.4924 1642.4381,-243.0147 1632.1394,-240.5272 1632.836,-247.4924"/>
</g>
<!-- Node1&#45;&gt;Node1 -->
<g id="edge2" class="edge">
<title>Node1&#45;&gt;Node1</title>
<path fill="none" stroke="#191970" d="M297.254,-243.5001C325.8878,-246.3269 354,-243.1602 354,-234 354,-225.9133 332.0905,-222.4977 307.2547,-223.7531"/>
<polygon fill="#191970" stroke="#191970" points="306.9655,-220.2648 297.254,-224.4999 307.4869,-227.2454 306.9655,-220.2648"/>
</g>
<!-- Node1&#45;&gt;Node2 -->
<g id="edge3" class="edge">
<title>Node1&#45;&gt;Node2</title>
<path fill="none" stroke="#191970" d="M253.5839,-224.2455C252.1486,-216.9382 250.1364,-206.6944 248.3705,-197.7046"/>
<polygon fill="#191970" stroke="#191970" points="251.756,-196.7805 246.3941,-187.6427 244.8873,-198.1298 251.756,-196.7805"/>
</g>
<!-- Node3 -->
<g id="node4" class="node">
<title>Node3</title>
<polygon fill="none" stroke="#bfbfbf" points="170.5,-56.5 170.5,-75.5 214.5,-75.5 214.5,-56.5 170.5,-56.5"/>
<text text-anchor="middle" x="192.5" y="-63.5" font-family="Helvetica,sans-Serif" font-size="10.00" fill="#000000">string</text>
</g>
<!-- Node1&#45;&gt;Node3 -->
<g id="edge4" class="edge">
<title>Node1&#45;&gt;Node3</title>
<path fill="none" stroke="#191970" d="M220.7773,-224.4044C202.6949,-217.4487 182.1791,-206.0236 171.5,-188 152.1567,-155.3534 169.4847,-109.7061 182.1012,-84.5206"/>
<polygon fill="#191970" stroke="#191970" points="185.2099,-86.1288 186.7796,-75.6509 179.0184,-82.863 185.2099,-86.1288"/>
</g>
<!-- Node4&#45;&gt;Node2 -->
<g id="edge6" class="edge">
<title>Node4&#45;&gt;Node2</title>
<path fill="none" stroke="#191970" d="M445.1737,-224.4369C403.7573,-214.8529 339.9223,-200.0812 295.4065,-189.78"/>
<polygon fill="#191970" stroke="#191970" points="296.1875,-186.3683 285.6559,-187.5237 294.6093,-193.1881 296.1875,-186.3683"/>
</g>
<!-- Node4&#45;&gt;Node3 -->
<g id="edge9" class="edge">
<title>Node4&#45;&gt;Node3</title>
<path fill="none" stroke="#191970" d="M493.0069,-224.0598C501.1705,-210.2081 512.7075,-184.9022 500.5,-168 498.3942,-165.0843 303.4409,-101.8446 224.8238,-76.4335"/>
<polygon fill="#191970" stroke="#191970" points="225.5578,-72.9925 214.966,-73.2484 223.4056,-79.6535 225.5578,-72.9925"/>
</g>
<!-- Node5 -->
<g id="node6" class="node">
<title>Node5</title>
<polygon fill="none" stroke="#bfbfbf" points="327,-168.5 327,-187.5 458,-187.5 458,-168.5 327,-168.5"/>
<text text-anchor="middle" x="392.5" y="-175.5" font-family="Helvetica,sans-Serif" font-size="10.00" fill="#000000">ROOT/RDataSource.hxx</text>
</g>
<!-- Node4&#45;&gt;Node5 -->
<g id="edge7" class="edge">
<title>Node4&#45;&gt;Node5</title>
<path fill="none" stroke="#191970" d="M470.1264,-224.2455C455.5692,-215.5731 434.069,-202.7645 417.3848,-192.825"/>
<polygon fill="#191970" stroke="#191970" points="419.0683,-189.7539 408.6859,-187.6427 415.4856,-195.7676 419.0683,-189.7539"/>
</g>
<!-- Node6 -->
<g id="node7" class="node">
<title>Node6</title>
<polygon fill="none" stroke="#bfbfbf" points="94.5,-56.5 94.5,-75.5 152.5,-75.5 152.5,-56.5 94.5,-56.5"/>
<text text-anchor="middle" x="123.5" y="-63.5" font-family="Helvetica,sans-Serif" font-size="10.00" fill="#000000">memory</text>
</g>
<!-- Node4&#45;&gt;Node6 -->
<g id="edge8" class="edge">
<title>Node4&#45;&gt;Node6</title>
<path fill="none" stroke="#191970" d="M486.3651,-224.4557C485.6318,-210.1497 482.1077,-183.2063 466.5,-168 423.252,-125.864 393.445,-148.9764 335.5,-132 274.7109,-114.1903 204.6114,-92.0504 162.2014,-78.4776"/>
<polygon fill="#191970" stroke="#191970" points="163.1456,-75.1049 152.5545,-75.3851 161.0087,-81.7708 163.1456,-75.1049"/>
</g>
<!-- Node7 -->
<g id="node8" class="node">
<title>Node7</title>
<polygon fill="none" stroke="#bfbfbf" points="553,-168.5 553,-187.5 600,-187.5 600,-168.5 553,-168.5"/>
<text text-anchor="middle" x="576.5" y="-175.5" font-family="Helvetica,sans-Serif" font-size="10.00" fill="#000000">vector</text>
</g>
<!-- Node4&#45;&gt;Node7 -->
<g id="edge10" class="edge">
<title>Node4&#45;&gt;Node7</title>
<path fill="none" stroke="#191970" d="M502.1768,-224.2455C515.9856,-215.6534 536.3193,-203.0014 552.2292,-193.1018"/>
<polygon fill="#191970" stroke="#191970" points="554.3613,-195.8974 561.0028,-187.6427 550.6632,-189.954 554.3613,-195.8974"/>
</g>
<!-- Node8&#45;&gt;Node3 -->
<g id="edge65" class="edge">
<title>Node8&#45;&gt;Node3</title>
<path fill="none" stroke="#191970" d="M1482.351,-228.5694C1302.8629,-214.4012 835.314,-174.4582 685.5,-132 665.2215,-126.2529 662.8659,-117.4293 642.5,-112 465.0738,-64.7 408.7027,-111.2317 224.6922,-75.8044"/>
<polygon fill="#191970" stroke="#191970" points="225.1805,-72.3332 214.6909,-73.8231 223.8201,-79.1998 225.1805,-72.3332"/>
</g>
<!-- Node8&#45;&gt;Node6 -->
<g id="edge66" class="edge">
<title>Node8&#45;&gt;Node6</title>
<path fill="none" stroke="#191970" d="M1482.2901,-232.1033C1282.836,-226.5485 728.0307,-209.3544 648.5,-188 629.6867,-182.9485 627.8762,-174.4631 609.5,-168 420.8377,-101.6458 361.331,-121.6484 162.3928,-76.0992"/>
<polygon fill="#191970" stroke="#191970" points="163.0373,-72.6559 152.5053,-73.8079 161.457,-79.4751 163.0373,-72.6559"/>
</g>
<!-- Node8&#45;&gt;Node7 -->
<g id="edge64" class="edge">
<title>Node8&#45;&gt;Node7</title>
<path fill="none" stroke="#191970" d="M1482.4993,-232.4377C1293.5865,-227.9745 781.6536,-213.7993 614.5,-188 613.0252,-187.7724 611.525,-187.5106 610.0144,-187.2223"/>
<polygon fill="#191970" stroke="#191970" points="610.577,-183.762 600.0562,-185.0123 609.0604,-190.5958 610.577,-183.762"/>
</g>
<!-- Node9 -->
<g id="node10" class="node">
<title>Node9</title>
<g id="a_node10"><a xlink:href="../../de/d33/ASoA_8h.html" target="_top" xlink:title="Framework/ASoA.h">
<polygon fill="none" stroke="#000000" points="1185.5,-168.5 1185.5,-187.5 1293.5,-187.5 1293.5,-168.5 1185.5,-168.5"/>
<text text-anchor="middle" x="1239.5" y="-175.5" font-family="Helvetica,sans-Serif" font-size="10.00" fill="#000000">Framework/ASoA.h</text>
</a>
</g>
</g>
<!-- Node8&#45;&gt;Node9 -->
<g id="edge12" class="edge">
<title>Node8&#45;&gt;Node9</title>
<path fill="none" stroke="#191970" d="M1499.8783,-224.4369C1445.3493,-214.712 1360.87,-199.6456 1303.0204,-189.3285"/>
<polygon fill="#191970" stroke="#191970" points="1303.3598,-185.8339 1292.9006,-187.5237 1302.1307,-192.7251 1303.3598,-185.8339"/>
</g>
<!-- Node15 -->
<g id="node16" class="node">
<title>Node15</title>
<g id="a_node16"><a xlink:href="../../de/d9b/FunctionalHelpers_8h.html" target="_top" xlink:title="Framework/FunctionalHelpers.h">
<polygon fill="none" stroke="#000000" points="1811.5,-112.5 1811.5,-131.5 1981.5,-131.5 1981.5,-112.5 1811.5,-112.5"/>
<text text-anchor="middle" x="1896.5" y="-119.5" font-family="Helvetica,sans-Serif" font-size="10.00" fill="#000000">Framework/FunctionalHelpers.h</text>
</a>
</g>
</g>
<!-- Node8&#45;&gt;Node15 -->
<g id="edge55" class="edge">
<title>Node8&#45;&gt;Node15</title>
<path fill="none" stroke="#191970" d="M1570.9362,-224.4308C1597.2396,-210.3365 1648.9497,-183.9463 1695.5,-168 1739.6767,-152.8668 1791.021,-141.2123 1830.7582,-133.4206"/>
<polygon fill="#191970" stroke="#191970" points="1831.4429,-136.8531 1840.5994,-131.5231 1830.1176,-129.9797 1831.4429,-136.8531"/>
</g>
<!-- Node16 -->
<g id="node17" class="node">
<title>Node16</title>
<polygon fill="none" stroke="#bfbfbf" points="2032,-56.5 2032,-75.5 2097,-75.5 2097,-56.5 2032,-56.5"/>
<text text-anchor="middle" x="2064.5" y="-63.5" font-family="Helvetica,sans-Serif" font-size="10.00" fill="#000000">functional</text>
</g>
<!-- Node8&#45;&gt;Node16 -->
<g id="edge63" class="edge">
<title>Node8&#45;&gt;Node16</title>
<path fill="none" stroke="#191970" d="M1585.2095,-224.418C1612.2689,-215.8952 1652.0018,-202.5554 1685.5,-188 1703.0042,-180.3942 1705.3201,-173.8085 1723.5,-168 1837.5602,-131.5576 1881.7185,-182.0436 1990.5,-132 2014.7797,-120.8304 2036.8262,-98.9351 2050.4187,-83.4311"/>
<polygon fill="#191970" stroke="#191970" points="2053.2715,-85.4781 2057.0607,-75.584 2047.9285,-80.9556 2053.2715,-85.4781"/>
</g>
<!-- Node23 -->
<g id="node24" class="node">
<title>Node23</title>
<polygon fill="none" stroke="#bfbfbf" points="1627,-56.5 1627,-75.5 1708,-75.5 1708,-56.5 1627,-56.5"/>
<text text-anchor="middle" x="1667.5" y="-63.5" font-family="Helvetica,sans-Serif" font-size="10.00" fill="#000000">arrow/table.h</text>
</g>
<!-- Node8&#45;&gt;Node23 -->
<g id="edge61" class="edge">
<title>Node8&#45;&gt;Node23</title>
<path fill="none" stroke="#191970" d="M1554.202,-224.3877C1556.2629,-202.2957 1564.0121,-147.1099 1591.5,-112 1602.263,-98.2526 1618.3682,-87.6686 1632.9865,-80.1384"/>
<polygon fill="#191970" stroke="#191970" points="1634.8299,-83.1346 1642.307,-75.6284 1631.7809,-76.8335 1634.8299,-83.1346"/>
</g>
<!-- Node36 -->
<g id="node37" class="node">
<title>Node36</title>
<g id="a_node37"><a xlink:href="../../db/d4f/StructToTuple_8h.html" target="_top" xlink:title="Framework/StructToTuple.h">
<polygon fill="none" stroke="#000000" points="2065,-168.5 2065,-187.5 2212,-187.5 2212,-168.5 2065,-168.5"/>
<text text-anchor="middle" x="2138.5" y="-175.5" font-family="Helvetica,sans-Serif" font-size="10.00" fill="#000000">Framework/StructToTuple.h</text>
</a>
</g>
</g>
<!-- Node8&#45;&gt;Node36 -->
<g id="edge51" class="edge">
<title>Node8&#45;&gt;Node36</title>
<path fill="none" stroke="#191970" d="M1624.5834,-224.9684C1627.5948,-224.632 1630.5768,-224.3076 1633.5,-224 1820.263,-204.3498 1867.6801,-207.1025 2054.5,-188 2054.605,-187.9893 2054.7101,-187.9785 2054.8152,-187.9677"/>
<polygon fill="#191970" stroke="#191970" points="2055.1855,-191.4482 2064.7632,-186.9185 2054.4512,-184.4868 2055.1855,-191.4482"/>
</g>
<!-- Node37 -->
<g id="node38" class="node">
<title>Node37</title>
<polygon fill="none" stroke="#bfbfbf" points="2165,-112.5 2165,-131.5 2206,-131.5 2206,-112.5 2165,-112.5"/>
<text text-anchor="middle" x="2185.5" y="-119.5" font-family="Helvetica,sans-Serif" font-size="10.00" fill="#000000">tuple</text>
</g>
<!-- Node8&#45;&gt;Node37 -->
<g id="edge67" class="edge">
<title>Node8&#45;&gt;Node37</title>
<path fill="none" stroke="#191970" d="M1596.7491,-224.461C1631.4903,-216.2846 1681.2763,-203.4036 1723.5,-188 1743.3007,-180.7765 1746.1514,-173.4939 1766.5,-168 1931.4348,-123.4697 1984.3674,-166.9602 2154.958,-131.8937"/>
<polygon fill="#191970" stroke="#191970" points="2155.7022,-135.3138 2164.761,-129.8195 2154.2531,-128.4654 2155.7022,-135.3138"/>
</g>
<!-- Node38 -->
<g id="node39" class="node">
<title>Node38</title>
<g id="a_node39"><a xlink:href="../../d7/dbe/VariantHelpers_8h.html" target="_top" xlink:title="Framework/VariantHelpers.h">
<polygon fill="none" stroke="#000000" points="1600,-112.5 1600,-131.5 1755,-131.5 1755,-112.5 1600,-112.5"/>
<text text-anchor="middle" x="1677.5" y="-119.5" font-family="Helvetica,sans-Serif" font-size="10.00" fill="#000000">Framework/VariantHelpers.h</text>
</a>
</g>
</g>
<!-- Node8&#45;&gt;Node38 -->
<g id="edge56" class="edge">
<title>Node8&#45;&gt;Node38</title>
<path fill="none" stroke="#191970" d="M1564.0722,-224.4509C1585.2115,-205.3574 1632.9156,-162.2697 1659.2251,-138.5063"/>
<polygon fill="#191970" stroke="#191970" points="1661.8796,-140.8251 1666.9546,-131.5249 1657.1875,-135.6304 1661.8796,-140.8251"/>
</g>
<!-- Node39 -->
<g id="node40" class="node">
<title>Node39</title>
<polygon fill="none" stroke="#bfbfbf" points="1775.5,-168.5 1775.5,-187.5 1831.5,-187.5 1831.5,-168.5 1775.5,-168.5"/>
<text text-anchor="middle" x="1803.5" y="-175.5" font-family="Helvetica,sans-Serif" font-size="10.00" fill="#000000">sstream</text>
</g>
<!-- Node8&#45;&gt;Node39 -->
<g id="edge58" class="edge">
<title>Node8&#45;&gt;Node39</title>
<path fill="none" stroke="#191970" d="M1597.7741,-224.4248C1639.9147,-215.2598 1705.0885,-200.9526 1761.5,-188 1762.7328,-187.7169 1763.9855,-187.4277 1765.2503,-187.1345"/>
<polygon fill="#191970" stroke="#191970" points="1766.1097,-190.528 1775.048,-184.8397 1764.5134,-183.7124 1766.1097,-190.528"/>
</g>
<!-- Node40 -->
<g id="node41" class="node">
<title>Node40</title>
<polygon fill="none" stroke="#bfbfbf" points="1849.5,-168.5 1849.5,-187.5 1917.5,-187.5 1917.5,-168.5 1849.5,-168.5"/>
<text text-anchor="middle" x="1883.5" y="-175.5" font-family="Helvetica,sans-Serif" font-size="10.00" fill="#000000">arrow/stl.h</text>
</g>
<!-- Node8&#45;&gt;Node40 -->
<g id="edge59" class="edge">
<title>Node8&#45;&gt;Node40</title>
<path fill="none" stroke="#191970" d="M1621.2916,-224.4931C1677.2057,-216.3411 1758.8224,-203.7309 1839.001,-188.1941"/>
<polygon fill="#191970" stroke="#191970" points="1840.1361,-191.5386 1849.2787,-186.1847 1838.7929,-184.6686 1840.1361,-191.5386"/>
</g>
<!-- Node41 -->
<g id="node42" class="node">
<title>Node41</title>
<polygon fill="none" stroke="#bfbfbf" points="1936,-168.5 1936,-187.5 2045,-187.5 2045,-168.5 1936,-168.5"/>
<text text-anchor="middle" x="1990.5" y="-175.5" font-family="Helvetica,sans-Serif" font-size="10.00" fill="#000000">arrow/type_traits.h</text>
</g>
<!-- Node8&#45;&gt;Node41 -->
<g id="edge60" class="edge">
<title>Node8&#45;&gt;Node41</title>
<path fill="none" stroke="#191970" d="M1624.599,-225.1048C1627.6062,-224.731 1630.583,-224.3615 1633.5,-224 1760.5265,-208.2572 1794.895,-206.2229 1925.7003,-188.0757"/>
<polygon fill="#191970" stroke="#191970" points="1926.283,-191.5284 1935.7047,-186.6825 1925.3175,-184.5953 1926.283,-191.5284"/>
</g>
<!-- Node42 -->
<g id="node43" class="node">
<title>Node42</title>
<polygon fill="none" stroke="#bfbfbf" points="657,-168.5 657,-187.5 746,-187.5 746,-168.5 657,-168.5"/>
<text text-anchor="middle" x="701.5" y="-175.5" font-family="Helvetica,sans-Serif" font-size="10.00" fill="#000000">arrow/builder.h</text>
</g>
<!-- Node8&#45;&gt;Node42 -->
<g id="edge62" class="edge">
<title>Node8&#45;&gt;Node42</title>
<path fill="none" stroke="#191970" d="M1482.4613,-232.4968C1343.4357,-228.9766 1025.8181,-218.0875 760.5,-188 759.1935,-187.8518 757.872,-187.6939 756.5401,-187.5275"/>
<polygon fill="#191970" stroke="#191970" points="756.5878,-184.0012 746.2045,-186.1081 755.6353,-190.9362 756.5878,-184.0012"/>
</g>
<!-- Node10 -->
<g id="node11" class="node">
<title>Node10</title>
<g id="a_node11"><a xlink:href="../../dd/dce/Pack_8h.html" target="_top" xlink:title="Framework/Pack.h">
<polygon fill="none" stroke="#000000" points="1909,-56.5 1909,-75.5 2014,-75.5 2014,-56.5 1909,-56.5"/>
<text text-anchor="middle" x="1961.5" y="-63.5" font-family="Helvetica,sans-Serif" font-size="10.00" fill="#000000">Framework/Pack.h</text>
</a>
</g>
</g>
<!-- Node9&#45;&gt;Node10 -->
<g id="edge13" class="edge">
<title>Node9&#45;&gt;Node10</title>
<path fill="none" stroke="#191970" d="M1293.8741,-175.957C1409.7172,-171.1625 1677.3782,-157.6132 1764.5,-132 1782.8104,-126.6169 1784.7979,-119.1331 1802.5,-112 1837.4939,-97.8992 1878.4144,-86.1628 1909.9785,-78.0744"/>
<polygon fill="#191970" stroke="#191970" points="1911.0377,-81.4169 1919.8785,-75.5781 1909.3262,-74.6294 1911.0377,-81.4169"/>
</g>
<!-- Node14 -->
<g id="node15" class="node">
<title>Node14</title>
<g id="a_node15"><a xlink:href="../../d1/d00/CheckTypes_8h.html" target="_top" xlink:title="Framework/CheckTypes.h">
<polygon fill="none" stroke="#000000" points="1062.5,-56.5 1062.5,-75.5 1202.5,-75.5 1202.5,-56.5 1062.5,-56.5"/>
<text text-anchor="middle" x="1132.5" y="-63.5" font-family="Helvetica,sans-Serif" font-size="10.00" fill="#000000">Framework/CheckTypes.h</text>
</a>
</g>
</g>
<!-- Node9&#45;&gt;Node14 -->
<g id="edge17" class="edge">
<title>Node9&#45;&gt;Node14</title>
<path fill="none" stroke="#191970" d="M1185.3151,-171.3021C1138.7045,-164.2953 1076.6458,-151.5575 1061.5,-132 1045.8983,-111.8539 1073.5864,-92.4517 1098.8157,-79.9603"/>
<polygon fill="#191970" stroke="#191970" points="1100.3542,-83.1046 1107.9148,-75.6824 1097.3759,-76.7698 1100.3542,-83.1046"/>
</g>
<!-- Node9&#45;&gt;Node15 -->
<g id="edge18" class="edge">
<title>Node9&#45;&gt;Node15</title>
<path fill="none" stroke="#191970" d="M1293.7868,-173.8586C1393.575,-166.1718 1612.8591,-148.9345 1797.5,-132 1798.7821,-131.8824 1800.0735,-131.7632 1801.3726,-131.6425"/>
<polygon fill="#191970" stroke="#191970" points="1801.8267,-135.1153 1811.4542,-130.6926 1801.17,-128.1462 1801.8267,-135.1153"/>
</g>
<!-- Node17 -->
<g id="node18" class="node">
<title>Node17</title>
<g id="a_node18"><a xlink:href="../../d9/de8/CompilerBuiltins_8h.html" target="_top" xlink:title="Framework/CompilerBuiltins.h">
<polygon fill="none" stroke="#000000" points="1726.5,-56.5 1726.5,-75.5 1890.5,-75.5 1890.5,-56.5 1726.5,-56.5"/>
<text text-anchor="middle" x="1808.5" y="-63.5" font-family="Helvetica,sans-Serif" font-size="10.00" fill="#000000">Framework/CompilerBuiltins.h</text>
</a>
</g>
</g>
<!-- Node9&#45;&gt;Node17 -->
<g id="edge21" class="edge">
<title>Node9&#45;&gt;Node17</title>
<path fill="none" stroke="#191970" d="M1293.514,-170.4071C1349.1592,-162.2479 1438.2768,-148.241 1514.5,-132 1549.0815,-124.6317 1557.0855,-120.1127 1591.5,-112 1645.2268,-99.3348 1706.8175,-86.4316 1750.6233,-77.5273"/>
<polygon fill="#191970" stroke="#191970" points="1751.4183,-80.9374 1760.5241,-75.5213 1750.0282,-74.0768 1751.4183,-80.9374"/>
</g>
<!-- Node18 -->
<g id="node19" class="node">
<title>Node18</title>
<g id="a_node19"><a xlink:href="../../db/d31/Traits_8h.html" target="_top" xlink:title="Framework/Traits.h">
<polygon fill="none" stroke="#000000" points="2038,-112.5 2038,-131.5 2147,-131.5 2147,-112.5 2038,-112.5"/>
<text text-anchor="middle" x="2092.5" y="-119.5" font-family="Helvetica,sans-Serif" font-size="10.00" fill="#000000">Framework/Traits.h</text>
</a>
</g>
</g>
<!-- Node9&#45;&gt;Node18 -->
<g id="edge22" class="edge">
<title>Node9&#45;&gt;Node18</title>
<path fill="none" stroke="#191970" d="M1293.7375,-175.3593C1417.4087,-169.1887 1729.746,-152.7609 1990.5,-132 2002.4864,-131.0457 2015.2523,-129.8983 2027.5509,-128.7264"/>
<polygon fill="#191970" stroke="#191970" points="2028.1281,-132.187 2037.7444,-127.7399 2027.4537,-125.2195 2028.1281,-132.187"/>
</g>
<!-- Node20 -->
<g id="node21" class="node">
<title>Node20</title>
<g id="a_node21"><a xlink:href="../../d0/d91/Expressions_8h.html" target="_top" xlink:title="Framework/Expressions.h">
<polygon fill="none" stroke="#000000" points="1070,-112.5 1070,-131.5 1211,-131.5 1211,-112.5 1070,-112.5"/>
<text text-anchor="middle" x="1140.5" y="-119.5" font-family="Helvetica,sans-Serif" font-size="10.00" fill="#000000">Framework/Expressions.h</text>
</a>
</g>
</g>
<!-- Node9&#45;&gt;Node20 -->
<g id="edge24" class="edge">
<title>Node9&#45;&gt;Node20</title>
<path fill="none" stroke="#191970" d="M1222.2555,-168.2455C1206.9239,-159.5731 1184.2801,-146.7645 1166.7084,-136.825"/>
<polygon fill="#191970" stroke="#191970" points="1167.9741,-133.5198 1157.5469,-131.6427 1164.5276,-139.6126 1167.9741,-133.5198"/>
</g>
<!-- Node9&#45;&gt;Node23 -->
<g id="edge44" class="edge">
<title>Node9&#45;&gt;Node23</title>
<path fill="none" stroke="#191970" d="M1239.1676,-168.1284C1239.2626,-153.3949 1241.8355,-125.9007 1258.5,-112 1317.8449,-62.4974 1522.6472,-86.0107 1616.7914,-75.7645"/>
<polygon fill="#191970" stroke="#191970" points="1617.4274,-79.2116 1626.899,-74.4643 1616.5342,-72.2689 1617.4274,-79.2116"/>
</g>
<!-- Node24 -->
<g id="node25" class="node">
<title>Node24</title>
<polygon fill="none" stroke="#bfbfbf" points="897,-56.5 897,-75.5 1044,-75.5 1044,-56.5 897,-56.5"/>
<text text-anchor="middle" x="970.5" y="-63.5" font-family="Helvetica,sans-Serif" font-size="10.00" fill="#000000">gandiva/selection_vector.h</text>
</g>
<!-- Node9&#45;&gt;Node24 -->
<g id="edge49" class="edge">
<title>Node9&#45;&gt;Node24</title>
<path fill="none" stroke="#191970" d="M1185.3632,-171.0792C1146.8173,-164.6523 1094.6021,-152.8308 1052.5,-132 1027.1145,-119.44 1002.4116,-97.8976 986.8691,-82.8523"/>
<polygon fill="#191970" stroke="#191970" points="989.1845,-80.2191 979.6213,-75.6588 984.2534,-85.1875 989.1845,-80.2191"/>
</g>
<!-- Node28 -->
<g id="node29" class="node">
<title>Node28</title>
<g id="a_node29"><a xlink:href="../../d0/d92/Kernels_8h.html" target="_top" xlink:title="Framework/Kernels.h">
<polygon fill="none" stroke="#000000" points="765,-112.5 765,-131.5 884,-131.5 884,-112.5 765,-112.5"/>
<text text-anchor="middle" x="824.5" y="-119.5" font-family="Helvetica,sans-Serif" font-size="10.00" fill="#000000">Framework/Kernels.h</text>
</a>
</g>
</g>
<!-- Node9&#45;&gt;Node28 -->
<g id="edge37" class="edge">
<title>Node9&#45;&gt;Node28</title>
<path fill="none" stroke="#191970" d="M1185.246,-170.679C1110.5833,-160.604 976.1125,-142.4586 894.1167,-131.3941"/>
<polygon fill="#191970" stroke="#191970" points="894.517,-127.9164 884.1388,-130.0476 893.5809,-134.8536 894.517,-127.9164"/>
</g>
<!-- Node29 -->
<g id="node30" class="node">
<title>Node29</title>
<polygon fill="none" stroke="#bfbfbf" points="599,-56.5 599,-75.5 732,-75.5 732,-56.5 599,-56.5"/>
<text text-anchor="middle" x="665.5" y="-63.5" font-family="Helvetica,sans-Serif" font-size="10.00" fill="#000000">arrow/compute/kernel.h</text>
</g>
<!-- Node9&#45;&gt;Node29 -->
<g id="edge48" class="edge">
<title>Node9&#45;&gt;Node29</title>
<path fill="none" stroke="#191970" d="M1190.67,-168.4505C1145.4183,-159.4768 1076.2775,-145.4508 1016.5,-132 979.9023,-123.765 971.2327,-119.6106 934.5,-112 868.6867,-98.3642 793.2124,-85.7156 738.9927,-77.1472"/>
<polygon fill="#191970" stroke="#191970" points="739.2048,-73.6377 728.7826,-75.5422 738.1177,-80.5527 739.2048,-73.6377"/>
</g>
<!-- Node32 -->
<g id="node33" class="node">
<title>Node32</title>
<polygon fill="none" stroke="#bfbfbf" points="470.5,-56.5 470.5,-75.5 580.5,-75.5 580.5,-56.5 470.5,-56.5"/>
<text text-anchor="middle" x="525.5" y="-63.5" font-family="Helvetica,sans-Serif" font-size="10.00" fill="#000000">arrow/util/variant.h</text>
</g>
<!-- Node9&#45;&gt;Node32 -->
<g id="edge46" class="edge">
<title>Node9&#45;&gt;Node32</title>
<path fill="none" stroke="#191970" d="M1185.2237,-174.8024C1123.354,-170.0217 1019.76,-158.5392 934.5,-132 915.1415,-125.9742 912.9508,-117.7208 893.5,-112 766.446,-74.6313 726.7278,-93.3809 590.7582,-75.9582"/>
<polygon fill="#191970" stroke="#191970" points="591.1724,-72.4826 580.7996,-74.64 590.2538,-79.422 591.1724,-72.4826"/>
</g>
<!-- Node33 -->
<g id="node34" class="node">
<title>Node33</title>
<polygon fill="none" stroke="#bfbfbf" points="1267.5,-112.5 1267.5,-131.5 1347.5,-131.5 1347.5,-112.5 1267.5,-112.5"/>
<text text-anchor="middle" x="1307.5" y="-119.5" font-family="Helvetica,sans-Serif" font-size="10.00" fill="#000000">arrow/array.h</text>
</g>
<!-- Node9&#45;&gt;Node33 -->
<g id="edge45" class="edge">
<title>Node9&#45;&gt;Node33</title>
<path fill="none" stroke="#191970" d="M1251.3447,-168.2455C1261.388,-159.9746 1275.9995,-147.9416 1287.8004,-138.2232"/>
<polygon fill="#191970" stroke="#191970" points="1290.2967,-140.7015 1295.791,-131.6427 1285.8467,-135.298 1290.2967,-140.7015"/>
</g>
<!-- Node34 -->
<g id="node35" class="node">
<title>Node34</title>
<polygon fill="none" stroke="#bfbfbf" points="1366,-112.5 1366,-131.5 1505,-131.5 1505,-112.5 1366,-112.5"/>
<text text-anchor="middle" x="1435.5" y="-119.5" font-family="Helvetica,sans-Serif" font-size="10.00" fill="#000000">arrow/compute/context.h</text>
</g>
<!-- Node9&#45;&gt;Node34 -->
<g id="edge47" class="edge">
<title>Node9&#45;&gt;Node34</title>
<path fill="none" stroke="#191970" d="M1273.1936,-168.3733C1306.2087,-158.9404 1356.6573,-144.5265 1392.5386,-134.2747"/>
<polygon fill="#191970" stroke="#191970" points="1393.5924,-137.6137 1402.2461,-131.5011 1391.6693,-130.8831 1393.5924,-137.6137"/>
</g>
<!-- Node35 -->
<g id="node36" class="node">
<title>Node35</title>
<polygon fill="none" stroke="#bfbfbf" points="694.5,-112.5 694.5,-131.5 746.5,-131.5 746.5,-112.5 694.5,-112.5"/>
<text text-anchor="middle" x="720.5" y="-119.5" font-family="Helvetica,sans-Serif" font-size="10.00" fill="#000000">cassert</text>
</g>
<!-- Node9&#45;&gt;Node35 -->
<g id="edge50" class="edge">
<title>Node9&#45;&gt;Node35</title>
<path fill="none" stroke="#191970" d="M1185.4666,-175.9564C1095.7238,-171.8711 910.5598,-160.5039 756.5,-132 756.4003,-131.9816 756.3006,-131.963 756.2006,-131.9442"/>
<polygon fill="#191970" stroke="#191970" points="757.2399,-128.5893 746.7213,-129.8584 755.7355,-135.4257 757.2399,-128.5893"/>
</g>
<!-- Node11 -->
<g id="node12" class="node">
<title>Node11</title>
<polygon fill="none" stroke="#bfbfbf" points="1868,-.5 1868,-19.5 1921,-19.5 1921,-.5 1868,-.5"/>
<text text-anchor="middle" x="1894.5" y="-7.5" font-family="Helvetica,sans-Serif" font-size="10.00" fill="#000000">cstddef</text>
</g>
<!-- Node10&#45;&gt;Node11 -->
<g id="edge14" class="edge">
<title>Node10&#45;&gt;Node11</title>
<path fill="none" stroke="#191970" d="M1949.8295,-56.2455C1939.9339,-47.9746 1925.5373,-35.9416 1913.9099,-26.2232"/>
<polygon fill="#191970" stroke="#191970" points="1915.9542,-23.3703 1906.0368,-19.6427 1911.465,-28.7413 1915.9542,-23.3703"/>
</g>
<!-- Node12 -->
<g id="node13" class="node">
<title>Node12</title>
<polygon fill="none" stroke="#bfbfbf" points="1939,-.5 1939,-19.5 1984,-19.5 1984,-.5 1939,-.5"/>
<text text-anchor="middle" x="1961.5" y="-7.5" font-family="Helvetica,sans-Serif" font-size="10.00" fill="#000000">utility</text>
</g>
<!-- Node10&#45;&gt;Node12 -->
<g id="edge15" class="edge">
<title>Node10&#45;&gt;Node12</title>
<path fill="none" stroke="#191970" d="M1961.5,-56.2455C1961.5,-48.9382 1961.5,-38.6944 1961.5,-29.7046"/>
<polygon fill="#191970" stroke="#191970" points="1965.0001,-29.6426 1961.5,-19.6427 1958.0001,-29.6427 1965.0001,-29.6426"/>
</g>
<!-- Node13 -->
<g id="node14" class="node">
<title>Node13</title>
<polygon fill="none" stroke="#bfbfbf" points="2002.5,-.5 2002.5,-19.5 2048.5,-19.5 2048.5,-.5 2002.5,-.5"/>
<text text-anchor="middle" x="2025.5" y="-7.5" font-family="Helvetica,sans-Serif" font-size="10.00" fill="#000000">cstdio</text>
</g>
<!-- Node10&#45;&gt;Node13 -->
<g id="edge16" class="edge">
<title>Node10&#45;&gt;Node13</title>
<path fill="none" stroke="#191970" d="M1972.6479,-56.2455C1982.0087,-48.0549 1995.5858,-36.1749 2006.6349,-26.5069"/>
<polygon fill="#191970" stroke="#191970" points="2009.2588,-28.8618 2014.4798,-19.6427 2004.6492,-23.5937 2009.2588,-28.8618"/>
</g>
<!-- Node15&#45;&gt;Node10 -->
<g id="edge19" class="edge">
<title>Node15&#45;&gt;Node10</title>
<path fill="none" stroke="#191970" d="M1907.8221,-112.2455C1917.4223,-103.9746 1931.3892,-91.9416 1942.6695,-82.2232"/>
<polygon fill="#191970" stroke="#191970" points="1945.016,-84.8214 1950.3076,-75.6427 1940.447,-79.5182 1945.016,-84.8214"/>
</g>
<!-- Node15&#45;&gt;Node16 -->
<g id="edge20" class="edge">
<title>Node15&#45;&gt;Node16</title>
<path fill="none" stroke="#191970" d="M1925.3802,-112.3733C1953.3161,-103.0613 1995.8142,-88.8953 2026.4869,-78.671"/>
<polygon fill="#191970" stroke="#191970" points="2027.6166,-81.9839 2035.9966,-75.5011 2025.403,-75.3431 2027.6166,-81.9839"/>
</g>
<!-- Node19 -->
<g id="node20" class="node">
<title>Node19</title>
<polygon fill="none" stroke="#bfbfbf" points="2158,-56.5 2158,-75.5 2227,-75.5 2227,-56.5 2158,-56.5"/>
<text text-anchor="middle" x="2192.5" y="-63.5" font-family="Helvetica,sans-Serif" font-size="10.00" fill="#000000">type_traits</text>
</g>
<!-- Node18&#45;&gt;Node19 -->
<g id="edge23" class="edge">
<title>Node18&#45;&gt;Node19</title>
<path fill="none" stroke="#191970" d="M2109.9187,-112.2455C2125.5485,-103.4928 2148.7019,-90.527 2166.5185,-80.5496"/>
<polygon fill="#191970" stroke="#191970" points="2168.266,-83.5825 2175.2809,-75.6427 2164.8457,-77.475 2168.266,-83.5825"/>
</g>
<!-- Node20&#45;&gt;Node3 -->
<g id="edge35" class="edge">
<title>Node20&#45;&gt;Node3</title>
<path fill="none" stroke="#191970" d="M1069.6613,-118.9535C871.0391,-110.3474 317.7149,-85.9099 224.6626,-75.3202"/>
<polygon fill="#191970" stroke="#191970" points="225.0609,-71.8419 214.6721,-73.9209 224.0899,-78.7742 225.0609,-71.8419"/>
</g>
<!-- Node20&#45;&gt;Node6 -->
<g id="edge36" class="edge">
<title>Node20&#45;&gt;Node6</title>
<path fill="none" stroke="#191970" d="M1069.9422,-119.092C862.0932,-110.4741 260.9961,-85.1641 162.9175,-75.5655"/>
<polygon fill="#191970" stroke="#191970" points="163.1724,-72.0713 152.83,-74.3705 162.3489,-79.0227 163.1724,-72.0713"/>
</g>
<!-- Node20&#45;&gt;Node10 -->
<g id="edge27" class="edge">
<title>Node20&#45;&gt;Node10</title>
<path fill="none" stroke="#191970" d="M1211.2958,-115.6707C1226.8414,-114.373 1243.221,-113.0762 1258.5,-112 1539.797,-92.1855 1614.0921,-106.4167 1898.5758,-75.9857"/>
<polygon fill="#191970" stroke="#191970" points="1899.2183,-79.4367 1908.7852,-74.8842 1898.4674,-72.4771 1899.2183,-79.4367"/>
</g>
<!-- Node20&#45;&gt;Node14 -->
<g id="edge28" class="edge">
<title>Node20&#45;&gt;Node14</title>
<path fill="none" stroke="#191970" d="M1139.1065,-112.2455C1138.0626,-104.9382 1136.5992,-94.6944 1135.3149,-85.7046"/>
<polygon fill="#191970" stroke="#191970" points="1138.7566,-85.0472 1133.8775,-75.6427 1131.827,-86.0372 1138.7566,-85.0472"/>
</g>
<!-- Node20&#45;&gt;Node17 -->
<g id="edge26" class="edge">
<title>Node20&#45;&gt;Node17</title>
<path fill="none" stroke="#191970" d="M1211.0024,-115.9524C1226.6398,-114.6314 1243.1314,-113.2539 1258.5,-112 1459.1625,-95.6284 1512.0806,-95.1884 1716.0287,-76.1156"/>
<polygon fill="#191970" stroke="#191970" points="1716.5428,-79.5828 1726.1719,-75.1634 1715.8885,-72.6135 1716.5428,-79.5828"/>
</g>
<!-- Node21 -->
<g id="node22" class="node">
<title>Node21</title>
<g id="a_node22"><a xlink:href="../../dd/dc2/BasicOps_8h.html" target="_top" xlink:title="Framework/BasicOps.h">
<polygon fill="none" stroke="#000000" points="750.5,-56.5 750.5,-75.5 878.5,-75.5 878.5,-56.5 750.5,-56.5"/>
<text text-anchor="middle" x="814.5" y="-63.5" font-family="Helvetica,sans-Serif" font-size="10.00" fill="#000000">Framework/BasicOps.h</text>
</a>
</g>
</g>
<!-- Node20&#45;&gt;Node21 -->
<g id="edge25" class="edge">
<title>Node20&#45;&gt;Node21</title>
<path fill="none" stroke="#191970" d="M1084.829,-112.4369C1028.0989,-102.6918 940.145,-87.5832 880.0753,-77.2645"/>
<polygon fill="#191970" stroke="#191970" points="880.3896,-73.7673 869.9414,-75.5237 879.2044,-80.6662 880.3896,-73.7673"/>
</g>
<!-- Node22 -->
<g id="node23" class="node">
<title>Node22</title>
<polygon fill="none" stroke="#bfbfbf" points="1397,-56.5 1397,-75.5 1498,-75.5 1498,-56.5 1397,-56.5"/>
<text text-anchor="middle" x="1447.5" y="-63.5" font-family="Helvetica,sans-Serif" font-size="10.00" fill="#000000">arrow/type_fwd.h</text>
</g>
<!-- Node20&#45;&gt;Node22 -->
<g id="edge29" class="edge">
<title>Node20&#45;&gt;Node22</title>
<path fill="none" stroke="#191970" d="M1192.9264,-112.4369C1246.7244,-102.6236 1330.3399,-87.3712 1386.9317,-77.0483"/>
<polygon fill="#191970" stroke="#191970" points="1387.6111,-80.4822 1396.8207,-75.2444 1386.3549,-73.5958 1387.6111,-80.4822"/>
</g>
<!-- Node20&#45;&gt;Node23 -->
<g id="edge30" class="edge">
<title>Node20&#45;&gt;Node23</title>
<path fill="none" stroke="#191970" d="M1211.4461,-113.5162C1216.2008,-112.99 1220.9189,-112.4798 1225.5,-112 1396.2752,-94.1156 1442.6584,-100.9248 1616.8831,-75.9442"/>
<polygon fill="#191970" stroke="#191970" points="1617.5083,-79.3903 1626.9033,-74.4929 1616.5048,-72.4626 1617.5083,-79.3903"/>
</g>
<!-- Node20&#45;&gt;Node24 -->
<g id="edge31" class="edge">
<title>Node20&#45;&gt;Node24</title>
<path fill="none" stroke="#191970" d="M1111.276,-112.3733C1083.0075,-103.0613 1040.0035,-88.8953 1008.9656,-78.671"/>
<polygon fill="#191970" stroke="#191970" points="1009.9357,-75.3056 999.3427,-75.5011 1007.7456,-81.9542 1009.9357,-75.3056"/>
</g>
<!-- Node25 -->
<g id="node26" class="node">
<title>Node25</title>
<polygon fill="none" stroke="#bfbfbf" points="1516.5,-56.5 1516.5,-75.5 1608.5,-75.5 1608.5,-56.5 1516.5,-56.5"/>
<text text-anchor="middle" x="1562.5" y="-63.5" font-family="Helvetica,sans-Serif" font-size="10.00" fill="#000000">gandiva/node.h</text>
</g>
<!-- Node20&#45;&gt;Node25 -->
<g id="edge32" class="edge">
<title>Node20&#45;&gt;Node25</title>
<path fill="none" stroke="#191970" d="M1211.1803,-113.6121C1296.888,-103.3628 1437.4649,-86.2822 1506.3008,-76.0994"/>
<polygon fill="#191970" stroke="#191970" points="1506.9519,-79.5409 1516.3175,-74.5876 1505.9072,-72.6193 1506.9519,-79.5409"/>
</g>
<!-- Node26 -->
<g id="node27" class="node">
<title>Node26</title>
<polygon fill="none" stroke="#bfbfbf" points="1221,-56.5 1221,-75.5 1310,-75.5 1310,-56.5 1221,-56.5"/>
<text text-anchor="middle" x="1265.5" y="-63.5" font-family="Helvetica,sans-Serif" font-size="10.00" fill="#000000">gandiva/filter.h</text>
</g>
<!-- Node20&#45;&gt;Node26 -->
<g id="edge33" class="edge">
<title>Node20&#45;&gt;Node26</title>
<path fill="none" stroke="#191970" d="M1161.9883,-112.3733C1182.144,-103.3435 1212.488,-89.7494 1235.118,-79.6111"/>
<polygon fill="#191970" stroke="#191970" points="1236.5971,-82.7838 1244.2921,-75.5011 1233.7351,-76.3955 1236.5971,-82.7838"/>
</g>
<!-- Node27 -->
<g id="node28" class="node">
<title>Node27</title>
<polygon fill="none" stroke="#bfbfbf" points="1328,-56.5 1328,-75.5 1379,-75.5 1379,-56.5 1328,-56.5"/>
<text text-anchor="middle" x="1353.5" y="-63.5" font-family="Helvetica,sans-Serif" font-size="10.00" fill="#000000">variant</text>
</g>
<!-- Node20&#45;&gt;Node27 -->
<g id="edge34" class="edge">
<title>Node20&#45;&gt;Node27</title>
<path fill="none" stroke="#191970" d="M1179.3608,-112.4244C1213.5595,-103.906 1264.9358,-90.8883 1317.9859,-76.3597"/>
<polygon fill="#191970" stroke="#191970" points="1319.194,-79.6574 1327.9073,-73.63 1317.337,-72.9082 1319.194,-79.6574"/>
</g>
<!-- Node28&#45;&gt;Node3 -->
<g id="edge43" class="edge">
<title>Node28&#45;&gt;Node3</title>
<path fill="none" stroke="#191970" d="M764.696,-113.0477C761.5887,-112.6718 758.5092,-112.3194 755.5,-112 523.1756,-87.3407 458.0651,-119.7679 224.8361,-75.8146"/>
<polygon fill="#191970" stroke="#191970" points="225.1605,-72.3133 214.6811,-73.8729 223.8459,-79.1887 225.1605,-72.3133"/>
</g>
<!-- Node28&#45;&gt;Node21 -->
<g id="edge38" class="edge">
<title>Node28&#45;&gt;Node21</title>
<path fill="none" stroke="#191970" d="M822.7581,-112.2455C821.4533,-104.9382 819.624,-94.6944 818.0187,-85.7046"/>
<polygon fill="#191970" stroke="#191970" points="821.4254,-84.8717 816.2219,-75.6427 814.5344,-86.1022 821.4254,-84.8717"/>
</g>
<!-- Node28&#45;&gt;Node29 -->
<g id="edge39" class="edge">
<title>Node28&#45;&gt;Node29</title>
<path fill="none" stroke="#191970" d="M797.1669,-112.3733C770.9566,-103.1419 731.2016,-89.1402 702.2332,-78.9375"/>
<polygon fill="#191970" stroke="#191970" points="703.0712,-75.5219 692.4764,-75.5011 700.7458,-82.1244 703.0712,-75.5219"/>
</g>
<!-- Node30 -->
<g id="node31" class="node">
<title>Node30</title>
<polygon fill="none" stroke="#bfbfbf" points="232.5,-56.5 232.5,-75.5 318.5,-75.5 318.5,-56.5 232.5,-56.5"/>
<text text-anchor="middle" x="275.5" y="-63.5" font-family="Helvetica,sans-Serif" font-size="10.00" fill="#000000">arrow/status.h</text>
</g>
<!-- Node28&#45;&gt;Node30 -->
<g id="edge40" class="edge">
<title>Node28&#45;&gt;Node30</title>
<path fill="none" stroke="#191970" d="M764.6894,-113.1077C761.5838,-112.7162 758.5065,-112.344 755.5,-112 569.0846,-90.6712 518.3305,-101.6693 328.5961,-76.0193"/>
<polygon fill="#191970" stroke="#191970" points="328.9541,-72.5358 318.5719,-74.6478 328.0051,-79.4712 328.9541,-72.5358"/>
</g>
<!-- Node31 -->
<g id="node32" class="node">
<title>Node31</title>
<polygon fill="none" stroke="#bfbfbf" points="336.5,-56.5 336.5,-75.5 452.5,-75.5 452.5,-56.5 336.5,-56.5"/>
<text text-anchor="middle" x="394.5" y="-63.5" font-family="Helvetica,sans-Serif" font-size="10.00" fill="#000000">arrow/util/visibility.h</text>
</g>
<!-- Node28&#45;&gt;Node31 -->
<g id="edge41" class="edge">
<title>Node28&#45;&gt;Node31</title>
<path fill="none" stroke="#191970" d="M764.6721,-113.2468C761.571,-112.8189 758.4994,-112.4009 755.5,-112 628.2036,-94.9841 593.6178,-93.7689 462.6108,-76.1221"/>
<polygon fill="#191970" stroke="#191970" points="462.9705,-72.639 452.5913,-74.7659 462.0315,-79.5757 462.9705,-72.639"/>
</g>
<!-- Node28&#45;&gt;Node32 -->
<g id="edge42" class="edge">
<title>Node28&#45;&gt;Node32</title>
<path fill="none" stroke="#191970" d="M773.4398,-112.4369C721.6232,-102.7321 641.405,-87.708 586.3285,-77.3926"/>
<polygon fill="#191970" stroke="#191970" points="586.823,-73.9245 576.3496,-75.5237 585.5344,-80.8048 586.823,-73.9245"/>
</g>
<!-- Node36&#45;&gt;Node18 -->
<g id="edge52" class="edge">
<title>Node36&#45;&gt;Node18</title>
<path fill="none" stroke="#191970" d="M2130.4874,-168.2455C2124.0232,-160.3761 2114.7615,-149.101 2107.0017,-139.6542"/>
<polygon fill="#191970" stroke="#191970" points="2109.4727,-137.1484 2100.4208,-131.6427 2104.0636,-141.5916 2109.4727,-137.1484"/>
</g>
<!-- Node36&#45;&gt;Node19 -->
<g id="edge54" class="edge">
<title>Node36&#45;&gt;Node19</title>
<path fill="none" stroke="#191970" d="M2168.4458,-168.4983C2185.5054,-161.3713 2205.4324,-149.7417 2215.5,-132 2224.146,-116.7635 2215.7246,-97.721 2206.7368,-84.0114"/>
<polygon fill="#191970" stroke="#191970" points="2209.581,-81.9716 2200.9223,-75.866 2203.8836,-86.0386 2209.581,-81.9716"/>
</g>
<!-- Node36&#45;&gt;Node37 -->
<g id="edge53" class="edge">
<title>Node36&#45;&gt;Node37</title>
<path fill="none" stroke="#191970" d="M2146.6868,-168.2455C2153.3589,-160.2958 2162.9479,-148.8706 2170.9253,-139.3656"/>
<polygon fill="#191970" stroke="#191970" points="2173.6592,-141.5525 2177.407,-131.6427 2168.2974,-137.0524 2173.6592,-141.5525"/>
</g>
<!-- Node38&#45;&gt;Node17 -->
<g id="edge57" class="edge">
<title>Node38&#45;&gt;Node17</title>
<path fill="none" stroke="#191970" d="M1700.0197,-112.3733C1721.2372,-103.3032 1753.2276,-89.6279 1776.9769,-79.4755"/>
<polygon fill="#191970" stroke="#191970" points="1778.4548,-82.6502 1786.2742,-75.5011 1775.7033,-76.2136 1778.4548,-82.6502"/>
</g>
<!-- Node43&#45;&gt;Node6 -->
<g id="edge69" class="edge">
<title>Node43&#45;&gt;Node6</title>
<path fill="none" stroke="#191970" d="M81.0483,-224.4862C88.1926,-197.8144 108.5236,-121.9117 118.2245,-85.695"/>
<polygon fill="#191970" stroke="#191970" points="121.6609,-86.393 120.8675,-75.8279 114.8993,-84.5818 121.6609,-86.393"/>
</g>
</g>
</svg>
