<?xml version="1.0" encoding="UTF-8" standalone="no"?>
<!DOCTYPE svg PUBLIC "-//W3C//DTD SVG 1.1//EN"
 "http://www.w3.org/Graphics/SVG/1.1/DTD/svg11.dtd">
<!-- Generated by graphviz version 2.40.1 (20161225.0304)
 -->
<!-- Title: /home/travis/build/AliceO2Group/AliceO2/Detectors/MUON/MCH/Simulation/test/testDigitization.cxx Pages: 1 -->
<svg width="1821pt" height="452pt"
 viewBox="0.00 0.00 1820.50 452.00" xmlns="http://www.w3.org/2000/svg" xmlns:xlink="http://www.w3.org/1999/xlink">
<g id="graph0" class="graph" transform="scale(1 1) rotate(0) translate(4 448)">
<title>/home/travis/build/AliceO2Group/AliceO2/Detectors/MUON/MCH/Simulation/test/testDigitization.cxx</title>
<!-- Node0 -->
<g id="node1" class="node">
<title>Node0</title>
<polygon fill="#bfbfbf" stroke="#000000" points="819,-391.5 819,-443.5 1001,-443.5 1001,-391.5 819,-391.5"/>
<text text-anchor="start" x="827" y="-431.5" font-family="Helvetica,sans-Serif" font-size="10.00" fill="#000000">/home/travis/build</text>
<text text-anchor="start" x="827" y="-420.5" font-family="Helvetica,sans-Serif" font-size="10.00" fill="#000000">/AliceO2Group/AliceO2</text>
<text text-anchor="start" x="827" y="-409.5" font-family="Helvetica,sans-Serif" font-size="10.00" fill="#000000">/Detectors/MUON/MCH/Simulation</text>
<text text-anchor="middle" x="910" y="-398.5" font-family="Helvetica,sans-Serif" font-size="10.00" fill="#000000">/test/testDigitization.cxx</text>
</g>
<!-- Node1 -->
<g id="node2" class="node">
<title>Node1</title>
<polygon fill="none" stroke="#bfbfbf" points="383,-330 383,-349 515,-349 515,-330 383,-330"/>
<text text-anchor="middle" x="449" y="-337" font-family="Helvetica,sans-Serif" font-size="10.00" fill="#000000">boost/test/unit_test.hpp</text>
</g>
<!-- Node0&#45;&gt;Node1 -->
<g id="edge1" class="edge">
<title>Node0&#45;&gt;Node1</title>
<path fill="none" stroke="#191970" d="M818.9489,-403.8946C740.6088,-391.917 624.6459,-373.5392 524,-355 517.4109,-353.7863 510.5099,-352.4498 503.6751,-351.086"/>
<polygon fill="#191970" stroke="#191970" points="504.248,-347.631 493.7526,-349.0793 502.8603,-354.4921 504.248,-347.631"/>
</g>
<!-- Node2 -->
<g id="node3" class="node">
<title>Node2</title>
<polygon fill="none" stroke="#bfbfbf" points="533,-330 533,-349 625,-349 625,-330 533,-330"/>
<text text-anchor="middle" x="579" y="-337" font-family="Helvetica,sans-Serif" font-size="10.00" fill="#000000">TGeoManager.h</text>
</g>
<!-- Node0&#45;&gt;Node2 -->
<g id="edge2" class="edge">
<title>Node0&#45;&gt;Node2</title>
<path fill="none" stroke="#191970" d="M818.9079,-397.1159C766.2564,-385.1778 698.801,-369.6175 639,-355 634.5894,-353.9219 630.0023,-352.778 625.4169,-351.6193"/>
<polygon fill="#191970" stroke="#191970" points="626.005,-348.1574 615.4503,-349.0789 624.276,-354.9405 626.005,-348.1574"/>
</g>
<!-- Node3 -->
<g id="node4" class="node">
<title>Node3</title>
<g id="a_node4"><a xlink:href="../../d8/d72/Detectors_2MUON_2MCH_2Base_2include_2MCHBase_2Digit_8h.html" target="_top" xlink:title="MCHBase/Digit.h">
<polygon fill="none" stroke="#000000" points="468,-263 468,-282 566,-282 566,-263 468,-263"/>
<text text-anchor="middle" x="517" y="-270" font-family="Helvetica,sans-Serif" font-size="10.00" fill="#000000">MCHBase/Digit.h</text>
</a>
</g>
</g>
<!-- Node0&#45;&gt;Node3 -->
<g id="edge3" class="edge">
<title>Node0&#45;&gt;Node3</title>
<path fill="none" stroke="#191970" d="M818.9251,-401.8765C774.1101,-392.0706 720.1563,-377.0175 675,-355 654.4662,-344.988 653.6987,-335.5688 634,-324 607.9296,-308.6891 576.4734,-295.0896 552.7463,-285.7159"/>
<polygon fill="#191970" stroke="#191970" points="554.0022,-282.4491 543.4135,-282.0887 551.4664,-288.9736 554.0022,-282.4491"/>
</g>
<!-- Node5 -->
<g id="node6" class="node">
<title>Node5</title>
<g id="a_node6"><a xlink:href="../../da/d5e/MUON_2MCH_2Simulation_2include_2MCHSimulation_2Digitizer_8h.html" target="_top" xlink:title="MCHSimulation/Digitizer.h">
<polygon fill="none" stroke="#000000" points="719,-330 719,-349 863,-349 863,-330 719,-330"/>
<text text-anchor="middle" x="791" y="-337" font-family="Helvetica,sans-Serif" font-size="10.00" fill="#000000">MCHSimulation/Digitizer.h</text>
</a>
</g>
</g>
<!-- Node0&#45;&gt;Node5 -->
<g id="edge5" class="edge">
<title>Node0&#45;&gt;Node5</title>
<path fill="none" stroke="#191970" d="M870.0437,-391.3101C851.5303,-379.1753 830.1771,-365.1791 814.335,-354.7952"/>
<polygon fill="#191970" stroke="#191970" points="815.9896,-351.6949 805.7074,-349.1401 812.1522,-357.5493 815.9896,-351.6949"/>
</g>
<!-- Node6 -->
<g id="node7" class="node">
<title>Node6</title>
<g id="a_node7"><a xlink:href="../../d5/daf/Detectors_2MUON_2MCH_2Simulation_2include_2MCHSimulation_2Hit_8h.html" target="_top" xlink:title="MCHSimulation/Hit.h">
<polygon fill="none" stroke="#000000" points="584,-263 584,-282 702,-282 702,-263 584,-263"/>
<text text-anchor="middle" x="643" y="-270" font-family="Helvetica,sans-Serif" font-size="10.00" fill="#000000">MCHSimulation/Hit.h</text>
</a>
</g>
</g>
<!-- Node0&#45;&gt;Node6 -->
<g id="edge41" class="edge">
<title>Node0&#45;&gt;Node6</title>
<path fill="none" stroke="#191970" d="M818.8571,-400.9601C782.8194,-391.4809 742.3685,-376.9453 710,-355 685.2902,-338.2472 665.0515,-309.7161 653.5025,-290.9868"/>
<polygon fill="#191970" stroke="#191970" points="656.3971,-289.0066 648.2776,-282.2004 650.3805,-292.5844 656.3971,-289.0066"/>
</g>
<!-- Node26 -->
<g id="node27" class="node">
<title>Node26</title>
<g id="a_node27"><a xlink:href="../../d7/dcd/MCCompLabel_8h.html" target="_top" xlink:title="SimulationDataFormat\l/MCCompLabel.h">
<polygon fill="none" stroke="#000000" points="720.5,-257.5 720.5,-287.5 847.5,-287.5 847.5,-257.5 720.5,-257.5"/>
<text text-anchor="start" x="728.5" y="-275.5" font-family="Helvetica,sans-Serif" font-size="10.00" fill="#000000">SimulationDataFormat</text>
<text text-anchor="middle" x="784" y="-264.5" font-family="Helvetica,sans-Serif" font-size="10.00" fill="#000000">/MCCompLabel.h</text>
</a>
</g>
</g>
<!-- Node0&#45;&gt;Node26 -->
<g id="edge58" class="edge">
<title>Node0&#45;&gt;Node26</title>
<path fill="none" stroke="#191970" d="M904.2571,-391.2582C898.7512,-371.0311 888.7464,-343.3393 872,-324 860.7726,-311.0342 845.4381,-300.5058 830.7138,-292.427"/>
<polygon fill="#191970" stroke="#191970" points="832.1526,-289.2301 821.6669,-287.7136 828.9182,-295.4381 832.1526,-289.2301"/>
</g>
<!-- Node28 -->
<g id="node29" class="node">
<title>Node28</title>
<g id="a_node29"><a xlink:href="../../db/d14/MCTruthContainer_8h.html" target="_top" xlink:title="Definition of a container to keep Monte Carlo truth external to simulation objects. ">
<polygon fill="none" stroke="#000000" points="865.5,-257.5 865.5,-287.5 992.5,-287.5 992.5,-257.5 865.5,-257.5"/>
<text text-anchor="start" x="873.5" y="-275.5" font-family="Helvetica,sans-Serif" font-size="10.00" fill="#000000">SimulationDataFormat</text>
<text text-anchor="middle" x="929" y="-264.5" font-family="Helvetica,sans-Serif" font-size="10.00" fill="#000000">/MCTruthContainer.h</text>
</a>
</g>
</g>
<!-- Node0&#45;&gt;Node28 -->
<g id="edge59" class="edge">
<title>Node0&#45;&gt;Node28</title>
<path fill="none" stroke="#191970" d="M913.4408,-391.2416C916.9184,-364.702 922.2552,-323.9737 925.6865,-297.787"/>
<polygon fill="#191970" stroke="#191970" points="929.1575,-298.2364 926.9865,-287.8663 922.2168,-297.3268 929.1575,-298.2364"/>
</g>
<!-- Node36 -->
<g id="node37" class="node">
<title>Node36</title>
<g id="a_node37"><a xlink:href="../../d5/dc1/MUON_2MCH_2Simulation_2include_2MCHSimulation_2Geometry_8h.html" target="_top" xlink:title="MCHSimulation/Geometry.h">
<polygon fill="none" stroke="#000000" points="1010.5,-263 1010.5,-282 1161.5,-282 1161.5,-263 1010.5,-263"/>
<text text-anchor="middle" x="1086" y="-270" font-family="Helvetica,sans-Serif" font-size="10.00" fill="#000000">MCHSimulation/Geometry.h</text>
</a>
</g>
</g>
<!-- Node0&#45;&gt;Node36 -->
<g id="edge42" class="edge">
<title>Node0&#45;&gt;Node36</title>
<path fill="none" stroke="#191970" d="M941.8723,-391.2416C978.1164,-361.3814 1036.1617,-313.56 1066.3403,-288.6969"/>
<polygon fill="#191970" stroke="#191970" points="1068.9224,-291.1045 1074.4149,-282.0445 1064.4714,-285.7018 1068.9224,-291.1045"/>
</g>
<!-- Node38 -->
<g id="node39" class="node">
<title>Node38</title>
<g id="a_node39"><a xlink:href="../../de/d04/GeometryTest_8h.html" target="_top" xlink:title="MCHSimulation/GeometryTest.h">
<polygon fill="none" stroke="#000000" points="1306,-330 1306,-349 1478,-349 1478,-330 1306,-330"/>
<text text-anchor="middle" x="1392" y="-337" font-family="Helvetica,sans-Serif" font-size="10.00" fill="#000000">MCHSimulation/GeometryTest.h</text>
</a>
</g>
</g>
<!-- Node0&#45;&gt;Node38 -->
<g id="edge46" class="edge">
<title>Node0&#45;&gt;Node38</title>
<path fill="none" stroke="#191970" d="M1001.1018,-402.8298C1079.5297,-390.1902 1195.7281,-371.4393 1297,-355 1305.6291,-353.5993 1314.6984,-352.1238 1323.6678,-350.6625"/>
<polygon fill="#191970" stroke="#191970" points="1324.4166,-354.0868 1333.7233,-349.0236 1323.2905,-347.1779 1324.4166,-354.0868"/>
</g>
<!-- Node39 -->
<g id="node40" class="node">
<title>Node39</title>
<g id="a_node40"><a xlink:href="../../d6/d1f/MUON_2MCH_2Mapping_2Interface_2include_2MCHMappingInterface_2Segmentation_8h.html" target="_top" xlink:title="MCHMappingInterface\l/Segmentation.h">
<polygon fill="none" stroke="#000000" points="1164,-324.5 1164,-354.5 1288,-354.5 1288,-324.5 1164,-324.5"/>
<text text-anchor="start" x="1172" y="-342.5" font-family="Helvetica,sans-Serif" font-size="10.00" fill="#000000">MCHMappingInterface</text>
<text text-anchor="middle" x="1226" y="-331.5" font-family="Helvetica,sans-Serif" font-size="10.00" fill="#000000">/Segmentation.h</text>
</a>
</g>
</g>
<!-- Node0&#45;&gt;Node39 -->
<g id="edge48" class="edge">
<title>Node0&#45;&gt;Node39</title>
<path fill="none" stroke="#191970" d="M1001.4003,-394.9392C1050.308,-382.867 1109.6367,-368.2226 1155.0329,-357.0172"/>
<polygon fill="#191970" stroke="#191970" points="1155.9212,-360.4031 1164.7911,-354.6085 1154.2437,-353.607 1155.9212,-360.4031"/>
</g>
<!-- Node42 -->
<g id="node43" class="node">
<title>Node42</title>
<polygon fill="none" stroke="#bfbfbf" points="1699.5,-196 1699.5,-215 1800.5,-215 1800.5,-196 1699.5,-196"/>
<text text-anchor="middle" x="1750" y="-203" font-family="Helvetica,sans-Serif" font-size="10.00" fill="#000000">boost/format.hpp</text>
</g>
<!-- Node0&#45;&gt;Node42 -->
<g id="edge60" class="edge">
<title>Node0&#45;&gt;Node42</title>
<path fill="none" stroke="#191970" d="M1001.242,-413.9233C1141.1691,-407.3828 1401.5366,-390.7408 1487,-355 1507.1083,-346.5907 1506.8228,-336.027 1525,-324 1591.0316,-280.31 1674.9697,-239.6778 1719.3191,-219.2608"/>
<polygon fill="#191970" stroke="#191970" points="1720.7804,-222.4412 1728.4194,-215.0998 1717.8695,-216.0751 1720.7804,-222.4412"/>
</g>
<!-- Node45 -->
<g id="node46" class="node">
<title>Node45</title>
<polygon fill="none" stroke="#bfbfbf" points="1534,-324.5 1534,-354.5 1646,-354.5 1646,-324.5 1534,-324.5"/>
<text text-anchor="start" x="1542" y="-342.5" font-family="Helvetica,sans-Serif" font-size="10.00" fill="#000000">boost/test/data/test</text>
<text text-anchor="middle" x="1590" y="-331.5" font-family="Helvetica,sans-Serif" font-size="10.00" fill="#000000">_case.hpp</text>
</g>
<!-- Node0&#45;&gt;Node45 -->
<g id="edge61" class="edge">
<title>Node0&#45;&gt;Node45</title>
<path fill="none" stroke="#191970" d="M1001.119,-411.4732C1120.734,-402.8063 1336.9993,-384.534 1520,-355 1521.2787,-354.7936 1522.5692,-354.5784 1523.8683,-354.3554"/>
<polygon fill="#191970" stroke="#191970" points="1524.7394,-357.7542 1533.9461,-352.5113 1523.4794,-350.8686 1524.7394,-357.7542"/>
</g>
<!-- Node4 -->
<g id="node5" class="node">
<title>Node4</title>
<polygon fill="none" stroke="#bfbfbf" points="486.5,-73 486.5,-92 545.5,-92 545.5,-73 486.5,-73"/>
<text text-anchor="middle" x="516" y="-80" font-family="Helvetica,sans-Serif" font-size="10.00" fill="#000000">Rtypes.h</text>
</g>
<!-- Node3&#45;&gt;Node4 -->
<g id="edge4" class="edge">
<title>Node3&#45;&gt;Node4</title>
<path fill="none" stroke="#191970" d="M467.9039,-269.5421C402.4246,-264.4552 291.8463,-251.4863 267,-221 258.2958,-210.3199 259.4308,-201.5123 267,-190 291.186,-153.2144 412.8955,-112.8112 476.751,-93.7028"/>
<polygon fill="#191970" stroke="#191970" points="477.884,-97.0176 486.4789,-90.8227 475.8967,-90.3056 477.884,-97.0176"/>
</g>
<!-- Node5&#45;&gt;Node3 -->
<g id="edge6" class="edge">
<title>Node5&#45;&gt;Node3</title>
<path fill="none" stroke="#191970" d="M749.5098,-329.9593C705.9627,-319.8634 635.5483,-303.3057 575,-288 570.8507,-286.9511 566.5402,-285.8399 562.227,-284.7134"/>
<polygon fill="#191970" stroke="#191970" points="562.7945,-281.2435 552.2327,-282.0791 561.0103,-288.0123 562.7945,-281.2435"/>
</g>
<!-- Node5&#45;&gt;Node6 -->
<g id="edge7" class="edge">
<title>Node5&#45;&gt;Node6</title>
<path fill="none" stroke="#191970" d="M769.7952,-329.9005C744.5179,-318.4574 702.0916,-299.2509 673.3452,-286.2374"/>
<polygon fill="#191970" stroke="#191970" points="674.7189,-283.0173 664.1655,-282.0817 671.832,-289.3943 674.7189,-283.0173"/>
</g>
<!-- Node5&#45;&gt;Node26 -->
<g id="edge28" class="edge">
<title>Node5&#45;&gt;Node26</title>
<path fill="none" stroke="#191970" d="M789.9971,-329.9005C789.1204,-321.5099 787.8077,-308.9451 786.6337,-297.7085"/>
<polygon fill="#191970" stroke="#191970" points="790.0897,-297.1039 785.5694,-287.5218 783.1276,-297.8314 790.0897,-297.1039"/>
</g>
<!-- Node5&#45;&gt;Node28 -->
<g id="edge31" class="edge">
<title>Node5&#45;&gt;Node28</title>
<path fill="none" stroke="#191970" d="M810.772,-329.9005C831.0832,-320.0393 863.2691,-304.4128 888.9335,-291.9526"/>
<polygon fill="#191970" stroke="#191970" points="890.5925,-295.0379 898.0597,-287.5218 887.5352,-288.7408 890.5925,-295.0379"/>
</g>
<!-- Node7 -->
<g id="node8" class="node">
<title>Node7</title>
<g id="a_node8"><a xlink:href="../../d4/d25/BaseHits_8h.html" target="_top" xlink:title="SimulationDataFormat\l/BaseHits.h">
<polygon fill="none" stroke="#000000" points="454.5,-190.5 454.5,-220.5 581.5,-220.5 581.5,-190.5 454.5,-190.5"/>
<text text-anchor="start" x="462.5" y="-208.5" font-family="Helvetica,sans-Serif" font-size="10.00" fill="#000000">SimulationDataFormat</text>
<text text-anchor="middle" x="518" y="-197.5" font-family="Helvetica,sans-Serif" font-size="10.00" fill="#000000">/BaseHits.h</text>
</a>
</g>
</g>
<!-- Node6&#45;&gt;Node7 -->
<g id="edge8" class="edge">
<title>Node6&#45;&gt;Node7</title>
<path fill="none" stroke="#191970" d="M625.0905,-262.9005C606.8541,-253.1258 578.0495,-237.6865 554.9052,-225.2812"/>
<polygon fill="#191970" stroke="#191970" points="556.4929,-222.1612 546.0257,-220.5218 553.186,-228.3308 556.4929,-222.1612"/>
</g>
<!-- Node19 -->
<g id="node20" class="node">
<title>Node19</title>
<g id="a_node20"><a xlink:href="../../d0/d91/ShmAllocator_8h.html" target="_top" xlink:title="CommonUtils/ShmAllocator.h">
<polygon fill="none" stroke="#000000" points="276,-196 276,-215 436,-215 436,-196 276,-196"/>
<text text-anchor="middle" x="356" y="-203" font-family="Helvetica,sans-Serif" font-size="10.00" fill="#000000">CommonUtils/ShmAllocator.h</text>
</a>
</g>
</g>
<!-- Node6&#45;&gt;Node19 -->
<g id="edge21" class="edge">
<title>Node6&#45;&gt;Node19</title>
<path fill="none" stroke="#191970" d="M602.1847,-262.9717C550.9021,-250.9998 462.8772,-230.4504 407.1522,-217.4415"/>
<polygon fill="#191970" stroke="#191970" points="407.6731,-213.969 397.1392,-215.1039 406.0816,-220.7857 407.6731,-213.969"/>
</g>
<!-- Node8 -->
<g id="node9" class="node">
<title>Node8</title>
<g id="a_node9"><a xlink:href="../../dd/d76/Cartesian3D_8h.html" target="_top" xlink:title="MathUtils/Cartesian3D.h">
<polygon fill="none" stroke="#000000" points="899.5,-134.5 899.5,-153.5 1034.5,-153.5 1034.5,-134.5 899.5,-134.5"/>
<text text-anchor="middle" x="967" y="-141.5" font-family="Helvetica,sans-Serif" font-size="10.00" fill="#000000">MathUtils/Cartesian3D.h</text>
</a>
</g>
</g>
<!-- Node7&#45;&gt;Node8 -->
<g id="edge9" class="edge">
<title>Node7&#45;&gt;Node8</title>
<path fill="none" stroke="#191970" d="M581.5431,-191.4939C584.3971,-190.9679 587.226,-190.4668 590,-190 692.9882,-172.668 812.852,-159.1742 889.2858,-151.4037"/>
<polygon fill="#191970" stroke="#191970" points="889.7148,-154.8783 899.3129,-150.3919 889.012,-147.9137 889.7148,-154.8783"/>
</g>
<!-- Node8&#45;&gt;Node4 -->
<g id="edge15" class="edge">
<title>Node8&#45;&gt;Node4</title>
<path fill="none" stroke="#191970" d="M899.305,-141.9678C816.8592,-138.235 673.8812,-127.6904 555,-98 552.2166,-97.3049 549.3669,-96.4569 546.5369,-95.5195"/>
<polygon fill="#191970" stroke="#191970" points="547.7112,-92.2223 537.1173,-92.0804 545.3105,-98.7978 547.7112,-92.2223"/>
</g>
<!-- Node9 -->
<g id="node10" class="node">
<title>Node9</title>
<polygon fill="none" stroke="#bfbfbf" points="885,-67.5 885,-97.5 1049,-97.5 1049,-67.5 885,-67.5"/>
<text text-anchor="start" x="893" y="-85.5" font-family="Helvetica,sans-Serif" font-size="10.00" fill="#000000">Math/GenVector/Displacement</text>
<text text-anchor="middle" x="967" y="-74.5" font-family="Helvetica,sans-Serif" font-size="10.00" fill="#000000">Vector3D.h</text>
</g>
<!-- Node8&#45;&gt;Node9 -->
<g id="edge10" class="edge">
<title>Node8&#45;&gt;Node9</title>
<path fill="none" stroke="#191970" d="M967,-134.3906C967,-127.2234 967,-117.0862 967,-107.671"/>
<polygon fill="#191970" stroke="#191970" points="970.5001,-107.5446 967,-97.5446 963.5001,-107.5446 970.5001,-107.5446"/>
</g>
<!-- Node10 -->
<g id="node11" class="node">
<title>Node10</title>
<polygon fill="none" stroke="#bfbfbf" points="1067.5,-73 1067.5,-92 1256.5,-92 1256.5,-73 1067.5,-73"/>
<text text-anchor="middle" x="1162" y="-80" font-family="Helvetica,sans-Serif" font-size="10.00" fill="#000000">Math/GenVector/PositionVector3D.h</text>
</g>
<!-- Node8&#45;&gt;Node10 -->
<g id="edge11" class="edge">
<title>Node8&#45;&gt;Node10</title>
<path fill="none" stroke="#191970" d="M997.4688,-134.3906C1030.9544,-123.8298 1084.8853,-106.8208 1121.812,-95.1747"/>
<polygon fill="#191970" stroke="#191970" points="1123.261,-98.3877 1131.7452,-92.0419 1121.1555,-91.7118 1123.261,-98.3877"/>
</g>
<!-- Node11 -->
<g id="node12" class="node">
<title>Node11</title>
<polygon fill="none" stroke="#bfbfbf" points="1275,-73 1275,-92 1435,-92 1435,-73 1275,-73"/>
<text text-anchor="middle" x="1355" y="-80" font-family="Helvetica,sans-Serif" font-size="10.00" fill="#000000">Math/GenVector/Rotation3D.h</text>
</g>
<!-- Node8&#45;&gt;Node11 -->
<g id="edge12" class="edge">
<title>Node8&#45;&gt;Node11</title>
<path fill="none" stroke="#191970" d="M1031.2166,-134.4958C1091.8043,-125.4398 1185.148,-111.2585 1266,-98 1274.232,-96.6501 1282.8851,-95.192 1291.429,-93.729"/>
<polygon fill="#191970" stroke="#191970" points="1292.1161,-97.1623 1301.3769,-92.0155 1290.9278,-90.2639 1292.1161,-97.1623"/>
</g>
<!-- Node12 -->
<g id="node13" class="node">
<title>Node12</title>
<polygon fill="none" stroke="#bfbfbf" points="1453,-73 1453,-92 1621,-92 1621,-73 1453,-73"/>
<text text-anchor="middle" x="1537" y="-80" font-family="Helvetica,sans-Serif" font-size="10.00" fill="#000000">Math/GenVector/Transform3D.h</text>
</g>
<!-- Node8&#45;&gt;Node12 -->
<g id="edge13" class="edge">
<title>Node8&#45;&gt;Node12</title>
<path fill="none" stroke="#191970" d="M1034.705,-138.9504C1127.3206,-131.7057 1298.6154,-117.1024 1444,-98 1453.5156,-96.7497 1463.5508,-95.2591 1473.3685,-93.7038"/>
<polygon fill="#191970" stroke="#191970" points="1474.1771,-97.1186 1483.49,-92.0669 1473.0595,-90.2084 1474.1771,-97.1186"/>
</g>
<!-- Node13 -->
<g id="node14" class="node">
<title>Node13</title>
<polygon fill="none" stroke="#bfbfbf" points="1639.5,-73 1639.5,-92 1812.5,-92 1812.5,-73 1639.5,-73"/>
<text text-anchor="middle" x="1726" y="-80" font-family="Helvetica,sans-Serif" font-size="10.00" fill="#000000">Math/GenVector/Translation3D.h</text>
</g>
<!-- Node8&#45;&gt;Node13 -->
<g id="edge14" class="edge">
<title>Node8&#45;&gt;Node13</title>
<path fill="none" stroke="#191970" d="M1034.952,-141.3241C1155.2295,-136.1336 1413.3624,-122.9521 1630,-98 1640.4855,-96.7923 1651.5752,-95.25 1662.3486,-93.6086"/>
<polygon fill="#191970" stroke="#191970" points="1663.212,-97.0162 1672.5507,-92.0122 1662.1298,-90.1003 1663.212,-97.0162"/>
</g>
<!-- Node14 -->
<g id="node15" class="node">
<title>Node14</title>
<polygon fill="none" stroke="#bfbfbf" points="564,-73 564,-92 646,-92 646,-73 564,-73"/>
<text text-anchor="middle" x="605" y="-80" font-family="Helvetica,sans-Serif" font-size="10.00" fill="#000000">TGeoMatrix.h</text>
</g>
<!-- Node8&#45;&gt;Node14 -->
<g id="edge16" class="edge">
<title>Node8&#45;&gt;Node14</title>
<path fill="none" stroke="#191970" d="M899.4978,-137.0923C835.9271,-129.8713 738.2892,-116.9308 655,-98 651.0744,-97.1077 647.0103,-96.0602 642.9731,-94.9378"/>
<polygon fill="#191970" stroke="#191970" points="643.6683,-91.4943 633.0875,-92.0394 641.6988,-98.2116 643.6683,-91.4943"/>
</g>
<!-- Node15 -->
<g id="node16" class="node">
<title>Node15</title>
<polygon fill="none" stroke="#bfbfbf" points="664.5,-73 664.5,-92 713.5,-92 713.5,-73 664.5,-73"/>
<text text-anchor="middle" x="689" y="-80" font-family="Helvetica,sans-Serif" font-size="10.00" fill="#000000">iosfwd</text>
</g>
<!-- Node8&#45;&gt;Node15 -->
<g id="edge17" class="edge">
<title>Node8&#45;&gt;Node15</title>
<path fill="none" stroke="#191970" d="M899.3085,-135.9932C849.4659,-128.9726 780.4811,-116.885 722,-98 720.1478,-97.4019 718.2644,-96.7238 716.3841,-95.9936"/>
<polygon fill="#191970" stroke="#191970" points="717.7361,-92.7652 707.1663,-92.0374 714.9752,-99.1978 717.7361,-92.7652"/>
</g>
<!-- Node16 -->
<g id="node17" class="node">
<title>Node16</title>
<g id="a_node17"><a xlink:href="../../d2/dd0/Cartesian2D_8h.html" target="_top" xlink:title="MathUtils/Cartesian2D.h">
<polygon fill="none" stroke="#000000" points="731.5,-73 731.5,-92 866.5,-92 866.5,-73 731.5,-73"/>
<text text-anchor="middle" x="799" y="-80" font-family="Helvetica,sans-Serif" font-size="10.00" fill="#000000">MathUtils/Cartesian2D.h</text>
</a>
</g>
</g>
<!-- Node8&#45;&gt;Node16 -->
<g id="edge18" class="edge">
<title>Node8&#45;&gt;Node16</title>
<path fill="none" stroke="#191970" d="M940.75,-134.3906C912.2707,-123.9652 866.6257,-107.2559 834.8543,-95.6252"/>
<polygon fill="#191970" stroke="#191970" points="835.6594,-92.1929 825.0657,-92.0419 833.2531,-98.7663 835.6594,-92.1929"/>
</g>
<!-- Node17 -->
<g id="node18" class="node">
<title>Node17</title>
<polygon fill="none" stroke="#bfbfbf" points="619,-.5 619,-30.5 783,-30.5 783,-.5 619,-.5"/>
<text text-anchor="start" x="627" y="-18.5" font-family="Helvetica,sans-Serif" font-size="10.00" fill="#000000">Math/GenVector/Displacement</text>
<text text-anchor="middle" x="701" y="-7.5" font-family="Helvetica,sans-Serif" font-size="10.00" fill="#000000">Vector2D.h</text>
</g>
<!-- Node16&#45;&gt;Node17 -->
<g id="edge19" class="edge">
<title>Node16&#45;&gt;Node17</title>
<path fill="none" stroke="#191970" d="M784.959,-72.9005C771.0412,-63.3853 749.272,-48.5023 731.388,-36.2755"/>
<polygon fill="#191970" stroke="#191970" points="733.2026,-33.2763 722.9721,-30.5218 729.2519,-39.0549 733.2026,-33.2763"/>
</g>
<!-- Node18 -->
<g id="node19" class="node">
<title>Node18</title>
<polygon fill="none" stroke="#bfbfbf" points="801.5,-6 801.5,-25 990.5,-25 990.5,-6 801.5,-6"/>
<text text-anchor="middle" x="896" y="-13" font-family="Helvetica,sans-Serif" font-size="10.00" fill="#000000">Math/GenVector/PositionVector2D.h</text>
</g>
<!-- Node16&#45;&gt;Node18 -->
<g id="edge20" class="edge">
<title>Node16&#45;&gt;Node18</title>
<path fill="none" stroke="#191970" d="M812.8977,-72.9005C828.8164,-61.9052 855.1121,-43.7422 873.8599,-30.7927"/>
<polygon fill="#191970" stroke="#191970" points="875.8892,-33.6448 882.128,-25.0817 871.9108,-27.8852 875.8892,-33.6448"/>
</g>
<!-- Node20 -->
<g id="node21" class="node">
<title>Node20</title>
<g id="a_node21"><a xlink:href="../../de/d61/ShmManager_8h.html" target="_top" xlink:title="CommonUtils/ShmManager.h">
<polygon fill="none" stroke="#000000" points="62,-134.5 62,-153.5 220,-153.5 220,-134.5 62,-134.5"/>
<text text-anchor="middle" x="141" y="-141.5" font-family="Helvetica,sans-Serif" font-size="10.00" fill="#000000">CommonUtils/ShmManager.h</text>
</a>
</g>
</g>
<!-- Node19&#45;&gt;Node20 -->
<g id="edge22" class="edge">
<title>Node19&#45;&gt;Node20</title>
<path fill="none" stroke="#191970" d="M322.4063,-195.8906C285.0917,-185.2169 224.7508,-167.9566 184.0114,-156.3033"/>
<polygon fill="#191970" stroke="#191970" points="184.9348,-152.9271 174.3579,-153.5419 183.0097,-159.6572 184.9348,-152.9271"/>
</g>
<!-- Node25 -->
<g id="node26" class="node">
<title>Node25</title>
<polygon fill="none" stroke="#bfbfbf" points="687,-134.5 687,-153.5 739,-153.5 739,-134.5 687,-134.5"/>
<text text-anchor="middle" x="713" y="-141.5" font-family="Helvetica,sans-Serif" font-size="10.00" fill="#000000">cassert</text>
</g>
<!-- Node19&#45;&gt;Node25 -->
<g id="edge27" class="edge">
<title>Node19&#45;&gt;Node25</title>
<path fill="none" stroke="#191970" d="M410.5947,-195.9702C421.9644,-193.9917 433.8726,-191.9239 445,-190 527.9051,-175.6658 625.2668,-158.9953 676.7752,-150.1888"/>
<polygon fill="#191970" stroke="#191970" points="677.4811,-153.619 686.7483,-148.484 676.3015,-146.7191 677.4811,-153.619"/>
</g>
<!-- Node21 -->
<g id="node22" class="node">
<title>Node21</title>
<polygon fill="none" stroke="#bfbfbf" points="0,-73 0,-92 32,-92 32,-73 0,-73"/>
<text text-anchor="middle" x="16" y="-80" font-family="Helvetica,sans-Serif" font-size="10.00" fill="#000000">list</text>
</g>
<!-- Node20&#45;&gt;Node21 -->
<g id="edge23" class="edge">
<title>Node20&#45;&gt;Node21</title>
<path fill="none" stroke="#191970" d="M117.9701,-134.3735C97.4443,-125.5672 66.7554,-111.8393 41,-98 40.5839,-97.7764 40.1652,-97.5487 39.7447,-97.3176"/>
<polygon fill="#191970" stroke="#191970" points="41.2941,-94.1694 30.8933,-92.1511 37.7654,-100.2149 41.2941,-94.1694"/>
</g>
<!-- Node22 -->
<g id="node23" class="node">
<title>Node22</title>
<polygon fill="none" stroke="#bfbfbf" points="50.5,-73 50.5,-92 103.5,-92 103.5,-73 50.5,-73"/>
<text text-anchor="middle" x="77" y="-80" font-family="Helvetica,sans-Serif" font-size="10.00" fill="#000000">cstddef</text>
</g>
<!-- Node20&#45;&gt;Node22 -->
<g id="edge24" class="edge">
<title>Node20&#45;&gt;Node22</title>
<path fill="none" stroke="#191970" d="M131,-134.3906C121.2881,-125.0581 106.3361,-110.6902 94.6259,-99.4374"/>
<polygon fill="#191970" stroke="#191970" points="96.7766,-96.65 87.141,-92.2449 91.9264,-101.6974 96.7766,-96.65"/>
</g>
<!-- Node23 -->
<g id="node24" class="node">
<title>Node23</title>
<polygon fill="none" stroke="#bfbfbf" points="121.5,-67.5 121.5,-97.5 286.5,-97.5 286.5,-67.5 121.5,-67.5"/>
<text text-anchor="start" x="129.5" y="-85.5" font-family="Helvetica,sans-Serif" font-size="10.00" fill="#000000">boost/interprocess</text>
<text text-anchor="middle" x="204" y="-74.5" font-family="Helvetica,sans-Serif" font-size="10.00" fill="#000000">/managed_external_buffer.hpp</text>
</g>
<!-- Node20&#45;&gt;Node23 -->
<g id="edge25" class="edge">
<title>Node20&#45;&gt;Node23</title>
<path fill="none" stroke="#191970" d="M150.8438,-134.3906C158.9753,-126.4527 170.8386,-114.8718 181.2959,-104.6635"/>
<polygon fill="#191970" stroke="#191970" points="183.8776,-107.0345 188.5885,-97.5446 178.9878,-102.0255 183.8776,-107.0345"/>
</g>
<!-- Node24 -->
<g id="node25" class="node">
<title>Node24</title>
<polygon fill="none" stroke="#bfbfbf" points="305,-67.5 305,-97.5 439,-97.5 439,-67.5 305,-67.5"/>
<text text-anchor="start" x="313" y="-85.5" font-family="Helvetica,sans-Serif" font-size="10.00" fill="#000000">boost/interprocess</text>
<text text-anchor="middle" x="372" y="-74.5" font-family="Helvetica,sans-Serif" font-size="10.00" fill="#000000">/allocators/allocator.hpp</text>
</g>
<!-- Node20&#45;&gt;Node24 -->
<g id="edge26" class="edge">
<title>Node20&#45;&gt;Node24</title>
<path fill="none" stroke="#191970" d="M176.8403,-134.4581C211.0978,-125.3376 263.5847,-111.3638 305.5014,-100.2042"/>
<polygon fill="#191970" stroke="#191970" points="306.6011,-103.5334 315.364,-97.5784 304.8001,-96.769 306.6011,-103.5334"/>
</g>
<!-- Node27 -->
<g id="node28" class="node">
<title>Node27</title>
<g id="a_node28"><a xlink:href="../../d2/d45/GPUCommonRtypes_8h.html" target="_top" xlink:title="GPUCommonRtypes.h">
<polygon fill="none" stroke="#000000" points="599.5,-196 599.5,-215 724.5,-215 724.5,-196 599.5,-196"/>
<text text-anchor="middle" x="662" y="-203" font-family="Helvetica,sans-Serif" font-size="10.00" fill="#000000">GPUCommonRtypes.h</text>
</a>
</g>
</g>
<!-- Node26&#45;&gt;Node27 -->
<g id="edge29" class="edge">
<title>Node26&#45;&gt;Node27</title>
<path fill="none" stroke="#191970" d="M756.6208,-257.4639C736.243,-246.2728 708.5854,-231.0838 688.4368,-220.0186"/>
<polygon fill="#191970" stroke="#191970" points="689.9377,-216.8498 679.4877,-215.1039 686.5681,-222.9855 689.9377,-216.8498"/>
</g>
<!-- Node27&#45;&gt;Node4 -->
<g id="edge30" class="edge">
<title>Node27&#45;&gt;Node4</title>
<path fill="none" stroke="#191970" d="M650.5436,-195.8484C625.5966,-174.8314 566.1289,-124.7319 535.2898,-98.751"/>
<polygon fill="#191970" stroke="#191970" points="537.306,-95.8731 527.4032,-92.1068 532.7959,-101.2265 537.306,-95.8731"/>
</g>
<!-- Node28&#45;&gt;Node25 -->
<g id="edge34" class="edge">
<title>Node28&#45;&gt;Node25</title>
<path fill="none" stroke="#191970" d="M900.2326,-257.3824C882.4458,-247.6653 859.3893,-234.3916 840,-221 822.0658,-208.6135 820.2235,-201.9568 802,-190 783.4721,-177.8434 761.3421,-166.3935 743.7845,-157.9578"/>
<polygon fill="#191970" stroke="#191970" points="745.0894,-154.7034 734.5526,-153.5961 742.0991,-161.0326 745.0894,-154.7034"/>
</g>
<!-- Node28&#45;&gt;Node27 -->
<g id="edge32" class="edge">
<title>Node28&#45;&gt;Node27</title>
<path fill="none" stroke="#191970" d="M869.08,-257.4639C820.9091,-245.3761 754.1509,-228.624 709.5909,-217.4423"/>
<polygon fill="#191970" stroke="#191970" points="710.4305,-214.0445 699.8793,-215.0053 708.7267,-220.834 710.4305,-214.0445"/>
</g>
<!-- Node29 -->
<g id="node30" class="node">
<title>Node29</title>
<polygon fill="none" stroke="#bfbfbf" points="743,-196 743,-215 793,-215 793,-196 743,-196"/>
<text text-anchor="middle" x="768" y="-203" font-family="Helvetica,sans-Serif" font-size="10.00" fill="#000000">cstdint</text>
</g>
<!-- Node28&#45;&gt;Node29 -->
<g id="edge33" class="edge">
<title>Node28&#45;&gt;Node29</title>
<path fill="none" stroke="#191970" d="M892.8685,-257.4639C865.1246,-245.9183 827.1557,-230.1176 800.3918,-218.9798"/>
<polygon fill="#191970" stroke="#191970" points="801.6553,-215.7147 791.0781,-215.1039 798.9658,-222.1774 801.6553,-215.7147"/>
</g>
<!-- Node30 -->
<g id="node31" class="node">
<title>Node30</title>
<polygon fill="none" stroke="#bfbfbf" points="1251.5,-196 1251.5,-215 1316.5,-215 1316.5,-196 1251.5,-196"/>
<text text-anchor="middle" x="1284" y="-203" font-family="Helvetica,sans-Serif" font-size="10.00" fill="#000000">stdexcept</text>
</g>
<!-- Node28&#45;&gt;Node30 -->
<g id="edge35" class="edge">
<title>Node28&#45;&gt;Node30</title>
<path fill="none" stroke="#191970" d="M992.6566,-258.7476C995.8126,-258.14 998.9402,-257.5538 1002,-257 1108.1356,-237.7901 1137.5256,-247.812 1242,-221 1244.9902,-220.2326 1248.0635,-219.3302 1251.1223,-218.3532"/>
<polygon fill="#191970" stroke="#191970" points="1252.4042,-221.6136 1260.7227,-215.0522 1250.1281,-214.994 1252.4042,-221.6136"/>
</g>
<!-- Node31 -->
<g id="node32" class="node">
<title>Node31</title>
<polygon fill="none" stroke="#bfbfbf" points="849,-196 849,-215 897,-215 897,-196 849,-196"/>
<text text-anchor="middle" x="873" y="-203" font-family="Helvetica,sans-Serif" font-size="10.00" fill="#000000">gsl/gsl</text>
</g>
<!-- Node28&#45;&gt;Node31 -->
<g id="edge36" class="edge">
<title>Node28&#45;&gt;Node31</title>
<path fill="none" stroke="#191970" d="M916.2927,-257.2967C907.7371,-247.0605 896.4335,-233.5366 887.5221,-222.8746"/>
<polygon fill="#191970" stroke="#191970" points="890.0849,-220.4832 880.9862,-215.055 884.7139,-224.9724 890.0849,-220.4832"/>
</g>
<!-- Node32 -->
<g id="node33" class="node">
<title>Node32</title>
<polygon fill="none" stroke="#bfbfbf" points="915.5,-196 915.5,-215 984.5,-215 984.5,-196 915.5,-196"/>
<text text-anchor="middle" x="950" y="-203" font-family="Helvetica,sans-Serif" font-size="10.00" fill="#000000">type_traits</text>
</g>
<!-- Node28&#45;&gt;Node32 -->
<g id="edge37" class="edge">
<title>Node28&#45;&gt;Node32</title>
<path fill="none" stroke="#191970" d="M933.7652,-257.2967C936.783,-247.6685 940.7124,-235.1318 943.9496,-224.8038"/>
<polygon fill="#191970" stroke="#191970" points="947.354,-225.6441 947.0052,-215.055 940.6744,-223.5504 947.354,-225.6441"/>
</g>
<!-- Node33 -->
<g id="node34" class="node">
<title>Node33</title>
<polygon fill="none" stroke="#bfbfbf" points="1003,-196 1003,-215 1053,-215 1053,-196 1003,-196"/>
<text text-anchor="middle" x="1028" y="-203" font-family="Helvetica,sans-Serif" font-size="10.00" fill="#000000">cstring</text>
</g>
<!-- Node28&#45;&gt;Node33 -->
<g id="edge38" class="edge">
<title>Node28&#45;&gt;Node33</title>
<path fill="none" stroke="#191970" d="M951.4646,-257.2967C967.6381,-246.351 989.3661,-231.6462 1005.5388,-220.701"/>
<polygon fill="#191970" stroke="#191970" points="1007.5614,-223.5584 1013.8815,-215.055 1003.6381,-217.7612 1007.5614,-223.5584"/>
</g>
<!-- Node34 -->
<g id="node35" class="node">
<title>Node34</title>
<polygon fill="none" stroke="#bfbfbf" points="1175,-196 1175,-215 1233,-215 1233,-196 1175,-196"/>
<text text-anchor="middle" x="1204" y="-203" font-family="Helvetica,sans-Serif" font-size="10.00" fill="#000000">memory</text>
</g>
<!-- Node28&#45;&gt;Node34 -->
<g id="edge39" class="edge">
<title>Node28&#45;&gt;Node34</title>
<path fill="none" stroke="#191970" d="M990.7154,-257.4639C1044.1574,-244.4435 1119.8116,-226.0114 1165.1781,-214.9584"/>
<polygon fill="#191970" stroke="#191970" points="1166.0417,-218.3505 1174.9289,-212.5828 1164.3846,-211.5494 1166.0417,-218.3505"/>
</g>
<!-- Node35 -->
<g id="node36" class="node">
<title>Node35</title>
<polygon fill="none" stroke="#bfbfbf" points="1071.5,-196 1071.5,-215 1118.5,-215 1118.5,-196 1071.5,-196"/>
<text text-anchor="middle" x="1095" y="-203" font-family="Helvetica,sans-Serif" font-size="10.00" fill="#000000">vector</text>
</g>
<!-- Node28&#45;&gt;Node35 -->
<g id="edge40" class="edge">
<title>Node28&#45;&gt;Node35</title>
<path fill="none" stroke="#191970" d="M970.0436,-257.4515C996.4848,-247.5498 1031.4951,-234.0513 1062,-221 1063.3457,-220.4242 1064.7176,-219.826 1066.1,-219.2141"/>
<polygon fill="#191970" stroke="#191970" points="1067.5554,-222.3972 1075.2078,-215.0696 1064.6562,-216.0258 1067.5554,-222.3972"/>
</g>
<!-- Node36&#45;&gt;Node8 -->
<g id="edge45" class="edge">
<title>Node36&#45;&gt;Node8</title>
<path fill="none" stroke="#191970" d="M1097.4533,-262.98C1115.3459,-246.9552 1146.099,-213.9943 1128,-190 1116.6307,-174.9273 1075.3497,-163.3076 1037.438,-155.5172"/>
<polygon fill="#191970" stroke="#191970" points="1037.869,-152.0346 1027.3789,-153.5208 1036.5062,-158.9007 1037.869,-152.0346"/>
</g>
<!-- Node36&#45;&gt;Node35 -->
<g id="edge43" class="edge">
<title>Node36&#45;&gt;Node35</title>
<path fill="none" stroke="#191970" d="M1087.2895,-262.9005C1088.5994,-253.149 1090.6666,-237.7597 1092.331,-225.3695"/>
<polygon fill="#191970" stroke="#191970" points="1095.8503,-225.4586 1093.7129,-215.0817 1088.9127,-224.5266 1095.8503,-225.4586"/>
</g>
<!-- Node37 -->
<g id="node38" class="node">
<title>Node37</title>
<polygon fill="none" stroke="#bfbfbf" points="1418,-196 1418,-215 1478,-215 1478,-196 1418,-196"/>
<text text-anchor="middle" x="1448" y="-203" font-family="Helvetica,sans-Serif" font-size="10.00" fill="#000000">iostream</text>
</g>
<!-- Node36&#45;&gt;Node37 -->
<g id="edge44" class="edge">
<title>Node36&#45;&gt;Node37</title>
<path fill="none" stroke="#191970" d="M1136.7461,-262.9869C1148.0126,-260.9473 1159.903,-258.8506 1171,-257 1276.5237,-239.4021 1305.7313,-248.9376 1409,-221 1411.6133,-220.293 1414.2895,-219.4648 1416.9554,-218.5653"/>
<polygon fill="#191970" stroke="#191970" points="1418.2526,-221.8175 1426.4337,-215.0855 1415.8401,-215.2464 1418.2526,-221.8175"/>
</g>
<!-- Node38&#45;&gt;Node37 -->
<g id="edge47" class="edge">
<title>Node38&#45;&gt;Node37</title>
<path fill="none" stroke="#191970" d="M1407.2143,-329.7313C1419.8827,-320.6362 1437.0828,-305.822 1445,-288 1453.878,-268.0151 1453.2389,-242.5464 1451.2736,-225.2298"/>
<polygon fill="#191970" stroke="#191970" points="1454.7186,-224.5912 1449.8773,-215.1672 1447.7851,-225.5533 1454.7186,-224.5912"/>
</g>
<!-- Node40 -->
<g id="node41" class="node">
<title>Node40</title>
<g id="a_node41"><a xlink:href="../../df/db6/CathodeSegmentation_8h.html" target="_top" xlink:title="MCHMappingInterface\l/CathodeSegmentation.h">
<polygon fill="none" stroke="#000000" points="1298.5,-257.5 1298.5,-287.5 1435.5,-287.5 1435.5,-257.5 1298.5,-257.5"/>
<text text-anchor="start" x="1306.5" y="-275.5" font-family="Helvetica,sans-Serif" font-size="10.00" fill="#000000">MCHMappingInterface</text>
<text text-anchor="middle" x="1367" y="-264.5" font-family="Helvetica,sans-Serif" font-size="10.00" fill="#000000">/CathodeSegmentation.h</text>
</a>
</g>
</g>
<!-- Node39&#45;&gt;Node40 -->
<g id="edge49" class="edge">
<title>Node39&#45;&gt;Node40</title>
<path fill="none" stroke="#191970" d="M1257.6432,-324.4639C1277.7299,-314.9191 1303.9367,-302.4663 1325.6597,-292.144"/>
<polygon fill="#191970" stroke="#191970" points="1327.4446,-295.1709 1334.9746,-287.7177 1324.4403,-288.8484 1327.4446,-295.1709"/>
</g>
<!-- Node44 -->
<g id="node45" class="node">
<title>Node44</title>
<g id="a_node45"><a xlink:href="../../d0/d5f/Segmentation_8inl.html" target="_top" xlink:title="Segmentation.inl">
<polygon fill="none" stroke="#000000" points="1180,-263 1180,-282 1280,-282 1280,-263 1180,-263"/>
<text text-anchor="middle" x="1230" y="-270" font-family="Helvetica,sans-Serif" font-size="10.00" fill="#000000">Segmentation.inl</text>
</a>
</g>
</g>
<!-- Node39&#45;&gt;Node44 -->
<g id="edge57" class="edge">
<title>Node39&#45;&gt;Node44</title>
<path fill="none" stroke="#191970" d="M1226.9077,-324.2967C1227.4764,-314.7699 1228.2152,-302.3954 1228.828,-292.1306"/>
<polygon fill="#191970" stroke="#191970" points="1232.3273,-292.2458 1229.4296,-282.055 1225.3397,-291.8286 1232.3273,-292.2458"/>
</g>
<!-- Node40&#45;&gt;Node30 -->
<g id="edge51" class="edge">
<title>Node40&#45;&gt;Node30</title>
<path fill="none" stroke="#191970" d="M1348.166,-257.2967C1334.9831,-246.6551 1317.3985,-232.4602 1303.9716,-221.6217"/>
<polygon fill="#191970" stroke="#191970" points="1305.8164,-218.6128 1295.8368,-215.055 1301.4195,-224.0596 1305.8164,-218.6128"/>
</g>
<!-- Node40&#45;&gt;Node34 -->
<g id="edge52" class="edge">
<title>Node40&#45;&gt;Node34</title>
<path fill="none" stroke="#191970" d="M1330.4196,-257.4639C1302.3311,-245.9183 1263.8906,-230.1176 1236.7942,-218.9798"/>
<polygon fill="#191970" stroke="#191970" points="1237.9445,-215.6686 1227.3648,-215.1039 1235.2833,-222.143 1237.9445,-215.6686"/>
</g>
<!-- Node40&#45;&gt;Node35 -->
<g id="edge54" class="edge">
<title>Node40&#45;&gt;Node35</title>
<path fill="none" stroke="#191970" d="M1305.9579,-257.4639C1251.1459,-243.9624 1172.7106,-224.6419 1128.55,-213.7642"/>
<polygon fill="#191970" stroke="#191970" points="1129.1667,-210.3115 1118.6198,-211.3181 1127.4925,-217.1084 1129.1667,-210.3115"/>
</g>
<!-- Node40&#45;&gt;Node37 -->
<g id="edge53" class="edge">
<title>Node40&#45;&gt;Node37</title>
<path fill="none" stroke="#191970" d="M1385.3802,-257.2967C1398.2454,-246.6551 1415.4063,-232.4602 1428.5096,-221.6217"/>
<polygon fill="#191970" stroke="#191970" points="1430.9737,-224.1257 1436.4485,-215.055 1426.5121,-218.7318 1430.9737,-224.1257"/>
</g>
<!-- Node41 -->
<g id="node42" class="node">
<title>Node41</title>
<g id="a_node42"><a xlink:href="../../d0/dc7/CathodeSegmentationCInterface_8h.html" target="_top" xlink:title="CathodeSegmentationCInterface.h">
<polygon fill="none" stroke="#000000" points="1496.5,-196 1496.5,-215 1681.5,-215 1681.5,-196 1496.5,-196"/>
<text text-anchor="middle" x="1589" y="-203" font-family="Helvetica,sans-Serif" font-size="10.00" fill="#000000">CathodeSegmentationCInterface.h</text>
</a>
</g>
</g>
<!-- Node40&#45;&gt;Node41 -->
<g id="edge50" class="edge">
<title>Node40&#45;&gt;Node41</title>
<path fill="none" stroke="#191970" d="M1416.8211,-257.4639C1456.2002,-245.5792 1510.5188,-229.1858 1547.5465,-218.0108"/>
<polygon fill="#191970" stroke="#191970" points="1548.9426,-221.2454 1557.5049,-215.0053 1546.9201,-214.5439 1548.9426,-221.2454"/>
</g>
<!-- Node40&#45;&gt;Node42 -->
<g id="edge55" class="edge">
<title>Node40&#45;&gt;Node42</title>
<path fill="none" stroke="#191970" d="M1435.6268,-263.6073C1501.4577,-254.6025 1603.4928,-239.4018 1691,-221 1695.9893,-219.9508 1701.1885,-218.7481 1706.3422,-217.4867"/>
<polygon fill="#191970" stroke="#191970" points="1707.2921,-220.8568 1716.13,-215.0136 1705.5772,-214.0701 1707.2921,-220.8568"/>
</g>
<!-- Node43 -->
<g id="node44" class="node">
<title>Node43</title>
<polygon fill="none" stroke="#bfbfbf" points="1334.5,-196 1334.5,-215 1399.5,-215 1399.5,-196 1334.5,-196"/>
<text text-anchor="middle" x="1367" y="-203" font-family="Helvetica,sans-Serif" font-size="10.00" fill="#000000">functional</text>
</g>
<!-- Node40&#45;&gt;Node43 -->
<g id="edge56" class="edge">
<title>Node40&#45;&gt;Node43</title>
<path fill="none" stroke="#191970" d="M1367,-257.2967C1367,-247.7699 1367,-235.3954 1367,-225.1306"/>
<polygon fill="#191970" stroke="#191970" points="1370.5001,-225.0549 1367,-215.055 1363.5001,-225.055 1370.5001,-225.0549"/>
</g>
</g>
</svg>
