<?xml version="1.0" encoding="UTF-8" standalone="no"?>
<!DOCTYPE svg PUBLIC "-//W3C//DTD SVG 1.1//EN"
 "http://www.w3.org/Graphics/SVG/1.1/DTD/svg11.dtd">
<!-- Generated by graphviz version 2.40.1 (20161225.0304)
 -->
<!-- Title: /home/travis/build/AliceO2Group/AliceO2/Detectors/MUON/MCH/PreClustering/src/PreClusterFinderMapping.h Pages: 1 -->
<svg width="715pt" height="251pt"
 viewBox="0.00 0.00 714.50 251.00" xmlns="http://www.w3.org/2000/svg" xmlns:xlink="http://www.w3.org/1999/xlink">
<g id="graph0" class="graph" transform="scale(1 1) rotate(0) translate(4 247)">
<title>/home/travis/build/AliceO2Group/AliceO2/Detectors/MUON/MCH/PreClustering/src/PreClusterFinderMapping.h</title>
<!-- Node0 -->
<g id="node1" class="node">
<title>Node0</title>
<polygon fill="#bfbfbf" stroke="#000000" points="0,-190.5 0,-242.5 194,-242.5 194,-190.5 0,-190.5"/>
<text text-anchor="start" x="8" y="-230.5" font-family="Helvetica,sans-Serif" font-size="10.00" fill="#000000">/home/travis/build</text>
<text text-anchor="start" x="8" y="-219.5" font-family="Helvetica,sans-Serif" font-size="10.00" fill="#000000">/AliceO2Group/AliceO2</text>
<text text-anchor="start" x="8" y="-208.5" font-family="Helvetica,sans-Serif" font-size="10.00" fill="#000000">/Detectors/MUON/MCH/PreClustering</text>
<text text-anchor="middle" x="97" y="-197.5" font-family="Helvetica,sans-Serif" font-size="10.00" fill="#000000">/src/PreClusterFinderMapping.h</text>
</g>
<!-- Node1 -->
<g id="node2" class="node">
<title>Node1</title>
<polygon fill="none" stroke="#bfbfbf" points="0,-129 0,-148 50,-148 50,-129 0,-129"/>
<text text-anchor="middle" x="25" y="-136" font-family="Helvetica,sans-Serif" font-size="10.00" fill="#000000">cstdint</text>
</g>
<!-- Node0&#45;&gt;Node1 -->
<g id="edge1" class="edge">
<title>Node0&#45;&gt;Node1</title>
<path fill="none" stroke="#191970" d="M72.6241,-190.0928C62.0655,-178.6543 50.0124,-165.5968 40.6737,-155.4799"/>
<polygon fill="#191970" stroke="#191970" points="43.2013,-153.0579 33.8466,-148.0839 38.0577,-157.8059 43.2013,-153.0579"/>
</g>
<!-- Node2 -->
<g id="node3" class="node">
<title>Node2</title>
<polygon fill="none" stroke="#bfbfbf" points="16,-.5 16,-19.5 74,-19.5 74,-.5 16,-.5"/>
<text text-anchor="middle" x="45" y="-7.5" font-family="Helvetica,sans-Serif" font-size="10.00" fill="#000000">memory</text>
</g>
<!-- Node0&#45;&gt;Node2 -->
<g id="edge2" class="edge">
<title>Node0&#45;&gt;Node2</title>
<path fill="none" stroke="#191970" d="M90.4142,-190.3466C79.8634,-148.4481 59.4032,-67.1973 49.9762,-29.7614"/>
<polygon fill="#191970" stroke="#191970" points="53.2641,-28.4847 47.428,-19.6421 46.476,-30.1941 53.2641,-28.4847"/>
</g>
<!-- Node3 -->
<g id="node4" class="node">
<title>Node3</title>
<polygon fill="none" stroke="#bfbfbf" points="92.5,-.5 92.5,-19.5 139.5,-19.5 139.5,-.5 92.5,-.5"/>
<text text-anchor="middle" x="116" y="-7.5" font-family="Helvetica,sans-Serif" font-size="10.00" fill="#000000">vector</text>
</g>
<!-- Node0&#45;&gt;Node3 -->
<g id="edge3" class="edge">
<title>Node0&#45;&gt;Node3</title>
<path fill="none" stroke="#191970" d="M99.4064,-190.3466C103.2614,-148.4481 110.7373,-67.1973 114.1818,-29.7614"/>
<polygon fill="#191970" stroke="#191970" points="117.6818,-29.9208 115.1128,-19.6421 110.7112,-29.2794 117.6818,-29.9208"/>
</g>
<!-- Node4 -->
<g id="node5" class="node">
<title>Node4</title>
<g id="a_node5"><a xlink:href="../../d6/d1f/MUON_2MCH_2Mapping_2Interface_2include_2MCHMappingInterface_2Segmentation_8h.html" target="_top" xlink:title="MCHMappingInterface\l/Segmentation.h">
<polygon fill="none" stroke="#000000" points="180,-123.5 180,-153.5 304,-153.5 304,-123.5 180,-123.5"/>
<text text-anchor="start" x="188" y="-141.5" font-family="Helvetica,sans-Serif" font-size="10.00" fill="#000000">MCHMappingInterface</text>
<text text-anchor="middle" x="242" y="-130.5" font-family="Helvetica,sans-Serif" font-size="10.00" fill="#000000">/Segmentation.h</text>
</a>
</g>
</g>
<!-- Node0&#45;&gt;Node4 -->
<g id="edge4" class="edge">
<title>Node0&#45;&gt;Node4</title>
<path fill="none" stroke="#191970" d="M145.6863,-190.3101C165.0231,-179.9083 186.9025,-168.1387 204.9154,-158.449"/>
<polygon fill="#191970" stroke="#191970" points="206.8,-161.4095 213.9486,-153.5897 203.4838,-155.2448 206.8,-161.4095"/>
</g>
<!-- Node5 -->
<g id="node6" class="node">
<title>Node5</title>
<g id="a_node6"><a xlink:href="../../df/db6/CathodeSegmentation_8h.html" target="_top" xlink:title="MCHMappingInterface\l/CathodeSegmentation.h">
<polygon fill="none" stroke="#000000" points="173.5,-56.5 173.5,-86.5 310.5,-86.5 310.5,-56.5 173.5,-56.5"/>
<text text-anchor="start" x="181.5" y="-74.5" font-family="Helvetica,sans-Serif" font-size="10.00" fill="#000000">MCHMappingInterface</text>
<text text-anchor="middle" x="242" y="-63.5" font-family="Helvetica,sans-Serif" font-size="10.00" fill="#000000">/CathodeSegmentation.h</text>
</a>
</g>
</g>
<!-- Node4&#45;&gt;Node5 -->
<g id="edge5" class="edge">
<title>Node4&#45;&gt;Node5</title>
<path fill="none" stroke="#191970" d="M242,-123.2967C242,-115.5013 242,-105.7991 242,-96.9064"/>
<polygon fill="#191970" stroke="#191970" points="245.5001,-96.6431 242,-86.6432 238.5001,-96.6432 245.5001,-96.6431"/>
</g>
<!-- Node11 -->
<g id="node12" class="node">
<title>Node11</title>
<g id="a_node12"><a xlink:href="../../d0/d5f/Segmentation_8inl.html" target="_top" xlink:title="Segmentation.inl">
<polygon fill="none" stroke="#000000" points="329,-62 329,-81 429,-81 429,-62 329,-62"/>
<text text-anchor="middle" x="379" y="-69" font-family="Helvetica,sans-Serif" font-size="10.00" fill="#000000">Segmentation.inl</text>
</a>
</g>
</g>
<!-- Node4&#45;&gt;Node11 -->
<g id="edge13" class="edge">
<title>Node4&#45;&gt;Node11</title>
<path fill="none" stroke="#191970" d="M272.7455,-123.4639C295.9394,-112.1209 327.5316,-96.6707 350.2294,-85.5703"/>
<polygon fill="#191970" stroke="#191970" points="351.9165,-88.6414 359.3621,-81.1039 348.8412,-82.3531 351.9165,-88.6414"/>
</g>
<!-- Node5&#45;&gt;Node2 -->
<g id="edge8" class="edge">
<title>Node5&#45;&gt;Node2</title>
<path fill="none" stroke="#191970" d="M193.8084,-56.4554C159.992,-45.8985 115.3617,-31.9657 83.8269,-22.1211"/>
<polygon fill="#191970" stroke="#191970" points="84.6675,-18.717 74.0788,-19.0779 82.5814,-25.3989 84.6675,-18.717"/>
</g>
<!-- Node5&#45;&gt;Node3 -->
<g id="edge10" class="edge">
<title>Node5&#45;&gt;Node3</title>
<path fill="none" stroke="#191970" d="M211.1769,-56.4554C190.8912,-46.554 164.5212,-33.683 144.6838,-24.0004"/>
<polygon fill="#191970" stroke="#191970" points="146.0474,-20.7714 135.5255,-19.5303 142.977,-27.062 146.0474,-20.7714"/>
</g>
<!-- Node6 -->
<g id="node7" class="node">
<title>Node6</title>
<g id="a_node7"><a xlink:href="../../d0/dc7/CathodeSegmentationCInterface_8h.html" target="_top" xlink:title="CathodeSegmentationCInterface.h">
<polygon fill="none" stroke="#000000" points="521.5,-.5 521.5,-19.5 706.5,-19.5 706.5,-.5 521.5,-.5"/>
<text text-anchor="middle" x="614" y="-7.5" font-family="Helvetica,sans-Serif" font-size="10.00" fill="#000000">CathodeSegmentationCInterface.h</text>
</a>
</g>
</g>
<!-- Node5&#45;&gt;Node6 -->
<g id="edge6" class="edge">
<title>Node5&#45;&gt;Node6</title>
<path fill="none" stroke="#191970" d="M310.8747,-57.6544C313.9566,-57.085 317.0093,-56.5309 320,-56 393.9316,-42.8761 478.6803,-29.827 538.133,-20.998"/>
<polygon fill="#191970" stroke="#191970" points="538.8108,-24.4359 548.1903,-19.5088 537.7854,-17.5113 538.8108,-24.4359"/>
</g>
<!-- Node7 -->
<g id="node8" class="node">
<title>Node7</title>
<polygon fill="none" stroke="#bfbfbf" points="157.5,-.5 157.5,-19.5 222.5,-19.5 222.5,-.5 157.5,-.5"/>
<text text-anchor="middle" x="190" y="-7.5" font-family="Helvetica,sans-Serif" font-size="10.00" fill="#000000">stdexcept</text>
</g>
<!-- Node5&#45;&gt;Node7 -->
<g id="edge7" class="edge">
<title>Node5&#45;&gt;Node7</title>
<path fill="none" stroke="#191970" d="M229.1461,-56.2977C221.7776,-47.5831 212.4974,-36.6075 204.8223,-27.5302"/>
<polygon fill="#191970" stroke="#191970" points="207.4552,-25.2233 198.3259,-19.8469 202.1098,-29.743 207.4552,-25.2233"/>
</g>
<!-- Node8 -->
<g id="node9" class="node">
<title>Node8</title>
<polygon fill="none" stroke="#bfbfbf" points="241,-.5 241,-19.5 301,-19.5 301,-.5 241,-.5"/>
<text text-anchor="middle" x="271" y="-7.5" font-family="Helvetica,sans-Serif" font-size="10.00" fill="#000000">iostream</text>
</g>
<!-- Node5&#45;&gt;Node8 -->
<g id="edge9" class="edge">
<title>Node5&#45;&gt;Node8</title>
<path fill="none" stroke="#191970" d="M249.1685,-56.2977C253.0682,-48.0277 257.928,-37.7215 262.0718,-28.9339"/>
<polygon fill="#191970" stroke="#191970" points="265.2573,-30.3846 266.3567,-19.8469 258.9259,-27.399 265.2573,-30.3846"/>
</g>
<!-- Node9 -->
<g id="node10" class="node">
<title>Node9</title>
<polygon fill="none" stroke="#bfbfbf" points="319.5,-.5 319.5,-19.5 420.5,-19.5 420.5,-.5 319.5,-.5"/>
<text text-anchor="middle" x="370" y="-7.5" font-family="Helvetica,sans-Serif" font-size="10.00" fill="#000000">boost/format.hpp</text>
</g>
<!-- Node5&#45;&gt;Node9 -->
<g id="edge11" class="edge">
<title>Node5&#45;&gt;Node9</title>
<path fill="none" stroke="#191970" d="M273.3123,-56.4554C294.0138,-46.509 320.9523,-33.5659 341.1353,-23.8686"/>
<polygon fill="#191970" stroke="#191970" points="342.6667,-27.0159 350.1645,-19.5303 339.6352,-20.7064 342.6667,-27.0159"/>
</g>
<!-- Node10 -->
<g id="node11" class="node">
<title>Node10</title>
<polygon fill="none" stroke="#bfbfbf" points="438.5,-.5 438.5,-19.5 503.5,-19.5 503.5,-.5 438.5,-.5"/>
<text text-anchor="middle" x="471" y="-7.5" font-family="Helvetica,sans-Serif" font-size="10.00" fill="#000000">functional</text>
</g>
<!-- Node5&#45;&gt;Node10 -->
<g id="edge12" class="edge">
<title>Node5&#45;&gt;Node10</title>
<path fill="none" stroke="#191970" d="M298.0197,-56.4554C338.2027,-45.6639 391.5211,-31.3448 428.2873,-21.4709"/>
<polygon fill="#191970" stroke="#191970" points="429.4437,-24.7844 438.1937,-18.8104 427.6281,-18.024 429.4437,-24.7844"/>
</g>
</g>
</svg>
