<?xml version="1.0" encoding="UTF-8" standalone="no"?>
<!DOCTYPE svg PUBLIC "-//W3C//DTD SVG 1.1//EN"
 "http://www.w3.org/Graphics/SVG/1.1/DTD/svg11.dtd">
<!-- Generated by graphviz version 2.40.1 (20161225.0304)
 -->
<!-- Title: /home/travis/build/AliceO2Group/AliceO2/DataFormats/Reconstruction/include/ReconstructionDataFormats/Vertex.h Pages: 1 -->
<!--zoomable 461 -->
<svg id="main" version="1.1" xmlns="http://www.w3.org/2000/svg" xmlns:xlink="http://www.w3.org/1999/xlink" xml:space="preserve" onload="init(evt)">
<style type="text/css"><![CDATA[
.edge:hover path { stroke: red; }
.edge:hover polygon { stroke: red; fill: red; }
]]></style>
<script type="text/javascript"><![CDATA[
var edges = document.getElementsByTagName('g');
if (edges && edges.length) {
  for (var i=0;i<edges.length;i++) {
    if (edges[i].id.substr(0,4)=='edge') {
      edges[i].setAttribute('class','edge');
    }
  }
}
]]></script>
        <defs>
                <circle id="rim" cx="0" cy="0" r="7"/>
                <circle id="rim2" cx="0" cy="0" r="3.5"/>
                <g id="zoomPlus">
                        <use xlink:href="#rim" fill="#404040">
                                <set attributeName="fill" to="#808080" begin="zoomplus.mouseover" end="zoomplus.mouseout"/>
                        </use>
                        <path d="M-4,0h8M0,-4v8" fill="none" stroke="white" stroke-width="1.5" pointer-events="none"/>
                </g>
                <g id="zoomMin">
                        <use xlink:href="#rim" fill="#404040">
                                <set attributeName="fill" to="#808080" begin="zoomminus.mouseover" end="zoomminus.mouseout"/>
                        </use>
                        <path d="M-4,0h8" fill="none" stroke="white" stroke-width="1.5" pointer-events="none"/>
                </g>
                <g id="dirArrow">
                        <path fill="none" stroke="white" stroke-width="1.5" d="M0,-3.0v7 M-2.5,-0.5L0,-3.0L2.5,-0.5"/>
                </g>
               <g id="resetDef">
                       <use xlink:href="#rim2" fill="#404040">
                               <set attributeName="fill" to="#808080" begin="reset.mouseover" end="reset.mouseout"/>
                       </use>
               </g>
        </defs>

<script type="text/javascript">
var viewWidth = 2214;
var viewHeight = 461;
var sectionId = 'dynsection-1';
</script>
<script xlink:href="../../svgpan.js"/>
<svg id="graph" class="graph">
<g id="viewport">
<title>/home/travis/build/AliceO2Group/AliceO2/DataFormats/Reconstruction/include/ReconstructionDataFormats/Vertex.h</title>
<!-- Node18 -->
<g id="node1" class="node">
<title>Node18</title>
<polygon fill="#bfbfbf" stroke="#000000" points="748,-389.5 748,-452.5 941,-452.5 941,-389.5 748,-389.5"/>
<text text-anchor="start" x="756" y="-440.5" font-family="Helvetica,sans-Serif" font-size="10.00" fill="#000000">/home/travis/build</text>
<text text-anchor="start" x="756" y="-429.5" font-family="Helvetica,sans-Serif" font-size="10.00" fill="#000000">/AliceO2Group/AliceO2</text>
<text text-anchor="start" x="756" y="-418.5" font-family="Helvetica,sans-Serif" font-size="10.00" fill="#000000">/DataFormats/Reconstruction</text>
<text text-anchor="start" x="756" y="-407.5" font-family="Helvetica,sans-Serif" font-size="10.00" fill="#000000">/include/ReconstructionDataFormats</text>
<text text-anchor="middle" x="844.5" y="-396.5" font-family="Helvetica,sans-Serif" font-size="10.00" fill="#000000">/Vertex.h</text>
</g>
<!-- Node19 -->
<g id="node2" class="node">
<title>Node19</title>
<g id="a_node2"><a xlink:href="../../de/d6a/DataFormats_2Reconstruction_2src_2Vertex_8cxx.html" target="_top" xlink:title="/home/travis/build\l/AliceO2Group/AliceO2\l/DataFormats/Reconstruction\l/src/Vertex.cxx">
<polygon fill="none" stroke="#000000" points="221.5,-295 221.5,-347 379.5,-347 379.5,-295 221.5,-295"/>
<text text-anchor="start" x="229.5" y="-335" font-family="Helvetica,sans-Serif" font-size="10.00" fill="#000000">/home/travis/build</text>
<text text-anchor="start" x="229.5" y="-324" font-family="Helvetica,sans-Serif" font-size="10.00" fill="#000000">/AliceO2Group/AliceO2</text>
<text text-anchor="start" x="229.5" y="-313" font-family="Helvetica,sans-Serif" font-size="10.00" fill="#000000">/DataFormats/Reconstruction</text>
<text text-anchor="middle" x="300.5" y="-302" font-family="Helvetica,sans-Serif" font-size="10.00" fill="#000000">/src/Vertex.cxx</text>
</a>
</g>
</g>
<!-- Node18&#45;&gt;Node19 -->
<g id="edge1" class="edge">
<title>Node18&#45;&gt;Node19</title>
<path fill="none" stroke="#191970" d="M737.7502,-411.2053C644.568,-401.2086 506.2137,-382.8569 388.5,-353 381.7242,-351.2814 374.7419,-349.2373 367.8136,-347.0256"/>
<polygon fill="#191970" stroke="#191970" points="737.4399,-414.6919 747.753,-412.2649 738.1774,-407.7309 737.4399,-414.6919"/>
</g>
<!-- Node20 -->
<g id="node3" class="node">
<title>Node20</title>
<g id="a_node3"><a xlink:href="../../db/d23/testVertex_8cxx.html" target="_top" xlink:title="/home/travis/build\l/AliceO2Group/AliceO2\l/DataFormats/Reconstruction\l/test/testVertex.cxx">
<polygon fill="none" stroke="#000000" points="397.5,-295 397.5,-347 555.5,-347 555.5,-295 397.5,-295"/>
<text text-anchor="start" x="405.5" y="-335" font-family="Helvetica,sans-Serif" font-size="10.00" fill="#000000">/home/travis/build</text>
<text text-anchor="start" x="405.5" y="-324" font-family="Helvetica,sans-Serif" font-size="10.00" fill="#000000">/AliceO2Group/AliceO2</text>
<text text-anchor="start" x="405.5" y="-313" font-family="Helvetica,sans-Serif" font-size="10.00" fill="#000000">/DataFormats/Reconstruction</text>
<text text-anchor="middle" x="476.5" y="-302" font-family="Helvetica,sans-Serif" font-size="10.00" fill="#000000">/test/testVertex.cxx</text>
</a>
</g>
</g>
<!-- Node18&#45;&gt;Node20 -->
<g id="edge2" class="edge">
<title>Node18&#45;&gt;Node20</title>
<path fill="none" stroke="#191970" d="M737.8802,-398.025C685.3102,-385.9586 621.1818,-370.1313 564.5,-353 558.4311,-351.1657 552.1689,-349.1477 545.9133,-347.0444"/>
<polygon fill="#191970" stroke="#191970" points="737.3672,-401.4979 747.8953,-400.3105 738.9247,-394.6733 737.3672,-401.4979"/>
</g>
<!-- Node21 -->
<g id="node4" class="node">
<title>Node21</title>
<g id="a_node4"><a xlink:href="../../d6/d0c/CookedTracker_8h.html" target="_top" xlink:title="Definition of the &quot;Cooked Matrix&quot; ITS tracker. ">
<polygon fill="none" stroke="#000000" points="573.5,-289.5 573.5,-352.5 763.5,-352.5 763.5,-289.5 573.5,-289.5"/>
<text text-anchor="start" x="581.5" y="-340.5" font-family="Helvetica,sans-Serif" font-size="10.00" fill="#000000">/home/travis/build</text>
<text text-anchor="start" x="581.5" y="-329.5" font-family="Helvetica,sans-Serif" font-size="10.00" fill="#000000">/AliceO2Group/AliceO2</text>
<text text-anchor="start" x="581.5" y="-318.5" font-family="Helvetica,sans-Serif" font-size="10.00" fill="#000000">/Detectors/ITSMFT/ITS</text>
<text text-anchor="start" x="581.5" y="-307.5" font-family="Helvetica,sans-Serif" font-size="10.00" fill="#000000">/reconstruction/include</text>
<text text-anchor="middle" x="668.5" y="-296.5" font-family="Helvetica,sans-Serif" font-size="10.00" fill="#000000">/ITSReconstruction/CookedTracker.h</text>
</a>
</g>
</g>
<!-- Node18&#45;&gt;Node21 -->
<g id="edge3" class="edge">
<title>Node18&#45;&gt;Node21</title>
<path fill="none" stroke="#191970" d="M779.9547,-384.3265C761.6406,-373.9208 741.8644,-362.6843 724.1271,-352.6063"/>
<polygon fill="#191970" stroke="#191970" points="778.3889,-387.4623 788.8125,-389.3594 781.847,-381.3761 778.3889,-387.4623"/>
</g>
<!-- Node26 -->
<g id="node9" class="node">
<title>Node26</title>
<g id="a_node9"><a xlink:href="../../dc/d8d/ITS_2tracking_2include_2ITStracking_2ROframe_8h.html" target="_top" xlink:title="/home/travis/build\l/AliceO2Group/AliceO2\l/Detectors/ITSMFT/ITS\l/tracking/include/ITStracking\l/ROframe.h">
<polygon fill="none" stroke="#000000" points="820,-289.5 820,-352.5 975,-352.5 975,-289.5 820,-289.5"/>
<text text-anchor="start" x="828" y="-340.5" font-family="Helvetica,sans-Serif" font-size="10.00" fill="#000000">/home/travis/build</text>
<text text-anchor="start" x="828" y="-329.5" font-family="Helvetica,sans-Serif" font-size="10.00" fill="#000000">/AliceO2Group/AliceO2</text>
<text text-anchor="start" x="828" y="-318.5" font-family="Helvetica,sans-Serif" font-size="10.00" fill="#000000">/Detectors/ITSMFT/ITS</text>
<text text-anchor="start" x="828" y="-307.5" font-family="Helvetica,sans-Serif" font-size="10.00" fill="#000000">/tracking/include/ITStracking</text>
<text text-anchor="middle" x="897.5" y="-296.5" font-family="Helvetica,sans-Serif" font-size="10.00" fill="#000000">/ROframe.h</text>
</a>
</g>
</g>
<!-- Node18&#45;&gt;Node26 -->
<g id="edge8" class="edge">
<title>Node18&#45;&gt;Node26</title>
<path fill="none" stroke="#191970" d="M866.038,-380.3622C870.9094,-371.1709 876.0128,-361.5418 880.6576,-352.778"/>
<polygon fill="#191970" stroke="#191970" points="862.86,-378.8846 861.2695,-389.3594 869.045,-382.1627 862.86,-378.8846"/>
</g>
<!-- Node34 -->
<g id="node17" class="node">
<title>Node34</title>
<g id="a_node17"><a xlink:href="../../de/d9b/Vertexer_8h.html" target="_top" xlink:title="/home/travis/build\l/AliceO2Group/AliceO2\l/Detectors/ITSMFT/ITS\l/tracking/include/ITStracking\l/Vertexer.h">
<polygon fill="none" stroke="#000000" points="441,-189.5 441,-252.5 596,-252.5 596,-189.5 441,-189.5"/>
<text text-anchor="start" x="449" y="-240.5" font-family="Helvetica,sans-Serif" font-size="10.00" fill="#000000">/home/travis/build</text>
<text text-anchor="start" x="449" y="-229.5" font-family="Helvetica,sans-Serif" font-size="10.00" fill="#000000">/AliceO2Group/AliceO2</text>
<text text-anchor="start" x="449" y="-218.5" font-family="Helvetica,sans-Serif" font-size="10.00" fill="#000000">/Detectors/ITSMFT/ITS</text>
<text text-anchor="start" x="449" y="-207.5" font-family="Helvetica,sans-Serif" font-size="10.00" fill="#000000">/tracking/include/ITStracking</text>
<text text-anchor="middle" x="518.5" y="-196.5" font-family="Helvetica,sans-Serif" font-size="10.00" fill="#000000">/Vertexer.h</text>
</a>
</g>
</g>
<!-- Node18&#45;&gt;Node34 -->
<g id="edge29" class="edge">
<title>Node18&#45;&gt;Node34</title>
<path fill="none" stroke="#191970" d="M823.2878,-380.1943C803.5795,-342.59 776.6583,-292.1289 772.5,-289 713.5639,-244.6543 681.4508,-273.1492 610.5,-253 605.7824,-251.6603 600.953,-250.2134 596.0978,-248.7009"/>
<polygon fill="#191970" stroke="#191970" points="820.3883,-382.2025 828.1247,-389.4411 826.5909,-378.9579 820.3883,-382.2025"/>
</g>
<!-- Node39 -->
<g id="node22" class="node">
<title>Node39</title>
<g id="a_node22"><a xlink:href="../../d2/d8c/ITSMFT_2ITS_2workflow_2include_2ITSWorkflow_2TrackReaderSpec_8h.html" target="_top" xlink:title="/home/travis/build\l/AliceO2Group/AliceO2\l/Detectors/ITSMFT/ITS\l/workflow/include/ITSWorkflow\l/TrackReaderSpec.h">
<polygon fill="none" stroke="#000000" points="1303,-289.5 1303,-352.5 1468,-352.5 1468,-289.5 1303,-289.5"/>
<text text-anchor="start" x="1311" y="-340.5" font-family="Helvetica,sans-Serif" font-size="10.00" fill="#000000">/home/travis/build</text>
<text text-anchor="start" x="1311" y="-329.5" font-family="Helvetica,sans-Serif" font-size="10.00" fill="#000000">/AliceO2Group/AliceO2</text>
<text text-anchor="start" x="1311" y="-318.5" font-family="Helvetica,sans-Serif" font-size="10.00" fill="#000000">/Detectors/ITSMFT/ITS</text>
<text text-anchor="start" x="1311" y="-307.5" font-family="Helvetica,sans-Serif" font-size="10.00" fill="#000000">/workflow/include/ITSWorkflow</text>
<text text-anchor="middle" x="1385.5" y="-296.5" font-family="Helvetica,sans-Serif" font-size="10.00" fill="#000000">/TrackReaderSpec.h</text>
</a>
</g>
</g>
<!-- Node18&#45;&gt;Node39 -->
<g id="edge30" class="edge">
<title>Node18&#45;&gt;Node39</title>
<path fill="none" stroke="#191970" d="M951.3586,-401.2479C1054.5851,-382.1673 1208.7491,-353.6711 1302.8968,-336.2686"/>
<polygon fill="#191970" stroke="#191970" points="950.4172,-397.8626 941.22,-403.122 951.6896,-404.746 950.4172,-397.8626"/>
</g>
<!-- Node42 -->
<g id="node25" class="node">
<title>Node42</title>
<g id="a_node25"><a xlink:href="../../d6/d2c/VertexReaderSpec_8h.html" target="_top" xlink:title="/home/travis/build\l/AliceO2Group/AliceO2\l/Detectors/ITSMFT/ITS\l/workflow/include/ITSWorkflow\l/VertexReaderSpec.h">
<polygon fill="none" stroke="#000000" points="1486,-289.5 1486,-352.5 1651,-352.5 1651,-289.5 1486,-289.5"/>
<text text-anchor="start" x="1494" y="-340.5" font-family="Helvetica,sans-Serif" font-size="10.00" fill="#000000">/home/travis/build</text>
<text text-anchor="start" x="1494" y="-329.5" font-family="Helvetica,sans-Serif" font-size="10.00" fill="#000000">/AliceO2Group/AliceO2</text>
<text text-anchor="start" x="1494" y="-318.5" font-family="Helvetica,sans-Serif" font-size="10.00" fill="#000000">/Detectors/ITSMFT/ITS</text>
<text text-anchor="start" x="1494" y="-307.5" font-family="Helvetica,sans-Serif" font-size="10.00" fill="#000000">/workflow/include/ITSWorkflow</text>
<text text-anchor="middle" x="1568.5" y="-296.5" font-family="Helvetica,sans-Serif" font-size="10.00" fill="#000000">/VertexReaderSpec.h</text>
</a>
</g>
</g>
<!-- Node18&#45;&gt;Node42 -->
<g id="edge33" class="edge">
<title>Node18&#45;&gt;Node42</title>
<path fill="none" stroke="#191970" d="M951.177,-417.0554C1077.9983,-410.6462 1295.3959,-394.2153 1477.5,-353 1480.2768,-352.3715 1483.086,-351.6854 1485.9112,-350.9521"/>
<polygon fill="#191970" stroke="#191970" points="950.8905,-413.5652 941.0754,-417.5544 951.2359,-420.5567 950.8905,-413.5652"/>
</g>
<!-- Node44 -->
<g id="node27" class="node">
<title>Node44</title>
<g id="a_node27"><a xlink:href="../../dc/d27/ITS_2workflow_2src_2TrackWriterSpec_8cxx.html" target="_top" xlink:title="/home/travis/build\l/AliceO2Group/AliceO2\l/Detectors/ITSMFT/ITS\l/workflow/src/TrackWriterSpec.cxx">
<polygon fill="none" stroke="#000000" points="1669.5,-295 1669.5,-347 1851.5,-347 1851.5,-295 1669.5,-295"/>
<text text-anchor="start" x="1677.5" y="-335" font-family="Helvetica,sans-Serif" font-size="10.00" fill="#000000">/home/travis/build</text>
<text text-anchor="start" x="1677.5" y="-324" font-family="Helvetica,sans-Serif" font-size="10.00" fill="#000000">/AliceO2Group/AliceO2</text>
<text text-anchor="start" x="1677.5" y="-313" font-family="Helvetica,sans-Serif" font-size="10.00" fill="#000000">/Detectors/ITSMFT/ITS</text>
<text text-anchor="middle" x="1760.5" y="-302" font-family="Helvetica,sans-Serif" font-size="10.00" fill="#000000">/workflow/src/TrackWriterSpec.cxx</text>
</a>
</g>
</g>
<!-- Node18&#45;&gt;Node44 -->
<g id="edge35" class="edge">
<title>Node18&#45;&gt;Node44</title>
<path fill="none" stroke="#191970" d="M951.354,-415.1123C1140.7067,-404.176 1527.7019,-379.4252 1660.5,-353 1668.6344,-351.3814 1677.0362,-349.3272 1685.3535,-347.0435"/>
<polygon fill="#191970" stroke="#191970" points="950.8884,-411.6332 941.1059,-415.7018 951.2905,-418.6216 950.8884,-411.6332"/>
</g>
<!-- Node22 -->
<g id="node5" class="node">
<title>Node22</title>
<g id="a_node5"><a xlink:href="../../d7/dca/CookedTracker_8cxx.html" target="_top" xlink:title="Implementation of the &quot;Cooked Matrix&quot; ITS tracker. ">
<polygon fill="none" stroke="#000000" points="0,-195 0,-247 201,-247 201,-195 0,-195"/>
<text text-anchor="start" x="8" y="-235" font-family="Helvetica,sans-Serif" font-size="10.00" fill="#000000">/home/travis/build</text>
<text text-anchor="start" x="8" y="-224" font-family="Helvetica,sans-Serif" font-size="10.00" fill="#000000">/AliceO2Group/AliceO2</text>
<text text-anchor="start" x="8" y="-213" font-family="Helvetica,sans-Serif" font-size="10.00" fill="#000000">/Detectors/ITSMFT/ITS</text>
<text text-anchor="middle" x="100.5" y="-202" font-family="Helvetica,sans-Serif" font-size="10.00" fill="#000000">/reconstruction/src/CookedTracker.cxx</text>
</a>
</g>
</g>
<!-- Node21&#45;&gt;Node22 -->
<g id="edge4" class="edge">
<title>Node21&#45;&gt;Node22</title>
<path fill="none" stroke="#191970" d="M563.5139,-288.9592C407.2183,-258.5678 361.9414,-282.8409 209.5,-253 200.9838,-251.3329 192.1751,-249.2936 183.426,-247.0592"/>
<polygon fill="#191970" stroke="#191970" points="562.9884,-292.4231 573.4791,-290.941 564.3539,-285.5576 562.9884,-292.4231"/>
</g>
<!-- Node23 -->
<g id="node6" class="node">
<title>Node23</title>
<g id="a_node6"><a xlink:href="../../d2/d0b/CookedTrackerSpec_8h.html" target="_top" xlink:title="/home/travis/build\l/AliceO2Group/AliceO2\l/Detectors/ITSMFT/ITS\l/workflow/include/ITSWorkflow\l/CookedTrackerSpec.h">
<polygon fill="none" stroke="#000000" points="219,-189.5 219,-252.5 384,-252.5 384,-189.5 219,-189.5"/>
<text text-anchor="start" x="227" y="-240.5" font-family="Helvetica,sans-Serif" font-size="10.00" fill="#000000">/home/travis/build</text>
<text text-anchor="start" x="227" y="-229.5" font-family="Helvetica,sans-Serif" font-size="10.00" fill="#000000">/AliceO2Group/AliceO2</text>
<text text-anchor="start" x="227" y="-218.5" font-family="Helvetica,sans-Serif" font-size="10.00" fill="#000000">/Detectors/ITSMFT/ITS</text>
<text text-anchor="start" x="227" y="-207.5" font-family="Helvetica,sans-Serif" font-size="10.00" fill="#000000">/workflow/include/ITSWorkflow</text>
<text text-anchor="middle" x="301.5" y="-196.5" font-family="Helvetica,sans-Serif" font-size="10.00" fill="#000000">/CookedTrackerSpec.h</text>
</a>
</g>
</g>
<!-- Node21&#45;&gt;Node23 -->
<g id="edge5" class="edge">
<title>Node21&#45;&gt;Node23</title>
<path fill="none" stroke="#191970" d="M563.6029,-288.8529C489.7279,-270.0874 468.3482,-272.0387 398.5,-253 393.7951,-251.7176 388.9816,-250.3414 384.1373,-248.9064"/>
<polygon fill="#191970" stroke="#191970" points="562.8202,-292.2655 573.3778,-291.3776 564.5709,-285.4879 562.8202,-292.2655"/>
</g>
<!-- Node24 -->
<g id="node7" class="node">
<title>Node24</title>
<g id="a_node7"><a xlink:href="../../d6/dbc/CookedTrackerSpec_8cxx.html" target="_top" xlink:title="/home/travis/build\l/AliceO2Group/AliceO2\l/Detectors/ITSMFT/ITS\l/workflow/src/CookedTrackerSpec.cxx">
<polygon fill="none" stroke="#000000" points="275.5,-95 275.5,-147 475.5,-147 475.5,-95 275.5,-95"/>
<text text-anchor="start" x="283.5" y="-135" font-family="Helvetica,sans-Serif" font-size="10.00" fill="#000000">/home/travis/build</text>
<text text-anchor="start" x="283.5" y="-124" font-family="Helvetica,sans-Serif" font-size="10.00" fill="#000000">/AliceO2Group/AliceO2</text>
<text text-anchor="start" x="283.5" y="-113" font-family="Helvetica,sans-Serif" font-size="10.00" fill="#000000">/Detectors/ITSMFT/ITS</text>
<text text-anchor="middle" x="375.5" y="-102" font-family="Helvetica,sans-Serif" font-size="10.00" fill="#000000">/workflow/src/CookedTrackerSpec.cxx</text>
</a>
</g>
</g>
<!-- Node23&#45;&gt;Node24 -->
<g id="edge6" class="edge">
<title>Node23&#45;&gt;Node24</title>
<path fill="none" stroke="#191970" d="M330.9706,-181.1749C339.4594,-169.7035 348.5003,-157.486 356.2023,-147.078"/>
<polygon fill="#191970" stroke="#191970" points="328.0491,-179.239 324.9141,-189.3594 333.676,-183.4029 328.0491,-179.239"/>
</g>
<!-- Node25 -->
<g id="node8" class="node">
<title>Node25</title>
<g id="a_node8"><a xlink:href="../../d5/d99/ITSMFT_2ITS_2workflow_2src_2RecoWorkflow_8cxx.html" target="_top" xlink:title="/home/travis/build\l/AliceO2Group/AliceO2\l/Detectors/ITSMFT/ITS\l/workflow/src/RecoWorkflow.cxx">
<polygon fill="none" stroke="#000000" points="405.5,-.5 405.5,-52.5 577.5,-52.5 577.5,-.5 405.5,-.5"/>
<text text-anchor="start" x="413.5" y="-40.5" font-family="Helvetica,sans-Serif" font-size="10.00" fill="#000000">/home/travis/build</text>
<text text-anchor="start" x="413.5" y="-29.5" font-family="Helvetica,sans-Serif" font-size="10.00" fill="#000000">/AliceO2Group/AliceO2</text>
<text text-anchor="start" x="413.5" y="-18.5" font-family="Helvetica,sans-Serif" font-size="10.00" fill="#000000">/Detectors/ITSMFT/ITS</text>
<text text-anchor="middle" x="491.5" y="-7.5" font-family="Helvetica,sans-Serif" font-size="10.00" fill="#000000">/workflow/src/RecoWorkflow.cxx</text>
</a>
</g>
</g>
<!-- Node23&#45;&gt;Node25 -->
<g id="edge7" class="edge">
<title>Node23&#45;&gt;Node25</title>
<path fill="none" stroke="#191970" d="M274.037,-180.4487C258.7411,-152.353 246.4343,-115.3993 266.5,-89 283.6729,-66.4066 349.3542,-49.8327 405.3519,-39.4515"/>
<polygon fill="#191970" stroke="#191970" points="271.0627,-182.298 279.0709,-189.2348 277.1364,-178.818 271.0627,-182.298"/>
</g>
<!-- Node26&#45;&gt;Node24 -->
<g id="edge27" class="edge">
<title>Node26&#45;&gt;Node24</title>
<path fill="none" stroke="#191970" d="M809.9154,-296.8662C797.4198,-293.924 784.6779,-291.1896 772.5,-289 697.5037,-275.5156 492.7381,-298.345 431.5,-253 413.7946,-239.8897 393.8021,-181.8068 383.149,-147.2074"/>
<polygon fill="#191970" stroke="#191970" points="809.3268,-300.3245 819.8684,-299.2639 810.9663,-293.5191 809.3268,-300.3245"/>
</g>
<!-- Node27 -->
<g id="node10" class="node">
<title>Node27</title>
<g id="a_node10"><a xlink:href="../../da/db1/ITS_2tracking_2include_2ITStracking_2IOUtils_8h.html" target="_top" xlink:title="/home/travis/build\l/AliceO2Group/AliceO2\l/Detectors/ITSMFT/ITS\l/tracking/include/ITStracking\l/IOUtils.h">
<polygon fill="none" stroke="#000000" points="1430,-189.5 1430,-252.5 1585,-252.5 1585,-189.5 1430,-189.5"/>
<text text-anchor="start" x="1438" y="-240.5" font-family="Helvetica,sans-Serif" font-size="10.00" fill="#000000">/home/travis/build</text>
<text text-anchor="start" x="1438" y="-229.5" font-family="Helvetica,sans-Serif" font-size="10.00" fill="#000000">/AliceO2Group/AliceO2</text>
<text text-anchor="start" x="1438" y="-218.5" font-family="Helvetica,sans-Serif" font-size="10.00" fill="#000000">/Detectors/ITSMFT/ITS</text>
<text text-anchor="start" x="1438" y="-207.5" font-family="Helvetica,sans-Serif" font-size="10.00" fill="#000000">/tracking/include/ITStracking</text>
<text text-anchor="middle" x="1507.5" y="-196.5" font-family="Helvetica,sans-Serif" font-size="10.00" fill="#000000">/IOUtils.h</text>
</a>
</g>
</g>
<!-- Node26&#45;&gt;Node27 -->
<g id="edge9" class="edge">
<title>Node26&#45;&gt;Node27</title>
<path fill="none" stroke="#191970" d="M985.3671,-315.5837C1090.1822,-307.7498 1270.1209,-289.9399 1420.5,-253 1423.6258,-252.2322 1426.7941,-251.389 1429.9794,-250.487"/>
<polygon fill="#191970" stroke="#191970" points="984.8669,-312.1109 975.1499,-316.3335 985.3793,-319.0922 984.8669,-312.1109"/>
</g>
<!-- Node30 -->
<g id="node13" class="node">
<title>Node30</title>
<g id="a_node13"><a xlink:href="../../de/d95/ITSMFT_2ITS_2workflow_2src_2TrackerSpec_8cxx.html" target="_top" xlink:title="/home/travis/build\l/AliceO2Group/AliceO2\l/Detectors/ITSMFT/ITS\l/workflow/src/TrackerSpec.cxx">
<polygon fill="none" stroke="#000000" points="916,-.5 916,-52.5 1079,-52.5 1079,-.5 916,-.5"/>
<text text-anchor="start" x="924" y="-40.5" font-family="Helvetica,sans-Serif" font-size="10.00" fill="#000000">/home/travis/build</text>
<text text-anchor="start" x="924" y="-29.5" font-family="Helvetica,sans-Serif" font-size="10.00" fill="#000000">/AliceO2Group/AliceO2</text>
<text text-anchor="start" x="924" y="-18.5" font-family="Helvetica,sans-Serif" font-size="10.00" fill="#000000">/Detectors/ITSMFT/ITS</text>
<text text-anchor="middle" x="997.5" y="-7.5" font-family="Helvetica,sans-Serif" font-size="10.00" fill="#000000">/workflow/src/TrackerSpec.cxx</text>
</a>
</g>
</g>
<!-- Node26&#45;&gt;Node30 -->
<g id="edge28" class="edge">
<title>Node26&#45;&gt;Node30</title>
<path fill="none" stroke="#191970" d="M954.4111,-282.605C963.5284,-273.9285 971.8188,-263.9878 977.5,-253 1011.4042,-187.4264 1006.4482,-96.7948 1001.3135,-52.7025"/>
<polygon fill="#191970" stroke="#191970" points="952.0657,-280.0071 946.956,-289.2883 956.7383,-285.2193 952.0657,-280.0071"/>
</g>
<!-- Node31 -->
<g id="node14" class="node">
<title>Node31</title>
<g id="a_node14"><a xlink:href="../../d7/da0/ITSMFT_2ITS_2tracking_2include_2ITStracking_2Tracker_8h.html" target="_top" xlink:title="/home/travis/build\l/AliceO2Group/AliceO2\l/Detectors/ITSMFT/ITS\l/tracking/include/ITStracking\l/Tracker.h">
<polygon fill="none" stroke="#000000" points="653,-189.5 653,-252.5 808,-252.5 808,-189.5 653,-189.5"/>
<text text-anchor="start" x="661" y="-240.5" font-family="Helvetica,sans-Serif" font-size="10.00" fill="#000000">/home/travis/build</text>
<text text-anchor="start" x="661" y="-229.5" font-family="Helvetica,sans-Serif" font-size="10.00" fill="#000000">/AliceO2Group/AliceO2</text>
<text text-anchor="start" x="661" y="-218.5" font-family="Helvetica,sans-Serif" font-size="10.00" fill="#000000">/Detectors/ITSMFT/ITS</text>
<text text-anchor="start" x="661" y="-207.5" font-family="Helvetica,sans-Serif" font-size="10.00" fill="#000000">/tracking/include/ITStracking</text>
<text text-anchor="middle" x="730.5" y="-196.5" font-family="Helvetica,sans-Serif" font-size="10.00" fill="#000000">/Tracker.h</text>
</a>
</g>
</g>
<!-- Node26&#45;&gt;Node31 -->
<g id="edge14" class="edge">
<title>Node26&#45;&gt;Node31</title>
<path fill="none" stroke="#191970" d="M835.781,-284.0425C818.5367,-273.7166 799.9598,-262.5927 783.2825,-252.6063"/>
<polygon fill="#191970" stroke="#191970" points="834.2826,-287.2247 844.6602,-289.3594 837.8788,-281.2191 834.2826,-287.2247"/>
</g>
<!-- Node26&#45;&gt;Node34 -->
<g id="edge19" class="edge">
<title>Node26&#45;&gt;Node34</title>
<path fill="none" stroke="#191970" d="M809.9733,-290.2116C808.4735,-289.7963 806.9816,-289.392 805.5,-289 720.3003,-266.4583 695.6997,-275.5417 610.5,-253 605.759,-251.7456 600.9115,-250.3648 596.0425,-248.9023"/>
<polygon fill="#191970" stroke="#191970" points="809.3788,-293.683 819.9575,-293.0977 811.3227,-286.9583 809.3788,-293.683"/>
</g>
<!-- Node35 -->
<g id="node18" class="node">
<title>Node35</title>
<g id="a_node18"><a xlink:href="../../da/d5d/Vertexer_8cxx.html" target="_top" xlink:title="/home/travis/build\l/AliceO2Group/AliceO2\l/Detectors/ITSMFT/ITS\l/tracking/src/Vertexer.cxx">
<polygon fill="none" stroke="#000000" points="493.5,-95 493.5,-147 633.5,-147 633.5,-95 493.5,-95"/>
<text text-anchor="start" x="501.5" y="-135" font-family="Helvetica,sans-Serif" font-size="10.00" fill="#000000">/home/travis/build</text>
<text text-anchor="start" x="501.5" y="-124" font-family="Helvetica,sans-Serif" font-size="10.00" fill="#000000">/AliceO2Group/AliceO2</text>
<text text-anchor="start" x="501.5" y="-113" font-family="Helvetica,sans-Serif" font-size="10.00" fill="#000000">/Detectors/ITSMFT/ITS</text>
<text text-anchor="middle" x="563.5" y="-102" font-family="Helvetica,sans-Serif" font-size="10.00" fill="#000000">/tracking/src/Vertexer.cxx</text>
</a>
</g>
</g>
<!-- Node26&#45;&gt;Node35 -->
<g id="edge25" class="edge">
<title>Node26&#45;&gt;Node35</title>
<path fill="none" stroke="#191970" d="M809.9529,-290.2861C808.4594,-289.8478 806.9742,-289.4187 805.5,-289 734.5492,-268.8508 703.43,-295.993 643.5,-253 642.8791,-252.5546 602.4864,-185.6601 579.3434,-147.2848"/>
<polygon fill="#191970" stroke="#191970" points="809.317,-293.7505 819.9022,-293.2991 811.3459,-287.0509 809.317,-293.7505"/>
</g>
<!-- Node36 -->
<g id="node19" class="node">
<title>Node36</title>
<g id="a_node19"><a xlink:href="../../dd/d59/ITS_2tracking_2src_2ROframe_8cxx.html" target="_top" xlink:title="/home/travis/build\l/AliceO2Group/AliceO2\l/Detectors/ITSMFT/ITS\l/tracking/src/ROframe.cxx">
<polygon fill="none" stroke="#000000" points="826,-195 826,-247 969,-247 969,-195 826,-195"/>
<text text-anchor="start" x="834" y="-235" font-family="Helvetica,sans-Serif" font-size="10.00" fill="#000000">/home/travis/build</text>
<text text-anchor="start" x="834" y="-224" font-family="Helvetica,sans-Serif" font-size="10.00" fill="#000000">/AliceO2Group/AliceO2</text>
<text text-anchor="start" x="834" y="-213" font-family="Helvetica,sans-Serif" font-size="10.00" fill="#000000">/Detectors/ITSMFT/ITS</text>
<text text-anchor="middle" x="897.5" y="-202" font-family="Helvetica,sans-Serif" font-size="10.00" fill="#000000">/tracking/src/ROframe.cxx</text>
</a>
</g>
</g>
<!-- Node26&#45;&gt;Node36 -->
<g id="edge23" class="edge">
<title>Node26&#45;&gt;Node36</title>
<path fill="none" stroke="#191970" d="M897.5,-279.1631C897.5,-268.2863 897.5,-256.8798 897.5,-247.078"/>
<polygon fill="#191970" stroke="#191970" points="894.0001,-279.3593 897.5,-289.3594 901.0001,-279.3594 894.0001,-279.3593"/>
</g>
<!-- Node37 -->
<g id="node20" class="node">
<title>Node37</title>
<g id="a_node20"><a xlink:href="../../d7/dc4/StandaloneDebugger_8cxx.html" target="_top" xlink:title="/home/travis/build\l/AliceO2Group/AliceO2\l/Detectors/ITSMFT/ITS\l/tracking/src/StandaloneDebugger.cxx">
<polygon fill="none" stroke="#000000" points="1026,-195 1026,-247 1227,-247 1227,-195 1026,-195"/>
<text text-anchor="start" x="1034" y="-235" font-family="Helvetica,sans-Serif" font-size="10.00" fill="#000000">/home/travis/build</text>
<text text-anchor="start" x="1034" y="-224" font-family="Helvetica,sans-Serif" font-size="10.00" fill="#000000">/AliceO2Group/AliceO2</text>
<text text-anchor="start" x="1034" y="-213" font-family="Helvetica,sans-Serif" font-size="10.00" fill="#000000">/Detectors/ITSMFT/ITS</text>
<text text-anchor="middle" x="1126.5" y="-202" font-family="Helvetica,sans-Serif" font-size="10.00" fill="#000000">/tracking/src/StandaloneDebugger.cxx</text>
</a>
</g>
</g>
<!-- Node26&#45;&gt;Node37 -->
<g id="edge24" class="edge">
<title>Node26&#45;&gt;Node37</title>
<path fill="none" stroke="#191970" d="M978.9133,-285.4483C1007.8324,-272.8199 1039.832,-258.8463 1066.6216,-247.1478"/>
<polygon fill="#191970" stroke="#191970" points="977.4064,-282.2872 969.6427,-289.4966 980.2077,-288.7022 977.4064,-282.2872"/>
</g>
<!-- Node38 -->
<g id="node21" class="node">
<title>Node38</title>
<g id="a_node21"><a xlink:href="../../d2/de1/VertexerTraits_8cxx.html" target="_top" xlink:title="/home/travis/build\l/AliceO2Group/AliceO2\l/Detectors/ITSMFT/ITS\l/tracking/src/VertexerTraits.cxx">
<polygon fill="none" stroke="#000000" points="1245,-195 1245,-247 1412,-247 1412,-195 1245,-195"/>
<text text-anchor="start" x="1253" y="-235" font-family="Helvetica,sans-Serif" font-size="10.00" fill="#000000">/home/travis/build</text>
<text text-anchor="start" x="1253" y="-224" font-family="Helvetica,sans-Serif" font-size="10.00" fill="#000000">/AliceO2Group/AliceO2</text>
<text text-anchor="start" x="1253" y="-213" font-family="Helvetica,sans-Serif" font-size="10.00" fill="#000000">/Detectors/ITSMFT/ITS</text>
<text text-anchor="middle" x="1328.5" y="-202" font-family="Helvetica,sans-Serif" font-size="10.00" fill="#000000">/tracking/src/VertexerTraits.cxx</text>
</a>
</g>
</g>
<!-- Node26&#45;&gt;Node38 -->
<g id="edge26" class="edge">
<title>Node26&#45;&gt;Node38</title>
<path fill="none" stroke="#191970" d="M984.9507,-306.6992C1053.6342,-294.6783 1151.3965,-275.8211 1235.5,-253 1242.174,-251.189 1249.0639,-249.1502 1255.9344,-247.0009"/>
<polygon fill="#191970" stroke="#191970" points="984.2861,-303.2622 975.0331,-308.4229 985.4848,-310.1588 984.2861,-303.2622"/>
</g>
<!-- Node27&#45;&gt;Node24 -->
<g id="edge12" class="edge">
<title>Node27&#45;&gt;Node24</title>
<path fill="none" stroke="#191970" d="M1419.5473,-189.0641C1010.2183,-109.9427 892.0467,-219.6057 484.5,-153 475.1573,-151.4731 465.486,-149.3938 455.9379,-147.0229"/>
<polygon fill="#191970" stroke="#191970" points="1419.0926,-192.5415 1429.579,-191.0295 1420.4386,-185.6721 1419.0926,-192.5415"/>
</g>
<!-- Node28 -->
<g id="node11" class="node">
<title>Node28</title>
<g id="a_node11"><a xlink:href="../../d6/d73/TPCITSMatchingSpec_8cxx.html" target="_top" xlink:title="/home/travis/build\l/AliceO2Group/AliceO2\l/Detectors/GlobalTrackingWorkflow\l/src/TPCITSMatchingSpec.cxx">
<polygon fill="none" stroke="#000000" points="1325,-95 1325,-147 1512,-147 1512,-95 1325,-95"/>
<text text-anchor="start" x="1333" y="-135" font-family="Helvetica,sans-Serif" font-size="10.00" fill="#000000">/home/travis/build</text>
<text text-anchor="start" x="1333" y="-124" font-family="Helvetica,sans-Serif" font-size="10.00" fill="#000000">/AliceO2Group/AliceO2</text>
<text text-anchor="start" x="1333" y="-113" font-family="Helvetica,sans-Serif" font-size="10.00" fill="#000000">/Detectors/GlobalTrackingWorkflow</text>
<text text-anchor="middle" x="1418.5" y="-102" font-family="Helvetica,sans-Serif" font-size="10.00" fill="#000000">/src/TPCITSMatchingSpec.cxx</text>
</a>
</g>
</g>
<!-- Node27&#45;&gt;Node28 -->
<g id="edge10" class="edge">
<title>Node27&#45;&gt;Node28</title>
<path fill="none" stroke="#191970" d="M1472.6496,-181.8422C1462.269,-170.1787 1451.1525,-157.6881 1441.7094,-147.078"/>
<polygon fill="#191970" stroke="#191970" points="1470.077,-184.2163 1479.3398,-189.3594 1475.306,-179.5625 1470.077,-184.2163"/>
</g>
<!-- Node29 -->
<g id="node12" class="node">
<title>Node29</title>
<g id="a_node12"><a xlink:href="../../d5/d13/ITS_2tracking_2src_2IOUtils_8cxx.html" target="_top" xlink:title="/home/travis/build\l/AliceO2Group/AliceO2\l/Detectors/ITSMFT/ITS\l/tracking/src/IOUtils.cxx">
<polygon fill="none" stroke="#000000" points="1530,-95 1530,-147 1663,-147 1663,-95 1530,-95"/>
<text text-anchor="start" x="1538" y="-135" font-family="Helvetica,sans-Serif" font-size="10.00" fill="#000000">/home/travis/build</text>
<text text-anchor="start" x="1538" y="-124" font-family="Helvetica,sans-Serif" font-size="10.00" fill="#000000">/AliceO2Group/AliceO2</text>
<text text-anchor="start" x="1538" y="-113" font-family="Helvetica,sans-Serif" font-size="10.00" fill="#000000">/Detectors/ITSMFT/ITS</text>
<text text-anchor="middle" x="1596.5" y="-102" font-family="Helvetica,sans-Serif" font-size="10.00" fill="#000000">/tracking/src/IOUtils.cxx</text>
</a>
</g>
</g>
<!-- Node27&#45;&gt;Node29 -->
<g id="edge11" class="edge">
<title>Node27&#45;&gt;Node29</title>
<path fill="none" stroke="#191970" d="M1542.3504,-181.8422C1552.731,-170.1787 1563.8475,-157.6881 1573.2906,-147.078"/>
<polygon fill="#191970" stroke="#191970" points="1539.694,-179.5625 1535.6602,-189.3594 1544.923,-184.2163 1539.694,-179.5625"/>
</g>
<!-- Node27&#45;&gt;Node30 -->
<g id="edge13" class="edge">
<title>Node27&#45;&gt;Node30</title>
<path fill="none" stroke="#191970" d="M1420.1514,-188.9077C1372.8473,-172.1964 1359.5802,-168.989 1316.5,-153 1227.1326,-119.8317 1124.8651,-78.7097 1060.7317,-52.5325"/>
<polygon fill="#191970" stroke="#191970" points="1419.144,-192.2641 1429.7387,-192.3141 1421.4876,-185.6681 1419.144,-192.2641"/>
</g>
<!-- Node32 -->
<g id="node15" class="node">
<title>Node32</title>
<g id="a_node15"><a xlink:href="../../d7/dd9/ITSMFT_2ITS_2tracking_2src_2Tracker_8cxx.html" target="_top" xlink:title="/home/travis/build\l/AliceO2Group/AliceO2\l/Detectors/ITSMFT/ITS\l/tracking/src/Tracker.cxx">
<polygon fill="none" stroke="#000000" points="835.5,-95 835.5,-147 969.5,-147 969.5,-95 835.5,-95"/>
<text text-anchor="start" x="843.5" y="-135" font-family="Helvetica,sans-Serif" font-size="10.00" fill="#000000">/home/travis/build</text>
<text text-anchor="start" x="843.5" y="-124" font-family="Helvetica,sans-Serif" font-size="10.00" fill="#000000">/AliceO2Group/AliceO2</text>
<text text-anchor="start" x="843.5" y="-113" font-family="Helvetica,sans-Serif" font-size="10.00" fill="#000000">/Detectors/ITSMFT/ITS</text>
<text text-anchor="middle" x="902.5" y="-102" font-family="Helvetica,sans-Serif" font-size="10.00" fill="#000000">/tracking/src/Tracker.cxx</text>
</a>
</g>
</g>
<!-- Node31&#45;&gt;Node32 -->
<g id="edge15" class="edge">
<title>Node31&#45;&gt;Node32</title>
<path fill="none" stroke="#191970" d="M793.576,-184.3279C814.8271,-171.9726 838.0928,-158.446 857.6459,-147.078"/>
<polygon fill="#191970" stroke="#191970" points="791.8078,-181.3073 784.9219,-189.3594 795.3261,-187.3589 791.8078,-181.3073"/>
</g>
<!-- Node33 -->
<g id="node16" class="node">
<title>Node33</title>
<g id="a_node16"><a xlink:href="../../de/d90/ITSMFT_2ITS_2workflow_2include_2ITSWorkflow_2TrackerSpec_8h.html" target="_top" xlink:title="/home/travis/build\l/AliceO2Group/AliceO2\l/Detectors/ITSMFT/ITS\l/workflow/include/ITSWorkflow\l/TrackerSpec.h">
<polygon fill="none" stroke="#000000" points="652,-89.5 652,-152.5 817,-152.5 817,-89.5 652,-89.5"/>
<text text-anchor="start" x="660" y="-140.5" font-family="Helvetica,sans-Serif" font-size="10.00" fill="#000000">/home/travis/build</text>
<text text-anchor="start" x="660" y="-129.5" font-family="Helvetica,sans-Serif" font-size="10.00" fill="#000000">/AliceO2Group/AliceO2</text>
<text text-anchor="start" x="660" y="-118.5" font-family="Helvetica,sans-Serif" font-size="10.00" fill="#000000">/Detectors/ITSMFT/ITS</text>
<text text-anchor="start" x="660" y="-107.5" font-family="Helvetica,sans-Serif" font-size="10.00" fill="#000000">/workflow/include/ITSWorkflow</text>
<text text-anchor="middle" x="734.5" y="-96.5" font-family="Helvetica,sans-Serif" font-size="10.00" fill="#000000">/TrackerSpec.h</text>
</a>
</g>
</g>
<!-- Node31&#45;&gt;Node33 -->
<g id="edge16" class="edge">
<title>Node31&#45;&gt;Node33</title>
<path fill="none" stroke="#191970" d="M732.1716,-179.2111C732.5252,-170.37 732.8929,-161.1767 733.2289,-152.778"/>
<polygon fill="#191970" stroke="#191970" points="728.6682,-179.2274 731.7656,-189.3594 735.6626,-179.5073 728.6682,-179.2274"/>
</g>
<!-- Node33&#45;&gt;Node25 -->
<g id="edge17" class="edge">
<title>Node33&#45;&gt;Node25</title>
<path fill="none" stroke="#191970" d="M643.7616,-85.7129C615.4957,-74.7205 584.852,-62.8036 558.5158,-52.5617"/>
<polygon fill="#191970" stroke="#191970" points="642.658,-89.039 653.2467,-89.4015 645.1952,-82.5149 642.658,-89.039"/>
</g>
<!-- Node33&#45;&gt;Node30 -->
<g id="edge18" class="edge">
<title>Node33&#45;&gt;Node30</title>
<path fill="none" stroke="#191970" d="M827.1788,-87.6991C859.2169,-76.1873 894.6321,-63.462 924.8324,-52.6106"/>
<polygon fill="#191970" stroke="#191970" points="825.5812,-84.5539 817.3539,-91.2293 827.9483,-91.1416 825.5812,-84.5539"/>
</g>
<!-- Node34&#45;&gt;Node24 -->
<g id="edge22" class="edge">
<title>Node34&#45;&gt;Node24</title>
<path fill="none" stroke="#191970" d="M464.8786,-183.5025C447.5327,-171.3725 428.6866,-158.1934 412.7915,-147.078"/>
<polygon fill="#191970" stroke="#191970" points="463.0531,-186.4968 473.2539,-189.3594 467.0647,-180.7603 463.0531,-186.4968"/>
</g>
<!-- Node34&#45;&gt;Node33 -->
<g id="edge21" class="edge">
<title>Node34&#45;&gt;Node33</title>
<path fill="none" stroke="#191970" d="M595.6341,-185.2898C618.7534,-174.5864 643.9328,-162.9293 666.4238,-152.5168"/>
<polygon fill="#191970" stroke="#191970" points="594.1515,-182.1192 586.5473,-189.4966 597.0924,-188.4715 594.1515,-182.1192"/>
</g>
<!-- Node34&#45;&gt;Node35 -->
<g id="edge20" class="edge">
<title>Node34&#45;&gt;Node35</title>
<path fill="none" stroke="#191970" d="M536.8732,-180.1707C541.903,-168.9933 547.2177,-157.1829 551.7649,-147.078"/>
<polygon fill="#191970" stroke="#191970" points="533.6503,-178.8039 532.7383,-189.3594 540.0337,-181.6764 533.6503,-178.8039"/>
</g>
<!-- Node40 -->
<g id="node23" class="node">
<title>Node40</title>
<g id="a_node23"><a xlink:href="../../d5/db4/MatchTPCITSWorkflow_8cxx.html" target="_top" xlink:title="/home/travis/build\l/AliceO2Group/AliceO2\l/Detectors/GlobalTrackingWorkflow\l/src/MatchTPCITSWorkflow.cxx">
<polygon fill="none" stroke="#000000" points="1603,-195 1603,-247 1790,-247 1790,-195 1603,-195"/>
<text text-anchor="start" x="1611" y="-235" font-family="Helvetica,sans-Serif" font-size="10.00" fill="#000000">/home/travis/build</text>
<text text-anchor="start" x="1611" y="-224" font-family="Helvetica,sans-Serif" font-size="10.00" fill="#000000">/AliceO2Group/AliceO2</text>
<text text-anchor="start" x="1611" y="-213" font-family="Helvetica,sans-Serif" font-size="10.00" fill="#000000">/Detectors/GlobalTrackingWorkflow</text>
<text text-anchor="middle" x="1696.5" y="-202" font-family="Helvetica,sans-Serif" font-size="10.00" fill="#000000">/src/MatchTPCITSWorkflow.cxx</text>
</a>
</g>
</g>
<!-- Node39&#45;&gt;Node40 -->
<g id="edge31" class="edge">
<title>Node39&#45;&gt;Node40</title>
<path fill="none" stroke="#191970" d="M1477.798,-288.9397C1530.7764,-271.7018 1545.3855,-268.2602 1594.5,-253 1600.7032,-251.0726 1607.1169,-249.0741 1613.5674,-247.0599"/>
<polygon fill="#191970" stroke="#191970" points="1476.6222,-285.6417 1468.2041,-292.0749 1478.7966,-292.2955 1476.6222,-285.6417"/>
</g>
<!-- Node41 -->
<g id="node24" class="node">
<title>Node41</title>
<g id="a_node24"><a xlink:href="../../dc/d5e/ITSMFT_2ITS_2workflow_2src_2TrackReaderSpec_8cxx.html" target="_top" xlink:title="/home/travis/build\l/AliceO2Group/AliceO2\l/Detectors/ITSMFT/ITS\l/workflow/src/TrackReaderSpec.cxx">
<polygon fill="none" stroke="#000000" points="1808,-195 1808,-247 1995,-247 1995,-195 1808,-195"/>
<text text-anchor="start" x="1816" y="-235" font-family="Helvetica,sans-Serif" font-size="10.00" fill="#000000">/home/travis/build</text>
<text text-anchor="start" x="1816" y="-224" font-family="Helvetica,sans-Serif" font-size="10.00" fill="#000000">/AliceO2Group/AliceO2</text>
<text text-anchor="start" x="1816" y="-213" font-family="Helvetica,sans-Serif" font-size="10.00" fill="#000000">/Detectors/ITSMFT/ITS</text>
<text text-anchor="middle" x="1901.5" y="-202" font-family="Helvetica,sans-Serif" font-size="10.00" fill="#000000">/workflow/src/TrackReaderSpec.cxx</text>
</a>
</g>
</g>
<!-- Node39&#45;&gt;Node41 -->
<g id="edge32" class="edge">
<title>Node39&#45;&gt;Node41</title>
<path fill="none" stroke="#191970" d="M1478.1737,-289.0541C1619.8127,-258.2671 1661.7562,-282.0237 1799.5,-253 1807.4907,-251.3163 1815.7477,-249.2661 1823.9435,-247.025"/>
<polygon fill="#191970" stroke="#191970" points="1477.2503,-285.674 1468.2501,-291.264 1478.7719,-292.5066 1477.2503,-285.674"/>
</g>
<!-- Node43 -->
<g id="node26" class="node">
<title>Node43</title>
<g id="a_node26"><a xlink:href="../../d5/db3/VertexReaderSpec_8cxx.html" target="_top" xlink:title="/home/travis/build\l/AliceO2Group/AliceO2\l/Detectors/ITSMFT/ITS\l/workflow/src/VertexReaderSpec.cxx">
<polygon fill="none" stroke="#000000" points="2013,-195 2013,-247 2206,-247 2206,-195 2013,-195"/>
<text text-anchor="start" x="2021" y="-235" font-family="Helvetica,sans-Serif" font-size="10.00" fill="#000000">/home/travis/build</text>
<text text-anchor="start" x="2021" y="-224" font-family="Helvetica,sans-Serif" font-size="10.00" fill="#000000">/AliceO2Group/AliceO2</text>
<text text-anchor="start" x="2021" y="-213" font-family="Helvetica,sans-Serif" font-size="10.00" fill="#000000">/Detectors/ITSMFT/ITS</text>
<text text-anchor="middle" x="2109.5" y="-202" font-family="Helvetica,sans-Serif" font-size="10.00" fill="#000000">/workflow/src/VertexReaderSpec.cxx</text>
</a>
</g>
</g>
<!-- Node42&#45;&gt;Node43 -->
<g id="edge34" class="edge">
<title>Node42&#45;&gt;Node43</title>
<path fill="none" stroke="#191970" d="M1661.3523,-289.0216C1812.4457,-256.7042 1857.0786,-282.8908 2004.5,-253 2012.7178,-251.3338 2021.2126,-249.295 2029.6463,-247.061"/>
<polygon fill="#191970" stroke="#191970" points="1660.2632,-285.6771 1651.2439,-291.2361 1661.7613,-292.515 1660.2632,-285.6771"/>
</g>
</g>
</svg>
        <g id="navigator" transform="translate(0 0)" fill="#404254">
                <rect fill="#f2f5e9" fill-opacity="0.5" stroke="#606060" stroke-width=".5" x="0" y="0" width="60" height="60"/>
                <use id="zoomplus" xlink:href="#zoomPlus" x="17" y="9" onmousedown="handleZoom(evt,'in')"/>
                <use id="zoomminus" xlink:href="#zoomMin" x="42" y="9" onmousedown="handleZoom(evt,'out')"/>
                <use id="reset" xlink:href="#resetDef" x="30" y="36" onmousedown="handleReset()"/>
                <g id="arrowUp" xlink:href="#dirArrow" transform="translate(30 24)" onmousedown="handlePan(0,-1)">
                  <use xlink:href="#rim" fill="#404040">
                        <set attributeName="fill" to="#808080" begin="arrowUp.mouseover" end="arrowUp.mouseout"/>
                  </use>
                  <path fill="none" stroke="white" stroke-width="1.5" d="M0,-3.0v7 M-2.5,-0.5L0,-3.0L2.5,-0.5"/>
                </g>
                <g id="arrowRight" xlink:href="#dirArrow" transform="rotate(90) translate(36 -43)" onmousedown="handlePan(1,0)">
                  <use xlink:href="#rim" fill="#404040">
                        <set attributeName="fill" to="#808080" begin="arrowRight.mouseover" end="arrowRight.mouseout"/>
                  </use>
                  <path fill="none" stroke="white" stroke-width="1.5" d="M0,-3.0v7 M-2.5,-0.5L0,-3.0L2.5,-0.5"/>
                </g>
                <g id="arrowDown" xlink:href="#dirArrow" transform="rotate(180) translate(-30 -48)" onmousedown="handlePan(0,1)">
                  <use xlink:href="#rim" fill="#404040">
                        <set attributeName="fill" to="#808080" begin="arrowDown.mouseover" end="arrowDown.mouseout"/>
                  </use>
                  <path fill="none" stroke="white" stroke-width="1.5" d="M0,-3.0v7 M-2.5,-0.5L0,-3.0L2.5,-0.5"/>
                </g>
                <g id="arrowLeft" xlink:href="#dirArrow" transform="rotate(270) translate(-36 17)" onmousedown="handlePan(-1,0)">
                  <use xlink:href="#rim" fill="#404040">
                        <set attributeName="fill" to="#808080" begin="arrowLeft.mouseover" end="arrowLeft.mouseout"/>
                  </use>
                  <path fill="none" stroke="white" stroke-width="1.5" d="M0,-3.0v7 M-2.5,-0.5L0,-3.0L2.5,-0.5"/>
                </g>
        </g>
        <svg viewBox="0 0 15 15" width="100%" height="30px" preserveAspectRatio="xMaxYMin meet">
         <g id="arrow_out" transform="scale(0.3 0.3)">
          <a xlink:href="DataFormats_2Reconstruction_2include_2ReconstructionDataFormats_2Vertex_8h__dep__incl_org.svg" target="_base">
           <rect id="button" ry="5" rx="5" y="6" x="6" height="38" width="38"
                fill="#f2f5e9" fill-opacity="0.5" stroke="#606060" stroke-width="1.0"/>
           <path id="arrow"
             d="M 11.500037,31.436501 C 11.940474,20.09759 22.043105,11.32322 32.158766,21.979434 L 37.068811,17.246167 C 37.068811,17.246167 37.088388,32 37.088388,32 L 22.160133,31.978069 C 22.160133,31.978069 26.997745,27.140456 26.997745,27.140456 C 18.528582,18.264221 13.291696,25.230495 11.500037,31.436501 z"
             style="fill:#404040;"/>
          </a>
         </g>
        </svg>
</svg>
