<?xml version="1.0" encoding="UTF-8" standalone="no"?>
<!DOCTYPE svg PUBLIC "-//W3C//DTD SVG 1.1//EN"
 "http://www.w3.org/Graphics/SVG/1.1/DTD/svg11.dtd">
<!-- Generated by graphviz version 2.40.1 (20161225.0304)
 -->
<!-- Title: /home/travis/build/AliceO2Group/AliceO2/Detectors/MUON/MCH/Mapping/Interface/include/MCHMappingInterface/Segmentation.inl Pages: 1 -->
<!--zoomable 361 -->
<svg id="main" version="1.1" xmlns="http://www.w3.org/2000/svg" xmlns:xlink="http://www.w3.org/1999/xlink" xml:space="preserve" onload="init(evt)">
<style type="text/css"><![CDATA[
.edge:hover path { stroke: red; }
.edge:hover polygon { stroke: red; fill: red; }
]]></style>
<script type="text/javascript"><![CDATA[
var edges = document.getElementsByTagName('g');
if (edges && edges.length) {
  for (var i=0;i<edges.length;i++) {
    if (edges[i].id.substr(0,4)=='edge') {
      edges[i].setAttribute('class','edge');
    }
  }
}
]]></script>
        <defs>
                <circle id="rim" cx="0" cy="0" r="7"/>
                <circle id="rim2" cx="0" cy="0" r="3.5"/>
                <g id="zoomPlus">
                        <use xlink:href="#rim" fill="#404040">
                                <set attributeName="fill" to="#808080" begin="zoomplus.mouseover" end="zoomplus.mouseout"/>
                        </use>
                        <path d="M-4,0h8M0,-4v8" fill="none" stroke="white" stroke-width="1.5" pointer-events="none"/>
                </g>
                <g id="zoomMin">
                        <use xlink:href="#rim" fill="#404040">
                                <set attributeName="fill" to="#808080" begin="zoomminus.mouseover" end="zoomminus.mouseout"/>
                        </use>
                        <path d="M-4,0h8" fill="none" stroke="white" stroke-width="1.5" pointer-events="none"/>
                </g>
                <g id="dirArrow">
                        <path fill="none" stroke="white" stroke-width="1.5" d="M0,-3.0v7 M-2.5,-0.5L0,-3.0L2.5,-0.5"/>
                </g>
               <g id="resetDef">
                       <use xlink:href="#rim2" fill="#404040">
                               <set attributeName="fill" to="#808080" begin="reset.mouseover" end="reset.mouseout"/>
                       </use>
               </g>
        </defs>

<script type="text/javascript">
var viewWidth = 2280;
var viewHeight = 361;
var sectionId = 'dynsection-0';
</script>
<script xlink:href="../../svgpan.js"/>
<svg id="graph" class="graph">
<g id="viewport">
<title>/home/travis/build/AliceO2Group/AliceO2/Detectors/MUON/MCH/Mapping/Interface/include/MCHMappingInterface/Segmentation.inl</title>
<!-- Node1 -->
<g id="node1" class="node">
<title>Node1</title>
<polygon fill="#bfbfbf" stroke="#000000" points="1561,-289.5 1561,-352.5 1773,-352.5 1773,-289.5 1561,-289.5"/>
<text text-anchor="start" x="1569" y="-340.5" font-family="Helvetica,sans-Serif" font-size="10.00" fill="#000000">/home/travis/build</text>
<text text-anchor="start" x="1569" y="-329.5" font-family="Helvetica,sans-Serif" font-size="10.00" fill="#000000">/AliceO2Group/AliceO2</text>
<text text-anchor="start" x="1569" y="-318.5" font-family="Helvetica,sans-Serif" font-size="10.00" fill="#000000">/Detectors/MUON/MCH/Mapping</text>
<text text-anchor="start" x="1569" y="-307.5" font-family="Helvetica,sans-Serif" font-size="10.00" fill="#000000">/Interface/include/MCHMappingInterface</text>
<text text-anchor="middle" x="1667" y="-296.5" font-family="Helvetica,sans-Serif" font-size="10.00" fill="#000000">/Segmentation.inl</text>
</g>
<!-- Node2 -->
<g id="node2" class="node">
<title>Node2</title>
<g id="a_node2"><a xlink:href="../../d6/d1f/MUON_2MCH_2Mapping_2Interface_2include_2MCHMappingInterface_2Segmentation_8h.html" target="_top" xlink:title="/home/travis/build\l/AliceO2Group/AliceO2\l/Detectors/MUON/MCH/Mapping\l/Interface/include/MCHMappingInterface\l/Segmentation.h">
<polygon fill="none" stroke="#000000" points="1561,-189.5 1561,-252.5 1773,-252.5 1773,-189.5 1561,-189.5"/>
<text text-anchor="start" x="1569" y="-240.5" font-family="Helvetica,sans-Serif" font-size="10.00" fill="#000000">/home/travis/build</text>
<text text-anchor="start" x="1569" y="-229.5" font-family="Helvetica,sans-Serif" font-size="10.00" fill="#000000">/AliceO2Group/AliceO2</text>
<text text-anchor="start" x="1569" y="-218.5" font-family="Helvetica,sans-Serif" font-size="10.00" fill="#000000">/Detectors/MUON/MCH/Mapping</text>
<text text-anchor="start" x="1569" y="-207.5" font-family="Helvetica,sans-Serif" font-size="10.00" fill="#000000">/Interface/include/MCHMappingInterface</text>
<text text-anchor="middle" x="1667" y="-196.5" font-family="Helvetica,sans-Serif" font-size="10.00" fill="#000000">/Segmentation.h</text>
</a>
</g>
</g>
<!-- Node1&#45;&gt;Node2 -->
<g id="edge1" class="edge">
<title>Node1&#45;&gt;Node2</title>
<path fill="none" stroke="#191970" d="M1667,-279.2111C1667,-270.37 1667,-261.1767 1667,-252.778"/>
<polygon fill="#191970" stroke="#191970" points="1663.5001,-279.3593 1667,-289.3594 1670.5001,-279.3594 1663.5001,-279.3593"/>
</g>
<!-- Node3 -->
<g id="node3" class="node">
<title>Node3</title>
<g id="a_node3"><a xlink:href="../../d0/d28/CreateSegmentation_8h.html" target="_top" xlink:title="/home/travis/build\l/AliceO2Group/AliceO2\l/Detectors/MUON/MCH/Mapping\l/Factory/include/MCHMappingFactory\l/CreateSegmentation.h">
<polygon fill="none" stroke="#000000" points="819.5,-89.5 819.5,-152.5 1014.5,-152.5 1014.5,-89.5 819.5,-89.5"/>
<text text-anchor="start" x="827.5" y="-140.5" font-family="Helvetica,sans-Serif" font-size="10.00" fill="#000000">/home/travis/build</text>
<text text-anchor="start" x="827.5" y="-129.5" font-family="Helvetica,sans-Serif" font-size="10.00" fill="#000000">/AliceO2Group/AliceO2</text>
<text text-anchor="start" x="827.5" y="-118.5" font-family="Helvetica,sans-Serif" font-size="10.00" fill="#000000">/Detectors/MUON/MCH/Mapping</text>
<text text-anchor="start" x="827.5" y="-107.5" font-family="Helvetica,sans-Serif" font-size="10.00" fill="#000000">/Factory/include/MCHMappingFactory</text>
<text text-anchor="middle" x="917" y="-96.5" font-family="Helvetica,sans-Serif" font-size="10.00" fill="#000000">/CreateSegmentation.h</text>
</a>
</g>
</g>
<!-- Node2&#45;&gt;Node3 -->
<g id="edge2" class="edge">
<title>Node2&#45;&gt;Node3</title>
<path fill="none" stroke="#191970" d="M1550.7581,-205.5011C1403.5658,-185.8754 1152.5799,-152.4106 1014.7617,-134.0349"/>
<polygon fill="#191970" stroke="#191970" points="1550.3623,-208.9792 1560.7372,-206.8316 1551.2875,-202.0406 1550.3623,-208.9792"/>
</g>
<!-- Node10 -->
<g id="node10" class="node">
<title>Node10</title>
<g id="a_node10"><a xlink:href="../../dd/d1c/SegmentationContours_8h.html" target="_top" xlink:title="/home/travis/build\l/AliceO2Group/AliceO2\l/Detectors/MUON/MCH/Mapping\l/SegContour/include/MCHMappingSegContour\l/SegmentationContours.h">
<polygon fill="none" stroke="#000000" points="1401.5,-89.5 1401.5,-152.5 1638.5,-152.5 1638.5,-89.5 1401.5,-89.5"/>
<text text-anchor="start" x="1409.5" y="-140.5" font-family="Helvetica,sans-Serif" font-size="10.00" fill="#000000">/home/travis/build</text>
<text text-anchor="start" x="1409.5" y="-129.5" font-family="Helvetica,sans-Serif" font-size="10.00" fill="#000000">/AliceO2Group/AliceO2</text>
<text text-anchor="start" x="1409.5" y="-118.5" font-family="Helvetica,sans-Serif" font-size="10.00" fill="#000000">/Detectors/MUON/MCH/Mapping</text>
<text text-anchor="start" x="1409.5" y="-107.5" font-family="Helvetica,sans-Serif" font-size="10.00" fill="#000000">/SegContour/include/MCHMappingSegContour</text>
<text text-anchor="middle" x="1520" y="-96.5" font-family="Helvetica,sans-Serif" font-size="10.00" fill="#000000">/SegmentationContours.h</text>
</a>
</g>
</g>
<!-- Node2&#45;&gt;Node10 -->
<g id="edge9" class="edge">
<title>Node2&#45;&gt;Node10</title>
<path fill="none" stroke="#191970" d="M1611.8358,-183.4733C1596.8938,-173.3087 1580.8719,-162.4095 1566.4613,-152.6063"/>
<polygon fill="#191970" stroke="#191970" points="1610.2514,-186.6286 1620.4883,-189.3594 1614.1887,-180.8408 1610.2514,-186.6286"/>
</g>
<!-- Node12 -->
<g id="node12" class="node">
<title>Node12</title>
<g id="a_node12"><a xlink:href="../../d5/d2d/MUON_2MCH_2Mapping_2test_2src_2Segmentation_8cxx.html" target="_top" xlink:title="/home/travis/build\l/AliceO2Group/AliceO2\l/Detectors/MUON/MCH/Mapping\l/test/src/Segmentation.cxx">
<polygon fill="none" stroke="#000000" points="1652,-.5 1652,-52.5 1822,-52.5 1822,-.5 1652,-.5"/>
<text text-anchor="start" x="1660" y="-40.5" font-family="Helvetica,sans-Serif" font-size="10.00" fill="#000000">/home/travis/build</text>
<text text-anchor="start" x="1660" y="-29.5" font-family="Helvetica,sans-Serif" font-size="10.00" fill="#000000">/AliceO2Group/AliceO2</text>
<text text-anchor="start" x="1660" y="-18.5" font-family="Helvetica,sans-Serif" font-size="10.00" fill="#000000">/Detectors/MUON/MCH/Mapping</text>
<text text-anchor="middle" x="1737" y="-7.5" font-family="Helvetica,sans-Serif" font-size="10.00" fill="#000000">/test/src/Segmentation.cxx</text>
</a>
</g>
</g>
<!-- Node2&#45;&gt;Node12 -->
<g id="edge13" class="edge">
<title>Node2&#45;&gt;Node12</title>
<path fill="none" stroke="#191970" d="M1667.3285,-179.1046C1668.8943,-152.3398 1673.5109,-117.4474 1686,-89 1691.7987,-75.7919 1701.1871,-63.0947 1710.338,-52.6353"/>
<polygon fill="#191970" stroke="#191970" points="1663.8229,-179.1478 1666.855,-189.2995 1670.8153,-179.4726 1663.8229,-179.1478"/>
</g>
<!-- Node13 -->
<g id="node13" class="node">
<title>Node13</title>
<g id="a_node13"><a xlink:href="../../da/d72/BenchSegmentation_8cxx.html" target="_top" xlink:title="/home/travis/build\l/AliceO2Group/AliceO2\l/Detectors/MUON/MCH/Mapping\l/test/src/BenchSegmentation.cxx">
<polygon fill="none" stroke="#000000" points="1694.5,-95 1694.5,-147 1871.5,-147 1871.5,-95 1694.5,-95"/>
<text text-anchor="start" x="1702.5" y="-135" font-family="Helvetica,sans-Serif" font-size="10.00" fill="#000000">/home/travis/build</text>
<text text-anchor="start" x="1702.5" y="-124" font-family="Helvetica,sans-Serif" font-size="10.00" fill="#000000">/AliceO2Group/AliceO2</text>
<text text-anchor="start" x="1702.5" y="-113" font-family="Helvetica,sans-Serif" font-size="10.00" fill="#000000">/Detectors/MUON/MCH/Mapping</text>
<text text-anchor="middle" x="1783" y="-102" font-family="Helvetica,sans-Serif" font-size="10.00" fill="#000000">/test/src/BenchSegmentation.cxx</text>
</a>
</g>
</g>
<!-- Node2&#45;&gt;Node13 -->
<g id="edge12" class="edge">
<title>Node2&#45;&gt;Node13</title>
<path fill="none" stroke="#191970" d="M1711.651,-182.5078C1725.4,-170.6552 1740.2073,-157.8902 1752.7496,-147.078"/>
<polygon fill="#191970" stroke="#191970" points="1708.9919,-180.179 1703.7031,-189.3594 1713.5625,-185.4809 1708.9919,-180.179"/>
</g>
<!-- Node14 -->
<g id="node14" class="node">
<title>Node14</title>
<g id="a_node14"><a xlink:href="../../d4/d03/PreClusterFinderMapping_8h.html" target="_top" xlink:title="/home/travis/build\l/AliceO2Group/AliceO2\l/Detectors/MUON/MCH/PreClustering\l/src/PreClusterFinderMapping.h">
<polygon fill="none" stroke="#000000" points="212,-95 212,-147 406,-147 406,-95 212,-95"/>
<text text-anchor="start" x="220" y="-135" font-family="Helvetica,sans-Serif" font-size="10.00" fill="#000000">/home/travis/build</text>
<text text-anchor="start" x="220" y="-124" font-family="Helvetica,sans-Serif" font-size="10.00" fill="#000000">/AliceO2Group/AliceO2</text>
<text text-anchor="start" x="220" y="-113" font-family="Helvetica,sans-Serif" font-size="10.00" fill="#000000">/Detectors/MUON/MCH/PreClustering</text>
<text text-anchor="middle" x="309" y="-102" font-family="Helvetica,sans-Serif" font-size="10.00" fill="#000000">/src/PreClusterFinderMapping.h</text>
</a>
</g>
</g>
<!-- Node2&#45;&gt;Node14 -->
<g id="edge14" class="edge">
<title>Node2&#45;&gt;Node14</title>
<path fill="none" stroke="#191970" d="M1550.3702,-212.4116C1287.0275,-193.0197 650.3632,-146.1372 406.3856,-128.1713"/>
<polygon fill="#191970" stroke="#191970" points="1550.4929,-215.9301 1560.723,-213.174 1551.0071,-208.949 1550.4929,-215.9301"/>
</g>
<!-- Node16 -->
<g id="node16" class="node">
<title>Node16</title>
<g id="a_node16"><a xlink:href="../../d7/de0/MUON_2MCH_2Simulation_2src_2Digitizer_8cxx.html" target="_top" xlink:title="/home/travis/build\l/AliceO2Group/AliceO2\l/Detectors/MUON/MCH/Simulation\l/src/Digitizer.cxx">
<polygon fill="none" stroke="#000000" points="1890,-95 1890,-147 2072,-147 2072,-95 1890,-95"/>
<text text-anchor="start" x="1898" y="-135" font-family="Helvetica,sans-Serif" font-size="10.00" fill="#000000">/home/travis/build</text>
<text text-anchor="start" x="1898" y="-124" font-family="Helvetica,sans-Serif" font-size="10.00" fill="#000000">/AliceO2Group/AliceO2</text>
<text text-anchor="start" x="1898" y="-113" font-family="Helvetica,sans-Serif" font-size="10.00" fill="#000000">/Detectors/MUON/MCH/Simulation</text>
<text text-anchor="middle" x="1981" y="-102" font-family="Helvetica,sans-Serif" font-size="10.00" fill="#000000">/src/Digitizer.cxx</text>
</a>
</g>
</g>
<!-- Node2&#45;&gt;Node16 -->
<g id="edge17" class="edge">
<title>Node2&#45;&gt;Node16</title>
<path fill="none" stroke="#191970" d="M1776.2126,-186.3441C1809.8265,-175.6649 1846.9426,-163.8602 1881,-153 1887.0784,-151.0617 1893.3639,-149.0553 1899.6863,-147.0356"/>
<polygon fill="#191970" stroke="#191970" points="1774.838,-183.1084 1766.367,-189.4717 1776.9573,-189.7798 1774.838,-183.1084"/>
</g>
<!-- Node17 -->
<g id="node17" class="node">
<title>Node17</title>
<g id="a_node17"><a xlink:href="../../dc/dc3/testDigitization_8cxx.html" target="_top" xlink:title="/home/travis/build\l/AliceO2Group/AliceO2\l/Detectors/MUON/MCH/Simulation\l/test/testDigitization.cxx">
<polygon fill="none" stroke="#000000" points="2090,-95 2090,-147 2272,-147 2272,-95 2090,-95"/>
<text text-anchor="start" x="2098" y="-135" font-family="Helvetica,sans-Serif" font-size="10.00" fill="#000000">/home/travis/build</text>
<text text-anchor="start" x="2098" y="-124" font-family="Helvetica,sans-Serif" font-size="10.00" fill="#000000">/AliceO2Group/AliceO2</text>
<text text-anchor="start" x="2098" y="-113" font-family="Helvetica,sans-Serif" font-size="10.00" fill="#000000">/Detectors/MUON/MCH/Simulation</text>
<text text-anchor="middle" x="2181" y="-102" font-family="Helvetica,sans-Serif" font-size="10.00" fill="#000000">/test/testDigitization.cxx</text>
</a>
</g>
</g>
<!-- Node2&#45;&gt;Node17 -->
<g id="edge18" class="edge">
<title>Node2&#45;&gt;Node17</title>
<path fill="none" stroke="#191970" d="M1783.3782,-206.5421C1866.852,-195.0438 1981.649,-176.9184 2081,-153 2088.3546,-151.2294 2095.9527,-149.1919 2103.522,-147.0206"/>
<polygon fill="#191970" stroke="#191970" points="1782.7909,-203.0897 1773.3569,-207.9114 1783.7387,-210.0252 1782.7909,-203.0897"/>
</g>
<!-- Node4 -->
<g id="node4" class="node">
<title>Node4</title>
<g id="a_node4"><a xlink:href="../../d2/d7e/CreateSegmentation_8cxx.html" target="_top" xlink:title="/home/travis/build\l/AliceO2Group/AliceO2\l/Detectors/MUON/MCH/Mapping\l/Factory/src/CreateSegmentation.cxx">
<polygon fill="none" stroke="#000000" points="424,-.5 424,-52.5 620,-52.5 620,-.5 424,-.5"/>
<text text-anchor="start" x="432" y="-40.5" font-family="Helvetica,sans-Serif" font-size="10.00" fill="#000000">/home/travis/build</text>
<text text-anchor="start" x="432" y="-29.5" font-family="Helvetica,sans-Serif" font-size="10.00" fill="#000000">/AliceO2Group/AliceO2</text>
<text text-anchor="start" x="432" y="-18.5" font-family="Helvetica,sans-Serif" font-size="10.00" fill="#000000">/Detectors/MUON/MCH/Mapping</text>
<text text-anchor="middle" x="522" y="-7.5" font-family="Helvetica,sans-Serif" font-size="10.00" fill="#000000">/Factory/src/CreateSegmentation.cxx</text>
</a>
</g>
</g>
<!-- Node3&#45;&gt;Node4 -->
<g id="edge3" class="edge">
<title>Node3&#45;&gt;Node4</title>
<path fill="none" stroke="#191970" d="M809.3322,-95.8724C755.1924,-83.1624 688.5839,-67.4121 629,-53 626.1168,-52.3026 623.1905,-51.5925 620.2369,-50.8738"/>
<polygon fill="#191970" stroke="#191970" points="808.7565,-99.3323 819.2917,-98.2092 810.3556,-92.5173 808.7565,-99.3323"/>
</g>
<!-- Node5 -->
<g id="node5" class="node">
<title>Node5</title>
<g id="a_node5"><a xlink:href="../../d4/dbc/PreClusterFinderMapping_8cxx.html" target="_top" xlink:title="/home/travis/build\l/AliceO2Group/AliceO2\l/Detectors/MUON/MCH/PreClustering\l/src/PreClusterFinderMapping.cxx">
<polygon fill="none" stroke="#000000" points="212,-.5 212,-52.5 406,-52.5 406,-.5 212,-.5"/>
<text text-anchor="start" x="220" y="-40.5" font-family="Helvetica,sans-Serif" font-size="10.00" fill="#000000">/home/travis/build</text>
<text text-anchor="start" x="220" y="-29.5" font-family="Helvetica,sans-Serif" font-size="10.00" fill="#000000">/AliceO2Group/AliceO2</text>
<text text-anchor="start" x="220" y="-18.5" font-family="Helvetica,sans-Serif" font-size="10.00" fill="#000000">/Detectors/MUON/MCH/PreClustering</text>
<text text-anchor="middle" x="309" y="-7.5" font-family="Helvetica,sans-Serif" font-size="10.00" fill="#000000">/src/PreClusterFinderMapping.cxx</text>
</a>
</g>
</g>
<!-- Node3&#45;&gt;Node5 -->
<g id="edge4" class="edge">
<title>Node3&#45;&gt;Node5</title>
<path fill="none" stroke="#191970" d="M809.3021,-109.8922C707.2685,-98.5483 549.9911,-78.9347 415,-53 412.1126,-52.4453 409.1862,-51.8606 406.2362,-51.2515"/>
<polygon fill="#191970" stroke="#191970" points="808.9846,-113.3784 819.3085,-110.9979 809.7534,-106.4207 808.9846,-113.3784"/>
</g>
<!-- Node6 -->
<g id="node6" class="node">
<title>Node6</title>
<g id="a_node6"><a xlink:href="../../d0/d75/DataDecoderSpec_8cxx.html" target="_top" xlink:title="/home/travis/build\l/AliceO2Group/AliceO2\l/Detectors/MUON/MCH/Workflow\l/src/DataDecoderSpec.cxx">
<polygon fill="none" stroke="#000000" points="638,-.5 638,-52.5 812,-52.5 812,-.5 638,-.5"/>
<text text-anchor="start" x="646" y="-40.5" font-family="Helvetica,sans-Serif" font-size="10.00" fill="#000000">/home/travis/build</text>
<text text-anchor="start" x="646" y="-29.5" font-family="Helvetica,sans-Serif" font-size="10.00" fill="#000000">/AliceO2Group/AliceO2</text>
<text text-anchor="start" x="646" y="-18.5" font-family="Helvetica,sans-Serif" font-size="10.00" fill="#000000">/Detectors/MUON/MCH/Workflow</text>
<text text-anchor="middle" x="725" y="-7.5" font-family="Helvetica,sans-Serif" font-size="10.00" fill="#000000">/src/DataDecoderSpec.cxx</text>
</a>
</g>
</g>
<!-- Node3&#45;&gt;Node6 -->
<g id="edge5" class="edge">
<title>Node3&#45;&gt;Node6</title>
<path fill="none" stroke="#191970" d="M843.5539,-84.8507C821.711,-74.0999 798.2168,-62.5364 777.9507,-52.5617"/>
<polygon fill="#191970" stroke="#191970" points="842.2821,-88.1257 852.7998,-89.4015 845.3733,-81.8452 842.2821,-88.1257"/>
</g>
<!-- Node7 -->
<g id="node7" class="node">
<title>Node7</title>
<g id="a_node7"><a xlink:href="../../d2/d75/DigitSamplerSpec_8cxx.html" target="_top" xlink:title="Implementation of a data processor to read and send digits. ">
<polygon fill="none" stroke="#000000" points="830,-.5 830,-52.5 1004,-52.5 1004,-.5 830,-.5"/>
<text text-anchor="start" x="838" y="-40.5" font-family="Helvetica,sans-Serif" font-size="10.00" fill="#000000">/home/travis/build</text>
<text text-anchor="start" x="838" y="-29.5" font-family="Helvetica,sans-Serif" font-size="10.00" fill="#000000">/AliceO2Group/AliceO2</text>
<text text-anchor="start" x="838" y="-18.5" font-family="Helvetica,sans-Serif" font-size="10.00" fill="#000000">/Detectors/MUON/MCH/Workflow</text>
<text text-anchor="middle" x="917" y="-7.5" font-family="Helvetica,sans-Serif" font-size="10.00" fill="#000000">/src/DigitSamplerSpec.cxx</text>
</a>
</g>
</g>
<!-- Node3&#45;&gt;Node7 -->
<g id="edge6" class="edge">
<title>Node3&#45;&gt;Node7</title>
<path fill="none" stroke="#191970" d="M917,-79.2457C917,-70.2008 917,-60.8836 917,-52.6442"/>
<polygon fill="#191970" stroke="#191970" points="913.5001,-79.2699 917,-89.27 920.5001,-79.27 913.5001,-79.2699"/>
</g>
<!-- Node8 -->
<g id="node8" class="node">
<title>Node8</title>
<g id="a_node8"><a xlink:href="../../db/d1c/file-to-digits-workflow_8cxx.html" target="_top" xlink:title="/home/travis/build\l/AliceO2Group/AliceO2\l/Detectors/MUON/MCH/Workflow\l/src/file&#45;to&#45;digits&#45;workflow.cxx">
<polygon fill="none" stroke="#000000" points="1022,-.5 1022,-52.5 1196,-52.5 1196,-.5 1022,-.5"/>
<text text-anchor="start" x="1030" y="-40.5" font-family="Helvetica,sans-Serif" font-size="10.00" fill="#000000">/home/travis/build</text>
<text text-anchor="start" x="1030" y="-29.5" font-family="Helvetica,sans-Serif" font-size="10.00" fill="#000000">/AliceO2Group/AliceO2</text>
<text text-anchor="start" x="1030" y="-18.5" font-family="Helvetica,sans-Serif" font-size="10.00" fill="#000000">/Detectors/MUON/MCH/Workflow</text>
<text text-anchor="middle" x="1109" y="-7.5" font-family="Helvetica,sans-Serif" font-size="10.00" fill="#000000">/src/file&#45;to&#45;digits&#45;workflow.cxx</text>
</a>
</g>
</g>
<!-- Node3&#45;&gt;Node8 -->
<g id="edge7" class="edge">
<title>Node3&#45;&gt;Node8</title>
<path fill="none" stroke="#191970" d="M990.4461,-84.8507C1012.289,-74.0999 1035.7832,-62.5364 1056.0493,-52.5617"/>
<polygon fill="#191970" stroke="#191970" points="988.6267,-81.8452 981.2002,-89.4015 991.7179,-88.1257 988.6267,-81.8452"/>
</g>
<!-- Node9 -->
<g id="node9" class="node">
<title>Node9</title>
<g id="a_node9"><a xlink:href="../../d0/d5c/PreClusterSinkSpec_8cxx.html" target="_top" xlink:title="Implementation of a data processor to write preclusters. ">
<polygon fill="none" stroke="#000000" points="1214,-.5 1214,-52.5 1388,-52.5 1388,-.5 1214,-.5"/>
<text text-anchor="start" x="1222" y="-40.5" font-family="Helvetica,sans-Serif" font-size="10.00" fill="#000000">/home/travis/build</text>
<text text-anchor="start" x="1222" y="-29.5" font-family="Helvetica,sans-Serif" font-size="10.00" fill="#000000">/AliceO2Group/AliceO2</text>
<text text-anchor="start" x="1222" y="-18.5" font-family="Helvetica,sans-Serif" font-size="10.00" fill="#000000">/Detectors/MUON/MCH/Workflow</text>
<text text-anchor="middle" x="1301" y="-7.5" font-family="Helvetica,sans-Serif" font-size="10.00" fill="#000000">/src/PreClusterSinkSpec.cxx</text>
</a>
</g>
</g>
<!-- Node3&#45;&gt;Node9 -->
<g id="edge8" class="edge">
<title>Node3&#45;&gt;Node9</title>
<path fill="none" stroke="#191970" d="M1024.5155,-96.622C1078.7548,-84.0682 1145.4956,-68.232 1205,-53 1207.9312,-52.2497 1210.9103,-51.4781 1213.917,-50.6916"/>
<polygon fill="#191970" stroke="#191970" points="1023.4934,-93.2658 1014.5379,-98.9269 1025.0691,-100.0862 1023.4934,-93.2658"/>
</g>
<!-- Node11 -->
<g id="node11" class="node">
<title>Node11</title>
<g id="a_node11"><a xlink:href="../../de/de2/SegmentationContours_8cxx.html" target="_top" xlink:title="/home/travis/build\l/AliceO2Group/AliceO2\l/Detectors/MUON/MCH/Mapping\l/SegContour/src/SegmentationContours.cxx">
<polygon fill="none" stroke="#000000" points="1406,-.5 1406,-52.5 1634,-52.5 1634,-.5 1406,-.5"/>
<text text-anchor="start" x="1414" y="-40.5" font-family="Helvetica,sans-Serif" font-size="10.00" fill="#000000">/home/travis/build</text>
<text text-anchor="start" x="1414" y="-29.5" font-family="Helvetica,sans-Serif" font-size="10.00" fill="#000000">/AliceO2Group/AliceO2</text>
<text text-anchor="start" x="1414" y="-18.5" font-family="Helvetica,sans-Serif" font-size="10.00" fill="#000000">/Detectors/MUON/MCH/Mapping</text>
<text text-anchor="middle" x="1520" y="-7.5" font-family="Helvetica,sans-Serif" font-size="10.00" fill="#000000">/SegContour/src/SegmentationContours.cxx</text>
</a>
</g>
</g>
<!-- Node10&#45;&gt;Node11 -->
<g id="edge10" class="edge">
<title>Node10&#45;&gt;Node11</title>
<path fill="none" stroke="#191970" d="M1520,-79.2457C1520,-70.2008 1520,-60.8836 1520,-52.6442"/>
<polygon fill="#191970" stroke="#191970" points="1516.5001,-79.2699 1520,-89.27 1523.5001,-79.27 1516.5001,-79.2699"/>
</g>
<!-- Node10&#45;&gt;Node12 -->
<g id="edge11" class="edge">
<title>Node10&#45;&gt;Node12</title>
<path fill="none" stroke="#191970" d="M1602.0185,-85.2823C1626.9846,-74.4099 1653.943,-62.67 1677.1546,-52.5617"/>
<polygon fill="#191970" stroke="#191970" points="1600.3305,-82.1998 1592.5596,-89.4015 1603.1254,-88.6177 1600.3305,-82.1998"/>
</g>
<!-- Node14&#45;&gt;Node5 -->
<g id="edge16" class="edge">
<title>Node14&#45;&gt;Node5</title>
<path fill="none" stroke="#191970" d="M309,-84.6645C309,-74.0577 309,-62.6746 309,-52.8157"/>
<polygon fill="#191970" stroke="#191970" points="305.5001,-84.9273 309,-94.9273 312.5001,-84.9273 305.5001,-84.9273"/>
</g>
<!-- Node15 -->
<g id="node15" class="node">
<title>Node15</title>
<g id="a_node15"><a xlink:href="../../d8/dfc/PreClusterFinder_8cxx.html" target="_top" xlink:title="/home/travis/build\l/AliceO2Group/AliceO2\l/Detectors/MUON/MCH/PreClustering\l/src/PreClusterFinder.cxx">
<polygon fill="none" stroke="#000000" points="0,-.5 0,-52.5 194,-52.5 194,-.5 0,-.5"/>
<text text-anchor="start" x="8" y="-40.5" font-family="Helvetica,sans-Serif" font-size="10.00" fill="#000000">/home/travis/build</text>
<text text-anchor="start" x="8" y="-29.5" font-family="Helvetica,sans-Serif" font-size="10.00" fill="#000000">/AliceO2Group/AliceO2</text>
<text text-anchor="start" x="8" y="-18.5" font-family="Helvetica,sans-Serif" font-size="10.00" fill="#000000">/Detectors/MUON/MCH/PreClustering</text>
<text text-anchor="middle" x="97" y="-7.5" font-family="Helvetica,sans-Serif" font-size="10.00" fill="#000000">/src/PreClusterFinder.cxx</text>
</a>
</g>
</g>
<!-- Node14&#45;&gt;Node15 -->
<g id="edge15" class="edge">
<title>Node14&#45;&gt;Node15</title>
<path fill="none" stroke="#191970" d="M241.3303,-90.8359C213.7755,-78.5532 182.2272,-64.4904 155.6679,-52.6515"/>
<polygon fill="#191970" stroke="#191970" points="239.9502,-94.0527 250.5089,-94.9273 242.8002,-87.6591 239.9502,-94.0527"/>
</g>
</g>
</svg>
        <g id="navigator" transform="translate(0 0)" fill="#404254">
                <rect fill="#f2f5e9" fill-opacity="0.5" stroke="#606060" stroke-width=".5" x="0" y="0" width="60" height="60"/>
                <use id="zoomplus" xlink:href="#zoomPlus" x="17" y="9" onmousedown="handleZoom(evt,'in')"/>
                <use id="zoomminus" xlink:href="#zoomMin" x="42" y="9" onmousedown="handleZoom(evt,'out')"/>
                <use id="reset" xlink:href="#resetDef" x="30" y="36" onmousedown="handleReset()"/>
                <g id="arrowUp" xlink:href="#dirArrow" transform="translate(30 24)" onmousedown="handlePan(0,-1)">
                  <use xlink:href="#rim" fill="#404040">
                        <set attributeName="fill" to="#808080" begin="arrowUp.mouseover" end="arrowUp.mouseout"/>
                  </use>
                  <path fill="none" stroke="white" stroke-width="1.5" d="M0,-3.0v7 M-2.5,-0.5L0,-3.0L2.5,-0.5"/>
                </g>
                <g id="arrowRight" xlink:href="#dirArrow" transform="rotate(90) translate(36 -43)" onmousedown="handlePan(1,0)">
                  <use xlink:href="#rim" fill="#404040">
                        <set attributeName="fill" to="#808080" begin="arrowRight.mouseover" end="arrowRight.mouseout"/>
                  </use>
                  <path fill="none" stroke="white" stroke-width="1.5" d="M0,-3.0v7 M-2.5,-0.5L0,-3.0L2.5,-0.5"/>
                </g>
                <g id="arrowDown" xlink:href="#dirArrow" transform="rotate(180) translate(-30 -48)" onmousedown="handlePan(0,1)">
                  <use xlink:href="#rim" fill="#404040">
                        <set attributeName="fill" to="#808080" begin="arrowDown.mouseover" end="arrowDown.mouseout"/>
                  </use>
                  <path fill="none" stroke="white" stroke-width="1.5" d="M0,-3.0v7 M-2.5,-0.5L0,-3.0L2.5,-0.5"/>
                </g>
                <g id="arrowLeft" xlink:href="#dirArrow" transform="rotate(270) translate(-36 17)" onmousedown="handlePan(-1,0)">
                  <use xlink:href="#rim" fill="#404040">
                        <set attributeName="fill" to="#808080" begin="arrowLeft.mouseover" end="arrowLeft.mouseout"/>
                  </use>
                  <path fill="none" stroke="white" stroke-width="1.5" d="M0,-3.0v7 M-2.5,-0.5L0,-3.0L2.5,-0.5"/>
                </g>
        </g>
        <svg viewBox="0 0 15 15" width="100%" height="30px" preserveAspectRatio="xMaxYMin meet">
         <g id="arrow_out" transform="scale(0.3 0.3)">
          <a xlink:href="Segmentation_8inl__dep__incl_org.svg" target="_base">
           <rect id="button" ry="5" rx="5" y="6" x="6" height="38" width="38"
                fill="#f2f5e9" fill-opacity="0.5" stroke="#606060" stroke-width="1.0"/>
           <path id="arrow"
             d="M 11.500037,31.436501 C 11.940474,20.09759 22.043105,11.32322 32.158766,21.979434 L 37.068811,17.246167 C 37.068811,17.246167 37.088388,32 37.088388,32 L 22.160133,31.978069 C 22.160133,31.978069 26.997745,27.140456 26.997745,27.140456 C 18.528582,18.264221 13.291696,25.230495 11.500037,31.436501 z"
             style="fill:#404040;"/>
          </a>
         </g>
        </svg>
</svg>
