<?xml version="1.0" encoding="UTF-8" standalone="no"?>
<!DOCTYPE svg PUBLIC "-//W3C//DTD SVG 1.1//EN"
 "http://www.w3.org/Graphics/SVG/1.1/DTD/svg11.dtd">
<!-- Generated by graphviz version 2.40.1 (20161225.0304)
 -->
<!-- Title: /home/travis/build/AliceO2Group/AliceO2/Analysis/DataModel/src/dummy.cxx Pages: 1 -->
<!--zoomable 397 -->
<svg id="main" version="1.1" xmlns="http://www.w3.org/2000/svg" xmlns:xlink="http://www.w3.org/1999/xlink" xml:space="preserve" onload="init(evt)">
<style type="text/css"><![CDATA[
.edge:hover path { stroke: red; }
.edge:hover polygon { stroke: red; fill: red; }
]]></style>
<script type="text/javascript"><![CDATA[
var edges = document.getElementsByTagName('g');
if (edges && edges.length) {
  for (var i=0;i<edges.length;i++) {
    if (edges[i].id.substr(0,4)=='edge') {
      edges[i].setAttribute('class','edge');
    }
  }
}
]]></script>
        <defs>
                <circle id="rim" cx="0" cy="0" r="7"/>
                <circle id="rim2" cx="0" cy="0" r="3.5"/>
                <g id="zoomPlus">
                        <use xlink:href="#rim" fill="#404040">
                                <set attributeName="fill" to="#808080" begin="zoomplus.mouseover" end="zoomplus.mouseout"/>
                        </use>
                        <path d="M-4,0h8M0,-4v8" fill="none" stroke="white" stroke-width="1.5" pointer-events="none"/>
                </g>
                <g id="zoomMin">
                        <use xlink:href="#rim" fill="#404040">
                                <set attributeName="fill" to="#808080" begin="zoomminus.mouseover" end="zoomminus.mouseout"/>
                        </use>
                        <path d="M-4,0h8" fill="none" stroke="white" stroke-width="1.5" pointer-events="none"/>
                </g>
                <g id="dirArrow">
                        <path fill="none" stroke="white" stroke-width="1.5" d="M0,-3.0v7 M-2.5,-0.5L0,-3.0L2.5,-0.5"/>
                </g>
               <g id="resetDef">
                       <use xlink:href="#rim2" fill="#404040">
                               <set attributeName="fill" to="#808080" begin="reset.mouseover" end="reset.mouseout"/>
                       </use>
               </g>
        </defs>

<script type="text/javascript">
var viewWidth = 2576;
var viewHeight = 397;
var sectionId = 'dynsection-0';
</script>
<script xlink:href="../../svgpan.js"/>
<svg id="graph" class="graph">
<g id="viewport">
<title>/home/travis/build/AliceO2Group/AliceO2/Analysis/DataModel/src/dummy.cxx</title>
<!-- Node0 -->
<g id="node1" class="node">
<title>Node0</title>
<polygon fill="#bfbfbf" stroke="#000000" points="2179.5,-336.5 2179.5,-388.5 2313.5,-388.5 2313.5,-336.5 2179.5,-336.5"/>
<text text-anchor="start" x="2187.5" y="-376.5" font-family="Helvetica,sans-Serif" font-size="10.00" fill="#000000">/home/travis/build</text>
<text text-anchor="start" x="2187.5" y="-365.5" font-family="Helvetica,sans-Serif" font-size="10.00" fill="#000000">/AliceO2Group/AliceO2</text>
<text text-anchor="start" x="2187.5" y="-354.5" font-family="Helvetica,sans-Serif" font-size="10.00" fill="#000000">/Analysis/DataModel/src</text>
<text text-anchor="middle" x="2246.5" y="-343.5" font-family="Helvetica,sans-Serif" font-size="10.00" fill="#000000">/dummy.cxx</text>
</g>
<!-- Node1 -->
<g id="node2" class="node">
<title>Node1</title>
<g id="a_node2"><a xlink:href="../../dd/ddf/SecondaryVertex_8h.html" target="_top" xlink:title="Analysis/SecondaryVertex.h">
<polygon fill="none" stroke="#000000" points="2170.5,-280.5 2170.5,-299.5 2322.5,-299.5 2322.5,-280.5 2170.5,-280.5"/>
<text text-anchor="middle" x="2246.5" y="-287.5" font-family="Helvetica,sans-Serif" font-size="10.00" fill="#000000">Analysis/SecondaryVertex.h</text>
</a>
</g>
</g>
<!-- Node0&#45;&gt;Node1 -->
<g id="edge1" class="edge">
<title>Node0&#45;&gt;Node1</title>
<path fill="none" stroke="#191970" d="M2246.5,-336.3258C2246.5,-327.5142 2246.5,-317.8397 2246.5,-309.621"/>
<polygon fill="#191970" stroke="#191970" points="2250.0001,-309.534 2246.5,-299.534 2243.0001,-309.534 2250.0001,-309.534"/>
</g>
<!-- Node2 -->
<g id="node3" class="node">
<title>Node2</title>
<g id="a_node3"><a xlink:href="../../d2/d8c/AnalysisDataModel_8h.html" target="_top" xlink:title="Framework/AnalysisDataModel.h">
<polygon fill="none" stroke="#000000" points="2158.5,-224.5 2158.5,-243.5 2334.5,-243.5 2334.5,-224.5 2158.5,-224.5"/>
<text text-anchor="middle" x="2246.5" y="-231.5" font-family="Helvetica,sans-Serif" font-size="10.00" fill="#000000">Framework/AnalysisDataModel.h</text>
</a>
</g>
</g>
<!-- Node1&#45;&gt;Node2 -->
<g id="edge2" class="edge">
<title>Node1&#45;&gt;Node2</title>
<path fill="none" stroke="#191970" d="M2246.5,-280.2455C2246.5,-272.9382 2246.5,-262.6944 2246.5,-253.7046"/>
<polygon fill="#191970" stroke="#191970" points="2250.0001,-253.6426 2246.5,-243.6427 2243.0001,-253.6427 2250.0001,-253.6426"/>
</g>
<!-- Node3 -->
<g id="node4" class="node">
<title>Node3</title>
<g id="a_node4"><a xlink:href="../../de/d33/ASoA_8h.html" target="_top" xlink:title="Framework/ASoA.h">
<polygon fill="none" stroke="#000000" points="668.5,-168.5 668.5,-187.5 776.5,-187.5 776.5,-168.5 668.5,-168.5"/>
<text text-anchor="middle" x="722.5" y="-175.5" font-family="Helvetica,sans-Serif" font-size="10.00" fill="#000000">Framework/ASoA.h</text>
</a>
</g>
</g>
<!-- Node2&#45;&gt;Node3 -->
<g id="edge3" class="edge">
<title>Node2&#45;&gt;Node3</title>
<path fill="none" stroke="#191970" d="M2158.255,-230.7574C1880.4931,-220.5509 1028.306,-189.237 786.8623,-180.365"/>
<polygon fill="#191970" stroke="#191970" points="786.9617,-176.8664 776.8399,-179.9967 786.7046,-183.8617 786.9617,-176.8664"/>
</g>
<!-- Node32 -->
<g id="node33" class="node">
<title>Node32</title>
<g id="a_node33"><a xlink:href="../../d9/d52/Common_2MathUtils_2include_2MathUtils_2Utils_8h.html" target="_top" xlink:title="MathUtils/Utils.h">
<polygon fill="none" stroke="#000000" points="2197.5,-168.5 2197.5,-187.5 2295.5,-187.5 2295.5,-168.5 2197.5,-168.5"/>
<text text-anchor="middle" x="2246.5" y="-175.5" font-family="Helvetica,sans-Serif" font-size="10.00" fill="#000000">MathUtils/Utils.h</text>
</a>
</g>
</g>
<!-- Node2&#45;&gt;Node32 -->
<g id="edge42" class="edge">
<title>Node2&#45;&gt;Node32</title>
<path fill="none" stroke="#191970" d="M2246.5,-224.2455C2246.5,-216.9382 2246.5,-206.6944 2246.5,-197.7046"/>
<polygon fill="#191970" stroke="#191970" points="2250.0001,-197.6426 2246.5,-187.6427 2243.0001,-197.6427 2250.0001,-197.6426"/>
</g>
<!-- Node34 -->
<g id="node35" class="node">
<title>Node34</title>
<polygon fill="none" stroke="#bfbfbf" points="2315,-56.5 2315,-75.5 2362,-75.5 2362,-56.5 2315,-56.5"/>
<text text-anchor="middle" x="2338.5" y="-63.5" font-family="Helvetica,sans-Serif" font-size="10.00" fill="#000000">cmath</text>
</g>
<!-- Node2&#45;&gt;Node34 -->
<g id="edge53" class="edge">
<title>Node2&#45;&gt;Node34</title>
<path fill="none" stroke="#191970" d="M2300.5216,-224.4701C2382.5247,-208.7807 2532.2178,-174.9273 2563.5,-132 2568.735,-124.8162 2569.1208,-118.8862 2563.5,-112 2539.7557,-82.9102 2429.1431,-71.7246 2372.3491,-67.8446"/>
<polygon fill="#191970" stroke="#191970" points="2372.2809,-64.333 2362.0765,-67.1826 2371.8307,-71.3185 2372.2809,-64.333"/>
</g>
<!-- Node4 -->
<g id="node5" class="node">
<title>Node4</title>
<g id="a_node5"><a xlink:href="../../dd/dce/Pack_8h.html" target="_top" xlink:title="Framework/Pack.h">
<polygon fill="none" stroke="#000000" points="83,-56.5 83,-75.5 188,-75.5 188,-56.5 83,-56.5"/>
<text text-anchor="middle" x="135.5" y="-63.5" font-family="Helvetica,sans-Serif" font-size="10.00" fill="#000000">Framework/Pack.h</text>
</a>
</g>
</g>
<!-- Node3&#45;&gt;Node4 -->
<g id="edge4" class="edge">
<title>Node3&#45;&gt;Node4</title>
<path fill="none" stroke="#191970" d="M668.175,-171.1556C622.2891,-164.3512 555.3226,-151.995 499.5,-132 481.5326,-125.5643 479.677,-117.8176 461.5,-112 351.3924,-76.7598 315.979,-92.6804 198.1908,-76.1804"/>
<polygon fill="#191970" stroke="#191970" points="198.4571,-72.6824 188.0581,-74.7101 197.4518,-79.6099 198.4571,-72.6824"/>
</g>
<!-- Node8 -->
<g id="node9" class="node">
<title>Node8</title>
<g id="a_node9"><a xlink:href="../../d1/d00/CheckTypes_8h.html" target="_top" xlink:title="Framework/CheckTypes.h">
<polygon fill="none" stroke="#000000" points="1223.5,-56.5 1223.5,-75.5 1363.5,-75.5 1363.5,-56.5 1223.5,-56.5"/>
<text text-anchor="middle" x="1293.5" y="-63.5" font-family="Helvetica,sans-Serif" font-size="10.00" fill="#000000">Framework/CheckTypes.h</text>
</a>
</g>
</g>
<!-- Node3&#45;&gt;Node8 -->
<g id="edge8" class="edge">
<title>Node3&#45;&gt;Node8</title>
<path fill="none" stroke="#191970" d="M776.6424,-168.4956C827.7204,-159.4395 906.4009,-145.2582 974.5,-132 1067.5757,-113.8791 1175.5686,-91.1836 1239.0136,-77.6789"/>
<polygon fill="#191970" stroke="#191970" points="1240.1342,-81.0187 1249.1851,-75.5112 1238.6752,-74.1724 1240.1342,-81.0187"/>
</g>
<!-- Node9 -->
<g id="node10" class="node">
<title>Node9</title>
<g id="a_node10"><a xlink:href="../../de/d9b/FunctionalHelpers_8h.html" target="_top" xlink:title="Framework/FunctionalHelpers.h">
<polygon fill="none" stroke="#000000" points="282.5,-112.5 282.5,-131.5 452.5,-131.5 452.5,-112.5 282.5,-112.5"/>
<text text-anchor="middle" x="367.5" y="-119.5" font-family="Helvetica,sans-Serif" font-size="10.00" fill="#000000">Framework/FunctionalHelpers.h</text>
</a>
</g>
</g>
<!-- Node3&#45;&gt;Node9 -->
<g id="edge9" class="edge">
<title>Node3&#45;&gt;Node9</title>
<path fill="none" stroke="#191970" d="M668.1967,-169.4338C606.4913,-159.7 505.5902,-143.7832 437.8917,-133.104"/>
<polygon fill="#191970" stroke="#191970" points="438.1614,-129.6034 427.7382,-131.5024 437.0706,-136.5179 438.1614,-129.6034"/>
</g>
<!-- Node11 -->
<g id="node12" class="node">
<title>Node11</title>
<g id="a_node12"><a xlink:href="../../d9/de8/CompilerBuiltins_8h.html" target="_top" xlink:title="Framework/CompilerBuiltins.h">
<polygon fill="none" stroke="#000000" points="293.5,-56.5 293.5,-75.5 457.5,-75.5 457.5,-56.5 293.5,-56.5"/>
<text text-anchor="middle" x="375.5" y="-63.5" font-family="Helvetica,sans-Serif" font-size="10.00" fill="#000000">Framework/CompilerBuiltins.h</text>
</a>
</g>
</g>
<!-- Node3&#45;&gt;Node11 -->
<g id="edge12" class="edge">
<title>Node3&#45;&gt;Node11</title>
<path fill="none" stroke="#191970" d="M709.8449,-168.3036C688.0722,-151.7939 644.165,-119.2979 626.5,-112 596.2467,-99.5015 517.2855,-86.1048 455.9293,-77.0114"/>
<polygon fill="#191970" stroke="#191970" points="456.2595,-73.5225 445.8573,-75.5336 455.2433,-80.4483 456.2595,-73.5225"/>
</g>
<!-- Node12 -->
<g id="node13" class="node">
<title>Node12</title>
<g id="a_node13"><a xlink:href="../../db/d31/Traits_8h.html" target="_top" xlink:title="Framework/Traits.h">
<polygon fill="none" stroke="#000000" points="509,-112.5 509,-131.5 618,-131.5 618,-112.5 509,-112.5"/>
<text text-anchor="middle" x="563.5" y="-119.5" font-family="Helvetica,sans-Serif" font-size="10.00" fill="#000000">Framework/Traits.h</text>
</a>
</g>
</g>
<!-- Node3&#45;&gt;Node12 -->
<g id="edge13" class="edge">
<title>Node3&#45;&gt;Node12</title>
<path fill="none" stroke="#191970" d="M695.1669,-168.3733C668.9566,-159.1419 629.2016,-145.1402 600.2332,-134.9375"/>
<polygon fill="#191970" stroke="#191970" points="601.0712,-131.5219 590.4764,-131.5011 598.7458,-138.1244 601.0712,-131.5219"/>
</g>
<!-- Node14 -->
<g id="node15" class="node">
<title>Node14</title>
<g id="a_node15"><a xlink:href="../../d0/d91/Expressions_8h.html" target="_top" xlink:title="Framework/Expressions.h">
<polygon fill="none" stroke="#000000" points="825,-112.5 825,-131.5 966,-131.5 966,-112.5 825,-112.5"/>
<text text-anchor="middle" x="895.5" y="-119.5" font-family="Helvetica,sans-Serif" font-size="10.00" fill="#000000">Framework/Expressions.h</text>
</a>
</g>
</g>
<!-- Node3&#45;&gt;Node14 -->
<g id="edge15" class="edge">
<title>Node3&#45;&gt;Node14</title>
<path fill="none" stroke="#191970" d="M752.2398,-168.3733C781.007,-159.0613 824.77,-144.8953 856.3556,-134.671"/>
<polygon fill="#191970" stroke="#191970" points="857.7122,-137.9107 866.1483,-131.5011 855.5564,-131.251 857.7122,-137.9107"/>
</g>
<!-- Node17 -->
<g id="node18" class="node">
<title>Node17</title>
<polygon fill="none" stroke="#bfbfbf" points="476,-56.5 476,-75.5 557,-75.5 557,-56.5 476,-56.5"/>
<text text-anchor="middle" x="516.5" y="-63.5" font-family="Helvetica,sans-Serif" font-size="10.00" fill="#000000">arrow/table.h</text>
</g>
<!-- Node3&#45;&gt;Node17 -->
<g id="edge35" class="edge">
<title>Node3&#45;&gt;Node17</title>
<path fill="none" stroke="#191970" d="M716.019,-168.4715C705.826,-154.1861 684.6976,-127.2693 660.5,-112 644.1177,-101.6624 598.7461,-87.9512 563.2658,-78.1945"/>
<polygon fill="#191970" stroke="#191970" points="564.1211,-74.8001 553.5531,-75.5536 562.2844,-81.5548 564.1211,-74.8001"/>
</g>
<!-- Node18 -->
<g id="node19" class="node">
<title>Node18</title>
<polygon fill="none" stroke="#bfbfbf" points="575,-56.5 575,-75.5 722,-75.5 722,-56.5 575,-56.5"/>
<text text-anchor="middle" x="648.5" y="-63.5" font-family="Helvetica,sans-Serif" font-size="10.00" fill="#000000">gandiva/selection_vector.h</text>
</g>
<!-- Node3&#45;&gt;Node18 -->
<g id="edge40" class="edge">
<title>Node3&#45;&gt;Node18</title>
<path fill="none" stroke="#191970" d="M720.5259,-168.3819C717.4378,-154.9128 710.5366,-130.0587 698.5,-112 690.9103,-100.6131 679.9309,-90.0996 670.1927,-82.0065"/>
<polygon fill="#191970" stroke="#191970" points="672.0785,-79.0347 662.071,-75.5563 667.7251,-84.5163 672.0785,-79.0347"/>
</g>
<!-- Node24 -->
<g id="node25" class="node">
<title>Node24</title>
<g id="a_node25"><a xlink:href="../../d0/d92/Kernels_8h.html" target="_top" xlink:title="Framework/Kernels.h">
<polygon fill="none" stroke="#000000" points="1516,-112.5 1516,-131.5 1635,-131.5 1635,-112.5 1516,-112.5"/>
<text text-anchor="middle" x="1575.5" y="-119.5" font-family="Helvetica,sans-Serif" font-size="10.00" fill="#000000">Framework/Kernels.h</text>
</a>
</g>
</g>
<!-- Node3&#45;&gt;Node24 -->
<g id="edge28" class="edge">
<title>Node3&#45;&gt;Node24</title>
<path fill="none" stroke="#191970" d="M776.9298,-175.0051C898.8472,-168.2064 1203.1207,-150.7367 1457.5,-132 1473.0582,-130.854 1489.7602,-129.5089 1505.5612,-128.1833"/>
<polygon fill="#191970" stroke="#191970" points="1506.1243,-131.6482 1515.7934,-127.3173 1505.5339,-124.6731 1506.1243,-131.6482"/>
</g>
<!-- Node25 -->
<g id="node26" class="node">
<title>Node25</title>
<polygon fill="none" stroke="#bfbfbf" points="1956,-56.5 1956,-75.5 2089,-75.5 2089,-56.5 1956,-56.5"/>
<text text-anchor="middle" x="2022.5" y="-63.5" font-family="Helvetica,sans-Serif" font-size="10.00" fill="#000000">arrow/compute/kernel.h</text>
</g>
<!-- Node3&#45;&gt;Node25 -->
<g id="edge39" class="edge">
<title>Node3&#45;&gt;Node25</title>
<path fill="none" stroke="#191970" d="M776.5601,-176.6635C961.3359,-171.9077 1560.977,-154.8609 1644.5,-132 1662.9082,-126.9615 1664.3214,-117.8126 1682.5,-112 1685.6326,-110.9984 1846.3924,-89.4683 1945.7098,-76.2228"/>
<polygon fill="#191970" stroke="#191970" points="1946.2666,-79.6797 1955.7163,-74.8886 1945.3414,-72.7411 1946.2666,-79.6797"/>
</g>
<!-- Node28 -->
<g id="node29" class="node">
<title>Node28</title>
<polygon fill="none" stroke="#bfbfbf" points="1589.5,-56.5 1589.5,-75.5 1699.5,-75.5 1699.5,-56.5 1589.5,-56.5"/>
<text text-anchor="middle" x="1644.5" y="-63.5" font-family="Helvetica,sans-Serif" font-size="10.00" fill="#000000">arrow/util/variant.h</text>
</g>
<!-- Node3&#45;&gt;Node28 -->
<g id="edge37" class="edge">
<title>Node3&#45;&gt;Node28</title>
<path fill="none" stroke="#191970" d="M776.7959,-172.2446C911.0444,-157.8638 1269.5266,-118.5471 1579.2875,-76.1298"/>
<polygon fill="#191970" stroke="#191970" points="1579.9299,-79.5745 1589.3609,-74.7469 1578.9778,-72.6395 1579.9299,-79.5745"/>
</g>
<!-- Node29 -->
<g id="node30" class="node">
<title>Node29</title>
<polygon fill="none" stroke="#bfbfbf" points="1691.5,-112.5 1691.5,-131.5 1771.5,-131.5 1771.5,-112.5 1691.5,-112.5"/>
<text text-anchor="middle" x="1731.5" y="-119.5" font-family="Helvetica,sans-Serif" font-size="10.00" fill="#000000">arrow/array.h</text>
</g>
<!-- Node3&#45;&gt;Node29 -->
<g id="edge36" class="edge">
<title>Node3&#45;&gt;Node29</title>
<path fill="none" stroke="#191970" d="M776.6282,-176.3559C951.6236,-170.8891 1500.9726,-152.5016 1677.5,-132 1678.7785,-131.8515 1680.0724,-131.6909 1681.3764,-131.5198"/>
<polygon fill="#191970" stroke="#191970" points="1682.1029,-134.9507 1691.4865,-130.0315 1681.0834,-128.0253 1682.1029,-134.9507"/>
</g>
<!-- Node30 -->
<g id="node31" class="node">
<title>Node30</title>
<polygon fill="none" stroke="#bfbfbf" points="55,-112.5 55,-131.5 194,-131.5 194,-112.5 55,-112.5"/>
<text text-anchor="middle" x="124.5" y="-119.5" font-family="Helvetica,sans-Serif" font-size="10.00" fill="#000000">arrow/compute/context.h</text>
</g>
<!-- Node3&#45;&gt;Node30 -->
<g id="edge38" class="edge">
<title>Node3&#45;&gt;Node30</title>
<path fill="none" stroke="#191970" d="M668.2643,-173.8667C575.5134,-166.6503 380.2298,-150.8143 204.2308,-132.0435"/>
<polygon fill="#191970" stroke="#191970" points="204.5864,-128.5617 194.2702,-130.9758 203.8402,-135.5218 204.5864,-128.5617"/>
</g>
<!-- Node31 -->
<g id="node32" class="node">
<title>Node31</title>
<polygon fill="none" stroke="#bfbfbf" points="212.5,-112.5 212.5,-131.5 264.5,-131.5 264.5,-112.5 212.5,-112.5"/>
<text text-anchor="middle" x="238.5" y="-119.5" font-family="Helvetica,sans-Serif" font-size="10.00" fill="#000000">cassert</text>
</g>
<!-- Node3&#45;&gt;Node31 -->
<g id="edge41" class="edge">
<title>Node3&#45;&gt;Node31</title>
<path fill="none" stroke="#191970" d="M668.4895,-175.5437C585.6124,-171.1015 422.0626,-159.6754 274.8722,-131.9734"/>
<polygon fill="#191970" stroke="#191970" points="275.2328,-128.479 264.7533,-130.038 273.9177,-135.3544 275.2328,-128.479"/>
</g>
<!-- Node5 -->
<g id="node6" class="node">
<title>Node5</title>
<polygon fill="none" stroke="#bfbfbf" points="177,-.5 177,-19.5 230,-19.5 230,-.5 177,-.5"/>
<text text-anchor="middle" x="203.5" y="-7.5" font-family="Helvetica,sans-Serif" font-size="10.00" fill="#000000">cstddef</text>
</g>
<!-- Node4&#45;&gt;Node5 -->
<g id="edge5" class="edge">
<title>Node4&#45;&gt;Node5</title>
<path fill="none" stroke="#191970" d="M147.3447,-56.2455C157.388,-47.9746 171.9995,-35.9416 183.8004,-26.2232"/>
<polygon fill="#191970" stroke="#191970" points="186.2967,-28.7015 191.791,-19.6427 181.8467,-23.298 186.2967,-28.7015"/>
</g>
<!-- Node6 -->
<g id="node7" class="node">
<title>Node6</title>
<polygon fill="none" stroke="#bfbfbf" points="49,-.5 49,-19.5 94,-19.5 94,-.5 49,-.5"/>
<text text-anchor="middle" x="71.5" y="-7.5" font-family="Helvetica,sans-Serif" font-size="10.00" fill="#000000">utility</text>
</g>
<!-- Node4&#45;&gt;Node6 -->
<g id="edge6" class="edge">
<title>Node4&#45;&gt;Node6</title>
<path fill="none" stroke="#191970" d="M124.3521,-56.2455C114.9913,-48.0549 101.4142,-36.1749 90.3651,-26.5069"/>
<polygon fill="#191970" stroke="#191970" points="92.3508,-23.5937 82.5202,-19.6427 87.7412,-28.8618 92.3508,-23.5937"/>
</g>
<!-- Node7 -->
<g id="node8" class="node">
<title>Node7</title>
<polygon fill="none" stroke="#bfbfbf" points="112.5,-.5 112.5,-19.5 158.5,-19.5 158.5,-.5 112.5,-.5"/>
<text text-anchor="middle" x="135.5" y="-7.5" font-family="Helvetica,sans-Serif" font-size="10.00" fill="#000000">cstdio</text>
</g>
<!-- Node4&#45;&gt;Node7 -->
<g id="edge7" class="edge">
<title>Node4&#45;&gt;Node7</title>
<path fill="none" stroke="#191970" d="M135.5,-56.2455C135.5,-48.9382 135.5,-38.6944 135.5,-29.7046"/>
<polygon fill="#191970" stroke="#191970" points="139.0001,-29.6426 135.5,-19.6427 132.0001,-29.6427 139.0001,-29.6426"/>
</g>
<!-- Node9&#45;&gt;Node4 -->
<g id="edge10" class="edge">
<title>Node9&#45;&gt;Node4</title>
<path fill="none" stroke="#191970" d="M327.8814,-112.4369C288.3432,-102.8932 227.4931,-88.2052 184.8418,-77.9101"/>
<polygon fill="#191970" stroke="#191970" points="185.4973,-74.4679 174.9552,-75.5237 183.8548,-81.2724 185.4973,-74.4679"/>
</g>
<!-- Node10 -->
<g id="node11" class="node">
<title>Node10</title>
<polygon fill="none" stroke="#bfbfbf" points="0,-56.5 0,-75.5 65,-75.5 65,-56.5 0,-56.5"/>
<text text-anchor="middle" x="32.5" y="-63.5" font-family="Helvetica,sans-Serif" font-size="10.00" fill="#000000">functional</text>
</g>
<!-- Node9&#45;&gt;Node10 -->
<g id="edge11" class="edge">
<title>Node9&#45;&gt;Node10</title>
<path fill="none" stroke="#191970" d="M295.6117,-112.4724C238.2362,-104.4727 155.6172,-92.0731 74.9452,-76.1738"/>
<polygon fill="#191970" stroke="#191970" points="75.6095,-72.7375 65.1186,-74.2176 74.2428,-79.6028 75.6095,-72.7375"/>
</g>
<!-- Node13 -->
<g id="node14" class="node">
<title>Node13</title>
<polygon fill="none" stroke="#bfbfbf" points="206,-56.5 206,-75.5 275,-75.5 275,-56.5 206,-56.5"/>
<text text-anchor="middle" x="240.5" y="-63.5" font-family="Helvetica,sans-Serif" font-size="10.00" fill="#000000">type_traits</text>
</g>
<!-- Node12&#45;&gt;Node13 -->
<g id="edge14" class="edge">
<title>Node12&#45;&gt;Node13</title>
<path fill="none" stroke="#191970" d="M508.7958,-113.9745C454.5645,-105.7946 368.8962,-92.273 285.0004,-76.0027"/>
<polygon fill="#191970" stroke="#191970" points="285.5312,-72.5403 275.0456,-74.0574 284.1886,-79.4104 285.5312,-72.5403"/>
</g>
<!-- Node14&#45;&gt;Node4 -->
<g id="edge18" class="edge">
<title>Node14&#45;&gt;Node4</title>
<path fill="none" stroke="#191970" d="M824.8535,-119.6124C700.259,-114.9052 433.1672,-102.5944 198.1347,-76.093"/>
<polygon fill="#191970" stroke="#191970" points="198.3592,-72.596 188.0274,-74.9422 197.5672,-79.5511 198.3592,-72.596"/>
</g>
<!-- Node14&#45;&gt;Node8 -->
<g id="edge19" class="edge">
<title>Node14&#45;&gt;Node8</title>
<path fill="none" stroke="#191970" d="M963.4664,-112.4369C1033.4413,-102.5912 1142.3278,-87.2705 1215.7037,-76.9462"/>
<polygon fill="#191970" stroke="#191970" points="1216.3991,-80.3829 1225.8139,-75.5237 1215.4238,-73.4512 1216.3991,-80.3829"/>
</g>
<!-- Node14&#45;&gt;Node11 -->
<g id="edge17" class="edge">
<title>Node14&#45;&gt;Node11</title>
<path fill="none" stroke="#191970" d="M824.8953,-114.4869C742.0277,-105.6559 600.1564,-90.4968 468.1358,-76.1755"/>
<polygon fill="#191970" stroke="#191970" points="468.1581,-72.6575 457.8388,-75.058 467.4028,-79.6166 468.1581,-72.6575"/>
</g>
<!-- Node15 -->
<g id="node16" class="node">
<title>Node15</title>
<g id="a_node16"><a xlink:href="../../dd/dc2/BasicOps_8h.html" target="_top" xlink:title="Framework/BasicOps.h">
<polygon fill="none" stroke="#000000" points="1443.5,-56.5 1443.5,-75.5 1571.5,-75.5 1571.5,-56.5 1443.5,-56.5"/>
<text text-anchor="middle" x="1507.5" y="-63.5" font-family="Helvetica,sans-Serif" font-size="10.00" fill="#000000">Framework/BasicOps.h</text>
</a>
</g>
</g>
<!-- Node14&#45;&gt;Node15 -->
<g id="edge16" class="edge">
<title>Node14&#45;&gt;Node15</title>
<path fill="none" stroke="#191970" d="M966.2434,-117.1183C1067.4042,-109.8804 1259.4597,-95.1866 1433.3247,-76.0826"/>
<polygon fill="#191970" stroke="#191970" points="1433.8743,-79.5432 1443.4289,-74.965 1433.1047,-72.5857 1433.8743,-79.5432"/>
</g>
<!-- Node16 -->
<g id="node17" class="node">
<title>Node16</title>
<polygon fill="none" stroke="#bfbfbf" points="1104,-56.5 1104,-75.5 1205,-75.5 1205,-56.5 1104,-56.5"/>
<text text-anchor="middle" x="1154.5" y="-63.5" font-family="Helvetica,sans-Serif" font-size="10.00" fill="#000000">arrow/type_fwd.h</text>
</g>
<!-- Node14&#45;&gt;Node16 -->
<g id="edge20" class="edge">
<title>Node14&#45;&gt;Node16</title>
<path fill="none" stroke="#191970" d="M939.7294,-112.4369C984.2415,-102.8127 1052.949,-87.957 1100.6169,-77.6504"/>
<polygon fill="#191970" stroke="#191970" points="1101.4186,-81.058 1110.453,-75.5237 1099.9392,-74.2161 1101.4186,-81.058"/>
</g>
<!-- Node14&#45;&gt;Node17 -->
<g id="edge21" class="edge">
<title>Node14&#45;&gt;Node17</title>
<path fill="none" stroke="#191970" d="M824.8121,-113.4518C760.1446,-105.3338 661.5995,-92.2178 567.1188,-76.2024"/>
<polygon fill="#191970" stroke="#191970" points="567.5516,-72.7257 557.1049,-74.4912 566.3725,-79.6257 567.5516,-72.7257"/>
</g>
<!-- Node14&#45;&gt;Node18 -->
<g id="edge22" class="edge">
<title>Node14&#45;&gt;Node18</title>
<path fill="none" stroke="#191970" d="M853.3198,-112.4369C811.0477,-102.8529 745.8938,-88.0812 700.4583,-77.78"/>
<polygon fill="#191970" stroke="#191970" points="701.0326,-74.3215 690.5062,-75.5237 699.4848,-81.1482 701.0326,-74.3215"/>
</g>
<!-- Node19 -->
<g id="node20" class="node">
<title>Node19</title>
<polygon fill="none" stroke="#bfbfbf" points="740.5,-56.5 740.5,-75.5 832.5,-75.5 832.5,-56.5 740.5,-56.5"/>
<text text-anchor="middle" x="786.5" y="-63.5" font-family="Helvetica,sans-Serif" font-size="10.00" fill="#000000">gandiva/node.h</text>
</g>
<!-- Node14&#45;&gt;Node19 -->
<g id="edge23" class="edge">
<title>Node14&#45;&gt;Node19</title>
<path fill="none" stroke="#191970" d="M876.5136,-112.2455C859.3208,-103.4125 833.7762,-90.2887 814.2868,-80.2758"/>
<polygon fill="#191970" stroke="#191970" points="815.763,-77.0993 805.2688,-75.6427 812.5641,-83.3257 815.763,-77.0993"/>
</g>
<!-- Node20 -->
<g id="node21" class="node">
<title>Node20</title>
<polygon fill="none" stroke="#bfbfbf" points="851,-56.5 851,-75.5 940,-75.5 940,-56.5 851,-56.5"/>
<text text-anchor="middle" x="895.5" y="-63.5" font-family="Helvetica,sans-Serif" font-size="10.00" fill="#000000">gandiva/filter.h</text>
</g>
<!-- Node14&#45;&gt;Node20 -->
<g id="edge24" class="edge">
<title>Node14&#45;&gt;Node20</title>
<path fill="none" stroke="#191970" d="M895.5,-112.2455C895.5,-104.9382 895.5,-94.6944 895.5,-85.7046"/>
<polygon fill="#191970" stroke="#191970" points="899.0001,-85.6426 895.5,-75.6427 892.0001,-85.6427 899.0001,-85.6426"/>
</g>
<!-- Node21 -->
<g id="node22" class="node">
<title>Node21</title>
<polygon fill="none" stroke="#bfbfbf" points="958,-56.5 958,-75.5 1009,-75.5 1009,-56.5 958,-56.5"/>
<text text-anchor="middle" x="983.5" y="-63.5" font-family="Helvetica,sans-Serif" font-size="10.00" fill="#000000">variant</text>
</g>
<!-- Node14&#45;&gt;Node21 -->
<g id="edge25" class="edge">
<title>Node14&#45;&gt;Node21</title>
<path fill="none" stroke="#191970" d="M910.8284,-112.2455C924.3303,-103.6534 944.2122,-91.0014 959.7686,-81.1018"/>
<polygon fill="#191970" stroke="#191970" points="961.7897,-83.9643 968.3472,-75.6427 958.0315,-78.0587 961.7897,-83.9643"/>
</g>
<!-- Node22 -->
<g id="node23" class="node">
<title>Node22</title>
<polygon fill="none" stroke="#bfbfbf" points="1381.5,-56.5 1381.5,-75.5 1425.5,-75.5 1425.5,-56.5 1381.5,-56.5"/>
<text text-anchor="middle" x="1403.5" y="-63.5" font-family="Helvetica,sans-Serif" font-size="10.00" fill="#000000">string</text>
</g>
<!-- Node14&#45;&gt;Node22 -->
<g id="edge26" class="edge">
<title>Node14&#45;&gt;Node22</title>
<path fill="none" stroke="#191970" d="M966.1241,-119.9449C1057.7578,-116.2242 1222.521,-105.9423 1371.089,-75.897"/>
<polygon fill="#191970" stroke="#191970" points="1372.2143,-79.2388 1381.3032,-73.7944 1370.8029,-72.3825 1372.2143,-79.2388"/>
</g>
<!-- Node23 -->
<g id="node24" class="node">
<title>Node23</title>
<polygon fill="none" stroke="#bfbfbf" points="1027.5,-56.5 1027.5,-75.5 1085.5,-75.5 1085.5,-56.5 1027.5,-56.5"/>
<text text-anchor="middle" x="1056.5" y="-63.5" font-family="Helvetica,sans-Serif" font-size="10.00" fill="#000000">memory</text>
</g>
<!-- Node14&#45;&gt;Node23 -->
<g id="edge27" class="edge">
<title>Node14&#45;&gt;Node23</title>
<path fill="none" stroke="#191970" d="M923.1769,-112.3733C949.8328,-103.1016 990.3238,-89.0178 1019.6884,-78.804"/>
<polygon fill="#191970" stroke="#191970" points="1020.8891,-82.0921 1029.1843,-75.5011 1018.5895,-75.4807 1020.8891,-82.0921"/>
</g>
<!-- Node24&#45;&gt;Node15 -->
<g id="edge29" class="edge">
<title>Node24&#45;&gt;Node15</title>
<path fill="none" stroke="#191970" d="M1563.6553,-112.2455C1553.612,-103.9746 1539.0005,-91.9416 1527.1996,-82.2232"/>
<polygon fill="#191970" stroke="#191970" points="1529.1533,-79.298 1519.209,-75.6427 1524.7033,-84.7015 1529.1533,-79.298"/>
</g>
<!-- Node24&#45;&gt;Node22 -->
<g id="edge34" class="edge">
<title>Node24&#45;&gt;Node22</title>
<path fill="none" stroke="#191970" d="M1545.9321,-112.3733C1515.0777,-102.3276 1466.8725,-86.6329 1435.2343,-76.3321"/>
<polygon fill="#191970" stroke="#191970" points="1436.1796,-72.9591 1425.5873,-73.1912 1434.0124,-79.6152 1436.1796,-72.9591"/>
</g>
<!-- Node24&#45;&gt;Node25 -->
<g id="edge30" class="edge">
<title>Node24&#45;&gt;Node25</title>
<path fill="none" stroke="#191970" d="M1635.2652,-113.8522C1640.0802,-113.2175 1644.8708,-112.5933 1649.5,-112 1778.1674,-95.509 1812.9036,-92.8002 1945.6257,-76.0991"/>
<polygon fill="#191970" stroke="#191970" points="1946.2936,-79.5426 1955.7769,-74.8185 1945.4174,-72.5977 1946.2936,-79.5426"/>
</g>
<!-- Node26 -->
<g id="node27" class="node">
<title>Node26</title>
<polygon fill="none" stroke="#bfbfbf" points="1717.5,-56.5 1717.5,-75.5 1803.5,-75.5 1803.5,-56.5 1717.5,-56.5"/>
<text text-anchor="middle" x="1760.5" y="-63.5" font-family="Helvetica,sans-Serif" font-size="10.00" fill="#000000">arrow/status.h</text>
</g>
<!-- Node24&#45;&gt;Node26 -->
<g id="edge31" class="edge">
<title>Node24&#45;&gt;Node26</title>
<path fill="none" stroke="#191970" d="M1607.3026,-112.3733C1638.3317,-102.9807 1685.6754,-88.6496 1719.5147,-78.4064"/>
<polygon fill="#191970" stroke="#191970" points="1720.5553,-81.7483 1729.1124,-75.5011 1718.5272,-75.0485 1720.5553,-81.7483"/>
</g>
<!-- Node27 -->
<g id="node28" class="node">
<title>Node27</title>
<polygon fill="none" stroke="#bfbfbf" points="1821.5,-56.5 1821.5,-75.5 1937.5,-75.5 1937.5,-56.5 1821.5,-56.5"/>
<text text-anchor="middle" x="1879.5" y="-63.5" font-family="Helvetica,sans-Serif" font-size="10.00" fill="#000000">arrow/util/visibility.h</text>
</g>
<!-- Node24&#45;&gt;Node27 -->
<g id="edge32" class="edge">
<title>Node24&#45;&gt;Node27</title>
<path fill="none" stroke="#191970" d="M1627.414,-112.4369C1680.0971,-102.7321 1761.6568,-87.708 1817.6543,-77.3926"/>
<polygon fill="#191970" stroke="#191970" points="1818.5996,-80.7775 1827.8001,-75.5237 1817.3314,-73.8933 1818.5996,-80.7775"/>
</g>
<!-- Node24&#45;&gt;Node28 -->
<g id="edge33" class="edge">
<title>Node24&#45;&gt;Node28</title>
<path fill="none" stroke="#191970" d="M1587.5189,-112.2455C1597.7098,-103.9746 1612.5362,-91.9416 1624.5107,-82.2232"/>
<polygon fill="#191970" stroke="#191970" points="1627.0598,-84.662 1632.6188,-75.6427 1622.6486,-79.2268 1627.0598,-84.662"/>
</g>
<!-- Node33 -->
<g id="node34" class="node">
<title>Node33</title>
<polygon fill="none" stroke="#bfbfbf" points="2090.5,-112.5 2090.5,-131.5 2132.5,-131.5 2132.5,-112.5 2090.5,-112.5"/>
<text text-anchor="middle" x="2111.5" y="-119.5" font-family="Helvetica,sans-Serif" font-size="10.00" fill="#000000">array</text>
</g>
<!-- Node32&#45;&gt;Node33 -->
<g id="edge43" class="edge">
<title>Node32&#45;&gt;Node33</title>
<path fill="none" stroke="#191970" d="M2223.2927,-168.3733C2200.7977,-159.042 2166.5523,-144.8365 2141.8931,-134.6075"/>
<polygon fill="#191970" stroke="#191970" points="2143.2076,-131.3636 2132.6297,-130.7649 2140.5254,-137.8294 2143.2076,-131.3636"/>
</g>
<!-- Node32&#45;&gt;Node34 -->
<g id="edge44" class="edge">
<title>Node32&#45;&gt;Node34</title>
<path fill="none" stroke="#191970" d="M2266.5467,-168.4665C2281.3221,-160.5378 2300.9529,-147.9807 2313.5,-132 2324.1276,-118.4641 2330.6189,-99.9143 2334.3136,-85.9267"/>
<polygon fill="#191970" stroke="#191970" points="2337.7966,-86.4082 2336.7027,-75.87 2330.9861,-84.7902 2337.7966,-86.4082"/>
</g>
<!-- Node35 -->
<g id="node36" class="node">
<title>Node35</title>
<g id="a_node36"><a xlink:href="../../df/d21/GPUCommonDef_8h.html" target="_top" xlink:title="GPUCommonDef.h">
<polygon fill="none" stroke="#000000" points="2107,-56.5 2107,-75.5 2214,-75.5 2214,-56.5 2107,-56.5"/>
<text text-anchor="middle" x="2160.5" y="-63.5" font-family="Helvetica,sans-Serif" font-size="10.00" fill="#000000">GPUCommonDef.h</text>
</a>
</g>
</g>
<!-- Node32&#45;&gt;Node35 -->
<g id="edge45" class="edge">
<title>Node32&#45;&gt;Node35</title>
<path fill="none" stroke="#191970" d="M2226.1348,-168.4702C2211.4555,-160.6193 2192.2372,-148.1598 2180.5,-132 2170.6177,-118.3939 2165.5589,-99.8509 2163.0055,-85.8838"/>
<polygon fill="#191970" stroke="#191970" points="2166.4401,-85.1916 2161.4506,-75.8452 2159.5226,-86.2631 2166.4401,-85.1916"/>
</g>
<!-- Node38 -->
<g id="node39" class="node">
<title>Node38</title>
<g id="a_node39"><a xlink:href="../../d6/da2/GPUCommonMath_8h.html" target="_top" xlink:title="GPUCommonMath.h">
<polygon fill="none" stroke="#000000" points="2189,-112.5 2189,-131.5 2304,-131.5 2304,-112.5 2189,-112.5"/>
<text text-anchor="middle" x="2246.5" y="-119.5" font-family="Helvetica,sans-Serif" font-size="10.00" fill="#000000">GPUCommonMath.h</text>
</a>
</g>
</g>
<!-- Node32&#45;&gt;Node38 -->
<g id="edge48" class="edge">
<title>Node32&#45;&gt;Node38</title>
<path fill="none" stroke="#191970" d="M2246.5,-168.2455C2246.5,-160.9382 2246.5,-150.6944 2246.5,-141.7046"/>
<polygon fill="#191970" stroke="#191970" points="2250.0001,-141.6426 2246.5,-131.6427 2243.0001,-141.6427 2250.0001,-141.6426"/>
</g>
<!-- Node40 -->
<g id="node41" class="node">
<title>Node40</title>
<g id="a_node41"><a xlink:href="../../d6/d84/MathConstants_8h.html" target="_top" xlink:title="useful math constants ">
<polygon fill="none" stroke="#000000" points="2360.5,-112.5 2360.5,-131.5 2554.5,-131.5 2554.5,-112.5 2360.5,-112.5"/>
<text text-anchor="middle" x="2457.5" y="-119.5" font-family="Helvetica,sans-Serif" font-size="10.00" fill="#000000">CommonConstants/MathConstants.h</text>
</a>
</g>
</g>
<!-- Node32&#45;&gt;Node40 -->
<g id="edge52" class="edge">
<title>Node32&#45;&gt;Node40</title>
<path fill="none" stroke="#191970" d="M2282.7722,-168.3733C2318.4658,-158.9001 2373.0879,-144.4032 2411.7451,-134.1435"/>
<polygon fill="#191970" stroke="#191970" points="2412.9336,-137.4493 2421.7011,-131.5011 2411.1379,-130.6835 2412.9336,-137.4493"/>
</g>
<!-- Node36 -->
<g id="node37" class="node">
<title>Node36</title>
<g id="a_node37"><a xlink:href="../../d5/d93/GPUCommonDefSettings_8h.html" target="_top" xlink:title="GPUCommonDefSettings.h">
<polygon fill="none" stroke="#000000" points="2009.5,-.5 2009.5,-19.5 2157.5,-19.5 2157.5,-.5 2009.5,-.5"/>
<text text-anchor="middle" x="2083.5" y="-7.5" font-family="Helvetica,sans-Serif" font-size="10.00" fill="#000000">GPUCommonDefSettings.h</text>
</a>
</g>
</g>
<!-- Node35&#45;&gt;Node36 -->
<g id="edge46" class="edge">
<title>Node35&#45;&gt;Node36</title>
<path fill="none" stroke="#191970" d="M2147.0876,-56.2455C2135.4943,-47.814 2118.5252,-35.4729 2105.0322,-25.6598"/>
<polygon fill="#191970" stroke="#191970" points="2106.9047,-22.6938 2096.7587,-19.6427 2102.7874,-28.355 2106.9047,-22.6938"/>
</g>
<!-- Node37 -->
<g id="node38" class="node">
<title>Node37</title>
<g id="a_node38"><a xlink:href="../../da/d5a/GPUCommonDefAPI_8h.html" target="_top" xlink:title="GPUCommonDefAPI.h">
<polygon fill="none" stroke="#000000" points="2175.5,-.5 2175.5,-19.5 2299.5,-19.5 2299.5,-.5 2175.5,-.5"/>
<text text-anchor="middle" x="2237.5" y="-7.5" font-family="Helvetica,sans-Serif" font-size="10.00" fill="#000000">GPUCommonDefAPI.h</text>
</a>
</g>
</g>
<!-- Node35&#45;&gt;Node37 -->
<g id="edge47" class="edge">
<title>Node35&#45;&gt;Node37</title>
<path fill="none" stroke="#191970" d="M2173.9124,-56.2455C2185.5057,-47.814 2202.4748,-35.4729 2215.9678,-25.6598"/>
<polygon fill="#191970" stroke="#191970" points="2218.2126,-28.355 2224.2413,-19.6427 2214.0953,-22.6938 2218.2126,-28.355"/>
</g>
<!-- Node38&#45;&gt;Node34 -->
<g id="edge50" class="edge">
<title>Node38&#45;&gt;Node34</title>
<path fill="none" stroke="#191970" d="M2262.5252,-112.2455C2276.6408,-103.6534 2297.4263,-91.0014 2313.6899,-81.1018"/>
<polygon fill="#191970" stroke="#191970" points="2315.9363,-83.8319 2322.6585,-75.6427 2312.2966,-77.8525 2315.9363,-83.8319"/>
</g>
<!-- Node38&#45;&gt;Node35 -->
<g id="edge49" class="edge">
<title>Node38&#45;&gt;Node35</title>
<path fill="none" stroke="#191970" d="M2231.5199,-112.2455C2218.3249,-103.6534 2198.8949,-91.0014 2183.6921,-81.1018"/>
<polygon fill="#191970" stroke="#191970" points="2185.5983,-78.1665 2175.3084,-75.6427 2181.7785,-84.0325 2185.5983,-78.1665"/>
</g>
<!-- Node39 -->
<g id="node40" class="node">
<title>Node39</title>
<polygon fill="none" stroke="#bfbfbf" points="2232.5,-56.5 2232.5,-75.5 2296.5,-75.5 2296.5,-56.5 2232.5,-56.5"/>
<text text-anchor="middle" x="2264.5" y="-63.5" font-family="Helvetica,sans-Serif" font-size="10.00" fill="#000000">algorithm</text>
</g>
<!-- Node38&#45;&gt;Node39 -->
<g id="edge51" class="edge">
<title>Node38&#45;&gt;Node39</title>
<path fill="none" stroke="#191970" d="M2249.6354,-112.2455C2252.01,-104.8579 2255.3493,-94.4689 2258.2615,-85.4087"/>
<polygon fill="#191970" stroke="#191970" points="2261.6725,-86.234 2261.4006,-75.6427 2255.0083,-84.0919 2261.6725,-86.234"/>
</g>
</g>
</svg>
        <g id="navigator" transform="translate(0 0)" fill="#404254">
                <rect fill="#f2f5e9" fill-opacity="0.5" stroke="#606060" stroke-width=".5" x="0" y="0" width="60" height="60"/>
                <use id="zoomplus" xlink:href="#zoomPlus" x="17" y="9" onmousedown="handleZoom(evt,'in')"/>
                <use id="zoomminus" xlink:href="#zoomMin" x="42" y="9" onmousedown="handleZoom(evt,'out')"/>
                <use id="reset" xlink:href="#resetDef" x="30" y="36" onmousedown="handleReset()"/>
                <g id="arrowUp" xlink:href="#dirArrow" transform="translate(30 24)" onmousedown="handlePan(0,-1)">
                  <use xlink:href="#rim" fill="#404040">
                        <set attributeName="fill" to="#808080" begin="arrowUp.mouseover" end="arrowUp.mouseout"/>
                  </use>
                  <path fill="none" stroke="white" stroke-width="1.5" d="M0,-3.0v7 M-2.5,-0.5L0,-3.0L2.5,-0.5"/>
                </g>
                <g id="arrowRight" xlink:href="#dirArrow" transform="rotate(90) translate(36 -43)" onmousedown="handlePan(1,0)">
                  <use xlink:href="#rim" fill="#404040">
                        <set attributeName="fill" to="#808080" begin="arrowRight.mouseover" end="arrowRight.mouseout"/>
                  </use>
                  <path fill="none" stroke="white" stroke-width="1.5" d="M0,-3.0v7 M-2.5,-0.5L0,-3.0L2.5,-0.5"/>
                </g>
                <g id="arrowDown" xlink:href="#dirArrow" transform="rotate(180) translate(-30 -48)" onmousedown="handlePan(0,1)">
                  <use xlink:href="#rim" fill="#404040">
                        <set attributeName="fill" to="#808080" begin="arrowDown.mouseover" end="arrowDown.mouseout"/>
                  </use>
                  <path fill="none" stroke="white" stroke-width="1.5" d="M0,-3.0v7 M-2.5,-0.5L0,-3.0L2.5,-0.5"/>
                </g>
                <g id="arrowLeft" xlink:href="#dirArrow" transform="rotate(270) translate(-36 17)" onmousedown="handlePan(-1,0)">
                  <use xlink:href="#rim" fill="#404040">
                        <set attributeName="fill" to="#808080" begin="arrowLeft.mouseover" end="arrowLeft.mouseout"/>
                  </use>
                  <path fill="none" stroke="white" stroke-width="1.5" d="M0,-3.0v7 M-2.5,-0.5L0,-3.0L2.5,-0.5"/>
                </g>
        </g>
        <svg viewBox="0 0 15 15" width="100%" height="30px" preserveAspectRatio="xMaxYMin meet">
         <g id="arrow_out" transform="scale(0.3 0.3)">
          <a xlink:href="Analysis_2DataModel_2src_2dummy_8cxx__incl_org.svg" target="_base">
           <rect id="button" ry="5" rx="5" y="6" x="6" height="38" width="38"
                fill="#f2f5e9" fill-opacity="0.5" stroke="#606060" stroke-width="1.0"/>
           <path id="arrow"
             d="M 11.500037,31.436501 C 11.940474,20.09759 22.043105,11.32322 32.158766,21.979434 L 37.068811,17.246167 C 37.068811,17.246167 37.088388,32 37.088388,32 L 22.160133,31.978069 C 22.160133,31.978069 26.997745,27.140456 26.997745,27.140456 C 18.528582,18.264221 13.291696,25.230495 11.500037,31.436501 z"
             style="fill:#404040;"/>
          </a>
         </g>
        </svg>
</svg>
