<?xml version="1.0" encoding="UTF-8" standalone="no"?>
<!DOCTYPE svg PUBLIC "-//W3C//DTD SVG 1.1//EN"
 "http://www.w3.org/Graphics/SVG/1.1/DTD/svg11.dtd">
<!-- Generated by graphviz version 2.40.1 (20161225.0304)
 -->
<!-- Title: /home/travis/build/AliceO2Group/AliceO2/Framework/Core/src/ASoA.cxx Pages: 1 -->
<!--zoomable 274 -->
<svg id="main" version="1.1" xmlns="http://www.w3.org/2000/svg" xmlns:xlink="http://www.w3.org/1999/xlink" xml:space="preserve" onload="init(evt)">
<style type="text/css"><![CDATA[
.edge:hover path { stroke: red; }
.edge:hover polygon { stroke: red; fill: red; }
]]></style>
<script type="text/javascript"><![CDATA[
var edges = document.getElementsByTagName('g');
if (edges && edges.length) {
  for (var i=0;i<edges.length;i++) {
    if (edges[i].id.substr(0,4)=='edge') {
      edges[i].setAttribute('class','edge');
    }
  }
}
]]></script>
        <defs>
                <circle id="rim" cx="0" cy="0" r="7"/>
                <circle id="rim2" cx="0" cy="0" r="3.5"/>
                <g id="zoomPlus">
                        <use xlink:href="#rim" fill="#404040">
                                <set attributeName="fill" to="#808080" begin="zoomplus.mouseover" end="zoomplus.mouseout"/>
                        </use>
                        <path d="M-4,0h8M0,-4v8" fill="none" stroke="white" stroke-width="1.5" pointer-events="none"/>
                </g>
                <g id="zoomMin">
                        <use xlink:href="#rim" fill="#404040">
                                <set attributeName="fill" to="#808080" begin="zoomminus.mouseover" end="zoomminus.mouseout"/>
                        </use>
                        <path d="M-4,0h8" fill="none" stroke="white" stroke-width="1.5" pointer-events="none"/>
                </g>
                <g id="dirArrow">
                        <path fill="none" stroke="white" stroke-width="1.5" d="M0,-3.0v7 M-2.5,-0.5L0,-3.0L2.5,-0.5"/>
                </g>
               <g id="resetDef">
                       <use xlink:href="#rim2" fill="#404040">
                               <set attributeName="fill" to="#808080" begin="reset.mouseover" end="reset.mouseout"/>
                       </use>
               </g>
        </defs>

<script type="text/javascript">
var viewWidth = 2098;
var viewHeight = 274;
var sectionId = 'dynsection-0';
</script>
<script xlink:href="../../svgpan.js"/>
<svg id="graph" class="graph">
<g id="viewport">
<title>/home/travis/build/AliceO2Group/AliceO2/Framework/Core/src/ASoA.cxx</title>
<!-- Node0 -->
<g id="node1" class="node">
<title>Node0</title>
<polygon fill="#bfbfbf" stroke="#000000" points="862,-224.5 862,-265.5 1027,-265.5 1027,-224.5 862,-224.5"/>
<text text-anchor="start" x="870" y="-253.5" font-family="Helvetica,sans-Serif" font-size="10.00" fill="#000000">/home/travis/build</text>
<text text-anchor="start" x="870" y="-242.5" font-family="Helvetica,sans-Serif" font-size="10.00" fill="#000000">/AliceO2Group/AliceO2</text>
<text text-anchor="middle" x="944.5" y="-231.5" font-family="Helvetica,sans-Serif" font-size="10.00" fill="#000000">/Framework/Core/src/ASoA.cxx</text>
</g>
<!-- Node1 -->
<g id="node2" class="node">
<title>Node1</title>
<g id="a_node2"><a xlink:href="../../de/d33/ASoA_8h.html" target="_top" xlink:title="Framework/ASoA.h">
<polygon fill="none" stroke="#000000" points="823.5,-168.5 823.5,-187.5 931.5,-187.5 931.5,-168.5 823.5,-168.5"/>
<text text-anchor="middle" x="877.5" y="-175.5" font-family="Helvetica,sans-Serif" font-size="10.00" fill="#000000">Framework/ASoA.h</text>
</a>
</g>
</g>
<!-- Node0&#45;&gt;Node1 -->
<g id="edge1" class="edge">
<title>Node0&#45;&gt;Node1</title>
<path fill="none" stroke="#191970" d="M923.668,-224.168C914.2794,-214.7794 903.334,-203.834 894.4574,-194.9574"/>
<polygon fill="#191970" stroke="#191970" points="896.8265,-192.3767 887.2805,-187.7805 891.8767,-197.3265 896.8265,-192.3767"/>
</g>
<!-- Node30 -->
<g id="node31" class="node">
<title>Node30</title>
<g id="a_node31"><a xlink:href="../../df/d1f/ArrowDebugHelpers_8h.html" target="_top" xlink:title="ArrowDebugHelpers.h">
<polygon fill="none" stroke="#000000" points="950,-168.5 950,-187.5 1073,-187.5 1073,-168.5 950,-168.5"/>
<text text-anchor="middle" x="1011.5" y="-175.5" font-family="Helvetica,sans-Serif" font-size="10.00" fill="#000000">ArrowDebugHelpers.h</text>
</a>
</g>
</g>
<!-- Node0&#45;&gt;Node30 -->
<g id="edge40" class="edge">
<title>Node0&#45;&gt;Node30</title>
<path fill="none" stroke="#191970" d="M965.332,-224.168C974.7206,-214.7794 985.666,-203.834 994.5426,-194.9574"/>
<polygon fill="#191970" stroke="#191970" points="997.1233,-197.3265 1001.7195,-187.7805 992.1735,-192.3767 997.1233,-197.3265"/>
</g>
<!-- Node2 -->
<g id="node3" class="node">
<title>Node2</title>
<g id="a_node3"><a xlink:href="../../dd/dce/Pack_8h.html" target="_top" xlink:title="Framework/Pack.h">
<polygon fill="none" stroke="#000000" points="83,-56.5 83,-75.5 188,-75.5 188,-56.5 83,-56.5"/>
<text text-anchor="middle" x="135.5" y="-63.5" font-family="Helvetica,sans-Serif" font-size="10.00" fill="#000000">Framework/Pack.h</text>
</a>
</g>
</g>
<!-- Node1&#45;&gt;Node2 -->
<g id="edge2" class="edge">
<title>Node1&#45;&gt;Node2</title>
<path fill="none" stroke="#191970" d="M823.418,-174.6143C738.4866,-168.8192 568.8303,-155.3107 426.5,-132 338.7265,-117.6246 237.7959,-92.8448 180.8367,-78.0825"/>
<polygon fill="#191970" stroke="#191970" points="181.6243,-74.6709 171.0648,-75.5362 179.8591,-81.4447 181.6243,-74.6709"/>
</g>
<!-- Node6 -->
<g id="node7" class="node">
<title>Node6</title>
<g id="a_node7"><a xlink:href="../../d1/d00/CheckTypes_8h.html" target="_top" xlink:title="Framework/CheckTypes.h">
<polygon fill="none" stroke="#000000" points="293.5,-56.5 293.5,-75.5 433.5,-75.5 433.5,-56.5 293.5,-56.5"/>
<text text-anchor="middle" x="363.5" y="-63.5" font-family="Helvetica,sans-Serif" font-size="10.00" fill="#000000">Framework/CheckTypes.h</text>
</a>
</g>
</g>
<!-- Node1&#45;&gt;Node6 -->
<g id="edge6" class="edge">
<title>Node1&#45;&gt;Node6</title>
<path fill="none" stroke="#191970" d="M833.6766,-168.4509C739.6971,-147.9729 519.0536,-99.8949 417.0036,-77.6584"/>
<polygon fill="#191970" stroke="#191970" points="417.7284,-74.2342 407.2124,-75.5249 416.238,-81.0738 417.7284,-74.2342"/>
</g>
<!-- Node7 -->
<g id="node8" class="node">
<title>Node7</title>
<g id="a_node8"><a xlink:href="../../de/d9b/FunctionalHelpers_8h.html" target="_top" xlink:title="Framework/FunctionalHelpers.h">
<polygon fill="none" stroke="#000000" points="50.5,-112.5 50.5,-131.5 220.5,-131.5 220.5,-112.5 50.5,-112.5"/>
<text text-anchor="middle" x="135.5" y="-119.5" font-family="Helvetica,sans-Serif" font-size="10.00" fill="#000000">Framework/FunctionalHelpers.h</text>
</a>
</g>
</g>
<!-- Node1&#45;&gt;Node7 -->
<g id="edge7" class="edge">
<title>Node1&#45;&gt;Node7</title>
<path fill="none" stroke="#191970" d="M823.3194,-174.1851C715.1603,-166.5284 464.7893,-148.5987 254.5,-132 246.7978,-131.392 238.8164,-130.7492 230.8003,-130.0945"/>
<polygon fill="#191970" stroke="#191970" points="230.8993,-126.5909 220.6463,-129.2606 230.3262,-133.5674 230.8993,-126.5909"/>
</g>
<!-- Node9 -->
<g id="node10" class="node">
<title>Node9</title>
<g id="a_node10"><a xlink:href="../../d9/de8/CompilerBuiltins_8h.html" target="_top" xlink:title="Framework/CompilerBuiltins.h">
<polygon fill="none" stroke="#000000" points="451.5,-56.5 451.5,-75.5 615.5,-75.5 615.5,-56.5 451.5,-56.5"/>
<text text-anchor="middle" x="533.5" y="-63.5" font-family="Helvetica,sans-Serif" font-size="10.00" fill="#000000">Framework/CompilerBuiltins.h</text>
</a>
</g>
</g>
<!-- Node1&#45;&gt;Node9 -->
<g id="edge10" class="edge">
<title>Node1&#45;&gt;Node9</title>
<path fill="none" stroke="#191970" d="M848.1708,-168.4509C786.226,-148.2829 642.0567,-101.3441 572.4631,-78.6857"/>
<polygon fill="#191970" stroke="#191970" points="573.3473,-75.2928 562.755,-75.5249 571.1802,-81.9489 573.3473,-75.2928"/>
</g>
<!-- Node10 -->
<g id="node11" class="node">
<title>Node10</title>
<g id="a_node11"><a xlink:href="../../db/d31/Traits_8h.html" target="_top" xlink:title="Framework/Traits.h">
<polygon fill="none" stroke="#000000" points="436,-112.5 436,-131.5 545,-131.5 545,-112.5 436,-112.5"/>
<text text-anchor="middle" x="490.5" y="-119.5" font-family="Helvetica,sans-Serif" font-size="10.00" fill="#000000">Framework/Traits.h</text>
</a>
</g>
</g>
<!-- Node1&#45;&gt;Node10 -->
<g id="edge11" class="edge">
<title>Node1&#45;&gt;Node10</title>
<path fill="none" stroke="#191970" d="M823.2818,-170.1545C753.049,-159.9916 630.7387,-142.2929 555.5712,-131.416"/>
<polygon fill="#191970" stroke="#191970" points="555.6862,-127.8963 545.288,-129.928 554.6836,-134.8241 555.6862,-127.8963"/>
</g>
<!-- Node12 -->
<g id="node13" class="node">
<title>Node12</title>
<g id="a_node13"><a xlink:href="../../d0/d91/Expressions_8h.html" target="_top" xlink:title="Framework/Expressions.h">
<polygon fill="none" stroke="#000000" points="857,-112.5 857,-131.5 998,-131.5 998,-112.5 857,-112.5"/>
<text text-anchor="middle" x="927.5" y="-119.5" font-family="Helvetica,sans-Serif" font-size="10.00" fill="#000000">Framework/Expressions.h</text>
</a>
</g>
</g>
<!-- Node1&#45;&gt;Node12 -->
<g id="edge13" class="edge">
<title>Node1&#45;&gt;Node12</title>
<path fill="none" stroke="#191970" d="M886.2093,-168.2455C893.3073,-160.2958 903.5084,-148.8706 911.995,-139.3656"/>
<polygon fill="#191970" stroke="#191970" points="914.8411,-141.4331 918.8905,-131.6427 909.6195,-136.771 914.8411,-141.4331"/>
</g>
<!-- Node15 -->
<g id="node16" class="node">
<title>Node15</title>
<polygon fill="none" stroke="#bfbfbf" points="634,-56.5 634,-75.5 715,-75.5 715,-56.5 634,-56.5"/>
<text text-anchor="middle" x="674.5" y="-63.5" font-family="Helvetica,sans-Serif" font-size="10.00" fill="#000000">arrow/table.h</text>
</g>
<!-- Node1&#45;&gt;Node15 -->
<g id="edge33" class="edge">
<title>Node1&#45;&gt;Node15</title>
<path fill="none" stroke="#191970" d="M860.1923,-168.4509C824.5366,-148.7788 742.7159,-103.6363 700.6009,-80.4005"/>
<polygon fill="#191970" stroke="#191970" points="702.2104,-77.2912 691.7639,-75.5249 698.8289,-83.4202 702.2104,-77.2912"/>
</g>
<!-- Node16 -->
<g id="node17" class="node">
<title>Node16</title>
<polygon fill="none" stroke="#bfbfbf" points="733,-56.5 733,-75.5 880,-75.5 880,-56.5 733,-56.5"/>
<text text-anchor="middle" x="806.5" y="-63.5" font-family="Helvetica,sans-Serif" font-size="10.00" fill="#000000">gandiva/selection_vector.h</text>
</g>
<!-- Node1&#45;&gt;Node16 -->
<g id="edge38" class="edge">
<title>Node1&#45;&gt;Node16</title>
<path fill="none" stroke="#191970" d="M871.4466,-168.4509C859.6046,-149.7707 833.2035,-108.1238 817.959,-84.0761"/>
<polygon fill="#191970" stroke="#191970" points="820.8483,-82.0969 812.5381,-75.5249 814.9362,-85.8448 820.8483,-82.0969"/>
</g>
<!-- Node22 -->
<g id="node23" class="node">
<title>Node22</title>
<g id="a_node23"><a xlink:href="../../d0/d92/Kernels_8h.html" target="_top" xlink:title="Framework/Kernels.h">
<polygon fill="none" stroke="#000000" points="1438,-112.5 1438,-131.5 1557,-131.5 1557,-112.5 1438,-112.5"/>
<text text-anchor="middle" x="1497.5" y="-119.5" font-family="Helvetica,sans-Serif" font-size="10.00" fill="#000000">Framework/Kernels.h</text>
</a>
</g>
</g>
<!-- Node1&#45;&gt;Node22 -->
<g id="edge26" class="edge">
<title>Node1&#45;&gt;Node22</title>
<path fill="none" stroke="#191970" d="M931.5836,-169.2674C934.9357,-168.8137 938.2617,-168.3864 941.5,-168 1115.7845,-147.2021 1321.9294,-132.7989 1427.4971,-126.1586"/>
<polygon fill="#191970" stroke="#191970" points="1427.9414,-129.6377 1437.7038,-125.5211 1427.505,-122.6514 1427.9414,-129.6377"/>
</g>
<!-- Node23 -->
<g id="node24" class="node">
<title>Node23</title>
<polygon fill="none" stroke="#bfbfbf" points="1590,-56.5 1590,-75.5 1723,-75.5 1723,-56.5 1590,-56.5"/>
<text text-anchor="middle" x="1656.5" y="-63.5" font-family="Helvetica,sans-Serif" font-size="10.00" fill="#000000">arrow/compute/kernel.h</text>
</g>
<!-- Node1&#45;&gt;Node23 -->
<g id="edge37" class="edge">
<title>Node1&#45;&gt;Node23</title>
<path fill="none" stroke="#191970" d="M931.6139,-169.4929C934.9585,-168.9832 938.2745,-168.482 941.5,-168 1173.8586,-133.2747 1449.1053,-94.7405 1579.9874,-76.5749"/>
<polygon fill="#191970" stroke="#191970" points="1580.4953,-80.0381 1589.9195,-75.1971 1579.5333,-73.1045 1580.4953,-80.0381"/>
</g>
<!-- Node26 -->
<g id="node27" class="node">
<title>Node26</title>
<polygon fill="none" stroke="#bfbfbf" points="1979.5,-56.5 1979.5,-75.5 2089.5,-75.5 2089.5,-56.5 1979.5,-56.5"/>
<text text-anchor="middle" x="2034.5" y="-63.5" font-family="Helvetica,sans-Serif" font-size="10.00" fill="#000000">arrow/util/variant.h</text>
</g>
<!-- Node1&#45;&gt;Node26 -->
<g id="edge35" class="edge">
<title>Node1&#45;&gt;Node26</title>
<path fill="none" stroke="#191970" d="M931.5728,-169.1719C934.9276,-168.7418 938.2571,-168.3459 941.5,-168 1079.8343,-153.2441 1432.4585,-169.2425 1566.5,-132 1584.8887,-126.8908 1586.2186,-117.4805 1604.5,-112 1757.8566,-66.0256 1806.3693,-95.3634 1969.0029,-76.0935"/>
<polygon fill="#191970" stroke="#191970" points="1969.8725,-79.513 1979.3703,-74.8181 1969.0177,-72.5654 1969.8725,-79.513"/>
</g>
<!-- Node27 -->
<g id="node28" class="node">
<title>Node27</title>
<polygon fill="none" stroke="#bfbfbf" points="1613.5,-112.5 1613.5,-131.5 1693.5,-131.5 1693.5,-112.5 1613.5,-112.5"/>
<text text-anchor="middle" x="1653.5" y="-119.5" font-family="Helvetica,sans-Serif" font-size="10.00" fill="#000000">arrow/array.h</text>
</g>
<!-- Node1&#45;&gt;Node27 -->
<g id="edge34" class="edge">
<title>Node1&#45;&gt;Node27</title>
<path fill="none" stroke="#191970" d="M931.5716,-169.1608C934.9267,-168.7335 938.2566,-168.3412 941.5,-168 1232.7741,-137.3544 1308.6855,-166.7369 1599.5,-132 1600.7781,-131.8473 1602.0715,-131.683 1603.3751,-131.5086"/>
<polygon fill="#191970" stroke="#191970" points="1604.1082,-134.938 1613.4831,-130.0022 1603.0764,-128.0145 1604.1082,-134.938"/>
</g>
<!-- Node28 -->
<g id="node29" class="node">
<title>Node28</title>
<polygon fill="none" stroke="#bfbfbf" points="1712,-112.5 1712,-131.5 1851,-131.5 1851,-112.5 1712,-112.5"/>
<text text-anchor="middle" x="1781.5" y="-119.5" font-family="Helvetica,sans-Serif" font-size="10.00" fill="#000000">arrow/compute/context.h</text>
</g>
<!-- Node1&#45;&gt;Node28 -->
<g id="edge36" class="edge">
<title>Node1&#45;&gt;Node28</title>
<path fill="none" stroke="#191970" d="M931.5687,-169.1326C934.9245,-168.7123 938.2553,-168.3293 941.5,-168 1275.0806,-134.1482 1363.4491,-160.7528 1701.6652,-131.9988"/>
<polygon fill="#191970" stroke="#191970" points="1702.0817,-135.476 1711.7449,-131.1318 1701.4817,-128.5017 1702.0817,-135.476"/>
</g>
<!-- Node29 -->
<g id="node30" class="node">
<title>Node29</title>
<polygon fill="none" stroke="#bfbfbf" points="1869.5,-112.5 1869.5,-131.5 1921.5,-131.5 1921.5,-112.5 1869.5,-112.5"/>
<text text-anchor="middle" x="1895.5" y="-119.5" font-family="Helvetica,sans-Serif" font-size="10.00" fill="#000000">cassert</text>
</g>
<!-- Node1&#45;&gt;Node29 -->
<g id="edge39" class="edge">
<title>Node1&#45;&gt;Node29</title>
<path fill="none" stroke="#191970" d="M931.5656,-169.1015C934.9222,-168.6889 938.254,-168.3161 941.5,-168 1345.0555,-128.7014 1455.1122,-195.5162 1859.37,-131.7984"/>
<polygon fill="#191970" stroke="#191970" points="1859.9539,-135.2496 1869.2788,-130.2198 1858.8526,-128.3367 1859.9539,-135.2496"/>
</g>
<!-- Node3 -->
<g id="node4" class="node">
<title>Node3</title>
<polygon fill="none" stroke="#bfbfbf" points="42,-.5 42,-19.5 95,-19.5 95,-.5 42,-.5"/>
<text text-anchor="middle" x="68.5" y="-7.5" font-family="Helvetica,sans-Serif" font-size="10.00" fill="#000000">cstddef</text>
</g>
<!-- Node2&#45;&gt;Node3 -->
<g id="edge3" class="edge">
<title>Node2&#45;&gt;Node3</title>
<path fill="none" stroke="#191970" d="M123.8295,-56.2455C113.9339,-47.9746 99.5373,-35.9416 87.9099,-26.2232"/>
<polygon fill="#191970" stroke="#191970" points="89.9542,-23.3703 80.0368,-19.6427 85.465,-28.7413 89.9542,-23.3703"/>
</g>
<!-- Node4 -->
<g id="node5" class="node">
<title>Node4</title>
<polygon fill="none" stroke="#bfbfbf" points="113,-.5 113,-19.5 158,-19.5 158,-.5 113,-.5"/>
<text text-anchor="middle" x="135.5" y="-7.5" font-family="Helvetica,sans-Serif" font-size="10.00" fill="#000000">utility</text>
</g>
<!-- Node2&#45;&gt;Node4 -->
<g id="edge4" class="edge">
<title>Node2&#45;&gt;Node4</title>
<path fill="none" stroke="#191970" d="M135.5,-56.2455C135.5,-48.9382 135.5,-38.6944 135.5,-29.7046"/>
<polygon fill="#191970" stroke="#191970" points="139.0001,-29.6426 135.5,-19.6427 132.0001,-29.6427 139.0001,-29.6426"/>
</g>
<!-- Node5 -->
<g id="node6" class="node">
<title>Node5</title>
<polygon fill="none" stroke="#bfbfbf" points="176.5,-.5 176.5,-19.5 222.5,-19.5 222.5,-.5 176.5,-.5"/>
<text text-anchor="middle" x="199.5" y="-7.5" font-family="Helvetica,sans-Serif" font-size="10.00" fill="#000000">cstdio</text>
</g>
<!-- Node2&#45;&gt;Node5 -->
<g id="edge5" class="edge">
<title>Node2&#45;&gt;Node5</title>
<path fill="none" stroke="#191970" d="M146.6479,-56.2455C156.0087,-48.0549 169.5858,-36.1749 180.6349,-26.5069"/>
<polygon fill="#191970" stroke="#191970" points="183.2588,-28.8618 188.4798,-19.6427 178.6492,-23.5937 183.2588,-28.8618"/>
</g>
<!-- Node7&#45;&gt;Node2 -->
<g id="edge8" class="edge">
<title>Node7&#45;&gt;Node2</title>
<path fill="none" stroke="#191970" d="M135.5,-112.2455C135.5,-104.9382 135.5,-94.6944 135.5,-85.7046"/>
<polygon fill="#191970" stroke="#191970" points="139.0001,-85.6426 135.5,-75.6427 132.0001,-85.6427 139.0001,-85.6426"/>
</g>
<!-- Node8 -->
<g id="node9" class="node">
<title>Node8</title>
<polygon fill="none" stroke="#bfbfbf" points="0,-56.5 0,-75.5 65,-75.5 65,-56.5 0,-56.5"/>
<text text-anchor="middle" x="32.5" y="-63.5" font-family="Helvetica,sans-Serif" font-size="10.00" fill="#000000">functional</text>
</g>
<!-- Node7&#45;&gt;Node8 -->
<g id="edge9" class="edge">
<title>Node7&#45;&gt;Node8</title>
<path fill="none" stroke="#191970" d="M117.5588,-112.2455C101.46,-103.4928 77.6121,-90.527 59.2609,-80.5496"/>
<polygon fill="#191970" stroke="#191970" points="60.6929,-77.3444 50.2356,-75.6427 57.3493,-83.4942 60.6929,-77.3444"/>
</g>
<!-- Node11 -->
<g id="node12" class="node">
<title>Node11</title>
<polygon fill="none" stroke="#bfbfbf" points="206,-56.5 206,-75.5 275,-75.5 275,-56.5 206,-56.5"/>
<text text-anchor="middle" x="240.5" y="-63.5" font-family="Helvetica,sans-Serif" font-size="10.00" fill="#000000">type_traits</text>
</g>
<!-- Node10&#45;&gt;Node11 -->
<g id="edge12" class="edge">
<title>Node10&#45;&gt;Node11</title>
<path fill="none" stroke="#191970" d="M447.4836,-112.444C407.9183,-103.6436 347.3454,-90.1426 285.0878,-76.1264"/>
<polygon fill="#191970" stroke="#191970" points="285.6091,-72.6561 275.0844,-73.8731 284.0708,-79.485 285.6091,-72.6561"/>
</g>
<!-- Node12&#45;&gt;Node2 -->
<g id="edge16" class="edge">
<title>Node12&#45;&gt;Node2</title>
<path fill="none" stroke="#191970" d="M856.9846,-119.8992C728.1327,-115.5489 445.8502,-103.6554 198.2999,-76.1065"/>
<polygon fill="#191970" stroke="#191970" points="198.3547,-72.5907 188.0263,-74.9519 197.5728,-79.5469 198.3547,-72.5907"/>
</g>
<!-- Node12&#45;&gt;Node6 -->
<g id="edge17" class="edge">
<title>Node12&#45;&gt;Node6</title>
<path fill="none" stroke="#191970" d="M856.7462,-115.9893C764.2676,-107.9762 596.9966,-92.947 443.7693,-76.1131"/>
<polygon fill="#191970" stroke="#191970" points="444.0213,-72.6198 433.6977,-75.0017 443.2534,-79.5775 444.0213,-72.6198"/>
</g>
<!-- Node12&#45;&gt;Node9 -->
<g id="edge15" class="edge">
<title>Node12&#45;&gt;Node9</title>
<path fill="none" stroke="#191970" d="M860.2167,-112.4369C790.945,-102.5912 683.1529,-87.2705 610.5144,-76.9462"/>
<polygon fill="#191970" stroke="#191970" points="610.8989,-73.4658 600.5058,-75.5237 609.9138,-80.3961 610.8989,-73.4658"/>
</g>
<!-- Node13 -->
<g id="node14" class="node">
<title>Node13</title>
<g id="a_node14"><a xlink:href="../../dd/dc2/BasicOps_8h.html" target="_top" xlink:title="Framework/BasicOps.h">
<polygon fill="none" stroke="#000000" points="1381.5,-56.5 1381.5,-75.5 1509.5,-75.5 1509.5,-56.5 1381.5,-56.5"/>
<text text-anchor="middle" x="1445.5" y="-63.5" font-family="Helvetica,sans-Serif" font-size="10.00" fill="#000000">Framework/BasicOps.h</text>
</a>
</g>
</g>
<!-- Node12&#45;&gt;Node13 -->
<g id="edge14" class="edge">
<title>Node12&#45;&gt;Node13</title>
<path fill="none" stroke="#191970" d="M998.1012,-115.4302C1083.8727,-107.285 1233.2361,-92.5759 1371.4875,-76.0901"/>
<polygon fill="#191970" stroke="#191970" points="1371.9087,-79.5648 1381.4214,-74.9002 1371.076,-72.6145 1371.9087,-79.5648"/>
</g>
<!-- Node14 -->
<g id="node15" class="node">
<title>Node14</title>
<polygon fill="none" stroke="#bfbfbf" points="975,-56.5 975,-75.5 1076,-75.5 1076,-56.5 975,-56.5"/>
<text text-anchor="middle" x="1025.5" y="-63.5" font-family="Helvetica,sans-Serif" font-size="10.00" fill="#000000">arrow/type_fwd.h</text>
</g>
<!-- Node12&#45;&gt;Node14 -->
<g id="edge18" class="edge">
<title>Node12&#45;&gt;Node14</title>
<path fill="none" stroke="#191970" d="M944.5703,-112.2455C959.747,-103.5731 982.1621,-90.7645 999.5563,-80.825"/>
<polygon fill="#191970" stroke="#191970" points="1001.6794,-83.643 1008.6253,-75.6427 998.2064,-77.5653 1001.6794,-83.643"/>
</g>
<!-- Node12&#45;&gt;Node15 -->
<g id="edge19" class="edge">
<title>Node12&#45;&gt;Node15</title>
<path fill="none" stroke="#191970" d="M884.2952,-112.4369C840.1164,-102.6582 771.5377,-87.4787 724.9087,-77.1577"/>
<polygon fill="#191970" stroke="#191970" points="725.5374,-73.7122 715.0173,-74.9682 724.0245,-80.5467 725.5374,-73.7122"/>
</g>
<!-- Node12&#45;&gt;Node16 -->
<g id="edge20" class="edge">
<title>Node12&#45;&gt;Node16</title>
<path fill="none" stroke="#191970" d="M906.6994,-112.3733C887.2757,-103.3838 858.0776,-89.8706 836.2036,-79.7471"/>
<polygon fill="#191970" stroke="#191970" points="837.5745,-76.5249 827.0292,-75.5011 834.6344,-82.8776 837.5745,-76.5249"/>
</g>
<!-- Node17 -->
<g id="node18" class="node">
<title>Node17</title>
<polygon fill="none" stroke="#bfbfbf" points="1094.5,-56.5 1094.5,-75.5 1186.5,-75.5 1186.5,-56.5 1094.5,-56.5"/>
<text text-anchor="middle" x="1140.5" y="-63.5" font-family="Helvetica,sans-Serif" font-size="10.00" fill="#000000">gandiva/node.h</text>
</g>
<!-- Node12&#45;&gt;Node17 -->
<g id="edge21" class="edge">
<title>Node12&#45;&gt;Node17</title>
<path fill="none" stroke="#191970" d="M964.116,-112.3733C1000.148,-102.9001 1055.2878,-88.4032 1094.3114,-78.1435"/>
<polygon fill="#191970" stroke="#191970" points="1095.5804,-81.4289 1104.3618,-75.5011 1093.8005,-74.6589 1095.5804,-81.4289"/>
</g>
<!-- Node18 -->
<g id="node19" class="node">
<title>Node18</title>
<polygon fill="none" stroke="#bfbfbf" points="1205,-56.5 1205,-75.5 1294,-75.5 1294,-56.5 1205,-56.5"/>
<text text-anchor="middle" x="1249.5" y="-63.5" font-family="Helvetica,sans-Serif" font-size="10.00" fill="#000000">gandiva/filter.h</text>
</g>
<!-- Node12&#45;&gt;Node18 -->
<g id="edge22" class="edge">
<title>Node12&#45;&gt;Node18</title>
<path fill="none" stroke="#191970" d="M984.2636,-112.4792C1036.3101,-103.6991 1115.8016,-90.1632 1194.6129,-76.141"/>
<polygon fill="#191970" stroke="#191970" points="1195.4886,-79.5402 1204.7192,-74.3395 1194.2601,-72.6488 1195.4886,-79.5402"/>
</g>
<!-- Node19 -->
<g id="node20" class="node">
<title>Node19</title>
<polygon fill="none" stroke="#bfbfbf" points="1312,-56.5 1312,-75.5 1363,-75.5 1363,-56.5 1312,-56.5"/>
<text text-anchor="middle" x="1337.5" y="-63.5" font-family="Helvetica,sans-Serif" font-size="10.00" fill="#000000">variant</text>
</g>
<!-- Node12&#45;&gt;Node19 -->
<g id="edge23" class="edge">
<title>Node12&#45;&gt;Node19</title>
<path fill="none" stroke="#191970" d="M998.052,-116.8506C1071.8089,-110.6833 1190.9683,-98.5122 1301.9676,-76.0523"/>
<polygon fill="#191970" stroke="#191970" points="1302.904,-79.4331 1311.9941,-73.9905 1301.494,-72.5765 1302.904,-79.4331"/>
</g>
<!-- Node20 -->
<g id="node21" class="node">
<title>Node20</title>
<polygon fill="none" stroke="#bfbfbf" points="1527.5,-56.5 1527.5,-75.5 1571.5,-75.5 1571.5,-56.5 1527.5,-56.5"/>
<text text-anchor="middle" x="1549.5" y="-63.5" font-family="Helvetica,sans-Serif" font-size="10.00" fill="#000000">string</text>
</g>
<!-- Node12&#45;&gt;Node20 -->
<g id="edge24" class="edge">
<title>Node12&#45;&gt;Node20</title>
<path fill="none" stroke="#191970" d="M998.2504,-118.5741C1128.8369,-111.9169 1404.0098,-96.2462 1517.489,-75.7171"/>
<polygon fill="#191970" stroke="#191970" points="1518.1453,-79.1551 1527.3135,-73.8451 1516.8351,-72.2788 1518.1453,-79.1551"/>
</g>
<!-- Node21 -->
<g id="node22" class="node">
<title>Node21</title>
<polygon fill="none" stroke="#bfbfbf" points="898.5,-56.5 898.5,-75.5 956.5,-75.5 956.5,-56.5 898.5,-56.5"/>
<text text-anchor="middle" x="927.5" y="-63.5" font-family="Helvetica,sans-Serif" font-size="10.00" fill="#000000">memory</text>
</g>
<!-- Node12&#45;&gt;Node21 -->
<g id="edge25" class="edge">
<title>Node12&#45;&gt;Node21</title>
<path fill="none" stroke="#191970" d="M927.5,-112.2455C927.5,-104.9382 927.5,-94.6944 927.5,-85.7046"/>
<polygon fill="#191970" stroke="#191970" points="931.0001,-85.6426 927.5,-75.6427 924.0001,-85.6427 931.0001,-85.6426"/>
</g>
<!-- Node22&#45;&gt;Node13 -->
<g id="edge27" class="edge">
<title>Node22&#45;&gt;Node13</title>
<path fill="none" stroke="#191970" d="M1488.4423,-112.2455C1480.9858,-104.2155 1470.2366,-92.6394 1461.3583,-83.0781"/>
<polygon fill="#191970" stroke="#191970" points="1463.8232,-80.589 1454.4539,-75.6427 1458.6937,-85.3522 1463.8232,-80.589"/>
</g>
<!-- Node22&#45;&gt;Node20 -->
<g id="edge32" class="edge">
<title>Node22&#45;&gt;Node20</title>
<path fill="none" stroke="#191970" d="M1506.5577,-112.2455C1514.0142,-104.2155 1524.7634,-92.6394 1533.6417,-83.0781"/>
<polygon fill="#191970" stroke="#191970" points="1536.3063,-85.3522 1540.5461,-75.6427 1531.1768,-80.589 1536.3063,-85.3522"/>
</g>
<!-- Node22&#45;&gt;Node23 -->
<g id="edge28" class="edge">
<title>Node22&#45;&gt;Node23</title>
<path fill="none" stroke="#191970" d="M1524.8331,-112.3733C1551.0434,-103.1419 1590.7984,-89.1402 1619.7668,-78.9375"/>
<polygon fill="#191970" stroke="#191970" points="1621.2542,-82.1244 1629.5236,-75.5011 1618.9288,-75.5219 1621.2542,-82.1244"/>
</g>
<!-- Node24 -->
<g id="node25" class="node">
<title>Node24</title>
<polygon fill="none" stroke="#bfbfbf" points="1741.5,-56.5 1741.5,-75.5 1827.5,-75.5 1827.5,-56.5 1741.5,-56.5"/>
<text text-anchor="middle" x="1784.5" y="-63.5" font-family="Helvetica,sans-Serif" font-size="10.00" fill="#000000">arrow/status.h</text>
</g>
<!-- Node22&#45;&gt;Node24 -->
<g id="edge29" class="edge">
<title>Node22&#45;&gt;Node24</title>
<path fill="none" stroke="#191970" d="M1546.511,-112.4369C1597.9496,-102.4001 1678.5474,-86.6737 1731.4522,-76.3508"/>
<polygon fill="#191970" stroke="#191970" points="1732.1763,-79.7756 1741.3209,-74.4252 1730.8356,-72.9052 1732.1763,-79.7756"/>
</g>
<!-- Node25 -->
<g id="node26" class="node">
<title>Node25</title>
<polygon fill="none" stroke="#bfbfbf" points="1845.5,-56.5 1845.5,-75.5 1961.5,-75.5 1961.5,-56.5 1845.5,-56.5"/>
<text text-anchor="middle" x="1903.5" y="-63.5" font-family="Helvetica,sans-Serif" font-size="10.00" fill="#000000">arrow/util/visibility.h</text>
</g>
<!-- Node22&#45;&gt;Node25 -->
<g id="edge30" class="edge">
<title>Node22&#45;&gt;Node25</title>
<path fill="none" stroke="#191970" d="M1557.3668,-113.8975C1642.2179,-102.4108 1791.3278,-82.2142 1835.3139,-76.1296"/>
<polygon fill="#191970" stroke="#191970" points="1835.983,-79.5702 1845.4022,-74.7196 1835.014,-72.6376 1835.983,-79.5702"/>
</g>
<!-- Node22&#45;&gt;Node26 -->
<g id="edge31" class="edge">
<title>Node22&#45;&gt;Node26</title>
<path fill="none" stroke="#191970" d="M1557.2462,-113.6949C1562.0655,-113.0955 1566.8623,-112.5223 1571.5,-112 1745.1521,-92.4426 1792.0523,-97.5531 1969.1861,-76.0924"/>
<polygon fill="#191970" stroke="#191970" points="1969.8727,-79.5346 1979.3739,-74.8464 1969.0229,-72.5864 1969.8727,-79.5346"/>
</g>
</g>
</svg>
        <g id="navigator" transform="translate(0 0)" fill="#404254">
                <rect fill="#f2f5e9" fill-opacity="0.5" stroke="#606060" stroke-width=".5" x="0" y="0" width="60" height="60"/>
                <use id="zoomplus" xlink:href="#zoomPlus" x="17" y="9" onmousedown="handleZoom(evt,'in')"/>
                <use id="zoomminus" xlink:href="#zoomMin" x="42" y="9" onmousedown="handleZoom(evt,'out')"/>
                <use id="reset" xlink:href="#resetDef" x="30" y="36" onmousedown="handleReset()"/>
                <g id="arrowUp" xlink:href="#dirArrow" transform="translate(30 24)" onmousedown="handlePan(0,-1)">
                  <use xlink:href="#rim" fill="#404040">
                        <set attributeName="fill" to="#808080" begin="arrowUp.mouseover" end="arrowUp.mouseout"/>
                  </use>
                  <path fill="none" stroke="white" stroke-width="1.5" d="M0,-3.0v7 M-2.5,-0.5L0,-3.0L2.5,-0.5"/>
                </g>
                <g id="arrowRight" xlink:href="#dirArrow" transform="rotate(90) translate(36 -43)" onmousedown="handlePan(1,0)">
                  <use xlink:href="#rim" fill="#404040">
                        <set attributeName="fill" to="#808080" begin="arrowRight.mouseover" end="arrowRight.mouseout"/>
                  </use>
                  <path fill="none" stroke="white" stroke-width="1.5" d="M0,-3.0v7 M-2.5,-0.5L0,-3.0L2.5,-0.5"/>
                </g>
                <g id="arrowDown" xlink:href="#dirArrow" transform="rotate(180) translate(-30 -48)" onmousedown="handlePan(0,1)">
                  <use xlink:href="#rim" fill="#404040">
                        <set attributeName="fill" to="#808080" begin="arrowDown.mouseover" end="arrowDown.mouseout"/>
                  </use>
                  <path fill="none" stroke="white" stroke-width="1.5" d="M0,-3.0v7 M-2.5,-0.5L0,-3.0L2.5,-0.5"/>
                </g>
                <g id="arrowLeft" xlink:href="#dirArrow" transform="rotate(270) translate(-36 17)" onmousedown="handlePan(-1,0)">
                  <use xlink:href="#rim" fill="#404040">
                        <set attributeName="fill" to="#808080" begin="arrowLeft.mouseover" end="arrowLeft.mouseout"/>
                  </use>
                  <path fill="none" stroke="white" stroke-width="1.5" d="M0,-3.0v7 M-2.5,-0.5L0,-3.0L2.5,-0.5"/>
                </g>
        </g>
        <svg viewBox="0 0 15 15" width="100%" height="30px" preserveAspectRatio="xMaxYMin meet">
         <g id="arrow_out" transform="scale(0.3 0.3)">
          <a xlink:href="ASoA_8cxx__incl_org.svg" target="_base">
           <rect id="button" ry="5" rx="5" y="6" x="6" height="38" width="38"
                fill="#f2f5e9" fill-opacity="0.5" stroke="#606060" stroke-width="1.0"/>
           <path id="arrow"
             d="M 11.500037,31.436501 C 11.940474,20.09759 22.043105,11.32322 32.158766,21.979434 L 37.068811,17.246167 C 37.068811,17.246167 37.088388,32 37.088388,32 L 22.160133,31.978069 C 22.160133,31.978069 26.997745,27.140456 26.997745,27.140456 C 18.528582,18.264221 13.291696,25.230495 11.500037,31.436501 z"
             style="fill:#404040;"/>
          </a>
         </g>
        </svg>
</svg>
