<?xml version="1.0" encoding="UTF-8" standalone="no"?>
<!DOCTYPE svg PUBLIC "-//W3C//DTD SVG 1.1//EN"
 "http://www.w3.org/Graphics/SVG/1.1/DTD/svg11.dtd">
<!-- Generated by graphviz version 2.40.1 (20161225.0304)
 -->
<!-- Title: /home/travis/build/AliceO2Group/AliceO2/Detectors/MUON/MCH/Mapping/Interface/include/MCHMappingInterface/CathodeSegmentation.h Pages: 1 -->
<svg width="3447pt" height="361pt"
 viewBox="0.00 0.00 3446.50 361.00" xmlns="http://www.w3.org/2000/svg" xmlns:xlink="http://www.w3.org/1999/xlink">
<g id="graph0" class="graph" transform="scale(1 1) rotate(0) translate(4 357)">
<title>/home/travis/build/AliceO2Group/AliceO2/Detectors/MUON/MCH/Mapping/Interface/include/MCHMappingInterface/CathodeSegmentation.h</title>
<!-- Node8 -->
<g id="node1" class="node">
<title>Node8</title>
<polygon fill="#bfbfbf" stroke="#000000" points="962.5,-289.5 962.5,-352.5 1174.5,-352.5 1174.5,-289.5 962.5,-289.5"/>
<text text-anchor="start" x="970.5" y="-340.5" font-family="Helvetica,sans-Serif" font-size="10.00" fill="#000000">/home/travis/build</text>
<text text-anchor="start" x="970.5" y="-329.5" font-family="Helvetica,sans-Serif" font-size="10.00" fill="#000000">/AliceO2Group/AliceO2</text>
<text text-anchor="start" x="970.5" y="-318.5" font-family="Helvetica,sans-Serif" font-size="10.00" fill="#000000">/Detectors/MUON/MCH/Mapping</text>
<text text-anchor="start" x="970.5" y="-307.5" font-family="Helvetica,sans-Serif" font-size="10.00" fill="#000000">/Interface/include/MCHMappingInterface</text>
<text text-anchor="middle" x="1068.5" y="-296.5" font-family="Helvetica,sans-Serif" font-size="10.00" fill="#000000">/CathodeSegmentation.h</text>
</g>
<!-- Node9 -->
<g id="node2" class="node">
<title>Node9</title>
<g id="a_node2"><a xlink:href="../../d7/d47/CathodeSegmentationImpl3_8cxx.html" target="_top" xlink:title="/home/travis/build\l/AliceO2Group/AliceO2\l/Detectors/MUON/MCH/Mapping\l/Impl3/src/CathodeSegmentationImpl3.cxx">
<polygon fill="none" stroke="#000000" points="413.5,-195 413.5,-247 637.5,-247 637.5,-195 413.5,-195"/>
<text text-anchor="start" x="421.5" y="-235" font-family="Helvetica,sans-Serif" font-size="10.00" fill="#000000">/home/travis/build</text>
<text text-anchor="start" x="421.5" y="-224" font-family="Helvetica,sans-Serif" font-size="10.00" fill="#000000">/AliceO2Group/AliceO2</text>
<text text-anchor="start" x="421.5" y="-213" font-family="Helvetica,sans-Serif" font-size="10.00" fill="#000000">/Detectors/MUON/MCH/Mapping</text>
<text text-anchor="middle" x="525.5" y="-202" font-family="Helvetica,sans-Serif" font-size="10.00" fill="#000000">/Impl3/src/CathodeSegmentationImpl3.cxx</text>
</a>
</g>
</g>
<!-- Node8&#45;&gt;Node9 -->
<g id="edge1" class="edge">
<title>Node8&#45;&gt;Node9</title>
<path fill="none" stroke="#191970" d="M952.1266,-304.797C868.2113,-292.4392 752.4246,-274.0031 651.5,-253 642.7721,-251.1837 633.7378,-249.166 624.6994,-247.0524"/>
<polygon fill="#191970" stroke="#191970" points="951.797,-308.286 962.199,-306.2736 952.8125,-301.36 951.797,-308.286"/>
</g>
<!-- Node10 -->
<g id="node3" class="node">
<title>Node10</title>
<g id="a_node3"><a xlink:href="../../d6/d1f/MUON_2MCH_2Mapping_2Interface_2include_2MCHMappingInterface_2Segmentation_8h.html" target="_top" xlink:title="/home/travis/build\l/AliceO2Group/AliceO2\l/Detectors/MUON/MCH/Mapping\l/Interface/include/MCHMappingInterface\l/Segmentation.h">
<polygon fill="none" stroke="#000000" points="2016.5,-189.5 2016.5,-252.5 2228.5,-252.5 2228.5,-189.5 2016.5,-189.5"/>
<text text-anchor="start" x="2024.5" y="-240.5" font-family="Helvetica,sans-Serif" font-size="10.00" fill="#000000">/home/travis/build</text>
<text text-anchor="start" x="2024.5" y="-229.5" font-family="Helvetica,sans-Serif" font-size="10.00" fill="#000000">/AliceO2Group/AliceO2</text>
<text text-anchor="start" x="2024.5" y="-218.5" font-family="Helvetica,sans-Serif" font-size="10.00" fill="#000000">/Detectors/MUON/MCH/Mapping</text>
<text text-anchor="start" x="2024.5" y="-207.5" font-family="Helvetica,sans-Serif" font-size="10.00" fill="#000000">/Interface/include/MCHMappingInterface</text>
<text text-anchor="middle" x="2122.5" y="-196.5" font-family="Helvetica,sans-Serif" font-size="10.00" fill="#000000">/Segmentation.h</text>
</a>
</g>
</g>
<!-- Node8&#45;&gt;Node10 -->
<g id="edge2" class="edge">
<title>Node8&#45;&gt;Node10</title>
<path fill="none" stroke="#191970" d="M1185.1355,-309.934C1391.4868,-290.3561 1817.8328,-249.9058 2016.4106,-231.0654"/>
<polygon fill="#191970" stroke="#191970" points="1184.4996,-306.4785 1174.875,-310.9075 1185.1609,-313.4472 1184.4996,-306.4785"/>
</g>
<!-- Node13 -->
<g id="node6" class="node">
<title>Node13</title>
<g id="a_node6"><a xlink:href="../../d4/dbc/PreClusterFinderMapping_8cxx.html" target="_top" xlink:title="/home/travis/build\l/AliceO2Group/AliceO2\l/Detectors/MUON/MCH/PreClustering\l/src/PreClusterFinderMapping.cxx">
<polygon fill="none" stroke="#000000" points="2262.5,-.5 2262.5,-52.5 2456.5,-52.5 2456.5,-.5 2262.5,-.5"/>
<text text-anchor="start" x="2270.5" y="-40.5" font-family="Helvetica,sans-Serif" font-size="10.00" fill="#000000">/home/travis/build</text>
<text text-anchor="start" x="2270.5" y="-29.5" font-family="Helvetica,sans-Serif" font-size="10.00" fill="#000000">/AliceO2Group/AliceO2</text>
<text text-anchor="start" x="2270.5" y="-18.5" font-family="Helvetica,sans-Serif" font-size="10.00" fill="#000000">/Detectors/MUON/MCH/PreClustering</text>
<text text-anchor="middle" x="2359.5" y="-7.5" font-family="Helvetica,sans-Serif" font-size="10.00" fill="#000000">/src/PreClusterFinderMapping.cxx</text>
</a>
</g>
</g>
<!-- Node8&#45;&gt;Node13 -->
<g id="edge35" class="edge">
<title>Node8&#45;&gt;Node13</title>
<path fill="none" stroke="#191970" d="M1184.8405,-318.4514C1545.3381,-309.3123 2625.4336,-272.1218 2722.5,-153 2740.468,-130.9492 2741.1661,-110.4631 2722.5,-89 2684.656,-45.4855 2522.1082,-64.0088 2465.5,-53 2462.6139,-52.4387 2459.6886,-51.8483 2456.7396,-51.2342"/>
<polygon fill="#191970" stroke="#191970" points="1184.5541,-314.9574 1174.6451,-318.7072 1184.7297,-321.9552 1184.5541,-314.9574"/>
</g>
<!-- Node26 -->
<g id="node19" class="node">
<title>Node26</title>
<g id="a_node19"><a xlink:href="../../d2/d32/CathodeSegmentationContours_8h.html" target="_top" xlink:title="/home/travis/build\l/AliceO2Group/AliceO2\l/Detectors/MUON/MCH/Mapping\l/SegContour/include/MCHMappingSegContour\l/CathodeSegmentationContours.h">
<polygon fill="none" stroke="#000000" points="732,-189.5 732,-252.5 969,-252.5 969,-189.5 732,-189.5"/>
<text text-anchor="start" x="740" y="-240.5" font-family="Helvetica,sans-Serif" font-size="10.00" fill="#000000">/home/travis/build</text>
<text text-anchor="start" x="740" y="-229.5" font-family="Helvetica,sans-Serif" font-size="10.00" fill="#000000">/AliceO2Group/AliceO2</text>
<text text-anchor="start" x="740" y="-218.5" font-family="Helvetica,sans-Serif" font-size="10.00" fill="#000000">/Detectors/MUON/MCH/Mapping</text>
<text text-anchor="start" x="740" y="-207.5" font-family="Helvetica,sans-Serif" font-size="10.00" fill="#000000">/SegContour/include/MCHMappingSegContour</text>
<text text-anchor="middle" x="850.5" y="-196.5" font-family="Helvetica,sans-Serif" font-size="10.00" fill="#000000">/CathodeSegmentationContours.h</text>
</a>
</g>
</g>
<!-- Node8&#45;&gt;Node26 -->
<g id="edge20" class="edge">
<title>Node8&#45;&gt;Node26</title>
<path fill="none" stroke="#191970" d="M990.6517,-285.2898C967.3184,-274.5864 941.9058,-262.9293 919.2065,-252.5168"/>
<polygon fill="#191970" stroke="#191970" points="989.274,-288.5084 999.8227,-289.4966 992.1926,-282.1459 989.274,-288.5084"/>
</g>
<!-- Node28 -->
<g id="node21" class="node">
<title>Node28</title>
<g id="a_node21"><a xlink:href="../../de/d54/CathodeSegmentationSVGWriter_8cxx.html" target="_top" xlink:title="/home/travis/build\l/AliceO2Group/AliceO2\l/Detectors/MUON/MCH/Mapping\l/SegContour/src/CathodeSegmentation\lSVGWriter.cxx">
<polygon fill="none" stroke="#000000" points="0,-89.5 0,-152.5 205,-152.5 205,-89.5 0,-89.5"/>
<text text-anchor="start" x="8" y="-140.5" font-family="Helvetica,sans-Serif" font-size="10.00" fill="#000000">/home/travis/build</text>
<text text-anchor="start" x="8" y="-129.5" font-family="Helvetica,sans-Serif" font-size="10.00" fill="#000000">/AliceO2Group/AliceO2</text>
<text text-anchor="start" x="8" y="-118.5" font-family="Helvetica,sans-Serif" font-size="10.00" fill="#000000">/Detectors/MUON/MCH/Mapping</text>
<text text-anchor="start" x="8" y="-107.5" font-family="Helvetica,sans-Serif" font-size="10.00" fill="#000000">/SegContour/src/CathodeSegmentation</text>
<text text-anchor="middle" x="102.5" y="-96.5" font-family="Helvetica,sans-Serif" font-size="10.00" fill="#000000">SVGWriter.cxx</text>
</a>
</g>
</g>
<!-- Node8&#45;&gt;Node28 -->
<g id="edge29" class="edge">
<title>Node8&#45;&gt;Node28</title>
<path fill="none" stroke="#191970" d="M952.1676,-312.0558C853.6861,-302.4572 721.9575,-284.2102 679.5,-253 653.7142,-234.045 673.1133,-206.7744 646.5,-189 566.2068,-135.3742 308.4627,-170.4583 213.5,-153 210.7385,-152.4923 207.947,-151.9444 205.1372,-151.3623"/>
<polygon fill="#191970" stroke="#191970" points="951.9038,-315.5464 962.1916,-313.0143 952.5702,-308.5782 951.9038,-315.5464"/>
</g>
<!-- Node29 -->
<g id="node22" class="node">
<title>Node29</title>
<g id="a_node22"><a xlink:href="../../de/d56/SegmentationSVGWriter_8cxx.html" target="_top" xlink:title="/home/travis/build\l/AliceO2Group/AliceO2\l/Detectors/MUON/MCH/Mapping\l/SegContour/src/SegmentationSVGWriter.cxx">
<polygon fill="none" stroke="#000000" points="223,-95 223,-147 456,-147 456,-95 223,-95"/>
<text text-anchor="start" x="231" y="-135" font-family="Helvetica,sans-Serif" font-size="10.00" fill="#000000">/home/travis/build</text>
<text text-anchor="start" x="231" y="-124" font-family="Helvetica,sans-Serif" font-size="10.00" fill="#000000">/AliceO2Group/AliceO2</text>
<text text-anchor="start" x="231" y="-113" font-family="Helvetica,sans-Serif" font-size="10.00" fill="#000000">/Detectors/MUON/MCH/Mapping</text>
<text text-anchor="middle" x="339.5" y="-102" font-family="Helvetica,sans-Serif" font-size="10.00" fill="#000000">/SegContour/src/SegmentationSVGWriter.cxx</text>
</a>
</g>
</g>
<!-- Node8&#45;&gt;Node29 -->
<g id="edge30" class="edge">
<title>Node8&#45;&gt;Node29</title>
<path fill="none" stroke="#191970" d="M952.3147,-307.82C866.9795,-296.3692 759.7105,-277.7331 722.5,-253 693.9609,-234.0306 708.1303,-207.8315 679.5,-189 606.5989,-141.0494 572.0287,-170.282 486.5,-153 476.6436,-151.0084 466.427,-148.8921 456.1816,-146.7336"/>
<polygon fill="#191970" stroke="#191970" points="951.9694,-311.3047 962.342,-309.1462 952.8873,-304.3651 951.9694,-311.3047"/>
</g>
<!-- Node30 -->
<g id="node23" class="node">
<title>Node30</title>
<g id="a_node23"><a xlink:href="../../d2/d0f/SVGSegmentation_8cxx.html" target="_top" xlink:title="/home/travis/build\l/AliceO2Group/AliceO2\l/Detectors/MUON/MCH/Mapping\l/SegContour/src/SVGSegmentation.cxx">
<polygon fill="none" stroke="#000000" points="736,-95 736,-147 941,-147 941,-95 736,-95"/>
<text text-anchor="start" x="744" y="-135" font-family="Helvetica,sans-Serif" font-size="10.00" fill="#000000">/home/travis/build</text>
<text text-anchor="start" x="744" y="-124" font-family="Helvetica,sans-Serif" font-size="10.00" fill="#000000">/AliceO2Group/AliceO2</text>
<text text-anchor="start" x="744" y="-113" font-family="Helvetica,sans-Serif" font-size="10.00" fill="#000000">/Detectors/MUON/MCH/Mapping</text>
<text text-anchor="middle" x="838.5" y="-102" font-family="Helvetica,sans-Serif" font-size="10.00" fill="#000000">/SegContour/src/SVGSegmentation.cxx</text>
</a>
</g>
</g>
<!-- Node8&#45;&gt;Node30 -->
<g id="edge31" class="edge">
<title>Node8&#45;&gt;Node30</title>
<path fill="none" stroke="#191970" d="M1047.829,-280.3853C1031.7392,-251.9327 1007.1858,-214.5726 977.5,-189 957.5531,-171.8168 932.5082,-157.8244 909.1916,-147.098"/>
<polygon fill="#191970" stroke="#191970" points="1044.8482,-282.2276 1052.7513,-289.2839 1050.9735,-278.8393 1044.8482,-282.2276"/>
</g>
<!-- Node31 -->
<g id="node24" class="node">
<title>Node31</title>
<g id="a_node24"><a xlink:href="../../d8/df7/BenchCathodeSegmentation_8cxx.html" target="_top" xlink:title="/home/travis/build\l/AliceO2Group/AliceO2\l/Detectors/MUON/MCH/Mapping\l/test/src/BenchCathodeSegmentation.cxx">
<polygon fill="none" stroke="#000000" points="959.5,-95 959.5,-147 1177.5,-147 1177.5,-95 959.5,-95"/>
<text text-anchor="start" x="967.5" y="-135" font-family="Helvetica,sans-Serif" font-size="10.00" fill="#000000">/home/travis/build</text>
<text text-anchor="start" x="967.5" y="-124" font-family="Helvetica,sans-Serif" font-size="10.00" fill="#000000">/AliceO2Group/AliceO2</text>
<text text-anchor="start" x="967.5" y="-113" font-family="Helvetica,sans-Serif" font-size="10.00" fill="#000000">/Detectors/MUON/MCH/Mapping</text>
<text text-anchor="middle" x="1068.5" y="-102" font-family="Helvetica,sans-Serif" font-size="10.00" fill="#000000">/test/src/BenchCathodeSegmentation.cxx</text>
</a>
</g>
</g>
<!-- Node8&#45;&gt;Node31 -->
<g id="edge32" class="edge">
<title>Node8&#45;&gt;Node31</title>
<path fill="none" stroke="#191970" d="M1068.5,-279.1189C1068.5,-239.3079 1068.5,-180.6745 1068.5,-147.1249"/>
<polygon fill="#191970" stroke="#191970" points="1065.0001,-279.3094 1068.5,-289.3094 1072.0001,-279.3094 1065.0001,-279.3094"/>
</g>
<!-- Node32 -->
<g id="node25" class="node">
<title>Node32</title>
<g id="a_node25"><a xlink:href="../../df/dc1/CathodeSegmentation_8cxx.html" target="_top" xlink:title="/home/travis/build\l/AliceO2Group/AliceO2\l/Detectors/MUON/MCH/Mapping\l/test/src/CathodeSegmentation.cxx">
<polygon fill="none" stroke="#000000" points="1195.5,-95 1195.5,-147 1383.5,-147 1383.5,-95 1195.5,-95"/>
<text text-anchor="start" x="1203.5" y="-135" font-family="Helvetica,sans-Serif" font-size="10.00" fill="#000000">/home/travis/build</text>
<text text-anchor="start" x="1203.5" y="-124" font-family="Helvetica,sans-Serif" font-size="10.00" fill="#000000">/AliceO2Group/AliceO2</text>
<text text-anchor="start" x="1203.5" y="-113" font-family="Helvetica,sans-Serif" font-size="10.00" fill="#000000">/Detectors/MUON/MCH/Mapping</text>
<text text-anchor="middle" x="1289.5" y="-102" font-family="Helvetica,sans-Serif" font-size="10.00" fill="#000000">/test/src/CathodeSegmentation.cxx</text>
</a>
</g>
</g>
<!-- Node8&#45;&gt;Node32 -->
<g id="edge33" class="edge">
<title>Node8&#45;&gt;Node32</title>
<path fill="none" stroke="#191970" d="M1111.177,-282.3783C1155.1644,-242.5707 1222.5342,-181.6025 1260.632,-147.1249"/>
<polygon fill="#191970" stroke="#191970" points="1108.5842,-280.0043 1103.5181,-289.3094 1113.2812,-285.1945 1108.5842,-280.0043"/>
</g>
<!-- Node33 -->
<g id="node26" class="node">
<title>Node33</title>
<g id="a_node26"><a xlink:href="../../d2/dba/CathodeSegmentationLong_8cxx.html" target="_top" xlink:title="/home/travis/build\l/AliceO2Group/AliceO2\l/Detectors/MUON/MCH/Mapping\l/test/src/CathodeSegmentationLong.cxx">
<polygon fill="none" stroke="#000000" points="1402,-95 1402,-147 1613,-147 1613,-95 1402,-95"/>
<text text-anchor="start" x="1410" y="-135" font-family="Helvetica,sans-Serif" font-size="10.00" fill="#000000">/home/travis/build</text>
<text text-anchor="start" x="1410" y="-124" font-family="Helvetica,sans-Serif" font-size="10.00" fill="#000000">/AliceO2Group/AliceO2</text>
<text text-anchor="start" x="1410" y="-113" font-family="Helvetica,sans-Serif" font-size="10.00" fill="#000000">/Detectors/MUON/MCH/Mapping</text>
<text text-anchor="middle" x="1507.5" y="-102" font-family="Helvetica,sans-Serif" font-size="10.00" fill="#000000">/test/src/CathodeSegmentationLong.cxx</text>
</a>
</g>
</g>
<!-- Node8&#45;&gt;Node33 -->
<g id="edge34" class="edge">
<title>Node8&#45;&gt;Node33</title>
<path fill="none" stroke="#191970" d="M1147.3783,-285.0645C1234.5267,-245.3614 1372.7539,-182.3877 1450.1559,-147.1249"/>
<polygon fill="#191970" stroke="#191970" points="1145.7099,-281.9785 1138.0609,-289.3094 1148.612,-288.3486 1145.7099,-281.9785"/>
</g>
<!-- Node34 -->
<g id="node27" class="node">
<title>Node34</title>
<g id="a_node27"><a xlink:href="../../df/da1/MCH_2Simulation_2test_2testGeometry_8cxx.html" target="_top" xlink:title="/home/travis/build\l/AliceO2Group/AliceO2\l/Detectors/MUON/MCH/Simulation\l/test/testGeometry.cxx">
<polygon fill="none" stroke="#000000" points="2769.5,-195 2769.5,-247 2951.5,-247 2951.5,-195 2769.5,-195"/>
<text text-anchor="start" x="2777.5" y="-235" font-family="Helvetica,sans-Serif" font-size="10.00" fill="#000000">/home/travis/build</text>
<text text-anchor="start" x="2777.5" y="-224" font-family="Helvetica,sans-Serif" font-size="10.00" fill="#000000">/AliceO2Group/AliceO2</text>
<text text-anchor="start" x="2777.5" y="-213" font-family="Helvetica,sans-Serif" font-size="10.00" fill="#000000">/Detectors/MUON/MCH/Simulation</text>
<text text-anchor="middle" x="2860.5" y="-202" font-family="Helvetica,sans-Serif" font-size="10.00" fill="#000000">/test/testGeometry.cxx</text>
</a>
</g>
</g>
<!-- Node8&#45;&gt;Node34 -->
<g id="edge36" class="edge">
<title>Node8&#45;&gt;Node34</title>
<path fill="none" stroke="#191970" d="M1184.6317,-320.1737C1514.4662,-317.2147 2452.5794,-304.3915 2755.5,-253 2764.5185,-251.47 2773.8464,-249.3887 2783.0507,-247.0167"/>
<polygon fill="#191970" stroke="#191970" points="1184.5462,-316.6742 1174.5775,-320.2625 1184.6081,-323.6739 1184.5462,-316.6742"/>
</g>
<!-- Node11 -->
<g id="node4" class="node">
<title>Node11</title>
<g id="a_node4"><a xlink:href="../../d0/d28/CreateSegmentation_8h.html" target="_top" xlink:title="/home/travis/build\l/AliceO2Group/AliceO2\l/Detectors/MUON/MCH/Mapping\l/Factory/include/MCHMappingFactory\l/CreateSegmentation.h">
<polygon fill="none" stroke="#000000" points="2769,-89.5 2769,-152.5 2964,-152.5 2964,-89.5 2769,-89.5"/>
<text text-anchor="start" x="2777" y="-140.5" font-family="Helvetica,sans-Serif" font-size="10.00" fill="#000000">/home/travis/build</text>
<text text-anchor="start" x="2777" y="-129.5" font-family="Helvetica,sans-Serif" font-size="10.00" fill="#000000">/AliceO2Group/AliceO2</text>
<text text-anchor="start" x="2777" y="-118.5" font-family="Helvetica,sans-Serif" font-size="10.00" fill="#000000">/Detectors/MUON/MCH/Mapping</text>
<text text-anchor="start" x="2777" y="-107.5" font-family="Helvetica,sans-Serif" font-size="10.00" fill="#000000">/Factory/include/MCHMappingFactory</text>
<text text-anchor="middle" x="2866.5" y="-96.5" font-family="Helvetica,sans-Serif" font-size="10.00" fill="#000000">/CreateSegmentation.h</text>
</a>
</g>
</g>
<!-- Node10&#45;&gt;Node11 -->
<g id="edge3" class="edge">
<title>Node10&#45;&gt;Node11</title>
<path fill="none" stroke="#191970" d="M2238.6934,-211.5038C2359.9345,-200.7373 2555.3035,-180.9712 2722.5,-153 2737.529,-150.4857 2753.3507,-147.4115 2768.7848,-144.1736"/>
<polygon fill="#191970" stroke="#191970" points="2238.2999,-208.0248 2228.6463,-212.3904 2238.9153,-214.9977 2238.2999,-208.0248"/>
</g>
<!-- Node18 -->
<g id="node11" class="node">
<title>Node18</title>
<g id="a_node11"><a xlink:href="../../dd/d1c/SegmentationContours_8h.html" target="_top" xlink:title="/home/travis/build\l/AliceO2Group/AliceO2\l/Detectors/MUON/MCH/Mapping\l/SegContour/include/MCHMappingSegContour\l/SegmentationContours.h">
<polygon fill="none" stroke="#000000" points="1631,-89.5 1631,-152.5 1868,-152.5 1868,-89.5 1631,-89.5"/>
<text text-anchor="start" x="1639" y="-140.5" font-family="Helvetica,sans-Serif" font-size="10.00" fill="#000000">/home/travis/build</text>
<text text-anchor="start" x="1639" y="-129.5" font-family="Helvetica,sans-Serif" font-size="10.00" fill="#000000">/AliceO2Group/AliceO2</text>
<text text-anchor="start" x="1639" y="-118.5" font-family="Helvetica,sans-Serif" font-size="10.00" fill="#000000">/Detectors/MUON/MCH/Mapping</text>
<text text-anchor="start" x="1639" y="-107.5" font-family="Helvetica,sans-Serif" font-size="10.00" fill="#000000">/SegContour/include/MCHMappingSegContour</text>
<text text-anchor="middle" x="1749.5" y="-96.5" font-family="Helvetica,sans-Serif" font-size="10.00" fill="#000000">/SegmentationContours.h</text>
</a>
</g>
</g>
<!-- Node10&#45;&gt;Node18 -->
<g id="edge10" class="edge">
<title>Node10&#45;&gt;Node18</title>
<path fill="none" stroke="#191970" d="M2006.185,-189.8163C1961.941,-177.9547 1911.527,-164.4389 1867.1595,-152.5441"/>
<polygon fill="#191970" stroke="#191970" points="2005.5471,-193.2689 2016.1123,-192.4778 2007.3598,-186.5076 2005.5471,-193.2689"/>
</g>
<!-- Node20 -->
<g id="node13" class="node">
<title>Node20</title>
<g id="a_node13"><a xlink:href="../../d5/d2d/MUON_2MCH_2Mapping_2test_2src_2Segmentation_8cxx.html" target="_top" xlink:title="/home/travis/build\l/AliceO2Group/AliceO2\l/Detectors/MUON/MCH/Mapping\l/test/src/Segmentation.cxx">
<polygon fill="none" stroke="#000000" points="1700.5,-.5 1700.5,-52.5 1870.5,-52.5 1870.5,-.5 1700.5,-.5"/>
<text text-anchor="start" x="1708.5" y="-40.5" font-family="Helvetica,sans-Serif" font-size="10.00" fill="#000000">/home/travis/build</text>
<text text-anchor="start" x="1708.5" y="-29.5" font-family="Helvetica,sans-Serif" font-size="10.00" fill="#000000">/AliceO2Group/AliceO2</text>
<text text-anchor="start" x="1708.5" y="-18.5" font-family="Helvetica,sans-Serif" font-size="10.00" fill="#000000">/Detectors/MUON/MCH/Mapping</text>
<text text-anchor="middle" x="1785.5" y="-7.5" font-family="Helvetica,sans-Serif" font-size="10.00" fill="#000000">/test/src/Segmentation.cxx</text>
</a>
</g>
</g>
<!-- Node10&#45;&gt;Node20 -->
<g id="edge14" class="edge">
<title>Node10&#45;&gt;Node20</title>
<path fill="none" stroke="#191970" d="M2006.4821,-198.7756C1974.6386,-188.6456 1941.7029,-174.0247 1915.5,-153 1889.6984,-132.2973 1900.1682,-113.093 1877.5,-89 1864.533,-75.218 1848.0117,-62.8288 1832.5576,-52.7857"/>
<polygon fill="#191970" stroke="#191970" points="2005.7346,-202.2068 2016.3208,-201.7774 2007.7774,-195.5115 2005.7346,-202.2068"/>
</g>
<!-- Node21 -->
<g id="node14" class="node">
<title>Node21</title>
<g id="a_node14"><a xlink:href="../../da/d72/BenchSegmentation_8cxx.html" target="_top" xlink:title="/home/travis/build\l/AliceO2Group/AliceO2\l/Detectors/MUON/MCH/Mapping\l/test/src/BenchSegmentation.cxx">
<polygon fill="none" stroke="#000000" points="2136,-95 2136,-147 2313,-147 2313,-95 2136,-95"/>
<text text-anchor="start" x="2144" y="-135" font-family="Helvetica,sans-Serif" font-size="10.00" fill="#000000">/home/travis/build</text>
<text text-anchor="start" x="2144" y="-124" font-family="Helvetica,sans-Serif" font-size="10.00" fill="#000000">/AliceO2Group/AliceO2</text>
<text text-anchor="start" x="2144" y="-113" font-family="Helvetica,sans-Serif" font-size="10.00" fill="#000000">/Detectors/MUON/MCH/Mapping</text>
<text text-anchor="middle" x="2224.5" y="-102" font-family="Helvetica,sans-Serif" font-size="10.00" fill="#000000">/test/src/BenchSegmentation.cxx</text>
</a>
</g>
</g>
<!-- Node10&#45;&gt;Node21 -->
<g id="edge13" class="edge">
<title>Node10&#45;&gt;Node21</title>
<path fill="none" stroke="#191970" d="M2162.1012,-182.1752C2174.0949,-170.4167 2186.975,-157.7892 2197.9005,-147.078"/>
<polygon fill="#191970" stroke="#191970" points="2159.4639,-179.8594 2154.7734,-189.3594 2164.3645,-184.8579 2159.4639,-179.8594"/>
</g>
<!-- Node22 -->
<g id="node15" class="node">
<title>Node22</title>
<g id="a_node15"><a xlink:href="../../d4/d03/PreClusterFinderMapping_8h.html" target="_top" xlink:title="/home/travis/build\l/AliceO2Group/AliceO2\l/Detectors/MUON/MCH/PreClustering\l/src/PreClusterFinderMapping.h">
<polygon fill="none" stroke="#000000" points="1924.5,-95 1924.5,-147 2118.5,-147 2118.5,-95 1924.5,-95"/>
<text text-anchor="start" x="1932.5" y="-135" font-family="Helvetica,sans-Serif" font-size="10.00" fill="#000000">/home/travis/build</text>
<text text-anchor="start" x="1932.5" y="-124" font-family="Helvetica,sans-Serif" font-size="10.00" fill="#000000">/AliceO2Group/AliceO2</text>
<text text-anchor="start" x="1932.5" y="-113" font-family="Helvetica,sans-Serif" font-size="10.00" fill="#000000">/Detectors/MUON/MCH/PreClustering</text>
<text text-anchor="middle" x="2021.5" y="-102" font-family="Helvetica,sans-Serif" font-size="10.00" fill="#000000">/src/PreClusterFinderMapping.h</text>
</a>
</g>
</g>
<!-- Node10&#45;&gt;Node22 -->
<g id="edge15" class="edge">
<title>Node10&#45;&gt;Node22</title>
<path fill="none" stroke="#191970" d="M2083.287,-182.1752C2071.4109,-170.4167 2058.6571,-157.7892 2047.8387,-147.078"/>
<polygon fill="#191970" stroke="#191970" points="2080.9742,-184.8107 2090.543,-189.3594 2085.8993,-179.8364 2080.9742,-184.8107"/>
</g>
<!-- Node24 -->
<g id="node17" class="node">
<title>Node24</title>
<g id="a_node17"><a xlink:href="../../d7/de0/MUON_2MCH_2Simulation_2src_2Digitizer_8cxx.html" target="_top" xlink:title="/home/travis/build\l/AliceO2Group/AliceO2\l/Detectors/MUON/MCH/Simulation\l/src/Digitizer.cxx">
<polygon fill="none" stroke="#000000" points="2331.5,-95 2331.5,-147 2513.5,-147 2513.5,-95 2331.5,-95"/>
<text text-anchor="start" x="2339.5" y="-135" font-family="Helvetica,sans-Serif" font-size="10.00" fill="#000000">/home/travis/build</text>
<text text-anchor="start" x="2339.5" y="-124" font-family="Helvetica,sans-Serif" font-size="10.00" fill="#000000">/AliceO2Group/AliceO2</text>
<text text-anchor="start" x="2339.5" y="-113" font-family="Helvetica,sans-Serif" font-size="10.00" fill="#000000">/Detectors/MUON/MCH/Simulation</text>
<text text-anchor="middle" x="2422.5" y="-102" font-family="Helvetica,sans-Serif" font-size="10.00" fill="#000000">/src/Digitizer.cxx</text>
</a>
</g>
</g>
<!-- Node10&#45;&gt;Node24 -->
<g id="edge18" class="edge">
<title>Node10&#45;&gt;Node24</title>
<path fill="none" stroke="#191970" d="M2226.7007,-186.2664C2265.2223,-173.4259 2308.2015,-159.0995 2344.0566,-147.1478"/>
<polygon fill="#191970" stroke="#191970" points="2225.3901,-183.0139 2217.0101,-189.4966 2227.6038,-189.6547 2225.3901,-183.0139"/>
</g>
<!-- Node25 -->
<g id="node18" class="node">
<title>Node25</title>
<g id="a_node18"><a xlink:href="../../dc/dc3/testDigitization_8cxx.html" target="_top" xlink:title="/home/travis/build\l/AliceO2Group/AliceO2\l/Detectors/MUON/MCH/Simulation\l/test/testDigitization.cxx">
<polygon fill="none" stroke="#000000" points="2531.5,-95 2531.5,-147 2713.5,-147 2713.5,-95 2531.5,-95"/>
<text text-anchor="start" x="2539.5" y="-135" font-family="Helvetica,sans-Serif" font-size="10.00" fill="#000000">/home/travis/build</text>
<text text-anchor="start" x="2539.5" y="-124" font-family="Helvetica,sans-Serif" font-size="10.00" fill="#000000">/AliceO2Group/AliceO2</text>
<text text-anchor="start" x="2539.5" y="-113" font-family="Helvetica,sans-Serif" font-size="10.00" fill="#000000">/Detectors/MUON/MCH/Simulation</text>
<text text-anchor="middle" x="2622.5" y="-102" font-family="Helvetica,sans-Serif" font-size="10.00" fill="#000000">/test/testDigitization.cxx</text>
</a>
</g>
</g>
<!-- Node10&#45;&gt;Node25 -->
<g id="edge19" class="edge">
<title>Node10&#45;&gt;Node25</title>
<path fill="none" stroke="#191970" d="M2238.7489,-205.6706C2319.0511,-194.0029 2427.9918,-176.0323 2522.5,-153 2529.7611,-151.2304 2537.2614,-149.2069 2544.738,-147.0561"/>
<polygon fill="#191970" stroke="#191970" points="2238.004,-202.2417 2228.6059,-207.133 2239.003,-209.1701 2238.004,-202.2417"/>
</g>
<!-- Node12 -->
<g id="node5" class="node">
<title>Node12</title>
<g id="a_node5"><a xlink:href="../../d2/d7e/CreateSegmentation_8cxx.html" target="_top" xlink:title="/home/travis/build\l/AliceO2Group/AliceO2\l/Detectors/MUON/MCH/Mapping\l/Factory/src/CreateSegmentation.cxx">
<polygon fill="none" stroke="#000000" points="2666.5,-.5 2666.5,-52.5 2862.5,-52.5 2862.5,-.5 2666.5,-.5"/>
<text text-anchor="start" x="2674.5" y="-40.5" font-family="Helvetica,sans-Serif" font-size="10.00" fill="#000000">/home/travis/build</text>
<text text-anchor="start" x="2674.5" y="-29.5" font-family="Helvetica,sans-Serif" font-size="10.00" fill="#000000">/AliceO2Group/AliceO2</text>
<text text-anchor="start" x="2674.5" y="-18.5" font-family="Helvetica,sans-Serif" font-size="10.00" fill="#000000">/Detectors/MUON/MCH/Mapping</text>
<text text-anchor="middle" x="2764.5" y="-7.5" font-family="Helvetica,sans-Serif" font-size="10.00" fill="#000000">/Factory/src/CreateSegmentation.cxx</text>
</a>
</g>
</g>
<!-- Node11&#45;&gt;Node12 -->
<g id="edge4" class="edge">
<title>Node11&#45;&gt;Node12</title>
<path fill="none" stroke="#191970" d="M2824.8813,-82.4415C2814.0644,-72.42 2802.6644,-61.8582 2792.7191,-52.6442"/>
<polygon fill="#191970" stroke="#191970" points="2822.5374,-85.0412 2832.2517,-89.27 2827.2948,-79.9062 2822.5374,-85.0412"/>
</g>
<!-- Node11&#45;&gt;Node13 -->
<g id="edge5" class="edge">
<title>Node11&#45;&gt;Node13</title>
<path fill="none" stroke="#191970" d="M2758.8298,-89.6955C2757.7154,-89.4584 2756.6052,-89.2264 2755.5,-89 2628.265,-62.931 2593.18,-76.7939 2465.5,-53 2462.6095,-52.4613 2459.6805,-51.8908 2456.7282,-51.2941"/>
<polygon fill="#191970" stroke="#191970" points="2758.4322,-93.1929 2768.9549,-91.9587 2759.9593,-86.3615 2758.4322,-93.1929"/>
</g>
<!-- Node14 -->
<g id="node7" class="node">
<title>Node14</title>
<g id="a_node7"><a xlink:href="../../d0/d75/DataDecoderSpec_8cxx.html" target="_top" xlink:title="/home/travis/build\l/AliceO2Group/AliceO2\l/Detectors/MUON/MCH/Workflow\l/src/DataDecoderSpec.cxx">
<polygon fill="none" stroke="#000000" points="2880.5,-.5 2880.5,-52.5 3054.5,-52.5 3054.5,-.5 2880.5,-.5"/>
<text text-anchor="start" x="2888.5" y="-40.5" font-family="Helvetica,sans-Serif" font-size="10.00" fill="#000000">/home/travis/build</text>
<text text-anchor="start" x="2888.5" y="-29.5" font-family="Helvetica,sans-Serif" font-size="10.00" fill="#000000">/AliceO2Group/AliceO2</text>
<text text-anchor="start" x="2888.5" y="-18.5" font-family="Helvetica,sans-Serif" font-size="10.00" fill="#000000">/Detectors/MUON/MCH/Workflow</text>
<text text-anchor="middle" x="2967.5" y="-7.5" font-family="Helvetica,sans-Serif" font-size="10.00" fill="#000000">/src/DataDecoderSpec.cxx</text>
</a>
</g>
</g>
<!-- Node11&#45;&gt;Node14 -->
<g id="edge6" class="edge">
<title>Node11&#45;&gt;Node14</title>
<path fill="none" stroke="#191970" d="M2908.0198,-82.1523C2918.6385,-72.217 2929.8045,-61.7696 2939.5576,-52.6442"/>
<polygon fill="#191970" stroke="#191970" points="2905.3234,-79.882 2900.4125,-89.27 2910.1059,-84.9935 2905.3234,-79.882"/>
</g>
<!-- Node15 -->
<g id="node8" class="node">
<title>Node15</title>
<g id="a_node8"><a xlink:href="../../d2/d75/DigitSamplerSpec_8cxx.html" target="_top" xlink:title="Implementation of a data processor to read and send digits. ">
<polygon fill="none" stroke="#000000" points="3072.5,-.5 3072.5,-52.5 3246.5,-52.5 3246.5,-.5 3072.5,-.5"/>
<text text-anchor="start" x="3080.5" y="-40.5" font-family="Helvetica,sans-Serif" font-size="10.00" fill="#000000">/home/travis/build</text>
<text text-anchor="start" x="3080.5" y="-29.5" font-family="Helvetica,sans-Serif" font-size="10.00" fill="#000000">/AliceO2Group/AliceO2</text>
<text text-anchor="start" x="3080.5" y="-18.5" font-family="Helvetica,sans-Serif" font-size="10.00" fill="#000000">/Detectors/MUON/MCH/Workflow</text>
<text text-anchor="middle" x="3159.5" y="-7.5" font-family="Helvetica,sans-Serif" font-size="10.00" fill="#000000">/src/DigitSamplerSpec.cxx</text>
</a>
</g>
</g>
<!-- Node11&#45;&gt;Node15 -->
<g id="edge7" class="edge">
<title>Node11&#45;&gt;Node15</title>
<path fill="none" stroke="#191970" d="M2973.7335,-86.4145C3008.3352,-75.2545 3046.0924,-63.0769 3078.4757,-52.6324"/>
<polygon fill="#191970" stroke="#191970" points="2972.5076,-83.1322 2964.0648,-89.5329 2974.6564,-89.7943 2972.5076,-83.1322"/>
</g>
<!-- Node16 -->
<g id="node9" class="node">
<title>Node16</title>
<g id="a_node9"><a xlink:href="../../db/d1c/file-to-digits-workflow_8cxx.html" target="_top" xlink:title="/home/travis/build\l/AliceO2Group/AliceO2\l/Detectors/MUON/MCH/Workflow\l/src/file&#45;to&#45;digits&#45;workflow.cxx">
<polygon fill="none" stroke="#000000" points="3264.5,-.5 3264.5,-52.5 3438.5,-52.5 3438.5,-.5 3264.5,-.5"/>
<text text-anchor="start" x="3272.5" y="-40.5" font-family="Helvetica,sans-Serif" font-size="10.00" fill="#000000">/home/travis/build</text>
<text text-anchor="start" x="3272.5" y="-29.5" font-family="Helvetica,sans-Serif" font-size="10.00" fill="#000000">/AliceO2Group/AliceO2</text>
<text text-anchor="start" x="3272.5" y="-18.5" font-family="Helvetica,sans-Serif" font-size="10.00" fill="#000000">/Detectors/MUON/MCH/Workflow</text>
<text text-anchor="middle" x="3351.5" y="-7.5" font-family="Helvetica,sans-Serif" font-size="10.00" fill="#000000">/src/file&#45;to&#45;digits&#45;workflow.cxx</text>
</a>
</g>
</g>
<!-- Node11&#45;&gt;Node16 -->
<g id="edge8" class="edge">
<title>Node11&#45;&gt;Node16</title>
<path fill="none" stroke="#191970" d="M2974.0241,-105.0566C3052.4352,-92.7383 3161.0466,-74.2403 3255.5,-53 3258.452,-52.3362 3261.4491,-51.6392 3264.4712,-50.9169"/>
<polygon fill="#191970" stroke="#191970" points="2973.4718,-101.6003 2964.1324,-106.6029 2974.553,-108.5163 2973.4718,-101.6003"/>
</g>
<!-- Node17 -->
<g id="node10" class="node">
<title>Node17</title>
<g id="a_node10"><a xlink:href="../../d0/d5c/PreClusterSinkSpec_8cxx.html" target="_top" xlink:title="Implementation of a data processor to write preclusters. ">
<polygon fill="none" stroke="#000000" points="2474.5,-.5 2474.5,-52.5 2648.5,-52.5 2648.5,-.5 2474.5,-.5"/>
<text text-anchor="start" x="2482.5" y="-40.5" font-family="Helvetica,sans-Serif" font-size="10.00" fill="#000000">/home/travis/build</text>
<text text-anchor="start" x="2482.5" y="-29.5" font-family="Helvetica,sans-Serif" font-size="10.00" fill="#000000">/AliceO2Group/AliceO2</text>
<text text-anchor="start" x="2482.5" y="-18.5" font-family="Helvetica,sans-Serif" font-size="10.00" fill="#000000">/Detectors/MUON/MCH/Workflow</text>
<text text-anchor="middle" x="2561.5" y="-7.5" font-family="Helvetica,sans-Serif" font-size="10.00" fill="#000000">/src/PreClusterSinkSpec.cxx</text>
</a>
</g>
</g>
<!-- Node11&#45;&gt;Node17 -->
<g id="edge9" class="edge">
<title>Node11&#45;&gt;Node17</title>
<path fill="none" stroke="#191970" d="M2758.8747,-87.6538C2721.7094,-76.1387 2680.6406,-63.4141 2645.633,-52.5674"/>
<polygon fill="#191970" stroke="#191970" points="2758.1497,-91.0933 2768.7376,-90.7097 2760.2214,-84.4068 2758.1497,-91.0933"/>
</g>
<!-- Node19 -->
<g id="node12" class="node">
<title>Node19</title>
<g id="a_node12"><a xlink:href="../../de/de2/SegmentationContours_8cxx.html" target="_top" xlink:title="/home/travis/build\l/AliceO2Group/AliceO2\l/Detectors/MUON/MCH/Mapping\l/SegContour/src/SegmentationContours.cxx">
<polygon fill="none" stroke="#000000" points="930.5,-.5 930.5,-52.5 1158.5,-52.5 1158.5,-.5 930.5,-.5"/>
<text text-anchor="start" x="938.5" y="-40.5" font-family="Helvetica,sans-Serif" font-size="10.00" fill="#000000">/home/travis/build</text>
<text text-anchor="start" x="938.5" y="-29.5" font-family="Helvetica,sans-Serif" font-size="10.00" fill="#000000">/AliceO2Group/AliceO2</text>
<text text-anchor="start" x="938.5" y="-18.5" font-family="Helvetica,sans-Serif" font-size="10.00" fill="#000000">/Detectors/MUON/MCH/Mapping</text>
<text text-anchor="middle" x="1044.5" y="-7.5" font-family="Helvetica,sans-Serif" font-size="10.00" fill="#000000">/SegContour/src/SegmentationContours.cxx</text>
</a>
</g>
</g>
<!-- Node18&#45;&gt;Node19 -->
<g id="edge11" class="edge">
<title>Node18&#45;&gt;Node19</title>
<path fill="none" stroke="#191970" d="M1620.8291,-88.9681C1454.9073,-59.9171 1273.3409,-43.052 1158.7421,-34.2321"/>
<polygon fill="#191970" stroke="#191970" points="1620.2686,-92.4232 1630.7254,-90.7187 1621.488,-85.5302 1620.2686,-92.4232"/>
</g>
<!-- Node18&#45;&gt;Node20 -->
<g id="edge12" class="edge">
<title>Node18&#45;&gt;Node20</title>
<path fill="none" stroke="#191970" d="M1765.1842,-79.8289C1768.6992,-70.6021 1772.334,-61.0608 1775.5403,-52.6442"/>
<polygon fill="#191970" stroke="#191970" points="1761.8769,-78.6791 1761.5876,-89.27 1768.4184,-81.1711 1761.8769,-78.6791"/>
</g>
<!-- Node22&#45;&gt;Node13 -->
<g id="edge17" class="edge">
<title>Node22&#45;&gt;Node13</title>
<path fill="none" stroke="#191970" d="M2116.7337,-92.1021C2120.3664,-91.0468 2123.9649,-90.0095 2127.5,-89 2171.6213,-76.4002 2220.6603,-63.0889 2262.2447,-52.0038"/>
<polygon fill="#191970" stroke="#191970" points="2115.6741,-88.7653 2107.0579,-94.9307 2117.6383,-95.4841 2115.6741,-88.7653"/>
</g>
<!-- Node23 -->
<g id="node16" class="node">
<title>Node23</title>
<g id="a_node16"><a xlink:href="../../d8/dfc/PreClusterFinder_8cxx.html" target="_top" xlink:title="/home/travis/build\l/AliceO2Group/AliceO2\l/Detectors/MUON/MCH/PreClustering\l/src/PreClusterFinder.cxx">
<polygon fill="none" stroke="#000000" points="1924.5,-.5 1924.5,-52.5 2118.5,-52.5 2118.5,-.5 1924.5,-.5"/>
<text text-anchor="start" x="1932.5" y="-40.5" font-family="Helvetica,sans-Serif" font-size="10.00" fill="#000000">/home/travis/build</text>
<text text-anchor="start" x="1932.5" y="-29.5" font-family="Helvetica,sans-Serif" font-size="10.00" fill="#000000">/AliceO2Group/AliceO2</text>
<text text-anchor="start" x="1932.5" y="-18.5" font-family="Helvetica,sans-Serif" font-size="10.00" fill="#000000">/Detectors/MUON/MCH/PreClustering</text>
<text text-anchor="middle" x="2021.5" y="-7.5" font-family="Helvetica,sans-Serif" font-size="10.00" fill="#000000">/src/PreClusterFinder.cxx</text>
</a>
</g>
</g>
<!-- Node22&#45;&gt;Node23 -->
<g id="edge16" class="edge">
<title>Node22&#45;&gt;Node23</title>
<path fill="none" stroke="#191970" d="M2021.5,-84.6645C2021.5,-74.0577 2021.5,-62.6746 2021.5,-52.8157"/>
<polygon fill="#191970" stroke="#191970" points="2018.0001,-84.9273 2021.5,-94.9273 2025.0001,-84.9273 2018.0001,-84.9273"/>
</g>
<!-- Node26&#45;&gt;Node19 -->
<g id="edge23" class="edge">
<title>Node26&#45;&gt;Node19</title>
<path fill="none" stroke="#191970" d="M721.8865,-189.9041C720.4169,-189.5984 718.9543,-189.2969 717.5,-189 670.2509,-179.3538 534.6427,-189.8193 503.5,-153 485.1307,-131.2824 484.576,-110.2361 503.5,-89 531.3737,-57.7207 780.001,-39.7938 930.3274,-31.7244"/>
<polygon fill="#191970" stroke="#191970" points="721.1654,-193.3289 731.6737,-191.9778 722.6164,-186.4809 721.1654,-193.3289"/>
</g>
<!-- Node27 -->
<g id="node20" class="node">
<title>Node27</title>
<g id="a_node20"><a xlink:href="../../da/d65/CathodeSegmentationContours_8cxx.html" target="_top" xlink:title="/home/travis/build\l/AliceO2Group/AliceO2\l/Detectors/MUON/MCH/Mapping\l/SegContour/src/CathodeSegmentation\lContours.cxx">
<polygon fill="none" stroke="#000000" points="513,-89.5 513,-152.5 718,-152.5 718,-89.5 513,-89.5"/>
<text text-anchor="start" x="521" y="-140.5" font-family="Helvetica,sans-Serif" font-size="10.00" fill="#000000">/home/travis/build</text>
<text text-anchor="start" x="521" y="-129.5" font-family="Helvetica,sans-Serif" font-size="10.00" fill="#000000">/AliceO2Group/AliceO2</text>
<text text-anchor="start" x="521" y="-118.5" font-family="Helvetica,sans-Serif" font-size="10.00" fill="#000000">/Detectors/MUON/MCH/Mapping</text>
<text text-anchor="start" x="521" y="-107.5" font-family="Helvetica,sans-Serif" font-size="10.00" fill="#000000">/SegContour/src/CathodeSegmentation</text>
<text text-anchor="middle" x="615.5" y="-96.5" font-family="Helvetica,sans-Serif" font-size="10.00" fill="#000000">Contours.cxx</text>
</a>
</g>
</g>
<!-- Node26&#45;&gt;Node27 -->
<g id="edge21" class="edge">
<title>Node26&#45;&gt;Node27</title>
<path fill="none" stroke="#191970" d="M767.2482,-185.5737C741.9131,-174.7928 714.2503,-163.0214 689.5644,-152.5168"/>
<polygon fill="#191970" stroke="#191970" points="765.8951,-188.8016 776.4671,-189.4966 768.636,-182.3605 765.8951,-188.8016"/>
</g>
<!-- Node26&#45;&gt;Node28 -->
<g id="edge22" class="edge">
<title>Node26&#45;&gt;Node28</title>
<path fill="none" stroke="#191970" d="M721.3879,-195.3102C707.2857,-192.9607 693.1139,-190.7944 679.5,-189 473.5529,-161.8556 417.9133,-189.9624 213.5,-153 210.737,-152.5004 207.9443,-151.9597 205.1333,-151.384"/>
<polygon fill="#191970" stroke="#191970" points="721.1902,-198.8267 731.6351,-197.0508 722.3625,-191.9255 721.1902,-198.8267"/>
</g>
<!-- Node26&#45;&gt;Node29 -->
<g id="edge24" class="edge">
<title>Node26&#45;&gt;Node29</title>
<path fill="none" stroke="#191970" d="M721.8955,-189.8585C720.4231,-189.5672 718.9575,-189.2809 717.5,-189 608.5676,-168.0025 579.3958,-174.1864 470.5,-153 461.1927,-151.1892 451.5517,-149.1505 441.9153,-147.0012"/>
<polygon fill="#191970" stroke="#191970" points="721.2033,-193.2893 731.6996,-191.8475 722.5952,-186.429 721.2033,-193.2893"/>
</g>
<!-- Node26&#45;&gt;Node30 -->
<g id="edge25" class="edge">
<title>Node26&#45;&gt;Node30</title>
<path fill="none" stroke="#191970" d="M845.4796,-179.1631C844.1744,-168.2863 842.8056,-156.8798 841.6294,-147.078"/>
<polygon fill="#191970" stroke="#191970" points="842.0365,-179.8476 846.7031,-189.3594 848.9867,-179.0136 842.0365,-179.8476"/>
</g>
<!-- Node26&#45;&gt;Node31 -->
<g id="edge26" class="edge">
<title>Node26&#45;&gt;Node31</title>
<path fill="none" stroke="#191970" d="M928.3603,-185.2843C955.7962,-172.699 986.1055,-158.7957 1011.4978,-147.1478"/>
<polygon fill="#191970" stroke="#191970" points="926.8074,-182.1459 919.1773,-189.4966 929.726,-188.5084 926.8074,-182.1459"/>
</g>
<!-- Node26&#45;&gt;Node32 -->
<g id="edge27" class="edge">
<title>Node26&#45;&gt;Node32</title>
<path fill="none" stroke="#191970" d="M979.3098,-198.107C1042.1451,-186.1336 1118.6335,-170.362 1186.5,-153 1193.6656,-151.1668 1201.0722,-149.1375 1208.4747,-147.0163"/>
<polygon fill="#191970" stroke="#191970" points="978.5189,-194.6945 969.3457,-199.9957 979.8226,-201.572 978.5189,-194.6945"/>
</g>
<!-- Node26&#45;&gt;Node33 -->
<g id="edge28" class="edge">
<title>Node26&#45;&gt;Node33</title>
<path fill="none" stroke="#191970" d="M979.3736,-210.1949C1089.7311,-199.6664 1252.5184,-181.0992 1392.5,-153 1401.1354,-151.2666 1410.073,-149.2268 1418.9747,-147.03"/>
<polygon fill="#191970" stroke="#191970" points="978.8196,-206.7315 969.1935,-211.1575 979.4786,-213.7005 978.8196,-206.7315"/>
</g>
</g>
</svg>
