<?xml version="1.0" encoding="UTF-8" standalone="no"?>
<!DOCTYPE svg PUBLIC "-//W3C//DTD SVG 1.1//EN"
 "http://www.w3.org/Graphics/SVG/1.1/DTD/svg11.dtd">
<!-- Generated by graphviz version 2.40.1 (20161225.0304)
 -->
<!-- Title: /home/travis/build/AliceO2Group/AliceO2/Framework/Core/test/benchmark_ASoA.cxx Pages: 1 -->
<svg width="2813pt" height="341pt"
 viewBox="0.00 0.00 2812.50 341.00" xmlns="http://www.w3.org/2000/svg" xmlns:xlink="http://www.w3.org/1999/xlink">
<g id="graph0" class="graph" transform="scale(1 1) rotate(0) translate(4 337)">
<title>/home/travis/build/AliceO2Group/AliceO2/Framework/Core/test/benchmark_ASoA.cxx</title>
<!-- Node0 -->
<g id="node1" class="node">
<title>Node0</title>
<polygon fill="#bfbfbf" stroke="#000000" points="1035,-280.5 1035,-332.5 1214,-332.5 1214,-280.5 1035,-280.5"/>
<text text-anchor="start" x="1043" y="-320.5" font-family="Helvetica,sans-Serif" font-size="10.00" fill="#000000">/home/travis/build</text>
<text text-anchor="start" x="1043" y="-309.5" font-family="Helvetica,sans-Serif" font-size="10.00" fill="#000000">/AliceO2Group/AliceO2</text>
<text text-anchor="start" x="1043" y="-298.5" font-family="Helvetica,sans-Serif" font-size="10.00" fill="#000000">/Framework/Core/test/benchmark</text>
<text text-anchor="middle" x="1124.5" y="-287.5" font-family="Helvetica,sans-Serif" font-size="10.00" fill="#000000">_ASoA.cxx</text>
</g>
<!-- Node1 -->
<g id="node2" class="node">
<title>Node1</title>
<g id="a_node2"><a xlink:href="../../de/d33/ASoA_8h.html" target="_top" xlink:title="Framework/ASoA.h">
<polygon fill="none" stroke="#000000" points="1027.5,-168.5 1027.5,-187.5 1135.5,-187.5 1135.5,-168.5 1027.5,-168.5"/>
<text text-anchor="middle" x="1081.5" y="-175.5" font-family="Helvetica,sans-Serif" font-size="10.00" fill="#000000">Framework/ASoA.h</text>
</a>
</g>
</g>
<!-- Node0&#45;&gt;Node1 -->
<g id="edge1" class="edge">
<title>Node0&#45;&gt;Node1</title>
<path fill="none" stroke="#191970" d="M1104.0661,-280.27C1096.8818,-269.6054 1089.5866,-256.7925 1085.5,-244 1080.6969,-228.9644 1079.8994,-211.0402 1080.1903,-197.668"/>
<polygon fill="#191970" stroke="#191970" points="1083.6872,-197.8124 1080.6266,-187.6693 1076.6939,-197.5072 1083.6872,-197.8124"/>
</g>
<!-- Node30 -->
<g id="node31" class="node">
<title>Node30</title>
<g id="a_node31"><a xlink:href="../../d5/d98/TableBuilder_8h.html" target="_top" xlink:title="Framework/TableBuilder.h">
<polygon fill="none" stroke="#000000" points="648.5,-224.5 648.5,-243.5 790.5,-243.5 790.5,-224.5 648.5,-224.5"/>
<text text-anchor="middle" x="719.5" y="-231.5" font-family="Helvetica,sans-Serif" font-size="10.00" fill="#000000">Framework/TableBuilder.h</text>
</a>
</g>
</g>
<!-- Node0&#45;&gt;Node30 -->
<g id="edge40" class="edge">
<title>Node0&#45;&gt;Node30</title>
<path fill="none" stroke="#191970" d="M1034.8686,-290.4549C958.411,-276.768 850.4116,-257.4348 782.7101,-245.3154"/>
<polygon fill="#191970" stroke="#191970" points="783.0723,-241.8247 772.6121,-243.5077 781.8388,-248.7151 783.0723,-241.8247"/>
</g>
<!-- Node38 -->
<g id="node39" class="node">
<title>Node38</title>
<polygon fill="none" stroke="#bfbfbf" points="961,-168.5 961,-187.5 1008,-187.5 1008,-168.5 961,-168.5"/>
<text text-anchor="middle" x="984.5" y="-175.5" font-family="Helvetica,sans-Serif" font-size="10.00" fill="#000000">vector</text>
</g>
<!-- Node0&#45;&gt;Node38 -->
<g id="edge75" class="edge">
<title>Node0&#45;&gt;Node38</title>
<path fill="none" stroke="#191970" d="M1096.1689,-280.4961C1068.1517,-254.7803 1026.1323,-216.2125 1002.4318,-194.4589"/>
<polygon fill="#191970" stroke="#191970" points="1004.5995,-191.6977 994.8656,-187.5142 999.8661,-196.8547 1004.5995,-191.6977"/>
</g>
<!-- Node39 -->
<g id="node40" class="node">
<title>Node39</title>
<g id="a_node40"><a xlink:href="../../d2/d8c/AnalysisDataModel_8h.html" target="_top" xlink:title="Framework/AnalysisDataModel.h">
<polygon fill="none" stroke="#000000" points="1094.5,-224.5 1094.5,-243.5 1270.5,-243.5 1270.5,-224.5 1094.5,-224.5"/>
<text text-anchor="middle" x="1182.5" y="-231.5" font-family="Helvetica,sans-Serif" font-size="10.00" fill="#000000">Framework/AnalysisDataModel.h</text>
</a>
</g>
</g>
<!-- Node0&#45;&gt;Node39 -->
<g id="edge59" class="edge">
<title>Node0&#45;&gt;Node39</title>
<path fill="none" stroke="#191970" d="M1145.4393,-280.3258C1153.1295,-270.7131 1161.6412,-260.0735 1168.5661,-251.4174"/>
<polygon fill="#191970" stroke="#191970" points="1171.3589,-253.5292 1174.8728,-243.534 1165.8928,-249.1563 1171.3589,-253.5292"/>
</g>
<!-- Node49 -->
<g id="node50" class="node">
<title>Node49</title>
<polygon fill="none" stroke="#bfbfbf" points="1288.5,-224.5 1288.5,-243.5 1426.5,-243.5 1426.5,-224.5 1288.5,-224.5"/>
<text text-anchor="middle" x="1357.5" y="-231.5" font-family="Helvetica,sans-Serif" font-size="10.00" fill="#000000">benchmark/benchmark.h</text>
</g>
<!-- Node0&#45;&gt;Node49 -->
<g id="edge73" class="edge">
<title>Node0&#45;&gt;Node49</title>
<path fill="none" stroke="#191970" d="M1208.2892,-280.4283C1245.3294,-268.9029 1287.1703,-255.8837 1317.0989,-246.5711"/>
<polygon fill="#191970" stroke="#191970" points="1318.2593,-249.8757 1326.7678,-243.5626 1316.1795,-243.1918 1318.2593,-249.8757"/>
</g>
<!-- Node50 -->
<g id="node51" class="node">
<title>Node50</title>
<polygon fill="none" stroke="#bfbfbf" points="1444.5,-224.5 1444.5,-243.5 1498.5,-243.5 1498.5,-224.5 1444.5,-224.5"/>
<text text-anchor="middle" x="1471.5" y="-231.5" font-family="Helvetica,sans-Serif" font-size="10.00" fill="#000000">random</text>
</g>
<!-- Node0&#45;&gt;Node50 -->
<g id="edge74" class="edge">
<title>Node0&#45;&gt;Node50</title>
<path fill="none" stroke="#191970" d="M1214.0239,-290.2939C1273.9355,-279.03 1354.7128,-263.0409 1434.6811,-244.0746"/>
<polygon fill="#191970" stroke="#191970" points="1435.5144,-247.4741 1444.4279,-241.747 1433.8884,-240.6655 1435.5144,-247.4741"/>
</g>
<!-- Node2 -->
<g id="node3" class="node">
<title>Node2</title>
<g id="a_node3"><a xlink:href="../../dd/dce/Pack_8h.html" target="_top" xlink:title="Framework/Pack.h">
<polygon fill="none" stroke="#000000" points="646,-56.5 646,-75.5 751,-75.5 751,-56.5 646,-56.5"/>
<text text-anchor="middle" x="698.5" y="-63.5" font-family="Helvetica,sans-Serif" font-size="10.00" fill="#000000">Framework/Pack.h</text>
</a>
</g>
</g>
<!-- Node1&#45;&gt;Node2 -->
<g id="edge2" class="edge">
<title>Node1&#45;&gt;Node2</title>
<path fill="none" stroke="#191970" d="M1027.4424,-169.6935C983.6556,-162.1798 920.7211,-149.5884 867.5,-132 847.104,-125.2595 843.371,-120.1593 823.5,-112 794.4182,-100.0586 760.9711,-87.8271 735.9973,-78.9814"/>
<polygon fill="#191970" stroke="#191970" points="737.1248,-75.6678 726.5299,-75.6464 734.799,-82.2702 737.1248,-75.6678"/>
</g>
<!-- Node6 -->
<g id="node7" class="node">
<title>Node6</title>
<g id="a_node7"><a xlink:href="../../d1/d00/CheckTypes_8h.html" target="_top" xlink:title="Framework/CheckTypes.h">
<polygon fill="none" stroke="#000000" points="1274.5,-56.5 1274.5,-75.5 1414.5,-75.5 1414.5,-56.5 1274.5,-56.5"/>
<text text-anchor="middle" x="1344.5" y="-63.5" font-family="Helvetica,sans-Serif" font-size="10.00" fill="#000000">Framework/CheckTypes.h</text>
</a>
</g>
</g>
<!-- Node1&#45;&gt;Node6 -->
<g id="edge6" class="edge">
<title>Node1&#45;&gt;Node6</title>
<path fill="none" stroke="#191970" d="M1135.8408,-173.7318C1220.0447,-166.5609 1374.1203,-150.9986 1390.5,-132 1404.3723,-115.9096 1385.5193,-95.6393 1367.9326,-81.8368"/>
<polygon fill="#191970" stroke="#191970" points="1369.6687,-78.7672 1359.5498,-75.6273 1365.5021,-84.3921 1369.6687,-78.7672"/>
</g>
<!-- Node7 -->
<g id="node8" class="node">
<title>Node7</title>
<g id="a_node8"><a xlink:href="../../de/d9b/FunctionalHelpers_8h.html" target="_top" xlink:title="Framework/FunctionalHelpers.h">
<polygon fill="none" stroke="#000000" points="573.5,-112.5 573.5,-131.5 743.5,-131.5 743.5,-112.5 573.5,-112.5"/>
<text text-anchor="middle" x="658.5" y="-119.5" font-family="Helvetica,sans-Serif" font-size="10.00" fill="#000000">Framework/FunctionalHelpers.h</text>
</a>
</g>
</g>
<!-- Node1&#45;&gt;Node7 -->
<g id="edge7" class="edge">
<title>Node1&#45;&gt;Node7</title>
<path fill="none" stroke="#191970" d="M1027.2504,-169.5508C1023.6137,-169.0162 1020.0047,-168.4947 1016.5,-168 924.793,-155.0559 819.6498,-141.7254 747.1524,-132.7691"/>
<polygon fill="#191970" stroke="#191970" points="747.4974,-129.2852 737.1442,-131.5349 746.6406,-136.2326 747.4974,-129.2852"/>
</g>
<!-- Node9 -->
<g id="node10" class="node">
<title>Node9</title>
<g id="a_node10"><a xlink:href="../../d9/de8/CompilerBuiltins_8h.html" target="_top" xlink:title="Framework/CompilerBuiltins.h">
<polygon fill="none" stroke="#000000" points="463.5,-56.5 463.5,-75.5 627.5,-75.5 627.5,-56.5 463.5,-56.5"/>
<text text-anchor="middle" x="545.5" y="-63.5" font-family="Helvetica,sans-Serif" font-size="10.00" fill="#000000">Framework/CompilerBuiltins.h</text>
</a>
</g>
</g>
<!-- Node1&#45;&gt;Node9 -->
<g id="edge10" class="edge">
<title>Node1&#45;&gt;Node9</title>
<path fill="none" stroke="#191970" d="M1027.3186,-168.9836C963.4943,-158.2491 861.3604,-140.6856 823.5,-132 791.5464,-124.6695 784.2917,-120.0035 752.5,-112 701.8743,-99.2551 643.8185,-86.5151 602.0984,-77.6852"/>
<polygon fill="#191970" stroke="#191970" points="602.632,-74.2208 592.1251,-75.583 601.1882,-81.0703 602.632,-74.2208"/>
</g>
<!-- Node10 -->
<g id="node11" class="node">
<title>Node10</title>
<g id="a_node11"><a xlink:href="../../db/d31/Traits_8h.html" target="_top" xlink:title="Framework/Traits.h">
<polygon fill="none" stroke="#000000" points="370,-112.5 370,-131.5 479,-131.5 479,-112.5 370,-112.5"/>
<text text-anchor="middle" x="424.5" y="-119.5" font-family="Helvetica,sans-Serif" font-size="10.00" fill="#000000">Framework/Traits.h</text>
</a>
</g>
</g>
<!-- Node1&#45;&gt;Node10 -->
<g id="edge11" class="edge">
<title>Node1&#45;&gt;Node10</title>
<path fill="none" stroke="#191970" d="M1027.2767,-169.3464C1023.6336,-168.8612 1020.016,-168.4065 1016.5,-168 965.2985,-162.0806 632.7869,-137.3353 489.7509,-126.7915"/>
<polygon fill="#191970" stroke="#191970" points="489.606,-123.2714 479.3758,-126.0271 489.0916,-130.2525 489.606,-123.2714"/>
</g>
<!-- Node12 -->
<g id="node13" class="node">
<title>Node12</title>
<g id="a_node13"><a xlink:href="../../d0/d91/Expressions_8h.html" target="_top" xlink:title="Framework/Expressions.h">
<polygon fill="none" stroke="#000000" points="1240,-112.5 1240,-131.5 1381,-131.5 1381,-112.5 1240,-112.5"/>
<text text-anchor="middle" x="1310.5" y="-119.5" font-family="Helvetica,sans-Serif" font-size="10.00" fill="#000000">Framework/Expressions.h</text>
</a>
</g>
</g>
<!-- Node1&#45;&gt;Node12 -->
<g id="edge13" class="edge">
<title>Node1&#45;&gt;Node12</title>
<path fill="none" stroke="#191970" d="M1120.6063,-168.4369C1159.6332,-158.8932 1219.6965,-144.2052 1261.7962,-133.9101"/>
<polygon fill="#191970" stroke="#191970" points="1262.6726,-137.299 1271.555,-131.5237 1261.0098,-130.4993 1262.6726,-137.299"/>
</g>
<!-- Node15 -->
<g id="node16" class="node">
<title>Node15</title>
<polygon fill="none" stroke="#bfbfbf" points="769,-56.5 769,-75.5 850,-75.5 850,-56.5 769,-56.5"/>
<text text-anchor="middle" x="809.5" y="-63.5" font-family="Helvetica,sans-Serif" font-size="10.00" fill="#000000">arrow/table.h</text>
</g>
<!-- Node1&#45;&gt;Node15 -->
<g id="edge33" class="edge">
<title>Node1&#45;&gt;Node15</title>
<path fill="none" stroke="#191970" d="M1027.1497,-169.0377C991.2379,-161.8845 943.7361,-150.0289 904.5,-132 875.9583,-118.8852 846.8313,-97.1596 828.4881,-82.2403"/>
<polygon fill="#191970" stroke="#191970" points="830.3306,-79.2213 820.3993,-75.5306 825.8615,-84.6089 830.3306,-79.2213"/>
</g>
<!-- Node16 -->
<g id="node17" class="node">
<title>Node16</title>
<polygon fill="none" stroke="#bfbfbf" points="1433,-56.5 1433,-75.5 1580,-75.5 1580,-56.5 1433,-56.5"/>
<text text-anchor="middle" x="1506.5" y="-63.5" font-family="Helvetica,sans-Serif" font-size="10.00" fill="#000000">gandiva/selection_vector.h</text>
</g>
<!-- Node1&#45;&gt;Node16 -->
<g id="edge38" class="edge">
<title>Node1&#45;&gt;Node16</title>
<path fill="none" stroke="#191970" d="M1135.7652,-173.2333C1214.9869,-165.7816 1358.1366,-150.314 1406.5,-132 1437.5404,-120.2458 1468.7355,-97.5037 1487.8336,-82.0375"/>
<polygon fill="#191970" stroke="#191970" points="1490.2458,-84.5841 1495.7132,-75.5089 1485.7798,-79.1939 1490.2458,-84.5841"/>
</g>
<!-- Node22 -->
<g id="node23" class="node">
<title>Node22</title>
<g id="a_node23"><a xlink:href="../../d0/d92/Kernels_8h.html" target="_top" xlink:title="Framework/Kernels.h">
<polygon fill="none" stroke="#000000" points="1814,-112.5 1814,-131.5 1933,-131.5 1933,-112.5 1814,-112.5"/>
<text text-anchor="middle" x="1873.5" y="-119.5" font-family="Helvetica,sans-Serif" font-size="10.00" fill="#000000">Framework/Kernels.h</text>
</a>
</g>
</g>
<!-- Node1&#45;&gt;Node22 -->
<g id="edge26" class="edge">
<title>Node1&#45;&gt;Node22</title>
<path fill="none" stroke="#191970" d="M1135.6257,-174.1729C1275.2602,-164.2998 1647.5945,-137.9731 1803.4055,-126.9562"/>
<polygon fill="#191970" stroke="#191970" points="1804.0691,-130.4181 1813.7973,-126.2214 1803.5753,-123.4355 1804.0691,-130.4181"/>
</g>
<!-- Node23 -->
<g id="node24" class="node">
<title>Node23</title>
<polygon fill="none" stroke="#bfbfbf" points="1807,-56.5 1807,-75.5 1940,-75.5 1940,-56.5 1807,-56.5"/>
<text text-anchor="middle" x="1873.5" y="-63.5" font-family="Helvetica,sans-Serif" font-size="10.00" fill="#000000">arrow/compute/kernel.h</text>
</g>
<!-- Node1&#45;&gt;Node23 -->
<g id="edge37" class="edge">
<title>Node1&#45;&gt;Node23</title>
<path fill="none" stroke="#191970" d="M1135.5311,-171.4523C1205.6669,-162.8625 1331.8324,-147.1018 1439.5,-132 1568.2344,-113.9433 1718.0861,-90.6491 1803.7672,-77.1125"/>
<polygon fill="#191970" stroke="#191970" points="1804.5618,-80.5304 1813.8922,-75.5111 1803.4682,-73.6164 1804.5618,-80.5304"/>
</g>
<!-- Node26 -->
<g id="node27" class="node">
<title>Node26</title>
<polygon fill="none" stroke="#bfbfbf" points="2196.5,-56.5 2196.5,-75.5 2306.5,-75.5 2306.5,-56.5 2196.5,-56.5"/>
<text text-anchor="middle" x="2251.5" y="-63.5" font-family="Helvetica,sans-Serif" font-size="10.00" fill="#000000">arrow/util/variant.h</text>
</g>
<!-- Node1&#45;&gt;Node26 -->
<g id="edge35" class="edge">
<title>Node1&#45;&gt;Node26</title>
<path fill="none" stroke="#191970" d="M1135.6987,-176.2203C1299.1123,-170.678 1785.3899,-152.8443 1942.5,-132 2037.0861,-119.451 2145.7882,-93.4862 2205.7592,-78.1293"/>
<polygon fill="#191970" stroke="#191970" points="2206.8564,-81.461 2215.6659,-75.5752 2205.1088,-74.6826 2206.8564,-81.461"/>
</g>
<!-- Node27 -->
<g id="node28" class="node">
<title>Node27</title>
<polygon fill="none" stroke="#bfbfbf" points="913.5,-112.5 913.5,-131.5 993.5,-131.5 993.5,-112.5 913.5,-112.5"/>
<text text-anchor="middle" x="953.5" y="-119.5" font-family="Helvetica,sans-Serif" font-size="10.00" fill="#000000">arrow/array.h</text>
</g>
<!-- Node1&#45;&gt;Node27 -->
<g id="edge34" class="edge">
<title>Node1&#45;&gt;Node27</title>
<path fill="none" stroke="#191970" d="M1059.496,-168.3733C1038.8565,-159.3435 1007.7842,-145.7494 984.6111,-135.6111"/>
<polygon fill="#191970" stroke="#191970" points="985.7813,-132.3028 975.2169,-131.5011 982.9755,-138.7159 985.7813,-132.3028"/>
</g>
<!-- Node28 -->
<g id="node29" class="node">
<title>Node28</title>
<polygon fill="none" stroke="#bfbfbf" points="1012,-112.5 1012,-131.5 1151,-131.5 1151,-112.5 1012,-112.5"/>
<text text-anchor="middle" x="1081.5" y="-119.5" font-family="Helvetica,sans-Serif" font-size="10.00" fill="#000000">arrow/compute/context.h</text>
</g>
<!-- Node1&#45;&gt;Node28 -->
<g id="edge36" class="edge">
<title>Node1&#45;&gt;Node28</title>
<path fill="none" stroke="#191970" d="M1081.5,-168.2455C1081.5,-160.9382 1081.5,-150.6944 1081.5,-141.7046"/>
<polygon fill="#191970" stroke="#191970" points="1085.0001,-141.6426 1081.5,-131.6427 1078.0001,-141.6427 1085.0001,-141.6426"/>
</g>
<!-- Node29 -->
<g id="node30" class="node">
<title>Node29</title>
<polygon fill="none" stroke="#bfbfbf" points="1169.5,-112.5 1169.5,-131.5 1221.5,-131.5 1221.5,-112.5 1169.5,-112.5"/>
<text text-anchor="middle" x="1195.5" y="-119.5" font-family="Helvetica,sans-Serif" font-size="10.00" fill="#000000">cassert</text>
</g>
<!-- Node1&#45;&gt;Node29 -->
<g id="edge39" class="edge">
<title>Node1&#45;&gt;Node29</title>
<path fill="none" stroke="#191970" d="M1101.0973,-168.3733C1119.2331,-159.4644 1146.4135,-146.1127 1166.9587,-136.0203"/>
<polygon fill="#191970" stroke="#191970" points="1168.7261,-139.0517 1176.1584,-131.5011 1165.6397,-132.7688 1168.7261,-139.0517"/>
</g>
<!-- Node3 -->
<g id="node4" class="node">
<title>Node3</title>
<polygon fill="none" stroke="#bfbfbf" points="605,-.5 605,-19.5 658,-19.5 658,-.5 605,-.5"/>
<text text-anchor="middle" x="631.5" y="-7.5" font-family="Helvetica,sans-Serif" font-size="10.00" fill="#000000">cstddef</text>
</g>
<!-- Node2&#45;&gt;Node3 -->
<g id="edge3" class="edge">
<title>Node2&#45;&gt;Node3</title>
<path fill="none" stroke="#191970" d="M686.8295,-56.2455C676.9339,-47.9746 662.5373,-35.9416 650.9099,-26.2232"/>
<polygon fill="#191970" stroke="#191970" points="652.9542,-23.3703 643.0368,-19.6427 648.465,-28.7413 652.9542,-23.3703"/>
</g>
<!-- Node4 -->
<g id="node5" class="node">
<title>Node4</title>
<polygon fill="none" stroke="#bfbfbf" points="676,-.5 676,-19.5 721,-19.5 721,-.5 676,-.5"/>
<text text-anchor="middle" x="698.5" y="-7.5" font-family="Helvetica,sans-Serif" font-size="10.00" fill="#000000">utility</text>
</g>
<!-- Node2&#45;&gt;Node4 -->
<g id="edge4" class="edge">
<title>Node2&#45;&gt;Node4</title>
<path fill="none" stroke="#191970" d="M698.5,-56.2455C698.5,-48.9382 698.5,-38.6944 698.5,-29.7046"/>
<polygon fill="#191970" stroke="#191970" points="702.0001,-29.6426 698.5,-19.6427 695.0001,-29.6427 702.0001,-29.6426"/>
</g>
<!-- Node5 -->
<g id="node6" class="node">
<title>Node5</title>
<polygon fill="none" stroke="#bfbfbf" points="739.5,-.5 739.5,-19.5 785.5,-19.5 785.5,-.5 739.5,-.5"/>
<text text-anchor="middle" x="762.5" y="-7.5" font-family="Helvetica,sans-Serif" font-size="10.00" fill="#000000">cstdio</text>
</g>
<!-- Node2&#45;&gt;Node5 -->
<g id="edge5" class="edge">
<title>Node2&#45;&gt;Node5</title>
<path fill="none" stroke="#191970" d="M709.6479,-56.2455C719.0087,-48.0549 732.5858,-36.1749 743.6349,-26.5069"/>
<polygon fill="#191970" stroke="#191970" points="746.2588,-28.8618 751.4798,-19.6427 741.6492,-23.5937 746.2588,-28.8618"/>
</g>
<!-- Node7&#45;&gt;Node2 -->
<g id="edge8" class="edge">
<title>Node7&#45;&gt;Node2</title>
<path fill="none" stroke="#191970" d="M665.4675,-112.2455C671.0311,-104.4564 678.978,-93.3308 685.6829,-83.9439"/>
<polygon fill="#191970" stroke="#191970" points="688.648,-85.8144 691.6124,-75.6427 682.9519,-81.7457 688.648,-85.8144"/>
</g>
<!-- Node8 -->
<g id="node9" class="node">
<title>Node8</title>
<polygon fill="none" stroke="#bfbfbf" points="214,-56.5 214,-75.5 279,-75.5 279,-56.5 214,-56.5"/>
<text text-anchor="middle" x="246.5" y="-63.5" font-family="Helvetica,sans-Serif" font-size="10.00" fill="#000000">functional</text>
</g>
<!-- Node7&#45;&gt;Node8 -->
<g id="edge9" class="edge">
<title>Node7&#45;&gt;Node8</title>
<path fill="none" stroke="#191970" d="M573.4849,-113.9503C498.4496,-106.2399 386.2673,-93.235 289.5,-76 289.3962,-75.9815 289.2924,-75.963 289.1884,-75.9443"/>
<polygon fill="#191970" stroke="#191970" points="289.7826,-72.4942 279.2951,-73.9987 288.4318,-79.3626 289.7826,-72.4942"/>
</g>
<!-- Node11 -->
<g id="node12" class="node">
<title>Node11</title>
<polygon fill="none" stroke="#bfbfbf" points="299,-56.5 299,-75.5 368,-75.5 368,-56.5 299,-56.5"/>
<text text-anchor="middle" x="333.5" y="-63.5" font-family="Helvetica,sans-Serif" font-size="10.00" fill="#000000">type_traits</text>
</g>
<!-- Node10&#45;&gt;Node11 -->
<g id="edge12" class="edge">
<title>Node10&#45;&gt;Node11</title>
<path fill="none" stroke="#191970" d="M408.649,-112.2455C394.6868,-103.6534 374.1272,-91.0014 358.0404,-81.1018"/>
<polygon fill="#191970" stroke="#191970" points="359.5203,-77.9029 349.1693,-75.6427 355.8516,-83.8645 359.5203,-77.9029"/>
</g>
<!-- Node12&#45;&gt;Node2 -->
<g id="edge16" class="edge">
<title>Node12&#45;&gt;Node2</title>
<path fill="none" stroke="#191970" d="M1239.8506,-112.9819C1236.6919,-112.6376 1233.5639,-112.3084 1230.5,-112 1024.8755,-91.3023 969.6643,-100.6992 761.0812,-76.1039"/>
<polygon fill="#191970" stroke="#191970" points="761.3754,-72.6143 751.0315,-74.9068 760.5473,-79.5651 761.3754,-72.6143"/>
</g>
<!-- Node12&#45;&gt;Node6 -->
<g id="edge17" class="edge">
<title>Node12&#45;&gt;Node6</title>
<path fill="none" stroke="#191970" d="M1316.4223,-112.2455C1321.1027,-104.5367 1327.7673,-93.5598 1333.4289,-84.2348"/>
<polygon fill="#191970" stroke="#191970" points="1336.4475,-86.007 1338.6455,-75.6427 1330.4639,-82.3741 1336.4475,-86.007"/>
</g>
<!-- Node12&#45;&gt;Node9 -->
<g id="edge15" class="edge">
<title>Node12&#45;&gt;Node9</title>
<path fill="none" stroke="#191970" d="M1239.8564,-112.9214C1236.6962,-112.5935 1233.5662,-112.2843 1230.5,-112 970.4883,-87.8949 901.7654,-98.1816 638.0912,-76.097"/>
<polygon fill="#191970" stroke="#191970" points="638.0816,-72.5838 627.8223,-75.2289 637.4919,-79.559 638.0816,-72.5838"/>
</g>
<!-- Node13 -->
<g id="node14" class="node">
<title>Node13</title>
<g id="a_node14"><a xlink:href="../../dd/dc2/BasicOps_8h.html" target="_top" xlink:title="Framework/BasicOps.h">
<polygon fill="none" stroke="#000000" points="1598.5,-56.5 1598.5,-75.5 1726.5,-75.5 1726.5,-56.5 1598.5,-56.5"/>
<text text-anchor="middle" x="1662.5" y="-63.5" font-family="Helvetica,sans-Serif" font-size="10.00" fill="#000000">Framework/BasicOps.h</text>
</a>
</g>
</g>
<!-- Node12&#45;&gt;Node13 -->
<g id="edge14" class="edge">
<title>Node12&#45;&gt;Node13</title>
<path fill="none" stroke="#191970" d="M1370.611,-112.4369C1432.1187,-102.6516 1527.6197,-87.4582 1592.4973,-77.1368"/>
<polygon fill="#191970" stroke="#191970" points="1593.3111,-80.5514 1602.6369,-75.5237 1592.2112,-73.6384 1593.3111,-80.5514"/>
</g>
<!-- Node14 -->
<g id="node15" class="node">
<title>Node14</title>
<polygon fill="none" stroke="#bfbfbf" points="937,-56.5 937,-75.5 1038,-75.5 1038,-56.5 937,-56.5"/>
<text text-anchor="middle" x="987.5" y="-63.5" font-family="Helvetica,sans-Serif" font-size="10.00" fill="#000000">arrow/type_fwd.h</text>
</g>
<!-- Node12&#45;&gt;Node14 -->
<g id="edge18" class="edge">
<title>Node12&#45;&gt;Node14</title>
<path fill="none" stroke="#191970" d="M1255.3413,-112.4369C1197.7707,-102.4556 1107.7454,-86.8475 1048.1929,-76.5226"/>
<polygon fill="#191970" stroke="#191970" points="1048.6264,-73.0456 1038.1754,-74.7858 1047.4305,-79.9427 1048.6264,-73.0456"/>
</g>
<!-- Node12&#45;&gt;Node15 -->
<g id="edge19" class="edge">
<title>Node12&#45;&gt;Node15</title>
<path fill="none" stroke="#191970" d="M1239.8424,-113.0594C1236.6859,-112.6942 1233.5606,-112.3393 1230.5,-112 1068.6303,-94.0543 1024.4801,-100.3795 860.0549,-76.1108"/>
<polygon fill="#191970" stroke="#191970" points="860.4906,-72.6372 850.0837,-74.6236 859.4579,-79.5606 860.4906,-72.6372"/>
</g>
<!-- Node12&#45;&gt;Node16 -->
<g id="edge20" class="edge">
<title>Node12&#45;&gt;Node16</title>
<path fill="none" stroke="#191970" d="M1344.1936,-112.3733C1377.2087,-102.9404 1427.6573,-88.5265 1463.5386,-78.2747"/>
<polygon fill="#191970" stroke="#191970" points="1464.5924,-81.6137 1473.2461,-75.5011 1462.6693,-74.8831 1464.5924,-81.6137"/>
</g>
<!-- Node17 -->
<g id="node18" class="node">
<title>Node17</title>
<polygon fill="none" stroke="#bfbfbf" points="1056.5,-56.5 1056.5,-75.5 1148.5,-75.5 1148.5,-56.5 1056.5,-56.5"/>
<text text-anchor="middle" x="1102.5" y="-63.5" font-family="Helvetica,sans-Serif" font-size="10.00" fill="#000000">gandiva/node.h</text>
</g>
<!-- Node12&#45;&gt;Node17 -->
<g id="edge21" class="edge">
<title>Node12&#45;&gt;Node17</title>
<path fill="none" stroke="#191970" d="M1274.7435,-112.3733C1239.5574,-102.9001 1185.7119,-88.4032 1147.6044,-78.1435"/>
<polygon fill="#191970" stroke="#191970" points="1148.356,-74.7213 1137.7899,-75.5011 1146.5361,-81.4806 1148.356,-74.7213"/>
</g>
<!-- Node18 -->
<g id="node19" class="node">
<title>Node18</title>
<polygon fill="none" stroke="#bfbfbf" points="1167,-56.5 1167,-75.5 1256,-75.5 1256,-56.5 1167,-56.5"/>
<text text-anchor="middle" x="1211.5" y="-63.5" font-family="Helvetica,sans-Serif" font-size="10.00" fill="#000000">gandiva/filter.h</text>
</g>
<!-- Node12&#45;&gt;Node18 -->
<g id="edge22" class="edge">
<title>Node12&#45;&gt;Node18</title>
<path fill="none" stroke="#191970" d="M1293.2555,-112.2455C1277.9239,-103.5731 1255.2801,-90.7645 1237.7084,-80.825"/>
<polygon fill="#191970" stroke="#191970" points="1238.9741,-77.5198 1228.5469,-75.6427 1235.5276,-83.6126 1238.9741,-77.5198"/>
</g>
<!-- Node19 -->
<g id="node20" class="node">
<title>Node19</title>
<polygon fill="none" stroke="#bfbfbf" points="868,-56.5 868,-75.5 919,-75.5 919,-56.5 868,-56.5"/>
<text text-anchor="middle" x="893.5" y="-63.5" font-family="Helvetica,sans-Serif" font-size="10.00" fill="#000000">variant</text>
</g>
<!-- Node12&#45;&gt;Node19 -->
<g id="edge23" class="edge">
<title>Node12&#45;&gt;Node19</title>
<path fill="none" stroke="#191970" d="M1239.8326,-113.1429C1236.6789,-112.7551 1233.5567,-112.3726 1230.5,-112 1099.1693,-95.9902 1062.1462,-102.8699 929.1703,-76.0759"/>
<polygon fill="#191970" stroke="#191970" points="929.502,-72.5715 919.0039,-74.0002 928.1016,-79.43 929.502,-72.5715"/>
</g>
<!-- Node20 -->
<g id="node21" class="node">
<title>Node20</title>
<polygon fill="none" stroke="#bfbfbf" points="1744.5,-56.5 1744.5,-75.5 1788.5,-75.5 1788.5,-56.5 1744.5,-56.5"/>
<text text-anchor="middle" x="1766.5" y="-63.5" font-family="Helvetica,sans-Serif" font-size="10.00" fill="#000000">string</text>
</g>
<!-- Node12&#45;&gt;Node20 -->
<g id="edge24" class="edge">
<title>Node12&#45;&gt;Node20</title>
<path fill="none" stroke="#191970" d="M1381.1361,-118.7724C1463.885,-114.0054 1605.0702,-102.8026 1734.2278,-75.8974"/>
<polygon fill="#191970" stroke="#191970" points="1735.24,-79.2606 1744.2965,-73.7624 1733.788,-72.4129 1735.24,-79.2606"/>
</g>
<!-- Node21 -->
<g id="node22" class="node">
<title>Node21</title>
<polygon fill="none" stroke="#bfbfbf" points="387.5,-56.5 387.5,-75.5 445.5,-75.5 445.5,-56.5 387.5,-56.5"/>
<text text-anchor="middle" x="416.5" y="-63.5" font-family="Helvetica,sans-Serif" font-size="10.00" fill="#000000">memory</text>
</g>
<!-- Node12&#45;&gt;Node21 -->
<g id="edge25" class="edge">
<title>Node12&#45;&gt;Node21</title>
<path fill="none" stroke="#191970" d="M1239.8613,-112.8669C1236.6997,-112.5538 1233.5681,-112.2625 1230.5,-112 889.7726,-82.8458 797.5377,-127.3608 455.7561,-75.8836"/>
<polygon fill="#191970" stroke="#191970" points="456.2427,-72.4174 445.8298,-74.3723 455.189,-79.3377 456.2427,-72.4174"/>
</g>
<!-- Node22&#45;&gt;Node13 -->
<g id="edge27" class="edge">
<title>Node22&#45;&gt;Node13</title>
<path fill="none" stroke="#191970" d="M1837.2278,-112.3733C1801.5342,-102.9001 1746.9121,-88.4032 1708.2549,-78.1435"/>
<polygon fill="#191970" stroke="#191970" points="1708.8621,-74.6835 1698.2989,-75.5011 1707.0664,-81.4493 1708.8621,-74.6835"/>
</g>
<!-- Node22&#45;&gt;Node20 -->
<g id="edge32" class="edge">
<title>Node22&#45;&gt;Node20</title>
<path fill="none" stroke="#191970" d="M1854.862,-112.2455C1838.0614,-103.4527 1813.1366,-90.4079 1794.0382,-80.4125"/>
<polygon fill="#191970" stroke="#191970" points="1795.4073,-77.1787 1784.9244,-75.6427 1792.1614,-83.3807 1795.4073,-77.1787"/>
</g>
<!-- Node22&#45;&gt;Node23 -->
<g id="edge28" class="edge">
<title>Node22&#45;&gt;Node23</title>
<path fill="none" stroke="#191970" d="M1873.5,-112.2455C1873.5,-104.9382 1873.5,-94.6944 1873.5,-85.7046"/>
<polygon fill="#191970" stroke="#191970" points="1877.0001,-85.6426 1873.5,-75.6427 1870.0001,-85.6427 1877.0001,-85.6426"/>
</g>
<!-- Node24 -->
<g id="node25" class="node">
<title>Node24</title>
<polygon fill="none" stroke="#bfbfbf" points="2092.5,-56.5 2092.5,-75.5 2178.5,-75.5 2178.5,-56.5 2092.5,-56.5"/>
<text text-anchor="middle" x="2135.5" y="-63.5" font-family="Helvetica,sans-Serif" font-size="10.00" fill="#000000">arrow/status.h</text>
</g>
<!-- Node22&#45;&gt;Node24 -->
<g id="edge29" class="edge">
<title>Node22&#45;&gt;Node24</title>
<path fill="none" stroke="#191970" d="M1918.2417,-112.4369C1963.6787,-102.7252 2034.0385,-87.6864 2082.3025,-77.3705"/>
<polygon fill="#191970" stroke="#191970" points="2083.2017,-80.7574 2092.2492,-75.2444 2081.7385,-73.912 2083.2017,-80.7574"/>
</g>
<!-- Node25 -->
<g id="node26" class="node">
<title>Node25</title>
<polygon fill="none" stroke="#bfbfbf" points="1958.5,-56.5 1958.5,-75.5 2074.5,-75.5 2074.5,-56.5 1958.5,-56.5"/>
<text text-anchor="middle" x="2016.5" y="-63.5" font-family="Helvetica,sans-Serif" font-size="10.00" fill="#000000">arrow/util/visibility.h</text>
</g>
<!-- Node22&#45;&gt;Node25 -->
<g id="edge30" class="edge">
<title>Node22&#45;&gt;Node25</title>
<path fill="none" stroke="#191970" d="M1898.0826,-112.3733C1921.4496,-103.2226 1956.7862,-89.3844 1982.7784,-79.2057"/>
<polygon fill="#191970" stroke="#191970" points="1984.203,-82.4066 1992.2382,-75.5011 1981.6505,-75.8886 1984.203,-82.4066"/>
</g>
<!-- Node22&#45;&gt;Node26 -->
<g id="edge31" class="edge">
<title>Node22&#45;&gt;Node26</title>
<path fill="none" stroke="#191970" d="M1933.1369,-113.436C1994.1586,-104.6341 2092.0062,-90.4129 2186.3462,-76.1644"/>
<polygon fill="#191970" stroke="#191970" points="2186.983,-79.608 2196.3472,-74.6518 2185.9362,-72.6867 2186.983,-79.608"/>
</g>
<!-- Node30&#45;&gt;Node1 -->
<g id="edge41" class="edge">
<title>Node30&#45;&gt;Node1</title>
<path fill="none" stroke="#191970" d="M781.3187,-224.4369C847.1049,-214.26 950.7037,-198.2337 1017.3624,-187.9218"/>
<polygon fill="#191970" stroke="#191970" points="1017.9786,-191.3682 1027.326,-186.3805 1016.9084,-184.4505 1017.9786,-191.3682"/>
</g>
<!-- Node30&#45;&gt;Node7 -->
<g id="edge46" class="edge">
<title>Node30&#45;&gt;Node7</title>
<path fill="none" stroke="#191970" d="M717.8811,-224.0769C715.3953,-210.6823 709.8074,-186.3792 699.5,-168 693.4724,-157.2522 684.5684,-146.8634 676.5967,-138.6865"/>
<polygon fill="#191970" stroke="#191970" points="678.9515,-136.0935 669.3638,-131.585 674.0473,-141.0884 678.9515,-136.0935"/>
</g>
<!-- Node30&#45;&gt;Node8 -->
<g id="edge54" class="edge">
<title>Node30&#45;&gt;Node8</title>
<path fill="none" stroke="#191970" d="M648.3026,-231.3355C528.4643,-226.18 296.7865,-213.0738 269.5,-188 241.1839,-161.9801 241.1655,-112.9697 243.7549,-85.6538"/>
<polygon fill="#191970" stroke="#191970" points="247.2321,-86.052 244.9066,-75.7155 240.2787,-85.2461 247.2321,-86.052"/>
</g>
<!-- Node30&#45;&gt;Node15 -->
<g id="edge52" class="edge">
<title>Node30&#45;&gt;Node15</title>
<path fill="none" stroke="#191970" d="M724.5967,-224.4862C739.0083,-197.5845 780.2503,-120.5994 799.4461,-84.7673"/>
<polygon fill="#191970" stroke="#191970" points="802.598,-86.2955 804.2351,-75.8279 796.4276,-82.9899 802.598,-86.2955"/>
</g>
<!-- Node30&#45;&gt;Node20 -->
<g id="edge56" class="edge">
<title>Node30&#45;&gt;Node20</title>
<path fill="none" stroke="#191970" d="M790.7828,-228.0286C875.3896,-220.5384 1020.6219,-206.4123 1144.5,-188 1405.7088,-149.176 1474.7696,-142.2217 1734.5276,-76.0271"/>
<polygon fill="#191970" stroke="#191970" points="1735.4226,-79.4109 1744.2458,-73.5457 1733.6908,-72.6285 1735.4226,-79.4109"/>
</g>
<!-- Node30&#45;&gt;Node21 -->
<g id="edge57" class="edge">
<title>Node30&#45;&gt;Node21</title>
<path fill="none" stroke="#191970" d="M654.1785,-224.4174C606.2747,-216.3015 546.2821,-203.5226 526.5,-188 496.6319,-164.5632 512.9596,-140.1637 487.5,-112 475.8963,-99.1639 459.9358,-88.4 446.086,-80.5195"/>
<polygon fill="#191970" stroke="#191970" points="447.3719,-77.2349 436.9144,-75.5345 444.029,-83.3852 447.3719,-77.2349"/>
</g>
<!-- Node31 -->
<g id="node32" class="node">
<title>Node31</title>
<g id="a_node32"><a xlink:href="../../db/d4f/StructToTuple_8h.html" target="_top" xlink:title="Framework/StructToTuple.h">
<polygon fill="none" stroke="#000000" points="279,-168.5 279,-187.5 426,-187.5 426,-168.5 279,-168.5"/>
<text text-anchor="middle" x="352.5" y="-175.5" font-family="Helvetica,sans-Serif" font-size="10.00" fill="#000000">Framework/StructToTuple.h</text>
</a>
</g>
</g>
<!-- Node30&#45;&gt;Node31 -->
<g id="edge42" class="edge">
<title>Node30&#45;&gt;Node31</title>
<path fill="none" stroke="#191970" d="M656.8275,-224.4369C592.5668,-214.6314 492.7182,-199.3957 425.0686,-189.0731"/>
<polygon fill="#191970" stroke="#191970" points="425.3276,-185.5722 414.9141,-187.5237 424.2717,-192.4921 425.3276,-185.5722"/>
</g>
<!-- Node32 -->
<g id="node33" class="node">
<title>Node32</title>
<polygon fill="none" stroke="#bfbfbf" points="311,-112.5 311,-131.5 352,-131.5 352,-112.5 311,-112.5"/>
<text text-anchor="middle" x="331.5" y="-119.5" font-family="Helvetica,sans-Serif" font-size="10.00" fill="#000000">tuple</text>
</g>
<!-- Node30&#45;&gt;Node32 -->
<g id="edge58" class="edge">
<title>Node30&#45;&gt;Node32</title>
<path fill="none" stroke="#191970" d="M656.8557,-224.4732C611.0561,-216.7325 547.7291,-204.4095 493.5,-188 445.8196,-173.5721 392.7311,-150.5367 360.7405,-135.8478"/>
<polygon fill="#191970" stroke="#191970" points="362.064,-132.6036 351.5191,-131.5759 359.1215,-138.9551 362.064,-132.6036"/>
</g>
<!-- Node33 -->
<g id="node34" class="node">
<title>Node33</title>
<g id="a_node34"><a xlink:href="../../d7/dbe/VariantHelpers_8h.html" target="_top" xlink:title="Framework/VariantHelpers.h">
<polygon fill="none" stroke="#000000" points="536,-168.5 536,-187.5 691,-187.5 691,-168.5 536,-168.5"/>
<text text-anchor="middle" x="613.5" y="-175.5" font-family="Helvetica,sans-Serif" font-size="10.00" fill="#000000">Framework/VariantHelpers.h</text>
</a>
</g>
</g>
<!-- Node30&#45;&gt;Node33 -->
<g id="edge47" class="edge">
<title>Node30&#45;&gt;Node33</title>
<path fill="none" stroke="#191970" d="M701.0362,-224.2455C684.3926,-215.4527 659.7007,-202.4079 640.7808,-192.4125"/>
<polygon fill="#191970" stroke="#191970" points="642.2291,-189.2193 631.7522,-187.6427 638.9592,-195.4086 642.2291,-189.2193"/>
</g>
<!-- Node34 -->
<g id="node35" class="node">
<title>Node34</title>
<polygon fill="none" stroke="#bfbfbf" points="799.5,-168.5 799.5,-187.5 855.5,-187.5 855.5,-168.5 799.5,-168.5"/>
<text text-anchor="middle" x="827.5" y="-175.5" font-family="Helvetica,sans-Serif" font-size="10.00" fill="#000000">sstream</text>
</g>
<!-- Node30&#45;&gt;Node34 -->
<g id="edge49" class="edge">
<title>Node30&#45;&gt;Node34</title>
<path fill="none" stroke="#191970" d="M738.3122,-224.2455C755.3473,-215.4125 780.6575,-202.2887 799.9681,-192.2758"/>
<polygon fill="#191970" stroke="#191970" points="801.637,-195.353 808.9034,-187.6427 798.4147,-189.1388 801.637,-195.353"/>
</g>
<!-- Node35 -->
<g id="node36" class="node">
<title>Node35</title>
<polygon fill="none" stroke="#bfbfbf" points="873.5,-168.5 873.5,-187.5 941.5,-187.5 941.5,-168.5 873.5,-168.5"/>
<text text-anchor="middle" x="907.5" y="-175.5" font-family="Helvetica,sans-Serif" font-size="10.00" fill="#000000">arrow/stl.h</text>
</g>
<!-- Node30&#45;&gt;Node35 -->
<g id="edge50" class="edge">
<title>Node30&#45;&gt;Node35</title>
<path fill="none" stroke="#191970" d="M751.8184,-224.3733C783.3506,-214.9807 831.4621,-200.6496 865.8501,-190.4064"/>
<polygon fill="#191970" stroke="#191970" points="867.0187,-193.7103 875.6034,-187.5011 865.0203,-187.0016 867.0187,-193.7103"/>
</g>
<!-- Node36 -->
<g id="node37" class="node">
<title>Node36</title>
<polygon fill="none" stroke="#bfbfbf" points="0,-168.5 0,-187.5 109,-187.5 109,-168.5 0,-168.5"/>
<text text-anchor="middle" x="54.5" y="-175.5" font-family="Helvetica,sans-Serif" font-size="10.00" fill="#000000">arrow/type_traits.h</text>
</g>
<!-- Node30&#45;&gt;Node36 -->
<g id="edge51" class="edge">
<title>Node30&#45;&gt;Node36</title>
<path fill="none" stroke="#191970" d="M648.4246,-230.4414C537.497,-224.4734 316.2911,-210.9128 119.0656,-188.1071"/>
<polygon fill="#191970" stroke="#191970" points="119.4365,-184.6267 109.0982,-186.9442 118.6252,-191.5795 119.4365,-184.6267"/>
</g>
<!-- Node37 -->
<g id="node38" class="node">
<title>Node37</title>
<polygon fill="none" stroke="#bfbfbf" points="127,-168.5 127,-187.5 216,-187.5 216,-168.5 127,-168.5"/>
<text text-anchor="middle" x="171.5" y="-175.5" font-family="Helvetica,sans-Serif" font-size="10.00" fill="#000000">arrow/builder.h</text>
</g>
<!-- Node30&#45;&gt;Node37 -->
<g id="edge53" class="edge">
<title>Node30&#45;&gt;Node37</title>
<path fill="none" stroke="#191970" d="M648.4568,-228.9766C553.131,-221.8573 378.6594,-207.4973 230.5,-188 229.1964,-187.8284 227.8774,-187.6494 226.5479,-187.4641"/>
<polygon fill="#191970" stroke="#191970" points="226.6296,-183.9382 216.2253,-185.9385 225.6061,-190.863 226.6296,-183.9382"/>
</g>
<!-- Node30&#45;&gt;Node38 -->
<g id="edge55" class="edge">
<title>Node30&#45;&gt;Node38</title>
<path fill="none" stroke="#191970" d="M774.4123,-224.4951C821.4086,-216.0199 890.7412,-202.7068 950.5,-188 950.7091,-187.9485 950.9189,-187.8966 951.1292,-187.8442"/>
<polygon fill="#191970" stroke="#191970" points="952.0351,-191.2251 960.7953,-185.2661 950.2311,-184.4615 952.0351,-191.2251"/>
</g>
<!-- Node31&#45;&gt;Node10 -->
<g id="edge43" class="edge">
<title>Node31&#45;&gt;Node10</title>
<path fill="none" stroke="#191970" d="M365.0414,-168.2455C375.7787,-159.8943 391.4473,-147.7076 404.0047,-137.9408"/>
<polygon fill="#191970" stroke="#191970" points="406.3575,-140.5449 412.1023,-131.6427 402.0599,-135.0194 406.3575,-140.5449"/>
</g>
<!-- Node31&#45;&gt;Node11 -->
<g id="edge45" class="edge">
<title>Node31&#45;&gt;Node11</title>
<path fill="none" stroke="#191970" d="M335.7627,-168.2988C323.7416,-160.2823 308.477,-147.6887 301.5,-132 294.044,-115.2341 305.1196,-96.4321 316.2274,-83.1979"/>
<polygon fill="#191970" stroke="#191970" points="318.86,-85.5051 322.9824,-75.7452 313.6734,-80.8041 318.86,-85.5051"/>
</g>
<!-- Node31&#45;&gt;Node32 -->
<g id="edge44" class="edge">
<title>Node31&#45;&gt;Node32</title>
<path fill="none" stroke="#191970" d="M348.8421,-168.2455C346.0416,-160.7776 342.091,-150.2427 338.6676,-141.1137"/>
<polygon fill="#191970" stroke="#191970" points="341.9045,-139.777 335.116,-131.6427 335.3501,-142.2349 341.9045,-139.777"/>
</g>
<!-- Node33&#45;&gt;Node9 -->
<g id="edge48" class="edge">
<title>Node33&#45;&gt;Node9</title>
<path fill="none" stroke="#191970" d="M599.5041,-168.214C588.4761,-159.8067 573.5061,-146.7345 564.5,-132 555.8525,-117.8521 550.9933,-99.5996 548.3585,-85.8765"/>
<polygon fill="#191970" stroke="#191970" points="551.7413,-84.8866 546.634,-75.604 544.8379,-86.0455 551.7413,-84.8866"/>
</g>
<!-- Node39&#45;&gt;Node1 -->
<g id="edge60" class="edge">
<title>Node39&#45;&gt;Node1</title>
<path fill="none" stroke="#191970" d="M1164.9071,-224.2455C1149.121,-215.4928 1125.7361,-202.527 1107.7413,-192.5496"/>
<polygon fill="#191970" stroke="#191970" points="1109.3341,-189.4308 1098.8913,-187.6427 1105.9397,-195.5528 1109.3341,-189.4308"/>
</g>
<!-- Node40 -->
<g id="node41" class="node">
<title>Node40</title>
<g id="a_node41"><a xlink:href="../../d9/d52/Common_2MathUtils_2include_2MathUtils_2Utils_8h.html" target="_top" xlink:title="MathUtils/Utils.h">
<polygon fill="none" stroke="#000000" points="2422.5,-168.5 2422.5,-187.5 2520.5,-187.5 2520.5,-168.5 2422.5,-168.5"/>
<text text-anchor="middle" x="2471.5" y="-175.5" font-family="Helvetica,sans-Serif" font-size="10.00" fill="#000000">MathUtils/Utils.h</text>
</a>
</g>
</g>
<!-- Node39&#45;&gt;Node40 -->
<g id="edge61" class="edge">
<title>Node39&#45;&gt;Node40</title>
<path fill="none" stroke="#191970" d="M1270.507,-224.6784C1273.5402,-224.4364 1276.5447,-224.2091 1279.5,-224 1392.7428,-215.986 2186.4819,-187.9534 2411.9195,-180.0742"/>
<polygon fill="#191970" stroke="#191970" points="2412.3483,-183.5615 2422.22,-179.7144 2412.1039,-176.5657 2412.3483,-183.5615"/>
</g>
<!-- Node42 -->
<g id="node43" class="node">
<title>Node42</title>
<polygon fill="none" stroke="#bfbfbf" points="2325,-56.5 2325,-75.5 2372,-75.5 2372,-56.5 2325,-56.5"/>
<text text-anchor="middle" x="2348.5" y="-63.5" font-family="Helvetica,sans-Serif" font-size="10.00" fill="#000000">cmath</text>
</g>
<!-- Node39&#45;&gt;Node42 -->
<g id="edge72" class="edge">
<title>Node39&#45;&gt;Node42</title>
<path fill="none" stroke="#191970" d="M1270.7719,-224.8912C1422.5429,-208.8387 1742.5762,-173.2757 2011.5,-132 2144.1115,-111.6461 2180.3127,-108.555 2314.9292,-75.9311"/>
<polygon fill="#191970" stroke="#191970" points="2315.9055,-79.2958 2324.7944,-73.5305 2314.2504,-72.4943 2315.9055,-79.2958"/>
</g>
<!-- Node41 -->
<g id="node42" class="node">
<title>Node41</title>
<polygon fill="none" stroke="#bfbfbf" points="2673.5,-112.5 2673.5,-131.5 2715.5,-131.5 2715.5,-112.5 2673.5,-112.5"/>
<text text-anchor="middle" x="2694.5" y="-119.5" font-family="Helvetica,sans-Serif" font-size="10.00" fill="#000000">array</text>
</g>
<!-- Node40&#45;&gt;Node41 -->
<g id="edge62" class="edge">
<title>Node40&#45;&gt;Node41</title>
<path fill="none" stroke="#191970" d="M2516.6373,-168.4184C2553.7877,-160.2682 2607.9884,-147.7745 2663.6032,-132.0882"/>
<polygon fill="#191970" stroke="#191970" points="2664.6089,-135.441 2673.2665,-129.3339 2662.6901,-128.7091 2664.6089,-135.441"/>
</g>
<!-- Node40&#45;&gt;Node42 -->
<g id="edge63" class="edge">
<title>Node40&#45;&gt;Node42</title>
<path fill="none" stroke="#191970" d="M2422.4165,-169.6464C2382.8955,-161.8021 2331.9466,-148.7708 2319.5,-132 2308.4014,-117.0456 2320.002,-97.178 2331.664,-83.1609"/>
<polygon fill="#191970" stroke="#191970" points="2334.3098,-85.4528 2338.3663,-75.6653 2329.0916,-80.7868 2334.3098,-85.4528"/>
</g>
<!-- Node43 -->
<g id="node44" class="node">
<title>Node43</title>
<g id="a_node44"><a xlink:href="../../df/d21/GPUCommonDef_8h.html" target="_top" xlink:title="GPUCommonDef.h">
<polygon fill="none" stroke="#000000" points="2600,-56.5 2600,-75.5 2707,-75.5 2707,-56.5 2600,-56.5"/>
<text text-anchor="middle" x="2653.5" y="-63.5" font-family="Helvetica,sans-Serif" font-size="10.00" fill="#000000">GPUCommonDef.h</text>
</a>
</g>
</g>
<!-- Node40&#45;&gt;Node43 -->
<g id="edge64" class="edge">
<title>Node40&#45;&gt;Node43</title>
<path fill="none" stroke="#191970" d="M2520.5585,-176.2869C2586.6708,-172.8281 2699.0412,-162.505 2724.5,-132 2740.9229,-112.3219 2712.6774,-92.6986 2687.0984,-80.0294"/>
<polygon fill="#191970" stroke="#191970" points="2688.4211,-76.7836 2677.8829,-75.6892 2685.4385,-83.1164 2688.4211,-76.7836"/>
</g>
<!-- Node46 -->
<g id="node47" class="node">
<title>Node46</title>
<g id="a_node47"><a xlink:href="../../d6/da2/GPUCommonMath_8h.html" target="_top" xlink:title="GPUCommonMath.h">
<polygon fill="none" stroke="#000000" points="2328,-112.5 2328,-131.5 2443,-131.5 2443,-112.5 2328,-112.5"/>
<text text-anchor="middle" x="2385.5" y="-119.5" font-family="Helvetica,sans-Serif" font-size="10.00" fill="#000000">GPUCommonMath.h</text>
</a>
</g>
</g>
<!-- Node40&#45;&gt;Node46 -->
<g id="edge67" class="edge">
<title>Node40&#45;&gt;Node46</title>
<path fill="none" stroke="#191970" d="M2456.5199,-168.2455C2443.3249,-159.6534 2423.8949,-147.0014 2408.6921,-137.1018"/>
<polygon fill="#191970" stroke="#191970" points="2410.5983,-134.1665 2400.3084,-131.6427 2406.7785,-140.0325 2410.5983,-134.1665"/>
</g>
<!-- Node48 -->
<g id="node49" class="node">
<title>Node48</title>
<g id="a_node49"><a xlink:href="../../d6/d84/MathConstants_8h.html" target="_top" xlink:title="useful math constants ">
<polygon fill="none" stroke="#000000" points="2461.5,-112.5 2461.5,-131.5 2655.5,-131.5 2655.5,-112.5 2461.5,-112.5"/>
<text text-anchor="middle" x="2558.5" y="-119.5" font-family="Helvetica,sans-Serif" font-size="10.00" fill="#000000">CommonConstants/MathConstants.h</text>
</a>
</g>
</g>
<!-- Node40&#45;&gt;Node48 -->
<g id="edge71" class="edge">
<title>Node40&#45;&gt;Node48</title>
<path fill="none" stroke="#191970" d="M2486.6542,-168.2455C2500.0027,-159.6534 2519.6586,-147.0014 2535.0383,-137.1018"/>
<polygon fill="#191970" stroke="#191970" points="2537.0051,-139.9982 2543.5194,-131.6427 2533.2164,-134.1121 2537.0051,-139.9982"/>
</g>
<!-- Node44 -->
<g id="node45" class="node">
<title>Node44</title>
<g id="a_node45"><a xlink:href="../../d5/d93/GPUCommonDefSettings_8h.html" target="_top" xlink:title="GPUCommonDefSettings.h">
<polygon fill="none" stroke="#000000" points="2656.5,-.5 2656.5,-19.5 2804.5,-19.5 2804.5,-.5 2656.5,-.5"/>
<text text-anchor="middle" x="2730.5" y="-7.5" font-family="Helvetica,sans-Serif" font-size="10.00" fill="#000000">GPUCommonDefSettings.h</text>
</a>
</g>
</g>
<!-- Node43&#45;&gt;Node44 -->
<g id="edge65" class="edge">
<title>Node43&#45;&gt;Node44</title>
<path fill="none" stroke="#191970" d="M2666.9124,-56.2455C2678.5057,-47.814 2695.4748,-35.4729 2708.9678,-25.6598"/>
<polygon fill="#191970" stroke="#191970" points="2711.2126,-28.355 2717.2413,-19.6427 2707.0953,-22.6938 2711.2126,-28.355"/>
</g>
<!-- Node45 -->
<g id="node46" class="node">
<title>Node45</title>
<g id="a_node46"><a xlink:href="../../da/d5a/GPUCommonDefAPI_8h.html" target="_top" xlink:title="GPUCommonDefAPI.h">
<polygon fill="none" stroke="#000000" points="2514.5,-.5 2514.5,-19.5 2638.5,-19.5 2638.5,-.5 2514.5,-.5"/>
<text text-anchor="middle" x="2576.5" y="-7.5" font-family="Helvetica,sans-Serif" font-size="10.00" fill="#000000">GPUCommonDefAPI.h</text>
</a>
</g>
</g>
<!-- Node43&#45;&gt;Node45 -->
<g id="edge66" class="edge">
<title>Node43&#45;&gt;Node45</title>
<path fill="none" stroke="#191970" d="M2640.0876,-56.2455C2628.4943,-47.814 2611.5252,-35.4729 2598.0322,-25.6598"/>
<polygon fill="#191970" stroke="#191970" points="2599.9047,-22.6938 2589.7587,-19.6427 2595.7874,-28.355 2599.9047,-22.6938"/>
</g>
<!-- Node46&#45;&gt;Node42 -->
<g id="edge69" class="edge">
<title>Node46&#45;&gt;Node42</title>
<path fill="none" stroke="#191970" d="M2379.0551,-112.2455C2373.9618,-104.5367 2366.7092,-93.5598 2360.548,-84.2348"/>
<polygon fill="#191970" stroke="#191970" points="2363.3038,-82.0566 2354.8711,-75.6427 2357.4635,-85.9155 2363.3038,-82.0566"/>
</g>
<!-- Node46&#45;&gt;Node43 -->
<g id="edge68" class="edge">
<title>Node46&#45;&gt;Node43</title>
<path fill="none" stroke="#191970" d="M2431.2663,-112.4369C2477.4215,-102.7925 2548.7178,-87.8948 2598.0537,-77.5858"/>
<polygon fill="#191970" stroke="#191970" points="2598.8498,-80.9951 2607.9224,-75.5237 2597.4179,-74.1431 2598.8498,-80.9951"/>
</g>
<!-- Node47 -->
<g id="node48" class="node">
<title>Node47</title>
<polygon fill="none" stroke="#bfbfbf" points="2390.5,-56.5 2390.5,-75.5 2454.5,-75.5 2454.5,-56.5 2390.5,-56.5"/>
<text text-anchor="middle" x="2422.5" y="-63.5" font-family="Helvetica,sans-Serif" font-size="10.00" fill="#000000">algorithm</text>
</g>
<!-- Node46&#45;&gt;Node47 -->
<g id="edge70" class="edge">
<title>Node46&#45;&gt;Node47</title>
<path fill="none" stroke="#191970" d="M2391.9449,-112.2455C2397.0382,-104.5367 2404.2908,-93.5598 2410.452,-84.2348"/>
<polygon fill="#191970" stroke="#191970" points="2413.5365,-85.9155 2416.1289,-75.6427 2407.6962,-82.0566 2413.5365,-85.9155"/>
</g>
</g>
</svg>
