<?xml version="1.0" encoding="UTF-8" standalone="no"?>
<!DOCTYPE svg PUBLIC "-//W3C//DTD SVG 1.1//EN"
 "http://www.w3.org/Graphics/SVG/1.1/DTD/svg11.dtd">
<!-- Generated by graphviz version 2.40.1 (20161225.0304)
 -->
<!-- Title: /home/travis/build/AliceO2Group/AliceO2/Framework/Core/src/TableBuilder.cxx Pages: 1 -->
<!--zoomable 330 -->
<svg id="main" version="1.1" xmlns="http://www.w3.org/2000/svg" xmlns:xlink="http://www.w3.org/1999/xlink" xml:space="preserve" onload="init(evt)">
<style type="text/css"><![CDATA[
.edge:hover path { stroke: red; }
.edge:hover polygon { stroke: red; fill: red; }
]]></style>
<script type="text/javascript"><![CDATA[
var edges = document.getElementsByTagName('g');
if (edges && edges.length) {
  for (var i=0;i<edges.length;i++) {
    if (edges[i].id.substr(0,4)=='edge') {
      edges[i].setAttribute('class','edge');
    }
  }
}
]]></script>
        <defs>
                <circle id="rim" cx="0" cy="0" r="7"/>
                <circle id="rim2" cx="0" cy="0" r="3.5"/>
                <g id="zoomPlus">
                        <use xlink:href="#rim" fill="#404040">
                                <set attributeName="fill" to="#808080" begin="zoomplus.mouseover" end="zoomplus.mouseout"/>
                        </use>
                        <path d="M-4,0h8M0,-4v8" fill="none" stroke="white" stroke-width="1.5" pointer-events="none"/>
                </g>
                <g id="zoomMin">
                        <use xlink:href="#rim" fill="#404040">
                                <set attributeName="fill" to="#808080" begin="zoomminus.mouseover" end="zoomminus.mouseout"/>
                        </use>
                        <path d="M-4,0h8" fill="none" stroke="white" stroke-width="1.5" pointer-events="none"/>
                </g>
                <g id="dirArrow">
                        <path fill="none" stroke="white" stroke-width="1.5" d="M0,-3.0v7 M-2.5,-0.5L0,-3.0L2.5,-0.5"/>
                </g>
               <g id="resetDef">
                       <use xlink:href="#rim2" fill="#404040">
                               <set attributeName="fill" to="#808080" begin="reset.mouseover" end="reset.mouseout"/>
                       </use>
               </g>
        </defs>

<script type="text/javascript">
var viewWidth = 2352;
var viewHeight = 330;
var sectionId = 'dynsection-0';
</script>
<script xlink:href="../../svgpan.js"/>
<svg id="graph" class="graph">
<g id="viewport">
<title>/home/travis/build/AliceO2Group/AliceO2/Framework/Core/src/TableBuilder.cxx</title>
<!-- Node0 -->
<g id="node1" class="node">
<title>Node0</title>
<polygon fill="#bfbfbf" stroke="#000000" points="1837.5,-280.5 1837.5,-321.5 2036.5,-321.5 2036.5,-280.5 1837.5,-280.5"/>
<text text-anchor="start" x="1845.5" y="-309.5" font-family="Helvetica,sans-Serif" font-size="10.00" fill="#000000">/home/travis/build</text>
<text text-anchor="start" x="1845.5" y="-298.5" font-family="Helvetica,sans-Serif" font-size="10.00" fill="#000000">/AliceO2Group/AliceO2</text>
<text text-anchor="middle" x="1937" y="-287.5" font-family="Helvetica,sans-Serif" font-size="10.00" fill="#000000">/Framework/Core/src/TableBuilder.cxx</text>
</g>
<!-- Node1 -->
<g id="node2" class="node">
<title>Node1</title>
<g id="a_node2"><a xlink:href="../../d5/d98/TableBuilder_8h.html" target="_top" xlink:title="Framework/TableBuilder.h">
<polygon fill="none" stroke="#000000" points="1408,-224.5 1408,-243.5 1550,-243.5 1550,-224.5 1408,-224.5"/>
<text text-anchor="middle" x="1479" y="-231.5" font-family="Helvetica,sans-Serif" font-size="10.00" fill="#000000">Framework/TableBuilder.h</text>
</a>
</g>
</g>
<!-- Node0&#45;&gt;Node1 -->
<g id="edge1" class="edge">
<title>Node0&#45;&gt;Node1</title>
<path fill="none" stroke="#191970" d="M1837.3385,-286.4207C1752.2163,-273.9683 1631.6189,-256.3263 1554.3493,-245.0227"/>
<polygon fill="#191970" stroke="#191970" points="1554.612,-241.524 1544.2107,-243.5396 1553.5987,-248.4503 1554.612,-241.524"/>
</g>
<!-- Node16 -->
<g id="node17" class="node">
<title>Node16</title>
<polygon fill="none" stroke="#bfbfbf" points="813.5,-56.5 813.5,-75.5 894.5,-75.5 894.5,-56.5 813.5,-56.5"/>
<text text-anchor="middle" x="854" y="-63.5" font-family="Helvetica,sans-Serif" font-size="10.00" fill="#000000">arrow/table.h</text>
</g>
<!-- Node0&#45;&gt;Node16 -->
<g id="edge62" class="edge">
<title>Node0&#45;&gt;Node16</title>
<path fill="none" stroke="#191970" d="M1837.2098,-299.2062C1561.0575,-293.2168 802.1742,-269.4303 728,-188 690.2272,-146.5321 772.064,-101.5699 820.9271,-79.6157"/>
<polygon fill="#191970" stroke="#191970" points="822.4645,-82.7633 830.2149,-75.5395 819.6514,-76.3534 822.4645,-82.7633"/>
</g>
<!-- Node22 -->
<g id="node23" class="node">
<title>Node22</title>
<polygon fill="none" stroke="#bfbfbf" points="2032,-56.5 2032,-75.5 2090,-75.5 2090,-56.5 2032,-56.5"/>
<text text-anchor="middle" x="2061" y="-63.5" font-family="Helvetica,sans-Serif" font-size="10.00" fill="#000000">memory</text>
</g>
<!-- Node0&#45;&gt;Node22 -->
<g id="edge58" class="edge">
<title>Node0&#45;&gt;Node22</title>
<path fill="none" stroke="#191970" d="M1961.0453,-280.145C1983.662,-259.1612 2016.7042,-224.7245 2035,-188 2051.665,-154.5492 2057.6769,-110.7584 2059.8255,-85.7685"/>
<polygon fill="#191970" stroke="#191970" points="2063.3219,-85.9443 2060.5652,-75.7144 2056.3408,-85.4306 2063.3219,-85.9443"/>
</g>
<!-- Node25 -->
<g id="node26" class="node">
<title>Node25</title>
<polygon fill="none" stroke="#bfbfbf" points="0,-56.5 0,-75.5 86,-75.5 86,-56.5 0,-56.5"/>
<text text-anchor="middle" x="43" y="-63.5" font-family="Helvetica,sans-Serif" font-size="10.00" fill="#000000">arrow/status.h</text>
</g>
<!-- Node0&#45;&gt;Node25 -->
<g id="edge64" class="edge">
<title>Node0&#45;&gt;Node25</title>
<path fill="none" stroke="#191970" d="M1837.3581,-297.4064C1496.1456,-284.6841 387.3544,-239.7564 236,-188 165.761,-163.9814 95.008,-109.8199 62.0779,-82.4674"/>
<polygon fill="#191970" stroke="#191970" points="64.0864,-79.583 54.1833,-75.8175 59.5767,-84.9368 64.0864,-79.583"/>
</g>
<!-- Node36 -->
<g id="node37" class="node">
<title>Node36</title>
<polygon fill="none" stroke="#bfbfbf" points="1809.5,-168.5 1809.5,-187.5 1918.5,-187.5 1918.5,-168.5 1809.5,-168.5"/>
<text text-anchor="middle" x="1864" y="-175.5" font-family="Helvetica,sans-Serif" font-size="10.00" fill="#000000">arrow/type_traits.h</text>
</g>
<!-- Node0&#45;&gt;Node36 -->
<g id="edge63" class="edge">
<title>Node0&#45;&gt;Node36</title>
<path fill="none" stroke="#191970" d="M1924.7814,-280.4126C1910.851,-256.9408 1888.2847,-218.918 1874.9199,-196.3993"/>
<polygon fill="#191970" stroke="#191970" points="1877.7626,-194.3313 1869.649,-187.5182 1871.743,-197.904 1877.7626,-194.3313"/>
</g>
<!-- Node37 -->
<g id="node38" class="node">
<title>Node37</title>
<polygon fill="none" stroke="#bfbfbf" points="1936.5,-168.5 1936.5,-187.5 2025.5,-187.5 2025.5,-168.5 1936.5,-168.5"/>
<text text-anchor="middle" x="1981" y="-175.5" font-family="Helvetica,sans-Serif" font-size="10.00" fill="#000000">arrow/builder.h</text>
</g>
<!-- Node0&#45;&gt;Node37 -->
<g id="edge59" class="edge">
<title>Node0&#45;&gt;Node37</title>
<path fill="none" stroke="#191970" d="M1944.3646,-280.4126C1952.6857,-257.1513 1966.1191,-219.5989 1974.2001,-197.0089"/>
<polygon fill="#191970" stroke="#191970" points="1977.5223,-198.1128 1977.5951,-187.5182 1970.9314,-195.755 1977.5223,-198.1128"/>
</g>
<!-- Node39 -->
<g id="node40" class="node">
<title>Node39</title>
<polygon fill="none" stroke="#bfbfbf" points="2082,-224.5 2082,-243.5 2206,-243.5 2206,-224.5 2082,-224.5"/>
<text text-anchor="middle" x="2144" y="-231.5" font-family="Helvetica,sans-Serif" font-size="10.00" fill="#000000">arrow/memory_pool.h</text>
</g>
<!-- Node0&#45;&gt;Node39 -->
<g id="edge60" class="edge">
<title>Node0&#45;&gt;Node39</title>
<path fill="none" stroke="#191970" d="M2000.5136,-280.4425C2034.5329,-269.4314 2075.363,-256.2158 2104.7548,-246.7026"/>
<polygon fill="#191970" stroke="#191970" points="2106.2078,-249.9111 2114.6441,-243.5017 2104.0522,-243.2513 2106.2078,-249.9111"/>
</g>
<!-- Node40 -->
<g id="node41" class="node">
<title>Node40</title>
<polygon fill="none" stroke="#bfbfbf" points="2224.5,-224.5 2224.5,-243.5 2343.5,-243.5 2343.5,-224.5 2224.5,-224.5"/>
<text text-anchor="middle" x="2284" y="-231.5" font-family="Helvetica,sans-Serif" font-size="10.00" fill="#000000">arrow/record_batch.h</text>
</g>
<!-- Node0&#45;&gt;Node40 -->
<g id="edge61" class="edge">
<title>Node0&#45;&gt;Node40</title>
<path fill="none" stroke="#191970" d="M2036.9012,-281.7107C2097.7169,-269.9682 2173.3421,-255.3662 2224.8003,-245.4305"/>
<polygon fill="#191970" stroke="#191970" points="2225.6031,-248.8402 2234.7582,-243.5078 2224.276,-241.9672 2225.6031,-248.8402"/>
</g>
<!-- Node2 -->
<g id="node3" class="node">
<title>Node2</title>
<g id="a_node3"><a xlink:href="../../de/d33/ASoA_8h.html" target="_top" xlink:title="Framework/ASoA.h">
<polygon fill="none" stroke="#000000" points="1053,-168.5 1053,-187.5 1161,-187.5 1161,-168.5 1053,-168.5"/>
<text text-anchor="middle" x="1107" y="-175.5" font-family="Helvetica,sans-Serif" font-size="10.00" fill="#000000">Framework/ASoA.h</text>
</a>
</g>
</g>
<!-- Node1&#45;&gt;Node2 -->
<g id="edge2" class="edge">
<title>Node1&#45;&gt;Node2</title>
<path fill="none" stroke="#191970" d="M1415.4736,-224.4369C1347.3767,-214.1857 1239.8532,-197.9994 1171.4154,-187.6969"/>
<polygon fill="#191970" stroke="#191970" points="1171.605,-184.1861 1161.1954,-186.1584 1170.5629,-191.1081 1171.605,-184.1861"/>
</g>
<!-- Node8 -->
<g id="node9" class="node">
<title>Node8</title>
<g id="a_node9"><a xlink:href="../../de/d9b/FunctionalHelpers_8h.html" target="_top" xlink:title="Framework/FunctionalHelpers.h">
<polygon fill="none" stroke="#000000" points="1507,-112.5 1507,-131.5 1677,-131.5 1677,-112.5 1507,-112.5"/>
<text text-anchor="middle" x="1592" y="-119.5" font-family="Helvetica,sans-Serif" font-size="10.00" fill="#000000">Framework/FunctionalHelpers.h</text>
</a>
</g>
</g>
<!-- Node1&#45;&gt;Node8 -->
<g id="edge45" class="edge">
<title>Node1&#45;&gt;Node8</title>
<path fill="none" stroke="#191970" d="M1488.6343,-224.4509C1507.8149,-205.4401 1550.9948,-162.6423 1575.0338,-138.816"/>
<polygon fill="#191970" stroke="#191970" points="1577.7515,-141.0503 1582.3901,-131.5249 1572.8238,-136.0786 1577.7515,-141.0503"/>
</g>
<!-- Node9 -->
<g id="node10" class="node">
<title>Node9</title>
<polygon fill="none" stroke="#bfbfbf" points="1948.5,-56.5 1948.5,-75.5 2013.5,-75.5 2013.5,-56.5 1948.5,-56.5"/>
<text text-anchor="middle" x="1981" y="-63.5" font-family="Helvetica,sans-Serif" font-size="10.00" fill="#000000">functional</text>
</g>
<!-- Node1&#45;&gt;Node9 -->
<g id="edge53" class="edge">
<title>Node1&#45;&gt;Node9</title>
<path fill="none" stroke="#191970" d="M1550.2395,-227.1851C1612.0382,-220.0977 1695.7356,-207.307 1723,-188 1754.8525,-165.4439 1735.3745,-134.8732 1767,-112 1827.8118,-68.0177 1860.1962,-91.0622 1938.659,-75.8875"/>
<polygon fill="#191970" stroke="#191970" points="1939.3878,-79.3109 1948.461,-73.8404 1937.9567,-72.4587 1939.3878,-79.3109"/>
</g>
<!-- Node1&#45;&gt;Node16 -->
<g id="edge51" class="edge">
<title>Node1&#45;&gt;Node16</title>
<path fill="none" stroke="#191970" d="M1407.8123,-228.387C1245.2139,-214.8152 857.7803,-177.9268 822,-132 810.355,-117.0528 823.0578,-97.1841 835.7388,-83.1647"/>
<polygon fill="#191970" stroke="#191970" points="838.5632,-85.2802 843.0185,-75.6677 833.5412,-80.4038 838.5632,-85.2802"/>
</g>
<!-- Node21 -->
<g id="node22" class="node">
<title>Node21</title>
<polygon fill="none" stroke="#bfbfbf" points="605,-56.5 605,-75.5 649,-75.5 649,-56.5 605,-56.5"/>
<text text-anchor="middle" x="627" y="-63.5" font-family="Helvetica,sans-Serif" font-size="10.00" fill="#000000">string</text>
</g>
<!-- Node1&#45;&gt;Node21 -->
<g id="edge55" class="edge">
<title>Node1&#45;&gt;Node21</title>
<path fill="none" stroke="#191970" d="M1407.922,-232.85C1232.2714,-229.5558 787.6071,-218.2959 728,-188 683.2455,-165.2531 650.955,-112.8971 636.1142,-84.7363"/>
<polygon fill="#191970" stroke="#191970" points="639.0982,-82.8827 631.4453,-75.5557 632.8587,-86.0558 639.0982,-82.8827"/>
</g>
<!-- Node1&#45;&gt;Node22 -->
<g id="edge56" class="edge">
<title>Node1&#45;&gt;Node22</title>
<path fill="none" stroke="#191970" d="M1550.1151,-225.6665C1604.401,-218.3665 1680.7216,-206.0706 1746,-188 1760.3127,-184.0379 1949.2364,-109.9461 2027.4514,-79.2"/>
<polygon fill="#191970" stroke="#191970" points="2028.8315,-82.4182 2036.8572,-75.5017 2026.27,-75.9037 2028.8315,-82.4182"/>
</g>
<!-- Node31 -->
<g id="node32" class="node">
<title>Node31</title>
<g id="a_node32"><a xlink:href="../../db/d4f/StructToTuple_8h.html" target="_top" xlink:title="Framework/StructToTuple.h">
<polygon fill="none" stroke="#000000" points="245.5,-168.5 245.5,-187.5 392.5,-187.5 392.5,-168.5 245.5,-168.5"/>
<text text-anchor="middle" x="319" y="-175.5" font-family="Helvetica,sans-Serif" font-size="10.00" fill="#000000">Framework/StructToTuple.h</text>
</a>
</g>
</g>
<!-- Node1&#45;&gt;Node31 -->
<g id="edge41" class="edge">
<title>Node1&#45;&gt;Node31</title>
<path fill="none" stroke="#191970" d="M1407.9447,-230.6896C1248.308,-223.2348 849.0679,-204.4926 515,-188 478.1419,-186.1804 437.3883,-184.1105 402.6329,-182.3278"/>
<polygon fill="#191970" stroke="#191970" points="402.6917,-178.8263 392.5253,-181.8088 402.3327,-185.8171 402.6917,-178.8263"/>
</g>
<!-- Node32 -->
<g id="node33" class="node">
<title>Node32</title>
<polygon fill="none" stroke="#bfbfbf" points="250.5,-112.5 250.5,-131.5 291.5,-131.5 291.5,-112.5 250.5,-112.5"/>
<text text-anchor="middle" x="271" y="-119.5" font-family="Helvetica,sans-Serif" font-size="10.00" fill="#000000">tuple</text>
</g>
<!-- Node1&#45;&gt;Node32 -->
<g id="edge57" class="edge">
<title>Node1&#45;&gt;Node32</title>
<path fill="none" stroke="#191970" d="M1407.7678,-231.7825C1269.8846,-227.0559 957.0085,-214.2144 695,-188 521.8434,-170.6754 474.1366,-173.4239 301.684,-132.0862"/>
<polygon fill="#191970" stroke="#191970" points="302.3096,-128.6368 291.7676,-129.694 300.6679,-135.4416 302.3096,-128.6368"/>
</g>
<!-- Node33 -->
<g id="node34" class="node">
<title>Node33</title>
<g id="a_node34"><a xlink:href="../../d7/dbe/VariantHelpers_8h.html" target="_top" xlink:title="Framework/VariantHelpers.h">
<polygon fill="none" stroke="#000000" points="1559.5,-168.5 1559.5,-187.5 1714.5,-187.5 1714.5,-168.5 1559.5,-168.5"/>
<text text-anchor="middle" x="1637" y="-175.5" font-family="Helvetica,sans-Serif" font-size="10.00" fill="#000000">Framework/VariantHelpers.h</text>
</a>
</g>
</g>
<!-- Node1&#45;&gt;Node33 -->
<g id="edge46" class="edge">
<title>Node1&#45;&gt;Node33</title>
<path fill="none" stroke="#191970" d="M1506.1612,-224.3733C1532.2067,-215.1419 1571.7116,-201.1402 1600.4979,-190.9375"/>
<polygon fill="#191970" stroke="#191970" points="1601.937,-194.1408 1610.1933,-187.5011 1599.5985,-187.5429 1601.937,-194.1408"/>
</g>
<!-- Node34 -->
<g id="node35" class="node">
<title>Node34</title>
<polygon fill="none" stroke="#bfbfbf" points="737,-168.5 737,-187.5 793,-187.5 793,-168.5 737,-168.5"/>
<text text-anchor="middle" x="765" y="-175.5" font-family="Helvetica,sans-Serif" font-size="10.00" fill="#000000">sstream</text>
</g>
<!-- Node1&#45;&gt;Node34 -->
<g id="edge48" class="edge">
<title>Node1&#45;&gt;Node34</title>
<path fill="none" stroke="#191970" d="M1407.9516,-232.9896C1284.8778,-230.3821 1024.3435,-221.0805 807,-188 805.7495,-187.8097 804.4814,-187.601 803.2034,-187.3772"/>
<polygon fill="#191970" stroke="#191970" points="803.8315,-183.9337 793.3414,-185.4195 802.4685,-190.7997 803.8315,-183.9337"/>
</g>
<!-- Node35 -->
<g id="node36" class="node">
<title>Node35</title>
<polygon fill="none" stroke="#bfbfbf" points="1369,-168.5 1369,-187.5 1437,-187.5 1437,-168.5 1369,-168.5"/>
<text text-anchor="middle" x="1403" y="-175.5" font-family="Helvetica,sans-Serif" font-size="10.00" fill="#000000">arrow/stl.h</text>
</g>
<!-- Node1&#45;&gt;Node35 -->
<g id="edge49" class="edge">
<title>Node1&#45;&gt;Node35</title>
<path fill="none" stroke="#191970" d="M1465.7618,-224.2455C1454.319,-215.814 1437.5704,-203.4729 1424.2525,-193.6598"/>
<polygon fill="#191970" stroke="#191970" points="1426.2133,-190.757 1416.0865,-187.6427 1422.0609,-196.3924 1426.2133,-190.757"/>
</g>
<!-- Node1&#45;&gt;Node36 -->
<g id="edge50" class="edge">
<title>Node1&#45;&gt;Node36</title>
<path fill="none" stroke="#191970" d="M1544.7464,-224.4369C1615.8795,-214.0903 1728.5807,-197.6973 1799.3021,-187.4106"/>
<polygon fill="#191970" stroke="#191970" points="1800.0298,-190.8417 1809.4219,-185.9386 1799.0222,-183.9146 1800.0298,-190.8417"/>
</g>
<!-- Node1&#45;&gt;Node37 -->
<g id="edge52" class="edge">
<title>Node1&#45;&gt;Node37</title>
<path fill="none" stroke="#191970" d="M1550.3834,-228.5577C1637.072,-221.5287 1787.926,-207.9508 1926.2858,-188.1588"/>
<polygon fill="#191970" stroke="#191970" points="1926.8282,-191.6169 1936.225,-186.7231 1925.8274,-184.6888 1926.8282,-191.6169"/>
</g>
<!-- Node38 -->
<g id="node39" class="node">
<title>Node38</title>
<polygon fill="none" stroke="#bfbfbf" points="1455.5,-168.5 1455.5,-187.5 1502.5,-187.5 1502.5,-168.5 1455.5,-168.5"/>
<text text-anchor="middle" x="1479" y="-175.5" font-family="Helvetica,sans-Serif" font-size="10.00" fill="#000000">vector</text>
</g>
<!-- Node1&#45;&gt;Node38 -->
<g id="edge54" class="edge">
<title>Node1&#45;&gt;Node38</title>
<path fill="none" stroke="#191970" d="M1479,-224.2455C1479,-216.9382 1479,-206.6944 1479,-197.7046"/>
<polygon fill="#191970" stroke="#191970" points="1482.5001,-197.6426 1479,-187.6427 1475.5001,-197.6427 1482.5001,-197.6426"/>
</g>
<!-- Node3 -->
<g id="node4" class="node">
<title>Node3</title>
<g id="a_node4"><a xlink:href="../../dd/dce/Pack_8h.html" target="_top" xlink:title="Framework/Pack.h">
<polygon fill="none" stroke="#000000" points="1642.5,-56.5 1642.5,-75.5 1747.5,-75.5 1747.5,-56.5 1642.5,-56.5"/>
<text text-anchor="middle" x="1695" y="-63.5" font-family="Helvetica,sans-Serif" font-size="10.00" fill="#000000">Framework/Pack.h</text>
</a>
</g>
</g>
<!-- Node2&#45;&gt;Node3 -->
<g id="edge3" class="edge">
<title>Node2&#45;&gt;Node3</title>
<path fill="none" stroke="#191970" d="M1161.0403,-174.7105C1224.4017,-169.8006 1332.068,-158.1558 1421,-132 1441.6081,-125.9389 1444.5562,-118.5941 1465,-112 1495.482,-102.1681 1575.3461,-87.0505 1632.395,-76.8554"/>
<polygon fill="#191970" stroke="#191970" points="1633.1759,-80.2715 1642.4085,-75.0744 1631.9501,-73.3797 1633.1759,-80.2715"/>
</g>
<!-- Node7 -->
<g id="node8" class="node">
<title>Node7</title>
<g id="a_node8"><a xlink:href="../../d1/d00/CheckTypes_8h.html" target="_top" xlink:title="Framework/CheckTypes.h">
<polygon fill="none" stroke="#000000" points="913,-56.5 913,-75.5 1053,-75.5 1053,-56.5 913,-56.5"/>
<text text-anchor="middle" x="983" y="-63.5" font-family="Helvetica,sans-Serif" font-size="10.00" fill="#000000">Framework/CheckTypes.h</text>
</a>
</g>
</g>
<!-- Node2&#45;&gt;Node7 -->
<g id="edge7" class="edge">
<title>Node2&#45;&gt;Node7</title>
<path fill="none" stroke="#191970" d="M1105.8409,-168.2717C1103.6921,-154.215 1097.8663,-128.1442 1083,-112 1068.8901,-96.6772 1048.6667,-86.0634 1030.0938,-78.9265"/>
<polygon fill="#191970" stroke="#191970" points="1031.1674,-75.5932 1020.5729,-75.5047 1028.7998,-82.1807 1031.1674,-75.5932"/>
</g>
<!-- Node2&#45;&gt;Node8 -->
<g id="edge8" class="edge">
<title>Node2&#45;&gt;Node8</title>
<path fill="none" stroke="#191970" d="M1161.2239,-171.7391C1243.074,-162.2884 1399.2322,-144.2577 1499.3483,-132.6979"/>
<polygon fill="#191970" stroke="#191970" points="1499.9272,-136.1544 1509.4597,-131.5304 1499.1242,-129.2006 1499.9272,-136.1544"/>
</g>
<!-- Node10 -->
<g id="node11" class="node">
<title>Node10</title>
<g id="a_node11"><a xlink:href="../../d9/de8/CompilerBuiltins_8h.html" target="_top" xlink:title="Framework/CompilerBuiltins.h">
<polygon fill="none" stroke="#000000" points="1766,-56.5 1766,-75.5 1930,-75.5 1930,-56.5 1766,-56.5"/>
<text text-anchor="middle" x="1848" y="-63.5" font-family="Helvetica,sans-Serif" font-size="10.00" fill="#000000">Framework/CompilerBuiltins.h</text>
</a>
</g>
</g>
<!-- Node2&#45;&gt;Node10 -->
<g id="edge11" class="edge">
<title>Node2&#45;&gt;Node10</title>
<path fill="none" stroke="#191970" d="M1161.1968,-176.2775C1230.9675,-172.8454 1355.3238,-162.5921 1457,-132 1476.4149,-126.1585 1478.5851,-117.8415 1498,-112 1522.196,-104.72 1660.4635,-87.7301 1755.7929,-76.5615"/>
<polygon fill="#191970" stroke="#191970" points="1756.2195,-80.0356 1765.7456,-75.3983 1755.4069,-73.0829 1756.2195,-80.0356"/>
</g>
<!-- Node11 -->
<g id="node12" class="node">
<title>Node11</title>
<g id="a_node12"><a xlink:href="../../db/d31/Traits_8h.html" target="_top" xlink:title="Framework/Traits.h">
<polygon fill="none" stroke="#000000" points="309.5,-112.5 309.5,-131.5 418.5,-131.5 418.5,-112.5 309.5,-112.5"/>
<text text-anchor="middle" x="364" y="-119.5" font-family="Helvetica,sans-Serif" font-size="10.00" fill="#000000">Framework/Traits.h</text>
</a>
</g>
</g>
<!-- Node2&#45;&gt;Node11 -->
<g id="edge12" class="edge">
<title>Node2&#45;&gt;Node11</title>
<path fill="none" stroke="#191970" d="M1052.7124,-175.6929C938.0313,-170.5119 662.7559,-156.4538 433,-132 431.5331,-131.8439 430.0494,-131.6799 428.554,-131.5093"/>
<polygon fill="#191970" stroke="#191970" points="428.9139,-128.0274 418.5652,-130.2975 428.0708,-134.9764 428.9139,-128.0274"/>
</g>
<!-- Node13 -->
<g id="node14" class="node">
<title>Node13</title>
<g id="a_node14"><a xlink:href="../../d0/d91/Expressions_8h.html" target="_top" xlink:title="Framework/Expressions.h">
<polygon fill="none" stroke="#000000" points="1271.5,-112.5 1271.5,-131.5 1412.5,-131.5 1412.5,-112.5 1271.5,-112.5"/>
<text text-anchor="middle" x="1342" y="-119.5" font-family="Helvetica,sans-Serif" font-size="10.00" fill="#000000">Framework/Expressions.h</text>
</a>
</g>
</g>
<!-- Node2&#45;&gt;Node13 -->
<g id="edge14" class="edge">
<title>Node2&#45;&gt;Node13</title>
<path fill="none" stroke="#191970" d="M1147.1309,-168.4369C1187.2649,-158.8731 1249.0775,-144.1432 1292.2933,-133.845"/>
<polygon fill="#191970" stroke="#191970" points="1293.1183,-137.2465 1302.0346,-131.5237 1291.4956,-130.4372 1293.1183,-137.2465"/>
</g>
<!-- Node2&#45;&gt;Node16 -->
<g id="edge34" class="edge">
<title>Node2&#45;&gt;Node16</title>
<path fill="none" stroke="#191970" d="M1101.3736,-168.2217C1092.4362,-153.6099 1073.5704,-126.2727 1050,-112 1037.5711,-104.4739 958.5946,-87.3171 904.7656,-76.2161"/>
<polygon fill="#191970" stroke="#191970" points="905.1953,-72.7314 894.6958,-74.1494 903.7879,-79.5885 905.1953,-72.7314"/>
</g>
<!-- Node17 -->
<g id="node18" class="node">
<title>Node17</title>
<polygon fill="none" stroke="#bfbfbf" points="1071.5,-56.5 1071.5,-75.5 1218.5,-75.5 1218.5,-56.5 1071.5,-56.5"/>
<text text-anchor="middle" x="1145" y="-63.5" font-family="Helvetica,sans-Serif" font-size="10.00" fill="#000000">gandiva/selection_vector.h</text>
</g>
<!-- Node2&#45;&gt;Node17 -->
<g id="edge39" class="edge">
<title>Node2&#45;&gt;Node17</title>
<path fill="none" stroke="#191970" d="M1110.2399,-168.4509C1116.4937,-150.0186 1130.3342,-109.2254 1138.539,-85.043"/>
<polygon fill="#191970" stroke="#191970" points="1141.8697,-86.1192 1141.7683,-75.5249 1135.2409,-83.8701 1141.8697,-86.1192"/>
</g>
<!-- Node23 -->
<g id="node24" class="node">
<title>Node23</title>
<g id="a_node24"><a xlink:href="../../d0/d92/Kernels_8h.html" target="_top" xlink:title="Framework/Kernels.h">
<polygon fill="none" stroke="#000000" points="475.5,-112.5 475.5,-131.5 594.5,-131.5 594.5,-112.5 475.5,-112.5"/>
<text text-anchor="middle" x="535" y="-119.5" font-family="Helvetica,sans-Serif" font-size="10.00" fill="#000000">Framework/Kernels.h</text>
</a>
</g>
</g>
<!-- Node2&#45;&gt;Node23 -->
<g id="edge27" class="edge">
<title>Node2&#45;&gt;Node23</title>
<path fill="none" stroke="#191970" d="M1052.93,-172.7064C948.7176,-162.5038 720.1728,-140.1288 604.705,-128.8243"/>
<polygon fill="#191970" stroke="#191970" points="604.8592,-125.3227 594.5657,-127.8316 604.177,-132.2894 604.8592,-125.3227"/>
</g>
<!-- Node24 -->
<g id="node25" class="node">
<title>Node24</title>
<polygon fill="none" stroke="#bfbfbf" points="191.5,-56.5 191.5,-75.5 324.5,-75.5 324.5,-56.5 191.5,-56.5"/>
<text text-anchor="middle" x="258" y="-63.5" font-family="Helvetica,sans-Serif" font-size="10.00" fill="#000000">arrow/compute/kernel.h</text>
</g>
<!-- Node2&#45;&gt;Node24 -->
<g id="edge38" class="edge">
<title>Node2&#45;&gt;Node24</title>
<path fill="none" stroke="#191970" d="M1052.9519,-176.8952C919.2422,-173.7182 575.8642,-162.7308 466,-132 447.2404,-126.7526 445.1628,-119.0405 427,-112 389.872,-97.6079 346.5066,-85.9032 313.0003,-77.9024"/>
<polygon fill="#191970" stroke="#191970" points="313.4714,-74.4179 302.9361,-75.5395 311.8714,-81.2326 313.4714,-74.4179"/>
</g>
<!-- Node27 -->
<g id="node28" class="node">
<title>Node27</title>
<polygon fill="none" stroke="#bfbfbf" points="477,-56.5 477,-75.5 587,-75.5 587,-56.5 477,-56.5"/>
<text text-anchor="middle" x="532" y="-63.5" font-family="Helvetica,sans-Serif" font-size="10.00" fill="#000000">arrow/util/variant.h</text>
</g>
<!-- Node2&#45;&gt;Node27 -->
<g id="edge36" class="edge">
<title>Node2&#45;&gt;Node27</title>
<path fill="none" stroke="#191970" d="M1052.977,-170.3287C995.5218,-161.9254 902.0722,-147.5572 822,-132 736.4096,-115.3706 637.556,-91.9632 580.1761,-77.9548"/>
<polygon fill="#191970" stroke="#191970" points="580.8465,-74.5156 570.301,-75.5367 579.1816,-81.3147 580.8465,-74.5156"/>
</g>
<!-- Node28 -->
<g id="node29" class="node">
<title>Node28</title>
<polygon fill="none" stroke="#bfbfbf" points="1173,-112.5 1173,-131.5 1253,-131.5 1253,-112.5 1173,-112.5"/>
<text text-anchor="middle" x="1213" y="-119.5" font-family="Helvetica,sans-Serif" font-size="10.00" fill="#000000">arrow/array.h</text>
</g>
<!-- Node2&#45;&gt;Node28 -->
<g id="edge35" class="edge">
<title>Node2&#45;&gt;Node28</title>
<path fill="none" stroke="#191970" d="M1125.4638,-168.2455C1142.1074,-159.4527 1166.7993,-146.4079 1185.7192,-136.4125"/>
<polygon fill="#191970" stroke="#191970" points="1187.5408,-139.4086 1194.7478,-131.6427 1184.2709,-133.2193 1187.5408,-139.4086"/>
</g>
<!-- Node29 -->
<g id="node30" class="node">
<title>Node29</title>
<polygon fill="none" stroke="#bfbfbf" points="831.5,-112.5 831.5,-131.5 970.5,-131.5 970.5,-112.5 831.5,-112.5"/>
<text text-anchor="middle" x="901" y="-119.5" font-family="Helvetica,sans-Serif" font-size="10.00" fill="#000000">arrow/compute/context.h</text>
</g>
<!-- Node2&#45;&gt;Node29 -->
<g id="edge37" class="edge">
<title>Node2&#45;&gt;Node29</title>
<path fill="none" stroke="#191970" d="M1071.5873,-168.3733C1036.7395,-158.9001 983.4118,-144.4032 945.6707,-134.1435"/>
<polygon fill="#191970" stroke="#191970" points="946.5185,-130.747 935.9506,-131.5011 944.6822,-137.5019 946.5185,-130.747"/>
</g>
<!-- Node30 -->
<g id="node31" class="node">
<title>Node30</title>
<polygon fill="none" stroke="#bfbfbf" points="989,-112.5 989,-131.5 1041,-131.5 1041,-112.5 989,-112.5"/>
<text text-anchor="middle" x="1015" y="-119.5" font-family="Helvetica,sans-Serif" font-size="10.00" fill="#000000">cassert</text>
</g>
<!-- Node2&#45;&gt;Node30 -->
<g id="edge40" class="edge">
<title>Node2&#45;&gt;Node30</title>
<path fill="none" stroke="#191970" d="M1090.9748,-168.2455C1076.8592,-159.6534 1056.0737,-147.0014 1039.8101,-137.1018"/>
<polygon fill="#191970" stroke="#191970" points="1041.2034,-133.8525 1030.8415,-131.6427 1037.5637,-139.8319 1041.2034,-133.8525"/>
</g>
<!-- Node4 -->
<g id="node5" class="node">
<title>Node4</title>
<polygon fill="none" stroke="#bfbfbf" points="1601.5,-.5 1601.5,-19.5 1654.5,-19.5 1654.5,-.5 1601.5,-.5"/>
<text text-anchor="middle" x="1628" y="-7.5" font-family="Helvetica,sans-Serif" font-size="10.00" fill="#000000">cstddef</text>
</g>
<!-- Node3&#45;&gt;Node4 -->
<g id="edge4" class="edge">
<title>Node3&#45;&gt;Node4</title>
<path fill="none" stroke="#191970" d="M1683.3295,-56.2455C1673.4339,-47.9746 1659.0373,-35.9416 1647.4099,-26.2232"/>
<polygon fill="#191970" stroke="#191970" points="1649.4542,-23.3703 1639.5368,-19.6427 1644.965,-28.7413 1649.4542,-23.3703"/>
</g>
<!-- Node5 -->
<g id="node6" class="node">
<title>Node5</title>
<polygon fill="none" stroke="#bfbfbf" points="1672.5,-.5 1672.5,-19.5 1717.5,-19.5 1717.5,-.5 1672.5,-.5"/>
<text text-anchor="middle" x="1695" y="-7.5" font-family="Helvetica,sans-Serif" font-size="10.00" fill="#000000">utility</text>
</g>
<!-- Node3&#45;&gt;Node5 -->
<g id="edge5" class="edge">
<title>Node3&#45;&gt;Node5</title>
<path fill="none" stroke="#191970" d="M1695,-56.2455C1695,-48.9382 1695,-38.6944 1695,-29.7046"/>
<polygon fill="#191970" stroke="#191970" points="1698.5001,-29.6426 1695,-19.6427 1691.5001,-29.6427 1698.5001,-29.6426"/>
</g>
<!-- Node6 -->
<g id="node7" class="node">
<title>Node6</title>
<polygon fill="none" stroke="#bfbfbf" points="1736,-.5 1736,-19.5 1782,-19.5 1782,-.5 1736,-.5"/>
<text text-anchor="middle" x="1759" y="-7.5" font-family="Helvetica,sans-Serif" font-size="10.00" fill="#000000">cstdio</text>
</g>
<!-- Node3&#45;&gt;Node6 -->
<g id="edge6" class="edge">
<title>Node3&#45;&gt;Node6</title>
<path fill="none" stroke="#191970" d="M1706.1479,-56.2455C1715.5087,-48.0549 1729.0858,-36.1749 1740.1349,-26.5069"/>
<polygon fill="#191970" stroke="#191970" points="1742.7588,-28.8618 1747.9798,-19.6427 1738.1492,-23.5937 1742.7588,-28.8618"/>
</g>
<!-- Node8&#45;&gt;Node3 -->
<g id="edge9" class="edge">
<title>Node8&#45;&gt;Node3</title>
<path fill="none" stroke="#191970" d="M1609.9412,-112.2455C1626.04,-103.4928 1649.8879,-90.527 1668.2391,-80.5496"/>
<polygon fill="#191970" stroke="#191970" points="1670.1507,-83.4942 1677.2644,-75.6427 1666.8071,-77.3444 1670.1507,-83.4942"/>
</g>
<!-- Node8&#45;&gt;Node9 -->
<g id="edge10" class="edge">
<title>Node8&#45;&gt;Node9</title>
<path fill="none" stroke="#191970" d="M1677.2317,-113.1549C1745.3007,-105.5238 1843.2867,-93.2749 1938.0097,-76.0297"/>
<polygon fill="#191970" stroke="#191970" points="1938.8519,-79.4335 1948.0525,-74.18 1937.5839,-72.5493 1938.8519,-79.4335"/>
</g>
<!-- Node12 -->
<g id="node13" class="node">
<title>Node12</title>
<polygon fill="none" stroke="#bfbfbf" points="104.5,-56.5 104.5,-75.5 173.5,-75.5 173.5,-56.5 104.5,-56.5"/>
<text text-anchor="middle" x="139" y="-63.5" font-family="Helvetica,sans-Serif" font-size="10.00" fill="#000000">type_traits</text>
</g>
<!-- Node11&#45;&gt;Node12 -->
<g id="edge13" class="edge">
<title>Node11&#45;&gt;Node12</title>
<path fill="none" stroke="#191970" d="M325.5768,-112.4369C286.1529,-102.6247 224.881,-87.3748 183.4052,-77.052"/>
<polygon fill="#191970" stroke="#191970" points="184.1222,-73.6237 173.5729,-74.6048 182.4315,-80.4165 184.1222,-73.6237"/>
</g>
<!-- Node13&#45;&gt;Node3 -->
<g id="edge17" class="edge">
<title>Node13&#45;&gt;Node3</title>
<path fill="none" stroke="#191970" d="M1402.4796,-112.4962C1459.1601,-103.5766 1546.5423,-89.7927 1632.3272,-76.1037"/>
<polygon fill="#191970" stroke="#191970" points="1632.9135,-79.5546 1642.2366,-74.5218 1631.8099,-72.6421 1632.9135,-79.5546"/>
</g>
<!-- Node13&#45;&gt;Node7 -->
<g id="edge18" class="edge">
<title>Node13&#45;&gt;Node7</title>
<path fill="none" stroke="#191970" d="M1280.6936,-112.4369C1217.8337,-102.6314 1120.1617,-87.3957 1053.9868,-77.0731"/>
<polygon fill="#191970" stroke="#191970" points="1054.4735,-73.6068 1044.0535,-75.5237 1053.3946,-80.5232 1054.4735,-73.6068"/>
</g>
<!-- Node13&#45;&gt;Node10 -->
<g id="edge16" class="edge">
<title>Node13&#45;&gt;Node10</title>
<path fill="none" stroke="#191970" d="M1412.6233,-114.184C1502.2203,-104.2681 1656.9453,-87.1444 1755.7785,-76.2063"/>
<polygon fill="#191970" stroke="#191970" points="1756.2043,-79.6807 1765.7586,-75.1018 1755.4342,-72.7231 1756.2043,-79.6807"/>
</g>
<!-- Node14 -->
<g id="node15" class="node">
<title>Node14</title>
<g id="a_node15"><a xlink:href="../../dd/dc2/BasicOps_8h.html" target="_top" xlink:title="Framework/BasicOps.h">
<polygon fill="none" stroke="#000000" points="667,-56.5 667,-75.5 795,-75.5 795,-56.5 667,-56.5"/>
<text text-anchor="middle" x="731" y="-63.5" font-family="Helvetica,sans-Serif" font-size="10.00" fill="#000000">Framework/BasicOps.h</text>
</a>
</g>
</g>
<!-- Node13&#45;&gt;Node14 -->
<g id="edge15" class="edge">
<title>Node13&#45;&gt;Node14</title>
<path fill="none" stroke="#191970" d="M1271.3497,-112.9902C1268.1913,-112.6437 1265.0635,-112.3117 1262,-112 1062.1385,-91.6647 1008.7198,-97.6614 805.1903,-76.0725"/>
<polygon fill="#191970" stroke="#191970" points="805.3841,-72.5734 795.0685,-74.9894 804.6393,-79.5336 805.3841,-72.5734"/>
</g>
<!-- Node15 -->
<g id="node16" class="node">
<title>Node15</title>
<polygon fill="none" stroke="#bfbfbf" points="1305.5,-56.5 1305.5,-75.5 1406.5,-75.5 1406.5,-56.5 1305.5,-56.5"/>
<text text-anchor="middle" x="1356" y="-63.5" font-family="Helvetica,sans-Serif" font-size="10.00" fill="#000000">arrow/type_fwd.h</text>
</g>
<!-- Node13&#45;&gt;Node15 -->
<g id="edge19" class="edge">
<title>Node13&#45;&gt;Node15</title>
<path fill="none" stroke="#191970" d="M1344.4386,-112.2455C1346.2855,-104.8579 1348.8828,-94.4689 1351.1478,-85.4087"/>
<polygon fill="#191970" stroke="#191970" points="1354.5594,-86.193 1353.5893,-75.6427 1347.7684,-84.4952 1354.5594,-86.193"/>
</g>
<!-- Node13&#45;&gt;Node16 -->
<g id="edge20" class="edge">
<title>Node13&#45;&gt;Node16</title>
<path fill="none" stroke="#191970" d="M1271.3408,-113.0737C1268.1848,-112.7046 1265.0599,-112.345 1262,-112 1106.3524,-94.4488 1063.8753,-99.4879 904.7514,-75.978"/>
<polygon fill="#191970" stroke="#191970" points="905.0082,-72.4777 894.6011,-74.4633 903.975,-79.401 905.0082,-72.4777"/>
</g>
<!-- Node13&#45;&gt;Node17 -->
<g id="edge21" class="edge">
<title>Node13&#45;&gt;Node17</title>
<path fill="none" stroke="#191970" d="M1308.1345,-112.3733C1274.951,-102.9404 1224.245,-88.5265 1188.1806,-78.2747"/>
<polygon fill="#191970" stroke="#191970" points="1188.9995,-74.8689 1178.4236,-75.5011 1187.0855,-81.6021 1188.9995,-74.8689"/>
</g>
<!-- Node18 -->
<g id="node19" class="node">
<title>Node18</title>
<polygon fill="none" stroke="#bfbfbf" points="1425,-56.5 1425,-75.5 1517,-75.5 1517,-56.5 1425,-56.5"/>
<text text-anchor="middle" x="1471" y="-63.5" font-family="Helvetica,sans-Serif" font-size="10.00" fill="#000000">gandiva/node.h</text>
</g>
<!-- Node13&#45;&gt;Node18 -->
<g id="edge22" class="edge">
<title>Node13&#45;&gt;Node18</title>
<path fill="none" stroke="#191970" d="M1364.1759,-112.3733C1384.9766,-103.3435 1416.2917,-89.7494 1439.6458,-79.6111"/>
<polygon fill="#191970" stroke="#191970" points="1441.3343,-82.6938 1449.1135,-75.5011 1438.5468,-76.2727 1441.3343,-82.6938"/>
</g>
<!-- Node19 -->
<g id="node20" class="node">
<title>Node19</title>
<polygon fill="none" stroke="#bfbfbf" points="1535.5,-56.5 1535.5,-75.5 1624.5,-75.5 1624.5,-56.5 1535.5,-56.5"/>
<text text-anchor="middle" x="1580" y="-63.5" font-family="Helvetica,sans-Serif" font-size="10.00" fill="#000000">gandiva/filter.h</text>
</g>
<!-- Node13&#45;&gt;Node19 -->
<g id="edge23" class="edge">
<title>Node13&#45;&gt;Node19</title>
<path fill="none" stroke="#191970" d="M1382.6432,-112.4369C1423.2895,-102.8731 1485.8913,-88.1432 1529.6587,-77.845"/>
<polygon fill="#191970" stroke="#191970" points="1530.5919,-81.2211 1539.5244,-75.5237 1528.9886,-74.4072 1530.5919,-81.2211"/>
</g>
<!-- Node20 -->
<g id="node21" class="node">
<title>Node20</title>
<polygon fill="none" stroke="#bfbfbf" points="1236.5,-56.5 1236.5,-75.5 1287.5,-75.5 1287.5,-56.5 1236.5,-56.5"/>
<text text-anchor="middle" x="1262" y="-63.5" font-family="Helvetica,sans-Serif" font-size="10.00" fill="#000000">variant</text>
</g>
<!-- Node13&#45;&gt;Node20 -->
<g id="edge24" class="edge">
<title>Node13&#45;&gt;Node20</title>
<path fill="none" stroke="#191970" d="M1328.0651,-112.2455C1315.9053,-103.7337 1298.0536,-91.2375 1283.9715,-81.3801"/>
<polygon fill="#191970" stroke="#191970" points="1285.9747,-78.51 1275.7752,-75.6427 1281.9605,-84.2447 1285.9747,-78.51"/>
</g>
<!-- Node13&#45;&gt;Node21 -->
<g id="edge25" class="edge">
<title>Node13&#45;&gt;Node21</title>
<path fill="none" stroke="#191970" d="M1271.3568,-112.9175C1268.1965,-112.5907 1265.0663,-112.2827 1262,-112 997.4839,-87.6107 924.0781,-124.7478 659.0895,-75.7513"/>
<polygon fill="#191970" stroke="#191970" points="659.6503,-72.2955 649.1769,-73.895 658.3618,-79.1759 659.6503,-72.2955"/>
</g>
<!-- Node13&#45;&gt;Node22 -->
<g id="edge26" class="edge">
<title>Node13&#45;&gt;Node22</title>
<path fill="none" stroke="#191970" d="M1412.7185,-117.4001C1572.2745,-106.9999 1951.2803,-82.1662 2021.4185,-75.4764"/>
<polygon fill="#191970" stroke="#191970" points="2022.1207,-78.9192 2031.6603,-74.3097 2021.3284,-71.9641 2022.1207,-78.9192"/>
</g>
<!-- Node23&#45;&gt;Node14 -->
<g id="edge28" class="edge">
<title>Node23&#45;&gt;Node14</title>
<path fill="none" stroke="#191970" d="M568.6936,-112.3733C601.7087,-102.9404 652.1573,-88.5265 688.0386,-78.2747"/>
<polygon fill="#191970" stroke="#191970" points="689.0924,-81.6137 697.7461,-75.5011 687.1693,-74.8831 689.0924,-81.6137"/>
</g>
<!-- Node23&#45;&gt;Node21 -->
<g id="edge33" class="edge">
<title>Node23&#45;&gt;Node21</title>
<path fill="none" stroke="#191970" d="M551.0252,-112.2455C565.1408,-103.6534 585.9263,-91.0014 602.1899,-81.1018"/>
<polygon fill="#191970" stroke="#191970" points="604.4363,-83.8319 611.1585,-75.6427 600.7966,-77.8525 604.4363,-83.8319"/>
</g>
<!-- Node23&#45;&gt;Node24 -->
<g id="edge29" class="edge">
<title>Node23&#45;&gt;Node24</title>
<path fill="none" stroke="#191970" d="M487.6967,-112.4369C439.892,-102.7724 365.9932,-87.8326 314.9892,-77.5213"/>
<polygon fill="#191970" stroke="#191970" points="315.6034,-74.0747 305.1082,-75.5237 314.2163,-80.9359 315.6034,-74.0747"/>
</g>
<!-- Node23&#45;&gt;Node25 -->
<g id="edge30" class="edge">
<title>Node23&#45;&gt;Node25</title>
<path fill="none" stroke="#191970" d="M475.1136,-116.3824C376.4194,-107.0209 182.7036,-88.1837 96.0986,-76.0283"/>
<polygon fill="#191970" stroke="#191970" points="96.4795,-72.547 86.0816,-74.5801 95.4779,-79.475 96.4795,-72.547"/>
</g>
<!-- Node26 -->
<g id="node27" class="node">
<title>Node26</title>
<polygon fill="none" stroke="#bfbfbf" points="343,-56.5 343,-75.5 459,-75.5 459,-56.5 343,-56.5"/>
<text text-anchor="middle" x="401" y="-63.5" font-family="Helvetica,sans-Serif" font-size="10.00" fill="#000000">arrow/util/visibility.h</text>
</g>
<!-- Node23&#45;&gt;Node26 -->
<g id="edge31" class="edge">
<title>Node23&#45;&gt;Node26</title>
<path fill="none" stroke="#191970" d="M511.9646,-112.3733C490.2612,-103.3032 457.5382,-89.6279 433.245,-79.4755"/>
<polygon fill="#191970" stroke="#191970" points="434.3111,-76.1278 423.7348,-75.5011 431.6119,-82.5865 434.3111,-76.1278"/>
</g>
<!-- Node23&#45;&gt;Node27 -->
<g id="edge32" class="edge">
<title>Node23&#45;&gt;Node27</title>
<path fill="none" stroke="#191970" d="M534.4774,-112.2455C534.086,-104.9382 533.5372,-94.6944 533.0556,-85.7046"/>
<polygon fill="#191970" stroke="#191970" points="536.5466,-85.4411 532.5166,-75.6427 529.5566,-85.8156 536.5466,-85.4411"/>
</g>
<!-- Node31&#45;&gt;Node11 -->
<g id="edge42" class="edge">
<title>Node31&#45;&gt;Node11</title>
<path fill="none" stroke="#191970" d="M326.8384,-168.2455C333.162,-160.3761 342.2224,-149.101 349.8136,-139.6542"/>
<polygon fill="#191970" stroke="#191970" points="352.7158,-141.6302 356.2514,-131.6427 347.2592,-137.2454 352.7158,-141.6302"/>
</g>
<!-- Node31&#45;&gt;Node12 -->
<g id="edge44" class="edge">
<title>Node31&#45;&gt;Node12</title>
<path fill="none" stroke="#191970" d="M302.1427,-168.3287C286.263,-159.1546 261.8622,-144.8936 241,-132 213.4926,-114.9995 182.3496,-94.6903 161.7912,-81.1327"/>
<polygon fill="#191970" stroke="#191970" points="163.6781,-78.1844 153.4059,-75.59 159.8182,-84.024 163.6781,-78.1844"/>
</g>
<!-- Node31&#45;&gt;Node32 -->
<g id="edge43" class="edge">
<title>Node31&#45;&gt;Node32</title>
<path fill="none" stroke="#191970" d="M310.639,-168.2455C303.825,-160.2958 294.0319,-148.8706 285.8848,-139.3656"/>
<polygon fill="#191970" stroke="#191970" points="288.4305,-136.9575 279.2651,-131.6427 283.1157,-141.513 288.4305,-136.9575"/>
</g>
<!-- Node33&#45;&gt;Node10 -->
<g id="edge47" class="edge">
<title>Node33&#45;&gt;Node10</title>
<path fill="none" stroke="#191970" d="M1648.281,-168.452C1665.0355,-154.6199 1697.8739,-128.8262 1729,-112 1753.977,-98.4979 1783.7777,-86.984 1807.3087,-78.8525"/>
<polygon fill="#191970" stroke="#191970" points="1808.6279,-82.1011 1816.9772,-75.5788 1806.3829,-75.4709 1808.6279,-82.1011"/>
</g>
</g>
</svg>
        <g id="navigator" transform="translate(0 0)" fill="#404254">
                <rect fill="#f2f5e9" fill-opacity="0.5" stroke="#606060" stroke-width=".5" x="0" y="0" width="60" height="60"/>
                <use id="zoomplus" xlink:href="#zoomPlus" x="17" y="9" onmousedown="handleZoom(evt,'in')"/>
                <use id="zoomminus" xlink:href="#zoomMin" x="42" y="9" onmousedown="handleZoom(evt,'out')"/>
                <use id="reset" xlink:href="#resetDef" x="30" y="36" onmousedown="handleReset()"/>
                <g id="arrowUp" xlink:href="#dirArrow" transform="translate(30 24)" onmousedown="handlePan(0,-1)">
                  <use xlink:href="#rim" fill="#404040">
                        <set attributeName="fill" to="#808080" begin="arrowUp.mouseover" end="arrowUp.mouseout"/>
                  </use>
                  <path fill="none" stroke="white" stroke-width="1.5" d="M0,-3.0v7 M-2.5,-0.5L0,-3.0L2.5,-0.5"/>
                </g>
                <g id="arrowRight" xlink:href="#dirArrow" transform="rotate(90) translate(36 -43)" onmousedown="handlePan(1,0)">
                  <use xlink:href="#rim" fill="#404040">
                        <set attributeName="fill" to="#808080" begin="arrowRight.mouseover" end="arrowRight.mouseout"/>
                  </use>
                  <path fill="none" stroke="white" stroke-width="1.5" d="M0,-3.0v7 M-2.5,-0.5L0,-3.0L2.5,-0.5"/>
                </g>
                <g id="arrowDown" xlink:href="#dirArrow" transform="rotate(180) translate(-30 -48)" onmousedown="handlePan(0,1)">
                  <use xlink:href="#rim" fill="#404040">
                        <set attributeName="fill" to="#808080" begin="arrowDown.mouseover" end="arrowDown.mouseout"/>
                  </use>
                  <path fill="none" stroke="white" stroke-width="1.5" d="M0,-3.0v7 M-2.5,-0.5L0,-3.0L2.5,-0.5"/>
                </g>
                <g id="arrowLeft" xlink:href="#dirArrow" transform="rotate(270) translate(-36 17)" onmousedown="handlePan(-1,0)">
                  <use xlink:href="#rim" fill="#404040">
                        <set attributeName="fill" to="#808080" begin="arrowLeft.mouseover" end="arrowLeft.mouseout"/>
                  </use>
                  <path fill="none" stroke="white" stroke-width="1.5" d="M0,-3.0v7 M-2.5,-0.5L0,-3.0L2.5,-0.5"/>
                </g>
        </g>
        <svg viewBox="0 0 15 15" width="100%" height="30px" preserveAspectRatio="xMaxYMin meet">
         <g id="arrow_out" transform="scale(0.3 0.3)">
          <a xlink:href="TableBuilder_8cxx__incl_org.svg" target="_base">
           <rect id="button" ry="5" rx="5" y="6" x="6" height="38" width="38"
                fill="#f2f5e9" fill-opacity="0.5" stroke="#606060" stroke-width="1.0"/>
           <path id="arrow"
             d="M 11.500037,31.436501 C 11.940474,20.09759 22.043105,11.32322 32.158766,21.979434 L 37.068811,17.246167 C 37.068811,17.246167 37.088388,32 37.088388,32 L 22.160133,31.978069 C 22.160133,31.978069 26.997745,27.140456 26.997745,27.140456 C 18.528582,18.264221 13.291696,25.230495 11.500037,31.436501 z"
             style="fill:#404040;"/>
          </a>
         </g>
        </svg>
</svg>
