<?xml version="1.0" encoding="UTF-8" standalone="no"?>
<!DOCTYPE svg PUBLIC "-//W3C//DTD SVG 1.1//EN"
 "http://www.w3.org/Graphics/SVG/1.1/DTD/svg11.dtd">
<!-- Generated by graphviz version 2.40.1 (20161225.0304)
 -->
<!-- Title: /home/travis/build/AliceO2Group/AliceO2/Framework/Core/include/Framework/RootTableBuilderHelpers.h Pages: 1 -->
<svg width="2518pt" height="341pt"
 viewBox="0.00 0.00 2517.50 341.00" xmlns="http://www.w3.org/2000/svg" xmlns:xlink="http://www.w3.org/1999/xlink">
<g id="graph0" class="graph" transform="scale(1 1) rotate(0) translate(4 337)">
<title>/home/travis/build/AliceO2Group/AliceO2/Framework/Core/include/Framework/RootTableBuilderHelpers.h</title>
<!-- Node0 -->
<g id="node1" class="node">
<title>Node0</title>
<polygon fill="#bfbfbf" stroke="#000000" points="1811,-280.5 1811,-332.5 2016,-332.5 2016,-280.5 1811,-280.5"/>
<text text-anchor="start" x="1819" y="-320.5" font-family="Helvetica,sans-Serif" font-size="10.00" fill="#000000">/home/travis/build</text>
<text text-anchor="start" x="1819" y="-309.5" font-family="Helvetica,sans-Serif" font-size="10.00" fill="#000000">/AliceO2Group/AliceO2</text>
<text text-anchor="start" x="1819" y="-298.5" font-family="Helvetica,sans-Serif" font-size="10.00" fill="#000000">/Framework/Core/include</text>
<text text-anchor="middle" x="1913.5" y="-287.5" font-family="Helvetica,sans-Serif" font-size="10.00" fill="#000000">/Framework/RootTableBuilderHelpers.h</text>
</g>
<!-- Node1 -->
<g id="node2" class="node">
<title>Node1</title>
<g id="a_node2"><a xlink:href="../../d5/d98/TableBuilder_8h.html" target="_top" xlink:title="Framework/TableBuilder.h">
<polygon fill="none" stroke="#000000" points="1376.5,-224.5 1376.5,-243.5 1518.5,-243.5 1518.5,-224.5 1376.5,-224.5"/>
<text text-anchor="middle" x="1447.5" y="-231.5" font-family="Helvetica,sans-Serif" font-size="10.00" fill="#000000">Framework/TableBuilder.h</text>
</a>
</g>
</g>
<!-- Node0&#45;&gt;Node1 -->
<g id="edge1" class="edge">
<title>Node0&#45;&gt;Node1</title>
<path fill="none" stroke="#191970" d="M1810.946,-290.5447C1722.4669,-276.7792 1596.9598,-257.2529 1518.9768,-245.1203"/>
<polygon fill="#191970" stroke="#191970" points="1519.1872,-241.611 1508.768,-243.532 1518.111,-248.5278 1519.1872,-241.611"/>
</g>
<!-- Node16 -->
<g id="node17" class="node">
<title>Node16</title>
<polygon fill="none" stroke="#bfbfbf" points="1933,-56.5 1933,-75.5 2014,-75.5 2014,-56.5 1933,-56.5"/>
<text text-anchor="middle" x="1973.5" y="-63.5" font-family="Helvetica,sans-Serif" font-size="10.00" fill="#000000">arrow/table.h</text>
</g>
<!-- Node0&#45;&gt;Node16 -->
<g id="edge61" class="edge">
<title>Node0&#45;&gt;Node16</title>
<path fill="none" stroke="#191970" d="M1921.2472,-280.2509C1928.2089,-256.3093 1938.5324,-219.9081 1946.5,-188 1955.4832,-152.0247 1964.5073,-109.7009 1969.5129,-85.5447"/>
<polygon fill="#191970" stroke="#191970" points="1972.9858,-86.0323 1971.5726,-75.5321 1966.1294,-84.6218 1972.9858,-86.0323"/>
</g>
<!-- Node21 -->
<g id="node22" class="node">
<title>Node21</title>
<polygon fill="none" stroke="#bfbfbf" points="170.5,-56.5 170.5,-75.5 214.5,-75.5 214.5,-56.5 170.5,-56.5"/>
<text text-anchor="middle" x="192.5" y="-63.5" font-family="Helvetica,sans-Serif" font-size="10.00" fill="#000000">string</text>
</g>
<!-- Node0&#45;&gt;Node21 -->
<g id="edge67" class="edge">
<title>Node0&#45;&gt;Node21</title>
<path fill="none" stroke="#191970" d="M1810.9697,-304.3571C1503.1737,-297.6027 600.4387,-275.3329 471.5,-244 358.6777,-216.5835 250.1267,-121.5384 209.4035,-82.7156"/>
<polygon fill="#191970" stroke="#191970" points="211.5957,-79.9668 201.9733,-75.5327 206.7304,-84.9995 211.5957,-79.9668"/>
</g>
<!-- Node22 -->
<g id="node23" class="node">
<title>Node22</title>
<polygon fill="none" stroke="#bfbfbf" points="2032.5,-56.5 2032.5,-75.5 2090.5,-75.5 2090.5,-56.5 2032.5,-56.5"/>
<text text-anchor="middle" x="2061.5" y="-63.5" font-family="Helvetica,sans-Serif" font-size="10.00" fill="#000000">memory</text>
</g>
<!-- Node0&#45;&gt;Node22 -->
<g id="edge68" class="edge">
<title>Node0&#45;&gt;Node22</title>
<path fill="none" stroke="#191970" d="M1929.6203,-280.3045C1959.7853,-231.2863 2024.0645,-126.8327 2050.1483,-84.4466"/>
<polygon fill="#191970" stroke="#191970" points="2053.254,-86.0779 2055.5142,-75.7269 2047.2924,-82.4092 2053.254,-86.0779"/>
</g>
<!-- Node32 -->
<g id="node33" class="node">
<title>Node32</title>
<polygon fill="none" stroke="#bfbfbf" points="330,-112.5 330,-131.5 371,-131.5 371,-112.5 330,-112.5"/>
<text text-anchor="middle" x="350.5" y="-119.5" font-family="Helvetica,sans-Serif" font-size="10.00" fill="#000000">tuple</text>
</g>
<!-- Node0&#45;&gt;Node32 -->
<g id="edge69" class="edge">
<title>Node0&#45;&gt;Node32</title>
<path fill="none" stroke="#191970" d="M1810.8213,-305.5126C1482.9647,-301.4273 476.2507,-281.3281 366.5,-188 353.4736,-176.9228 350.0715,-157.2137 349.5698,-142.2084"/>
<polygon fill="#191970" stroke="#191970" points="353.0719,-141.8952 349.6401,-131.8715 346.0721,-141.8475 353.0719,-141.8952"/>
</g>
<!-- Node35 -->
<g id="node36" class="node">
<title>Node35</title>
<polygon fill="none" stroke="#bfbfbf" points="1569.5,-168.5 1569.5,-187.5 1637.5,-187.5 1637.5,-168.5 1569.5,-168.5"/>
<text text-anchor="middle" x="1603.5" y="-175.5" font-family="Helvetica,sans-Serif" font-size="10.00" fill="#000000">arrow/stl.h</text>
</g>
<!-- Node0&#45;&gt;Node35 -->
<g id="edge59" class="edge">
<title>Node0&#45;&gt;Node35</title>
<path fill="none" stroke="#191970" d="M1850.7669,-280.4961C1785.7489,-253.5451 1686.6757,-212.4777 1635.9323,-191.4437"/>
<polygon fill="#191970" stroke="#191970" points="1637.0305,-188.1102 1626.4525,-187.5142 1634.35,-194.5767 1637.0305,-188.1102"/>
</g>
<!-- Node36 -->
<g id="node37" class="node">
<title>Node36</title>
<polygon fill="none" stroke="#bfbfbf" points="1656,-168.5 1656,-187.5 1765,-187.5 1765,-168.5 1656,-168.5"/>
<text text-anchor="middle" x="1710.5" y="-175.5" font-family="Helvetica,sans-Serif" font-size="10.00" fill="#000000">arrow/type_traits.h</text>
</g>
<!-- Node0&#45;&gt;Node36 -->
<g id="edge60" class="edge">
<title>Node0&#45;&gt;Node36</title>
<path fill="none" stroke="#191970" d="M1872.4199,-280.4961C1830.908,-254.2189 1768.1966,-214.5222 1734.2886,-193.0583"/>
<polygon fill="#191970" stroke="#191970" points="1735.8516,-189.9054 1725.5302,-187.5142 1732.1076,-195.8201 1735.8516,-189.9054"/>
</g>
<!-- Node37 -->
<g id="node38" class="node">
<title>Node37</title>
<polygon fill="none" stroke="#bfbfbf" points="1783,-168.5 1783,-187.5 1872,-187.5 1872,-168.5 1783,-168.5"/>
<text text-anchor="middle" x="1827.5" y="-175.5" font-family="Helvetica,sans-Serif" font-size="10.00" fill="#000000">arrow/builder.h</text>
</g>
<!-- Node0&#45;&gt;Node37 -->
<g id="edge62" class="edge">
<title>Node0&#45;&gt;Node37</title>
<path fill="none" stroke="#191970" d="M1896.0966,-280.4961C1879.2618,-255.3418 1854.1972,-217.8906 1839.4848,-195.9075"/>
<polygon fill="#191970" stroke="#191970" points="1842.3381,-193.878 1833.8675,-187.5142 1836.5207,-197.7714 1842.3381,-193.878"/>
</g>
<!-- Node38 -->
<g id="node39" class="node">
<title>Node38</title>
<polygon fill="none" stroke="#bfbfbf" points="1890,-168.5 1890,-187.5 1937,-187.5 1937,-168.5 1890,-168.5"/>
<text text-anchor="middle" x="1913.5" y="-175.5" font-family="Helvetica,sans-Serif" font-size="10.00" fill="#000000">vector</text>
</g>
<!-- Node0&#45;&gt;Node38 -->
<g id="edge66" class="edge">
<title>Node0&#45;&gt;Node38</title>
<path fill="none" stroke="#191970" d="M1913.5,-280.4961C1913.5,-256.0156 1913.5,-219.8881 1913.5,-197.7068"/>
<polygon fill="#191970" stroke="#191970" points="1917.0001,-197.5141 1913.5,-187.5142 1910.0001,-197.5142 1917.0001,-197.5141"/>
</g>
<!-- Node39 -->
<g id="node40" class="node">
<title>Node39</title>
<g id="a_node40"><a xlink:href="../../dd/da4/Logger_8h.html" target="_top" xlink:title="Framework/Logger.h">
<polygon fill="none" stroke="#000000" points="2032,-224.5 2032,-243.5 2147,-243.5 2147,-224.5 2032,-224.5"/>
<text text-anchor="middle" x="2089.5" y="-231.5" font-family="Helvetica,sans-Serif" font-size="10.00" fill="#000000">Framework/Logger.h</text>
</a>
</g>
</g>
<!-- Node0&#45;&gt;Node39 -->
<g id="edge58" class="edge">
<title>Node0&#45;&gt;Node39</title>
<path fill="none" stroke="#191970" d="M1977.04,-280.3258C2004.1435,-269.161 2034.6097,-256.6111 2056.9887,-247.3924"/>
<polygon fill="#191970" stroke="#191970" points="2058.4423,-250.5791 2066.3554,-243.534 2055.776,-244.1067 2058.4423,-250.5791"/>
</g>
<!-- Node40 -->
<g id="node41" class="node">
<title>Node40</title>
<polygon fill="none" stroke="#bfbfbf" points="2165,-224.5 2165,-243.5 2250,-243.5 2250,-224.5 2165,-224.5"/>
<text text-anchor="middle" x="2207.5" y="-231.5" font-family="Helvetica,sans-Serif" font-size="10.00" fill="#000000">TTreeReader.h</text>
</g>
<!-- Node0&#45;&gt;Node40 -->
<g id="edge63" class="edge">
<title>Node0&#45;&gt;Node40</title>
<path fill="none" stroke="#191970" d="M2016.3269,-281.143C2064.6644,-269.2231 2120.0268,-255.5708 2158.6909,-246.0363"/>
<polygon fill="#191970" stroke="#191970" points="2159.7681,-249.3756 2168.6392,-243.583 2158.0921,-242.5791 2159.7681,-249.3756"/>
</g>
<!-- Node41 -->
<g id="node42" class="node">
<title>Node41</title>
<polygon fill="none" stroke="#bfbfbf" points="2268,-224.5 2268,-243.5 2381,-243.5 2381,-224.5 2268,-224.5"/>
<text text-anchor="middle" x="2324.5" y="-231.5" font-family="Helvetica,sans-Serif" font-size="10.00" fill="#000000">TTreeReaderValue.h</text>
</g>
<!-- Node0&#45;&gt;Node41 -->
<g id="edge64" class="edge">
<title>Node0&#45;&gt;Node41</title>
<path fill="none" stroke="#191970" d="M2016.1525,-288.3922C2092.7743,-274.8762 2195.0979,-256.8264 2260.4146,-245.3046"/>
<polygon fill="#191970" stroke="#191970" points="2261.3302,-248.6972 2270.5702,-243.5132 2260.1142,-241.8036 2261.3302,-248.6972"/>
</g>
<!-- Node42 -->
<g id="node43" class="node">
<title>Node42</title>
<polygon fill="none" stroke="#bfbfbf" points="2399.5,-224.5 2399.5,-243.5 2509.5,-243.5 2509.5,-224.5 2399.5,-224.5"/>
<text text-anchor="middle" x="2454.5" y="-231.5" font-family="Helvetica,sans-Serif" font-size="10.00" fill="#000000">TTreeReaderArray.h</text>
</g>
<!-- Node0&#45;&gt;Node42 -->
<g id="edge65" class="edge">
<title>Node0&#45;&gt;Node42</title>
<path fill="none" stroke="#191970" d="M2016.4185,-293.7606C2110.7322,-281.914 2254.5111,-263.422 2389.2568,-244.1529"/>
<polygon fill="#191970" stroke="#191970" points="2389.9531,-247.589 2399.355,-242.705 2388.9594,-240.6599 2389.9531,-247.589"/>
</g>
<!-- Node2 -->
<g id="node3" class="node">
<title>Node2</title>
<g id="a_node3"><a xlink:href="../../de/d33/ASoA_8h.html" target="_top" xlink:title="Framework/ASoA.h">
<polygon fill="none" stroke="#000000" points="1074.5,-168.5 1074.5,-187.5 1182.5,-187.5 1182.5,-168.5 1074.5,-168.5"/>
<text text-anchor="middle" x="1128.5" y="-175.5" font-family="Helvetica,sans-Serif" font-size="10.00" fill="#000000">Framework/ASoA.h</text>
</a>
</g>
</g>
<!-- Node1&#45;&gt;Node2 -->
<g id="edge2" class="edge">
<title>Node1&#45;&gt;Node2</title>
<path fill="none" stroke="#191970" d="M1393.0244,-224.4369C1337.5125,-214.6918 1251.4471,-199.5832 1192.6672,-189.2645"/>
<polygon fill="#191970" stroke="#191970" points="1193.2055,-185.8055 1182.7509,-187.5237 1191.9951,-192.7001 1193.2055,-185.8055"/>
</g>
<!-- Node8 -->
<g id="node9" class="node">
<title>Node8</title>
<g id="a_node9"><a xlink:href="../../de/d9b/FunctionalHelpers_8h.html" target="_top" xlink:title="Framework/FunctionalHelpers.h">
<polygon fill="none" stroke="#000000" points="640.5,-112.5 640.5,-131.5 810.5,-131.5 810.5,-112.5 640.5,-112.5"/>
<text text-anchor="middle" x="725.5" y="-119.5" font-family="Helvetica,sans-Serif" font-size="10.00" fill="#000000">Framework/FunctionalHelpers.h</text>
</a>
</g>
</g>
<!-- Node1&#45;&gt;Node8 -->
<g id="edge45" class="edge">
<title>Node1&#45;&gt;Node8</title>
<path fill="none" stroke="#191970" d="M1376.1806,-226.9602C1299.288,-219.0094 1173.393,-204.9457 1065.5,-188 963.7982,-172.0267 846.0548,-147.8983 779.2164,-133.6676"/>
<polygon fill="#191970" stroke="#191970" points="779.845,-130.223 769.3345,-131.5567 778.3827,-137.0685 779.845,-130.223"/>
</g>
<!-- Node9 -->
<g id="node10" class="node">
<title>Node9</title>
<polygon fill="none" stroke="#bfbfbf" points="87,-56.5 87,-75.5 152,-75.5 152,-56.5 87,-56.5"/>
<text text-anchor="middle" x="119.5" y="-63.5" font-family="Helvetica,sans-Serif" font-size="10.00" fill="#000000">functional</text>
</g>
<!-- Node1&#45;&gt;Node9 -->
<g id="edge53" class="edge">
<title>Node1&#45;&gt;Node9</title>
<path fill="none" stroke="#191970" d="M1376.4342,-231.0129C1228.974,-224.5 894.1187,-207.991 781.5,-188 693.5591,-172.3896 672.1255,-163.3697 588.5,-132 568.7656,-124.5972 565.8446,-117.5084 545.5,-112 383.1932,-68.0547 332.5501,-102.5514 162.4683,-75.9219"/>
<polygon fill="#191970" stroke="#191970" points="162.8564,-72.4393 152.4264,-74.3009 161.7408,-79.3498 162.8564,-72.4393"/>
</g>
<!-- Node1&#45;&gt;Node16 -->
<g id="edge51" class="edge">
<title>Node1&#45;&gt;Node16</title>
<path fill="none" stroke="#191970" d="M1456.2391,-224.1043C1469.8833,-209.3392 1497.7796,-181.8044 1527.5,-168 1608.6195,-130.322 1638.2126,-151.517 1725.5,-132 1798.3137,-115.7192 1881.9878,-92.4963 1931.1556,-78.3804"/>
<polygon fill="#191970" stroke="#191970" points="1932.1716,-81.7301 1940.8114,-75.5979 1930.2333,-75.0038 1932.1716,-81.7301"/>
</g>
<!-- Node1&#45;&gt;Node21 -->
<g id="edge55" class="edge">
<title>Node1&#45;&gt;Node21</title>
<path fill="none" stroke="#191970" d="M1376.3703,-229.2773C1279.5457,-222.4274 1100.9606,-208.2964 949.5,-188 807.2633,-168.9397 768.3919,-175.0717 631.5,-132 611.3946,-125.674 608.8313,-117.5576 588.5,-112 434.4841,-69.8996 385.1118,-107.598 224.9084,-75.8738"/>
<polygon fill="#191970" stroke="#191970" points="225.1961,-72.3604 214.698,-73.7885 223.7954,-79.2188 225.1961,-72.3604"/>
</g>
<!-- Node1&#45;&gt;Node22 -->
<g id="edge56" class="edge">
<title>Node1&#45;&gt;Node22</title>
<path fill="none" stroke="#191970" d="M1464.1575,-224.3294C1480.1541,-215.0357 1504.9949,-200.5859 1526.5,-188 1541.6308,-179.1447 1544.0152,-173.9675 1560.5,-168 1653.2495,-134.4246 1682.7158,-151.0418 1779.5,-132 1885.5793,-111.1294 1913.8803,-103.065 2022.7496,-76.1416"/>
<polygon fill="#191970" stroke="#191970" points="2023.6091,-79.5345 2032.4781,-73.7386 2021.9305,-72.7388 2023.6091,-79.5345"/>
</g>
<!-- Node31 -->
<g id="node32" class="node">
<title>Node31</title>
<g id="a_node32"><a xlink:href="../../db/d4f/StructToTuple_8h.html" target="_top" xlink:title="Framework/StructToTuple.h">
<polygon fill="none" stroke="#000000" points="399,-168.5 399,-187.5 546,-187.5 546,-168.5 399,-168.5"/>
<text text-anchor="middle" x="472.5" y="-175.5" font-family="Helvetica,sans-Serif" font-size="10.00" fill="#000000">Framework/StructToTuple.h</text>
</a>
</g>
</g>
<!-- Node1&#45;&gt;Node31 -->
<g id="edge41" class="edge">
<title>Node1&#45;&gt;Node31</title>
<path fill="none" stroke="#191970" d="M1376.4031,-231.7938C1225.7665,-226.7938 863.4333,-213.0435 560.5,-188 559.2071,-187.8931 557.9037,-187.7824 556.5921,-187.6683"/>
<polygon fill="#191970" stroke="#191970" points="556.6879,-184.1624 546.4093,-186.7316 556.0466,-191.1329 556.6879,-184.1624"/>
</g>
<!-- Node1&#45;&gt;Node32 -->
<g id="edge57" class="edge">
<title>Node1&#45;&gt;Node32</title>
<path fill="none" stroke="#191970" d="M1376.4364,-232.7644C1145.9865,-228.5157 431.7747,-213.3562 389.5,-188 372.4366,-177.7654 362.0022,-156.976 356.2737,-141.4499"/>
<polygon fill="#191970" stroke="#191970" points="359.5186,-140.1164 353.0359,-131.7363 352.8778,-142.3299 359.5186,-140.1164"/>
</g>
<!-- Node33 -->
<g id="node34" class="node">
<title>Node33</title>
<g id="a_node34"><a xlink:href="../../d7/dbe/VariantHelpers_8h.html" target="_top" xlink:title="Framework/VariantHelpers.h">
<polygon fill="none" stroke="#000000" points="1246,-168.5 1246,-187.5 1401,-187.5 1401,-168.5 1246,-168.5"/>
<text text-anchor="middle" x="1323.5" y="-175.5" font-family="Helvetica,sans-Serif" font-size="10.00" fill="#000000">Framework/VariantHelpers.h</text>
</a>
</g>
</g>
<!-- Node1&#45;&gt;Node33 -->
<g id="edge46" class="edge">
<title>Node1&#45;&gt;Node33</title>
<path fill="none" stroke="#191970" d="M1426.1836,-224.3733C1406.2784,-215.3838 1376.3564,-201.8706 1353.94,-191.7471"/>
<polygon fill="#191970" stroke="#191970" points="1355.0925,-188.4272 1344.5382,-187.5011 1352.2113,-194.8068 1355.0925,-188.4272"/>
</g>
<!-- Node34 -->
<g id="node35" class="node">
<title>Node34</title>
<polygon fill="none" stroke="#bfbfbf" points="1419.5,-168.5 1419.5,-187.5 1475.5,-187.5 1475.5,-168.5 1419.5,-168.5"/>
<text text-anchor="middle" x="1447.5" y="-175.5" font-family="Helvetica,sans-Serif" font-size="10.00" fill="#000000">sstream</text>
</g>
<!-- Node1&#45;&gt;Node34 -->
<g id="edge48" class="edge">
<title>Node1&#45;&gt;Node34</title>
<path fill="none" stroke="#191970" d="M1447.5,-224.2455C1447.5,-216.9382 1447.5,-206.6944 1447.5,-197.7046"/>
<polygon fill="#191970" stroke="#191970" points="1451.0001,-197.6426 1447.5,-187.6427 1444.0001,-197.6427 1451.0001,-197.6426"/>
</g>
<!-- Node1&#45;&gt;Node35 -->
<g id="edge49" class="edge">
<title>Node1&#45;&gt;Node35</title>
<path fill="none" stroke="#191970" d="M1474.3174,-224.3733C1500.0332,-215.1419 1539.038,-201.1402 1567.4599,-190.9375"/>
<polygon fill="#191970" stroke="#191970" points="1568.8032,-194.174 1577.0326,-187.5011 1566.4381,-187.5857 1568.8032,-194.174"/>
</g>
<!-- Node1&#45;&gt;Node36 -->
<g id="edge50" class="edge">
<title>Node1&#45;&gt;Node36</title>
<path fill="none" stroke="#191970" d="M1492.4125,-224.4369C1537.612,-214.8127 1607.3807,-199.957 1655.7847,-189.6504"/>
<polygon fill="#191970" stroke="#191970" points="1656.721,-193.0296 1665.7728,-187.5237 1655.2631,-186.1831 1656.721,-193.0296"/>
</g>
<!-- Node1&#45;&gt;Node37 -->
<g id="edge52" class="edge">
<title>Node1&#45;&gt;Node37</title>
<path fill="none" stroke="#191970" d="M1518.5397,-224.8698C1582.4091,-216.4566 1679.0388,-203.2242 1772.7952,-188.0596"/>
<polygon fill="#191970" stroke="#191970" points="1773.4284,-191.5027 1782.7367,-186.4425 1772.3045,-184.5935 1773.4284,-191.5027"/>
</g>
<!-- Node1&#45;&gt;Node38 -->
<g id="edge54" class="edge">
<title>Node1&#45;&gt;Node38</title>
<path fill="none" stroke="#191970" d="M1518.6232,-230.5597C1602.8252,-225.5673 1747.2807,-214.1137 1879.9098,-187.7582"/>
<polygon fill="#191970" stroke="#191970" points="1880.7347,-191.1624 1889.8436,-185.7515 1879.3485,-184.301 1880.7347,-191.1624"/>
</g>
<!-- Node3 -->
<g id="node4" class="node">
<title>Node3</title>
<g id="a_node4"><a xlink:href="../../dd/dce/Pack_8h.html" target="_top" xlink:title="Framework/Pack.h">
<polygon fill="none" stroke="#000000" points="751,-56.5 751,-75.5 856,-75.5 856,-56.5 751,-56.5"/>
<text text-anchor="middle" x="803.5" y="-63.5" font-family="Helvetica,sans-Serif" font-size="10.00" fill="#000000">Framework/Pack.h</text>
</a>
</g>
</g>
<!-- Node2&#45;&gt;Node3 -->
<g id="edge3" class="edge">
<title>Node2&#45;&gt;Node3</title>
<path fill="none" stroke="#191970" d="M1117.0319,-168.274C1099.2657,-153.7307 1063.4795,-126.4816 1028.5,-112 1013.5167,-105.7969 926.7037,-88.8995 865.4109,-77.406"/>
<polygon fill="#191970" stroke="#191970" points="865.9014,-73.9371 855.4284,-75.5395 864.6148,-80.8179 865.9014,-73.9371"/>
</g>
<!-- Node7 -->
<g id="node8" class="node">
<title>Node7</title>
<g id="a_node8"><a xlink:href="../../d1/d00/CheckTypes_8h.html" target="_top" xlink:title="Framework/CheckTypes.h">
<polygon fill="none" stroke="#000000" points="1020.5,-56.5 1020.5,-75.5 1160.5,-75.5 1160.5,-56.5 1020.5,-56.5"/>
<text text-anchor="middle" x="1090.5" y="-63.5" font-family="Helvetica,sans-Serif" font-size="10.00" fill="#000000">Framework/CheckTypes.h</text>
</a>
</g>
</g>
<!-- Node2&#45;&gt;Node7 -->
<g id="edge7" class="edge">
<title>Node2&#45;&gt;Node7</title>
<path fill="none" stroke="#191970" d="M1125.2601,-168.4509C1119.0063,-150.0186 1105.1658,-109.2254 1096.961,-85.043"/>
<polygon fill="#191970" stroke="#191970" points="1100.2591,-83.8701 1093.7317,-75.5249 1093.6303,-86.1192 1100.2591,-83.8701"/>
</g>
<!-- Node2&#45;&gt;Node8 -->
<g id="edge8" class="edge">
<title>Node2&#45;&gt;Node8</title>
<path fill="none" stroke="#191970" d="M1074.1496,-170.4476C1004.6128,-160.7849 883.6683,-143.9787 804.0975,-132.9217"/>
<polygon fill="#191970" stroke="#191970" points="804.5086,-129.4453 794.1221,-131.5356 803.5451,-136.3787 804.5086,-129.4453"/>
</g>
<!-- Node10 -->
<g id="node11" class="node">
<title>Node10</title>
<g id="a_node11"><a xlink:href="../../d9/de8/CompilerBuiltins_8h.html" target="_top" xlink:title="Framework/CompilerBuiltins.h">
<polygon fill="none" stroke="#000000" points="1750.5,-56.5 1750.5,-75.5 1914.5,-75.5 1914.5,-56.5 1750.5,-56.5"/>
<text text-anchor="middle" x="1832.5" y="-63.5" font-family="Helvetica,sans-Serif" font-size="10.00" fill="#000000">Framework/CompilerBuiltins.h</text>
</a>
</g>
</g>
<!-- Node2&#45;&gt;Node10 -->
<g id="edge11" class="edge">
<title>Node2&#45;&gt;Node10</title>
<path fill="none" stroke="#191970" d="M1177.3715,-168.4246C1213.6496,-160.5878 1263.9867,-148.166 1306.5,-132 1324.7077,-125.0764 1326.7918,-117.4277 1345.5,-112 1511.6606,-63.7932 1563.183,-92.4155 1740.0796,-75.9926"/>
<polygon fill="#191970" stroke="#191970" points="1740.6308,-79.4557 1750.2486,-75.012 1739.9588,-72.4881 1740.6308,-79.4557"/>
</g>
<!-- Node11 -->
<g id="node12" class="node">
<title>Node11</title>
<g id="a_node12"><a xlink:href="../../db/d31/Traits_8h.html" target="_top" xlink:title="Framework/Traits.h">
<polygon fill="none" stroke="#000000" points="428,-112.5 428,-131.5 537,-131.5 537,-112.5 428,-112.5"/>
<text text-anchor="middle" x="482.5" y="-119.5" font-family="Helvetica,sans-Serif" font-size="10.00" fill="#000000">Framework/Traits.h</text>
</a>
</g>
</g>
<!-- Node2&#45;&gt;Node11 -->
<g id="edge12" class="edge">
<title>Node2&#45;&gt;Node11</title>
<path fill="none" stroke="#191970" d="M1074.2566,-173.2978C955.8267,-163.0314 674.549,-138.6482 547.1674,-127.6058"/>
<polygon fill="#191970" stroke="#191970" points="547.4283,-124.1154 537.1633,-126.7386 546.8237,-131.0893 547.4283,-124.1154"/>
</g>
<!-- Node13 -->
<g id="node14" class="node">
<title>Node13</title>
<g id="a_node14"><a xlink:href="../../d0/d91/Expressions_8h.html" target="_top" xlink:title="Framework/Expressions.h">
<polygon fill="none" stroke="#000000" points="1157,-112.5 1157,-131.5 1298,-131.5 1298,-112.5 1157,-112.5"/>
<text text-anchor="middle" x="1227.5" y="-119.5" font-family="Helvetica,sans-Serif" font-size="10.00" fill="#000000">Framework/Expressions.h</text>
</a>
</g>
</g>
<!-- Node2&#45;&gt;Node13 -->
<g id="edge14" class="edge">
<title>Node2&#45;&gt;Node13</title>
<path fill="none" stroke="#191970" d="M1145.7445,-168.2455C1161.0761,-159.5731 1183.7199,-146.7645 1201.2916,-136.825"/>
<polygon fill="#191970" stroke="#191970" points="1203.4724,-139.6126 1210.4531,-131.6427 1200.0259,-133.5198 1203.4724,-139.6126"/>
</g>
<!-- Node2&#45;&gt;Node16 -->
<g id="edge34" class="edge">
<title>Node2&#45;&gt;Node16</title>
<path fill="none" stroke="#191970" d="M1182.6027,-172.8882C1199.8271,-171.2882 1218.9612,-169.5394 1236.5,-168 1429.3101,-151.0773 1479.4516,-163.0265 1670.5,-132 1707.5277,-125.9867 1715.9096,-120.2678 1752.5,-112 1784.2584,-104.824 1867.8922,-87.5847 1922.6824,-76.3684"/>
<polygon fill="#191970" stroke="#191970" points="1923.4628,-79.7814 1932.5583,-74.348 1922.0597,-72.9234 1923.4628,-79.7814"/>
</g>
<!-- Node17 -->
<g id="node18" class="node">
<title>Node17</title>
<polygon fill="none" stroke="#bfbfbf" points="1179,-56.5 1179,-75.5 1326,-75.5 1326,-56.5 1179,-56.5"/>
<text text-anchor="middle" x="1252.5" y="-63.5" font-family="Helvetica,sans-Serif" font-size="10.00" fill="#000000">gandiva/selection_vector.h</text>
</g>
<!-- Node2&#45;&gt;Node17 -->
<g id="edge39" class="edge">
<title>Node2&#45;&gt;Node17</title>
<path fill="none" stroke="#191970" d="M1128.7914,-168.2728C1129.7126,-154.2176 1133.3625,-128.1486 1147.5,-112 1161.2379,-96.3078 1181.3235,-85.7547 1200.2577,-78.7628"/>
<polygon fill="#191970" stroke="#191970" points="1201.397,-82.0723 1209.7198,-75.5163 1199.1252,-75.4512 1201.397,-82.0723"/>
</g>
<!-- Node23 -->
<g id="node24" class="node">
<title>Node23</title>
<g id="a_node24"><a xlink:href="../../d0/d92/Kernels_8h.html" target="_top" xlink:title="Framework/Kernels.h">
<polygon fill="none" stroke="#000000" points="829,-112.5 829,-131.5 948,-131.5 948,-112.5 829,-112.5"/>
<text text-anchor="middle" x="888.5" y="-119.5" font-family="Helvetica,sans-Serif" font-size="10.00" fill="#000000">Framework/Kernels.h</text>
</a>
</g>
</g>
<!-- Node2&#45;&gt;Node23 -->
<g id="edge27" class="edge">
<title>Node2&#45;&gt;Node23</title>
<path fill="none" stroke="#191970" d="M1087.5152,-168.4369C1046.5274,-158.8731 983.3996,-144.1432 939.2643,-133.845"/>
<polygon fill="#191970" stroke="#191970" points="939.8495,-130.3876 929.3157,-131.5237 938.2588,-137.2045 939.8495,-130.3876"/>
</g>
<!-- Node24 -->
<g id="node25" class="node">
<title>Node24</title>
<polygon fill="none" stroke="#bfbfbf" points="471,-56.5 471,-75.5 604,-75.5 604,-56.5 471,-56.5"/>
<text text-anchor="middle" x="537.5" y="-63.5" font-family="Helvetica,sans-Serif" font-size="10.00" fill="#000000">arrow/compute/kernel.h</text>
</g>
<!-- Node2&#45;&gt;Node24 -->
<g id="edge38" class="edge">
<title>Node2&#45;&gt;Node24</title>
<path fill="none" stroke="#191970" d="M1093.1303,-168.4404C1064.7806,-160.2523 1024.2946,-147.3657 990.5,-132 974.5406,-124.7436 973.1518,-117.484 956.5,-112 814.0384,-65.0822 767.7094,-92.7488 614.4663,-76.0448"/>
<polygon fill="#191970" stroke="#191970" points="614.5472,-72.5315 604.2157,-74.8791 613.7562,-79.4867 614.5472,-72.5315"/>
</g>
<!-- Node27 -->
<g id="node28" class="node">
<title>Node27</title>
<polygon fill="none" stroke="#bfbfbf" points="622.5,-56.5 622.5,-75.5 732.5,-75.5 732.5,-56.5 622.5,-56.5"/>
<text text-anchor="middle" x="677.5" y="-63.5" font-family="Helvetica,sans-Serif" font-size="10.00" fill="#000000">arrow/util/variant.h</text>
</g>
<!-- Node2&#45;&gt;Node27 -->
<g id="edge36" class="edge">
<title>Node2&#45;&gt;Node27</title>
<path fill="none" stroke="#191970" d="M1106.8858,-168.458C1086.5256,-159.3754 1055.2415,-145.1761 1028.5,-132 1011.3801,-123.5646 1008.6519,-117.8953 990.5,-112 887.1628,-78.4384 853.95,-91.8118 742.5915,-76.1075"/>
<polygon fill="#191970" stroke="#191970" points="743.0522,-72.6377 732.6519,-74.6584 742.0423,-79.5645 743.0522,-72.6377"/>
</g>
<!-- Node28 -->
<g id="node29" class="node">
<title>Node28</title>
<polygon fill="none" stroke="#bfbfbf" points="1424.5,-112.5 1424.5,-131.5 1504.5,-131.5 1504.5,-112.5 1424.5,-112.5"/>
<text text-anchor="middle" x="1464.5" y="-119.5" font-family="Helvetica,sans-Serif" font-size="10.00" fill="#000000">arrow/array.h</text>
</g>
<!-- Node2&#45;&gt;Node28 -->
<g id="edge35" class="edge">
<title>Node2&#45;&gt;Node28</title>
<path fill="none" stroke="#191970" d="M1182.5705,-170.0326C1238.2074,-161.6773 1327.634,-147.8126 1414.3979,-132.144"/>
<polygon fill="#191970" stroke="#191970" points="1415.2018,-135.5553 1424.4154,-130.3246 1413.9509,-128.668 1415.2018,-135.5553"/>
</g>
<!-- Node29 -->
<g id="node30" class="node">
<title>Node29</title>
<polygon fill="none" stroke="#bfbfbf" points="1523,-112.5 1523,-131.5 1662,-131.5 1662,-112.5 1523,-112.5"/>
<text text-anchor="middle" x="1592.5" y="-119.5" font-family="Helvetica,sans-Serif" font-size="10.00" fill="#000000">arrow/compute/context.h</text>
</g>
<!-- Node2&#45;&gt;Node29 -->
<g id="edge37" class="edge">
<title>Node2&#45;&gt;Node29</title>
<path fill="none" stroke="#191970" d="M1182.7095,-171.6441C1255.2852,-163.1079 1388.3267,-147.366 1512.6375,-132.0994"/>
<polygon fill="#191970" stroke="#191970" points="1513.2183,-135.5544 1522.7164,-130.8602 1512.3641,-128.6067 1513.2183,-135.5544"/>
</g>
<!-- Node30 -->
<g id="node31" class="node">
<title>Node30</title>
<polygon fill="none" stroke="#bfbfbf" points="1354.5,-112.5 1354.5,-131.5 1406.5,-131.5 1406.5,-112.5 1354.5,-112.5"/>
<text text-anchor="middle" x="1380.5" y="-119.5" font-family="Helvetica,sans-Serif" font-size="10.00" fill="#000000">cassert</text>
</g>
<!-- Node2&#45;&gt;Node30 -->
<g id="edge40" class="edge">
<title>Node2&#45;&gt;Node30</title>
<path fill="none" stroke="#191970" d="M1174.4969,-168.4533C1217.5018,-159.4249 1283.4688,-145.3128 1340.5,-132 1341.7547,-131.7071 1343.0308,-131.406 1344.3189,-131.0992"/>
<polygon fill="#191970" stroke="#191970" points="1345.3871,-134.4416 1354.2784,-128.6801 1343.7348,-127.6393 1345.3871,-134.4416"/>
</g>
<!-- Node4 -->
<g id="node5" class="node">
<title>Node4</title>
<polygon fill="none" stroke="#bfbfbf" points="710,-.5 710,-19.5 763,-19.5 763,-.5 710,-.5"/>
<text text-anchor="middle" x="736.5" y="-7.5" font-family="Helvetica,sans-Serif" font-size="10.00" fill="#000000">cstddef</text>
</g>
<!-- Node3&#45;&gt;Node4 -->
<g id="edge4" class="edge">
<title>Node3&#45;&gt;Node4</title>
<path fill="none" stroke="#191970" d="M791.8295,-56.2455C781.9339,-47.9746 767.5373,-35.9416 755.9099,-26.2232"/>
<polygon fill="#191970" stroke="#191970" points="757.9542,-23.3703 748.0368,-19.6427 753.465,-28.7413 757.9542,-23.3703"/>
</g>
<!-- Node5 -->
<g id="node6" class="node">
<title>Node5</title>
<polygon fill="none" stroke="#bfbfbf" points="781,-.5 781,-19.5 826,-19.5 826,-.5 781,-.5"/>
<text text-anchor="middle" x="803.5" y="-7.5" font-family="Helvetica,sans-Serif" font-size="10.00" fill="#000000">utility</text>
</g>
<!-- Node3&#45;&gt;Node5 -->
<g id="edge5" class="edge">
<title>Node3&#45;&gt;Node5</title>
<path fill="none" stroke="#191970" d="M803.5,-56.2455C803.5,-48.9382 803.5,-38.6944 803.5,-29.7046"/>
<polygon fill="#191970" stroke="#191970" points="807.0001,-29.6426 803.5,-19.6427 800.0001,-29.6427 807.0001,-29.6426"/>
</g>
<!-- Node6 -->
<g id="node7" class="node">
<title>Node6</title>
<polygon fill="none" stroke="#bfbfbf" points="844.5,-.5 844.5,-19.5 890.5,-19.5 890.5,-.5 844.5,-.5"/>
<text text-anchor="middle" x="867.5" y="-7.5" font-family="Helvetica,sans-Serif" font-size="10.00" fill="#000000">cstdio</text>
</g>
<!-- Node3&#45;&gt;Node6 -->
<g id="edge6" class="edge">
<title>Node3&#45;&gt;Node6</title>
<path fill="none" stroke="#191970" d="M814.6479,-56.2455C824.0087,-48.0549 837.5858,-36.1749 848.6349,-26.5069"/>
<polygon fill="#191970" stroke="#191970" points="851.2588,-28.8618 856.4798,-19.6427 846.6492,-23.5937 851.2588,-28.8618"/>
</g>
<!-- Node8&#45;&gt;Node3 -->
<g id="edge9" class="edge">
<title>Node8&#45;&gt;Node3</title>
<path fill="none" stroke="#191970" d="M739.0866,-112.2455C750.8305,-103.814 768.0199,-91.4729 781.6882,-81.6598"/>
<polygon fill="#191970" stroke="#191970" points="783.9871,-84.3179 790.0691,-75.6427 779.9046,-78.6316 783.9871,-84.3179"/>
</g>
<!-- Node8&#45;&gt;Node9 -->
<g id="edge10" class="edge">
<title>Node8&#45;&gt;Node9</title>
<path fill="none" stroke="#191970" d="M640.4041,-115.779C501.8357,-105.5471 236.2461,-85.4784 162.5513,-75.8001"/>
<polygon fill="#191970" stroke="#191970" points="162.8174,-72.3024 152.4202,-74.3391 161.8182,-79.2307 162.8174,-72.3024"/>
</g>
<!-- Node12 -->
<g id="node13" class="node">
<title>Node12</title>
<polygon fill="none" stroke="#bfbfbf" points="0,-56.5 0,-75.5 69,-75.5 69,-56.5 0,-56.5"/>
<text text-anchor="middle" x="34.5" y="-63.5" font-family="Helvetica,sans-Serif" font-size="10.00" fill="#000000">type_traits</text>
</g>
<!-- Node11&#45;&gt;Node12 -->
<g id="edge13" class="edge">
<title>Node11&#45;&gt;Node12</title>
<path fill="none" stroke="#191970" d="M427.9122,-113.8975C423.0417,-113.2325 418.1837,-112.5901 413.5,-112 267.6914,-93.6294 227.3058,-100.7321 79.082,-76.1107"/>
<polygon fill="#191970" stroke="#191970" points="79.6025,-72.6492 69.1606,-74.4425 78.4417,-79.5523 79.6025,-72.6492"/>
</g>
<!-- Node13&#45;&gt;Node3 -->
<g id="edge17" class="edge">
<title>Node13&#45;&gt;Node3</title>
<path fill="none" stroke="#191970" d="M1156.9927,-113.7497C1086.1809,-105.3026 973.6762,-91.4447 866.2879,-76.0747"/>
<polygon fill="#191970" stroke="#191970" points="866.6432,-72.5898 856.2468,-74.6309 865.6468,-79.5186 866.6432,-72.5898"/>
</g>
<!-- Node13&#45;&gt;Node7 -->
<g id="edge18" class="edge">
<title>Node13&#45;&gt;Node7</title>
<path fill="none" stroke="#191970" d="M1203.9489,-112.3733C1181.6609,-103.2629 1148.0063,-89.5062 1123.1363,-79.3404"/>
<polygon fill="#191970" stroke="#191970" points="1124.3247,-76.0451 1113.7438,-75.5011 1121.6761,-82.5247 1124.3247,-76.0451"/>
</g>
<!-- Node13&#45;&gt;Node10 -->
<g id="edge16" class="edge">
<title>Node13&#45;&gt;Node10</title>
<path fill="none" stroke="#191970" d="M1298.442,-113.4755C1303.1976,-112.9591 1307.917,-112.4622 1312.5,-112 1499.1846,-93.1726 1548.8027,-94.2711 1740.1411,-76.0107"/>
<polygon fill="#191970" stroke="#191970" points="1740.6315,-79.4798 1750.2514,-75.0404 1739.9628,-72.5118 1740.6315,-79.4798"/>
</g>
<!-- Node14 -->
<g id="node15" class="node">
<title>Node14</title>
<g id="a_node15"><a xlink:href="../../dd/dc2/BasicOps_8h.html" target="_top" xlink:title="Framework/BasicOps.h">
<polygon fill="none" stroke="#000000" points="874.5,-56.5 874.5,-75.5 1002.5,-75.5 1002.5,-56.5 874.5,-56.5"/>
<text text-anchor="middle" x="938.5" y="-63.5" font-family="Helvetica,sans-Serif" font-size="10.00" fill="#000000">Framework/BasicOps.h</text>
</a>
</g>
</g>
<!-- Node13&#45;&gt;Node14 -->
<g id="edge15" class="edge">
<title>Node13&#45;&gt;Node14</title>
<path fill="none" stroke="#191970" d="M1178.1475,-112.4369C1128.1678,-102.7522 1050.8502,-87.7703 997.6258,-77.4569"/>
<polygon fill="#191970" stroke="#191970" points="998.1322,-73.99 987.6489,-75.5237 996.8005,-80.8622 998.1322,-73.99"/>
</g>
<!-- Node15 -->
<g id="node16" class="node">
<title>Node15</title>
<polygon fill="none" stroke="#bfbfbf" points="1344,-56.5 1344,-75.5 1445,-75.5 1445,-56.5 1344,-56.5"/>
<text text-anchor="middle" x="1394.5" y="-63.5" font-family="Helvetica,sans-Serif" font-size="10.00" fill="#000000">arrow/type_fwd.h</text>
</g>
<!-- Node13&#45;&gt;Node15 -->
<g id="edge19" class="edge">
<title>Node13&#45;&gt;Node15</title>
<path fill="none" stroke="#191970" d="M1256.2083,-112.3733C1283.8577,-103.1016 1325.8576,-89.0178 1356.3166,-78.804"/>
<polygon fill="#191970" stroke="#191970" points="1357.7979,-81.9989 1366.1663,-75.5011 1355.5724,-75.3621 1357.7979,-81.9989"/>
</g>
<!-- Node13&#45;&gt;Node16 -->
<g id="edge20" class="edge">
<title>Node13&#45;&gt;Node16</title>
<path fill="none" stroke="#191970" d="M1298.3009,-115.741C1313.8462,-114.4391 1330.2244,-113.1228 1345.5,-112 1598.9353,-93.3711 1666.5699,-108.9097 1922.9334,-75.8917"/>
<polygon fill="#191970" stroke="#191970" points="1923.4519,-79.3538 1932.9172,-74.5937 1922.5494,-72.4122 1923.4519,-79.3538"/>
</g>
<!-- Node13&#45;&gt;Node17 -->
<g id="edge21" class="edge">
<title>Node13&#45;&gt;Node17</title>
<path fill="none" stroke="#191970" d="M1231.8547,-112.2455C1235.2244,-104.6973 1239.993,-94.0158 1244.0983,-84.8197"/>
<polygon fill="#191970" stroke="#191970" points="1247.3147,-86.2009 1248.1952,-75.6427 1240.9227,-83.3473 1247.3147,-86.2009"/>
</g>
<!-- Node18 -->
<g id="node19" class="node">
<title>Node18</title>
<polygon fill="none" stroke="#bfbfbf" points="1463.5,-56.5 1463.5,-75.5 1555.5,-75.5 1555.5,-56.5 1463.5,-56.5"/>
<text text-anchor="middle" x="1509.5" y="-63.5" font-family="Helvetica,sans-Serif" font-size="10.00" fill="#000000">gandiva/node.h</text>
</g>
<!-- Node13&#45;&gt;Node18 -->
<g id="edge22" class="edge">
<title>Node13&#45;&gt;Node18</title>
<path fill="none" stroke="#191970" d="M1275.6571,-112.4369C1324.9147,-102.6552 1401.3852,-87.4696 1453.3599,-77.1484"/>
<polygon fill="#191970" stroke="#191970" points="1454.2862,-80.5329 1463.413,-75.152 1452.9227,-73.6669 1454.2862,-80.5329"/>
</g>
<!-- Node19 -->
<g id="node20" class="node">
<title>Node19</title>
<polygon fill="none" stroke="#bfbfbf" points="1574,-56.5 1574,-75.5 1663,-75.5 1663,-56.5 1574,-56.5"/>
<text text-anchor="middle" x="1618.5" y="-63.5" font-family="Helvetica,sans-Serif" font-size="10.00" fill="#000000">gandiva/filter.h</text>
</g>
<!-- Node13&#45;&gt;Node19 -->
<g id="edge23" class="edge">
<title>Node13&#45;&gt;Node19</title>
<path fill="none" stroke="#191970" d="M1298.3236,-113.3251C1364.3497,-105.0114 1465.8108,-91.6602 1563.671,-76.072"/>
<polygon fill="#191970" stroke="#191970" points="1564.4193,-79.4968 1573.7393,-74.4581 1563.3113,-72.585 1564.4193,-79.4968"/>
</g>
<!-- Node20 -->
<g id="node21" class="node">
<title>Node20</title>
<polygon fill="none" stroke="#bfbfbf" points="1681,-56.5 1681,-75.5 1732,-75.5 1732,-56.5 1681,-56.5"/>
<text text-anchor="middle" x="1706.5" y="-63.5" font-family="Helvetica,sans-Serif" font-size="10.00" fill="#000000">variant</text>
</g>
<!-- Node13&#45;&gt;Node20 -->
<g id="edge24" class="edge">
<title>Node13&#45;&gt;Node20</title>
<path fill="none" stroke="#191970" d="M1298.4509,-113.5606C1303.2044,-113.0236 1307.9209,-112.4989 1312.5,-112 1468.6432,-94.9875 1512.2277,-105.6862 1670.534,-75.8742"/>
<polygon fill="#191970" stroke="#191970" points="1671.4636,-79.26 1680.6304,-73.9478 1670.1516,-72.3841 1671.4636,-79.26"/>
</g>
<!-- Node13&#45;&gt;Node21 -->
<g id="edge25" class="edge">
<title>Node13&#45;&gt;Node21</title>
<path fill="none" stroke="#191970" d="M1156.6861,-119.2726C944.7536,-111.0446 324.4349,-86.4636 224.7053,-75.3185"/>
<polygon fill="#191970" stroke="#191970" points="225.0547,-71.8336 214.6699,-73.9329 224.0972,-78.7678 225.0547,-71.8336"/>
</g>
<!-- Node13&#45;&gt;Node22 -->
<g id="edge26" class="edge">
<title>Node13&#45;&gt;Node22</title>
<path fill="none" stroke="#191970" d="M1298.2934,-115.6355C1313.8391,-114.3399 1330.2194,-113.0529 1345.5,-112 1643.1631,-91.4897 1723.57,-121.9424 2021.9163,-75.9494"/>
<polygon fill="#191970" stroke="#191970" points="2022.8251,-79.3501 2032.1672,-74.3524 2021.7476,-72.4335 2022.8251,-79.3501"/>
</g>
<!-- Node23&#45;&gt;Node14 -->
<g id="edge28" class="edge">
<title>Node23&#45;&gt;Node14</title>
<path fill="none" stroke="#191970" d="M897.2093,-112.2455C904.3073,-104.2958 914.5084,-92.8706 922.995,-83.3656"/>
<polygon fill="#191970" stroke="#191970" points="925.8411,-85.4331 929.8905,-75.6427 920.6195,-80.771 925.8411,-85.4331"/>
</g>
<!-- Node23&#45;&gt;Node21 -->
<g id="edge33" class="edge">
<title>Node23&#45;&gt;Node21</title>
<path fill="none" stroke="#191970" d="M828.6988,-113.0211C825.5907,-112.6521 822.5103,-112.3085 819.5,-112 558.8625,-85.2888 486.1249,-124.1141 224.8505,-75.8001"/>
<polygon fill="#191970" stroke="#191970" points="225.151,-72.2956 214.6773,-73.8928 223.8611,-79.1757 225.151,-72.2956"/>
</g>
<!-- Node23&#45;&gt;Node24 -->
<g id="edge29" class="edge">
<title>Node23&#45;&gt;Node24</title>
<path fill="none" stroke="#191970" d="M828.9576,-112.5004C767.6907,-102.7256 672.2974,-87.5061 607.467,-77.1628"/>
<polygon fill="#191970" stroke="#191970" points="607.761,-73.6655 597.3345,-75.5462 606.6581,-80.5781 607.761,-73.6655"/>
</g>
<!-- Node25 -->
<g id="node26" class="node">
<title>Node25</title>
<polygon fill="none" stroke="#bfbfbf" points="232.5,-56.5 232.5,-75.5 318.5,-75.5 318.5,-56.5 232.5,-56.5"/>
<text text-anchor="middle" x="275.5" y="-63.5" font-family="Helvetica,sans-Serif" font-size="10.00" fill="#000000">arrow/status.h</text>
</g>
<!-- Node23&#45;&gt;Node25 -->
<g id="edge30" class="edge">
<title>Node23&#45;&gt;Node25</title>
<path fill="none" stroke="#191970" d="M828.6939,-113.0678C825.5871,-112.6866 822.5083,-112.3276 819.5,-112 604.8369,-88.6209 546.6107,-104.2617 328.7274,-76.0179"/>
<polygon fill="#191970" stroke="#191970" points="328.9375,-72.5155 318.567,-74.6842 328.0264,-79.456 328.9375,-72.5155"/>
</g>
<!-- Node26 -->
<g id="node27" class="node">
<title>Node26</title>
<polygon fill="none" stroke="#bfbfbf" points="336.5,-56.5 336.5,-75.5 452.5,-75.5 452.5,-56.5 336.5,-56.5"/>
<text text-anchor="middle" x="394.5" y="-63.5" font-family="Helvetica,sans-Serif" font-size="10.00" fill="#000000">arrow/util/visibility.h</text>
</g>
<!-- Node23&#45;&gt;Node26 -->
<g id="edge31" class="edge">
<title>Node23&#45;&gt;Node26</title>
<path fill="none" stroke="#191970" d="M828.6823,-113.1676C825.5785,-112.7604 822.5036,-112.3685 819.5,-112 664.0315,-92.9266 621.8966,-95.6838 462.7345,-76.1026"/>
<polygon fill="#191970" stroke="#191970" points="462.9362,-72.6009 452.5813,-74.8429 462.0742,-79.5476 462.9362,-72.6009"/>
</g>
<!-- Node23&#45;&gt;Node27 -->
<g id="edge32" class="edge">
<title>Node23&#45;&gt;Node27</title>
<path fill="none" stroke="#191970" d="M852.2278,-112.3733C816.5342,-102.9001 761.9121,-88.4032 723.2549,-78.1435"/>
<polygon fill="#191970" stroke="#191970" points="723.8621,-74.6835 713.2989,-75.5011 722.0664,-81.4493 723.8621,-74.6835"/>
</g>
<!-- Node31&#45;&gt;Node11 -->
<g id="edge42" class="edge">
<title>Node31&#45;&gt;Node11</title>
<path fill="none" stroke="#191970" d="M474.2419,-168.2455C475.5467,-160.9382 477.376,-150.6944 478.9813,-141.7046"/>
<polygon fill="#191970" stroke="#191970" points="482.4656,-142.1022 480.7781,-131.6427 475.5746,-140.8717 482.4656,-142.1022"/>
</g>
<!-- Node31&#45;&gt;Node12 -->
<g id="edge44" class="edge">
<title>Node31&#45;&gt;Node12</title>
<path fill="none" stroke="#191970" d="M462.635,-168.3839C446.6641,-153.4659 413.4914,-125.1027 379.5,-112 256.4528,-64.5689 212.7777,-97.6388 79.3547,-76.1263"/>
<polygon fill="#191970" stroke="#191970" points="79.6098,-72.6199 69.1667,-74.4066 78.4447,-79.5223 79.6098,-72.6199"/>
</g>
<!-- Node31&#45;&gt;Node32 -->
<g id="edge43" class="edge">
<title>Node31&#45;&gt;Node32</title>
<path fill="none" stroke="#191970" d="M451.5275,-168.3733C431.9433,-159.3838 402.5039,-145.8706 380.449,-135.7471"/>
<polygon fill="#191970" stroke="#191970" points="381.7473,-132.4919 371.1989,-131.5011 378.8271,-138.8538 381.7473,-132.4919"/>
</g>
<!-- Node33&#45;&gt;Node10 -->
<g id="edge47" class="edge">
<title>Node33&#45;&gt;Node10</title>
<path fill="none" stroke="#191970" d="M1401.264,-168.7547C1495.5589,-157.3778 1645.0958,-138.74 1670.5,-132 1719.1818,-119.0842 1772.777,-95.2039 1804.4887,-79.9859"/>
<polygon fill="#191970" stroke="#191970" points="1806.1311,-83.0792 1813.5981,-75.5628 1803.0736,-76.7822 1806.1311,-83.0792"/>
</g>
</g>
</svg>
