<?xml version="1.0" encoding="UTF-8" standalone="no"?>
<!DOCTYPE svg PUBLIC "-//W3C//DTD SVG 1.1//EN"
 "http://www.w3.org/Graphics/SVG/1.1/DTD/svg11.dtd">
<!-- Generated by graphviz version 2.40.1 (20161225.0304)
 -->
<!-- Title: /home/travis/build/AliceO2Group/AliceO2/DataFormats/Detectors/TPC/include/DataFormatsTPC/TrackTPC.h Pages: 1 -->
<!--zoomable 361 -->
<svg id="main" version="1.1" xmlns="http://www.w3.org/2000/svg" xmlns:xlink="http://www.w3.org/1999/xlink" xml:space="preserve" onload="init(evt)">
<style type="text/css"><![CDATA[
.edge:hover path { stroke: red; }
.edge:hover polygon { stroke: red; fill: red; }
]]></style>
<script type="text/javascript"><![CDATA[
var edges = document.getElementsByTagName('g');
if (edges && edges.length) {
  for (var i=0;i<edges.length;i++) {
    if (edges[i].id.substr(0,4)=='edge') {
      edges[i].setAttribute('class','edge');
    }
  }
}
]]></script>
        <defs>
                <circle id="rim" cx="0" cy="0" r="7"/>
                <circle id="rim2" cx="0" cy="0" r="3.5"/>
                <g id="zoomPlus">
                        <use xlink:href="#rim" fill="#404040">
                                <set attributeName="fill" to="#808080" begin="zoomplus.mouseover" end="zoomplus.mouseout"/>
                        </use>
                        <path d="M-4,0h8M0,-4v8" fill="none" stroke="white" stroke-width="1.5" pointer-events="none"/>
                </g>
                <g id="zoomMin">
                        <use xlink:href="#rim" fill="#404040">
                                <set attributeName="fill" to="#808080" begin="zoomminus.mouseover" end="zoomminus.mouseout"/>
                        </use>
                        <path d="M-4,0h8" fill="none" stroke="white" stroke-width="1.5" pointer-events="none"/>
                </g>
                <g id="dirArrow">
                        <path fill="none" stroke="white" stroke-width="1.5" d="M0,-3.0v7 M-2.5,-0.5L0,-3.0L2.5,-0.5"/>
                </g>
               <g id="resetDef">
                       <use xlink:href="#rim2" fill="#404040">
                               <set attributeName="fill" to="#808080" begin="reset.mouseover" end="reset.mouseout"/>
                       </use>
               </g>
        </defs>

<script type="text/javascript">
var viewWidth = 2437;
var viewHeight = 361;
var sectionId = 'dynsection-1';
</script>
<script xlink:href="../../svgpan.js"/>
<svg id="graph" class="graph">
<g id="viewport">
<title>/home/travis/build/AliceO2Group/AliceO2/DataFormats/Detectors/TPC/include/DataFormatsTPC/TrackTPC.h</title>
<!-- Node49 -->
<g id="node1" class="node">
<title>Node49</title>
<polygon fill="#bfbfbf" stroke="#000000" points="1219,-289.5 1219,-352.5 1380,-352.5 1380,-289.5 1219,-289.5"/>
<text text-anchor="start" x="1227" y="-340.5" font-family="Helvetica,sans-Serif" font-size="10.00" fill="#000000">/home/travis/build</text>
<text text-anchor="start" x="1227" y="-329.5" font-family="Helvetica,sans-Serif" font-size="10.00" fill="#000000">/AliceO2Group/AliceO2</text>
<text text-anchor="start" x="1227" y="-318.5" font-family="Helvetica,sans-Serif" font-size="10.00" fill="#000000">/DataFormats/Detectors</text>
<text text-anchor="start" x="1227" y="-307.5" font-family="Helvetica,sans-Serif" font-size="10.00" fill="#000000">/TPC/include/DataFormatsTPC</text>
<text text-anchor="middle" x="1299.5" y="-296.5" font-family="Helvetica,sans-Serif" font-size="10.00" fill="#000000">/TrackTPC.h</text>
</g>
<!-- Node50 -->
<g id="node2" class="node">
<title>Node50</title>
<g id="a_node2"><a xlink:href="../../d6/da8/TrackTPC_8cxx.html" target="_top" xlink:title="Implementation of the TPC track. ">
<polygon fill="none" stroke="#000000" points="146,-195 146,-247 279,-247 279,-195 146,-195"/>
<text text-anchor="start" x="154" y="-235" font-family="Helvetica,sans-Serif" font-size="10.00" fill="#000000">/home/travis/build</text>
<text text-anchor="start" x="154" y="-224" font-family="Helvetica,sans-Serif" font-size="10.00" fill="#000000">/AliceO2Group/AliceO2</text>
<text text-anchor="start" x="154" y="-213" font-family="Helvetica,sans-Serif" font-size="10.00" fill="#000000">/DataFormats/Detectors</text>
<text text-anchor="middle" x="212.5" y="-202" font-family="Helvetica,sans-Serif" font-size="10.00" fill="#000000">/TPC/src/TrackTPC.cxx</text>
</a>
</g>
</g>
<!-- Node49&#45;&gt;Node50 -->
<g id="edge1" class="edge">
<title>Node49&#45;&gt;Node50</title>
<path fill="none" stroke="#191970" d="M1208.5012,-318.4355C994.8836,-311.8367 466.3393,-291.9892 293.5,-253 286.5677,-251.4362 279.4507,-249.368 272.4503,-247.0333"/>
<polygon fill="#191970" stroke="#191970" points="1208.6377,-321.9412 1218.7402,-318.7491 1208.8521,-314.9445 1208.6377,-321.9412"/>
</g>
<!-- Node51 -->
<g id="node3" class="node">
<title>Node51</title>
<g id="a_node3"><a xlink:href="../../d0/d74/MatchTOF_8h.html" target="_top" xlink:title="Class to perform TOF matching to global tracks. ">
<polygon fill="none" stroke="#000000" points="10.5,-95 10.5,-147 198.5,-147 198.5,-95 10.5,-95"/>
<text text-anchor="start" x="18.5" y="-135" font-family="Helvetica,sans-Serif" font-size="10.00" fill="#000000">/home/travis/build</text>
<text text-anchor="start" x="18.5" y="-124" font-family="Helvetica,sans-Serif" font-size="10.00" fill="#000000">/AliceO2Group/AliceO2</text>
<text text-anchor="start" x="18.5" y="-113" font-family="Helvetica,sans-Serif" font-size="10.00" fill="#000000">/Detectors/GlobalTracking</text>
<text text-anchor="middle" x="104.5" y="-102" font-family="Helvetica,sans-Serif" font-size="10.00" fill="#000000">/include/GlobalTracking/MatchTOF.h</text>
</a>
</g>
</g>
<!-- Node49&#45;&gt;Node51 -->
<g id="edge2" class="edge">
<title>Node49&#45;&gt;Node51</title>
<path fill="none" stroke="#191970" d="M1208.5993,-319.3656C981.2252,-314.615 400.7177,-298.1611 326.5,-253 298.0444,-235.6849 313.1975,-210.1936 287.5,-189 278.6261,-181.6814 227.7056,-163.0036 181.8262,-147.0715"/>
<polygon fill="#191970" stroke="#191970" points="1208.7597,-322.8695 1218.8297,-319.5764 1208.9039,-315.871 1208.7597,-322.8695"/>
</g>
<!-- Node54 -->
<g id="node6" class="node">
<title>Node54</title>
<g id="a_node6"><a xlink:href="../../d3/dac/MatchTPCITS_8h.html" target="_top" xlink:title="Class to perform TPC ITS matching. ">
<polygon fill="none" stroke="#000000" points="336,-195 336,-247 541,-247 541,-195 336,-195"/>
<text text-anchor="start" x="344" y="-235" font-family="Helvetica,sans-Serif" font-size="10.00" fill="#000000">/home/travis/build</text>
<text text-anchor="start" x="344" y="-224" font-family="Helvetica,sans-Serif" font-size="10.00" fill="#000000">/AliceO2Group/AliceO2</text>
<text text-anchor="start" x="344" y="-213" font-family="Helvetica,sans-Serif" font-size="10.00" fill="#000000">/Detectors/GlobalTracking</text>
<text text-anchor="middle" x="438.5" y="-202" font-family="Helvetica,sans-Serif" font-size="10.00" fill="#000000">/include/GlobalTracking/MatchTPCITS.h</text>
</a>
</g>
</g>
<!-- Node49&#45;&gt;Node54 -->
<g id="edge5" class="edge">
<title>Node49&#45;&gt;Node54</title>
<path fill="none" stroke="#191970" d="M1208.6663,-314.8685C1075.47,-305.2569 819.537,-284.4313 603.5,-253 583.2871,-250.0592 561.7914,-246.3341 541.2257,-242.4735"/>
<polygon fill="#191970" stroke="#191970" points="1208.5989,-318.3726 1218.8236,-315.5969 1209.0996,-311.3905 1208.5989,-318.3726"/>
</g>
<!-- Node58 -->
<g id="node10" class="node">
<title>Node58</title>
<g id="a_node10"><a xlink:href="../../d6/d73/TPCITSMatchingSpec_8cxx.html" target="_top" xlink:title="/home/travis/build\l/AliceO2Group/AliceO2\l/Detectors/GlobalTrackingWorkflow\l/src/TPCITSMatchingSpec.cxx">
<polygon fill="none" stroke="#000000" points="675,-.5 675,-52.5 862,-52.5 862,-.5 675,-.5"/>
<text text-anchor="start" x="683" y="-40.5" font-family="Helvetica,sans-Serif" font-size="10.00" fill="#000000">/home/travis/build</text>
<text text-anchor="start" x="683" y="-29.5" font-family="Helvetica,sans-Serif" font-size="10.00" fill="#000000">/AliceO2Group/AliceO2</text>
<text text-anchor="start" x="683" y="-18.5" font-family="Helvetica,sans-Serif" font-size="10.00" fill="#000000">/Detectors/GlobalTrackingWorkflow</text>
<text text-anchor="middle" x="768.5" y="-7.5" font-family="Helvetica,sans-Serif" font-size="10.00" fill="#000000">/src/TPCITSMatchingSpec.cxx</text>
</a>
</g>
</g>
<!-- Node49&#45;&gt;Node58 -->
<g id="edge12" class="edge">
<title>Node49&#45;&gt;Node58</title>
<path fill="none" stroke="#191970" d="M1208.7746,-312.9428C1083.4929,-300.9983 869.8917,-277.3689 843.5,-253 788.5297,-202.2429 833.3289,-158.452 805.5,-89 800.4817,-76.4758 793.1945,-63.5024 786.4118,-52.6433"/>
<polygon fill="#191970" stroke="#191970" points="1208.4678,-316.4293 1218.7531,-313.8873 1209.1275,-309.4605 1208.4678,-316.4293"/>
</g>
<!-- Node59 -->
<g id="node11" class="node">
<title>Node59</title>
<g id="a_node11"><a xlink:href="../../dc/d42/CalibPadGainTracks_8h.html" target="_top" xlink:title="/home/travis/build\l/AliceO2Group/AliceO2\l/Detectors/TPC/calibration\l/include/TPCCalibration/CalibPad\lGainTracks.h">
<polygon fill="none" stroke="#000000" points="853,-189.5 853,-252.5 1028,-252.5 1028,-189.5 853,-189.5"/>
<text text-anchor="start" x="861" y="-240.5" font-family="Helvetica,sans-Serif" font-size="10.00" fill="#000000">/home/travis/build</text>
<text text-anchor="start" x="861" y="-229.5" font-family="Helvetica,sans-Serif" font-size="10.00" fill="#000000">/AliceO2Group/AliceO2</text>
<text text-anchor="start" x="861" y="-218.5" font-family="Helvetica,sans-Serif" font-size="10.00" fill="#000000">/Detectors/TPC/calibration</text>
<text text-anchor="start" x="861" y="-207.5" font-family="Helvetica,sans-Serif" font-size="10.00" fill="#000000">/include/TPCCalibration/CalibPad</text>
<text text-anchor="middle" x="940.5" y="-196.5" font-family="Helvetica,sans-Serif" font-size="10.00" fill="#000000">GainTracks.h</text>
</a>
</g>
</g>
<!-- Node49&#45;&gt;Node59 -->
<g id="edge13" class="edge">
<title>Node49&#45;&gt;Node59</title>
<path fill="none" stroke="#191970" d="M1208.8334,-299.191C1157.9437,-286.5418 1093.4225,-269.8243 1036.5,-253 1033.7201,-252.1784 1030.8998,-251.3297 1028.0558,-250.4609"/>
<polygon fill="#191970" stroke="#191970" points="1208.275,-302.6584 1218.8232,-301.6654 1209.9581,-295.8637 1208.275,-302.6584"/>
</g>
<!-- Node61 -->
<g id="node13" class="node">
<title>Node61</title>
<g id="a_node13"><a xlink:href="../../d3/d0c/TrackInterpolation_8h.html" target="_top" xlink:title="Definition of the TrackInterpolation class. ">
<polygon fill="none" stroke="#000000" points="1046,-189.5 1046,-252.5 1225,-252.5 1225,-189.5 1046,-189.5"/>
<text text-anchor="start" x="1054" y="-240.5" font-family="Helvetica,sans-Serif" font-size="10.00" fill="#000000">/home/travis/build</text>
<text text-anchor="start" x="1054" y="-229.5" font-family="Helvetica,sans-Serif" font-size="10.00" fill="#000000">/AliceO2Group/AliceO2</text>
<text text-anchor="start" x="1054" y="-218.5" font-family="Helvetica,sans-Serif" font-size="10.00" fill="#000000">/Detectors/TPC/calibration</text>
<text text-anchor="start" x="1054" y="-207.5" font-family="Helvetica,sans-Serif" font-size="10.00" fill="#000000">/SpacePoints/include/SpacePoints</text>
<text text-anchor="middle" x="1135.5" y="-196.5" font-family="Helvetica,sans-Serif" font-size="10.00" fill="#000000">/TrackInterpolation.h</text>
</a>
</g>
</g>
<!-- Node49&#45;&gt;Node61 -->
<g id="edge15" class="edge">
<title>Node49&#45;&gt;Node61</title>
<path fill="none" stroke="#191970" d="M1238.8898,-284.0425C1221.9552,-273.7166 1203.712,-262.5927 1187.3343,-252.6063"/>
<polygon fill="#191970" stroke="#191970" points="1237.2493,-287.1415 1247.6094,-289.3594 1240.8935,-281.165 1237.2493,-287.1415"/>
</g>
<!-- Node64 -->
<g id="node16" class="node">
<title>Node64</title>
<g id="a_node16"><a xlink:href="../../d4/d15/TrackInterpolation_8cxx.html" target="_top" xlink:title="Implementation of the TrackInterpolation class. ">
<polygon fill="none" stroke="#000000" points="1226,-95 1226,-147 1433,-147 1433,-95 1226,-95"/>
<text text-anchor="start" x="1234" y="-135" font-family="Helvetica,sans-Serif" font-size="10.00" fill="#000000">/home/travis/build</text>
<text text-anchor="start" x="1234" y="-124" font-family="Helvetica,sans-Serif" font-size="10.00" fill="#000000">/AliceO2Group/AliceO2</text>
<text text-anchor="start" x="1234" y="-113" font-family="Helvetica,sans-Serif" font-size="10.00" fill="#000000">/Detectors/TPC/calibration</text>
<text text-anchor="middle" x="1329.5" y="-102" font-family="Helvetica,sans-Serif" font-size="10.00" fill="#000000">/SpacePoints/src/TrackInterpolation.cxx</text>
</a>
</g>
</g>
<!-- Node49&#45;&gt;Node64 -->
<g id="edge19" class="edge">
<title>Node49&#45;&gt;Node64</title>
<path fill="none" stroke="#191970" d="M1279.7576,-279.9937C1269.7443,-253.4936 1261.7484,-218.5631 1272.5,-189 1278.1862,-173.365 1289.2194,-158.8195 1300.0761,-147.2269"/>
<polygon fill="#191970" stroke="#191970" points="1276.5383,-281.3695 1283.507,-289.3499 1283.0359,-278.7655 1276.5383,-281.3695"/>
</g>
<!-- Node65 -->
<g id="node17" class="node">
<title>Node65</title>
<g id="a_node17"><a xlink:href="../../d2/d14/Detectors_2TPC_2qc_2src_2PID_8cxx.html" target="_top" xlink:title="/home/travis/build\l/AliceO2Group/AliceO2\l/Detectors/TPC/qc/src\l/PID.cxx">
<polygon fill="none" stroke="#000000" points="1282,-195 1282,-247 1409,-247 1409,-195 1282,-195"/>
<text text-anchor="start" x="1290" y="-235" font-family="Helvetica,sans-Serif" font-size="10.00" fill="#000000">/home/travis/build</text>
<text text-anchor="start" x="1290" y="-224" font-family="Helvetica,sans-Serif" font-size="10.00" fill="#000000">/AliceO2Group/AliceO2</text>
<text text-anchor="start" x="1290" y="-213" font-family="Helvetica,sans-Serif" font-size="10.00" fill="#000000">/Detectors/TPC/qc/src</text>
<text text-anchor="middle" x="1345.5" y="-202" font-family="Helvetica,sans-Serif" font-size="10.00" fill="#000000">/PID.cxx</text>
</a>
</g>
</g>
<!-- Node49&#45;&gt;Node65 -->
<g id="edge20" class="edge">
<title>Node49&#45;&gt;Node65</title>
<path fill="none" stroke="#191970" d="M1318.2815,-280.1707C1323.4231,-268.9933 1328.8559,-257.1829 1333.5041,-247.078"/>
<polygon fill="#191970" stroke="#191970" points="1315.0541,-278.8118 1314.0547,-289.3594 1321.4135,-281.7372 1315.0541,-278.8118"/>
</g>
<!-- Node66 -->
<g id="node18" class="node">
<title>Node66</title>
<g id="a_node18"><a xlink:href="../../d2/d68/TrackCuts_8cxx.html" target="_top" xlink:title="/home/travis/build\l/AliceO2Group/AliceO2\l/Detectors/TPC/qc/src\l/TrackCuts.cxx">
<polygon fill="none" stroke="#000000" points="1427,-195 1427,-247 1554,-247 1554,-195 1427,-195"/>
<text text-anchor="start" x="1435" y="-235" font-family="Helvetica,sans-Serif" font-size="10.00" fill="#000000">/home/travis/build</text>
<text text-anchor="start" x="1435" y="-224" font-family="Helvetica,sans-Serif" font-size="10.00" fill="#000000">/AliceO2Group/AliceO2</text>
<text text-anchor="start" x="1435" y="-213" font-family="Helvetica,sans-Serif" font-size="10.00" fill="#000000">/Detectors/TPC/qc/src</text>
<text text-anchor="middle" x="1490.5" y="-202" font-family="Helvetica,sans-Serif" font-size="10.00" fill="#000000">/TrackCuts.cxx</text>
</a>
</g>
</g>
<!-- Node49&#45;&gt;Node66 -->
<g id="edge21" class="edge">
<title>Node49&#45;&gt;Node66</title>
<path fill="none" stroke="#191970" d="M1368.6589,-284.7911C1392.447,-272.3367 1418.6005,-258.6437 1440.5577,-247.1478"/>
<polygon fill="#191970" stroke="#191970" points="1366.9072,-281.7575 1359.6714,-289.4966 1370.1541,-287.959 1366.9072,-281.7575"/>
</g>
<!-- Node67 -->
<g id="node19" class="node">
<title>Node67</title>
<g id="a_node19"><a xlink:href="../../db/d71/Tracks_8cxx.html" target="_top" xlink:title="/home/travis/build\l/AliceO2Group/AliceO2\l/Detectors/TPC/qc/src\l/Tracks.cxx">
<polygon fill="none" stroke="#000000" points="1572,-195 1572,-247 1699,-247 1699,-195 1572,-195"/>
<text text-anchor="start" x="1580" y="-235" font-family="Helvetica,sans-Serif" font-size="10.00" fill="#000000">/home/travis/build</text>
<text text-anchor="start" x="1580" y="-224" font-family="Helvetica,sans-Serif" font-size="10.00" fill="#000000">/AliceO2Group/AliceO2</text>
<text text-anchor="start" x="1580" y="-213" font-family="Helvetica,sans-Serif" font-size="10.00" fill="#000000">/Detectors/TPC/qc/src</text>
<text text-anchor="middle" x="1635.5" y="-202" font-family="Helvetica,sans-Serif" font-size="10.00" fill="#000000">/Tracks.cxx</text>
</a>
</g>
</g>
<!-- Node49&#45;&gt;Node67 -->
<g id="edge22" class="edge">
<title>Node49&#45;&gt;Node67</title>
<path fill="none" stroke="#191970" d="M1390.2382,-301.3272C1441.4173,-289.2921 1506.1964,-272.4788 1562.5,-253 1567.7309,-251.1903 1573.1094,-249.1649 1578.4616,-247.0354"/>
<polygon fill="#191970" stroke="#191970" points="1389.1343,-297.9906 1380.1902,-303.6698 1390.7238,-304.8077 1389.1343,-297.9906"/>
</g>
<!-- Node68 -->
<g id="node20" class="node">
<title>Node68</title>
<g id="a_node20"><a xlink:href="../../d3/d64/GPUCATracking_8h.html" target="_top" xlink:title="Wrapper class for TPC CA Tracker algorithm. ">
<polygon fill="none" stroke="#000000" points="1717,-189.5 1717,-252.5 1878,-252.5 1878,-189.5 1717,-189.5"/>
<text text-anchor="start" x="1725" y="-240.5" font-family="Helvetica,sans-Serif" font-size="10.00" fill="#000000">/home/travis/build</text>
<text text-anchor="start" x="1725" y="-229.5" font-family="Helvetica,sans-Serif" font-size="10.00" fill="#000000">/AliceO2Group/AliceO2</text>
<text text-anchor="start" x="1725" y="-218.5" font-family="Helvetica,sans-Serif" font-size="10.00" fill="#000000">/Detectors/TPC/reconstruction</text>
<text text-anchor="start" x="1725" y="-207.5" font-family="Helvetica,sans-Serif" font-size="10.00" fill="#000000">/include/TPCReconstruction</text>
<text text-anchor="middle" x="1797.5" y="-196.5" font-family="Helvetica,sans-Serif" font-size="10.00" fill="#000000">/GPUCATracking.h</text>
</a>
</g>
</g>
<!-- Node49&#45;&gt;Node68 -->
<g id="edge23" class="edge">
<title>Node49&#45;&gt;Node68</title>
<path fill="none" stroke="#191970" d="M1390.0606,-310.5677C1473.3802,-299.8738 1599.9488,-280.8501 1707.5,-253 1710.5502,-252.2102 1713.6434,-251.3613 1716.7564,-250.4665"/>
<polygon fill="#191970" stroke="#191970" points="1389.5975,-307.0983 1380.1182,-311.8306 1390.4796,-314.0425 1389.5975,-307.0983"/>
</g>
<!-- Node70 -->
<g id="node22" class="node">
<title>Node70</title>
<g id="a_node22"><a xlink:href="../../d1/df6/testGPUCATracking_8cxx.html" target="_top" xlink:title="This task tests the TPC CA Tracking library. ">
<polygon fill="none" stroke="#000000" points="1861,-95 1861,-147 2022,-147 2022,-95 1861,-95"/>
<text text-anchor="start" x="1869" y="-135" font-family="Helvetica,sans-Serif" font-size="10.00" fill="#000000">/home/travis/build</text>
<text text-anchor="start" x="1869" y="-124" font-family="Helvetica,sans-Serif" font-size="10.00" fill="#000000">/AliceO2Group/AliceO2</text>
<text text-anchor="start" x="1869" y="-113" font-family="Helvetica,sans-Serif" font-size="10.00" fill="#000000">/Detectors/TPC/reconstruction</text>
<text text-anchor="middle" x="1941.5" y="-102" font-family="Helvetica,sans-Serif" font-size="10.00" fill="#000000">/test/testGPUCATracking.cxx</text>
</a>
</g>
</g>
<!-- Node49&#45;&gt;Node70 -->
<g id="edge27" class="edge">
<title>Node49&#45;&gt;Node70</title>
<path fill="none" stroke="#191970" d="M1390.1509,-315.5678C1545.2654,-305.5348 1848.7152,-282.4114 1887.5,-253 1904.9602,-239.7596 1924.0905,-181.7265 1934.2348,-147.1702"/>
<polygon fill="#191970" stroke="#191970" points="1389.9079,-312.0761 1380.1527,-316.2096 1390.3564,-319.0617 1389.9079,-312.0761"/>
</g>
<!-- Node72 -->
<g id="node24" class="node">
<title>Node72</title>
<g id="a_node24"><a xlink:href="../../d5/daf/TPC_2workflow_2include_2TPCWorkflow_2TrackReaderSpec_8h.html" target="_top" xlink:title="/home/travis/build\l/AliceO2Group/AliceO2\l/Detectors/TPC/workflow\l/include/TPCWorkflow/TrackReader\lSpec.h">
<polygon fill="none" stroke="#000000" points="612.5,-189.5 612.5,-252.5 796.5,-252.5 796.5,-189.5 612.5,-189.5"/>
<text text-anchor="start" x="620.5" y="-240.5" font-family="Helvetica,sans-Serif" font-size="10.00" fill="#000000">/home/travis/build</text>
<text text-anchor="start" x="620.5" y="-229.5" font-family="Helvetica,sans-Serif" font-size="10.00" fill="#000000">/AliceO2Group/AliceO2</text>
<text text-anchor="start" x="620.5" y="-218.5" font-family="Helvetica,sans-Serif" font-size="10.00" fill="#000000">/Detectors/TPC/workflow</text>
<text text-anchor="start" x="620.5" y="-207.5" font-family="Helvetica,sans-Serif" font-size="10.00" fill="#000000">/include/TPCWorkflow/TrackReader</text>
<text text-anchor="middle" x="704.5" y="-196.5" font-family="Helvetica,sans-Serif" font-size="10.00" fill="#000000">Spec.h</text>
</a>
</g>
</g>
<!-- Node49&#45;&gt;Node72 -->
<g id="edge28" class="edge">
<title>Node49&#45;&gt;Node72</title>
<path fill="none" stroke="#191970" d="M1208.5365,-312.6118C1109.7761,-302.5173 947.7685,-283.0739 810.5,-253 805.9934,-252.0126 801.4001,-250.9292 796.776,-249.7763"/>
<polygon fill="#191970" stroke="#191970" points="1208.4785,-316.1237 1218.7801,-313.6484 1209.1834,-309.1593 1208.4785,-316.1237"/>
</g>
<!-- Node74 -->
<g id="node26" class="node">
<title>Node74</title>
<g id="a_node26"><a xlink:href="../../d0/d80/TPC_2workflow_2src_2RecoWorkflow_8cxx.html" target="_top" xlink:title="/home/travis/build\l/AliceO2Group/AliceO2\l/Detectors/TPC/workflow\l/src/RecoWorkflow.cxx">
<polygon fill="none" stroke="#000000" points="1934.5,-195 1934.5,-247 2070.5,-247 2070.5,-195 1934.5,-195"/>
<text text-anchor="start" x="1942.5" y="-235" font-family="Helvetica,sans-Serif" font-size="10.00" fill="#000000">/home/travis/build</text>
<text text-anchor="start" x="1942.5" y="-224" font-family="Helvetica,sans-Serif" font-size="10.00" fill="#000000">/AliceO2Group/AliceO2</text>
<text text-anchor="start" x="1942.5" y="-213" font-family="Helvetica,sans-Serif" font-size="10.00" fill="#000000">/Detectors/TPC/workflow</text>
<text text-anchor="middle" x="2002.5" y="-202" font-family="Helvetica,sans-Serif" font-size="10.00" fill="#000000">/src/RecoWorkflow.cxx</text>
</a>
</g>
</g>
<!-- Node49&#45;&gt;Node74 -->
<g id="edge31" class="edge">
<title>Node49&#45;&gt;Node74</title>
<path fill="none" stroke="#191970" d="M1390.1249,-318.5152C1512.2218,-313.49 1735.5715,-298.3663 1920.5,-253 1927.1787,-251.3616 1934.0432,-249.3104 1940.8218,-247.0422"/>
<polygon fill="#191970" stroke="#191970" points="1389.9235,-315.0203 1380.0707,-318.9155 1390.2021,-322.0148 1389.9235,-315.0203"/>
</g>
<!-- Node75 -->
<g id="node27" class="node">
<title>Node75</title>
<g id="a_node27"><a xlink:href="../../d5/df5/DataInterpreterTPC_8cxx.html" target="_top" xlink:title="converting TPC data to Event Visualisation primitives ">
<polygon fill="none" stroke="#000000" points="2089,-195 2089,-247 2250,-247 2250,-195 2089,-195"/>
<text text-anchor="start" x="2097" y="-235" font-family="Helvetica,sans-Serif" font-size="10.00" fill="#000000">/home/travis/build</text>
<text text-anchor="start" x="2097" y="-224" font-family="Helvetica,sans-Serif" font-size="10.00" fill="#000000">/AliceO2Group/AliceO2</text>
<text text-anchor="start" x="2097" y="-213" font-family="Helvetica,sans-Serif" font-size="10.00" fill="#000000">/EventVisualisation/Detectors</text>
<text text-anchor="middle" x="2169.5" y="-202" font-family="Helvetica,sans-Serif" font-size="10.00" fill="#000000">/src/DataInterpreterTPC.cxx</text>
</a>
</g>
</g>
<!-- Node49&#45;&gt;Node75 -->
<g id="edge32" class="edge">
<title>Node49&#45;&gt;Node75</title>
<path fill="none" stroke="#191970" d="M1390.2897,-315.9946C1566.8047,-305.7836 1950.2666,-281.1249 2079.5,-253 2086.7918,-251.4131 2094.301,-249.3953 2101.7258,-247.1472"/>
<polygon fill="#191970" stroke="#191970" points="1390.0294,-312.5037 1380.2471,-316.5728 1390.4318,-319.4921 1390.0294,-312.5037"/>
</g>
<!-- Node76 -->
<g id="node28" class="node">
<title>Node76</title>
<g id="a_node28"><a xlink:href="../../df/d85/DataReaderTPC_8cxx.html" target="_top" xlink:title="TPC Detector&#45;specific reading from file(s) ">
<polygon fill="none" stroke="#000000" points="2268,-195 2268,-247 2429,-247 2429,-195 2268,-195"/>
<text text-anchor="start" x="2276" y="-235" font-family="Helvetica,sans-Serif" font-size="10.00" fill="#000000">/home/travis/build</text>
<text text-anchor="start" x="2276" y="-224" font-family="Helvetica,sans-Serif" font-size="10.00" fill="#000000">/AliceO2Group/AliceO2</text>
<text text-anchor="start" x="2276" y="-213" font-family="Helvetica,sans-Serif" font-size="10.00" fill="#000000">/EventVisualisation/Detectors</text>
<text text-anchor="middle" x="2348.5" y="-202" font-family="Helvetica,sans-Serif" font-size="10.00" fill="#000000">/src/DataReaderTPC.cxx</text>
</a>
</g>
</g>
<!-- Node49&#45;&gt;Node76 -->
<g id="edge33" class="edge">
<title>Node49&#45;&gt;Node76</title>
<path fill="none" stroke="#191970" d="M1390.3197,-317.7451C1596.5693,-309.8385 2095.1117,-287.6837 2259.5,-253 2266.8904,-251.4407 2274.4985,-249.4086 2282.0074,-247.1239"/>
<polygon fill="#191970" stroke="#191970" points="1389.9865,-314.2552 1380.127,-318.1334 1390.253,-321.2501 1389.9865,-314.2552"/>
</g>
<!-- Node52 -->
<g id="node4" class="node">
<title>Node52</title>
<g id="a_node4"><a xlink:href="../../db/d6a/MatchTOF_8cxx.html" target="_top" xlink:title="/home/travis/build\l/AliceO2Group/AliceO2\l/Detectors/GlobalTracking\l/src/MatchTOF.cxx">
<polygon fill="none" stroke="#000000" points="268.5,-.5 268.5,-52.5 410.5,-52.5 410.5,-.5 268.5,-.5"/>
<text text-anchor="start" x="276.5" y="-40.5" font-family="Helvetica,sans-Serif" font-size="10.00" fill="#000000">/home/travis/build</text>
<text text-anchor="start" x="276.5" y="-29.5" font-family="Helvetica,sans-Serif" font-size="10.00" fill="#000000">/AliceO2Group/AliceO2</text>
<text text-anchor="start" x="276.5" y="-18.5" font-family="Helvetica,sans-Serif" font-size="10.00" fill="#000000">/Detectors/GlobalTracking</text>
<text text-anchor="middle" x="339.5" y="-7.5" font-family="Helvetica,sans-Serif" font-size="10.00" fill="#000000">/src/MatchTOF.cxx</text>
</a>
</g>
</g>
<!-- Node51&#45;&gt;Node52 -->
<g id="edge3" class="edge">
<title>Node51&#45;&gt;Node52</title>
<path fill="none" stroke="#191970" d="M178.7155,-91.1559C209.4469,-78.798 244.7704,-64.5934 274.4672,-52.6515"/>
<polygon fill="#191970" stroke="#191970" points="177.309,-87.949 169.3369,-94.9273 179.9207,-94.4436 177.309,-87.949"/>
</g>
<!-- Node53 -->
<g id="node5" class="node">
<title>Node53</title>
<g id="a_node5"><a xlink:href="../../d8/d84/RecoWorkflowSpec_8cxx.html" target="_top" xlink:title="/home/travis/build\l/AliceO2Group/AliceO2\l/Detectors/GlobalTrackingWorkflow\l/tofworkflow/src/RecoWorkflowSpec.cxx">
<polygon fill="none" stroke="#000000" points="0,-.5 0,-52.5 209,-52.5 209,-.5 0,-.5"/>
<text text-anchor="start" x="8" y="-40.5" font-family="Helvetica,sans-Serif" font-size="10.00" fill="#000000">/home/travis/build</text>
<text text-anchor="start" x="8" y="-29.5" font-family="Helvetica,sans-Serif" font-size="10.00" fill="#000000">/AliceO2Group/AliceO2</text>
<text text-anchor="start" x="8" y="-18.5" font-family="Helvetica,sans-Serif" font-size="10.00" fill="#000000">/Detectors/GlobalTrackingWorkflow</text>
<text text-anchor="middle" x="104.5" y="-7.5" font-family="Helvetica,sans-Serif" font-size="10.00" fill="#000000">/tofworkflow/src/RecoWorkflowSpec.cxx</text>
</a>
</g>
</g>
<!-- Node51&#45;&gt;Node53 -->
<g id="edge4" class="edge">
<title>Node51&#45;&gt;Node53</title>
<path fill="none" stroke="#191970" d="M104.5,-84.6645C104.5,-74.0577 104.5,-62.6746 104.5,-52.8157"/>
<polygon fill="#191970" stroke="#191970" points="101.0001,-84.9273 104.5,-94.9273 108.0001,-84.9273 101.0001,-84.9273"/>
</g>
<!-- Node54&#45;&gt;Node51 -->
<g id="edge6" class="edge">
<title>Node54&#45;&gt;Node51</title>
<path fill="none" stroke="#191970" d="M339.3156,-192.1556C298.4518,-180.18 250.6574,-166.0554 207.5,-153 201.1374,-151.0753 194.5587,-149.069 187.9462,-147.0408"/>
<polygon fill="#191970" stroke="#191970" points="338.4234,-195.5413 349.0041,-194.9927 340.3907,-188.8234 338.4234,-195.5413"/>
</g>
<!-- Node54&#45;&gt;Node52 -->
<g id="edge7" class="edge">
<title>Node54&#45;&gt;Node52</title>
<path fill="none" stroke="#191970" d="M420.4379,-185.5144C400.9076,-147.1442 370.2379,-86.8892 352.7978,-52.6254"/>
<polygon fill="#191970" stroke="#191970" points="417.493,-187.4446 425.1484,-194.7689 423.7314,-184.2692 417.493,-187.4446"/>
</g>
<!-- Node55 -->
<g id="node7" class="node">
<title>Node55</title>
<g id="a_node7"><a xlink:href="../../dc/d59/MatchTPCITS_8cxx.html" target="_top" xlink:title="/home/travis/build\l/AliceO2Group/AliceO2\l/Detectors/GlobalTracking\l/src/MatchTPCITS.cxx">
<polygon fill="none" stroke="#000000" points="216.5,-95 216.5,-147 358.5,-147 358.5,-95 216.5,-95"/>
<text text-anchor="start" x="224.5" y="-135" font-family="Helvetica,sans-Serif" font-size="10.00" fill="#000000">/home/travis/build</text>
<text text-anchor="start" x="224.5" y="-124" font-family="Helvetica,sans-Serif" font-size="10.00" fill="#000000">/AliceO2Group/AliceO2</text>
<text text-anchor="start" x="224.5" y="-113" font-family="Helvetica,sans-Serif" font-size="10.00" fill="#000000">/Detectors/GlobalTracking</text>
<text text-anchor="middle" x="287.5" y="-102" font-family="Helvetica,sans-Serif" font-size="10.00" fill="#000000">/src/MatchTPCITS.cxx</text>
</a>
</g>
</g>
<!-- Node54&#45;&gt;Node55 -->
<g id="edge8" class="edge">
<title>Node54&#45;&gt;Node55</title>
<path fill="none" stroke="#191970" d="M390.6276,-189.2964C370.074,-175.6847 346.3516,-159.9746 326.8447,-147.0561"/>
<polygon fill="#191970" stroke="#191970" points="388.9507,-192.3838 399.2207,-194.9872 392.8158,-186.5476 388.9507,-192.3838"/>
</g>
<!-- Node56 -->
<g id="node8" class="node">
<title>Node56</title>
<g id="a_node8"><a xlink:href="../../da/d20/TPCITSMatchingSpec_8h.html" target="_top" xlink:title="/home/travis/build\l/AliceO2Group/AliceO2\l/Detectors/GlobalTrackingWorkflow\l/include/GlobalTrackingWorkflow\l/TPCITSMatchingSpec.h">
<polygon fill="none" stroke="#000000" points="414,-89.5 414,-152.5 601,-152.5 601,-89.5 414,-89.5"/>
<text text-anchor="start" x="422" y="-140.5" font-family="Helvetica,sans-Serif" font-size="10.00" fill="#000000">/home/travis/build</text>
<text text-anchor="start" x="422" y="-129.5" font-family="Helvetica,sans-Serif" font-size="10.00" fill="#000000">/AliceO2Group/AliceO2</text>
<text text-anchor="start" x="422" y="-118.5" font-family="Helvetica,sans-Serif" font-size="10.00" fill="#000000">/Detectors/GlobalTrackingWorkflow</text>
<text text-anchor="start" x="422" y="-107.5" font-family="Helvetica,sans-Serif" font-size="10.00" fill="#000000">/include/GlobalTrackingWorkflow</text>
<text text-anchor="middle" x="507.5" y="-96.5" font-family="Helvetica,sans-Serif" font-size="10.00" fill="#000000">/TPCITSMatchingSpec.h</text>
</a>
</g>
</g>
<!-- Node54&#45;&gt;Node56 -->
<g id="edge9" class="edge">
<title>Node54&#45;&gt;Node56</title>
<path fill="none" stroke="#191970" d="M462.3366,-186.4543C469.9219,-175.461 478.27,-163.3623 485.7035,-152.5891"/>
<polygon fill="#191970" stroke="#191970" points="459.2473,-184.7687 456.4488,-194.9872 465.0089,-188.7442 459.2473,-184.7687"/>
</g>
<!-- Node57 -->
<g id="node9" class="node">
<title>Node57</title>
<g id="a_node9"><a xlink:href="../../d5/db4/MatchTPCITSWorkflow_8cxx.html" target="_top" xlink:title="/home/travis/build\l/AliceO2Group/AliceO2\l/Detectors/GlobalTrackingWorkflow\l/src/MatchTPCITSWorkflow.cxx">
<polygon fill="none" stroke="#000000" points="442,-.5 442,-52.5 629,-52.5 629,-.5 442,-.5"/>
<text text-anchor="start" x="450" y="-40.5" font-family="Helvetica,sans-Serif" font-size="10.00" fill="#000000">/home/travis/build</text>
<text text-anchor="start" x="450" y="-29.5" font-family="Helvetica,sans-Serif" font-size="10.00" fill="#000000">/AliceO2Group/AliceO2</text>
<text text-anchor="start" x="450" y="-18.5" font-family="Helvetica,sans-Serif" font-size="10.00" fill="#000000">/Detectors/GlobalTrackingWorkflow</text>
<text text-anchor="middle" x="535.5" y="-7.5" font-family="Helvetica,sans-Serif" font-size="10.00" fill="#000000">/src/MatchTPCITSWorkflow.cxx</text>
</a>
</g>
</g>
<!-- Node56&#45;&gt;Node57 -->
<g id="edge10" class="edge">
<title>Node56&#45;&gt;Node57</title>
<path fill="none" stroke="#191970" d="M519.7852,-79.5374C522.4922,-70.4013 525.286,-60.9722 527.7536,-52.6442"/>
<polygon fill="#191970" stroke="#191970" points="516.3866,-78.6877 516.9015,-89.27 523.0982,-80.6763 516.3866,-78.6877"/>
</g>
<!-- Node56&#45;&gt;Node58 -->
<g id="edge11" class="edge">
<title>Node56&#45;&gt;Node58</title>
<path fill="none" stroke="#191970" d="M604.5639,-85.8562C635.0332,-74.8242 668.11,-62.8481 696.5201,-52.5617"/>
<polygon fill="#191970" stroke="#191970" points="602.9832,-82.7061 594.7721,-89.4015 605.3663,-89.2879 602.9832,-82.7061"/>
</g>
<!-- Node60 -->
<g id="node12" class="node">
<title>Node60</title>
<g id="a_node12"><a xlink:href="../../d9/da6/CalibPadGainTracks_8cxx.html" target="_top" xlink:title="/home/travis/build\l/AliceO2Group/AliceO2\l/Detectors/TPC/calibration\l/src/CalibPadGainTracks.cxx">
<polygon fill="none" stroke="#000000" points="858.5,-95 858.5,-147 1010.5,-147 1010.5,-95 858.5,-95"/>
<text text-anchor="start" x="866.5" y="-135" font-family="Helvetica,sans-Serif" font-size="10.00" fill="#000000">/home/travis/build</text>
<text text-anchor="start" x="866.5" y="-124" font-family="Helvetica,sans-Serif" font-size="10.00" fill="#000000">/AliceO2Group/AliceO2</text>
<text text-anchor="start" x="866.5" y="-113" font-family="Helvetica,sans-Serif" font-size="10.00" fill="#000000">/Detectors/TPC/calibration</text>
<text text-anchor="middle" x="934.5" y="-102" font-family="Helvetica,sans-Serif" font-size="10.00" fill="#000000">/src/CalibPadGainTracks.cxx</text>
</a>
</g>
</g>
<!-- Node59&#45;&gt;Node60 -->
<g id="edge14" class="edge">
<title>Node59&#45;&gt;Node60</title>
<path fill="none" stroke="#191970" d="M937.9898,-179.1631C937.3372,-168.2863 936.6528,-156.8798 936.0647,-147.078"/>
<polygon fill="#191970" stroke="#191970" points="934.5088,-179.587 938.6016,-189.3594 941.4963,-179.1677 934.5088,-179.587"/>
</g>
<!-- Node62 -->
<g id="node14" class="node">
<title>Node62</title>
<g id="a_node14"><a xlink:href="../../da/ddb/TrackResiduals_8h.html" target="_top" xlink:title="Definition of the TrackResiduals class. ">
<polygon fill="none" stroke="#000000" points="1029,-89.5 1029,-152.5 1208,-152.5 1208,-89.5 1029,-89.5"/>
<text text-anchor="start" x="1037" y="-140.5" font-family="Helvetica,sans-Serif" font-size="10.00" fill="#000000">/home/travis/build</text>
<text text-anchor="start" x="1037" y="-129.5" font-family="Helvetica,sans-Serif" font-size="10.00" fill="#000000">/AliceO2Group/AliceO2</text>
<text text-anchor="start" x="1037" y="-118.5" font-family="Helvetica,sans-Serif" font-size="10.00" fill="#000000">/Detectors/TPC/calibration</text>
<text text-anchor="start" x="1037" y="-107.5" font-family="Helvetica,sans-Serif" font-size="10.00" fill="#000000">/SpacePoints/include/SpacePoints</text>
<text text-anchor="middle" x="1118.5" y="-96.5" font-family="Helvetica,sans-Serif" font-size="10.00" fill="#000000">/TrackResiduals.h</text>
</a>
</g>
</g>
<!-- Node61&#45;&gt;Node62 -->
<g id="edge16" class="edge">
<title>Node61&#45;&gt;Node62</title>
<path fill="none" stroke="#191970" d="M1128.4449,-179.4993C1126.9269,-170.5699 1125.3456,-161.268 1123.9023,-152.778"/>
<polygon fill="#191970" stroke="#191970" points="1124.9946,-180.0874 1130.1211,-189.3594 1131.8956,-178.9142 1124.9946,-180.0874"/>
</g>
<!-- Node61&#45;&gt;Node64 -->
<g id="edge18" class="edge">
<title>Node61&#45;&gt;Node64</title>
<path fill="none" stroke="#191970" d="M1205.7452,-184.7911C1229.9069,-172.3367 1256.4712,-158.6437 1278.7733,-147.1478"/>
<polygon fill="#191970" stroke="#191970" points="1203.9015,-181.8038 1196.6165,-189.4966 1207.1088,-188.0258 1203.9015,-181.8038"/>
</g>
<!-- Node63 -->
<g id="node15" class="node">
<title>Node63</title>
<g id="a_node15"><a xlink:href="../../d9/df0/TrackResiduals_8cxx.html" target="_top" xlink:title="Implementation of the TrackResiduals class. ">
<polygon fill="none" stroke="#000000" points="1023,-.5 1023,-52.5 1214,-52.5 1214,-.5 1023,-.5"/>
<text text-anchor="start" x="1031" y="-40.5" font-family="Helvetica,sans-Serif" font-size="10.00" fill="#000000">/home/travis/build</text>
<text text-anchor="start" x="1031" y="-29.5" font-family="Helvetica,sans-Serif" font-size="10.00" fill="#000000">/AliceO2Group/AliceO2</text>
<text text-anchor="start" x="1031" y="-18.5" font-family="Helvetica,sans-Serif" font-size="10.00" fill="#000000">/Detectors/TPC/calibration</text>
<text text-anchor="middle" x="1118.5" y="-7.5" font-family="Helvetica,sans-Serif" font-size="10.00" fill="#000000">/SpacePoints/src/TrackResiduals.cxx</text>
</a>
</g>
</g>
<!-- Node62&#45;&gt;Node63 -->
<g id="edge17" class="edge">
<title>Node62&#45;&gt;Node63</title>
<path fill="none" stroke="#191970" d="M1118.5,-79.2457C1118.5,-70.2008 1118.5,-60.8836 1118.5,-52.6442"/>
<polygon fill="#191970" stroke="#191970" points="1115.0001,-79.2699 1118.5,-89.27 1122.0001,-79.27 1115.0001,-79.2699"/>
</g>
<!-- Node69 -->
<g id="node21" class="node">
<title>Node69</title>
<g id="a_node21"><a xlink:href="../../d4/d2e/GPUCATracking_8cxx.html" target="_top" xlink:title="/home/travis/build\l/AliceO2Group/AliceO2\l/Detectors/TPC/reconstruction\l/src/GPUCATracking.cxx">
<polygon fill="none" stroke="#000000" points="1682,-95 1682,-147 1843,-147 1843,-95 1682,-95"/>
<text text-anchor="start" x="1690" y="-135" font-family="Helvetica,sans-Serif" font-size="10.00" fill="#000000">/home/travis/build</text>
<text text-anchor="start" x="1690" y="-124" font-family="Helvetica,sans-Serif" font-size="10.00" fill="#000000">/AliceO2Group/AliceO2</text>
<text text-anchor="start" x="1690" y="-113" font-family="Helvetica,sans-Serif" font-size="10.00" fill="#000000">/Detectors/TPC/reconstruction</text>
<text text-anchor="middle" x="1762.5" y="-102" font-family="Helvetica,sans-Serif" font-size="10.00" fill="#000000">/src/GPUCATracking.cxx</text>
</a>
</g>
</g>
<!-- Node68&#45;&gt;Node69 -->
<g id="edge24" class="edge">
<title>Node68&#45;&gt;Node69</title>
<path fill="none" stroke="#191970" d="M1783.0923,-179.8352C1779.2151,-168.7573 1775.1286,-157.0819 1771.6273,-147.078"/>
<polygon fill="#191970" stroke="#191970" points="1779.8187,-181.077 1786.4258,-189.3594 1786.4257,-178.7645 1779.8187,-181.077"/>
</g>
<!-- Node68&#45;&gt;Node70 -->
<g id="edge25" class="edge">
<title>Node68&#45;&gt;Node70</title>
<path fill="none" stroke="#191970" d="M1851.4963,-183.5025C1868.9636,-171.3725 1887.9415,-158.1934 1903.9477,-147.078"/>
<polygon fill="#191970" stroke="#191970" points="1849.2798,-180.7806 1843.0625,-189.3594 1853.2726,-186.5302 1849.2798,-180.7806"/>
</g>
<!-- Node71 -->
<g id="node23" class="node">
<title>Node71</title>
<g id="a_node23"><a xlink:href="../../da/d78/CATrackerSpec_8cxx.html" target="_top" xlink:title="Processor spec for running TPC CA tracking. ">
<polygon fill="none" stroke="#000000" points="1527.5,-95 1527.5,-147 1663.5,-147 1663.5,-95 1527.5,-95"/>
<text text-anchor="start" x="1535.5" y="-135" font-family="Helvetica,sans-Serif" font-size="10.00" fill="#000000">/home/travis/build</text>
<text text-anchor="start" x="1535.5" y="-124" font-family="Helvetica,sans-Serif" font-size="10.00" fill="#000000">/AliceO2Group/AliceO2</text>
<text text-anchor="start" x="1535.5" y="-113" font-family="Helvetica,sans-Serif" font-size="10.00" fill="#000000">/Detectors/TPC/workflow</text>
<text text-anchor="middle" x="1595.5" y="-102" font-family="Helvetica,sans-Serif" font-size="10.00" fill="#000000">/src/CATrackerSpec.cxx</text>
</a>
</g>
</g>
<!-- Node68&#45;&gt;Node71 -->
<g id="edge26" class="edge">
<title>Node68&#45;&gt;Node71</title>
<path fill="none" stroke="#191970" d="M1724.6904,-184.9557C1699.4438,-172.4573 1671.6426,-158.6944 1648.3185,-147.1478"/>
<polygon fill="#191970" stroke="#191970" points="1723.3484,-188.1967 1733.8632,-189.4966 1726.4541,-181.9233 1723.3484,-188.1967"/>
</g>
<!-- Node72&#45;&gt;Node57 -->
<g id="edge29" class="edge">
<title>Node72&#45;&gt;Node57</title>
<path fill="none" stroke="#191970" d="M669.57,-181.5127C662.004,-172.3711 654.253,-162.5252 647.5,-153 628.3675,-126.0135 630.8775,-114.2452 609.5,-89 598.3068,-75.7817 584.1415,-63.0825 571.2076,-52.6244"/>
<polygon fill="#191970" stroke="#191970" points="667.0308,-183.9315 676.1416,-189.3393 672.3916,-179.4302 667.0308,-183.9315"/>
</g>
<!-- Node73 -->
<g id="node25" class="node">
<title>Node73</title>
<g id="a_node25"><a xlink:href="../../d4/d3e/TPC_2workflow_2src_2TrackReaderSpec_8cxx.html" target="_top" xlink:title="/home/travis/build\l/AliceO2Group/AliceO2\l/Detectors/TPC/workflow\l/src/TrackReaderSpec.cxx">
<polygon fill="none" stroke="#000000" points="656.5,-95 656.5,-147 796.5,-147 796.5,-95 656.5,-95"/>
<text text-anchor="start" x="664.5" y="-135" font-family="Helvetica,sans-Serif" font-size="10.00" fill="#000000">/home/travis/build</text>
<text text-anchor="start" x="664.5" y="-124" font-family="Helvetica,sans-Serif" font-size="10.00" fill="#000000">/AliceO2Group/AliceO2</text>
<text text-anchor="start" x="664.5" y="-113" font-family="Helvetica,sans-Serif" font-size="10.00" fill="#000000">/Detectors/TPC/workflow</text>
<text text-anchor="middle" x="726.5" y="-102" font-family="Helvetica,sans-Serif" font-size="10.00" fill="#000000">/src/TrackReaderSpec.cxx</text>
</a>
</g>
</g>
<!-- Node72&#45;&gt;Node73 -->
<g id="edge30" class="edge">
<title>Node72&#45;&gt;Node73</title>
<path fill="none" stroke="#191970" d="M713.6302,-179.4993C716.0452,-168.5216 718.5842,-156.9808 720.7628,-147.078"/>
<polygon fill="#191970" stroke="#191970" points="710.1914,-178.8409 711.4609,-189.3594 717.0279,-180.345 710.1914,-178.8409"/>
</g>
</g>
</svg>
        <g id="navigator" transform="translate(0 0)" fill="#404254">
                <rect fill="#f2f5e9" fill-opacity="0.5" stroke="#606060" stroke-width=".5" x="0" y="0" width="60" height="60"/>
                <use id="zoomplus" xlink:href="#zoomPlus" x="17" y="9" onmousedown="handleZoom(evt,'in')"/>
                <use id="zoomminus" xlink:href="#zoomMin" x="42" y="9" onmousedown="handleZoom(evt,'out')"/>
                <use id="reset" xlink:href="#resetDef" x="30" y="36" onmousedown="handleReset()"/>
                <g id="arrowUp" xlink:href="#dirArrow" transform="translate(30 24)" onmousedown="handlePan(0,-1)">
                  <use xlink:href="#rim" fill="#404040">
                        <set attributeName="fill" to="#808080" begin="arrowUp.mouseover" end="arrowUp.mouseout"/>
                  </use>
                  <path fill="none" stroke="white" stroke-width="1.5" d="M0,-3.0v7 M-2.5,-0.5L0,-3.0L2.5,-0.5"/>
                </g>
                <g id="arrowRight" xlink:href="#dirArrow" transform="rotate(90) translate(36 -43)" onmousedown="handlePan(1,0)">
                  <use xlink:href="#rim" fill="#404040">
                        <set attributeName="fill" to="#808080" begin="arrowRight.mouseover" end="arrowRight.mouseout"/>
                  </use>
                  <path fill="none" stroke="white" stroke-width="1.5" d="M0,-3.0v7 M-2.5,-0.5L0,-3.0L2.5,-0.5"/>
                </g>
                <g id="arrowDown" xlink:href="#dirArrow" transform="rotate(180) translate(-30 -48)" onmousedown="handlePan(0,1)">
                  <use xlink:href="#rim" fill="#404040">
                        <set attributeName="fill" to="#808080" begin="arrowDown.mouseover" end="arrowDown.mouseout"/>
                  </use>
                  <path fill="none" stroke="white" stroke-width="1.5" d="M0,-3.0v7 M-2.5,-0.5L0,-3.0L2.5,-0.5"/>
                </g>
                <g id="arrowLeft" xlink:href="#dirArrow" transform="rotate(270) translate(-36 17)" onmousedown="handlePan(-1,0)">
                  <use xlink:href="#rim" fill="#404040">
                        <set attributeName="fill" to="#808080" begin="arrowLeft.mouseover" end="arrowLeft.mouseout"/>
                  </use>
                  <path fill="none" stroke="white" stroke-width="1.5" d="M0,-3.0v7 M-2.5,-0.5L0,-3.0L2.5,-0.5"/>
                </g>
        </g>
        <svg viewBox="0 0 15 15" width="100%" height="30px" preserveAspectRatio="xMaxYMin meet">
         <g id="arrow_out" transform="scale(0.3 0.3)">
          <a xlink:href="TrackTPC_8h__dep__incl_org.svg" target="_base">
           <rect id="button" ry="5" rx="5" y="6" x="6" height="38" width="38"
                fill="#f2f5e9" fill-opacity="0.5" stroke="#606060" stroke-width="1.0"/>
           <path id="arrow"
             d="M 11.500037,31.436501 C 11.940474,20.09759 22.043105,11.32322 32.158766,21.979434 L 37.068811,17.246167 C 37.068811,17.246167 37.088388,32 37.088388,32 L 22.160133,31.978069 C 22.160133,31.978069 26.997745,27.140456 26.997745,27.140456 C 18.528582,18.264221 13.291696,25.230495 11.500037,31.436501 z"
             style="fill:#404040;"/>
          </a>
         </g>
        </svg>
</svg>
