<?xml version="1.0" encoding="UTF-8" standalone="no"?>
<!DOCTYPE svg PUBLIC "-//W3C//DTD SVG 1.1//EN"
 "http://www.w3.org/Graphics/SVG/1.1/DTD/svg11.dtd">
<!-- Generated by graphviz version 2.40.1 (20161225.0304)
 -->
<!-- Title: /home/travis/build/AliceO2Group/AliceO2/Framework/Core/src/Kernels.cxx Pages: 1 -->
<svg width="2598pt" height="330pt"
 viewBox="0.00 0.00 2598.00 330.00" xmlns="http://www.w3.org/2000/svg" xmlns:xlink="http://www.w3.org/1999/xlink">
<g id="graph0" class="graph" transform="scale(1 1) rotate(0) translate(4 326)">
<title>/home/travis/build/AliceO2Group/AliceO2/Framework/Core/src/Kernels.cxx</title>
<!-- Node0 -->
<g id="node1" class="node">
<title>Node0</title>
<polygon fill="#bfbfbf" stroke="#000000" points="2121,-280.5 2121,-321.5 2297,-321.5 2297,-280.5 2121,-280.5"/>
<text text-anchor="start" x="2129" y="-309.5" font-family="Helvetica,sans-Serif" font-size="10.00" fill="#000000">/home/travis/build</text>
<text text-anchor="start" x="2129" y="-298.5" font-family="Helvetica,sans-Serif" font-size="10.00" fill="#000000">/AliceO2Group/AliceO2</text>
<text text-anchor="middle" x="2209" y="-287.5" font-family="Helvetica,sans-Serif" font-size="10.00" fill="#000000">/Framework/Core/src/Kernels.cxx</text>
</g>
<!-- Node1 -->
<g id="node2" class="node">
<title>Node1</title>
<g id="a_node2"><a xlink:href="../../d0/d92/Kernels_8h.html" target="_top" xlink:title="Framework/Kernels.h">
<polygon fill="none" stroke="#000000" points="459.5,-112.5 459.5,-131.5 578.5,-131.5 578.5,-112.5 459.5,-112.5"/>
<text text-anchor="middle" x="519" y="-119.5" font-family="Helvetica,sans-Serif" font-size="10.00" fill="#000000">Framework/Kernels.h</text>
</a>
</g>
</g>
<!-- Node0&#45;&gt;Node1 -->
<g id="edge1" class="edge">
<title>Node0&#45;&gt;Node1</title>
<path fill="none" stroke="#191970" d="M2120.5313,-298.5599C1835.664,-290.071 944.6398,-258.4229 666,-188 621.1635,-176.6681 572.9352,-152.4497 544.3922,-136.7131"/>
<polygon fill="#191970" stroke="#191970" points="545.9354,-133.5659 535.5004,-131.7324 542.5144,-139.673 545.9354,-133.5659"/>
</g>
<!-- Node4 -->
<g id="node5" class="node">
<title>Node4</title>
<polygon fill="none" stroke="#bfbfbf" points="0,-56.5 0,-75.5 86,-75.5 86,-56.5 0,-56.5"/>
<text text-anchor="middle" x="43" y="-63.5" font-family="Helvetica,sans-Serif" font-size="10.00" fill="#000000">arrow/status.h</text>
</g>
<!-- Node0&#45;&gt;Node4 -->
<g id="edge61" class="edge">
<title>Node0&#45;&gt;Node4</title>
<path fill="none" stroke="#191970" d="M2120.6558,-299.3858C1849.4277,-294.1332 1031.1141,-275.9956 767,-244 643.607,-229.0518 614.1043,-215.9828 493,-188 341.357,-152.9608 163.6517,-101.7333 84.5787,-78.4013"/>
<polygon fill="#191970" stroke="#191970" points="85.566,-75.0435 74.9839,-75.5641 83.581,-81.7562 85.566,-75.0435"/>
</g>
<!-- Node6 -->
<g id="node7" class="node">
<title>Node6</title>
<polygon fill="none" stroke="#bfbfbf" points="104,-56.5 104,-75.5 214,-75.5 214,-56.5 104,-56.5"/>
<text text-anchor="middle" x="159" y="-63.5" font-family="Helvetica,sans-Serif" font-size="10.00" fill="#000000">arrow/util/variant.h</text>
</g>
<!-- Node0&#45;&gt;Node6 -->
<g id="edge63" class="edge">
<title>Node0&#45;&gt;Node6</title>
<path fill="none" stroke="#191970" d="M2120.8299,-298.8194C1866.9732,-292.2775 1137.3942,-271.5555 900,-244 767.4375,-228.6128 735.837,-214.2919 605,-188 487.4068,-164.3694 456.3239,-164.9691 341,-132 287.83,-116.7996 227.8272,-93.8756 191.737,-79.4347"/>
<polygon fill="#191970" stroke="#191970" points="192.8009,-76.09 182.2174,-75.6 190.1854,-82.583 192.8009,-76.09"/>
</g>
<!-- Node8 -->
<g id="node9" class="node">
<title>Node8</title>
<g id="a_node9"><a xlink:href="../../d5/d98/TableBuilder_8h.html" target="_top" xlink:title="Framework/TableBuilder.h">
<polygon fill="none" stroke="#000000" points="1711,-224.5 1711,-243.5 1853,-243.5 1853,-224.5 1711,-224.5"/>
<text text-anchor="middle" x="1782" y="-231.5" font-family="Helvetica,sans-Serif" font-size="10.00" fill="#000000">Framework/TableBuilder.h</text>
</a>
</g>
</g>
<!-- Node0&#45;&gt;Node8 -->
<g id="edge8" class="edge">
<title>Node0&#45;&gt;Node8</title>
<path fill="none" stroke="#191970" d="M2120.7843,-287.1582C2041.3666,-274.6969 1926.1585,-256.6197 1852.6653,-245.088"/>
<polygon fill="#191970" stroke="#191970" points="1853.0017,-241.598 1842.58,-243.5055 1851.9166,-248.5134 1853.0017,-241.598"/>
</g>
<!-- Node27 -->
<g id="node28" class="node">
<title>Node27</title>
<polygon fill="none" stroke="#bfbfbf" points="2055,-56.5 2055,-75.5 2113,-75.5 2113,-56.5 2055,-56.5"/>
<text text-anchor="middle" x="2084" y="-63.5" font-family="Helvetica,sans-Serif" font-size="10.00" fill="#000000">memory</text>
</g>
<!-- Node0&#45;&gt;Node27 -->
<g id="edge64" class="edge">
<title>Node0&#45;&gt;Node27</title>
<path fill="none" stroke="#191970" d="M2228.778,-280.3443C2252.0108,-253.4606 2284.7873,-205.4914 2263,-168 2232.9692,-116.3232 2165.8752,-88.6501 2122.8993,-75.6624"/>
<polygon fill="#191970" stroke="#191970" points="2123.6386,-72.2329 2113.0599,-72.8171 2121.694,-78.9574 2123.6386,-72.2329"/>
</g>
<!-- Node37 -->
<g id="node38" class="node">
<title>Node37</title>
<polygon fill="none" stroke="#bfbfbf" points="2164.5,-168.5 2164.5,-187.5 2253.5,-187.5 2253.5,-168.5 2164.5,-168.5"/>
<text text-anchor="middle" x="2209" y="-175.5" font-family="Helvetica,sans-Serif" font-size="10.00" fill="#000000">arrow/builder.h</text>
</g>
<!-- Node0&#45;&gt;Node37 -->
<g id="edge60" class="edge">
<title>Node0&#45;&gt;Node37</title>
<path fill="none" stroke="#191970" d="M2209,-280.4126C2209,-257.3618 2209,-220.2774 2209,-197.6259"/>
<polygon fill="#191970" stroke="#191970" points="2212.5001,-197.5181 2209,-187.5182 2205.5001,-197.5182 2212.5001,-197.5181"/>
</g>
<!-- Node39 -->
<g id="node40" class="node">
<title>Node39</title>
<g id="a_node40"><a xlink:href="../../df/d1f/ArrowDebugHelpers_8h.html" target="_top" xlink:title="ArrowDebugHelpers.h">
<polygon fill="none" stroke="#000000" points="2292.5,-224.5 2292.5,-243.5 2415.5,-243.5 2415.5,-224.5 2292.5,-224.5"/>
<text text-anchor="middle" x="2354" y="-231.5" font-family="Helvetica,sans-Serif" font-size="10.00" fill="#000000">ArrowDebugHelpers.h</text>
</a>
</g>
</g>
<!-- Node0&#45;&gt;Node39 -->
<g id="edge59" class="edge">
<title>Node0&#45;&gt;Node39</title>
<path fill="none" stroke="#191970" d="M2253.6879,-280.3511C2276.5315,-269.7958 2303.7171,-257.2342 2324.0212,-247.8523"/>
<polygon fill="#191970" stroke="#191970" points="2325.496,-251.0265 2333.1056,-243.6546 2322.5598,-244.672 2325.496,-251.0265"/>
</g>
<!-- Node40 -->
<g id="node41" class="node">
<title>Node40</title>
<polygon fill="none" stroke="#bfbfbf" points="2434,-224.5 2434,-243.5 2512,-243.5 2512,-224.5 2434,-224.5"/>
<text text-anchor="middle" x="2473" y="-231.5" font-family="Helvetica,sans-Serif" font-size="10.00" fill="#000000">arrow/type.h</text>
</g>
<!-- Node0&#45;&gt;Node40 -->
<g id="edge62" class="edge">
<title>Node0&#45;&gt;Node40</title>
<path fill="none" stroke="#191970" d="M2290.0028,-280.4425C2334.5266,-269.1429 2388.1976,-255.5218 2425.8641,-245.9625"/>
<polygon fill="#191970" stroke="#191970" points="2426.7288,-249.3541 2435.5605,-243.5017 2425.0068,-242.5692 2426.7288,-249.3541"/>
</g>
<!-- Node41 -->
<g id="node42" class="node">
<title>Node41</title>
<polygon fill="none" stroke="#bfbfbf" points="2530,-224.5 2530,-243.5 2590,-243.5 2590,-224.5 2530,-224.5"/>
<text text-anchor="middle" x="2560" y="-231.5" font-family="Helvetica,sans-Serif" font-size="10.00" fill="#000000">iostream</text>
</g>
<!-- Node0&#45;&gt;Node41 -->
<g id="edge65" class="edge">
<title>Node0&#45;&gt;Node41</title>
<path fill="none" stroke="#191970" d="M2297.0809,-286.609C2357.3089,-276.3708 2439.1458,-261.6827 2519.9667,-244.1188"/>
<polygon fill="#191970" stroke="#191970" points="2520.7962,-247.5202 2529.8164,-241.9627 2519.2992,-240.6821 2520.7962,-247.5202"/>
</g>
<!-- Node2 -->
<g id="node3" class="node">
<title>Node2</title>
<g id="a_node3"><a xlink:href="../../dd/dc2/BasicOps_8h.html" target="_top" xlink:title="Framework/BasicOps.h">
<polygon fill="none" stroke="#000000" points="580,-56.5 580,-75.5 708,-75.5 708,-56.5 580,-56.5"/>
<text text-anchor="middle" x="644" y="-63.5" font-family="Helvetica,sans-Serif" font-size="10.00" fill="#000000">Framework/BasicOps.h</text>
</a>
</g>
</g>
<!-- Node1&#45;&gt;Node2 -->
<g id="edge2" class="edge">
<title>Node1&#45;&gt;Node2</title>
<path fill="none" stroke="#191970" d="M540.4883,-112.3733C560.644,-103.3435 590.988,-89.7494 613.618,-79.6111"/>
<polygon fill="#191970" stroke="#191970" points="615.0971,-82.7838 622.7921,-75.5011 612.2351,-76.3955 615.0971,-82.7838"/>
</g>
<!-- Node3 -->
<g id="node4" class="node">
<title>Node3</title>
<polygon fill="none" stroke="#bfbfbf" points="366.5,-56.5 366.5,-75.5 499.5,-75.5 499.5,-56.5 366.5,-56.5"/>
<text text-anchor="middle" x="433" y="-63.5" font-family="Helvetica,sans-Serif" font-size="10.00" fill="#000000">arrow/compute/kernel.h</text>
</g>
<!-- Node1&#45;&gt;Node3 -->
<g id="edge3" class="edge">
<title>Node1&#45;&gt;Node3</title>
<path fill="none" stroke="#191970" d="M504.0199,-112.2455C490.8249,-103.6534 471.3949,-91.0014 456.1921,-81.1018"/>
<polygon fill="#191970" stroke="#191970" points="458.0983,-78.1665 447.8084,-75.6427 454.2785,-84.0325 458.0983,-78.1665"/>
</g>
<!-- Node1&#45;&gt;Node4 -->
<g id="edge4" class="edge">
<title>Node1&#45;&gt;Node4</title>
<path fill="none" stroke="#191970" d="M459.4659,-117.0909C379.2547,-110.1328 231.8407,-96.1363 96.2403,-76.0839"/>
<polygon fill="#191970" stroke="#191970" points="96.4908,-72.5825 86.0835,-74.5671 95.4569,-79.5058 96.4908,-72.5825"/>
</g>
<!-- Node5 -->
<g id="node6" class="node">
<title>Node5</title>
<polygon fill="none" stroke="#bfbfbf" points="232,-56.5 232,-75.5 348,-75.5 348,-56.5 232,-56.5"/>
<text text-anchor="middle" x="290" y="-63.5" font-family="Helvetica,sans-Serif" font-size="10.00" fill="#000000">arrow/util/visibility.h</text>
</g>
<!-- Node1&#45;&gt;Node5 -->
<g id="edge5" class="edge">
<title>Node1&#45;&gt;Node5</title>
<path fill="none" stroke="#191970" d="M479.8937,-112.4369C440.8668,-102.8932 380.8035,-88.2052 338.7038,-77.9101"/>
<polygon fill="#191970" stroke="#191970" points="339.4902,-74.4993 328.945,-75.5237 337.8274,-81.299 339.4902,-74.4993"/>
</g>
<!-- Node1&#45;&gt;Node6 -->
<g id="edge6" class="edge">
<title>Node1&#45;&gt;Node6</title>
<path fill="none" stroke="#191970" d="M459.4679,-112.7631C401.9118,-103.8295 311.9429,-89.8562 224.2807,-76.1987"/>
<polygon fill="#191970" stroke="#191970" points="224.5772,-72.7027 214.1575,-74.6213 223.4994,-79.6193 224.5772,-72.7027"/>
</g>
<!-- Node7 -->
<g id="node8" class="node">
<title>Node7</title>
<polygon fill="none" stroke="#bfbfbf" points="518,-56.5 518,-75.5 562,-75.5 562,-56.5 518,-56.5"/>
<text text-anchor="middle" x="540" y="-63.5" font-family="Helvetica,sans-Serif" font-size="10.00" fill="#000000">string</text>
</g>
<!-- Node1&#45;&gt;Node7 -->
<g id="edge7" class="edge">
<title>Node1&#45;&gt;Node7</title>
<path fill="none" stroke="#191970" d="M522.6579,-112.2455C525.4584,-104.7776 529.409,-94.2427 532.8324,-85.1137"/>
<polygon fill="#191970" stroke="#191970" points="536.1499,-86.2349 536.384,-75.6427 529.5955,-83.777 536.1499,-86.2349"/>
</g>
<!-- Node8&#45;&gt;Node7 -->
<g id="edge56" class="edge">
<title>Node8&#45;&gt;Node7</title>
<path fill="none" stroke="#191970" d="M1710.9548,-232.8114C1599.4234,-229.9733 1376.7905,-220.379 1191,-188 1157.8594,-182.2244 1150.8643,-175.1826 1118,-168 1021.635,-146.9392 996.2835,-148.3004 899,-132 756.4221,-108.1102 716.4128,-111.0844 572.3402,-76.0697"/>
<polygon fill="#191970" stroke="#191970" points="572.7875,-72.5758 562.2418,-73.5951 571.1214,-79.3746 572.7875,-72.5758"/>
</g>
<!-- Node9 -->
<g id="node10" class="node">
<title>Node9</title>
<g id="a_node10"><a xlink:href="../../de/d33/ASoA_8h.html" target="_top" xlink:title="Framework/ASoA.h">
<polygon fill="none" stroke="#000000" points="1200,-168.5 1200,-187.5 1308,-187.5 1308,-168.5 1200,-168.5"/>
<text text-anchor="middle" x="1254" y="-175.5" font-family="Helvetica,sans-Serif" font-size="10.00" fill="#000000">Framework/ASoA.h</text>
</a>
</g>
</g>
<!-- Node8&#45;&gt;Node9 -->
<g id="edge9" class="edge">
<title>Node8&#45;&gt;Node9</title>
<path fill="none" stroke="#191970" d="M1710.7916,-226.4476C1607.4825,-215.4906 1417.5679,-195.3481 1318.2923,-184.8189"/>
<polygon fill="#191970" stroke="#191970" points="1318.4142,-181.3123 1308.1008,-183.738 1317.6759,-188.2732 1318.4142,-181.3123"/>
</g>
<!-- Node15 -->
<g id="node16" class="node">
<title>Node15</title>
<g id="a_node16"><a xlink:href="../../de/d9b/FunctionalHelpers_8h.html" target="_top" xlink:title="Framework/FunctionalHelpers.h">
<polygon fill="none" stroke="#000000" points="1584,-112.5 1584,-131.5 1754,-131.5 1754,-112.5 1584,-112.5"/>
<text text-anchor="middle" x="1669" y="-119.5" font-family="Helvetica,sans-Serif" font-size="10.00" fill="#000000">Framework/FunctionalHelpers.h</text>
</a>
</g>
</g>
<!-- Node8&#45;&gt;Node15 -->
<g id="edge46" class="edge">
<title>Node8&#45;&gt;Node15</title>
<path fill="none" stroke="#191970" d="M1772.3657,-224.4509C1753.1851,-205.4401 1710.0052,-162.6423 1685.9662,-138.816"/>
<polygon fill="#191970" stroke="#191970" points="1688.1762,-136.0786 1678.6099,-131.5249 1683.2485,-141.0503 1688.1762,-136.0786"/>
</g>
<!-- Node16 -->
<g id="node17" class="node">
<title>Node16</title>
<polygon fill="none" stroke="#bfbfbf" points="1859.5,-56.5 1859.5,-75.5 1924.5,-75.5 1924.5,-56.5 1859.5,-56.5"/>
<text text-anchor="middle" x="1892" y="-63.5" font-family="Helvetica,sans-Serif" font-size="10.00" fill="#000000">functional</text>
</g>
<!-- Node8&#45;&gt;Node16 -->
<g id="edge54" class="edge">
<title>Node8&#45;&gt;Node16</title>
<path fill="none" stroke="#191970" d="M1786.402,-224.1634C1798.6362,-196.9104 1832.6314,-121.7908 1840,-112 1848.4937,-100.7143 1860.1076,-90.1217 1870.2053,-81.9527"/>
<polygon fill="#191970" stroke="#191970" points="1872.4935,-84.6068 1878.229,-75.6986 1868.1902,-79.0858 1872.4935,-84.6068"/>
</g>
<!-- Node22 -->
<g id="node23" class="node">
<title>Node22</title>
<polygon fill="none" stroke="#bfbfbf" points="1760.5,-56.5 1760.5,-75.5 1841.5,-75.5 1841.5,-56.5 1760.5,-56.5"/>
<text text-anchor="middle" x="1801" y="-63.5" font-family="Helvetica,sans-Serif" font-size="10.00" fill="#000000">arrow/table.h</text>
</g>
<!-- Node8&#45;&gt;Node22 -->
<g id="edge52" class="edge">
<title>Node8&#45;&gt;Node22</title>
<path fill="none" stroke="#191970" d="M1783.076,-224.4862C1786.0794,-197.9293 1794.6028,-122.5651 1798.7194,-86.1655"/>
<polygon fill="#191970" stroke="#191970" points="1802.2425,-86.1579 1799.8885,-75.8279 1795.2868,-85.3712 1802.2425,-86.1579"/>
</g>
<!-- Node8&#45;&gt;Node27 -->
<g id="edge57" class="edge">
<title>Node8&#45;&gt;Node27</title>
<path fill="none" stroke="#191970" d="M1853.1721,-226.6095C1914.6902,-219.1441 1997.9985,-206.1226 2026,-188 2061.4579,-165.0517 2075.7313,-114.0134 2081.0784,-85.7644"/>
<polygon fill="#191970" stroke="#191970" points="2084.5403,-86.2835 2082.7645,-75.8385 2077.6391,-85.1111 2084.5403,-86.2835"/>
</g>
<!-- Node31 -->
<g id="node32" class="node">
<title>Node31</title>
<g id="a_node32"><a xlink:href="../../db/d4f/StructToTuple_8h.html" target="_top" xlink:title="Framework/StructToTuple.h">
<polygon fill="none" stroke="#000000" points="1848.5,-168.5 1848.5,-187.5 1995.5,-187.5 1995.5,-168.5 1848.5,-168.5"/>
<text text-anchor="middle" x="1922" y="-175.5" font-family="Helvetica,sans-Serif" font-size="10.00" fill="#000000">Framework/StructToTuple.h</text>
</a>
</g>
</g>
<!-- Node8&#45;&gt;Node31 -->
<g id="edge42" class="edge">
<title>Node8&#45;&gt;Node31</title>
<path fill="none" stroke="#191970" d="M1806.0669,-224.3733C1828.8428,-215.2629 1863.2344,-201.5062 1888.649,-191.3404"/>
<polygon fill="#191970" stroke="#191970" points="1890.2623,-194.4648 1898.2472,-187.5011 1887.6625,-187.9654 1890.2623,-194.4648"/>
</g>
<!-- Node32 -->
<g id="node33" class="node">
<title>Node32</title>
<polygon fill="none" stroke="#bfbfbf" points="2014.5,-112.5 2014.5,-131.5 2055.5,-131.5 2055.5,-112.5 2014.5,-112.5"/>
<text text-anchor="middle" x="2035" y="-119.5" font-family="Helvetica,sans-Serif" font-size="10.00" fill="#000000">tuple</text>
</g>
<!-- Node8&#45;&gt;Node32 -->
<g id="edge58" class="edge">
<title>Node8&#45;&gt;Node32</title>
<path fill="none" stroke="#191970" d="M1853.1204,-226.3861C1909.2526,-219.1123 1981.8315,-206.499 2005,-188 2019.4049,-176.4984 2027.1466,-156.5561 2031.1344,-141.595"/>
<polygon fill="#191970" stroke="#191970" points="2034.5624,-142.3058 2033.4164,-131.7732 2027.744,-140.7216 2034.5624,-142.3058"/>
</g>
<!-- Node33 -->
<g id="node34" class="node">
<title>Node33</title>
<g id="a_node34"><a xlink:href="../../d7/dbe/VariantHelpers_8h.html" target="_top" xlink:title="Framework/VariantHelpers.h">
<polygon fill="none" stroke="#000000" points="953.5,-168.5 953.5,-187.5 1108.5,-187.5 1108.5,-168.5 953.5,-168.5"/>
<text text-anchor="middle" x="1031" y="-175.5" font-family="Helvetica,sans-Serif" font-size="10.00" fill="#000000">Framework/VariantHelpers.h</text>
</a>
</g>
</g>
<!-- Node8&#45;&gt;Node33 -->
<g id="edge47" class="edge">
<title>Node8&#45;&gt;Node33</title>
<path fill="none" stroke="#191970" d="M1710.7403,-229.9297C1589.7859,-222.8184 1336.6183,-207.0581 1123,-188 1121.6948,-187.8836 1120.3793,-187.7644 1119.0557,-187.6428"/>
<polygon fill="#191970" stroke="#191970" points="1119.0649,-184.128 1108.7789,-186.6675 1118.4035,-191.0967 1119.0649,-184.128"/>
</g>
<!-- Node34 -->
<g id="node35" class="node">
<title>Node34</title>
<polygon fill="none" stroke="#bfbfbf" points="2090,-168.5 2090,-187.5 2146,-187.5 2146,-168.5 2090,-168.5"/>
<text text-anchor="middle" x="2118" y="-175.5" font-family="Helvetica,sans-Serif" font-size="10.00" fill="#000000">sstream</text>
</g>
<!-- Node8&#45;&gt;Node34 -->
<g id="edge49" class="edge">
<title>Node8&#45;&gt;Node34</title>
<path fill="none" stroke="#191970" d="M1852.9658,-224.49C1912.6838,-216.1065 2000.2203,-202.9258 2076,-188 2077.241,-187.7556 2078.5009,-187.4999 2079.7718,-187.2356"/>
<polygon fill="#191970" stroke="#191970" points="2080.581,-190.6414 2089.5995,-185.0812 2079.082,-183.8037 2080.581,-190.6414"/>
</g>
<!-- Node35 -->
<g id="node36" class="node">
<title>Node35</title>
<polygon fill="none" stroke="#bfbfbf" points="675,-168.5 675,-187.5 743,-187.5 743,-168.5 675,-168.5"/>
<text text-anchor="middle" x="709" y="-175.5" font-family="Helvetica,sans-Serif" font-size="10.00" fill="#000000">arrow/stl.h</text>
</g>
<!-- Node8&#45;&gt;Node35 -->
<g id="edge50" class="edge">
<title>Node8&#45;&gt;Node35</title>
<path fill="none" stroke="#191970" d="M1710.8574,-232.4767C1509.5723,-227.9032 938.6373,-213.0396 753,-188 752.8981,-187.9863 752.7961,-187.9724 752.694,-187.9584"/>
<polygon fill="#191970" stroke="#191970" points="753.4366,-184.5337 743.0001,-186.3588 752.2969,-191.4403 753.4366,-184.5337"/>
</g>
<!-- Node36 -->
<g id="node37" class="node">
<title>Node36</title>
<polygon fill="none" stroke="#bfbfbf" points="761.5,-168.5 761.5,-187.5 870.5,-187.5 870.5,-168.5 761.5,-168.5"/>
<text text-anchor="middle" x="816" y="-175.5" font-family="Helvetica,sans-Serif" font-size="10.00" fill="#000000">arrow/type_traits.h</text>
</g>
<!-- Node8&#45;&gt;Node36 -->
<g id="edge51" class="edge">
<title>Node8&#45;&gt;Node36</title>
<path fill="none" stroke="#191970" d="M1710.7684,-232.8841C1559.7518,-229.9718 1196.1574,-220.0692 881.0128,-187.9933"/>
<polygon fill="#191970" stroke="#191970" points="881.0693,-184.4807 870.764,-186.9405 880.354,-191.4441 881.0693,-184.4807"/>
</g>
<!-- Node8&#45;&gt;Node37 -->
<g id="edge53" class="edge">
<title>Node8&#45;&gt;Node37</title>
<path fill="none" stroke="#191970" d="M1853.336,-226.4985C1926.3345,-218.5281 2043.2724,-204.9492 2154.2186,-188.0427"/>
<polygon fill="#191970" stroke="#191970" points="2154.8934,-191.4802 2164.2463,-186.5029 2153.8309,-184.5613 2154.8934,-191.4802"/>
</g>
<!-- Node38 -->
<g id="node39" class="node">
<title>Node38</title>
<polygon fill="none" stroke="#bfbfbf" points="888.5,-168.5 888.5,-187.5 935.5,-187.5 935.5,-168.5 888.5,-168.5"/>
<text text-anchor="middle" x="912" y="-175.5" font-family="Helvetica,sans-Serif" font-size="10.00" fill="#000000">vector</text>
</g>
<!-- Node8&#45;&gt;Node38 -->
<g id="edge55" class="edge">
<title>Node8&#45;&gt;Node38</title>
<path fill="none" stroke="#191970" d="M1710.8419,-232.2769C1540.0131,-227.7953 1109.4206,-214.3641 945.5647,-187.5986"/>
<polygon fill="#191970" stroke="#191970" points="946.0751,-184.1352 935.6283,-185.8998 944.8954,-191.035 946.0751,-184.1352"/>
</g>
<!-- Node9&#45;&gt;Node1 -->
<g id="edge34" class="edge">
<title>Node9&#45;&gt;Node1</title>
<path fill="none" stroke="#191970" d="M1199.9537,-173.8822C1068.9961,-163.9045 734.7763,-138.4401 588.8892,-127.3249"/>
<polygon fill="#191970" stroke="#191970" points="588.9532,-123.8197 578.7162,-126.5498 588.4213,-130.7995 588.9532,-123.8197"/>
</g>
<!-- Node9&#45;&gt;Node3 -->
<g id="edge39" class="edge">
<title>Node9&#45;&gt;Node3</title>
<path fill="none" stroke="#191970" d="M1199.8448,-171.185C1130.2058,-162.3751 1005.5396,-146.4467 899,-132 761.2532,-113.3216 600.7906,-90.3218 508.6345,-76.9927"/>
<polygon fill="#191970" stroke="#191970" points="508.9614,-73.5036 498.5632,-75.5352 507.9588,-80.4314 508.9614,-73.5036"/>
</g>
<!-- Node9&#45;&gt;Node6 -->
<g id="edge37" class="edge">
<title>Node9&#45;&gt;Node6</title>
<path fill="none" stroke="#191970" d="M1199.7499,-173.7678C1174.8499,-171.8878 1144.9347,-169.717 1118,-168 821.7254,-149.1139 745.0492,-172.8703 451,-132 361.6448,-119.5804 259.2189,-93.6601 202.5272,-78.2568"/>
<polygon fill="#191970" stroke="#191970" points="203.3922,-74.8649 192.823,-75.6013 201.5445,-81.6167 203.3922,-74.8649"/>
</g>
<!-- Node10 -->
<g id="node11" class="node">
<title>Node10</title>
<g id="a_node11"><a xlink:href="../../dd/dce/Pack_8h.html" target="_top" xlink:title="Framework/Pack.h">
<polygon fill="none" stroke="#000000" points="1637.5,-56.5 1637.5,-75.5 1742.5,-75.5 1742.5,-56.5 1637.5,-56.5"/>
<text text-anchor="middle" x="1690" y="-63.5" font-family="Helvetica,sans-Serif" font-size="10.00" fill="#000000">Framework/Pack.h</text>
</a>
</g>
</g>
<!-- Node9&#45;&gt;Node10 -->
<g id="edge10" class="edge">
<title>Node9&#45;&gt;Node10</title>
<path fill="none" stroke="#191970" d="M1308.3178,-170.3405C1356.7909,-162.8264 1429.4179,-149.8896 1491,-132 1514.3807,-125.2079 1519.0266,-120.0629 1542,-112 1577.1276,-99.6714 1617.516,-87.2324 1647.2177,-78.4036"/>
<polygon fill="#191970" stroke="#191970" points="1648.2606,-81.7451 1656.8577,-75.5532 1646.2757,-75.0324 1648.2606,-81.7451"/>
</g>
<!-- Node14 -->
<g id="node15" class="node">
<title>Node14</title>
<g id="a_node15"><a xlink:href="../../d1/d00/CheckTypes_8h.html" target="_top" xlink:title="Framework/CheckTypes.h">
<polygon fill="none" stroke="#000000" points="908,-56.5 908,-75.5 1048,-75.5 1048,-56.5 908,-56.5"/>
<text text-anchor="middle" x="978" y="-63.5" font-family="Helvetica,sans-Serif" font-size="10.00" fill="#000000">Framework/CheckTypes.h</text>
</a>
</g>
</g>
<!-- Node9&#45;&gt;Node14 -->
<g id="edge14" class="edge">
<title>Node9&#45;&gt;Node14</title>
<path fill="none" stroke="#191970" d="M1199.9071,-174.2056C1156.18,-169.2749 1094.1902,-157.9561 1046,-132 1023.9632,-120.1306 1004.1023,-99.0585 991.6142,-83.9142"/>
<polygon fill="#191970" stroke="#191970" points="994.119,-81.4409 985.1527,-75.7968 988.6423,-85.8005 994.119,-81.4409"/>
</g>
<!-- Node9&#45;&gt;Node15 -->
<g id="edge15" class="edge">
<title>Node9&#45;&gt;Node15</title>
<path fill="none" stroke="#191970" d="M1308.254,-170.679C1379.6475,-161.0452 1505.7264,-144.0321 1588.3203,-132.8869"/>
<polygon fill="#191970" stroke="#191970" points="1588.9789,-136.3298 1598.421,-131.5239 1588.0427,-129.3927 1588.9789,-136.3298"/>
</g>
<!-- Node17 -->
<g id="node18" class="node">
<title>Node17</title>
<g id="a_node18"><a xlink:href="../../d9/de8/CompilerBuiltins_8h.html" target="_top" xlink:title="Framework/CompilerBuiltins.h">
<polygon fill="none" stroke="#000000" points="726,-56.5 726,-75.5 890,-75.5 890,-56.5 726,-56.5"/>
<text text-anchor="middle" x="808" y="-63.5" font-family="Helvetica,sans-Serif" font-size="10.00" fill="#000000">Framework/CompilerBuiltins.h</text>
</a>
</g>
</g>
<!-- Node9&#45;&gt;Node17 -->
<g id="edge18" class="edge">
<title>Node9&#45;&gt;Node17</title>
<path fill="none" stroke="#191970" d="M1199.7509,-171.2197C1150.53,-164.2209 1076.3428,-151.5446 1014,-132 993.1159,-125.4528 989.5725,-119.469 969,-112 932.1388,-98.6172 889.4193,-86.5653 857.2513,-78.1578"/>
<polygon fill="#191970" stroke="#191970" points="857.7564,-74.6734 847.1987,-75.5591 856.0044,-81.4506 857.7564,-74.6734"/>
</g>
<!-- Node18 -->
<g id="node19" class="node">
<title>Node18</title>
<g id="a_node19"><a xlink:href="../../db/d31/Traits_8h.html" target="_top" xlink:title="Framework/Traits.h">
<polygon fill="none" stroke="#000000" points="1848.5,-112.5 1848.5,-131.5 1957.5,-131.5 1957.5,-112.5 1848.5,-112.5"/>
<text text-anchor="middle" x="1903" y="-119.5" font-family="Helvetica,sans-Serif" font-size="10.00" fill="#000000">Framework/Traits.h</text>
</a>
</g>
</g>
<!-- Node9&#45;&gt;Node18 -->
<g id="edge19" class="edge">
<title>Node9&#45;&gt;Node18</title>
<path fill="none" stroke="#191970" d="M1308.2171,-173.3218C1427.1604,-163.0586 1710.5606,-138.6049 1838.4399,-127.5707"/>
<polygon fill="#191970" stroke="#191970" points="1838.8187,-131.0511 1848.4808,-126.7043 1838.2169,-124.077 1838.8187,-131.0511"/>
</g>
<!-- Node20 -->
<g id="node21" class="node">
<title>Node20</title>
<g id="a_node21"><a xlink:href="../../d0/d91/Expressions_8h.html" target="_top" xlink:title="Framework/Expressions.h">
<polygon fill="none" stroke="#000000" points="1054.5,-112.5 1054.5,-131.5 1195.5,-131.5 1195.5,-112.5 1054.5,-112.5"/>
<text text-anchor="middle" x="1125" y="-119.5" font-family="Helvetica,sans-Serif" font-size="10.00" fill="#000000">Framework/Expressions.h</text>
</a>
</g>
</g>
<!-- Node9&#45;&gt;Node20 -->
<g id="edge21" class="edge">
<title>Node9&#45;&gt;Node20</title>
<path fill="none" stroke="#191970" d="M1231.8241,-168.3733C1211.0234,-159.3435 1179.7083,-145.7494 1156.3542,-135.6111"/>
<polygon fill="#191970" stroke="#191970" points="1157.4532,-132.2727 1146.8865,-131.5011 1154.6657,-138.6938 1157.4532,-132.2727"/>
</g>
<!-- Node9&#45;&gt;Node22 -->
<g id="edge35" class="edge">
<title>Node9&#45;&gt;Node22</title>
<path fill="none" stroke="#191970" d="M1308.0834,-173.074C1364.4036,-167.0016 1454.7447,-154.5954 1530,-132 1550.9619,-125.7062 1554.1531,-118.6649 1575,-112 1648.4776,-88.5086 1671.5464,-91.7208 1750.4519,-76.2755"/>
<polygon fill="#191970" stroke="#191970" points="1751.238,-79.6877 1760.3585,-74.2963 1749.8666,-72.8233 1751.238,-79.6877"/>
</g>
<!-- Node23 -->
<g id="node24" class="node">
<title>Node23</title>
<polygon fill="none" stroke="#bfbfbf" points="1472.5,-56.5 1472.5,-75.5 1619.5,-75.5 1619.5,-56.5 1472.5,-56.5"/>
<text text-anchor="middle" x="1546" y="-63.5" font-family="Helvetica,sans-Serif" font-size="10.00" fill="#000000">gandiva/selection_vector.h</text>
</g>
<!-- Node9&#45;&gt;Node23 -->
<g id="edge40" class="edge">
<title>Node9&#45;&gt;Node23</title>
<path fill="none" stroke="#191970" d="M1308.4283,-172.5455C1351.4559,-166.6933 1412.1916,-154.9452 1461,-132 1487.2048,-119.6809 1512.8345,-98.0878 1528.9809,-82.9649"/>
<polygon fill="#191970" stroke="#191970" points="1531.7257,-85.1815 1536.5128,-75.7298 1526.8764,-80.1332 1531.7257,-85.1815"/>
</g>
<!-- Node28 -->
<g id="node29" class="node">
<title>Node28</title>
<polygon fill="none" stroke="#bfbfbf" points="1214,-112.5 1214,-131.5 1294,-131.5 1294,-112.5 1214,-112.5"/>
<text text-anchor="middle" x="1254" y="-119.5" font-family="Helvetica,sans-Serif" font-size="10.00" fill="#000000">arrow/array.h</text>
</g>
<!-- Node9&#45;&gt;Node28 -->
<g id="edge36" class="edge">
<title>Node9&#45;&gt;Node28</title>
<path fill="none" stroke="#191970" d="M1254,-168.2455C1254,-160.9382 1254,-150.6944 1254,-141.7046"/>
<polygon fill="#191970" stroke="#191970" points="1257.5001,-141.6426 1254,-131.6427 1250.5001,-141.6427 1257.5001,-141.6426"/>
</g>
<!-- Node29 -->
<g id="node30" class="node">
<title>Node29</title>
<polygon fill="none" stroke="#bfbfbf" points="1312.5,-112.5 1312.5,-131.5 1451.5,-131.5 1451.5,-112.5 1312.5,-112.5"/>
<text text-anchor="middle" x="1382" y="-119.5" font-family="Helvetica,sans-Serif" font-size="10.00" fill="#000000">arrow/compute/context.h</text>
</g>
<!-- Node9&#45;&gt;Node29 -->
<g id="edge38" class="edge">
<title>Node9&#45;&gt;Node29</title>
<path fill="none" stroke="#191970" d="M1276.004,-168.3733C1296.6435,-159.3435 1327.7158,-145.7494 1350.8889,-135.6111"/>
<polygon fill="#191970" stroke="#191970" points="1352.5245,-138.7159 1360.2831,-131.5011 1349.7187,-132.3028 1352.5245,-138.7159"/>
</g>
<!-- Node30 -->
<g id="node31" class="node">
<title>Node30</title>
<polygon fill="none" stroke="#bfbfbf" points="908,-112.5 908,-131.5 960,-131.5 960,-112.5 908,-112.5"/>
<text text-anchor="middle" x="934" y="-119.5" font-family="Helvetica,sans-Serif" font-size="10.00" fill="#000000">cassert</text>
</g>
<!-- Node9&#45;&gt;Node30 -->
<g id="edge41" class="edge">
<title>Node9&#45;&gt;Node30</title>
<path fill="none" stroke="#191970" d="M1199.8183,-170.447C1143.2376,-162.2448 1052.0317,-148.1353 974,-132 972.7382,-131.7391 971.4561,-131.4654 970.1628,-131.1821"/>
<polygon fill="#191970" stroke="#191970" points="970.711,-127.7165 960.1793,-128.872 969.1329,-134.5364 970.711,-127.7165"/>
</g>
<!-- Node11 -->
<g id="node12" class="node">
<title>Node11</title>
<polygon fill="none" stroke="#bfbfbf" points="1596.5,-.5 1596.5,-19.5 1649.5,-19.5 1649.5,-.5 1596.5,-.5"/>
<text text-anchor="middle" x="1623" y="-7.5" font-family="Helvetica,sans-Serif" font-size="10.00" fill="#000000">cstddef</text>
</g>
<!-- Node10&#45;&gt;Node11 -->
<g id="edge11" class="edge">
<title>Node10&#45;&gt;Node11</title>
<path fill="none" stroke="#191970" d="M1678.3295,-56.2455C1668.4339,-47.9746 1654.0373,-35.9416 1642.4099,-26.2232"/>
<polygon fill="#191970" stroke="#191970" points="1644.4542,-23.3703 1634.5368,-19.6427 1639.965,-28.7413 1644.4542,-23.3703"/>
</g>
<!-- Node12 -->
<g id="node13" class="node">
<title>Node12</title>
<polygon fill="none" stroke="#bfbfbf" points="1667.5,-.5 1667.5,-19.5 1712.5,-19.5 1712.5,-.5 1667.5,-.5"/>
<text text-anchor="middle" x="1690" y="-7.5" font-family="Helvetica,sans-Serif" font-size="10.00" fill="#000000">utility</text>
</g>
<!-- Node10&#45;&gt;Node12 -->
<g id="edge12" class="edge">
<title>Node10&#45;&gt;Node12</title>
<path fill="none" stroke="#191970" d="M1690,-56.2455C1690,-48.9382 1690,-38.6944 1690,-29.7046"/>
<polygon fill="#191970" stroke="#191970" points="1693.5001,-29.6426 1690,-19.6427 1686.5001,-29.6427 1693.5001,-29.6426"/>
</g>
<!-- Node13 -->
<g id="node14" class="node">
<title>Node13</title>
<polygon fill="none" stroke="#bfbfbf" points="1731,-.5 1731,-19.5 1777,-19.5 1777,-.5 1731,-.5"/>
<text text-anchor="middle" x="1754" y="-7.5" font-family="Helvetica,sans-Serif" font-size="10.00" fill="#000000">cstdio</text>
</g>
<!-- Node10&#45;&gt;Node13 -->
<g id="edge13" class="edge">
<title>Node10&#45;&gt;Node13</title>
<path fill="none" stroke="#191970" d="M1701.1479,-56.2455C1710.5087,-48.0549 1724.0858,-36.1749 1735.1349,-26.5069"/>
<polygon fill="#191970" stroke="#191970" points="1737.7588,-28.8618 1742.9798,-19.6427 1733.1492,-23.5937 1737.7588,-28.8618"/>
</g>
<!-- Node15&#45;&gt;Node10 -->
<g id="edge16" class="edge">
<title>Node15&#45;&gt;Node10</title>
<path fill="none" stroke="#191970" d="M1672.6579,-112.2455C1675.4584,-104.7776 1679.409,-94.2427 1682.8324,-85.1137"/>
<polygon fill="#191970" stroke="#191970" points="1686.1499,-86.2349 1686.384,-75.6427 1679.5955,-83.777 1686.1499,-86.2349"/>
</g>
<!-- Node15&#45;&gt;Node16 -->
<g id="edge17" class="edge">
<title>Node15&#45;&gt;Node16</title>
<path fill="none" stroke="#191970" d="M1707.0817,-112.4369C1746.6148,-102.5093 1808.3142,-87.0153 1849.4322,-76.6897"/>
<polygon fill="#191970" stroke="#191970" points="1850.3129,-80.0773 1859.1593,-74.247 1848.6079,-73.2881 1850.3129,-80.0773"/>
</g>
<!-- Node19 -->
<g id="node20" class="node">
<title>Node19</title>
<polygon fill="none" stroke="#bfbfbf" points="1948.5,-56.5 1948.5,-75.5 2017.5,-75.5 2017.5,-56.5 1948.5,-56.5"/>
<text text-anchor="middle" x="1983" y="-63.5" font-family="Helvetica,sans-Serif" font-size="10.00" fill="#000000">type_traits</text>
</g>
<!-- Node18&#45;&gt;Node19 -->
<g id="edge20" class="edge">
<title>Node18&#45;&gt;Node19</title>
<path fill="none" stroke="#191970" d="M1916.9349,-112.2455C1929.0947,-103.7337 1946.9464,-91.2375 1961.0285,-81.3801"/>
<polygon fill="#191970" stroke="#191970" points="1963.0395,-84.2447 1969.2248,-75.6427 1959.0253,-78.51 1963.0395,-84.2447"/>
</g>
<!-- Node20&#45;&gt;Node2 -->
<g id="edge22" class="edge">
<title>Node20&#45;&gt;Node2</title>
<path fill="none" stroke="#191970" d="M1054.1804,-114.5338C974.9054,-106.059 842.3431,-91.5384 718.1528,-76.121"/>
<polygon fill="#191970" stroke="#191970" points="718.4387,-72.6296 708.0828,-74.8665 717.5734,-79.5759 718.4387,-72.6296"/>
</g>
<!-- Node20&#45;&gt;Node7 -->
<g id="edge32" class="edge">
<title>Node20&#45;&gt;Node7</title>
<path fill="none" stroke="#191970" d="M1054.2842,-117.0383C922.6141,-107.6734 647.1131,-87.4427 572.4031,-75.6485"/>
<polygon fill="#191970" stroke="#191970" points="572.6479,-72.1371 562.1893,-73.8309 571.4215,-79.0288 572.6479,-72.1371"/>
</g>
<!-- Node20&#45;&gt;Node10 -->
<g id="edge24" class="edge">
<title>Node20&#45;&gt;Node10</title>
<path fill="none" stroke="#191970" d="M1195.6528,-113.0142C1198.8105,-112.6612 1201.9375,-112.3213 1205,-112 1389.8758,-92.6045 1439.6309,-99.0822 1627.5369,-76.1041"/>
<polygon fill="#191970" stroke="#191970" points="1627.9692,-79.5774 1637.465,-74.8785 1627.1115,-72.6301 1627.9692,-79.5774"/>
</g>
<!-- Node20&#45;&gt;Node14 -->
<g id="edge25" class="edge">
<title>Node20&#45;&gt;Node14</title>
<path fill="none" stroke="#191970" d="M1099.7298,-112.3733C1075.6034,-103.1822 1039.0638,-89.2624 1012.3123,-79.0713"/>
<polygon fill="#191970" stroke="#191970" points="1013.5313,-75.7904 1002.9404,-75.5011 1011.0393,-82.3318 1013.5313,-75.7904"/>
</g>
<!-- Node20&#45;&gt;Node17 -->
<g id="edge23" class="edge">
<title>Node20&#45;&gt;Node17</title>
<path fill="none" stroke="#191970" d="M1070.8659,-112.4369C1015.702,-102.6918 930.1763,-87.5832 871.7649,-77.2645"/>
<polygon fill="#191970" stroke="#191970" points="872.3672,-73.8167 861.9108,-75.5237 871.1494,-80.71 872.3672,-73.8167"/>
</g>
<!-- Node21 -->
<g id="node22" class="node">
<title>Node21</title>
<polygon fill="none" stroke="#bfbfbf" points="1242.5,-56.5 1242.5,-75.5 1343.5,-75.5 1343.5,-56.5 1242.5,-56.5"/>
<text text-anchor="middle" x="1293" y="-63.5" font-family="Helvetica,sans-Serif" font-size="10.00" fill="#000000">arrow/type_fwd.h</text>
</g>
<!-- Node20&#45;&gt;Node21 -->
<g id="edge26" class="edge">
<title>Node20&#45;&gt;Node21</title>
<path fill="none" stroke="#191970" d="M1153.8802,-112.3733C1181.8161,-103.0613 1224.3142,-88.8953 1254.9869,-78.671"/>
<polygon fill="#191970" stroke="#191970" points="1256.1166,-81.9839 1264.4966,-75.5011 1253.903,-75.3431 1256.1166,-81.9839"/>
</g>
<!-- Node20&#45;&gt;Node22 -->
<g id="edge27" class="edge">
<title>Node20&#45;&gt;Node22</title>
<path fill="none" stroke="#191970" d="M1195.6455,-112.9413C1198.8052,-112.608 1201.9346,-112.2922 1205,-112 1444.2217,-89.1964 1508.7753,-107.9067 1750.2843,-76.0739"/>
<polygon fill="#191970" stroke="#191970" points="1750.9806,-79.5121 1760.4302,-74.7208 1750.0552,-72.5736 1750.9806,-79.5121"/>
</g>
<!-- Node20&#45;&gt;Node23 -->
<g id="edge28" class="edge">
<title>Node20&#45;&gt;Node23</title>
<path fill="none" stroke="#191970" d="M1195.9408,-112.5637C1270.0621,-102.7043 1386.2004,-87.256 1464.1542,-76.8869"/>
<polygon fill="#191970" stroke="#191970" points="1464.9647,-80.31 1474.4159,-75.5219 1464.0417,-73.3711 1464.9647,-80.31"/>
</g>
<!-- Node24 -->
<g id="node25" class="node">
<title>Node24</title>
<polygon fill="none" stroke="#bfbfbf" points="1362,-56.5 1362,-75.5 1454,-75.5 1454,-56.5 1362,-56.5"/>
<text text-anchor="middle" x="1408" y="-63.5" font-family="Helvetica,sans-Serif" font-size="10.00" fill="#000000">gandiva/node.h</text>
</g>
<!-- Node20&#45;&gt;Node24 -->
<g id="edge29" class="edge">
<title>Node20&#45;&gt;Node24</title>
<path fill="none" stroke="#191970" d="M1173.3279,-112.4369C1222.7601,-102.6552 1299.5018,-87.4696 1351.6609,-77.1484"/>
<polygon fill="#191970" stroke="#191970" points="1352.6192,-80.5267 1361.7495,-75.152 1351.2603,-73.6598 1352.6192,-80.5267"/>
</g>
<!-- Node25 -->
<g id="node26" class="node">
<title>Node25</title>
<polygon fill="none" stroke="#bfbfbf" points="1066.5,-56.5 1066.5,-75.5 1155.5,-75.5 1155.5,-56.5 1066.5,-56.5"/>
<text text-anchor="middle" x="1111" y="-63.5" font-family="Helvetica,sans-Serif" font-size="10.00" fill="#000000">gandiva/filter.h</text>
</g>
<!-- Node20&#45;&gt;Node25 -->
<g id="edge30" class="edge">
<title>Node20&#45;&gt;Node25</title>
<path fill="none" stroke="#191970" d="M1122.5614,-112.2455C1120.7145,-104.8579 1118.1172,-94.4689 1115.8522,-85.4087"/>
<polygon fill="#191970" stroke="#191970" points="1119.2316,-84.4952 1113.4107,-75.6427 1112.4406,-86.193 1119.2316,-84.4952"/>
</g>
<!-- Node26 -->
<g id="node27" class="node">
<title>Node26</title>
<polygon fill="none" stroke="#bfbfbf" points="1173.5,-56.5 1173.5,-75.5 1224.5,-75.5 1224.5,-56.5 1173.5,-56.5"/>
<text text-anchor="middle" x="1199" y="-63.5" font-family="Helvetica,sans-Serif" font-size="10.00" fill="#000000">variant</text>
</g>
<!-- Node20&#45;&gt;Node26 -->
<g id="edge31" class="edge">
<title>Node20&#45;&gt;Node26</title>
<path fill="none" stroke="#191970" d="M1137.8898,-112.2455C1148.9254,-103.8943 1165.0292,-91.7076 1177.9353,-81.9408"/>
<polygon fill="#191970" stroke="#191970" points="1180.3959,-84.4681 1186.2579,-75.6427 1176.1717,-78.8862 1180.3959,-84.4681"/>
</g>
<!-- Node20&#45;&gt;Node27 -->
<g id="edge33" class="edge">
<title>Node20&#45;&gt;Node27</title>
<path fill="none" stroke="#191970" d="M1195.6379,-112.8569C1198.7996,-112.5465 1201.9315,-112.2585 1205,-112 1569.3923,-81.2963 1663.4755,-115.6786 2027,-76 2032.8225,-75.3645 2038.949,-74.4998 2044.9392,-73.5434"/>
<polygon fill="#191970" stroke="#191970" points="2045.5385,-76.9918 2054.8137,-71.8712 2044.3697,-70.09 2045.5385,-76.9918"/>
</g>
<!-- Node31&#45;&gt;Node18 -->
<g id="edge43" class="edge">
<title>Node31&#45;&gt;Node18</title>
<path fill="none" stroke="#191970" d="M1918.6905,-168.2455C1916.1567,-160.7776 1912.5823,-150.2427 1909.485,-141.1137"/>
<polygon fill="#191970" stroke="#191970" points="1912.7991,-139.9879 1906.2716,-131.6427 1906.1702,-142.237 1912.7991,-139.9879"/>
</g>
<!-- Node31&#45;&gt;Node19 -->
<g id="edge45" class="edge">
<title>Node31&#45;&gt;Node19</title>
<path fill="none" stroke="#191970" d="M1934.5778,-168.41C1944.8227,-159.9307 1958.8759,-146.657 1967,-132 1974.9485,-117.6597 1978.9828,-99.4238 1981.01,-85.7561"/>
<polygon fill="#191970" stroke="#191970" points="1984.5201,-85.8913 1982.2826,-75.5355 1977.5737,-85.0264 1984.5201,-85.8913"/>
</g>
<!-- Node31&#45;&gt;Node32 -->
<g id="edge44" class="edge">
<title>Node31&#45;&gt;Node32</title>
<path fill="none" stroke="#191970" d="M1941.4254,-168.3733C1959.4021,-159.4644 1986.3441,-146.1127 2006.709,-136.0203"/>
<polygon fill="#191970" stroke="#191970" points="2008.4222,-139.0776 2015.8281,-131.5011 2005.3139,-132.8055 2008.4222,-139.0776"/>
</g>
<!-- Node33&#45;&gt;Node17 -->
<g id="edge48" class="edge">
<title>Node33&#45;&gt;Node17</title>
<path fill="none" stroke="#191970" d="M994.8127,-168.4994C967.6053,-160.6261 929.867,-148.1249 899,-132 872.2418,-118.0215 844.5952,-96.8383 826.9037,-82.2611"/>
<polygon fill="#191970" stroke="#191970" points="828.9796,-79.4342 819.066,-75.6961 824.4847,-84.8005 828.9796,-79.4342"/>
</g>
</g>
</svg>
