<?xml version="1.0" encoding="UTF-8" standalone="no"?>
<!DOCTYPE svg PUBLIC "-//W3C//DTD SVG 1.1//EN"
 "http://www.w3.org/Graphics/SVG/1.1/DTD/svg11.dtd">
<!-- Generated by graphviz version 2.40.1 (20161225.0304)
 -->
<!-- Title: /home/travis/build/AliceO2Group/AliceO2/Detectors/MUON/MCH/PreClustering/src/PreClusterFinder.cxx Pages: 1 -->
<svg width="1117pt" height="318pt"
 viewBox="0.00 0.00 1117.00 318.00" xmlns="http://www.w3.org/2000/svg" xmlns:xlink="http://www.w3.org/1999/xlink">
<g id="graph0" class="graph" transform="scale(1 1) rotate(0) translate(4 314)">
<title>/home/travis/build/AliceO2Group/AliceO2/Detectors/MUON/MCH/PreClustering/src/PreClusterFinder.cxx</title>
<!-- Node0 -->
<g id="node1" class="node">
<title>Node0</title>
<polygon fill="#bfbfbf" stroke="#000000" points="546.5,-257.5 546.5,-309.5 740.5,-309.5 740.5,-257.5 546.5,-257.5"/>
<text text-anchor="start" x="554.5" y="-297.5" font-family="Helvetica,sans-Serif" font-size="10.00" fill="#000000">/home/travis/build</text>
<text text-anchor="start" x="554.5" y="-286.5" font-family="Helvetica,sans-Serif" font-size="10.00" fill="#000000">/AliceO2Group/AliceO2</text>
<text text-anchor="start" x="554.5" y="-275.5" font-family="Helvetica,sans-Serif" font-size="10.00" fill="#000000">/Detectors/MUON/MCH/PreClustering</text>
<text text-anchor="middle" x="643.5" y="-264.5" font-family="Helvetica,sans-Serif" font-size="10.00" fill="#000000">/src/PreClusterFinder.cxx</text>
</g>
<!-- Node1 -->
<g id="node2" class="node">
<title>Node1</title>
<g id="a_node2"><a xlink:href="../../db/dad/PreClusterFinder_8h.html" target="_top" xlink:title="MCHPreClustering/PreCluster\lFinder.h">
<polygon fill="none" stroke="#000000" points="231.5,-190.5 231.5,-220.5 389.5,-220.5 389.5,-190.5 231.5,-190.5"/>
<text text-anchor="start" x="239.5" y="-208.5" font-family="Helvetica,sans-Serif" font-size="10.00" fill="#000000">MCHPreClustering/PreCluster</text>
<text text-anchor="middle" x="310.5" y="-197.5" font-family="Helvetica,sans-Serif" font-size="10.00" fill="#000000">Finder.h</text>
</a>
</g>
</g>
<!-- Node0&#45;&gt;Node1 -->
<g id="edge1" class="edge">
<title>Node0&#45;&gt;Node1</title>
<path fill="none" stroke="#191970" d="M546.2874,-260.7295C494.671,-248.6392 432.2418,-234.0161 384.5911,-222.8547"/>
<polygon fill="#191970" stroke="#191970" points="385.1912,-219.4006 374.6565,-220.5276 383.5947,-226.2161 385.1912,-219.4006"/>
</g>
<!-- Node5 -->
<g id="node6" class="node">
<title>Node5</title>
<polygon fill="none" stroke="#bfbfbf" points="495,-.5 495,-19.5 542,-19.5 542,-.5 495,-.5"/>
<text text-anchor="middle" x="518.5" y="-7.5" font-family="Helvetica,sans-Serif" font-size="10.00" fill="#000000">vector</text>
</g>
<!-- Node0&#45;&gt;Node5 -->
<g id="edge16" class="edge">
<title>Node0&#45;&gt;Node5</title>
<path fill="none" stroke="#191970" d="M546.4554,-264.5497C502.118,-253.7264 456.5635,-238.7689 443.5,-221 435.3389,-209.8994 436.9477,-202.12 443.5,-190 457.394,-164.3 482.8671,-178.6808 498.5,-154 522.9423,-115.4112 522.8214,-59.4163 520.6513,-29.9108"/>
<polygon fill="#191970" stroke="#191970" points="524.1116,-29.3107 519.7315,-19.6637 517.1397,-29.9366 524.1116,-29.3107"/>
</g>
<!-- Node11 -->
<g id="node12" class="node">
<title>Node11</title>
<polygon fill="none" stroke="#bfbfbf" points="452.5,-196 452.5,-215 502.5,-215 502.5,-196 452.5,-196"/>
<text text-anchor="middle" x="477.5" y="-203" font-family="Helvetica,sans-Serif" font-size="10.00" fill="#000000">chrono</text>
</g>
<!-- Node0&#45;&gt;Node11 -->
<g id="edge13" class="edge">
<title>Node0&#45;&gt;Node11</title>
<path fill="none" stroke="#191970" d="M587.7626,-257.3101C560.8511,-244.665 529.6379,-229.9985 507.3048,-219.5046"/>
<polygon fill="#191970" stroke="#191970" points="508.5553,-216.2252 498.0161,-215.1401 505.5783,-222.5606 508.5553,-216.2252"/>
</g>
<!-- Node12 -->
<g id="node13" class="node">
<title>Node12</title>
<polygon fill="none" stroke="#bfbfbf" points="562.5,-.5 562.5,-19.5 620.5,-19.5 620.5,-.5 562.5,-.5"/>
<text text-anchor="middle" x="591.5" y="-7.5" font-family="Helvetica,sans-Serif" font-size="10.00" fill="#000000">memory</text>
</g>
<!-- Node0&#45;&gt;Node12 -->
<g id="edge14" class="edge">
<title>Node0&#45;&gt;Node12</title>
<path fill="none" stroke="#191970" d="M660.4648,-257.2108C666.4643,-246.4362 672.4712,-233.5617 675.5,-221 678.7295,-207.6061 678.484,-203.4507 675.5,-190 661.4887,-126.8433 622.9059,-59.5914 603.2867,-28.16"/>
<polygon fill="#191970" stroke="#191970" points="606.168,-26.1681 597.855,-19.5996 600.2574,-29.9185 606.168,-26.1681"/>
</g>
<!-- Node13 -->
<g id="node14" class="node">
<title>Node13</title>
<polygon fill="none" stroke="#bfbfbf" points="1044,-.5 1044,-19.5 1109,-19.5 1109,-.5 1044,-.5"/>
<text text-anchor="middle" x="1076.5" y="-7.5" font-family="Helvetica,sans-Serif" font-size="10.00" fill="#000000">stdexcept</text>
</g>
<!-- Node0&#45;&gt;Node13 -->
<g id="edge15" class="edge">
<title>Node0&#45;&gt;Node13</title>
<path fill="none" stroke="#191970" d="M740.5419,-269.8023C810.2482,-258.5523 897.0631,-241.2158 927.5,-221 1001.8849,-171.5947 1050.7002,-71.3877 1068.7191,-29.3007"/>
<polygon fill="#191970" stroke="#191970" points="1072.0129,-30.4957 1072.6335,-19.9191 1065.5527,-27.8002 1072.0129,-30.4957"/>
</g>
<!-- Node14 -->
<g id="node15" class="node">
<title>Node14</title>
<polygon fill="none" stroke="#bfbfbf" points="722.5,-196 722.5,-215 808.5,-215 808.5,-196 722.5,-196"/>
<text text-anchor="middle" x="765.5" y="-203" font-family="Helvetica,sans-Serif" font-size="10.00" fill="#000000">fairmq/Tools.h</text>
</g>
<!-- Node0&#45;&gt;Node14 -->
<g id="edge17" class="edge">
<title>Node0&#45;&gt;Node14</title>
<path fill="none" stroke="#191970" d="M684.4636,-257.3101C703.4438,-245.1753 725.3353,-231.1791 741.5768,-220.7952"/>
<polygon fill="#191970" stroke="#191970" points="743.882,-223.4756 750.4219,-215.1401 740.1113,-217.5779 743.882,-223.4756"/>
</g>
<!-- Node15 -->
<g id="node16" class="node">
<title>Node15</title>
<polygon fill="none" stroke="#bfbfbf" points="827,-196 827,-215 918,-215 918,-196 827,-196"/>
<text text-anchor="middle" x="872.5" y="-203" font-family="Helvetica,sans-Serif" font-size="10.00" fill="#000000">FairMQLogger.h</text>
</g>
<!-- Node0&#45;&gt;Node15 -->
<g id="edge18" class="edge">
<title>Node0&#45;&gt;Node15</title>
<path fill="none" stroke="#191970" d="M720.0721,-257.4187C758.6722,-244.271 803.7557,-228.9151 834.8267,-218.332"/>
<polygon fill="#191970" stroke="#191970" points="836.0589,-221.6098 844.3964,-215.0724 833.8019,-214.9836 836.0589,-221.6098"/>
</g>
<!-- Node16 -->
<g id="node17" class="node">
<title>Node16</title>
<g id="a_node17"><a xlink:href="../../d4/d03/PreClusterFinderMapping_8h.html" target="_top" xlink:title="PreClusterFinderMapping.h">
<polygon fill="none" stroke="#000000" points="520.5,-196 520.5,-215 666.5,-215 666.5,-196 520.5,-196"/>
<text text-anchor="middle" x="593.5" y="-203" font-family="Helvetica,sans-Serif" font-size="10.00" fill="#000000">PreClusterFinderMapping.h</text>
</a>
</g>
</g>
<!-- Node0&#45;&gt;Node16 -->
<g id="edge19" class="edge">
<title>Node0&#45;&gt;Node16</title>
<path fill="none" stroke="#191970" d="M626.5723,-257.0928C619.5303,-246.1073 611.5311,-233.6285 605.1637,-223.6954"/>
<polygon fill="#191970" stroke="#191970" points="607.9868,-221.6138 599.6435,-215.0839 602.0936,-225.3915 607.9868,-221.6138"/>
</g>
<!-- Node2 -->
<g id="node3" class="node">
<title>Node2</title>
<polygon fill="none" stroke="#bfbfbf" points="331.5,-129 331.5,-148 383.5,-148 383.5,-129 331.5,-129"/>
<text text-anchor="middle" x="357.5" y="-136" font-family="Helvetica,sans-Serif" font-size="10.00" fill="#000000">cassert</text>
</g>
<!-- Node1&#45;&gt;Node2 -->
<g id="edge2" class="edge">
<title>Node1&#45;&gt;Node2</title>
<path fill="none" stroke="#191970" d="M321.165,-190.2967C328.2035,-180.2631 337.4577,-167.0709 344.8652,-156.5113"/>
<polygon fill="#191970" stroke="#191970" points="347.9197,-158.2516 350.7973,-148.055 342.1891,-154.2316 347.9197,-158.2516"/>
</g>
<!-- Node3 -->
<g id="node4" class="node">
<title>Node3</title>
<polygon fill="none" stroke="#bfbfbf" points="439.5,-129 439.5,-148 489.5,-148 489.5,-129 439.5,-129"/>
<text text-anchor="middle" x="464.5" y="-136" font-family="Helvetica,sans-Serif" font-size="10.00" fill="#000000">cstdint</text>
</g>
<!-- Node1&#45;&gt;Node3 -->
<g id="edge3" class="edge">
<title>Node1&#45;&gt;Node3</title>
<path fill="none" stroke="#191970" d="M345.0606,-190.4639C371.4818,-178.969 407.5979,-163.2561 433.1791,-152.1266"/>
<polygon fill="#191970" stroke="#191970" points="434.6519,-155.3028 442.4253,-148.1039 431.8592,-148.884 434.6519,-155.3028"/>
</g>
<!-- Node4 -->
<g id="node5" class="node">
<title>Node4</title>
<polygon fill="none" stroke="#bfbfbf" points="0,-129 0,-148 93,-148 93,-129 0,-129"/>
<text text-anchor="middle" x="46.5" y="-136" font-family="Helvetica,sans-Serif" font-size="10.00" fill="#000000">unordered_map</text>
</g>
<!-- Node1&#45;&gt;Node4 -->
<g id="edge4" class="edge">
<title>Node1&#45;&gt;Node4</title>
<path fill="none" stroke="#191970" d="M250.9849,-190.4076C210.5235,-180.1456 155.7807,-166.2583 107.5,-154 103.0916,-152.8807 98.504,-151.7156 93.9122,-150.5492"/>
<polygon fill="#191970" stroke="#191970" points="94.4747,-147.081 83.9208,-148.0109 92.7511,-153.8655 94.4747,-147.081"/>
</g>
<!-- Node1&#45;&gt;Node5 -->
<g id="edge5" class="edge">
<title>Node1&#45;&gt;Node5</title>
<path fill="none" stroke="#191970" d="M338.8393,-190.4445C355.3103,-181.0431 376.003,-168.0761 392.5,-154 439.2454,-114.1145 484.2236,-56.6844 505.5816,-27.8895"/>
<polygon fill="#191970" stroke="#191970" points="508.5659,-29.7387 511.6584,-19.6053 502.9215,-25.5984 508.5659,-29.7387"/>
</g>
<!-- Node6 -->
<g id="node7" class="node">
<title>Node6</title>
<polygon fill="none" stroke="#bfbfbf" points="269,-62 269,-81 326,-81 326,-62 269,-62"/>
<text text-anchor="middle" x="297.5" y="-69" font-family="Helvetica,sans-Serif" font-size="10.00" fill="#000000">gsl/span</text>
</g>
<!-- Node1&#45;&gt;Node6 -->
<g id="edge6" class="edge">
<title>Node1&#45;&gt;Node6</title>
<path fill="none" stroke="#191970" d="M309.034,-190.389C306.675,-166.0735 302.0368,-118.2644 299.418,-91.2698"/>
<polygon fill="#191970" stroke="#191970" points="302.8811,-90.7194 298.4317,-81.1042 295.9138,-91.3954 302.8811,-90.7194"/>
</g>
<!-- Node7 -->
<g id="node8" class="node">
<title>Node7</title>
<g id="a_node8"><a xlink:href="../../d8/d72/Detectors_2MUON_2MCH_2Base_2include_2MCHBase_2Digit_8h.html" target="_top" xlink:title="MCHBase/Digit.h">
<polygon fill="none" stroke="#000000" points="78.5,-62 78.5,-81 176.5,-81 176.5,-62 78.5,-62"/>
<text text-anchor="middle" x="127.5" y="-69" font-family="Helvetica,sans-Serif" font-size="10.00" fill="#000000">MCHBase/Digit.h</text>
</a>
</g>
</g>
<!-- Node1&#45;&gt;Node7 -->
<g id="edge7" class="edge">
<title>Node1&#45;&gt;Node7</title>
<path fill="none" stroke="#191970" d="M233.3786,-190.4812C194.6406,-181.3562 153.259,-168.6514 140.5,-154 125.5962,-136.8856 124.0571,-109.8601 125.1116,-91.4399"/>
<polygon fill="#191970" stroke="#191970" points="128.6183,-91.5162 126.007,-81.2483 121.6451,-90.9035 128.6183,-91.5162"/>
</g>
<!-- Node9 -->
<g id="node10" class="node">
<title>Node9</title>
<g id="a_node10"><a xlink:href="../../d3/d39/MCH_2Base_2include_2MCHBase_2PreCluster_8h.html" target="_top" xlink:title="MCHBase/PreCluster.h">
<polygon fill="none" stroke="#000000" points="150,-129 150,-148 275,-148 275,-129 150,-129"/>
<text text-anchor="middle" x="212.5" y="-136" font-family="Helvetica,sans-Serif" font-size="10.00" fill="#000000">MCHBase/PreCluster.h</text>
</a>
</g>
</g>
<!-- Node1&#45;&gt;Node9 -->
<g id="edge9" class="edge">
<title>Node1&#45;&gt;Node9</title>
<path fill="none" stroke="#191970" d="M288.2623,-190.2967C272.2522,-179.351 250.7437,-164.6462 234.7344,-153.701"/>
<polygon fill="#191970" stroke="#191970" points="236.7064,-150.8095 226.4759,-148.055 232.7557,-156.5881 236.7064,-150.8095"/>
</g>
<!-- Node8 -->
<g id="node9" class="node">
<title>Node8</title>
<polygon fill="none" stroke="#bfbfbf" points="98,-.5 98,-19.5 157,-19.5 157,-.5 98,-.5"/>
<text text-anchor="middle" x="127.5" y="-7.5" font-family="Helvetica,sans-Serif" font-size="10.00" fill="#000000">Rtypes.h</text>
</g>
<!-- Node7&#45;&gt;Node8 -->
<g id="edge8" class="edge">
<title>Node7&#45;&gt;Node8</title>
<path fill="none" stroke="#191970" d="M127.5,-61.8906C127.5,-53.3657 127.5,-40.6392 127.5,-29.9235"/>
<polygon fill="#191970" stroke="#191970" points="131.0001,-29.7448 127.5,-19.7449 124.0001,-29.7449 131.0001,-29.7448"/>
</g>
<!-- Node9&#45;&gt;Node6 -->
<g id="edge11" class="edge">
<title>Node9&#45;&gt;Node6</title>
<path fill="none" stroke="#191970" d="M224.6784,-128.9005C238.4384,-118.0544 261.0465,-100.2339 277.4262,-87.3229"/>
<polygon fill="#191970" stroke="#191970" points="279.6573,-90.0209 285.3442,-81.0817 275.3239,-84.5234 279.6573,-90.0209"/>
</g>
<!-- Node9&#45;&gt;Node7 -->
<g id="edge12" class="edge">
<title>Node9&#45;&gt;Node7</title>
<path fill="none" stroke="#191970" d="M200.3216,-128.9005C186.5616,-118.0544 163.9535,-100.2339 147.5738,-87.3229"/>
<polygon fill="#191970" stroke="#191970" points="149.6761,-84.5234 139.6558,-81.0817 145.3427,-90.0209 149.6761,-84.5234"/>
</g>
<!-- Node10 -->
<g id="node11" class="node">
<title>Node10</title>
<polygon fill="none" stroke="#bfbfbf" points="317.5,-.5 317.5,-19.5 377.5,-19.5 377.5,-.5 317.5,-.5"/>
<text text-anchor="middle" x="347.5" y="-7.5" font-family="Helvetica,sans-Serif" font-size="10.00" fill="#000000">iostream</text>
</g>
<!-- Node9&#45;&gt;Node10 -->
<g id="edge10" class="edge">
<title>Node9&#45;&gt;Node10</title>
<path fill="none" stroke="#191970" d="M215.8648,-128.9493C222.1442,-112.2882 237.0752,-77.6279 259.5,-56 273.918,-42.0944 293.3769,-31.3353 310.3305,-23.7311"/>
<polygon fill="#191970" stroke="#191970" points="312.1426,-26.7632 319.9659,-19.6186 309.3946,-20.3251 312.1426,-26.7632"/>
</g>
<!-- Node16&#45;&gt;Node3 -->
<g id="edge20" class="edge">
<title>Node16&#45;&gt;Node3</title>
<path fill="none" stroke="#191970" d="M575.0174,-195.9005C553.2725,-184.6067 516.9677,-165.7506 491.936,-152.7497"/>
<polygon fill="#191970" stroke="#191970" points="493.4359,-149.5849 482.9483,-148.0817 490.2095,-155.797 493.4359,-149.5849"/>
</g>
<!-- Node16&#45;&gt;Node5 -->
<g id="edge22" class="edge">
<title>Node16&#45;&gt;Node5</title>
<path fill="none" stroke="#191970" d="M589.7807,-195.8051C578.0344,-165.1863 541.5788,-70.1587 525.8485,-29.1551"/>
<polygon fill="#191970" stroke="#191970" points="529.0914,-27.8363 522.2417,-19.7534 522.5558,-30.3436 529.0914,-27.8363"/>
</g>
<!-- Node16&#45;&gt;Node12 -->
<g id="edge21" class="edge">
<title>Node16&#45;&gt;Node12</title>
<path fill="none" stroke="#191970" d="M593.4008,-195.8051C593.0896,-165.3813 592.1278,-71.3666 591.704,-29.9452"/>
<polygon fill="#191970" stroke="#191970" points="595.202,-29.717 591.5998,-19.7534 588.2024,-29.7887 595.202,-29.717"/>
</g>
<!-- Node17 -->
<g id="node18" class="node">
<title>Node17</title>
<g id="a_node18"><a xlink:href="../../d6/d1f/MUON_2MCH_2Mapping_2Interface_2include_2MCHMappingInterface_2Segmentation_8h.html" target="_top" xlink:title="MCHMappingInterface\l/Segmentation.h">
<polygon fill="none" stroke="#000000" points="729.5,-123.5 729.5,-153.5 853.5,-153.5 853.5,-123.5 729.5,-123.5"/>
<text text-anchor="start" x="737.5" y="-141.5" font-family="Helvetica,sans-Serif" font-size="10.00" fill="#000000">MCHMappingInterface</text>
<text text-anchor="middle" x="791.5" y="-130.5" font-family="Helvetica,sans-Serif" font-size="10.00" fill="#000000">/Segmentation.h</text>
</a>
</g>
</g>
<!-- Node16&#45;&gt;Node17 -->
<g id="edge23" class="edge">
<title>Node16&#45;&gt;Node17</title>
<path fill="none" stroke="#191970" d="M621.8686,-195.9005C651.9054,-185.7366 700.0422,-169.4479 737.3776,-156.8141"/>
<polygon fill="#191970" stroke="#191970" points="738.7568,-160.0425 747.1073,-153.5218 736.5131,-153.4118 738.7568,-160.0425"/>
</g>
<!-- Node18 -->
<g id="node19" class="node">
<title>Node18</title>
<g id="a_node19"><a xlink:href="../../df/db6/CathodeSegmentation_8h.html" target="_top" xlink:title="MCHMappingInterface\l/CathodeSegmentation.h">
<polygon fill="none" stroke="#000000" points="723,-56.5 723,-86.5 860,-86.5 860,-56.5 723,-56.5"/>
<text text-anchor="start" x="731" y="-74.5" font-family="Helvetica,sans-Serif" font-size="10.00" fill="#000000">MCHMappingInterface</text>
<text text-anchor="middle" x="791.5" y="-63.5" font-family="Helvetica,sans-Serif" font-size="10.00" fill="#000000">/CathodeSegmentation.h</text>
</a>
</g>
</g>
<!-- Node17&#45;&gt;Node18 -->
<g id="edge24" class="edge">
<title>Node17&#45;&gt;Node18</title>
<path fill="none" stroke="#191970" d="M791.5,-123.2967C791.5,-115.5013 791.5,-105.7991 791.5,-96.9064"/>
<polygon fill="#191970" stroke="#191970" points="795.0001,-96.6431 791.5,-86.6432 788.0001,-96.6432 795.0001,-96.6431"/>
</g>
<!-- Node22 -->
<g id="node23" class="node">
<title>Node22</title>
<g id="a_node23"><a xlink:href="../../d0/d5f/Segmentation_8inl.html" target="_top" xlink:title="Segmentation.inl">
<polygon fill="none" stroke="#000000" points="878.5,-62 878.5,-81 978.5,-81 978.5,-62 878.5,-62"/>
<text text-anchor="middle" x="928.5" y="-69" font-family="Helvetica,sans-Serif" font-size="10.00" fill="#000000">Segmentation.inl</text>
</a>
</g>
</g>
<!-- Node17&#45;&gt;Node22 -->
<g id="edge32" class="edge">
<title>Node17&#45;&gt;Node22</title>
<path fill="none" stroke="#191970" d="M822.2455,-123.4639C845.4394,-112.1209 877.0316,-96.6707 899.7294,-85.5703"/>
<polygon fill="#191970" stroke="#191970" points="901.4165,-88.6414 908.8621,-81.1039 898.3412,-82.3531 901.4165,-88.6414"/>
</g>
<!-- Node18&#45;&gt;Node5 -->
<g id="edge29" class="edge">
<title>Node18&#45;&gt;Node5</title>
<path fill="none" stroke="#191970" d="M722.7447,-57.8593C675.062,-48.0974 610.1909,-34.2162 553.5,-20 553.0403,-19.8847 552.5774,-19.7676 552.1121,-19.6489"/>
<polygon fill="#191970" stroke="#191970" points="552.7306,-16.1913 542.1657,-16.9877 550.9213,-22.9535 552.7306,-16.1913"/>
</g>
<!-- Node18&#45;&gt;Node10 -->
<g id="edge28" class="edge">
<title>Node18&#45;&gt;Node10</title>
<path fill="none" stroke="#191970" d="M722.6122,-61.9581C628.744,-48.9561 463.6686,-26.0909 387.7584,-15.5763"/>
<polygon fill="#191970" stroke="#191970" points="388.0413,-12.0822 377.6556,-14.177 387.0808,-19.016 388.0413,-12.0822"/>
</g>
<!-- Node18&#45;&gt;Node12 -->
<g id="edge27" class="edge">
<title>Node18&#45;&gt;Node12</title>
<path fill="none" stroke="#191970" d="M742.5745,-56.4554C708.1388,-45.8664 662.6577,-31.881 630.6266,-22.0314"/>
<polygon fill="#191970" stroke="#191970" points="631.3176,-18.5822 620.7306,-18.9884 629.2602,-25.2731 631.3176,-18.5822"/>
</g>
<!-- Node18&#45;&gt;Node13 -->
<g id="edge26" class="edge">
<title>Node18&#45;&gt;Node13</title>
<path fill="none" stroke="#191970" d="M860.2511,-57.5861C906.8148,-48.024 969.9743,-34.7863 1033.9854,-20.3015"/>
<polygon fill="#191970" stroke="#191970" points="1034.8717,-23.6894 1043.848,-18.0612 1033.3211,-16.8633 1034.8717,-23.6894"/>
</g>
<!-- Node19 -->
<g id="node20" class="node">
<title>Node19</title>
<g id="a_node20"><a xlink:href="../../d0/dc7/CathodeSegmentationCInterface_8h.html" target="_top" xlink:title="CathodeSegmentationCInterface.h">
<polygon fill="none" stroke="#000000" points="722,-.5 722,-19.5 907,-19.5 907,-.5 722,-.5"/>
<text text-anchor="middle" x="814.5" y="-7.5" font-family="Helvetica,sans-Serif" font-size="10.00" fill="#000000">CathodeSegmentationCInterface.h</text>
</a>
</g>
</g>
<!-- Node18&#45;&gt;Node19 -->
<g id="edge25" class="edge">
<title>Node18&#45;&gt;Node19</title>
<path fill="none" stroke="#191970" d="M797.1854,-56.2977C800.245,-48.1166 804.0498,-37.943 807.3128,-29.2179"/>
<polygon fill="#191970" stroke="#191970" points="810.5927,-30.4394 810.8174,-19.8469 804.0362,-27.9873 810.5927,-30.4394"/>
</g>
<!-- Node20 -->
<g id="node21" class="node">
<title>Node20</title>
<polygon fill="none" stroke="#bfbfbf" points="925,-.5 925,-19.5 1026,-19.5 1026,-.5 925,-.5"/>
<text text-anchor="middle" x="975.5" y="-7.5" font-family="Helvetica,sans-Serif" font-size="10.00" fill="#000000">boost/format.hpp</text>
</g>
<!-- Node18&#45;&gt;Node20 -->
<g id="edge30" class="edge">
<title>Node18&#45;&gt;Node20</title>
<path fill="none" stroke="#191970" d="M836.5115,-56.4554C867.4816,-46.104 908.1628,-32.5067 937.502,-22.7004"/>
<polygon fill="#191970" stroke="#191970" points="938.6118,-26.0199 946.9865,-19.5303 936.3927,-19.3809 938.6118,-26.0199"/>
</g>
<!-- Node21 -->
<g id="node22" class="node">
<title>Node21</title>
<polygon fill="none" stroke="#bfbfbf" points="639,-.5 639,-19.5 704,-19.5 704,-.5 639,-.5"/>
<text text-anchor="middle" x="671.5" y="-7.5" font-family="Helvetica,sans-Serif" font-size="10.00" fill="#000000">functional</text>
</g>
<!-- Node18&#45;&gt;Node21 -->
<g id="edge31" class="edge">
<title>Node18&#45;&gt;Node21</title>
<path fill="none" stroke="#191970" d="M762.1447,-56.4554C742.9127,-46.599 717.9388,-33.7999 699.0759,-24.1327"/>
<polygon fill="#191970" stroke="#191970" points="700.5914,-20.9765 690.0957,-19.5303 697.3987,-27.206 700.5914,-20.9765"/>
</g>
</g>
</svg>
